%TF.GenerationSoftware,KiCad,Pcbnew,6.0.11-2627ca5db0~126~ubuntu22.04.1*%
%TF.CreationDate,2023-02-12T13:00:49-05:00*%
%TF.ProjectId,dac,6461632e-6b69-4636-9164-5f7063625858,rev?*%
%TF.SameCoordinates,Original*%
%TF.FileFunction,Legend,Top*%
%TF.FilePolarity,Positive*%
%FSLAX46Y46*%
G04 Gerber Fmt 4.6, Leading zero omitted, Abs format (unit mm)*
G04 Created by KiCad (PCBNEW 6.0.11-2627ca5db0~126~ubuntu22.04.1) date 2023-02-12 13:00:49*
%MOMM*%
%LPD*%
G01*
G04 APERTURE LIST*
%ADD10C,0.203200*%
%ADD11C,0.152400*%
%ADD12C,0.120000*%
%ADD13C,0.200000*%
G04 APERTURE END LIST*
D10*
X33020000Y-133350000D02*
X63500000Y-133350000D01*
X63500000Y-133350000D02*
X63500000Y-153670000D01*
X63500000Y-153670000D02*
X33020000Y-153670000D01*
X33020000Y-153670000D02*
X33020000Y-133350000D01*
D11*
X38970857Y-130066142D02*
X38462857Y-130066142D01*
X38462857Y-130864428D02*
X38462857Y-129340428D01*
X39188571Y-129340428D01*
X39551428Y-129340428D02*
X40422285Y-129340428D01*
X39986857Y-130864428D02*
X39986857Y-129340428D01*
X40857714Y-129485571D02*
X40930285Y-129413000D01*
X41075428Y-129340428D01*
X41438285Y-129340428D01*
X41583428Y-129413000D01*
X41656000Y-129485571D01*
X41728571Y-129630714D01*
X41728571Y-129775857D01*
X41656000Y-129993571D01*
X40785142Y-130864428D01*
X41728571Y-130864428D01*
X42236571Y-129340428D02*
X43180000Y-129340428D01*
X42672000Y-129921000D01*
X42889714Y-129921000D01*
X43034857Y-129993571D01*
X43107428Y-130066142D01*
X43180000Y-130211285D01*
X43180000Y-130574142D01*
X43107428Y-130719285D01*
X43034857Y-130791857D01*
X42889714Y-130864428D01*
X42454285Y-130864428D01*
X42309142Y-130791857D01*
X42236571Y-130719285D01*
X43760571Y-129485571D02*
X43833142Y-129413000D01*
X43978285Y-129340428D01*
X44341142Y-129340428D01*
X44486285Y-129413000D01*
X44558857Y-129485571D01*
X44631428Y-129630714D01*
X44631428Y-129775857D01*
X44558857Y-129993571D01*
X43688000Y-130864428D01*
X44631428Y-130864428D01*
X46445714Y-129340428D02*
X46445714Y-130574142D01*
X46518285Y-130719285D01*
X46590857Y-130791857D01*
X46736000Y-130864428D01*
X47026285Y-130864428D01*
X47171428Y-130791857D01*
X47244000Y-130719285D01*
X47316571Y-130574142D01*
X47316571Y-129340428D01*
X47969714Y-130791857D02*
X48187428Y-130864428D01*
X48550285Y-130864428D01*
X48695428Y-130791857D01*
X48768000Y-130719285D01*
X48840571Y-130574142D01*
X48840571Y-130429000D01*
X48768000Y-130283857D01*
X48695428Y-130211285D01*
X48550285Y-130138714D01*
X48260000Y-130066142D01*
X48114857Y-129993571D01*
X48042285Y-129921000D01*
X47969714Y-129775857D01*
X47969714Y-129630714D01*
X48042285Y-129485571D01*
X48114857Y-129413000D01*
X48260000Y-129340428D01*
X48622857Y-129340428D01*
X48840571Y-129413000D01*
X50001714Y-130066142D02*
X50219428Y-130138714D01*
X50292000Y-130211285D01*
X50364571Y-130356428D01*
X50364571Y-130574142D01*
X50292000Y-130719285D01*
X50219428Y-130791857D01*
X50074285Y-130864428D01*
X49493714Y-130864428D01*
X49493714Y-129340428D01*
X50001714Y-129340428D01*
X50146857Y-129413000D01*
X50219428Y-129485571D01*
X50292000Y-129630714D01*
X50292000Y-129775857D01*
X50219428Y-129921000D01*
X50146857Y-129993571D01*
X50001714Y-130066142D01*
X49493714Y-130066142D01*
X52106285Y-130791857D02*
X52324000Y-130864428D01*
X52686857Y-130864428D01*
X52832000Y-130791857D01*
X52904571Y-130719285D01*
X52977142Y-130574142D01*
X52977142Y-130429000D01*
X52904571Y-130283857D01*
X52832000Y-130211285D01*
X52686857Y-130138714D01*
X52396571Y-130066142D01*
X52251428Y-129993571D01*
X52178857Y-129921000D01*
X52106285Y-129775857D01*
X52106285Y-129630714D01*
X52178857Y-129485571D01*
X52251428Y-129413000D01*
X52396571Y-129340428D01*
X52759428Y-129340428D01*
X52977142Y-129413000D01*
X54210857Y-130791857D02*
X54065714Y-130864428D01*
X53775428Y-130864428D01*
X53630285Y-130791857D01*
X53557714Y-130646714D01*
X53557714Y-130066142D01*
X53630285Y-129921000D01*
X53775428Y-129848428D01*
X54065714Y-129848428D01*
X54210857Y-129921000D01*
X54283428Y-130066142D01*
X54283428Y-130211285D01*
X53557714Y-130356428D01*
X54936571Y-130864428D02*
X54936571Y-129848428D01*
X54936571Y-130138714D02*
X55009142Y-129993571D01*
X55081714Y-129921000D01*
X55226857Y-129848428D01*
X55372000Y-129848428D01*
X55880000Y-130864428D02*
X55880000Y-129848428D01*
X55880000Y-129340428D02*
X55807428Y-129413000D01*
X55880000Y-129485571D01*
X55952571Y-129413000D01*
X55880000Y-129340428D01*
X55880000Y-129485571D01*
X57258857Y-130864428D02*
X57258857Y-130066142D01*
X57186285Y-129921000D01*
X57041142Y-129848428D01*
X56750857Y-129848428D01*
X56605714Y-129921000D01*
X57258857Y-130791857D02*
X57113714Y-130864428D01*
X56750857Y-130864428D01*
X56605714Y-130791857D01*
X56533142Y-130646714D01*
X56533142Y-130501571D01*
X56605714Y-130356428D01*
X56750857Y-130283857D01*
X57113714Y-130283857D01*
X57258857Y-130211285D01*
X58202285Y-130864428D02*
X58057142Y-130791857D01*
X57984571Y-130646714D01*
X57984571Y-129340428D01*
X29645428Y-85144428D02*
X28774571Y-85144428D01*
X29210000Y-85144428D02*
X29210000Y-83620428D01*
X29064857Y-83838142D01*
X28919714Y-83983285D01*
X28774571Y-84055857D01*
X64062428Y-80590571D02*
X64135000Y-80518000D01*
X64280142Y-80445428D01*
X64643000Y-80445428D01*
X64788142Y-80518000D01*
X64860714Y-80590571D01*
X64933285Y-80735714D01*
X64933285Y-80880857D01*
X64860714Y-81098571D01*
X63989857Y-81969428D01*
X64933285Y-81969428D01*
X66239571Y-80953428D02*
X66239571Y-81969428D01*
X65876714Y-80372857D02*
X65513857Y-81461428D01*
X66457285Y-81461428D01*
X67328142Y-80445428D02*
X67473285Y-80445428D01*
X67618428Y-80518000D01*
X67691000Y-80590571D01*
X67763571Y-80735714D01*
X67836142Y-81026000D01*
X67836142Y-81388857D01*
X67763571Y-81679142D01*
X67691000Y-81824285D01*
X67618428Y-81896857D01*
X67473285Y-81969428D01*
X67328142Y-81969428D01*
X67183000Y-81896857D01*
X67110428Y-81824285D01*
X67037857Y-81679142D01*
X66965285Y-81388857D01*
X66965285Y-81026000D01*
X67037857Y-80735714D01*
X67110428Y-80590571D01*
X67183000Y-80518000D01*
X67328142Y-80445428D01*
X68779571Y-80445428D02*
X68924714Y-80445428D01*
X69069857Y-80518000D01*
X69142428Y-80590571D01*
X69215000Y-80735714D01*
X69287571Y-81026000D01*
X69287571Y-81388857D01*
X69215000Y-81679142D01*
X69142428Y-81824285D01*
X69069857Y-81896857D01*
X68924714Y-81969428D01*
X68779571Y-81969428D01*
X68634428Y-81896857D01*
X68561857Y-81824285D01*
X68489285Y-81679142D01*
X68416714Y-81388857D01*
X68416714Y-81026000D01*
X68489285Y-80735714D01*
X68561857Y-80590571D01*
X68634428Y-80518000D01*
X68779571Y-80445428D01*
X64679285Y-74349428D02*
X63808428Y-74349428D01*
X64243857Y-74349428D02*
X64243857Y-72825428D01*
X64098714Y-73043142D01*
X63953571Y-73188285D01*
X63808428Y-73260857D01*
X65405000Y-74349428D02*
X65695285Y-74349428D01*
X65840428Y-74276857D01*
X65913000Y-74204285D01*
X66058142Y-73986571D01*
X66130714Y-73696285D01*
X66130714Y-73115714D01*
X66058142Y-72970571D01*
X65985571Y-72898000D01*
X65840428Y-72825428D01*
X65550142Y-72825428D01*
X65405000Y-72898000D01*
X65332428Y-72970571D01*
X65259857Y-73115714D01*
X65259857Y-73478571D01*
X65332428Y-73623714D01*
X65405000Y-73696285D01*
X65550142Y-73768857D01*
X65840428Y-73768857D01*
X65985571Y-73696285D01*
X66058142Y-73623714D01*
X66130714Y-73478571D01*
X66783857Y-74204285D02*
X66856428Y-74276857D01*
X66783857Y-74349428D01*
X66711285Y-74276857D01*
X66783857Y-74204285D01*
X66783857Y-74349428D01*
X67437000Y-72970571D02*
X67509571Y-72898000D01*
X67654714Y-72825428D01*
X68017571Y-72825428D01*
X68162714Y-72898000D01*
X68235285Y-72970571D01*
X68307857Y-73115714D01*
X68307857Y-73260857D01*
X68235285Y-73478571D01*
X67364428Y-74349428D01*
X68307857Y-74349428D01*
X68961000Y-74349428D02*
X68961000Y-72825428D01*
X69106142Y-73768857D02*
X69541571Y-74349428D01*
X69541571Y-73333428D02*
X68961000Y-73914000D01*
X56515000Y-67201142D02*
X56732714Y-67273714D01*
X56805285Y-67346285D01*
X56877857Y-67491428D01*
X56877857Y-67709142D01*
X56805285Y-67854285D01*
X56732714Y-67926857D01*
X56587571Y-67999428D01*
X56007000Y-67999428D01*
X56007000Y-66475428D01*
X56515000Y-66475428D01*
X56660142Y-66548000D01*
X56732714Y-66620571D01*
X56805285Y-66765714D01*
X56805285Y-66910857D01*
X56732714Y-67056000D01*
X56660142Y-67128571D01*
X56515000Y-67201142D01*
X56007000Y-67201142D01*
X58184142Y-67999428D02*
X58184142Y-67201142D01*
X58111571Y-67056000D01*
X57966428Y-66983428D01*
X57676142Y-66983428D01*
X57531000Y-67056000D01*
X58184142Y-67926857D02*
X58039000Y-67999428D01*
X57676142Y-67999428D01*
X57531000Y-67926857D01*
X57458428Y-67781714D01*
X57458428Y-67636571D01*
X57531000Y-67491428D01*
X57676142Y-67418857D01*
X58039000Y-67418857D01*
X58184142Y-67346285D01*
X59563000Y-66983428D02*
X59563000Y-67999428D01*
X58909857Y-66983428D02*
X58909857Y-67781714D01*
X58982428Y-67926857D01*
X59127571Y-67999428D01*
X59345285Y-67999428D01*
X59490428Y-67926857D01*
X59563000Y-67854285D01*
X60941857Y-67999428D02*
X60941857Y-66475428D01*
X60941857Y-67926857D02*
X60796714Y-67999428D01*
X60506428Y-67999428D01*
X60361285Y-67926857D01*
X60288714Y-67854285D01*
X60216142Y-67709142D01*
X60216142Y-67273714D01*
X60288714Y-67128571D01*
X60361285Y-67056000D01*
X60506428Y-66983428D01*
X60796714Y-66983428D01*
X60941857Y-67056000D01*
X63699571Y-67999428D02*
X63191571Y-67273714D01*
X62828714Y-67999428D02*
X62828714Y-66475428D01*
X63409285Y-66475428D01*
X63554428Y-66548000D01*
X63627000Y-66620571D01*
X63699571Y-66765714D01*
X63699571Y-66983428D01*
X63627000Y-67128571D01*
X63554428Y-67201142D01*
X63409285Y-67273714D01*
X62828714Y-67273714D01*
X65005857Y-67999428D02*
X65005857Y-67201142D01*
X64933285Y-67056000D01*
X64788142Y-66983428D01*
X64497857Y-66983428D01*
X64352714Y-67056000D01*
X65005857Y-67926857D02*
X64860714Y-67999428D01*
X64497857Y-67999428D01*
X64352714Y-67926857D01*
X64280142Y-67781714D01*
X64280142Y-67636571D01*
X64352714Y-67491428D01*
X64497857Y-67418857D01*
X64860714Y-67418857D01*
X65005857Y-67346285D01*
X65513857Y-66983428D02*
X66094428Y-66983428D01*
X65731571Y-66475428D02*
X65731571Y-67781714D01*
X65804142Y-67926857D01*
X65949285Y-67999428D01*
X66094428Y-67999428D01*
X67183000Y-67926857D02*
X67037857Y-67999428D01*
X66747571Y-67999428D01*
X66602428Y-67926857D01*
X66529857Y-67781714D01*
X66529857Y-67201142D01*
X66602428Y-67056000D01*
X66747571Y-66983428D01*
X67037857Y-66983428D01*
X67183000Y-67056000D01*
X67255571Y-67201142D01*
X67255571Y-67346285D01*
X66529857Y-67491428D01*
X134130142Y-113465428D02*
X135146142Y-114989428D01*
X135146142Y-113465428D02*
X134130142Y-114989428D01*
X136017000Y-114263714D02*
X136017000Y-114989428D01*
X135509000Y-113465428D02*
X136017000Y-114263714D01*
X136525000Y-113465428D01*
X138484428Y-113465428D02*
X138774714Y-113465428D01*
X138919857Y-113538000D01*
X139065000Y-113683142D01*
X139137571Y-113973428D01*
X139137571Y-114481428D01*
X139065000Y-114771714D01*
X138919857Y-114916857D01*
X138774714Y-114989428D01*
X138484428Y-114989428D01*
X138339285Y-114916857D01*
X138194142Y-114771714D01*
X138121571Y-114481428D01*
X138121571Y-113973428D01*
X138194142Y-113683142D01*
X138339285Y-113538000D01*
X138484428Y-113465428D01*
X140443857Y-113973428D02*
X140443857Y-114989428D01*
X139790714Y-113973428D02*
X139790714Y-114771714D01*
X139863285Y-114916857D01*
X140008428Y-114989428D01*
X140226142Y-114989428D01*
X140371285Y-114916857D01*
X140443857Y-114844285D01*
X140951857Y-113973428D02*
X141532428Y-113973428D01*
X141169571Y-113465428D02*
X141169571Y-114771714D01*
X141242142Y-114916857D01*
X141387285Y-114989428D01*
X141532428Y-114989428D01*
X64080571Y-88065428D02*
X65024000Y-88065428D01*
X64516000Y-88646000D01*
X64733714Y-88646000D01*
X64878857Y-88718571D01*
X64951428Y-88791142D01*
X65024000Y-88936285D01*
X65024000Y-89299142D01*
X64951428Y-89444285D01*
X64878857Y-89516857D01*
X64733714Y-89589428D01*
X64298285Y-89589428D01*
X64153142Y-89516857D01*
X64080571Y-89444285D01*
X65967428Y-88065428D02*
X66112571Y-88065428D01*
X66257714Y-88138000D01*
X66330285Y-88210571D01*
X66402857Y-88355714D01*
X66475428Y-88646000D01*
X66475428Y-89008857D01*
X66402857Y-89299142D01*
X66330285Y-89444285D01*
X66257714Y-89516857D01*
X66112571Y-89589428D01*
X65967428Y-89589428D01*
X65822285Y-89516857D01*
X65749714Y-89444285D01*
X65677142Y-89299142D01*
X65604571Y-89008857D01*
X65604571Y-88646000D01*
X65677142Y-88355714D01*
X65749714Y-88210571D01*
X65822285Y-88138000D01*
X65967428Y-88065428D01*
X67418857Y-88065428D02*
X67564000Y-88065428D01*
X67709142Y-88138000D01*
X67781714Y-88210571D01*
X67854285Y-88355714D01*
X67926857Y-88646000D01*
X67926857Y-89008857D01*
X67854285Y-89299142D01*
X67781714Y-89444285D01*
X67709142Y-89516857D01*
X67564000Y-89589428D01*
X67418857Y-89589428D01*
X67273714Y-89516857D01*
X67201142Y-89444285D01*
X67128571Y-89299142D01*
X67056000Y-89008857D01*
X67056000Y-88646000D01*
X67128571Y-88355714D01*
X67201142Y-88210571D01*
X67273714Y-88138000D01*
X67418857Y-88065428D01*
X32149142Y-122428000D02*
X32004000Y-122355428D01*
X31786285Y-122355428D01*
X31568571Y-122428000D01*
X31423428Y-122573142D01*
X31350857Y-122718285D01*
X31278285Y-123008571D01*
X31278285Y-123226285D01*
X31350857Y-123516571D01*
X31423428Y-123661714D01*
X31568571Y-123806857D01*
X31786285Y-123879428D01*
X31931428Y-123879428D01*
X32149142Y-123806857D01*
X32221714Y-123734285D01*
X32221714Y-123226285D01*
X31931428Y-123226285D01*
X31078714Y-120758857D02*
X32239857Y-120758857D01*
X31659285Y-121339428D02*
X31659285Y-120178285D01*
X33691285Y-119815428D02*
X32965571Y-119815428D01*
X32893000Y-120541142D01*
X32965571Y-120468571D01*
X33110714Y-120396000D01*
X33473571Y-120396000D01*
X33618714Y-120468571D01*
X33691285Y-120541142D01*
X33763857Y-120686285D01*
X33763857Y-121049142D01*
X33691285Y-121194285D01*
X33618714Y-121266857D01*
X33473571Y-121339428D01*
X33110714Y-121339428D01*
X32965571Y-121266857D01*
X32893000Y-121194285D01*
X64207571Y-76889428D02*
X64497857Y-76889428D01*
X64643000Y-76816857D01*
X64715571Y-76744285D01*
X64860714Y-76526571D01*
X64933285Y-76236285D01*
X64933285Y-75655714D01*
X64860714Y-75510571D01*
X64788142Y-75438000D01*
X64643000Y-75365428D01*
X64352714Y-75365428D01*
X64207571Y-75438000D01*
X64135000Y-75510571D01*
X64062428Y-75655714D01*
X64062428Y-76018571D01*
X64135000Y-76163714D01*
X64207571Y-76236285D01*
X64352714Y-76308857D01*
X64643000Y-76308857D01*
X64788142Y-76236285D01*
X64860714Y-76163714D01*
X64933285Y-76018571D01*
X66239571Y-75365428D02*
X65949285Y-75365428D01*
X65804142Y-75438000D01*
X65731571Y-75510571D01*
X65586428Y-75728285D01*
X65513857Y-76018571D01*
X65513857Y-76599142D01*
X65586428Y-76744285D01*
X65659000Y-76816857D01*
X65804142Y-76889428D01*
X66094428Y-76889428D01*
X66239571Y-76816857D01*
X66312142Y-76744285D01*
X66384714Y-76599142D01*
X66384714Y-76236285D01*
X66312142Y-76091142D01*
X66239571Y-76018571D01*
X66094428Y-75946000D01*
X65804142Y-75946000D01*
X65659000Y-76018571D01*
X65586428Y-76091142D01*
X65513857Y-76236285D01*
X67328142Y-75365428D02*
X67473285Y-75365428D01*
X67618428Y-75438000D01*
X67691000Y-75510571D01*
X67763571Y-75655714D01*
X67836142Y-75946000D01*
X67836142Y-76308857D01*
X67763571Y-76599142D01*
X67691000Y-76744285D01*
X67618428Y-76816857D01*
X67473285Y-76889428D01*
X67328142Y-76889428D01*
X67183000Y-76816857D01*
X67110428Y-76744285D01*
X67037857Y-76599142D01*
X66965285Y-76308857D01*
X66965285Y-75946000D01*
X67037857Y-75655714D01*
X67110428Y-75510571D01*
X67183000Y-75438000D01*
X67328142Y-75365428D01*
X68779571Y-75365428D02*
X68924714Y-75365428D01*
X69069857Y-75438000D01*
X69142428Y-75510571D01*
X69215000Y-75655714D01*
X69287571Y-75946000D01*
X69287571Y-76308857D01*
X69215000Y-76599142D01*
X69142428Y-76744285D01*
X69069857Y-76816857D01*
X68924714Y-76889428D01*
X68779571Y-76889428D01*
X68634428Y-76816857D01*
X68561857Y-76744285D01*
X68489285Y-76599142D01*
X68416714Y-76308857D01*
X68416714Y-75946000D01*
X68489285Y-75655714D01*
X68561857Y-75510571D01*
X68634428Y-75438000D01*
X68779571Y-75365428D01*
X135418285Y-129340428D02*
X136434285Y-129340428D01*
X135418285Y-130864428D01*
X136434285Y-130864428D01*
X138466285Y-129340428D02*
X138756571Y-129340428D01*
X138901714Y-129413000D01*
X139046857Y-129558142D01*
X139119428Y-129848428D01*
X139119428Y-130356428D01*
X139046857Y-130646714D01*
X138901714Y-130791857D01*
X138756571Y-130864428D01*
X138466285Y-130864428D01*
X138321142Y-130791857D01*
X138176000Y-130646714D01*
X138103428Y-130356428D01*
X138103428Y-129848428D01*
X138176000Y-129558142D01*
X138321142Y-129413000D01*
X138466285Y-129340428D01*
X140425714Y-129848428D02*
X140425714Y-130864428D01*
X139772571Y-129848428D02*
X139772571Y-130646714D01*
X139845142Y-130791857D01*
X139990285Y-130864428D01*
X140208000Y-130864428D01*
X140353142Y-130791857D01*
X140425714Y-130719285D01*
X140933714Y-129848428D02*
X141514285Y-129848428D01*
X141151428Y-129340428D02*
X141151428Y-130646714D01*
X141224000Y-130791857D01*
X141369142Y-130864428D01*
X141514285Y-130864428D01*
X63735857Y-70285428D02*
X64679285Y-70285428D01*
X64171285Y-70866000D01*
X64389000Y-70866000D01*
X64534142Y-70938571D01*
X64606714Y-71011142D01*
X64679285Y-71156285D01*
X64679285Y-71519142D01*
X64606714Y-71664285D01*
X64534142Y-71736857D01*
X64389000Y-71809428D01*
X63953571Y-71809428D01*
X63808428Y-71736857D01*
X63735857Y-71664285D01*
X65550142Y-70938571D02*
X65405000Y-70866000D01*
X65332428Y-70793428D01*
X65259857Y-70648285D01*
X65259857Y-70575714D01*
X65332428Y-70430571D01*
X65405000Y-70358000D01*
X65550142Y-70285428D01*
X65840428Y-70285428D01*
X65985571Y-70358000D01*
X66058142Y-70430571D01*
X66130714Y-70575714D01*
X66130714Y-70648285D01*
X66058142Y-70793428D01*
X65985571Y-70866000D01*
X65840428Y-70938571D01*
X65550142Y-70938571D01*
X65405000Y-71011142D01*
X65332428Y-71083714D01*
X65259857Y-71228857D01*
X65259857Y-71519142D01*
X65332428Y-71664285D01*
X65405000Y-71736857D01*
X65550142Y-71809428D01*
X65840428Y-71809428D01*
X65985571Y-71736857D01*
X66058142Y-71664285D01*
X66130714Y-71519142D01*
X66130714Y-71228857D01*
X66058142Y-71083714D01*
X65985571Y-71011142D01*
X65840428Y-70938571D01*
X66783857Y-71664285D02*
X66856428Y-71736857D01*
X66783857Y-71809428D01*
X66711285Y-71736857D01*
X66783857Y-71664285D01*
X66783857Y-71809428D01*
X68162714Y-70793428D02*
X68162714Y-71809428D01*
X67799857Y-70212857D02*
X67437000Y-71301428D01*
X68380428Y-71301428D01*
X68961000Y-71809428D02*
X68961000Y-70285428D01*
X69106142Y-71228857D02*
X69541571Y-71809428D01*
X69541571Y-70793428D02*
X68961000Y-71374000D01*
X64933285Y-84509428D02*
X64062428Y-84509428D01*
X64497857Y-84509428D02*
X64497857Y-82985428D01*
X64352714Y-83203142D01*
X64207571Y-83348285D01*
X64062428Y-83420857D01*
X65513857Y-83130571D02*
X65586428Y-83058000D01*
X65731571Y-82985428D01*
X66094428Y-82985428D01*
X66239571Y-83058000D01*
X66312142Y-83130571D01*
X66384714Y-83275714D01*
X66384714Y-83420857D01*
X66312142Y-83638571D01*
X65441285Y-84509428D01*
X66384714Y-84509428D01*
X67328142Y-82985428D02*
X67473285Y-82985428D01*
X67618428Y-83058000D01*
X67691000Y-83130571D01*
X67763571Y-83275714D01*
X67836142Y-83566000D01*
X67836142Y-83928857D01*
X67763571Y-84219142D01*
X67691000Y-84364285D01*
X67618428Y-84436857D01*
X67473285Y-84509428D01*
X67328142Y-84509428D01*
X67183000Y-84436857D01*
X67110428Y-84364285D01*
X67037857Y-84219142D01*
X66965285Y-83928857D01*
X66965285Y-83566000D01*
X67037857Y-83275714D01*
X67110428Y-83130571D01*
X67183000Y-83058000D01*
X67328142Y-82985428D01*
X68779571Y-82985428D02*
X68924714Y-82985428D01*
X69069857Y-83058000D01*
X69142428Y-83130571D01*
X69215000Y-83275714D01*
X69287571Y-83566000D01*
X69287571Y-83928857D01*
X69215000Y-84219142D01*
X69142428Y-84364285D01*
X69069857Y-84436857D01*
X68924714Y-84509428D01*
X68779571Y-84509428D01*
X68634428Y-84436857D01*
X68561857Y-84364285D01*
X68489285Y-84219142D01*
X68416714Y-83928857D01*
X68416714Y-83566000D01*
X68489285Y-83275714D01*
X68561857Y-83130571D01*
X68634428Y-83058000D01*
X68779571Y-82985428D01*
X27069142Y-89426142D02*
X27286857Y-89498714D01*
X27359428Y-89571285D01*
X27432000Y-89716428D01*
X27432000Y-89934142D01*
X27359428Y-90079285D01*
X27286857Y-90151857D01*
X27141714Y-90224428D01*
X26561142Y-90224428D01*
X26561142Y-88700428D01*
X27069142Y-88700428D01*
X27214285Y-88773000D01*
X27286857Y-88845571D01*
X27359428Y-88990714D01*
X27359428Y-89135857D01*
X27286857Y-89281000D01*
X27214285Y-89353571D01*
X27069142Y-89426142D01*
X26561142Y-89426142D01*
X28738285Y-90224428D02*
X28738285Y-89426142D01*
X28665714Y-89281000D01*
X28520571Y-89208428D01*
X28230285Y-89208428D01*
X28085142Y-89281000D01*
X28738285Y-90151857D02*
X28593142Y-90224428D01*
X28230285Y-90224428D01*
X28085142Y-90151857D01*
X28012571Y-90006714D01*
X28012571Y-89861571D01*
X28085142Y-89716428D01*
X28230285Y-89643857D01*
X28593142Y-89643857D01*
X28738285Y-89571285D01*
X29246285Y-89208428D02*
X29826857Y-89208428D01*
X29464000Y-88700428D02*
X29464000Y-90006714D01*
X29536571Y-90151857D01*
X29681714Y-90224428D01*
X29826857Y-90224428D01*
X30117142Y-89208428D02*
X30697714Y-89208428D01*
X30334857Y-88700428D02*
X30334857Y-90006714D01*
X30407428Y-90151857D01*
X30552571Y-90224428D01*
X30697714Y-90224428D01*
X32221714Y-88700428D02*
X33165142Y-88700428D01*
X32657142Y-89281000D01*
X32874857Y-89281000D01*
X33020000Y-89353571D01*
X33092571Y-89426142D01*
X33165142Y-89571285D01*
X33165142Y-89934142D01*
X33092571Y-90079285D01*
X33020000Y-90151857D01*
X32874857Y-90224428D01*
X32439428Y-90224428D01*
X32294285Y-90151857D01*
X32221714Y-90079285D01*
X33600571Y-88700428D02*
X34108571Y-90224428D01*
X34616571Y-88700428D01*
X64788142Y-78413428D02*
X64788142Y-79429428D01*
X64425285Y-77832857D02*
X64062428Y-78921428D01*
X65005857Y-78921428D01*
X65804142Y-78558571D02*
X65659000Y-78486000D01*
X65586428Y-78413428D01*
X65513857Y-78268285D01*
X65513857Y-78195714D01*
X65586428Y-78050571D01*
X65659000Y-77978000D01*
X65804142Y-77905428D01*
X66094428Y-77905428D01*
X66239571Y-77978000D01*
X66312142Y-78050571D01*
X66384714Y-78195714D01*
X66384714Y-78268285D01*
X66312142Y-78413428D01*
X66239571Y-78486000D01*
X66094428Y-78558571D01*
X65804142Y-78558571D01*
X65659000Y-78631142D01*
X65586428Y-78703714D01*
X65513857Y-78848857D01*
X65513857Y-79139142D01*
X65586428Y-79284285D01*
X65659000Y-79356857D01*
X65804142Y-79429428D01*
X66094428Y-79429428D01*
X66239571Y-79356857D01*
X66312142Y-79284285D01*
X66384714Y-79139142D01*
X66384714Y-78848857D01*
X66312142Y-78703714D01*
X66239571Y-78631142D01*
X66094428Y-78558571D01*
X67328142Y-77905428D02*
X67473285Y-77905428D01*
X67618428Y-77978000D01*
X67691000Y-78050571D01*
X67763571Y-78195714D01*
X67836142Y-78486000D01*
X67836142Y-78848857D01*
X67763571Y-79139142D01*
X67691000Y-79284285D01*
X67618428Y-79356857D01*
X67473285Y-79429428D01*
X67328142Y-79429428D01*
X67183000Y-79356857D01*
X67110428Y-79284285D01*
X67037857Y-79139142D01*
X66965285Y-78848857D01*
X66965285Y-78486000D01*
X67037857Y-78195714D01*
X67110428Y-78050571D01*
X67183000Y-77978000D01*
X67328142Y-77905428D01*
X68779571Y-77905428D02*
X68924714Y-77905428D01*
X69069857Y-77978000D01*
X69142428Y-78050571D01*
X69215000Y-78195714D01*
X69287571Y-78486000D01*
X69287571Y-78848857D01*
X69215000Y-79139142D01*
X69142428Y-79284285D01*
X69069857Y-79356857D01*
X68924714Y-79429428D01*
X68779571Y-79429428D01*
X68634428Y-79356857D01*
X68561857Y-79284285D01*
X68489285Y-79139142D01*
X68416714Y-78848857D01*
X68416714Y-78486000D01*
X68489285Y-78195714D01*
X68561857Y-78050571D01*
X68634428Y-77978000D01*
X68779571Y-77905428D01*
X64878857Y-85525428D02*
X64588571Y-85525428D01*
X64443428Y-85598000D01*
X64370857Y-85670571D01*
X64225714Y-85888285D01*
X64153142Y-86178571D01*
X64153142Y-86759142D01*
X64225714Y-86904285D01*
X64298285Y-86976857D01*
X64443428Y-87049428D01*
X64733714Y-87049428D01*
X64878857Y-86976857D01*
X64951428Y-86904285D01*
X65024000Y-86759142D01*
X65024000Y-86396285D01*
X64951428Y-86251142D01*
X64878857Y-86178571D01*
X64733714Y-86106000D01*
X64443428Y-86106000D01*
X64298285Y-86178571D01*
X64225714Y-86251142D01*
X64153142Y-86396285D01*
X65967428Y-85525428D02*
X66112571Y-85525428D01*
X66257714Y-85598000D01*
X66330285Y-85670571D01*
X66402857Y-85815714D01*
X66475428Y-86106000D01*
X66475428Y-86468857D01*
X66402857Y-86759142D01*
X66330285Y-86904285D01*
X66257714Y-86976857D01*
X66112571Y-87049428D01*
X65967428Y-87049428D01*
X65822285Y-86976857D01*
X65749714Y-86904285D01*
X65677142Y-86759142D01*
X65604571Y-86468857D01*
X65604571Y-86106000D01*
X65677142Y-85815714D01*
X65749714Y-85670571D01*
X65822285Y-85598000D01*
X65967428Y-85525428D01*
X67418857Y-85525428D02*
X67564000Y-85525428D01*
X67709142Y-85598000D01*
X67781714Y-85670571D01*
X67854285Y-85815714D01*
X67926857Y-86106000D01*
X67926857Y-86468857D01*
X67854285Y-86759142D01*
X67781714Y-86904285D01*
X67709142Y-86976857D01*
X67564000Y-87049428D01*
X67418857Y-87049428D01*
X67273714Y-86976857D01*
X67201142Y-86904285D01*
X67128571Y-86759142D01*
X67056000Y-86468857D01*
X67056000Y-86106000D01*
X67128571Y-85815714D01*
X67201142Y-85670571D01*
X67273714Y-85598000D01*
X67418857Y-85525428D01*
X35628217Y-115180654D02*
X35700788Y-114962940D01*
X35700788Y-114600082D01*
X35628217Y-114454940D01*
X35555645Y-114382368D01*
X35410502Y-114309797D01*
X35265360Y-114309797D01*
X35120217Y-114382368D01*
X35047645Y-114454940D01*
X34975074Y-114600082D01*
X34902502Y-114890368D01*
X34829931Y-115035511D01*
X34757360Y-115108082D01*
X34612217Y-115180654D01*
X34467074Y-115180654D01*
X34321931Y-115108082D01*
X34249360Y-115035511D01*
X34176788Y-114890368D01*
X34176788Y-114527511D01*
X34249360Y-114309797D01*
X35628217Y-113003511D02*
X35700788Y-113148654D01*
X35700788Y-113438940D01*
X35628217Y-113584082D01*
X35555645Y-113656654D01*
X35410502Y-113729225D01*
X34975074Y-113729225D01*
X34829931Y-113656654D01*
X34757360Y-113584082D01*
X34684788Y-113438940D01*
X34684788Y-113148654D01*
X34757360Y-113003511D01*
X35700788Y-112132654D02*
X35628217Y-112277797D01*
X35555645Y-112350368D01*
X35410502Y-112422940D01*
X34975074Y-112422940D01*
X34829931Y-112350368D01*
X34757360Y-112277797D01*
X34684788Y-112132654D01*
X34684788Y-111914940D01*
X34757360Y-111769797D01*
X34829931Y-111697225D01*
X34975074Y-111624654D01*
X35410502Y-111624654D01*
X35555645Y-111697225D01*
X35628217Y-111769797D01*
X35700788Y-111914940D01*
X35700788Y-112132654D01*
X34684788Y-110971511D02*
X36208788Y-110971511D01*
X34757360Y-110971511D02*
X34684788Y-110826368D01*
X34684788Y-110536082D01*
X34757360Y-110390940D01*
X34829931Y-110318368D01*
X34975074Y-110245797D01*
X35410502Y-110245797D01*
X35555645Y-110318368D01*
X35628217Y-110390940D01*
X35700788Y-110536082D01*
X35700788Y-110826368D01*
X35628217Y-110971511D01*
X35628217Y-109012082D02*
X35700788Y-109157225D01*
X35700788Y-109447511D01*
X35628217Y-109592654D01*
X35483074Y-109665225D01*
X34902502Y-109665225D01*
X34757360Y-109592654D01*
X34684788Y-109447511D01*
X34684788Y-109157225D01*
X34757360Y-109012082D01*
X34902502Y-108939511D01*
X35047645Y-108939511D01*
X35192788Y-109665225D01*
X35555645Y-106254368D02*
X35628217Y-106326940D01*
X35700788Y-106544654D01*
X35700788Y-106689797D01*
X35628217Y-106907511D01*
X35483074Y-107052654D01*
X35337931Y-107125225D01*
X35047645Y-107197797D01*
X34829931Y-107197797D01*
X34539645Y-107125225D01*
X34394502Y-107052654D01*
X34249360Y-106907511D01*
X34176788Y-106689797D01*
X34176788Y-106544654D01*
X34249360Y-106326940D01*
X34321931Y-106254368D01*
X35700788Y-105383511D02*
X35628217Y-105528654D01*
X35483074Y-105601225D01*
X34176788Y-105601225D01*
X35700788Y-104585225D02*
X35628217Y-104730368D01*
X35555645Y-104802940D01*
X35410502Y-104875511D01*
X34975074Y-104875511D01*
X34829931Y-104802940D01*
X34757360Y-104730368D01*
X34684788Y-104585225D01*
X34684788Y-104367511D01*
X34757360Y-104222368D01*
X34829931Y-104149797D01*
X34975074Y-104077225D01*
X35410502Y-104077225D01*
X35555645Y-104149797D01*
X35628217Y-104222368D01*
X35700788Y-104367511D01*
X35700788Y-104585225D01*
X35628217Y-102770940D02*
X35700788Y-102916082D01*
X35700788Y-103206368D01*
X35628217Y-103351511D01*
X35555645Y-103424082D01*
X35410502Y-103496654D01*
X34975074Y-103496654D01*
X34829931Y-103424082D01*
X34757360Y-103351511D01*
X34684788Y-103206368D01*
X34684788Y-102916082D01*
X34757360Y-102770940D01*
X35700788Y-102117797D02*
X34176788Y-102117797D01*
X35120217Y-101972654D02*
X35700788Y-101537225D01*
X34684788Y-101537225D02*
X35265360Y-102117797D01*
X35700788Y-99722940D02*
X34176788Y-99722940D01*
X34176788Y-99360082D01*
X34249360Y-99142368D01*
X34394502Y-98997225D01*
X34539645Y-98924654D01*
X34829931Y-98852082D01*
X35047645Y-98852082D01*
X35337931Y-98924654D01*
X35483074Y-98997225D01*
X35628217Y-99142368D01*
X35700788Y-99360082D01*
X35700788Y-99722940D01*
X35700788Y-98198940D02*
X34684788Y-98198940D01*
X34176788Y-98198940D02*
X34249360Y-98271511D01*
X34321931Y-98198940D01*
X34249360Y-98126368D01*
X34176788Y-98198940D01*
X34321931Y-98198940D01*
X35628217Y-97545797D02*
X35700788Y-97400654D01*
X35700788Y-97110368D01*
X35628217Y-96965225D01*
X35483074Y-96892654D01*
X35410502Y-96892654D01*
X35265360Y-96965225D01*
X35192788Y-97110368D01*
X35192788Y-97328082D01*
X35120217Y-97473225D01*
X34975074Y-97545797D01*
X34902502Y-97545797D01*
X34757360Y-97473225D01*
X34684788Y-97328082D01*
X34684788Y-97110368D01*
X34757360Y-96965225D01*
X34684788Y-96239511D02*
X36208788Y-96239511D01*
X34757360Y-96239511D02*
X34684788Y-96094368D01*
X34684788Y-95804082D01*
X34757360Y-95658940D01*
X34829931Y-95586368D01*
X34975074Y-95513797D01*
X35410502Y-95513797D01*
X35555645Y-95586368D01*
X35628217Y-95658940D01*
X35700788Y-95804082D01*
X35700788Y-96094368D01*
X35628217Y-96239511D01*
X35700788Y-94642940D02*
X35628217Y-94788082D01*
X35483074Y-94860654D01*
X34176788Y-94860654D01*
X35700788Y-93409225D02*
X34902502Y-93409225D01*
X34757360Y-93481797D01*
X34684788Y-93626940D01*
X34684788Y-93917225D01*
X34757360Y-94062368D01*
X35628217Y-93409225D02*
X35700788Y-93554368D01*
X35700788Y-93917225D01*
X35628217Y-94062368D01*
X35483074Y-94134940D01*
X35337931Y-94134940D01*
X35192788Y-94062368D01*
X35120217Y-93917225D01*
X35120217Y-93554368D01*
X35047645Y-93409225D01*
X34684788Y-92828654D02*
X35700788Y-92465797D01*
X34684788Y-92102940D02*
X35700788Y-92465797D01*
X36063645Y-92610940D01*
X36136217Y-92683511D01*
X36208788Y-92828654D01*
X38154428Y-114237225D02*
X37428714Y-114745225D01*
X38154428Y-115108082D02*
X36630428Y-115108082D01*
X36630428Y-114527511D01*
X36703000Y-114382368D01*
X36775571Y-114309797D01*
X36920714Y-114237225D01*
X37138428Y-114237225D01*
X37283571Y-114309797D01*
X37356142Y-114382368D01*
X37428714Y-114527511D01*
X37428714Y-115108082D01*
X38081857Y-113003511D02*
X38154428Y-113148654D01*
X38154428Y-113438940D01*
X38081857Y-113584082D01*
X37936714Y-113656654D01*
X37356142Y-113656654D01*
X37211000Y-113584082D01*
X37138428Y-113438940D01*
X37138428Y-113148654D01*
X37211000Y-113003511D01*
X37356142Y-112930940D01*
X37501285Y-112930940D01*
X37646428Y-113656654D01*
X37138428Y-112422940D02*
X38154428Y-112060082D01*
X37138428Y-111697225D01*
X36775571Y-110028082D02*
X36703000Y-109955511D01*
X36630428Y-109810368D01*
X36630428Y-109447511D01*
X36703000Y-109302368D01*
X36775571Y-109229797D01*
X36920714Y-109157225D01*
X37065857Y-109157225D01*
X37283571Y-109229797D01*
X38154428Y-110100654D01*
X38154428Y-109157225D01*
X37573857Y-107342940D02*
X37573857Y-106181797D01*
X37356142Y-103786940D02*
X37356142Y-104294940D01*
X38154428Y-104294940D02*
X36630428Y-104294940D01*
X36630428Y-103569225D01*
X38081857Y-102408082D02*
X38154428Y-102553225D01*
X38154428Y-102843511D01*
X38081857Y-102988654D01*
X37936714Y-103061225D01*
X37356142Y-103061225D01*
X37211000Y-102988654D01*
X37138428Y-102843511D01*
X37138428Y-102553225D01*
X37211000Y-102408082D01*
X37356142Y-102335511D01*
X37501285Y-102335511D01*
X37646428Y-103061225D01*
X38154428Y-101682368D02*
X36630428Y-101682368D01*
X37211000Y-101682368D02*
X37138428Y-101537225D01*
X37138428Y-101246940D01*
X37211000Y-101101797D01*
X37283571Y-101029225D01*
X37428714Y-100956654D01*
X37864142Y-100956654D01*
X38009285Y-101029225D01*
X38081857Y-101101797D01*
X38154428Y-101246940D01*
X38154428Y-101537225D01*
X38081857Y-101682368D01*
X36775571Y-99214940D02*
X36703000Y-99142368D01*
X36630428Y-98997225D01*
X36630428Y-98634368D01*
X36703000Y-98489225D01*
X36775571Y-98416654D01*
X36920714Y-98344082D01*
X37065857Y-98344082D01*
X37283571Y-98416654D01*
X38154428Y-99287511D01*
X38154428Y-98344082D01*
X36630428Y-97400654D02*
X36630428Y-97255511D01*
X36703000Y-97110368D01*
X36775571Y-97037797D01*
X36920714Y-96965225D01*
X37211000Y-96892654D01*
X37573857Y-96892654D01*
X37864142Y-96965225D01*
X38009285Y-97037797D01*
X38081857Y-97110368D01*
X38154428Y-97255511D01*
X38154428Y-97400654D01*
X38081857Y-97545797D01*
X38009285Y-97618368D01*
X37864142Y-97690940D01*
X37573857Y-97763511D01*
X37211000Y-97763511D01*
X36920714Y-97690940D01*
X36775571Y-97618368D01*
X36703000Y-97545797D01*
X36630428Y-97400654D01*
X36775571Y-96312082D02*
X36703000Y-96239511D01*
X36630428Y-96094368D01*
X36630428Y-95731511D01*
X36703000Y-95586368D01*
X36775571Y-95513797D01*
X36920714Y-95441225D01*
X37065857Y-95441225D01*
X37283571Y-95513797D01*
X38154428Y-96384654D01*
X38154428Y-95441225D01*
X36630428Y-94933225D02*
X36630428Y-93989797D01*
X37211000Y-94497797D01*
X37211000Y-94280082D01*
X37283571Y-94134940D01*
X37356142Y-94062368D01*
X37501285Y-93989797D01*
X37864142Y-93989797D01*
X38009285Y-94062368D01*
X38081857Y-94134940D01*
X38154428Y-94280082D01*
X38154428Y-94715511D01*
X38081857Y-94860654D01*
X38009285Y-94933225D01*
X39084068Y-115108082D02*
X40317782Y-115108082D01*
X40462925Y-115035511D01*
X40535497Y-114962940D01*
X40608068Y-114817797D01*
X40608068Y-114527511D01*
X40535497Y-114382368D01*
X40462925Y-114309797D01*
X40317782Y-114237225D01*
X39084068Y-114237225D01*
X40608068Y-113511511D02*
X39084068Y-113511511D01*
X39084068Y-112930940D01*
X39156640Y-112785797D01*
X39229211Y-112713225D01*
X39374354Y-112640654D01*
X39592068Y-112640654D01*
X39737211Y-112713225D01*
X39809782Y-112785797D01*
X39882354Y-112930940D01*
X39882354Y-113511511D01*
X40462925Y-111116654D02*
X40535497Y-111189225D01*
X40608068Y-111406940D01*
X40608068Y-111552082D01*
X40535497Y-111769797D01*
X40390354Y-111914940D01*
X40245211Y-111987511D01*
X39954925Y-112060082D01*
X39737211Y-112060082D01*
X39446925Y-111987511D01*
X39301782Y-111914940D01*
X39156640Y-111769797D01*
X39084068Y-111552082D01*
X39084068Y-111406940D01*
X39156640Y-111189225D01*
X39229211Y-111116654D01*
X39084068Y-110173225D02*
X39084068Y-109882940D01*
X39156640Y-109737797D01*
X39301782Y-109592654D01*
X39592068Y-109520082D01*
X40100068Y-109520082D01*
X40390354Y-109592654D01*
X40535497Y-109737797D01*
X40608068Y-109882940D01*
X40608068Y-110173225D01*
X40535497Y-110318368D01*
X40390354Y-110463511D01*
X40100068Y-110536082D01*
X39592068Y-110536082D01*
X39301782Y-110463511D01*
X39156640Y-110318368D01*
X39084068Y-110173225D01*
X39156640Y-106907511D02*
X39084068Y-107052654D01*
X39084068Y-107270368D01*
X39156640Y-107488082D01*
X39301782Y-107633225D01*
X39446925Y-107705797D01*
X39737211Y-107778368D01*
X39954925Y-107778368D01*
X40245211Y-107705797D01*
X40390354Y-107633225D01*
X40535497Y-107488082D01*
X40608068Y-107270368D01*
X40608068Y-107125225D01*
X40535497Y-106907511D01*
X40462925Y-106834940D01*
X39954925Y-106834940D01*
X39954925Y-107125225D01*
X40608068Y-106181797D02*
X39592068Y-106181797D01*
X39882354Y-106181797D02*
X39737211Y-106109225D01*
X39664640Y-106036654D01*
X39592068Y-105891511D01*
X39592068Y-105746368D01*
X40608068Y-104585225D02*
X39809782Y-104585225D01*
X39664640Y-104657797D01*
X39592068Y-104802940D01*
X39592068Y-105093225D01*
X39664640Y-105238368D01*
X40535497Y-104585225D02*
X40608068Y-104730368D01*
X40608068Y-105093225D01*
X40535497Y-105238368D01*
X40390354Y-105310940D01*
X40245211Y-105310940D01*
X40100068Y-105238368D01*
X40027497Y-105093225D01*
X40027497Y-104730368D01*
X39954925Y-104585225D01*
X39592068Y-103859511D02*
X41116068Y-103859511D01*
X39664640Y-103859511D02*
X39592068Y-103714368D01*
X39592068Y-103424082D01*
X39664640Y-103278940D01*
X39737211Y-103206368D01*
X39882354Y-103133797D01*
X40317782Y-103133797D01*
X40462925Y-103206368D01*
X40535497Y-103278940D01*
X40608068Y-103424082D01*
X40608068Y-103714368D01*
X40535497Y-103859511D01*
X40608068Y-102480654D02*
X39084068Y-102480654D01*
X40608068Y-101827511D02*
X39809782Y-101827511D01*
X39664640Y-101900082D01*
X39592068Y-102045225D01*
X39592068Y-102262940D01*
X39664640Y-102408082D01*
X39737211Y-102480654D01*
X40608068Y-101101797D02*
X39592068Y-101101797D01*
X39084068Y-101101797D02*
X39156640Y-101174368D01*
X39229211Y-101101797D01*
X39156640Y-101029225D01*
X39084068Y-101101797D01*
X39229211Y-101101797D01*
X40535497Y-99722940D02*
X40608068Y-99868082D01*
X40608068Y-100158368D01*
X40535497Y-100303511D01*
X40462925Y-100376082D01*
X40317782Y-100448654D01*
X39882354Y-100448654D01*
X39737211Y-100376082D01*
X39664640Y-100303511D01*
X39592068Y-100158368D01*
X39592068Y-99868082D01*
X39664640Y-99722940D01*
X40535497Y-99142368D02*
X40608068Y-98997225D01*
X40608068Y-98706940D01*
X40535497Y-98561797D01*
X40390354Y-98489225D01*
X40317782Y-98489225D01*
X40172640Y-98561797D01*
X40100068Y-98706940D01*
X40100068Y-98924654D01*
X40027497Y-99069797D01*
X39882354Y-99142368D01*
X39809782Y-99142368D01*
X39664640Y-99069797D01*
X39592068Y-98924654D01*
X39592068Y-98706940D01*
X39664640Y-98561797D01*
X40535497Y-96747511D02*
X40608068Y-96529797D01*
X40608068Y-96166940D01*
X40535497Y-96021797D01*
X40462925Y-95949225D01*
X40317782Y-95876654D01*
X40172640Y-95876654D01*
X40027497Y-95949225D01*
X39954925Y-96021797D01*
X39882354Y-96166940D01*
X39809782Y-96457225D01*
X39737211Y-96602368D01*
X39664640Y-96674940D01*
X39519497Y-96747511D01*
X39374354Y-96747511D01*
X39229211Y-96674940D01*
X39156640Y-96602368D01*
X39084068Y-96457225D01*
X39084068Y-96094368D01*
X39156640Y-95876654D01*
X39592068Y-95368654D02*
X40608068Y-95005797D01*
X39592068Y-94642940D02*
X40608068Y-95005797D01*
X40970925Y-95150940D01*
X41043497Y-95223511D01*
X41116068Y-95368654D01*
X40535497Y-94134940D02*
X40608068Y-93989797D01*
X40608068Y-93699511D01*
X40535497Y-93554368D01*
X40390354Y-93481797D01*
X40317782Y-93481797D01*
X40172640Y-93554368D01*
X40100068Y-93699511D01*
X40100068Y-93917225D01*
X40027497Y-94062368D01*
X39882354Y-94134940D01*
X39809782Y-94134940D01*
X39664640Y-94062368D01*
X39592068Y-93917225D01*
X39592068Y-93699511D01*
X39664640Y-93554368D01*
X39592068Y-93046368D02*
X39592068Y-92465797D01*
X39084068Y-92828654D02*
X40390354Y-92828654D01*
X40535497Y-92756082D01*
X40608068Y-92610940D01*
X40608068Y-92465797D01*
X40535497Y-91377225D02*
X40608068Y-91522368D01*
X40608068Y-91812654D01*
X40535497Y-91957797D01*
X40390354Y-92030368D01*
X39809782Y-92030368D01*
X39664640Y-91957797D01*
X39592068Y-91812654D01*
X39592068Y-91522368D01*
X39664640Y-91377225D01*
X39809782Y-91304654D01*
X39954925Y-91304654D01*
X40100068Y-92030368D01*
X40608068Y-90651511D02*
X39592068Y-90651511D01*
X39737211Y-90651511D02*
X39664640Y-90578940D01*
X39592068Y-90433797D01*
X39592068Y-90216082D01*
X39664640Y-90070940D01*
X39809782Y-89998368D01*
X40608068Y-89998368D01*
X39809782Y-89998368D02*
X39664640Y-89925797D01*
X39592068Y-89780654D01*
X39592068Y-89562940D01*
X39664640Y-89417797D01*
X39809782Y-89345225D01*
X40608068Y-89345225D01*
X40535497Y-88692082D02*
X40608068Y-88546940D01*
X40608068Y-88256654D01*
X40535497Y-88111511D01*
X40390354Y-88038940D01*
X40317782Y-88038940D01*
X40172640Y-88111511D01*
X40100068Y-88256654D01*
X40100068Y-88474368D01*
X40027497Y-88619511D01*
X39882354Y-88692082D01*
X39809782Y-88692082D01*
X39664640Y-88619511D01*
X39592068Y-88474368D01*
X39592068Y-88256654D01*
X39664640Y-88111511D01*
X31169428Y-94723857D02*
X32330571Y-94723857D01*
X31750000Y-95304428D02*
X31750000Y-94143285D01*
X31169428Y-92183857D02*
X32330571Y-92183857D01*
X32149142Y-127508000D02*
X32004000Y-127435428D01*
X31786285Y-127435428D01*
X31568571Y-127508000D01*
X31423428Y-127653142D01*
X31350857Y-127798285D01*
X31278285Y-128088571D01*
X31278285Y-128306285D01*
X31350857Y-128596571D01*
X31423428Y-128741714D01*
X31568571Y-128886857D01*
X31786285Y-128959428D01*
X31931428Y-128959428D01*
X32149142Y-128886857D01*
X32221714Y-128814285D01*
X32221714Y-128306285D01*
X31931428Y-128306285D01*
X31078714Y-125838857D02*
X32239857Y-125838857D01*
X33691285Y-124895428D02*
X32965571Y-124895428D01*
X32893000Y-125621142D01*
X32965571Y-125548571D01*
X33110714Y-125476000D01*
X33473571Y-125476000D01*
X33618714Y-125548571D01*
X33691285Y-125621142D01*
X33763857Y-125766285D01*
X33763857Y-126129142D01*
X33691285Y-126274285D01*
X33618714Y-126346857D01*
X33473571Y-126419428D01*
X33110714Y-126419428D01*
X32965571Y-126346857D01*
X32893000Y-126274285D01*
D10*
%TO.C,U8*%
X117583857Y-96855428D02*
X117583857Y-98089142D01*
X117656428Y-98234285D01*
X117729000Y-98306857D01*
X117874142Y-98379428D01*
X118164428Y-98379428D01*
X118309571Y-98306857D01*
X118382142Y-98234285D01*
X118454714Y-98089142D01*
X118454714Y-96855428D01*
X119398142Y-97508571D02*
X119253000Y-97436000D01*
X119180428Y-97363428D01*
X119107857Y-97218285D01*
X119107857Y-97145714D01*
X119180428Y-97000571D01*
X119253000Y-96928000D01*
X119398142Y-96855428D01*
X119688428Y-96855428D01*
X119833571Y-96928000D01*
X119906142Y-97000571D01*
X119978714Y-97145714D01*
X119978714Y-97218285D01*
X119906142Y-97363428D01*
X119833571Y-97436000D01*
X119688428Y-97508571D01*
X119398142Y-97508571D01*
X119253000Y-97581142D01*
X119180428Y-97653714D01*
X119107857Y-97798857D01*
X119107857Y-98089142D01*
X119180428Y-98234285D01*
X119253000Y-98306857D01*
X119398142Y-98379428D01*
X119688428Y-98379428D01*
X119833571Y-98306857D01*
X119906142Y-98234285D01*
X119978714Y-98089142D01*
X119978714Y-97798857D01*
X119906142Y-97653714D01*
X119833571Y-97581142D01*
X119688428Y-97508571D01*
%TO.C,C20*%
X99350285Y-133259285D02*
X99277714Y-133331857D01*
X99060000Y-133404428D01*
X98914857Y-133404428D01*
X98697142Y-133331857D01*
X98552000Y-133186714D01*
X98479428Y-133041571D01*
X98406857Y-132751285D01*
X98406857Y-132533571D01*
X98479428Y-132243285D01*
X98552000Y-132098142D01*
X98697142Y-131953000D01*
X98914857Y-131880428D01*
X99060000Y-131880428D01*
X99277714Y-131953000D01*
X99350285Y-132025571D01*
X99930857Y-132025571D02*
X100003428Y-131953000D01*
X100148571Y-131880428D01*
X100511428Y-131880428D01*
X100656571Y-131953000D01*
X100729142Y-132025571D01*
X100801714Y-132170714D01*
X100801714Y-132315857D01*
X100729142Y-132533571D01*
X99858285Y-133404428D01*
X100801714Y-133404428D01*
X101745142Y-131880428D02*
X101890285Y-131880428D01*
X102035428Y-131953000D01*
X102108000Y-132025571D01*
X102180571Y-132170714D01*
X102253142Y-132461000D01*
X102253142Y-132823857D01*
X102180571Y-133114142D01*
X102108000Y-133259285D01*
X102035428Y-133331857D01*
X101890285Y-133404428D01*
X101745142Y-133404428D01*
X101600000Y-133331857D01*
X101527428Y-133259285D01*
X101454857Y-133114142D01*
X101382285Y-132823857D01*
X101382285Y-132461000D01*
X101454857Y-132170714D01*
X101527428Y-132025571D01*
X101600000Y-131953000D01*
X101745142Y-131880428D01*
%TO.C,C19*%
X117130285Y-133259285D02*
X117057714Y-133331857D01*
X116840000Y-133404428D01*
X116694857Y-133404428D01*
X116477142Y-133331857D01*
X116332000Y-133186714D01*
X116259428Y-133041571D01*
X116186857Y-132751285D01*
X116186857Y-132533571D01*
X116259428Y-132243285D01*
X116332000Y-132098142D01*
X116477142Y-131953000D01*
X116694857Y-131880428D01*
X116840000Y-131880428D01*
X117057714Y-131953000D01*
X117130285Y-132025571D01*
X118581714Y-133404428D02*
X117710857Y-133404428D01*
X118146285Y-133404428D02*
X118146285Y-131880428D01*
X118001142Y-132098142D01*
X117856000Y-132243285D01*
X117710857Y-132315857D01*
X119307428Y-133404428D02*
X119597714Y-133404428D01*
X119742857Y-133331857D01*
X119815428Y-133259285D01*
X119960571Y-133041571D01*
X120033142Y-132751285D01*
X120033142Y-132170714D01*
X119960571Y-132025571D01*
X119888000Y-131953000D01*
X119742857Y-131880428D01*
X119452571Y-131880428D01*
X119307428Y-131953000D01*
X119234857Y-132025571D01*
X119162285Y-132170714D01*
X119162285Y-132533571D01*
X119234857Y-132678714D01*
X119307428Y-132751285D01*
X119452571Y-132823857D01*
X119742857Y-132823857D01*
X119888000Y-132751285D01*
X119960571Y-132678714D01*
X120033142Y-132533571D01*
%TO.C,U11*%
X109238142Y-131880428D02*
X109238142Y-133114142D01*
X109310714Y-133259285D01*
X109383285Y-133331857D01*
X109528428Y-133404428D01*
X109818714Y-133404428D01*
X109963857Y-133331857D01*
X110036428Y-133259285D01*
X110109000Y-133114142D01*
X110109000Y-131880428D01*
X111633000Y-133404428D02*
X110762142Y-133404428D01*
X111197571Y-133404428D02*
X111197571Y-131880428D01*
X111052428Y-132098142D01*
X110907285Y-132243285D01*
X110762142Y-132315857D01*
X113084428Y-133404428D02*
X112213571Y-133404428D01*
X112649000Y-133404428D02*
X112649000Y-131880428D01*
X112503857Y-132098142D01*
X112358714Y-132243285D01*
X112213571Y-132315857D01*
%TO.C,U10*%
X127018142Y-131880428D02*
X127018142Y-133114142D01*
X127090714Y-133259285D01*
X127163285Y-133331857D01*
X127308428Y-133404428D01*
X127598714Y-133404428D01*
X127743857Y-133331857D01*
X127816428Y-133259285D01*
X127889000Y-133114142D01*
X127889000Y-131880428D01*
X129413000Y-133404428D02*
X128542142Y-133404428D01*
X128977571Y-133404428D02*
X128977571Y-131880428D01*
X128832428Y-132098142D01*
X128687285Y-132243285D01*
X128542142Y-132315857D01*
X130356428Y-131880428D02*
X130501571Y-131880428D01*
X130646714Y-131953000D01*
X130719285Y-132025571D01*
X130791857Y-132170714D01*
X130864428Y-132461000D01*
X130864428Y-132823857D01*
X130791857Y-133114142D01*
X130719285Y-133259285D01*
X130646714Y-133331857D01*
X130501571Y-133404428D01*
X130356428Y-133404428D01*
X130211285Y-133331857D01*
X130138714Y-133259285D01*
X130066142Y-133114142D01*
X129993571Y-132823857D01*
X129993571Y-132461000D01*
X130066142Y-132170714D01*
X130138714Y-132025571D01*
X130211285Y-131953000D01*
X130356428Y-131880428D01*
%TO.C,U6*%
X52178857Y-98125428D02*
X52178857Y-99359142D01*
X52251428Y-99504285D01*
X52324000Y-99576857D01*
X52469142Y-99649428D01*
X52759428Y-99649428D01*
X52904571Y-99576857D01*
X52977142Y-99504285D01*
X53049714Y-99359142D01*
X53049714Y-98125428D01*
X54428571Y-98125428D02*
X54138285Y-98125428D01*
X53993142Y-98198000D01*
X53920571Y-98270571D01*
X53775428Y-98488285D01*
X53702857Y-98778571D01*
X53702857Y-99359142D01*
X53775428Y-99504285D01*
X53848000Y-99576857D01*
X53993142Y-99649428D01*
X54283428Y-99649428D01*
X54428571Y-99576857D01*
X54501142Y-99504285D01*
X54573714Y-99359142D01*
X54573714Y-98996285D01*
X54501142Y-98851142D01*
X54428571Y-98778571D01*
X54283428Y-98706000D01*
X53993142Y-98706000D01*
X53848000Y-98778571D01*
X53775428Y-98851142D01*
X53702857Y-98996285D01*
%TO.C,D1*%
X120795142Y-161979428D02*
X120795142Y-160455428D01*
X121158000Y-160455428D01*
X121375714Y-160528000D01*
X121520857Y-160673142D01*
X121593428Y-160818285D01*
X121666000Y-161108571D01*
X121666000Y-161326285D01*
X121593428Y-161616571D01*
X121520857Y-161761714D01*
X121375714Y-161906857D01*
X121158000Y-161979428D01*
X120795142Y-161979428D01*
X123117428Y-161979428D02*
X122246571Y-161979428D01*
X122682000Y-161979428D02*
X122682000Y-160455428D01*
X122536857Y-160673142D01*
X122391714Y-160818285D01*
X122246571Y-160890857D01*
%TO.C,U5*%
X104248857Y-66685428D02*
X104248857Y-67919142D01*
X104321428Y-68064285D01*
X104394000Y-68136857D01*
X104539142Y-68209428D01*
X104829428Y-68209428D01*
X104974571Y-68136857D01*
X105047142Y-68064285D01*
X105119714Y-67919142D01*
X105119714Y-66685428D01*
X106571142Y-66685428D02*
X105845428Y-66685428D01*
X105772857Y-67411142D01*
X105845428Y-67338571D01*
X105990571Y-67266000D01*
X106353428Y-67266000D01*
X106498571Y-67338571D01*
X106571142Y-67411142D01*
X106643714Y-67556285D01*
X106643714Y-67919142D01*
X106571142Y-68064285D01*
X106498571Y-68136857D01*
X106353428Y-68209428D01*
X105990571Y-68209428D01*
X105845428Y-68136857D01*
X105772857Y-68064285D01*
%TO.C,D3*%
X109365142Y-161979428D02*
X109365142Y-160455428D01*
X109728000Y-160455428D01*
X109945714Y-160528000D01*
X110090857Y-160673142D01*
X110163428Y-160818285D01*
X110236000Y-161108571D01*
X110236000Y-161326285D01*
X110163428Y-161616571D01*
X110090857Y-161761714D01*
X109945714Y-161906857D01*
X109728000Y-161979428D01*
X109365142Y-161979428D01*
X110744000Y-160455428D02*
X111687428Y-160455428D01*
X111179428Y-161036000D01*
X111397142Y-161036000D01*
X111542285Y-161108571D01*
X111614857Y-161181142D01*
X111687428Y-161326285D01*
X111687428Y-161689142D01*
X111614857Y-161834285D01*
X111542285Y-161906857D01*
X111397142Y-161979428D01*
X110961714Y-161979428D01*
X110816571Y-161906857D01*
X110744000Y-161834285D01*
%TO.C,R4*%
X132134428Y-152019000D02*
X131408714Y-152527000D01*
X132134428Y-152889857D02*
X130610428Y-152889857D01*
X130610428Y-152309285D01*
X130683000Y-152164142D01*
X130755571Y-152091571D01*
X130900714Y-152019000D01*
X131118428Y-152019000D01*
X131263571Y-152091571D01*
X131336142Y-152164142D01*
X131408714Y-152309285D01*
X131408714Y-152889857D01*
X131118428Y-150712714D02*
X132134428Y-150712714D01*
X130537857Y-151075571D02*
X131626428Y-151438428D01*
X131626428Y-150495000D01*
%TO.C,J4*%
X56007000Y-69650428D02*
X56007000Y-70739000D01*
X55934428Y-70956714D01*
X55789285Y-71101857D01*
X55571571Y-71174428D01*
X55426428Y-71174428D01*
X57385857Y-70158428D02*
X57385857Y-71174428D01*
X57023000Y-69577857D02*
X56660142Y-70666428D01*
X57603571Y-70666428D01*
%TO.C,R5*%
X130399428Y-103124000D02*
X129673714Y-103632000D01*
X130399428Y-103994857D02*
X128875428Y-103994857D01*
X128875428Y-103414285D01*
X128948000Y-103269142D01*
X129020571Y-103196571D01*
X129165714Y-103124000D01*
X129383428Y-103124000D01*
X129528571Y-103196571D01*
X129601142Y-103269142D01*
X129673714Y-103414285D01*
X129673714Y-103994857D01*
X128875428Y-101745142D02*
X128875428Y-102470857D01*
X129601142Y-102543428D01*
X129528571Y-102470857D01*
X129456000Y-102325714D01*
X129456000Y-101962857D01*
X129528571Y-101817714D01*
X129601142Y-101745142D01*
X129746285Y-101672571D01*
X130109142Y-101672571D01*
X130254285Y-101745142D01*
X130326857Y-101817714D01*
X130399428Y-101962857D01*
X130399428Y-102325714D01*
X130326857Y-102470857D01*
X130254285Y-102543428D01*
%TO.C,R3*%
X100076000Y-164689428D02*
X99568000Y-163963714D01*
X99205142Y-164689428D02*
X99205142Y-163165428D01*
X99785714Y-163165428D01*
X99930857Y-163238000D01*
X100003428Y-163310571D01*
X100076000Y-163455714D01*
X100076000Y-163673428D01*
X100003428Y-163818571D01*
X99930857Y-163891142D01*
X99785714Y-163963714D01*
X99205142Y-163963714D01*
X100584000Y-163165428D02*
X101527428Y-163165428D01*
X101019428Y-163746000D01*
X101237142Y-163746000D01*
X101382285Y-163818571D01*
X101454857Y-163891142D01*
X101527428Y-164036285D01*
X101527428Y-164399142D01*
X101454857Y-164544285D01*
X101382285Y-164616857D01*
X101237142Y-164689428D01*
X100801714Y-164689428D01*
X100656571Y-164616857D01*
X100584000Y-164544285D01*
%TO.C,R7*%
X137214428Y-152019000D02*
X136488714Y-152527000D01*
X137214428Y-152889857D02*
X135690428Y-152889857D01*
X135690428Y-152309285D01*
X135763000Y-152164142D01*
X135835571Y-152091571D01*
X135980714Y-152019000D01*
X136198428Y-152019000D01*
X136343571Y-152091571D01*
X136416142Y-152164142D01*
X136488714Y-152309285D01*
X136488714Y-152889857D01*
X135690428Y-151511000D02*
X135690428Y-150495000D01*
X137214428Y-151148142D01*
%TO.C,C6*%
X103886000Y-94524285D02*
X103813428Y-94596857D01*
X103595714Y-94669428D01*
X103450571Y-94669428D01*
X103232857Y-94596857D01*
X103087714Y-94451714D01*
X103015142Y-94306571D01*
X102942571Y-94016285D01*
X102942571Y-93798571D01*
X103015142Y-93508285D01*
X103087714Y-93363142D01*
X103232857Y-93218000D01*
X103450571Y-93145428D01*
X103595714Y-93145428D01*
X103813428Y-93218000D01*
X103886000Y-93290571D01*
X105192285Y-93145428D02*
X104902000Y-93145428D01*
X104756857Y-93218000D01*
X104684285Y-93290571D01*
X104539142Y-93508285D01*
X104466571Y-93798571D01*
X104466571Y-94379142D01*
X104539142Y-94524285D01*
X104611714Y-94596857D01*
X104756857Y-94669428D01*
X105047142Y-94669428D01*
X105192285Y-94596857D01*
X105264857Y-94524285D01*
X105337428Y-94379142D01*
X105337428Y-94016285D01*
X105264857Y-93871142D01*
X105192285Y-93798571D01*
X105047142Y-93726000D01*
X104756857Y-93726000D01*
X104611714Y-93798571D01*
X104539142Y-93871142D01*
X104466571Y-94016285D01*
%TO.C,C8*%
X113574285Y-107569000D02*
X113646857Y-107641571D01*
X113719428Y-107859285D01*
X113719428Y-108004428D01*
X113646857Y-108222142D01*
X113501714Y-108367285D01*
X113356571Y-108439857D01*
X113066285Y-108512428D01*
X112848571Y-108512428D01*
X112558285Y-108439857D01*
X112413142Y-108367285D01*
X112268000Y-108222142D01*
X112195428Y-108004428D01*
X112195428Y-107859285D01*
X112268000Y-107641571D01*
X112340571Y-107569000D01*
X112848571Y-106698142D02*
X112776000Y-106843285D01*
X112703428Y-106915857D01*
X112558285Y-106988428D01*
X112485714Y-106988428D01*
X112340571Y-106915857D01*
X112268000Y-106843285D01*
X112195428Y-106698142D01*
X112195428Y-106407857D01*
X112268000Y-106262714D01*
X112340571Y-106190142D01*
X112485714Y-106117571D01*
X112558285Y-106117571D01*
X112703428Y-106190142D01*
X112776000Y-106262714D01*
X112848571Y-106407857D01*
X112848571Y-106698142D01*
X112921142Y-106843285D01*
X112993714Y-106915857D01*
X113138857Y-106988428D01*
X113429142Y-106988428D01*
X113574285Y-106915857D01*
X113646857Y-106843285D01*
X113719428Y-106698142D01*
X113719428Y-106407857D01*
X113646857Y-106262714D01*
X113574285Y-106190142D01*
X113429142Y-106117571D01*
X113138857Y-106117571D01*
X112993714Y-106190142D01*
X112921142Y-106262714D01*
X112848571Y-106407857D01*
%TO.C,SW1*%
X107296857Y-172212000D02*
X107369428Y-171994285D01*
X107369428Y-171631428D01*
X107296857Y-171486285D01*
X107224285Y-171413714D01*
X107079142Y-171341142D01*
X106934000Y-171341142D01*
X106788857Y-171413714D01*
X106716285Y-171486285D01*
X106643714Y-171631428D01*
X106571142Y-171921714D01*
X106498571Y-172066857D01*
X106426000Y-172139428D01*
X106280857Y-172212000D01*
X106135714Y-172212000D01*
X105990571Y-172139428D01*
X105918000Y-172066857D01*
X105845428Y-171921714D01*
X105845428Y-171558857D01*
X105918000Y-171341142D01*
X105845428Y-170833142D02*
X107369428Y-170470285D01*
X106280857Y-170180000D01*
X107369428Y-169889714D01*
X105845428Y-169526857D01*
X107369428Y-168148000D02*
X107369428Y-169018857D01*
X107369428Y-168583428D02*
X105845428Y-168583428D01*
X106063142Y-168728571D01*
X106208285Y-168873714D01*
X106280857Y-169018857D01*
%TO.C,C3*%
X89936000Y-62774285D02*
X89863428Y-62846857D01*
X89645714Y-62919428D01*
X89500571Y-62919428D01*
X89282857Y-62846857D01*
X89137714Y-62701714D01*
X89065142Y-62556571D01*
X88992571Y-62266285D01*
X88992571Y-62048571D01*
X89065142Y-61758285D01*
X89137714Y-61613142D01*
X89282857Y-61468000D01*
X89500571Y-61395428D01*
X89645714Y-61395428D01*
X89863428Y-61468000D01*
X89936000Y-61540571D01*
X90444000Y-61395428D02*
X91387428Y-61395428D01*
X90879428Y-61976000D01*
X91097142Y-61976000D01*
X91242285Y-62048571D01*
X91314857Y-62121142D01*
X91387428Y-62266285D01*
X91387428Y-62629142D01*
X91314857Y-62774285D01*
X91242285Y-62846857D01*
X91097142Y-62919428D01*
X90661714Y-62919428D01*
X90516571Y-62846857D01*
X90444000Y-62774285D01*
%TO.C,C4*%
X93726000Y-137704285D02*
X93653428Y-137776857D01*
X93435714Y-137849428D01*
X93290571Y-137849428D01*
X93072857Y-137776857D01*
X92927714Y-137631714D01*
X92855142Y-137486571D01*
X92782571Y-137196285D01*
X92782571Y-136978571D01*
X92855142Y-136688285D01*
X92927714Y-136543142D01*
X93072857Y-136398000D01*
X93290571Y-136325428D01*
X93435714Y-136325428D01*
X93653428Y-136398000D01*
X93726000Y-136470571D01*
X95032285Y-136833428D02*
X95032285Y-137849428D01*
X94669428Y-136252857D02*
X94306571Y-137341428D01*
X95250000Y-137341428D01*
%TO.C,C11*%
X131100285Y-140879285D02*
X131027714Y-140951857D01*
X130810000Y-141024428D01*
X130664857Y-141024428D01*
X130447142Y-140951857D01*
X130302000Y-140806714D01*
X130229428Y-140661571D01*
X130156857Y-140371285D01*
X130156857Y-140153571D01*
X130229428Y-139863285D01*
X130302000Y-139718142D01*
X130447142Y-139573000D01*
X130664857Y-139500428D01*
X130810000Y-139500428D01*
X131027714Y-139573000D01*
X131100285Y-139645571D01*
X132551714Y-141024428D02*
X131680857Y-141024428D01*
X132116285Y-141024428D02*
X132116285Y-139500428D01*
X131971142Y-139718142D01*
X131826000Y-139863285D01*
X131680857Y-139935857D01*
X134003142Y-141024428D02*
X133132285Y-141024428D01*
X133567714Y-141024428D02*
X133567714Y-139500428D01*
X133422571Y-139718142D01*
X133277428Y-139863285D01*
X133132285Y-139935857D01*
%TO.C,C13*%
X73930285Y-62774285D02*
X73857714Y-62846857D01*
X73640000Y-62919428D01*
X73494857Y-62919428D01*
X73277142Y-62846857D01*
X73132000Y-62701714D01*
X73059428Y-62556571D01*
X72986857Y-62266285D01*
X72986857Y-62048571D01*
X73059428Y-61758285D01*
X73132000Y-61613142D01*
X73277142Y-61468000D01*
X73494857Y-61395428D01*
X73640000Y-61395428D01*
X73857714Y-61468000D01*
X73930285Y-61540571D01*
X75381714Y-62919428D02*
X74510857Y-62919428D01*
X74946285Y-62919428D02*
X74946285Y-61395428D01*
X74801142Y-61613142D01*
X74656000Y-61758285D01*
X74510857Y-61830857D01*
X75889714Y-61395428D02*
X76833142Y-61395428D01*
X76325142Y-61976000D01*
X76542857Y-61976000D01*
X76688000Y-62048571D01*
X76760571Y-62121142D01*
X76833142Y-62266285D01*
X76833142Y-62629142D01*
X76760571Y-62774285D01*
X76688000Y-62846857D01*
X76542857Y-62919428D01*
X76107428Y-62919428D01*
X75962285Y-62846857D01*
X75889714Y-62774285D01*
%TO.C,BT1*%
X27377571Y-100856142D02*
X27595285Y-100928714D01*
X27667857Y-101001285D01*
X27740428Y-101146428D01*
X27740428Y-101364142D01*
X27667857Y-101509285D01*
X27595285Y-101581857D01*
X27450142Y-101654428D01*
X26869571Y-101654428D01*
X26869571Y-100130428D01*
X27377571Y-100130428D01*
X27522714Y-100203000D01*
X27595285Y-100275571D01*
X27667857Y-100420714D01*
X27667857Y-100565857D01*
X27595285Y-100711000D01*
X27522714Y-100783571D01*
X27377571Y-100856142D01*
X26869571Y-100856142D01*
X28175857Y-100130428D02*
X29046714Y-100130428D01*
X28611285Y-101654428D02*
X28611285Y-100130428D01*
X30352999Y-101654428D02*
X29482142Y-101654428D01*
X29917571Y-101654428D02*
X29917571Y-100130428D01*
X29772428Y-100348142D01*
X29627285Y-100493285D01*
X29482142Y-100565857D01*
%TO.C,IC1*%
X89952285Y-170234428D02*
X89952285Y-168710428D01*
X91548857Y-170089285D02*
X91476285Y-170161857D01*
X91258571Y-170234428D01*
X91113428Y-170234428D01*
X90895714Y-170161857D01*
X90750571Y-170016714D01*
X90678000Y-169871571D01*
X90605428Y-169581285D01*
X90605428Y-169363571D01*
X90678000Y-169073285D01*
X90750571Y-168928142D01*
X90895714Y-168783000D01*
X91113428Y-168710428D01*
X91258571Y-168710428D01*
X91476285Y-168783000D01*
X91548857Y-168855571D01*
X93000285Y-170234428D02*
X92129428Y-170234428D01*
X92564857Y-170234428D02*
X92564857Y-168710428D01*
X92419714Y-168928142D01*
X92274571Y-169073285D01*
X92129428Y-169145857D01*
%TO.C,U9*%
X99803857Y-96855428D02*
X99803857Y-98089142D01*
X99876428Y-98234285D01*
X99949000Y-98306857D01*
X100094142Y-98379428D01*
X100384428Y-98379428D01*
X100529571Y-98306857D01*
X100602142Y-98234285D01*
X100674714Y-98089142D01*
X100674714Y-96855428D01*
X101473000Y-98379428D02*
X101763285Y-98379428D01*
X101908428Y-98306857D01*
X101981000Y-98234285D01*
X102126142Y-98016571D01*
X102198714Y-97726285D01*
X102198714Y-97145714D01*
X102126142Y-97000571D01*
X102053571Y-96928000D01*
X101908428Y-96855428D01*
X101618142Y-96855428D01*
X101473000Y-96928000D01*
X101400428Y-97000571D01*
X101327857Y-97145714D01*
X101327857Y-97508571D01*
X101400428Y-97653714D01*
X101473000Y-97726285D01*
X101618142Y-97798857D01*
X101908428Y-97798857D01*
X102053571Y-97726285D01*
X102126142Y-97653714D01*
X102198714Y-97508571D01*
%TO.C,J7*%
X135382000Y-124260428D02*
X135382000Y-125349000D01*
X135309428Y-125566714D01*
X135164285Y-125711857D01*
X134946571Y-125784428D01*
X134801428Y-125784428D01*
X135962571Y-124260428D02*
X136978571Y-124260428D01*
X136325428Y-125784428D01*
%TO.C,R2*%
X100076000Y-159439428D02*
X99568000Y-158713714D01*
X99205142Y-159439428D02*
X99205142Y-157915428D01*
X99785714Y-157915428D01*
X99930857Y-157988000D01*
X100003428Y-158060571D01*
X100076000Y-158205714D01*
X100076000Y-158423428D01*
X100003428Y-158568571D01*
X99930857Y-158641142D01*
X99785714Y-158713714D01*
X99205142Y-158713714D01*
X100656571Y-158060571D02*
X100729142Y-157988000D01*
X100874285Y-157915428D01*
X101237142Y-157915428D01*
X101382285Y-157988000D01*
X101454857Y-158060571D01*
X101527428Y-158205714D01*
X101527428Y-158350857D01*
X101454857Y-158568571D01*
X100584000Y-159439428D01*
X101527428Y-159439428D01*
%TO.C,J5*%
X136325428Y-134493000D02*
X137414000Y-134493000D01*
X137631714Y-134565571D01*
X137776857Y-134710714D01*
X137849428Y-134928428D01*
X137849428Y-135073571D01*
X136325428Y-133041571D02*
X136325428Y-133767285D01*
X137051142Y-133839857D01*
X136978571Y-133767285D01*
X136906000Y-133622142D01*
X136906000Y-133259285D01*
X136978571Y-133114142D01*
X137051142Y-133041571D01*
X137196285Y-132969000D01*
X137559142Y-132969000D01*
X137704285Y-133041571D01*
X137776857Y-133114142D01*
X137849428Y-133259285D01*
X137849428Y-133622142D01*
X137776857Y-133767285D01*
X137704285Y-133839857D01*
%TO.C,J3*%
X40767000Y-156645428D02*
X40767000Y-157734000D01*
X40694428Y-157951714D01*
X40549285Y-158096857D01*
X40331571Y-158169428D01*
X40186428Y-158169428D01*
X41347571Y-156645428D02*
X42291000Y-156645428D01*
X41783000Y-157226000D01*
X42000714Y-157226000D01*
X42145857Y-157298571D01*
X42218428Y-157371142D01*
X42291000Y-157516285D01*
X42291000Y-157879142D01*
X42218428Y-158024285D01*
X42145857Y-158096857D01*
X42000714Y-158169428D01*
X41565285Y-158169428D01*
X41420142Y-158096857D01*
X41347571Y-158024285D01*
%TO.C,SW2*%
X118091857Y-172212000D02*
X118164428Y-171994285D01*
X118164428Y-171631428D01*
X118091857Y-171486285D01*
X118019285Y-171413714D01*
X117874142Y-171341142D01*
X117729000Y-171341142D01*
X117583857Y-171413714D01*
X117511285Y-171486285D01*
X117438714Y-171631428D01*
X117366142Y-171921714D01*
X117293571Y-172066857D01*
X117221000Y-172139428D01*
X117075857Y-172212000D01*
X116930714Y-172212000D01*
X116785571Y-172139428D01*
X116713000Y-172066857D01*
X116640428Y-171921714D01*
X116640428Y-171558857D01*
X116713000Y-171341142D01*
X116640428Y-170833142D02*
X118164428Y-170470285D01*
X117075857Y-170180000D01*
X118164428Y-169889714D01*
X116640428Y-169526857D01*
X116785571Y-169018857D02*
X116713000Y-168946285D01*
X116640428Y-168801142D01*
X116640428Y-168438285D01*
X116713000Y-168293142D01*
X116785571Y-168220571D01*
X116930714Y-168148000D01*
X117075857Y-168148000D01*
X117293571Y-168220571D01*
X118164428Y-169091428D01*
X118164428Y-168148000D01*
%TO.C,Q1*%
X133839857Y-144344571D02*
X133694714Y-144272000D01*
X133549571Y-144126857D01*
X133331857Y-143909142D01*
X133186714Y-143836571D01*
X133041571Y-143836571D01*
X133114142Y-144199428D02*
X132969000Y-144126857D01*
X132823857Y-143981714D01*
X132751285Y-143691428D01*
X132751285Y-143183428D01*
X132823857Y-142893142D01*
X132969000Y-142748000D01*
X133114142Y-142675428D01*
X133404428Y-142675428D01*
X133549571Y-142748000D01*
X133694714Y-142893142D01*
X133767285Y-143183428D01*
X133767285Y-143691428D01*
X133694714Y-143981714D01*
X133549571Y-144126857D01*
X133404428Y-144199428D01*
X133114142Y-144199428D01*
X135218714Y-144199428D02*
X134347857Y-144199428D01*
X134783285Y-144199428D02*
X134783285Y-142675428D01*
X134638142Y-142893142D01*
X134493000Y-143038285D01*
X134347857Y-143110857D01*
%TO.C,Y1*%
X45629285Y-105363714D02*
X45629285Y-106089428D01*
X45121285Y-104565428D02*
X45629285Y-105363714D01*
X46137285Y-104565428D01*
X47443571Y-106089428D02*
X46572714Y-106089428D01*
X47008142Y-106089428D02*
X47008142Y-104565428D01*
X46863000Y-104783142D01*
X46717857Y-104928285D01*
X46572714Y-105000857D01*
%TO.C,U1*%
X44558857Y-67745428D02*
X44558857Y-68979142D01*
X44631428Y-69124285D01*
X44704000Y-69196857D01*
X44849142Y-69269428D01*
X45139428Y-69269428D01*
X45284571Y-69196857D01*
X45357142Y-69124285D01*
X45429714Y-68979142D01*
X45429714Y-67745428D01*
X46953714Y-69269428D02*
X46082857Y-69269428D01*
X46518285Y-69269428D02*
X46518285Y-67745428D01*
X46373142Y-67963142D01*
X46228000Y-68108285D01*
X46082857Y-68180857D01*
%TO.C,U4*%
X122038857Y-66685428D02*
X122038857Y-67919142D01*
X122111428Y-68064285D01*
X122184000Y-68136857D01*
X122329142Y-68209428D01*
X122619428Y-68209428D01*
X122764571Y-68136857D01*
X122837142Y-68064285D01*
X122909714Y-67919142D01*
X122909714Y-66685428D01*
X124288571Y-67193428D02*
X124288571Y-68209428D01*
X123925714Y-66612857D02*
X123562857Y-67701428D01*
X124506285Y-67701428D01*
%TO.C,U3*%
X89008857Y-66685428D02*
X89008857Y-67919142D01*
X89081428Y-68064285D01*
X89154000Y-68136857D01*
X89299142Y-68209428D01*
X89589428Y-68209428D01*
X89734571Y-68136857D01*
X89807142Y-68064285D01*
X89879714Y-67919142D01*
X89879714Y-66685428D01*
X90460285Y-66685428D02*
X91403714Y-66685428D01*
X90895714Y-67266000D01*
X91113428Y-67266000D01*
X91258571Y-67338571D01*
X91331142Y-67411142D01*
X91403714Y-67556285D01*
X91403714Y-67919142D01*
X91331142Y-68064285D01*
X91258571Y-68136857D01*
X91113428Y-68209428D01*
X90678000Y-68209428D01*
X90532857Y-68136857D01*
X90460285Y-68064285D01*
%TO.C,C7*%
X125456000Y-62774285D02*
X125383428Y-62846857D01*
X125165714Y-62919428D01*
X125020571Y-62919428D01*
X124802857Y-62846857D01*
X124657714Y-62701714D01*
X124585142Y-62556571D01*
X124512571Y-62266285D01*
X124512571Y-62048571D01*
X124585142Y-61758285D01*
X124657714Y-61613142D01*
X124802857Y-61468000D01*
X125020571Y-61395428D01*
X125165714Y-61395428D01*
X125383428Y-61468000D01*
X125456000Y-61540571D01*
X125964000Y-61395428D02*
X126980000Y-61395428D01*
X126326857Y-62919428D01*
%TO.C,C14*%
X135500398Y-98909285D02*
X135427827Y-98981857D01*
X135210113Y-99054428D01*
X135064970Y-99054428D01*
X134847255Y-98981857D01*
X134702113Y-98836714D01*
X134629541Y-98691571D01*
X134556970Y-98401285D01*
X134556970Y-98183571D01*
X134629541Y-97893285D01*
X134702113Y-97748142D01*
X134847255Y-97603000D01*
X135064970Y-97530428D01*
X135210113Y-97530428D01*
X135427827Y-97603000D01*
X135500398Y-97675571D01*
X136951827Y-99054428D02*
X136080970Y-99054428D01*
X136516398Y-99054428D02*
X136516398Y-97530428D01*
X136371255Y-97748142D01*
X136226113Y-97893285D01*
X136080970Y-97965857D01*
X138258113Y-98038428D02*
X138258113Y-99054428D01*
X137895255Y-97457857D02*
X137532398Y-98546428D01*
X138475827Y-98546428D01*
%TO.C,D2*%
X115080142Y-161979428D02*
X115080142Y-160455428D01*
X115443000Y-160455428D01*
X115660714Y-160528000D01*
X115805857Y-160673142D01*
X115878428Y-160818285D01*
X115951000Y-161108571D01*
X115951000Y-161326285D01*
X115878428Y-161616571D01*
X115805857Y-161761714D01*
X115660714Y-161906857D01*
X115443000Y-161979428D01*
X115080142Y-161979428D01*
X116531571Y-160600571D02*
X116604142Y-160528000D01*
X116749285Y-160455428D01*
X117112142Y-160455428D01*
X117257285Y-160528000D01*
X117329857Y-160600571D01*
X117402428Y-160745714D01*
X117402428Y-160890857D01*
X117329857Y-161108571D01*
X116459000Y-161979428D01*
X117402428Y-161979428D01*
%TO.C,X1*%
X36866285Y-67745428D02*
X37882285Y-69269428D01*
X37882285Y-67745428D02*
X36866285Y-69269428D01*
X39261142Y-69269428D02*
X38390285Y-69269428D01*
X38825714Y-69269428D02*
X38825714Y-67745428D01*
X38680571Y-67963142D01*
X38535428Y-68108285D01*
X38390285Y-68180857D01*
%TO.C,C1*%
X38404285Y-122194000D02*
X38476857Y-122266571D01*
X38549428Y-122484285D01*
X38549428Y-122629428D01*
X38476857Y-122847142D01*
X38331714Y-122992285D01*
X38186571Y-123064857D01*
X37896285Y-123137428D01*
X37678571Y-123137428D01*
X37388285Y-123064857D01*
X37243142Y-122992285D01*
X37098000Y-122847142D01*
X37025428Y-122629428D01*
X37025428Y-122484285D01*
X37098000Y-122266571D01*
X37170571Y-122194000D01*
X38549428Y-120742571D02*
X38549428Y-121613428D01*
X38549428Y-121178000D02*
X37025428Y-121178000D01*
X37243142Y-121323142D01*
X37388285Y-121468285D01*
X37460857Y-121613428D01*
%TO.C,C9*%
X58166000Y-95159285D02*
X58093428Y-95231857D01*
X57875714Y-95304428D01*
X57730571Y-95304428D01*
X57512857Y-95231857D01*
X57367714Y-95086714D01*
X57295142Y-94941571D01*
X57222571Y-94651285D01*
X57222571Y-94433571D01*
X57295142Y-94143285D01*
X57367714Y-93998142D01*
X57512857Y-93853000D01*
X57730571Y-93780428D01*
X57875714Y-93780428D01*
X58093428Y-93853000D01*
X58166000Y-93925571D01*
X58891714Y-95304428D02*
X59182000Y-95304428D01*
X59327142Y-95231857D01*
X59399714Y-95159285D01*
X59544857Y-94941571D01*
X59617428Y-94651285D01*
X59617428Y-94070714D01*
X59544857Y-93925571D01*
X59472285Y-93853000D01*
X59327142Y-93780428D01*
X59036857Y-93780428D01*
X58891714Y-93853000D01*
X58819142Y-93925571D01*
X58746571Y-94070714D01*
X58746571Y-94433571D01*
X58819142Y-94578714D01*
X58891714Y-94651285D01*
X59036857Y-94723857D01*
X59327142Y-94723857D01*
X59472285Y-94651285D01*
X59544857Y-94578714D01*
X59617428Y-94433571D01*
%TO.C,R6*%
X134674428Y-122174000D02*
X133948714Y-122682000D01*
X134674428Y-123044857D02*
X133150428Y-123044857D01*
X133150428Y-122464285D01*
X133223000Y-122319142D01*
X133295571Y-122246571D01*
X133440714Y-122174000D01*
X133658428Y-122174000D01*
X133803571Y-122246571D01*
X133876142Y-122319142D01*
X133948714Y-122464285D01*
X133948714Y-123044857D01*
X133150428Y-120867714D02*
X133150428Y-121158000D01*
X133223000Y-121303142D01*
X133295571Y-121375714D01*
X133513285Y-121520857D01*
X133803571Y-121593428D01*
X134384142Y-121593428D01*
X134529285Y-121520857D01*
X134601857Y-121448285D01*
X134674428Y-121303142D01*
X134674428Y-121012857D01*
X134601857Y-120867714D01*
X134529285Y-120795142D01*
X134384142Y-120722571D01*
X134021285Y-120722571D01*
X133876142Y-120795142D01*
X133803571Y-120867714D01*
X133731000Y-121012857D01*
X133731000Y-121303142D01*
X133803571Y-121448285D01*
X133876142Y-121520857D01*
X134021285Y-121593428D01*
%TO.C,C12*%
X52360285Y-64044285D02*
X52287714Y-64116857D01*
X52070000Y-64189428D01*
X51924857Y-64189428D01*
X51707142Y-64116857D01*
X51562000Y-63971714D01*
X51489428Y-63826571D01*
X51416857Y-63536285D01*
X51416857Y-63318571D01*
X51489428Y-63028285D01*
X51562000Y-62883142D01*
X51707142Y-62738000D01*
X51924857Y-62665428D01*
X52070000Y-62665428D01*
X52287714Y-62738000D01*
X52360285Y-62810571D01*
X53811714Y-64189428D02*
X52940857Y-64189428D01*
X53376285Y-64189428D02*
X53376285Y-62665428D01*
X53231142Y-62883142D01*
X53086000Y-63028285D01*
X52940857Y-63100857D01*
X54392285Y-62810571D02*
X54464857Y-62738000D01*
X54610000Y-62665428D01*
X54972857Y-62665428D01*
X55118000Y-62738000D01*
X55190571Y-62810571D01*
X55263142Y-62955714D01*
X55263142Y-63100857D01*
X55190571Y-63318571D01*
X54319714Y-64189428D01*
X55263142Y-64189428D01*
%TO.C,J1*%
X28702000Y-130610428D02*
X28702000Y-131699000D01*
X28629428Y-131916714D01*
X28484285Y-132061857D01*
X28266571Y-132134428D01*
X28121428Y-132134428D01*
X30226000Y-132134428D02*
X29355142Y-132134428D01*
X29790571Y-132134428D02*
X29790571Y-130610428D01*
X29645428Y-130828142D01*
X29500285Y-130973285D01*
X29355142Y-131045857D01*
%TO.C,C16*%
X33290285Y-64284285D02*
X33217714Y-64356857D01*
X33000000Y-64429428D01*
X32854857Y-64429428D01*
X32637142Y-64356857D01*
X32492000Y-64211714D01*
X32419428Y-64066571D01*
X32346857Y-63776285D01*
X32346857Y-63558571D01*
X32419428Y-63268285D01*
X32492000Y-63123142D01*
X32637142Y-62978000D01*
X32854857Y-62905428D01*
X33000000Y-62905428D01*
X33217714Y-62978000D01*
X33290285Y-63050571D01*
X34741714Y-64429428D02*
X33870857Y-64429428D01*
X34306285Y-64429428D02*
X34306285Y-62905428D01*
X34161142Y-63123142D01*
X34016000Y-63268285D01*
X33870857Y-63340857D01*
X36048000Y-62905428D02*
X35757714Y-62905428D01*
X35612571Y-62978000D01*
X35540000Y-63050571D01*
X35394857Y-63268285D01*
X35322285Y-63558571D01*
X35322285Y-64139142D01*
X35394857Y-64284285D01*
X35467428Y-64356857D01*
X35612571Y-64429428D01*
X35902857Y-64429428D01*
X36048000Y-64356857D01*
X36120571Y-64284285D01*
X36193142Y-64139142D01*
X36193142Y-63776285D01*
X36120571Y-63631142D01*
X36048000Y-63558571D01*
X35902857Y-63486000D01*
X35612571Y-63486000D01*
X35467428Y-63558571D01*
X35394857Y-63631142D01*
X35322285Y-63776285D01*
%TO.C,C17*%
X45375285Y-64044285D02*
X45302714Y-64116857D01*
X45085000Y-64189428D01*
X44939857Y-64189428D01*
X44722142Y-64116857D01*
X44577000Y-63971714D01*
X44504428Y-63826571D01*
X44431857Y-63536285D01*
X44431857Y-63318571D01*
X44504428Y-63028285D01*
X44577000Y-62883142D01*
X44722142Y-62738000D01*
X44939857Y-62665428D01*
X45085000Y-62665428D01*
X45302714Y-62738000D01*
X45375285Y-62810571D01*
X46826714Y-64189428D02*
X45955857Y-64189428D01*
X46391285Y-64189428D02*
X46391285Y-62665428D01*
X46246142Y-62883142D01*
X46101000Y-63028285D01*
X45955857Y-63100857D01*
X47334714Y-62665428D02*
X48350714Y-62665428D01*
X47697571Y-64189428D01*
%TO.C,C10*%
X104450285Y-62774285D02*
X104377714Y-62846857D01*
X104160000Y-62919428D01*
X104014857Y-62919428D01*
X103797142Y-62846857D01*
X103652000Y-62701714D01*
X103579428Y-62556571D01*
X103506857Y-62266285D01*
X103506857Y-62048571D01*
X103579428Y-61758285D01*
X103652000Y-61613142D01*
X103797142Y-61468000D01*
X104014857Y-61395428D01*
X104160000Y-61395428D01*
X104377714Y-61468000D01*
X104450285Y-61540571D01*
X105901714Y-62919428D02*
X105030857Y-62919428D01*
X105466285Y-62919428D02*
X105466285Y-61395428D01*
X105321142Y-61613142D01*
X105176000Y-61758285D01*
X105030857Y-61830857D01*
X106845142Y-61395428D02*
X106990285Y-61395428D01*
X107135428Y-61468000D01*
X107208000Y-61540571D01*
X107280571Y-61685714D01*
X107353142Y-61976000D01*
X107353142Y-62338857D01*
X107280571Y-62629142D01*
X107208000Y-62774285D01*
X107135428Y-62846857D01*
X106990285Y-62919428D01*
X106845142Y-62919428D01*
X106700000Y-62846857D01*
X106627428Y-62774285D01*
X106554857Y-62629142D01*
X106482285Y-62338857D01*
X106482285Y-61976000D01*
X106554857Y-61685714D01*
X106627428Y-61540571D01*
X106700000Y-61468000D01*
X106845142Y-61395428D01*
%TO.C,J2*%
X136652000Y-65205428D02*
X136652000Y-66294000D01*
X136579428Y-66511714D01*
X136434285Y-66656857D01*
X136216571Y-66729428D01*
X136071428Y-66729428D01*
X137305142Y-65350571D02*
X137377714Y-65278000D01*
X137522857Y-65205428D01*
X137885714Y-65205428D01*
X138030857Y-65278000D01*
X138103428Y-65350571D01*
X138176000Y-65495714D01*
X138176000Y-65640857D01*
X138103428Y-65858571D01*
X137232571Y-66729428D01*
X138176000Y-66729428D01*
%TO.C,C5*%
X130084285Y-112649000D02*
X130156857Y-112721571D01*
X130229428Y-112939285D01*
X130229428Y-113084428D01*
X130156857Y-113302142D01*
X130011714Y-113447285D01*
X129866571Y-113519857D01*
X129576285Y-113592428D01*
X129358571Y-113592428D01*
X129068285Y-113519857D01*
X128923142Y-113447285D01*
X128778000Y-113302142D01*
X128705428Y-113084428D01*
X128705428Y-112939285D01*
X128778000Y-112721571D01*
X128850571Y-112649000D01*
X128705428Y-111270142D02*
X128705428Y-111995857D01*
X129431142Y-112068428D01*
X129358571Y-111995857D01*
X129286000Y-111850714D01*
X129286000Y-111487857D01*
X129358571Y-111342714D01*
X129431142Y-111270142D01*
X129576285Y-111197571D01*
X129939142Y-111197571D01*
X130084285Y-111270142D01*
X130156857Y-111342714D01*
X130229428Y-111487857D01*
X130229428Y-111850714D01*
X130156857Y-111995857D01*
X130084285Y-112068428D01*
%TO.C,R1*%
X131191000Y-164349428D02*
X130683000Y-163623714D01*
X130320142Y-164349428D02*
X130320142Y-162825428D01*
X130900714Y-162825428D01*
X131045857Y-162898000D01*
X131118428Y-162970571D01*
X131191000Y-163115714D01*
X131191000Y-163333428D01*
X131118428Y-163478571D01*
X131045857Y-163551142D01*
X130900714Y-163623714D01*
X130320142Y-163623714D01*
X132642428Y-164349428D02*
X131771571Y-164349428D01*
X132207000Y-164349428D02*
X132207000Y-162825428D01*
X132061857Y-163043142D01*
X131916714Y-163188285D01*
X131771571Y-163260857D01*
%TO.C,C18*%
X30135285Y-161199285D02*
X30062714Y-161271857D01*
X29845000Y-161344428D01*
X29699857Y-161344428D01*
X29482142Y-161271857D01*
X29337000Y-161126714D01*
X29264428Y-160981571D01*
X29191857Y-160691285D01*
X29191857Y-160473571D01*
X29264428Y-160183285D01*
X29337000Y-160038142D01*
X29482142Y-159893000D01*
X29699857Y-159820428D01*
X29845000Y-159820428D01*
X30062714Y-159893000D01*
X30135285Y-159965571D01*
X31586714Y-161344428D02*
X30715857Y-161344428D01*
X31151285Y-161344428D02*
X31151285Y-159820428D01*
X31006142Y-160038142D01*
X30861000Y-160183285D01*
X30715857Y-160255857D01*
X32457571Y-160473571D02*
X32312428Y-160401000D01*
X32239857Y-160328428D01*
X32167285Y-160183285D01*
X32167285Y-160110714D01*
X32239857Y-159965571D01*
X32312428Y-159893000D01*
X32457571Y-159820428D01*
X32747857Y-159820428D01*
X32893000Y-159893000D01*
X32965571Y-159965571D01*
X33038142Y-160110714D01*
X33038142Y-160183285D01*
X32965571Y-160328428D01*
X32893000Y-160401000D01*
X32747857Y-160473571D01*
X32457571Y-160473571D01*
X32312428Y-160546142D01*
X32239857Y-160618714D01*
X32167285Y-160763857D01*
X32167285Y-161054142D01*
X32239857Y-161199285D01*
X32312428Y-161271857D01*
X32457571Y-161344428D01*
X32747857Y-161344428D01*
X32893000Y-161271857D01*
X32965571Y-161199285D01*
X33038142Y-161054142D01*
X33038142Y-160763857D01*
X32965571Y-160618714D01*
X32893000Y-160546142D01*
X32747857Y-160473571D01*
%TO.C,C2*%
X126746000Y-97064285D02*
X126673428Y-97136857D01*
X126455714Y-97209428D01*
X126310571Y-97209428D01*
X126092857Y-97136857D01*
X125947714Y-96991714D01*
X125875142Y-96846571D01*
X125802571Y-96556285D01*
X125802571Y-96338571D01*
X125875142Y-96048285D01*
X125947714Y-95903142D01*
X126092857Y-95758000D01*
X126310571Y-95685428D01*
X126455714Y-95685428D01*
X126673428Y-95758000D01*
X126746000Y-95830571D01*
X127326571Y-95830571D02*
X127399142Y-95758000D01*
X127544285Y-95685428D01*
X127907142Y-95685428D01*
X128052285Y-95758000D01*
X128124857Y-95830571D01*
X128197428Y-95975714D01*
X128197428Y-96120857D01*
X128124857Y-96338571D01*
X127254000Y-97209428D01*
X128197428Y-97209428D01*
%TO.C,C15*%
X112961189Y-98274285D02*
X112888618Y-98346857D01*
X112670904Y-98419428D01*
X112525761Y-98419428D01*
X112308046Y-98346857D01*
X112162904Y-98201714D01*
X112090332Y-98056571D01*
X112017761Y-97766285D01*
X112017761Y-97548571D01*
X112090332Y-97258285D01*
X112162904Y-97113142D01*
X112308046Y-96968000D01*
X112525761Y-96895428D01*
X112670904Y-96895428D01*
X112888618Y-96968000D01*
X112961189Y-97040571D01*
X114412618Y-98419428D02*
X113541761Y-98419428D01*
X113977189Y-98419428D02*
X113977189Y-96895428D01*
X113832046Y-97113142D01*
X113686904Y-97258285D01*
X113541761Y-97330857D01*
X115791475Y-96895428D02*
X115065761Y-96895428D01*
X114993189Y-97621142D01*
X115065761Y-97548571D01*
X115210904Y-97476000D01*
X115573761Y-97476000D01*
X115718904Y-97548571D01*
X115791475Y-97621142D01*
X115864046Y-97766285D01*
X115864046Y-98129142D01*
X115791475Y-98274285D01*
X115718904Y-98346857D01*
X115573761Y-98419428D01*
X115210904Y-98419428D01*
X115065761Y-98346857D01*
X114993189Y-98274285D01*
%TO.C,J6*%
X57912000Y-135055428D02*
X57912000Y-136144000D01*
X57839428Y-136361714D01*
X57694285Y-136506857D01*
X57476571Y-136579428D01*
X57331428Y-136579428D01*
X59290857Y-135055428D02*
X59000571Y-135055428D01*
X58855428Y-135128000D01*
X58782857Y-135200571D01*
X58637714Y-135418285D01*
X58565142Y-135708571D01*
X58565142Y-136289142D01*
X58637714Y-136434285D01*
X58710285Y-136506857D01*
X58855428Y-136579428D01*
X59145714Y-136579428D01*
X59290857Y-136506857D01*
X59363428Y-136434285D01*
X59436000Y-136289142D01*
X59436000Y-135926285D01*
X59363428Y-135781142D01*
X59290857Y-135708571D01*
X59145714Y-135636000D01*
X58855428Y-135636000D01*
X58710285Y-135708571D01*
X58637714Y-135781142D01*
X58565142Y-135926285D01*
%TO.C,U2*%
X73778857Y-66680428D02*
X73778857Y-67914142D01*
X73851428Y-68059285D01*
X73924000Y-68131857D01*
X74069142Y-68204428D01*
X74359428Y-68204428D01*
X74504571Y-68131857D01*
X74577142Y-68059285D01*
X74649714Y-67914142D01*
X74649714Y-66680428D01*
X75302857Y-66825571D02*
X75375428Y-66753000D01*
X75520571Y-66680428D01*
X75883428Y-66680428D01*
X76028571Y-66753000D01*
X76101142Y-66825571D01*
X76173714Y-66970714D01*
X76173714Y-67115857D01*
X76101142Y-67333571D01*
X75230285Y-68204428D01*
X76173714Y-68204428D01*
%TO.C,U7*%
X81388857Y-147755428D02*
X81388857Y-148989142D01*
X81461428Y-149134285D01*
X81534000Y-149206857D01*
X81679142Y-149279428D01*
X81969428Y-149279428D01*
X82114571Y-149206857D01*
X82187142Y-149134285D01*
X82259714Y-148989142D01*
X82259714Y-147755428D01*
X82840285Y-147755428D02*
X83856285Y-147755428D01*
X83203142Y-149279428D01*
D12*
%TO.C,U8*%
X125850000Y-129595000D02*
X125850000Y-98995000D01*
X120550000Y-129595000D02*
X125850000Y-129595000D01*
X125850000Y-98995000D02*
X124200000Y-98995000D01*
X120550000Y-98995000D02*
X120550000Y-129595000D01*
X122200000Y-98995000D02*
X120550000Y-98995000D01*
X122200000Y-98995000D02*
G75*
G03*
X124200000Y-98995000I1000000J0D01*
G01*
%TO.C,C20*%
X107230000Y-133885000D02*
X103590000Y-133885000D01*
X107230000Y-131545000D02*
X103590000Y-131545000D01*
X107230000Y-131790000D02*
X107230000Y-131545000D01*
X103590000Y-131790000D02*
X103590000Y-131545000D01*
X103590000Y-133885000D02*
X103590000Y-133640000D01*
X107230000Y-133885000D02*
X107230000Y-133640000D01*
%TO.C,C19*%
X125010000Y-133885000D02*
X125010000Y-133640000D01*
X121370000Y-133885000D02*
X121370000Y-133640000D01*
X121370000Y-131790000D02*
X121370000Y-131545000D01*
X125010000Y-131790000D02*
X125010000Y-131545000D01*
X125010000Y-131545000D02*
X121370000Y-131545000D01*
X125010000Y-133885000D02*
X121370000Y-133885000D01*
%TO.C,U11*%
X104420000Y-134560000D02*
G75*
G03*
X106420000Y-134560000I1000000J0D01*
G01*
X104420000Y-134560000D02*
X102770000Y-134560000D01*
X102770000Y-155000000D02*
X108070000Y-155000000D01*
X108070000Y-155000000D02*
X108070000Y-134560000D01*
X102770000Y-134560000D02*
X102770000Y-155000000D01*
X108070000Y-134560000D02*
X106420000Y-134560000D01*
%TO.C,U10*%
X125850000Y-134560000D02*
X124200000Y-134560000D01*
X120550000Y-134560000D02*
X120550000Y-155000000D01*
X125850000Y-155000000D02*
X125850000Y-134560000D01*
X120550000Y-155000000D02*
X125850000Y-155000000D01*
X122200000Y-134560000D02*
X120550000Y-134560000D01*
X122200000Y-134560000D02*
G75*
G03*
X124200000Y-134560000I1000000J0D01*
G01*
%TO.C,U6*%
X55780000Y-100285000D02*
X55780000Y-120725000D01*
X61080000Y-120725000D02*
X61080000Y-100285000D01*
X57430000Y-100285000D02*
X55780000Y-100285000D01*
X55780000Y-120725000D02*
X61080000Y-120725000D01*
X61080000Y-100285000D02*
X59430000Y-100285000D01*
X57430000Y-100285000D02*
G75*
G03*
X59430000Y-100285000I1000000J0D01*
G01*
%TO.C,D1*%
X120355000Y-166180000D02*
X120355000Y-166336000D01*
X120355000Y-163864000D02*
X120355000Y-164020000D01*
X123587335Y-164021392D02*
G75*
G03*
X120355000Y-163864484I-1672335J-1078608D01*
G01*
X120355000Y-166335516D02*
G75*
G03*
X123587335Y-166178608I1560000J1235516D01*
G01*
X120874039Y-166180000D02*
G75*
G03*
X122956130Y-166179837I1040961J1080000D01*
G01*
X122956130Y-164020163D02*
G75*
G03*
X120874039Y-164020000I-1041130J-1079837D01*
G01*
%TO.C,U5*%
X104410000Y-68520000D02*
X102760000Y-68520000D01*
X102760000Y-68520000D02*
X102760000Y-88960000D01*
X102760000Y-88960000D02*
X108060000Y-88960000D01*
X108060000Y-88960000D02*
X108060000Y-68520000D01*
X108060000Y-68520000D02*
X106410000Y-68520000D01*
X104410000Y-68520000D02*
G75*
G03*
X106410000Y-68520000I1000000J0D01*
G01*
%TO.C,D3*%
X108925000Y-166180000D02*
X108925000Y-166336000D01*
X108925000Y-163864000D02*
X108925000Y-164020000D01*
X108925000Y-166335516D02*
G75*
G03*
X112157335Y-166178608I1560000J1235516D01*
G01*
X112157335Y-164021392D02*
G75*
G03*
X108925000Y-163864484I-1672335J-1078608D01*
G01*
X111526130Y-164020163D02*
G75*
G03*
X109444039Y-164020000I-1041130J-1079837D01*
G01*
X109444039Y-166180000D02*
G75*
G03*
X111526130Y-166179837I1040961J1080000D01*
G01*
%TO.C,R4*%
X133985000Y-156440000D02*
X133985000Y-155670000D01*
X133985000Y-148360000D02*
X133985000Y-149130000D01*
X132615000Y-149130000D02*
X132615000Y-155670000D01*
X132615000Y-155670000D02*
X135355000Y-155670000D01*
X135355000Y-149130000D02*
X132615000Y-149130000D01*
X135355000Y-155670000D02*
X135355000Y-149130000D01*
%TO.C,J4*%
X60955000Y-69805000D02*
X63555000Y-69805000D01*
X58355000Y-72405000D02*
X60955000Y-72405000D01*
X63555000Y-69805000D02*
X63555000Y-90245000D01*
X58355000Y-72405000D02*
X58355000Y-90245000D01*
X58355000Y-90245000D02*
X63555000Y-90245000D01*
X58355000Y-71135000D02*
X58355000Y-69805000D01*
X58355000Y-69805000D02*
X59685000Y-69805000D01*
X60955000Y-72405000D02*
X60955000Y-69805000D01*
%TO.C,R5*%
X133450000Y-106140000D02*
X133450000Y-99600000D01*
X132080000Y-98830000D02*
X132080000Y-99600000D01*
X130710000Y-99600000D02*
X130710000Y-106140000D01*
X133450000Y-99600000D02*
X130710000Y-99600000D01*
X132080000Y-106910000D02*
X132080000Y-106140000D01*
X130710000Y-106140000D02*
X133450000Y-106140000D01*
%TO.C,R3*%
X97060000Y-167740000D02*
X103600000Y-167740000D01*
X104370000Y-166370000D02*
X103600000Y-166370000D01*
X97060000Y-165000000D02*
X97060000Y-167740000D01*
X96290000Y-166370000D02*
X97060000Y-166370000D01*
X103600000Y-167740000D02*
X103600000Y-165000000D01*
X103600000Y-165000000D02*
X97060000Y-165000000D01*
%TO.C,R7*%
X137695000Y-149130000D02*
X137695000Y-155670000D01*
X140435000Y-149130000D02*
X137695000Y-149130000D01*
X137695000Y-155670000D02*
X140435000Y-155670000D01*
X139065000Y-148360000D02*
X139065000Y-149130000D01*
X139065000Y-156440000D02*
X139065000Y-155670000D01*
X140435000Y-155670000D02*
X140435000Y-149130000D01*
%TO.C,C6*%
X107250000Y-97690000D02*
X107250000Y-97445000D01*
X103610000Y-95595000D02*
X103610000Y-95350000D01*
X107250000Y-95595000D02*
X107250000Y-95350000D01*
X107250000Y-97690000D02*
X103610000Y-97690000D01*
X107250000Y-95350000D02*
X103610000Y-95350000D01*
X103610000Y-97690000D02*
X103610000Y-97445000D01*
%TO.C,C8*%
X114200000Y-113580000D02*
X114200000Y-109940000D01*
X111860000Y-113580000D02*
X112105000Y-113580000D01*
X113955000Y-109940000D02*
X114200000Y-109940000D01*
X113955000Y-113580000D02*
X114200000Y-113580000D01*
X111860000Y-109940000D02*
X112105000Y-109940000D01*
X111860000Y-113580000D02*
X111860000Y-109940000D01*
%TO.C,SW1*%
X113725000Y-168850000D02*
X113725000Y-170180000D01*
X112395000Y-168850000D02*
X113725000Y-168850000D01*
X111125000Y-171510000D02*
X108525000Y-171510000D01*
X111125000Y-168850000D02*
X108525000Y-168850000D01*
X108525000Y-168850000D02*
X108525000Y-171510000D01*
X111125000Y-168850000D02*
X111125000Y-171510000D01*
%TO.C,C3*%
X88370000Y-65940000D02*
X88370000Y-65695000D01*
X88370000Y-63845000D02*
X88370000Y-63600000D01*
X92010000Y-63600000D02*
X88370000Y-63600000D01*
X92010000Y-65940000D02*
X92010000Y-65695000D01*
X92010000Y-63845000D02*
X92010000Y-63600000D01*
X92010000Y-65940000D02*
X88370000Y-65940000D01*
%TO.C,C4*%
X94905000Y-143425000D02*
X95150000Y-143425000D01*
X94905000Y-139785000D02*
X95150000Y-139785000D01*
X92810000Y-143425000D02*
X93055000Y-143425000D01*
X92810000Y-139785000D02*
X93055000Y-139785000D01*
X95150000Y-143425000D02*
X95150000Y-139785000D01*
X92810000Y-143425000D02*
X92810000Y-139785000D01*
%TO.C,C11*%
X130910000Y-135320000D02*
X130910000Y-138960000D01*
X133250000Y-138960000D02*
X133005000Y-138960000D01*
X131155000Y-135320000D02*
X130910000Y-135320000D01*
X133250000Y-135320000D02*
X133250000Y-138960000D01*
X131155000Y-138960000D02*
X130910000Y-138960000D01*
X133250000Y-135320000D02*
X133005000Y-135320000D01*
%TO.C,C13*%
X73090000Y-65940000D02*
X73090000Y-65695000D01*
X76730000Y-65940000D02*
X73090000Y-65940000D01*
X73090000Y-63845000D02*
X73090000Y-63600000D01*
X76730000Y-63845000D02*
X76730000Y-63600000D01*
X76730000Y-65940000D02*
X76730000Y-65695000D01*
X76730000Y-63600000D02*
X73090000Y-63600000D01*
%TO.C,BT1*%
X30540000Y-90730000D02*
X27880000Y-90730000D01*
X27880000Y-93330000D02*
X27880000Y-90730000D01*
X30540000Y-93330000D02*
X27880000Y-93330000D01*
X30540000Y-93330000D02*
X30540000Y-90730000D01*
X30540000Y-95930000D02*
X29210000Y-95930000D01*
X30540000Y-94600000D02*
X30540000Y-95930000D01*
D13*
%TO.C,IC1*%
X77970000Y-167040000D02*
X89670000Y-167040000D01*
X77970000Y-158440000D02*
X77970000Y-154040000D01*
X77970000Y-163640000D02*
X77970000Y-167040000D01*
X87420000Y-154040000D02*
X89670000Y-154040000D01*
X89670000Y-167040000D02*
X89670000Y-163640000D01*
X77970000Y-154040000D02*
X80220000Y-154040000D01*
X82420000Y-154040000D02*
X85220000Y-154040000D01*
X89670000Y-154040000D02*
X89670000Y-158440000D01*
D12*
%TO.C,U9*%
X102760000Y-129600000D02*
X108060000Y-129600000D01*
X108060000Y-99000000D02*
X106410000Y-99000000D01*
X102760000Y-99000000D02*
X102760000Y-129600000D01*
X108060000Y-129600000D02*
X108060000Y-99000000D01*
X104410000Y-99000000D02*
X102760000Y-99000000D01*
X104410000Y-99000000D02*
G75*
G03*
X106410000Y-99000000I1000000J0D01*
G01*
%TO.C,J7*%
X138370000Y-118745000D02*
X141030000Y-118745000D01*
X138370000Y-117475000D02*
X138370000Y-116145000D01*
X141030000Y-118745000D02*
X141030000Y-126425000D01*
X138370000Y-118745000D02*
X138370000Y-126425000D01*
X138370000Y-126425000D02*
X141030000Y-126425000D01*
X138370000Y-116145000D02*
X139700000Y-116145000D01*
%TO.C,R2*%
X103600000Y-159920000D02*
X97060000Y-159920000D01*
X103600000Y-162660000D02*
X103600000Y-159920000D01*
X96290000Y-161290000D02*
X97060000Y-161290000D01*
X97060000Y-162660000D02*
X103600000Y-162660000D01*
X97060000Y-159920000D02*
X97060000Y-162660000D01*
X104370000Y-161290000D02*
X103600000Y-161290000D01*
%TO.C,J5*%
X138370000Y-134615000D02*
X141030000Y-134615000D01*
X138370000Y-137215000D02*
X141030000Y-137215000D01*
X138370000Y-133345000D02*
X138370000Y-132015000D01*
X138370000Y-134615000D02*
X138370000Y-137215000D01*
X141030000Y-134615000D02*
X141030000Y-137215000D01*
X138370000Y-132015000D02*
X139700000Y-132015000D01*
%TO.C,J3*%
X46355000Y-156845000D02*
X43755000Y-156845000D01*
X45085000Y-159445000D02*
X43755000Y-159445000D01*
X43755000Y-154245000D02*
X64195000Y-154245000D01*
X46355000Y-159445000D02*
X64195000Y-159445000D01*
X43755000Y-156845000D02*
X43755000Y-154245000D01*
X46355000Y-159445000D02*
X46355000Y-156845000D01*
X43755000Y-159445000D02*
X43755000Y-158115000D01*
X64195000Y-159445000D02*
X64195000Y-154245000D01*
%TO.C,SW2*%
X123195000Y-168850000D02*
X124525000Y-168850000D01*
X121925000Y-168850000D02*
X121925000Y-171510000D01*
X121925000Y-168850000D02*
X119325000Y-168850000D01*
X119325000Y-168850000D02*
X119325000Y-171510000D01*
X121925000Y-171510000D02*
X119325000Y-171510000D01*
X124525000Y-168850000D02*
X124525000Y-170180000D01*
%TO.C,Q1*%
X140353478Y-141036522D02*
G75*
G03*
X135915000Y-142875000I-1838478J-1838478D01*
G01*
X135914999Y-142875000D02*
G75*
G03*
X140353478Y-144713478I2600001J0D01*
G01*
X140365000Y-144675000D02*
X140365000Y-141075000D01*
%TO.C,Y1*%
X42540000Y-106720000D02*
X42540000Y-109180000D01*
X42540000Y-109180000D02*
X49440000Y-109180000D01*
X50340000Y-108900000D02*
X50540000Y-108900000D01*
X49440000Y-106720000D02*
X42540000Y-106720000D01*
X49440000Y-108300000D02*
X50340000Y-108900000D01*
X50340000Y-107000000D02*
X50540000Y-107000000D01*
X49440000Y-107600000D02*
X50340000Y-107000000D01*
X49440000Y-109180000D02*
X49440000Y-106720000D01*
%TO.C,U1*%
X46880000Y-90230000D02*
X52180000Y-90230000D01*
X52180000Y-69790000D02*
X50530000Y-69790000D01*
X48530000Y-69790000D02*
X46880000Y-69790000D01*
X46880000Y-69790000D02*
X46880000Y-90230000D01*
X52180000Y-90230000D02*
X52180000Y-69790000D01*
X48530000Y-69790000D02*
G75*
G03*
X50530000Y-69790000I1000000J0D01*
G01*
%TO.C,U4*%
X125850000Y-68520000D02*
X124200000Y-68520000D01*
X122200000Y-68520000D02*
X120550000Y-68520000D01*
X120550000Y-68520000D02*
X120550000Y-94040000D01*
X120550000Y-94040000D02*
X125850000Y-94040000D01*
X125850000Y-94040000D02*
X125850000Y-68520000D01*
X122200000Y-68520000D02*
G75*
G03*
X124200000Y-68520000I1000000J0D01*
G01*
%TO.C,U3*%
X92820000Y-88960000D02*
X92820000Y-68520000D01*
X92820000Y-68520000D02*
X91170000Y-68520000D01*
X87520000Y-68520000D02*
X87520000Y-88960000D01*
X87520000Y-88960000D02*
X92820000Y-88960000D01*
X89170000Y-68520000D02*
X87520000Y-68520000D01*
X89170000Y-68520000D02*
G75*
G03*
X91170000Y-68520000I1000000J0D01*
G01*
%TO.C,C7*%
X127530000Y-65940000D02*
X123890000Y-65940000D01*
X123890000Y-63845000D02*
X123890000Y-63600000D01*
X127530000Y-63600000D02*
X123890000Y-63600000D01*
X127530000Y-63845000D02*
X127530000Y-63600000D01*
X127530000Y-65940000D02*
X127530000Y-65695000D01*
X123890000Y-65940000D02*
X123890000Y-65695000D01*
%TO.C,C14*%
X134319113Y-96058000D02*
X134319113Y-93172000D01*
X136400113Y-97194000D02*
X136400113Y-95655000D01*
X134439113Y-96220000D02*
X134439113Y-93010000D01*
X135079113Y-93575000D02*
X135079113Y-92440000D01*
X135960113Y-93575000D02*
X135960113Y-92087000D01*
X135279113Y-93575000D02*
X135279113Y-92325000D01*
X134399113Y-96169000D02*
X134399113Y-93061000D01*
X136120113Y-97171000D02*
X136120113Y-95655000D01*
X135439113Y-96980000D02*
X135439113Y-95655000D01*
X136440113Y-97195000D02*
X136440113Y-95655000D01*
X135559113Y-93575000D02*
X135559113Y-92201000D01*
X134959113Y-96710000D02*
X134959113Y-95655000D01*
X134839113Y-96619000D02*
X134839113Y-95655000D01*
X135880113Y-93575000D02*
X135880113Y-92104000D01*
X134639113Y-93575000D02*
X134639113Y-92789000D01*
X136360113Y-97193000D02*
X136360113Y-95655000D01*
X135239113Y-93575000D02*
X135239113Y-92347000D01*
X136120113Y-93575000D02*
X136120113Y-92059000D01*
X139284888Y-96090000D02*
X138784888Y-96090000D01*
X135759113Y-97095000D02*
X135759113Y-95655000D01*
X135439113Y-93575000D02*
X135439113Y-92250000D01*
X135800113Y-97106000D02*
X135800113Y-95655000D01*
X134719113Y-96516000D02*
X134719113Y-95655000D01*
X136480113Y-93575000D02*
X136480113Y-92035000D01*
X134279113Y-95998000D02*
X134279113Y-93232000D01*
X134519113Y-93575000D02*
X134519113Y-92916000D01*
X134959113Y-93575000D02*
X134959113Y-92520000D01*
X136440113Y-93575000D02*
X136440113Y-92035000D01*
X135759113Y-93575000D02*
X135759113Y-92135000D01*
X134479113Y-96268000D02*
X134479113Y-95655000D01*
X134919113Y-96680000D02*
X134919113Y-95655000D01*
X134799113Y-93575000D02*
X134799113Y-92644000D01*
X135279113Y-96905000D02*
X135279113Y-95655000D01*
X135679113Y-93575000D02*
X135679113Y-92160000D01*
X135319113Y-96925000D02*
X135319113Y-95655000D01*
X135920113Y-93575000D02*
X135920113Y-92095000D01*
X135519113Y-93575000D02*
X135519113Y-92217000D01*
X136200113Y-93575000D02*
X136200113Y-92050000D01*
X135479113Y-96997000D02*
X135479113Y-95655000D01*
X133879113Y-94899000D02*
X133879113Y-94331000D01*
X134479113Y-93575000D02*
X134479113Y-92962000D01*
X134559113Y-93575000D02*
X134559113Y-92872000D01*
X134919113Y-93575000D02*
X134919113Y-92550000D01*
X134879113Y-96650000D02*
X134879113Y-95655000D01*
X135039113Y-93575000D02*
X135039113Y-92466000D01*
X136080113Y-97165000D02*
X136080113Y-95655000D01*
X135679113Y-97070000D02*
X135679113Y-95655000D01*
X136080113Y-93575000D02*
X136080113Y-92065000D01*
X134559113Y-96358000D02*
X134559113Y-95655000D01*
X135119113Y-93575000D02*
X135119113Y-92415000D01*
X134799113Y-96586000D02*
X134799113Y-95655000D01*
X135559113Y-97029000D02*
X135559113Y-95655000D01*
X135800113Y-93575000D02*
X135800113Y-92124000D01*
X135239113Y-96883000D02*
X135239113Y-95655000D01*
X134159113Y-95793000D02*
X134159113Y-93437000D01*
X134039113Y-95530000D02*
X134039113Y-93700000D01*
X134999113Y-96737000D02*
X134999113Y-95655000D01*
X135199113Y-93575000D02*
X135199113Y-92368000D01*
X135519113Y-97013000D02*
X135519113Y-95655000D01*
X134759113Y-93575000D02*
X134759113Y-92678000D01*
X136280113Y-97188000D02*
X136280113Y-95655000D01*
X136200113Y-97180000D02*
X136200113Y-95655000D01*
X136000113Y-93575000D02*
X136000113Y-92079000D01*
X134839113Y-93575000D02*
X134839113Y-92611000D01*
X134239113Y-95934000D02*
X134239113Y-93296000D01*
X136240113Y-97184000D02*
X136240113Y-95655000D01*
X134719113Y-93575000D02*
X134719113Y-92714000D01*
X133999113Y-95420000D02*
X133999113Y-93810000D01*
X135159113Y-96839000D02*
X135159113Y-95655000D01*
X135199113Y-96862000D02*
X135199113Y-95655000D01*
X133919113Y-95133000D02*
X133919113Y-94097000D01*
X134679113Y-93575000D02*
X134679113Y-92751000D01*
X135399113Y-93575000D02*
X135399113Y-92267000D01*
X136040113Y-97158000D02*
X136040113Y-95655000D01*
X134599113Y-93575000D02*
X134599113Y-92830000D01*
X136000113Y-97151000D02*
X136000113Y-95655000D01*
X135599113Y-93575000D02*
X135599113Y-92187000D01*
X136480113Y-97195000D02*
X136480113Y-95655000D01*
X136360113Y-93575000D02*
X136360113Y-92037000D01*
X134079113Y-95626000D02*
X134079113Y-93604000D01*
X135159113Y-93575000D02*
X135159113Y-92391000D01*
X135920113Y-97135000D02*
X135920113Y-95655000D01*
X136240113Y-93575000D02*
X136240113Y-92046000D01*
X136320113Y-93575000D02*
X136320113Y-92039000D01*
X134679113Y-96479000D02*
X134679113Y-95655000D01*
X135319113Y-93575000D02*
X135319113Y-92305000D01*
X135599113Y-97043000D02*
X135599113Y-95655000D01*
X135359113Y-96944000D02*
X135359113Y-95655000D01*
X134119113Y-95713000D02*
X134119113Y-93517000D01*
X134999113Y-93575000D02*
X134999113Y-92493000D01*
X136040113Y-93575000D02*
X136040113Y-92072000D01*
X135119113Y-96815000D02*
X135119113Y-95655000D01*
X136160113Y-97176000D02*
X136160113Y-95655000D01*
X135719113Y-93575000D02*
X135719113Y-92147000D01*
X135840113Y-93575000D02*
X135840113Y-92114000D01*
X135840113Y-97116000D02*
X135840113Y-95655000D01*
X133959113Y-95292000D02*
X133959113Y-93938000D01*
X135639113Y-97057000D02*
X135639113Y-95655000D01*
X134359113Y-96115000D02*
X134359113Y-93115000D01*
X135880113Y-97126000D02*
X135880113Y-95655000D01*
X136280113Y-93575000D02*
X136280113Y-92042000D01*
X134759113Y-96552000D02*
X134759113Y-95655000D01*
X135639113Y-93575000D02*
X135639113Y-92173000D01*
X134879113Y-93575000D02*
X134879113Y-92580000D01*
X135960113Y-97143000D02*
X135960113Y-95655000D01*
X139034888Y-96340000D02*
X139034888Y-95840000D01*
X135479113Y-93575000D02*
X135479113Y-92233000D01*
X135359113Y-93575000D02*
X135359113Y-92286000D01*
X134639113Y-96441000D02*
X134639113Y-95655000D01*
X136400113Y-93575000D02*
X136400113Y-92036000D01*
X135079113Y-96790000D02*
X135079113Y-95655000D01*
X134519113Y-96314000D02*
X134519113Y-95655000D01*
X135719113Y-97083000D02*
X135719113Y-95655000D01*
X136160113Y-93575000D02*
X136160113Y-92054000D01*
X135039113Y-96764000D02*
X135039113Y-95655000D01*
X134199113Y-95866000D02*
X134199113Y-93364000D01*
X134599113Y-96400000D02*
X134599113Y-95655000D01*
X136320113Y-97191000D02*
X136320113Y-95655000D01*
X135399113Y-96963000D02*
X135399113Y-95655000D01*
X139100113Y-94615000D02*
G75*
G03*
X139100113Y-94615000I-2620000J0D01*
G01*
%TO.C,D2*%
X114640000Y-163864000D02*
X114640000Y-164020000D01*
X114640000Y-166180000D02*
X114640000Y-166336000D01*
X117241130Y-164020163D02*
G75*
G03*
X115159039Y-164020000I-1041130J-1079837D01*
G01*
X117872335Y-164021392D02*
G75*
G03*
X114640000Y-163864484I-1672335J-1078608D01*
G01*
X115159039Y-166180000D02*
G75*
G03*
X117241130Y-166179837I1040961J1080000D01*
G01*
X114640000Y-166335516D02*
G75*
G03*
X117872335Y-166178608I1560000J1235516D01*
G01*
%TO.C,X1*%
X27840000Y-70500000D02*
X27840000Y-82650000D01*
X40740000Y-81900000D02*
X40740000Y-70500000D01*
X27840000Y-82650000D02*
X39990000Y-82650000D01*
X39990000Y-69750000D02*
X28590000Y-69750000D01*
X28590000Y-69750000D02*
G75*
G03*
X27840000Y-70500000I0J-750000D01*
G01*
X39990000Y-82650000D02*
G75*
G03*
X40740000Y-81900000I0J750000D01*
G01*
X40740000Y-70500000D02*
G75*
G03*
X39990000Y-69750000I-750000J0D01*
G01*
%TO.C,C1*%
X36730000Y-120120000D02*
X36730000Y-123760000D01*
X36730000Y-120120000D02*
X36485000Y-120120000D01*
X34390000Y-120120000D02*
X34390000Y-123760000D01*
X36730000Y-123760000D02*
X36485000Y-123760000D01*
X34635000Y-123760000D02*
X34390000Y-123760000D01*
X34635000Y-120120000D02*
X34390000Y-120120000D01*
%TO.C,C9*%
X56620000Y-96865000D02*
X56620000Y-96620000D01*
X60260000Y-98960000D02*
X56620000Y-98960000D01*
X60260000Y-96620000D02*
X56620000Y-96620000D01*
X60260000Y-96865000D02*
X60260000Y-96620000D01*
X60260000Y-98960000D02*
X60260000Y-98715000D01*
X56620000Y-98960000D02*
X56620000Y-98715000D01*
%TO.C,R6*%
X131445000Y-120420000D02*
X131445000Y-121190000D01*
X130075000Y-127730000D02*
X132815000Y-127730000D01*
X132815000Y-127730000D02*
X132815000Y-121190000D01*
X132815000Y-121190000D02*
X130075000Y-121190000D01*
X130075000Y-121190000D02*
X130075000Y-127730000D01*
X131445000Y-128500000D02*
X131445000Y-127730000D01*
%TO.C,C12*%
X51370000Y-65115000D02*
X51370000Y-64870000D01*
X47730000Y-67210000D02*
X47730000Y-66965000D01*
X47730000Y-65115000D02*
X47730000Y-64870000D01*
X51370000Y-64870000D02*
X47730000Y-64870000D01*
X51370000Y-67210000D02*
X51370000Y-66965000D01*
X51370000Y-67210000D02*
X47730000Y-67210000D01*
%TO.C,J1*%
X30540000Y-121930000D02*
X30540000Y-129610000D01*
X27880000Y-129610000D02*
X30540000Y-129610000D01*
X27880000Y-121930000D02*
X30540000Y-121930000D01*
X27880000Y-121930000D02*
X27880000Y-129610000D01*
X27880000Y-120660000D02*
X27880000Y-119330000D01*
X27880000Y-119330000D02*
X29210000Y-119330000D01*
%TO.C,C16*%
X32450000Y-64870000D02*
X36090000Y-64870000D01*
X32450000Y-67210000D02*
X36090000Y-67210000D01*
X32450000Y-66965000D02*
X32450000Y-67210000D01*
X36090000Y-64870000D02*
X36090000Y-65115000D01*
X36090000Y-66965000D02*
X36090000Y-67210000D01*
X32450000Y-64870000D02*
X32450000Y-65115000D01*
%TO.C,C17*%
X40870000Y-65689888D02*
X39341000Y-65689888D01*
X43293000Y-67650888D02*
X42950000Y-67650888D01*
X40870000Y-66129888D02*
X39419000Y-66129888D01*
X43410000Y-67570888D02*
X42950000Y-67570888D01*
X43515000Y-67490888D02*
X42950000Y-67490888D01*
X40870000Y-67570888D02*
X40410000Y-67570888D01*
X40870000Y-67370888D02*
X40167000Y-67370888D01*
X43975000Y-67010888D02*
X42950000Y-67010888D01*
X40870000Y-67090888D02*
X39906000Y-67090888D01*
X43914000Y-67090888D02*
X42950000Y-67090888D01*
X40870000Y-66450888D02*
X39528000Y-66450888D01*
X40870000Y-67130888D02*
X39939000Y-67130888D01*
X44489000Y-65529888D02*
X39331000Y-65529888D01*
X40870000Y-65729888D02*
X39345000Y-65729888D01*
X40870000Y-67530888D02*
X40356000Y-67530888D01*
X44411000Y-66089888D02*
X42950000Y-66089888D01*
X40870000Y-66770888D02*
X39686000Y-66770888D01*
X44239000Y-66570888D02*
X42950000Y-66570888D01*
X44475000Y-65729888D02*
X42950000Y-65729888D01*
X40870000Y-66810888D02*
X39710000Y-66810888D01*
X44157000Y-66730888D02*
X42950000Y-66730888D01*
X43609000Y-67410888D02*
X42950000Y-67410888D01*
X44479000Y-65689888D02*
X42950000Y-65689888D01*
X40870000Y-67010888D02*
X39845000Y-67010888D01*
X44005000Y-66970888D02*
X42950000Y-66970888D01*
X40870000Y-66890888D02*
X39761000Y-66890888D01*
X44338000Y-66330888D02*
X42950000Y-66330888D01*
X43881000Y-67130888D02*
X42950000Y-67130888D01*
X44401000Y-66129888D02*
X42950000Y-66129888D01*
X43774000Y-67250888D02*
X42950000Y-67250888D01*
X40870000Y-66210888D02*
X39442000Y-66210888D01*
X43563000Y-67450888D02*
X42950000Y-67450888D01*
X43229000Y-67690888D02*
X42950000Y-67690888D01*
X40870000Y-67490888D02*
X40305000Y-67490888D01*
X43847000Y-67170888D02*
X42950000Y-67170888D01*
X40870000Y-66570888D02*
X39581000Y-66570888D01*
X44110000Y-66810888D02*
X42950000Y-66810888D01*
X40870000Y-66049888D02*
X39399000Y-66049888D01*
X40870000Y-66650888D02*
X39620000Y-66650888D01*
X40870000Y-67610888D02*
X40467000Y-67610888D01*
X44352000Y-66290888D02*
X42950000Y-66290888D01*
X44200000Y-66650888D02*
X42950000Y-66650888D01*
X40870000Y-67330888D02*
X40125000Y-67330888D01*
X40870000Y-66250888D02*
X39455000Y-66250888D01*
X44460000Y-65849888D02*
X42950000Y-65849888D01*
X43653000Y-67370888D02*
X42950000Y-67370888D01*
X40870000Y-66370888D02*
X39496000Y-66370888D01*
X44483000Y-65649888D02*
X39337000Y-65649888D01*
X44275000Y-66490888D02*
X42950000Y-66490888D01*
X44324000Y-66370888D02*
X42950000Y-66370888D01*
X40870000Y-65929888D02*
X39374000Y-65929888D01*
X43161000Y-67730888D02*
X42950000Y-67730888D01*
X40870000Y-66850888D02*
X39735000Y-66850888D01*
X40870000Y-67170888D02*
X39973000Y-67170888D01*
X42587000Y-67970888D02*
X41233000Y-67970888D01*
X40870000Y-67730888D02*
X40659000Y-67730888D01*
X44378000Y-66210888D02*
X42950000Y-66210888D01*
X40870000Y-66690888D02*
X39642000Y-66690888D01*
X44490000Y-65449888D02*
X39330000Y-65449888D01*
X44134000Y-66770888D02*
X42950000Y-66770888D01*
X40870000Y-65809888D02*
X39354000Y-65809888D01*
X40870000Y-66930888D02*
X39788000Y-66930888D01*
X40870000Y-67450888D02*
X40257000Y-67450888D01*
X44085000Y-66850888D02*
X42950000Y-66850888D01*
X40870000Y-66290888D02*
X39468000Y-66290888D01*
X43464000Y-67530888D02*
X42950000Y-67530888D01*
X44308000Y-66410888D02*
X42950000Y-66410888D01*
X44438000Y-65969888D02*
X42950000Y-65969888D01*
X40870000Y-66089888D02*
X39409000Y-66089888D01*
X42921000Y-67850888D02*
X40899000Y-67850888D01*
X44486000Y-65609888D02*
X39334000Y-65609888D01*
X44220000Y-66610888D02*
X42950000Y-66610888D01*
X40870000Y-67410888D02*
X40211000Y-67410888D01*
X42428000Y-68010888D02*
X41392000Y-68010888D01*
X40870000Y-67690888D02*
X40591000Y-67690888D01*
X44471000Y-65769888D02*
X42950000Y-65769888D01*
X40870000Y-65849888D02*
X39360000Y-65849888D01*
X43736000Y-67290888D02*
X42950000Y-67290888D01*
X42715000Y-67930888D02*
X41105000Y-67930888D01*
X40870000Y-66009888D02*
X39390000Y-66009888D01*
X44059000Y-66890888D02*
X42950000Y-66890888D01*
X40870000Y-67250888D02*
X40046000Y-67250888D01*
X40870000Y-66530888D02*
X39562000Y-66530888D01*
X43695000Y-67330888D02*
X42950000Y-67330888D01*
X44490000Y-65489888D02*
X39330000Y-65489888D01*
X40870000Y-66330888D02*
X39482000Y-66330888D01*
X44453000Y-65889888D02*
X42950000Y-65889888D01*
X43008000Y-67810888D02*
X40812000Y-67810888D01*
X40870000Y-65969888D02*
X39382000Y-65969888D01*
X44292000Y-66450888D02*
X42950000Y-66450888D01*
X42194000Y-68050888D02*
X41626000Y-68050888D01*
X44365000Y-66250888D02*
X42950000Y-66250888D01*
X42825000Y-67890888D02*
X40995000Y-67890888D01*
X40870000Y-67050888D02*
X39875000Y-67050888D01*
X43385000Y-62645113D02*
X43385000Y-63145113D01*
X40870000Y-67210888D02*
X40009000Y-67210888D01*
X40870000Y-66490888D02*
X39545000Y-66490888D01*
X44258000Y-66530888D02*
X42950000Y-66530888D01*
X44446000Y-65929888D02*
X42950000Y-65929888D01*
X40870000Y-66970888D02*
X39815000Y-66970888D01*
X40870000Y-66170888D02*
X39430000Y-66170888D01*
X44430000Y-66009888D02*
X42950000Y-66009888D01*
X40870000Y-65769888D02*
X39349000Y-65769888D01*
X40870000Y-67290888D02*
X40084000Y-67290888D01*
X44421000Y-66049888D02*
X42950000Y-66049888D01*
X40870000Y-67650888D02*
X40527000Y-67650888D01*
X43811000Y-67210888D02*
X42950000Y-67210888D01*
X44390000Y-66170888D02*
X42950000Y-66170888D01*
X43635000Y-62895113D02*
X43135000Y-62895113D01*
X44466000Y-65809888D02*
X42950000Y-65809888D01*
X40870000Y-66730888D02*
X39663000Y-66730888D01*
X44032000Y-66930888D02*
X42950000Y-66930888D01*
X40870000Y-66610888D02*
X39600000Y-66610888D01*
X44488000Y-65569888D02*
X39332000Y-65569888D01*
X43945000Y-67050888D02*
X42950000Y-67050888D01*
X43088000Y-67770888D02*
X40732000Y-67770888D01*
X40870000Y-65889888D02*
X39367000Y-65889888D01*
X44178000Y-66690888D02*
X42950000Y-66690888D01*
X40870000Y-66410888D02*
X39512000Y-66410888D01*
X43353000Y-67610888D02*
X42950000Y-67610888D01*
X44530000Y-65449888D02*
G75*
G03*
X44530000Y-65449888I-2620000J0D01*
G01*
%TO.C,C10*%
X107250000Y-65940000D02*
X103610000Y-65940000D01*
X107250000Y-63600000D02*
X103610000Y-63600000D01*
X103610000Y-65940000D02*
X103610000Y-65695000D01*
X107250000Y-63845000D02*
X107250000Y-63600000D01*
X103610000Y-63845000D02*
X103610000Y-63600000D01*
X107250000Y-65940000D02*
X107250000Y-65695000D01*
%TO.C,J2*%
X139760000Y-68520000D02*
X139760000Y-88960000D01*
X134560000Y-68520000D02*
X135890000Y-68520000D01*
X134560000Y-71120000D02*
X137160000Y-71120000D01*
X134560000Y-69850000D02*
X134560000Y-68520000D01*
X137160000Y-71120000D02*
X137160000Y-68520000D01*
X137160000Y-68520000D02*
X139760000Y-68520000D01*
X134560000Y-88960000D02*
X139760000Y-88960000D01*
X134560000Y-71120000D02*
X134560000Y-88960000D01*
%TO.C,C5*%
X131135000Y-111210000D02*
X130890000Y-111210000D01*
X130890000Y-111210000D02*
X130890000Y-114850000D01*
X133230000Y-111210000D02*
X133230000Y-114850000D01*
X133230000Y-114850000D02*
X132985000Y-114850000D01*
X131135000Y-114850000D02*
X130890000Y-114850000D01*
X133230000Y-111210000D02*
X132985000Y-111210000D01*
%TO.C,R1*%
X127405000Y-161290000D02*
X128175000Y-161290000D01*
X128175000Y-159920000D02*
X128175000Y-162660000D01*
X135485000Y-161290000D02*
X134715000Y-161290000D01*
X128175000Y-162660000D02*
X134715000Y-162660000D01*
X134715000Y-162660000D02*
X134715000Y-159920000D01*
X134715000Y-159920000D02*
X128175000Y-159920000D01*
%TO.C,C18*%
X29020000Y-155279112D02*
X30075000Y-155279112D01*
X28660000Y-155999112D02*
X30075000Y-155999112D01*
X32155000Y-154919112D02*
X32900000Y-154919112D01*
X29330000Y-154919112D02*
X30075000Y-154919112D01*
X32155000Y-155479112D02*
X33339000Y-155479112D01*
X32155000Y-155159112D02*
X33119000Y-155159112D01*
X32155000Y-154959112D02*
X32941000Y-154959112D01*
X32155000Y-156160112D02*
X33616000Y-156160112D01*
X32155000Y-155399112D02*
X33290000Y-155399112D01*
X32155000Y-154719112D02*
X32669000Y-154719112D01*
X28554000Y-156480112D02*
X30075000Y-156480112D01*
X32155000Y-155639112D02*
X33425000Y-155639112D01*
X28614000Y-156160112D02*
X30075000Y-156160112D01*
X32155000Y-154679112D02*
X32615000Y-154679112D01*
X28537000Y-156680112D02*
X33693000Y-156680112D01*
X32155000Y-154999112D02*
X32979000Y-154999112D01*
X32155000Y-154559112D02*
X32434000Y-154559112D01*
X28559000Y-156440112D02*
X30075000Y-156440112D01*
X29144000Y-155119112D02*
X30075000Y-155119112D01*
X32155000Y-154759112D02*
X32720000Y-154759112D01*
X32155000Y-155839112D02*
X33513000Y-155839112D01*
X28717000Y-155839112D02*
X30075000Y-155839112D01*
X32155000Y-156240112D02*
X33635000Y-156240112D01*
X32155000Y-156280112D02*
X33643000Y-156280112D01*
X32155000Y-155119112D02*
X33086000Y-155119112D01*
X32155000Y-155279112D02*
X33210000Y-155279112D01*
X28847000Y-155559112D02*
X30075000Y-155559112D01*
X28550000Y-156520112D02*
X30075000Y-156520112D01*
X32155000Y-155799112D02*
X33497000Y-155799112D01*
X29864000Y-154519112D02*
X30075000Y-154519112D01*
X32155000Y-155759112D02*
X33480000Y-155759112D01*
X32155000Y-155359112D02*
X33264000Y-155359112D01*
X30310000Y-154319112D02*
X31920000Y-154319112D01*
X30104000Y-154399112D02*
X32126000Y-154399112D01*
X30597000Y-154239112D02*
X31633000Y-154239112D01*
X28579000Y-156320112D02*
X30075000Y-156320112D01*
X29615000Y-154679112D02*
X30075000Y-154679112D01*
X28701000Y-155879112D02*
X30075000Y-155879112D01*
X32155000Y-155559112D02*
X33383000Y-155559112D01*
X29214000Y-155039112D02*
X30075000Y-155039112D01*
X28624000Y-156120112D02*
X30075000Y-156120112D01*
X32155000Y-156400112D02*
X33665000Y-156400112D01*
X29390000Y-159354887D02*
X29890000Y-159354887D01*
X29640000Y-159604887D02*
X29640000Y-159104887D01*
X29561000Y-154719112D02*
X30075000Y-154719112D01*
X28635000Y-156079112D02*
X30075000Y-156079112D01*
X28536000Y-156720112D02*
X33694000Y-156720112D01*
X28786000Y-155679112D02*
X30075000Y-155679112D01*
X30438000Y-154279112D02*
X31792000Y-154279112D01*
X29251000Y-154999112D02*
X30075000Y-154999112D01*
X30831000Y-154199112D02*
X31399000Y-154199112D01*
X32155000Y-156520112D02*
X33680000Y-156520112D01*
X28750000Y-155759112D02*
X30075000Y-155759112D01*
X29672000Y-154639112D02*
X30075000Y-154639112D01*
X32155000Y-155599112D02*
X33405000Y-155599112D01*
X28535000Y-156800112D02*
X33695000Y-156800112D01*
X28733000Y-155799112D02*
X30075000Y-155799112D01*
X28595000Y-156240112D02*
X30075000Y-156240112D01*
X28604000Y-156200112D02*
X30075000Y-156200112D01*
X32155000Y-155079112D02*
X33052000Y-155079112D01*
X28868000Y-155519112D02*
X30075000Y-155519112D01*
X29111000Y-155159112D02*
X30075000Y-155159112D01*
X28940000Y-155399112D02*
X30075000Y-155399112D01*
X32155000Y-156200112D02*
X33626000Y-156200112D01*
X30017000Y-154439112D02*
X32213000Y-154439112D01*
X32155000Y-154879112D02*
X32858000Y-154879112D01*
X29510000Y-154759112D02*
X30075000Y-154759112D01*
X28673000Y-155959112D02*
X30075000Y-155959112D01*
X28993000Y-155319112D02*
X30075000Y-155319112D01*
X28539000Y-156640112D02*
X33691000Y-156640112D01*
X32155000Y-155439112D02*
X33315000Y-155439112D01*
X29732000Y-154599112D02*
X30075000Y-154599112D01*
X28546000Y-156560112D02*
X30075000Y-156560112D01*
X32155000Y-155239112D02*
X33180000Y-155239112D01*
X32155000Y-155959112D02*
X33557000Y-155959112D01*
X32155000Y-156039112D02*
X33583000Y-156039112D01*
X28587000Y-156280112D02*
X30075000Y-156280112D01*
X32155000Y-156120112D02*
X33606000Y-156120112D01*
X32155000Y-155679112D02*
X33444000Y-155679112D01*
X29416000Y-154839112D02*
X30075000Y-154839112D01*
X32155000Y-156480112D02*
X33676000Y-156480112D01*
X32155000Y-155879112D02*
X33529000Y-155879112D01*
X28572000Y-156360112D02*
X30075000Y-156360112D01*
X29080000Y-155199112D02*
X30075000Y-155199112D01*
X32155000Y-155519112D02*
X33362000Y-155519112D01*
X28687000Y-155919112D02*
X30075000Y-155919112D01*
X32155000Y-155319112D02*
X33237000Y-155319112D01*
X32155000Y-156079112D02*
X33595000Y-156079112D01*
X29796000Y-154559112D02*
X30075000Y-154559112D01*
X32155000Y-154639112D02*
X32558000Y-154639112D01*
X32155000Y-156360112D02*
X33658000Y-156360112D01*
X29372000Y-154879112D02*
X30075000Y-154879112D01*
X32155000Y-156320112D02*
X33651000Y-156320112D01*
X30200000Y-154359112D02*
X32030000Y-154359112D01*
X32155000Y-154519112D02*
X32366000Y-154519112D01*
X29178000Y-155079112D02*
X30075000Y-155079112D01*
X28535000Y-156760112D02*
X33695000Y-156760112D01*
X32155000Y-155999112D02*
X33570000Y-155999112D01*
X28542000Y-156600112D02*
X33688000Y-156600112D01*
X32155000Y-156440112D02*
X33671000Y-156440112D01*
X28565000Y-156400112D02*
X30075000Y-156400112D01*
X32155000Y-155199112D02*
X33150000Y-155199112D01*
X32155000Y-154599112D02*
X32498000Y-154599112D01*
X32155000Y-155919112D02*
X33543000Y-155919112D01*
X29050000Y-155239112D02*
X30075000Y-155239112D01*
X29462000Y-154799112D02*
X30075000Y-154799112D01*
X32155000Y-154799112D02*
X32768000Y-154799112D01*
X32155000Y-155039112D02*
X33016000Y-155039112D01*
X29289000Y-154959112D02*
X30075000Y-154959112D01*
X28915000Y-155439112D02*
X30075000Y-155439112D01*
X28891000Y-155479112D02*
X30075000Y-155479112D01*
X28805000Y-155639112D02*
X30075000Y-155639112D01*
X29937000Y-154479112D02*
X32293000Y-154479112D01*
X32155000Y-154839112D02*
X32814000Y-154839112D01*
X28647000Y-156039112D02*
X30075000Y-156039112D01*
X32155000Y-155719112D02*
X33463000Y-155719112D01*
X32155000Y-156560112D02*
X33684000Y-156560112D01*
X28767000Y-155719112D02*
X30075000Y-155719112D01*
X28966000Y-155359112D02*
X30075000Y-155359112D01*
X28825000Y-155599112D02*
X30075000Y-155599112D01*
X33735000Y-156800112D02*
G75*
G03*
X33735000Y-156800112I-2620000J0D01*
G01*
%TO.C,C2*%
X125030000Y-95350000D02*
X121390000Y-95350000D01*
X121390000Y-95595000D02*
X121390000Y-95350000D01*
X125030000Y-95595000D02*
X125030000Y-95350000D01*
X125030000Y-97690000D02*
X121390000Y-97690000D01*
X125030000Y-97690000D02*
X125030000Y-97445000D01*
X121390000Y-97690000D02*
X121390000Y-97445000D01*
%TO.C,C15*%
X112899904Y-96345000D02*
X112899904Y-95020000D01*
X112619904Y-92940000D02*
X112619904Y-91756000D01*
X112579904Y-92940000D02*
X112579904Y-91780000D01*
X112299904Y-95984000D02*
X112299904Y-95020000D01*
X113540904Y-96530000D02*
X113540904Y-95020000D01*
X113620904Y-96541000D02*
X113620904Y-95020000D01*
X112379904Y-92940000D02*
X112379904Y-91915000D01*
X113019904Y-96394000D02*
X113019904Y-95020000D01*
X112979904Y-96378000D02*
X112979904Y-95020000D01*
X111579904Y-95078000D02*
X111579904Y-92882000D01*
X112939904Y-92940000D02*
X112939904Y-91598000D01*
X111419904Y-94657000D02*
X111419904Y-93303000D01*
X112459904Y-92940000D02*
X112459904Y-91858000D01*
X113219904Y-96460000D02*
X113219904Y-95020000D01*
X112419904Y-92940000D02*
X112419904Y-91885000D01*
X112179904Y-92940000D02*
X112179904Y-92079000D01*
X113340904Y-92940000D02*
X113340904Y-91469000D01*
X111619904Y-95158000D02*
X111619904Y-92802000D01*
X113500904Y-92940000D02*
X113500904Y-91437000D01*
X112139904Y-95844000D02*
X112139904Y-95020000D01*
X113420904Y-92940000D02*
X113420904Y-91452000D01*
X111979904Y-92940000D02*
X111979904Y-92281000D01*
X113059904Y-96408000D02*
X113059904Y-95020000D01*
X112179904Y-95881000D02*
X112179904Y-95020000D01*
X113940904Y-96560000D02*
X113940904Y-95020000D01*
X113700904Y-92940000D02*
X113700904Y-91411000D01*
X112939904Y-96362000D02*
X112939904Y-95020000D01*
X113460904Y-92940000D02*
X113460904Y-91444000D01*
X113500904Y-96523000D02*
X113500904Y-95020000D01*
X112259904Y-92940000D02*
X112259904Y-92009000D01*
X113300904Y-92940000D02*
X113300904Y-91479000D01*
X113260904Y-92940000D02*
X113260904Y-91489000D01*
X113179904Y-92940000D02*
X113179904Y-91512000D01*
X111659904Y-95231000D02*
X111659904Y-92729000D01*
X113300904Y-96481000D02*
X113300904Y-95020000D01*
X113700904Y-96549000D02*
X113700904Y-95020000D01*
X113099904Y-96422000D02*
X113099904Y-95020000D01*
X113740904Y-96553000D02*
X113740904Y-95020000D01*
X112499904Y-92940000D02*
X112499904Y-91831000D01*
X111859904Y-95534000D02*
X111859904Y-92426000D01*
X112699904Y-96248000D02*
X112699904Y-95020000D01*
X112099904Y-95806000D02*
X112099904Y-95020000D01*
X113019904Y-92940000D02*
X113019904Y-91566000D01*
X113219904Y-92940000D02*
X113219904Y-91500000D01*
X112779904Y-92940000D02*
X112779904Y-91670000D01*
X112659904Y-96227000D02*
X112659904Y-95020000D01*
X111699904Y-95299000D02*
X111699904Y-92661000D01*
X112019904Y-95723000D02*
X112019904Y-95020000D01*
X113820904Y-92940000D02*
X113820904Y-91402000D01*
X113420904Y-96508000D02*
X113420904Y-95020000D01*
X113900904Y-96560000D02*
X113900904Y-95020000D01*
X112859904Y-92940000D02*
X112859904Y-91632000D01*
X111539904Y-94991000D02*
X111539904Y-92969000D01*
X112739904Y-96270000D02*
X112739904Y-95020000D01*
X112339904Y-96015000D02*
X112339904Y-95020000D01*
X112819904Y-96309000D02*
X112819904Y-95020000D01*
X112099904Y-92940000D02*
X112099904Y-92154000D01*
X112619904Y-96204000D02*
X112619904Y-95020000D01*
X113860904Y-96559000D02*
X113860904Y-95020000D01*
X113580904Y-92940000D02*
X113580904Y-91424000D01*
X113059904Y-92940000D02*
X113059904Y-91552000D01*
X112859904Y-96328000D02*
X112859904Y-95020000D01*
X113660904Y-96545000D02*
X113660904Y-95020000D01*
X112899904Y-92940000D02*
X112899904Y-91615000D01*
X113780904Y-92940000D02*
X113780904Y-91404000D01*
X111779904Y-95423000D02*
X111779904Y-92537000D01*
X112299904Y-92940000D02*
X112299904Y-91976000D01*
X113820904Y-96558000D02*
X113820904Y-95020000D01*
X112659904Y-92940000D02*
X112659904Y-91733000D01*
X113780904Y-96556000D02*
X113780904Y-95020000D01*
X113620904Y-92940000D02*
X113620904Y-91419000D01*
X112139904Y-92940000D02*
X112139904Y-92116000D01*
X112219904Y-95917000D02*
X112219904Y-95020000D01*
X111379904Y-94498000D02*
X111379904Y-93462000D01*
X113740904Y-92940000D02*
X113740904Y-91407000D01*
X112819904Y-92940000D02*
X112819904Y-91651000D01*
X112259904Y-95951000D02*
X112259904Y-95020000D01*
X111739904Y-95363000D02*
X111739904Y-92597000D01*
X112539904Y-96155000D02*
X112539904Y-95020000D01*
X113139904Y-96435000D02*
X113139904Y-95020000D01*
X111499904Y-94895000D02*
X111499904Y-93065000D01*
X111459904Y-94785000D02*
X111459904Y-93175000D01*
X111979904Y-95679000D02*
X111979904Y-95020000D01*
X112579904Y-96180000D02*
X112579904Y-95020000D01*
X116495679Y-95705000D02*
X116495679Y-95205000D01*
X111819904Y-95480000D02*
X111819904Y-92480000D01*
X113860904Y-92940000D02*
X113860904Y-91401000D01*
X112219904Y-92940000D02*
X112219904Y-92043000D01*
X113540904Y-92940000D02*
X113540904Y-91430000D01*
X111899904Y-95585000D02*
X111899904Y-92375000D01*
X112379904Y-96045000D02*
X112379904Y-95020000D01*
X113139904Y-92940000D02*
X113139904Y-91525000D01*
X112419904Y-96075000D02*
X112419904Y-95020000D01*
X112059904Y-95765000D02*
X112059904Y-95020000D01*
X111939904Y-95633000D02*
X111939904Y-95020000D01*
X112059904Y-92940000D02*
X112059904Y-92195000D01*
X113380904Y-92940000D02*
X113380904Y-91460000D01*
X113580904Y-96536000D02*
X113580904Y-95020000D01*
X113380904Y-96500000D02*
X113380904Y-95020000D01*
X113940904Y-92940000D02*
X113940904Y-91400000D01*
X113099904Y-92940000D02*
X113099904Y-91538000D01*
X111939904Y-92940000D02*
X111939904Y-92327000D01*
X113260904Y-96471000D02*
X113260904Y-95020000D01*
X113340904Y-96491000D02*
X113340904Y-95020000D01*
X116745679Y-95455000D02*
X116245679Y-95455000D01*
X113179904Y-96448000D02*
X113179904Y-95020000D01*
X112739904Y-92940000D02*
X112739904Y-91690000D01*
X112539904Y-92940000D02*
X112539904Y-91805000D01*
X113460904Y-96516000D02*
X113460904Y-95020000D01*
X112499904Y-96129000D02*
X112499904Y-95020000D01*
X113660904Y-92940000D02*
X113660904Y-91415000D01*
X112459904Y-96102000D02*
X112459904Y-95020000D01*
X112779904Y-96290000D02*
X112779904Y-95020000D01*
X113900904Y-92940000D02*
X113900904Y-91400000D01*
X112979904Y-92940000D02*
X112979904Y-91582000D01*
X111339904Y-94264000D02*
X111339904Y-93696000D01*
X112699904Y-92940000D02*
X112699904Y-91712000D01*
X112339904Y-92940000D02*
X112339904Y-91945000D01*
X112019904Y-92940000D02*
X112019904Y-92237000D01*
X116560904Y-93980000D02*
G75*
G03*
X116560904Y-93980000I-2620000J0D01*
G01*
%TO.C,J6*%
X62230000Y-148590000D02*
X60960000Y-148590000D01*
X50860000Y-140080000D02*
X50860000Y-139320000D01*
X50860000Y-146940000D02*
X56860000Y-146940000D01*
X56860000Y-147520000D02*
X50860000Y-147520000D01*
X59917071Y-142620000D02*
X59520000Y-142620000D01*
X56860000Y-148650000D02*
X59520000Y-148650000D01*
X59917071Y-139320000D02*
X59520000Y-139320000D01*
X59917071Y-140080000D02*
X59520000Y-140080000D01*
X62230000Y-147320000D02*
X62230000Y-148590000D01*
X56860000Y-147400000D02*
X50860000Y-147400000D01*
X59520000Y-143510000D02*
X56860000Y-143510000D01*
X59520000Y-148650000D02*
X59520000Y-138370000D01*
X56860000Y-147280000D02*
X50860000Y-147280000D01*
X56860000Y-140080000D02*
X50860000Y-140080000D01*
X50860000Y-144400000D02*
X56860000Y-144400000D01*
X59520000Y-146050000D02*
X56860000Y-146050000D01*
X56860000Y-147640000D02*
X50860000Y-147640000D01*
X59520000Y-138370000D02*
X56860000Y-138370000D01*
X56860000Y-138370000D02*
X56860000Y-148650000D01*
X59917071Y-145160000D02*
X59520000Y-145160000D01*
X50860000Y-145160000D02*
X50860000Y-144400000D01*
X50860000Y-139320000D02*
X56860000Y-139320000D01*
X59520000Y-140970000D02*
X56860000Y-140970000D01*
X56860000Y-142620000D02*
X50860000Y-142620000D01*
X50860000Y-147700000D02*
X50860000Y-146940000D01*
X59850000Y-146940000D02*
X59520000Y-146940000D01*
X56860000Y-147700000D02*
X50860000Y-147700000D01*
X59917071Y-144400000D02*
X59520000Y-144400000D01*
X50860000Y-141860000D02*
X56860000Y-141860000D01*
X56860000Y-147160000D02*
X50860000Y-147160000D01*
X59917071Y-141860000D02*
X59520000Y-141860000D01*
X56860000Y-147040000D02*
X50860000Y-147040000D01*
X59850000Y-147700000D02*
X59520000Y-147700000D01*
X50860000Y-142620000D02*
X50860000Y-141860000D01*
X56860000Y-145160000D02*
X50860000Y-145160000D01*
%TO.C,U2*%
X72290000Y-86415000D02*
X77590000Y-86415000D01*
X77590000Y-86415000D02*
X77590000Y-68515000D01*
X77590000Y-68515000D02*
X75940000Y-68515000D01*
X72290000Y-68515000D02*
X72290000Y-86415000D01*
X73940000Y-68515000D02*
X72290000Y-68515000D01*
X73940000Y-68515000D02*
G75*
G03*
X75940000Y-68515000I1000000J0D01*
G01*
%TO.C,U7*%
X83550000Y-146105000D02*
X89010000Y-146105000D01*
X76090000Y-146105000D02*
X81550000Y-146105000D01*
X89010000Y-146105000D02*
X89010000Y-95185000D01*
X76090000Y-95185000D02*
X76090000Y-146105000D01*
X89010000Y-95185000D02*
X76090000Y-95185000D01*
X83550000Y-146105000D02*
G75*
G03*
X81550000Y-146105000I-1000000J0D01*
G01*
%TD*%
M02*
