M48
; DRILL file {KiCad 6.0.11-2627ca5db0~126~ubuntu22.04.1} date Sun 12 Feb 2023 01:00:52 PM EST
; FORMAT={-:-/ absolute / inch / decimal}
; #@! TF.CreationDate,2023-02-12T13:00:52-05:00
; #@! TF.GenerationSoftware,Kicad,Pcbnew,6.0.11-2627ca5db0~126~ubuntu22.04.1
; #@! TF.FileFunction,Plated,1,4,PTH
FMAT,2
INCH
; #@! TA.AperFunction,Plated,PTH,ViaDrill
T1C0.0157
; #@! TA.AperFunction,Plated,PTH,ComponentDrill
T2C0.0197
; #@! TA.AperFunction,Plated,PTH,ComponentDrill
T3C0.0295
; #@! TA.AperFunction,Plated,PTH,ComponentDrill
T4C0.0315
; #@! TA.AperFunction,Plated,PTH,ComponentDrill
T5C0.0354
; #@! TA.AperFunction,Plated,PTH,ComponentDrill
T6C0.0394
; #@! TA.AperFunction,Plated,PTH,ComponentDrill
T7C0.1181
%
G90
G05
T1
X1.075Y-5.875
X1.625Y-3.75
X1.625Y-5.7
X1.675Y-3.7786
X1.675Y-6.375
X1.825Y-6.7
X1.9Y-3.05
X1.975Y-6.75
X2.0Y-3.55
X2.525Y-6.3
X2.625Y-3.3
X2.6964Y-4.5
X2.725Y-3.55
X2.725Y-6.35
X2.825Y-5.6
X2.85Y-3.7
X2.9Y-2.9
X2.95Y-6.125
X3.025Y-2.875
X3.025Y-3.2
X3.05Y-6.1
X3.075Y-4.35
X3.0752Y-4.5998
X3.1252Y-4.0998
X3.175Y-2.725
X3.2036Y-2.95
X3.2036Y-3.8464
X3.2036Y-4.1
X3.2502Y-3.8998
X3.2502Y-4.6998
X3.275Y-3.625
X3.3252Y-3.9998
X3.3252Y-5.3998
X3.4Y-5.925
X3.45Y-3.6
X3.525Y-3.05
X3.625Y-3.65
X3.65Y-4.15
X3.6999Y-4.3499
X3.8Y-3.175
X3.85Y-5.45
X3.9Y-2.95
X3.9Y-3.6
X3.9Y-5.5
X3.925Y-5.7
X4.075Y-2.975
X4.075Y-3.4
X4.1Y-3.55
X4.1Y-4.75
X4.15Y-3.575
X4.175Y-4.35
X4.175Y-5.15
X4.2Y-3.7
X4.25Y-3.65
X4.4Y-3.175
X4.45Y-6.2
X4.575Y-3.1
X4.6306Y-2.8056
X5.05Y-3.9
X5.0928Y-3.8
X5.1Y-5.35
X5.1Y-6.2
X5.1214Y-3.725
X5.2Y-2.65
X5.2Y-3.75
X5.375Y-6.15
T2
X2.0173Y-4.2126
X2.0173Y-4.2874
T3
X5.4033Y-5.625
X5.4533Y-5.575
X5.4533Y-5.675
T4
X1.2Y-2.85
X1.2Y-3.15
X1.225Y-6.124
X1.225Y-6.2224
X1.3Y-2.6
X1.3984Y-2.6
X1.4Y-4.7516
X1.4Y-4.85
X1.5Y-2.85
X1.5Y-3.15
X1.65Y-2.5276
X1.65Y-2.626
X1.8Y-2.8
X1.8Y-2.9
X1.8Y-3.0
X1.8Y-3.1
X1.8Y-3.2
X1.8Y-3.3
X1.8Y-3.4
X1.8Y-3.5
X1.9016Y-2.6
X2.0Y-2.6
X2.1Y-2.8
X2.1Y-2.9
X2.1Y-3.0
X2.1Y-3.1
X2.1Y-3.2
X2.1Y-3.3
X2.1Y-3.4
X2.1Y-3.5
X2.1504Y-4.0006
X2.1504Y-4.1006
X2.1504Y-4.2006
X2.1504Y-4.3006
X2.1504Y-4.4006
X2.1504Y-4.5006
X2.1504Y-4.6006
X2.1504Y-4.7006
X2.2516Y-3.85
X2.35Y-3.85
X2.4504Y-4.0006
X2.4504Y-4.1006
X2.4504Y-4.2006
X2.4504Y-4.3006
X2.4504Y-4.4006
X2.4504Y-4.5006
X2.4504Y-4.6006
X2.4504Y-4.7006
X2.8004Y-2.7498
X2.8004Y-2.8498
X2.8004Y-2.9498
X2.8004Y-3.0498
X2.8004Y-3.1498
X2.8004Y-3.2498
X2.8004Y-3.3498
X2.9Y-2.55
X2.95Y-3.7998
X2.95Y-3.8998
X2.95Y-3.9998
X2.95Y-4.0998
X2.95Y-4.1998
X2.95Y-4.2998
X2.95Y-4.3998
X2.95Y-4.4998
X2.95Y-4.5998
X2.95Y-4.6998
X2.95Y-4.7998
X2.95Y-4.8998
X2.95Y-4.9998
X2.95Y-5.0998
X2.95Y-5.1998
X2.95Y-5.2998
X2.95Y-5.3998
X2.95Y-5.4998
X2.95Y-5.5998
X2.95Y-5.6998
X2.9984Y-2.55
X3.1004Y-2.7498
X3.1004Y-2.8498
X3.1004Y-2.9498
X3.1004Y-3.0498
X3.1004Y-3.1498
X3.1004Y-3.2498
X3.1004Y-3.3498
X3.4Y-2.75
X3.4Y-2.85
X3.4Y-2.95
X3.4Y-3.05
X3.4Y-3.15
X3.4Y-3.25
X3.4Y-3.35
X3.4Y-3.45
X3.5016Y-2.55
X3.55Y-3.7998
X3.55Y-3.8998
X3.55Y-3.9998
X3.55Y-4.0998
X3.55Y-4.1998
X3.55Y-4.2998
X3.55Y-4.3998
X3.55Y-4.4998
X3.55Y-4.5998
X3.55Y-4.6998
X3.55Y-4.7998
X3.55Y-4.8998
X3.55Y-4.9998
X3.55Y-5.0998
X3.55Y-5.1998
X3.55Y-5.2998
X3.55Y-5.3998
X3.55Y-5.4998
X3.55Y-5.5998
X3.55Y-5.6998
X3.6Y-2.55
X3.7Y-2.75
X3.7Y-2.85
X3.7Y-2.95
X3.7Y-3.05
X3.7Y-3.15
X3.7Y-3.25
X3.7Y-3.35
X3.7Y-3.45
X3.7Y-5.5258
X3.7Y-5.6242
X3.75Y-6.35
X3.75Y-6.55
X4.0Y-2.75
X4.0Y-2.85
X4.0Y-2.95
X4.0Y-3.05
X4.0Y-3.15
X4.0Y-3.25
X4.0Y-3.35
X4.0Y-3.45
X4.0Y-3.95
X4.0Y-4.05
X4.0Y-4.15
X4.0Y-4.25
X4.0Y-4.35
X4.0Y-4.45
X4.0Y-4.55
X4.0Y-4.65
X4.0Y-4.75
X4.0Y-4.85
X4.0Y-4.95
X4.0Y-5.05
X4.0004Y-5.35
X4.0004Y-5.45
X4.0004Y-5.55
X4.0004Y-5.65
X4.0004Y-5.75
X4.0004Y-5.85
X4.0004Y-5.95
X4.0004Y-6.05
X4.1008Y-5.225
X4.1016Y-2.55
X4.1016Y-3.8
X4.15Y-6.35
X4.15Y-6.55
X4.1992Y-5.225
X4.2Y-2.55
X4.2Y-3.8
X4.3Y-2.75
X4.3Y-2.85
X4.3Y-2.95
X4.3Y-3.05
X4.3Y-3.15
X4.3Y-3.25
X4.3Y-3.35
X4.3Y-3.45
X4.3Y-3.95
X4.3Y-4.05
X4.3Y-4.15
X4.3Y-4.25
X4.3Y-4.35
X4.3Y-4.45
X4.3Y-4.55
X4.3Y-4.65
X4.3Y-4.75
X4.3Y-4.85
X4.3Y-4.95
X4.3Y-5.05
X4.3004Y-5.35
X4.3004Y-5.45
X4.3004Y-5.55
X4.3004Y-5.65
X4.3004Y-5.75
X4.3004Y-5.85
X4.3004Y-5.95
X4.3004Y-6.05
X4.4465Y-3.7
X4.45Y-4.3508
X4.45Y-4.4492
X4.5252Y-3.7
X4.7004Y-2.75
X4.7004Y-2.85
X4.7004Y-2.95
X4.7004Y-3.05
X4.7004Y-3.15
X4.7004Y-3.25
X4.7004Y-3.35
X4.7004Y-3.45
X4.7004Y-3.55
X4.7004Y-3.65
X4.7004Y-3.9498
X4.7004Y-4.0498
X4.7004Y-4.1498
X4.7004Y-4.2498
X4.7004Y-4.3498
X4.7004Y-4.4498
X4.7004Y-4.5498
X4.7004Y-4.6498
X4.7004Y-4.7498
X4.7004Y-4.8498
X4.7004Y-4.9498
X4.7004Y-5.0498
X4.7004Y-5.35
X4.7004Y-5.45
X4.7004Y-5.55
X4.7004Y-5.65
X4.7004Y-5.75
X4.7004Y-5.85
X4.7004Y-5.95
X4.7004Y-6.05
X4.8008Y-5.225
X4.8016Y-3.8
X4.8992Y-5.225
X4.9Y-2.55
X4.9Y-3.8
X4.975Y-6.35
X4.9984Y-2.55
X5.0004Y-2.75
X5.0004Y-2.85
X5.0004Y-2.95
X5.0004Y-3.05
X5.0004Y-3.15
X5.0004Y-3.25
X5.0004Y-3.35
X5.0004Y-3.45
X5.0004Y-3.55
X5.0004Y-3.65
X5.0004Y-3.9498
X5.0004Y-4.0498
X5.0004Y-4.1498
X5.0004Y-4.2498
X5.0004Y-4.3498
X5.0004Y-4.4498
X5.0004Y-4.5498
X5.0004Y-4.6498
X5.0004Y-4.7498
X5.0004Y-4.8498
X5.0004Y-4.9498
X5.0004Y-5.0498
X5.0004Y-5.35
X5.0004Y-5.45
X5.0004Y-5.55
X5.0004Y-5.65
X5.0004Y-5.75
X5.0004Y-5.85
X5.0004Y-5.95
X5.0004Y-6.05
X5.175Y-4.7
X5.175Y-5.1
X5.1992Y-4.4008
X5.1992Y-4.4992
X5.2Y-3.85
X5.2Y-4.25
X5.2Y-5.35
X5.2Y-5.4484
X5.275Y-5.8
X5.275Y-6.2
X5.3339Y-3.725
X5.375Y-6.35
X5.4126Y-3.725
X5.475Y-5.8
X5.475Y-6.2
T5
X4.2998Y-6.5
X4.3998Y-6.5
X4.5248Y-6.5
X4.6248Y-6.5
X4.7498Y-6.5
X4.8498Y-6.5
T6
X1.15Y-3.6244
X1.15Y-3.7244
X1.15Y-4.7504
X1.15Y-4.8504
X1.15Y-4.9504
X1.15Y-5.0504
X1.775Y-6.125
X1.775Y-6.225
X1.875Y-6.125
X1.875Y-6.225
X1.975Y-6.125
X1.975Y-6.225
X2.075Y-6.125
X2.075Y-6.225
X2.175Y-6.125
X2.175Y-6.225
X2.275Y-6.125
X2.275Y-6.225
X2.3498Y-2.8006
X2.3498Y-2.9006
X2.3498Y-3.0006
X2.3498Y-3.1006
X2.3498Y-3.2006
X2.3498Y-3.3006
X2.3498Y-3.4006
X2.3498Y-3.5006
X2.375Y-6.125
X2.375Y-6.225
X2.4Y-5.5
X2.4Y-5.6
X2.4Y-5.7
X2.4Y-5.8
X2.4498Y-2.8006
X2.4498Y-2.9006
X2.4498Y-3.0006
X2.4498Y-3.1006
X2.4498Y-3.2006
X2.4498Y-3.3006
X2.4498Y-3.4006
X2.4498Y-3.5006
X2.475Y-6.125
X2.475Y-6.225
X3.2016Y-6.0646
X3.2016Y-6.6354
X3.3Y-6.6354
X3.3984Y-6.0646
X3.3984Y-6.6354
X4.325Y-6.7
X4.425Y-6.7
X4.7502Y-6.7
X4.8502Y-6.7
X5.35Y-2.75
X5.35Y-2.85
X5.35Y-2.95
X5.35Y-3.05
X5.35Y-3.15
X5.35Y-3.25
X5.35Y-3.35
X5.35Y-3.45
X5.45Y-2.75
X5.45Y-2.85
X5.45Y-2.95
X5.45Y-3.05
X5.45Y-3.15
X5.45Y-3.25
X5.45Y-3.35
X5.45Y-3.45
X5.5Y-4.625
X5.5Y-4.725
X5.5Y-4.825
X5.5Y-4.925
X5.5Y-5.2498
X5.5Y-5.3498
T7
X3.0835Y-6.3402
X3.5165Y-6.3402
T0
M30
