%TF.GenerationSoftware,KiCad,Pcbnew,6.0.9-8da3e8f707~117~ubuntu22.04.1*%
%TF.CreationDate,2023-01-02T15:35:40-05:00*%
%TF.ProjectId,dac,6461632e-6b69-4636-9164-5f7063625858,rev?*%
%TF.SameCoordinates,Original*%
%TF.FileFunction,Legend,Top*%
%TF.FilePolarity,Positive*%
%FSLAX46Y46*%
G04 Gerber Fmt 4.6, Leading zero omitted, Abs format (unit mm)*
G04 Created by KiCad (PCBNEW 6.0.9-8da3e8f707~117~ubuntu22.04.1) date 2023-01-02 15:35:40*
%MOMM*%
%LPD*%
G01*
G04 APERTURE LIST*
%ADD10C,0.203200*%
%ADD11C,0.152400*%
%ADD12C,0.120000*%
%ADD13C,0.200000*%
G04 APERTURE END LIST*
D10*
X33020000Y-133350000D02*
X63500000Y-133350000D01*
X63500000Y-133350000D02*
X63500000Y-153670000D01*
X63500000Y-153670000D02*
X33020000Y-153670000D01*
X33020000Y-153670000D02*
X33020000Y-133350000D01*
D11*
X38970857Y-130066142D02*
X38462857Y-130066142D01*
X38462857Y-130864428D02*
X38462857Y-129340428D01*
X39188571Y-129340428D01*
X39551428Y-129340428D02*
X40422285Y-129340428D01*
X39986857Y-130864428D02*
X39986857Y-129340428D01*
X40857714Y-129485571D02*
X40930285Y-129413000D01*
X41075428Y-129340428D01*
X41438285Y-129340428D01*
X41583428Y-129413000D01*
X41656000Y-129485571D01*
X41728571Y-129630714D01*
X41728571Y-129775857D01*
X41656000Y-129993571D01*
X40785142Y-130864428D01*
X41728571Y-130864428D01*
X42236571Y-129340428D02*
X43180000Y-129340428D01*
X42672000Y-129921000D01*
X42889714Y-129921000D01*
X43034857Y-129993571D01*
X43107428Y-130066142D01*
X43180000Y-130211285D01*
X43180000Y-130574142D01*
X43107428Y-130719285D01*
X43034857Y-130791857D01*
X42889714Y-130864428D01*
X42454285Y-130864428D01*
X42309142Y-130791857D01*
X42236571Y-130719285D01*
X43760571Y-129485571D02*
X43833142Y-129413000D01*
X43978285Y-129340428D01*
X44341142Y-129340428D01*
X44486285Y-129413000D01*
X44558857Y-129485571D01*
X44631428Y-129630714D01*
X44631428Y-129775857D01*
X44558857Y-129993571D01*
X43688000Y-130864428D01*
X44631428Y-130864428D01*
X46445714Y-129340428D02*
X46445714Y-130574142D01*
X46518285Y-130719285D01*
X46590857Y-130791857D01*
X46736000Y-130864428D01*
X47026285Y-130864428D01*
X47171428Y-130791857D01*
X47244000Y-130719285D01*
X47316571Y-130574142D01*
X47316571Y-129340428D01*
X47969714Y-130791857D02*
X48187428Y-130864428D01*
X48550285Y-130864428D01*
X48695428Y-130791857D01*
X48768000Y-130719285D01*
X48840571Y-130574142D01*
X48840571Y-130429000D01*
X48768000Y-130283857D01*
X48695428Y-130211285D01*
X48550285Y-130138714D01*
X48260000Y-130066142D01*
X48114857Y-129993571D01*
X48042285Y-129921000D01*
X47969714Y-129775857D01*
X47969714Y-129630714D01*
X48042285Y-129485571D01*
X48114857Y-129413000D01*
X48260000Y-129340428D01*
X48622857Y-129340428D01*
X48840571Y-129413000D01*
X50001714Y-130066142D02*
X50219428Y-130138714D01*
X50292000Y-130211285D01*
X50364571Y-130356428D01*
X50364571Y-130574142D01*
X50292000Y-130719285D01*
X50219428Y-130791857D01*
X50074285Y-130864428D01*
X49493714Y-130864428D01*
X49493714Y-129340428D01*
X50001714Y-129340428D01*
X50146857Y-129413000D01*
X50219428Y-129485571D01*
X50292000Y-129630714D01*
X50292000Y-129775857D01*
X50219428Y-129921000D01*
X50146857Y-129993571D01*
X50001714Y-130066142D01*
X49493714Y-130066142D01*
X52106285Y-130791857D02*
X52324000Y-130864428D01*
X52686857Y-130864428D01*
X52832000Y-130791857D01*
X52904571Y-130719285D01*
X52977142Y-130574142D01*
X52977142Y-130429000D01*
X52904571Y-130283857D01*
X52832000Y-130211285D01*
X52686857Y-130138714D01*
X52396571Y-130066142D01*
X52251428Y-129993571D01*
X52178857Y-129921000D01*
X52106285Y-129775857D01*
X52106285Y-129630714D01*
X52178857Y-129485571D01*
X52251428Y-129413000D01*
X52396571Y-129340428D01*
X52759428Y-129340428D01*
X52977142Y-129413000D01*
X54210857Y-130791857D02*
X54065714Y-130864428D01*
X53775428Y-130864428D01*
X53630285Y-130791857D01*
X53557714Y-130646714D01*
X53557714Y-130066142D01*
X53630285Y-129921000D01*
X53775428Y-129848428D01*
X54065714Y-129848428D01*
X54210857Y-129921000D01*
X54283428Y-130066142D01*
X54283428Y-130211285D01*
X53557714Y-130356428D01*
X54936571Y-130864428D02*
X54936571Y-129848428D01*
X54936571Y-130138714D02*
X55009142Y-129993571D01*
X55081714Y-129921000D01*
X55226857Y-129848428D01*
X55372000Y-129848428D01*
X55880000Y-130864428D02*
X55880000Y-129848428D01*
X55880000Y-129340428D02*
X55807428Y-129413000D01*
X55880000Y-129485571D01*
X55952571Y-129413000D01*
X55880000Y-129340428D01*
X55880000Y-129485571D01*
X57258857Y-130864428D02*
X57258857Y-130066142D01*
X57186285Y-129921000D01*
X57041142Y-129848428D01*
X56750857Y-129848428D01*
X56605714Y-129921000D01*
X57258857Y-130791857D02*
X57113714Y-130864428D01*
X56750857Y-130864428D01*
X56605714Y-130791857D01*
X56533142Y-130646714D01*
X56533142Y-130501571D01*
X56605714Y-130356428D01*
X56750857Y-130283857D01*
X57113714Y-130283857D01*
X57258857Y-130211285D01*
X58202285Y-130864428D02*
X58057142Y-130791857D01*
X57984571Y-130646714D01*
X57984571Y-129340428D01*
X29645428Y-85144428D02*
X28774571Y-85144428D01*
X29210000Y-85144428D02*
X29210000Y-83620428D01*
X29064857Y-83838142D01*
X28919714Y-83983285D01*
X28774571Y-84055857D01*
X64062428Y-80590571D02*
X64135000Y-80518000D01*
X64280142Y-80445428D01*
X64643000Y-80445428D01*
X64788142Y-80518000D01*
X64860714Y-80590571D01*
X64933285Y-80735714D01*
X64933285Y-80880857D01*
X64860714Y-81098571D01*
X63989857Y-81969428D01*
X64933285Y-81969428D01*
X66239571Y-80953428D02*
X66239571Y-81969428D01*
X65876714Y-80372857D02*
X65513857Y-81461428D01*
X66457285Y-81461428D01*
X67328142Y-80445428D02*
X67473285Y-80445428D01*
X67618428Y-80518000D01*
X67691000Y-80590571D01*
X67763571Y-80735714D01*
X67836142Y-81026000D01*
X67836142Y-81388857D01*
X67763571Y-81679142D01*
X67691000Y-81824285D01*
X67618428Y-81896857D01*
X67473285Y-81969428D01*
X67328142Y-81969428D01*
X67183000Y-81896857D01*
X67110428Y-81824285D01*
X67037857Y-81679142D01*
X66965285Y-81388857D01*
X66965285Y-81026000D01*
X67037857Y-80735714D01*
X67110428Y-80590571D01*
X67183000Y-80518000D01*
X67328142Y-80445428D01*
X68779571Y-80445428D02*
X68924714Y-80445428D01*
X69069857Y-80518000D01*
X69142428Y-80590571D01*
X69215000Y-80735714D01*
X69287571Y-81026000D01*
X69287571Y-81388857D01*
X69215000Y-81679142D01*
X69142428Y-81824285D01*
X69069857Y-81896857D01*
X68924714Y-81969428D01*
X68779571Y-81969428D01*
X68634428Y-81896857D01*
X68561857Y-81824285D01*
X68489285Y-81679142D01*
X68416714Y-81388857D01*
X68416714Y-81026000D01*
X68489285Y-80735714D01*
X68561857Y-80590571D01*
X68634428Y-80518000D01*
X68779571Y-80445428D01*
X64679285Y-74349428D02*
X63808428Y-74349428D01*
X64243857Y-74349428D02*
X64243857Y-72825428D01*
X64098714Y-73043142D01*
X63953571Y-73188285D01*
X63808428Y-73260857D01*
X65405000Y-74349428D02*
X65695285Y-74349428D01*
X65840428Y-74276857D01*
X65913000Y-74204285D01*
X66058142Y-73986571D01*
X66130714Y-73696285D01*
X66130714Y-73115714D01*
X66058142Y-72970571D01*
X65985571Y-72898000D01*
X65840428Y-72825428D01*
X65550142Y-72825428D01*
X65405000Y-72898000D01*
X65332428Y-72970571D01*
X65259857Y-73115714D01*
X65259857Y-73478571D01*
X65332428Y-73623714D01*
X65405000Y-73696285D01*
X65550142Y-73768857D01*
X65840428Y-73768857D01*
X65985571Y-73696285D01*
X66058142Y-73623714D01*
X66130714Y-73478571D01*
X66783857Y-74204285D02*
X66856428Y-74276857D01*
X66783857Y-74349428D01*
X66711285Y-74276857D01*
X66783857Y-74204285D01*
X66783857Y-74349428D01*
X67437000Y-72970571D02*
X67509571Y-72898000D01*
X67654714Y-72825428D01*
X68017571Y-72825428D01*
X68162714Y-72898000D01*
X68235285Y-72970571D01*
X68307857Y-73115714D01*
X68307857Y-73260857D01*
X68235285Y-73478571D01*
X67364428Y-74349428D01*
X68307857Y-74349428D01*
X68961000Y-74349428D02*
X68961000Y-72825428D01*
X69106142Y-73768857D02*
X69541571Y-74349428D01*
X69541571Y-73333428D02*
X68961000Y-73914000D01*
X56515000Y-67201142D02*
X56732714Y-67273714D01*
X56805285Y-67346285D01*
X56877857Y-67491428D01*
X56877857Y-67709142D01*
X56805285Y-67854285D01*
X56732714Y-67926857D01*
X56587571Y-67999428D01*
X56007000Y-67999428D01*
X56007000Y-66475428D01*
X56515000Y-66475428D01*
X56660142Y-66548000D01*
X56732714Y-66620571D01*
X56805285Y-66765714D01*
X56805285Y-66910857D01*
X56732714Y-67056000D01*
X56660142Y-67128571D01*
X56515000Y-67201142D01*
X56007000Y-67201142D01*
X58184142Y-67999428D02*
X58184142Y-67201142D01*
X58111571Y-67056000D01*
X57966428Y-66983428D01*
X57676142Y-66983428D01*
X57531000Y-67056000D01*
X58184142Y-67926857D02*
X58039000Y-67999428D01*
X57676142Y-67999428D01*
X57531000Y-67926857D01*
X57458428Y-67781714D01*
X57458428Y-67636571D01*
X57531000Y-67491428D01*
X57676142Y-67418857D01*
X58039000Y-67418857D01*
X58184142Y-67346285D01*
X59563000Y-66983428D02*
X59563000Y-67999428D01*
X58909857Y-66983428D02*
X58909857Y-67781714D01*
X58982428Y-67926857D01*
X59127571Y-67999428D01*
X59345285Y-67999428D01*
X59490428Y-67926857D01*
X59563000Y-67854285D01*
X60941857Y-67999428D02*
X60941857Y-66475428D01*
X60941857Y-67926857D02*
X60796714Y-67999428D01*
X60506428Y-67999428D01*
X60361285Y-67926857D01*
X60288714Y-67854285D01*
X60216142Y-67709142D01*
X60216142Y-67273714D01*
X60288714Y-67128571D01*
X60361285Y-67056000D01*
X60506428Y-66983428D01*
X60796714Y-66983428D01*
X60941857Y-67056000D01*
X63699571Y-67999428D02*
X63191571Y-67273714D01*
X62828714Y-67999428D02*
X62828714Y-66475428D01*
X63409285Y-66475428D01*
X63554428Y-66548000D01*
X63627000Y-66620571D01*
X63699571Y-66765714D01*
X63699571Y-66983428D01*
X63627000Y-67128571D01*
X63554428Y-67201142D01*
X63409285Y-67273714D01*
X62828714Y-67273714D01*
X65005857Y-67999428D02*
X65005857Y-67201142D01*
X64933285Y-67056000D01*
X64788142Y-66983428D01*
X64497857Y-66983428D01*
X64352714Y-67056000D01*
X65005857Y-67926857D02*
X64860714Y-67999428D01*
X64497857Y-67999428D01*
X64352714Y-67926857D01*
X64280142Y-67781714D01*
X64280142Y-67636571D01*
X64352714Y-67491428D01*
X64497857Y-67418857D01*
X64860714Y-67418857D01*
X65005857Y-67346285D01*
X65513857Y-66983428D02*
X66094428Y-66983428D01*
X65731571Y-66475428D02*
X65731571Y-67781714D01*
X65804142Y-67926857D01*
X65949285Y-67999428D01*
X66094428Y-67999428D01*
X67183000Y-67926857D02*
X67037857Y-67999428D01*
X66747571Y-67999428D01*
X66602428Y-67926857D01*
X66529857Y-67781714D01*
X66529857Y-67201142D01*
X66602428Y-67056000D01*
X66747571Y-66983428D01*
X67037857Y-66983428D01*
X67183000Y-67056000D01*
X67255571Y-67201142D01*
X67255571Y-67346285D01*
X66529857Y-67491428D01*
X134130142Y-113465428D02*
X135146142Y-114989428D01*
X135146142Y-113465428D02*
X134130142Y-114989428D01*
X136017000Y-114263714D02*
X136017000Y-114989428D01*
X135509000Y-113465428D02*
X136017000Y-114263714D01*
X136525000Y-113465428D01*
X138484428Y-113465428D02*
X138774714Y-113465428D01*
X138919857Y-113538000D01*
X139065000Y-113683142D01*
X139137571Y-113973428D01*
X139137571Y-114481428D01*
X139065000Y-114771714D01*
X138919857Y-114916857D01*
X138774714Y-114989428D01*
X138484428Y-114989428D01*
X138339285Y-114916857D01*
X138194142Y-114771714D01*
X138121571Y-114481428D01*
X138121571Y-113973428D01*
X138194142Y-113683142D01*
X138339285Y-113538000D01*
X138484428Y-113465428D01*
X140443857Y-113973428D02*
X140443857Y-114989428D01*
X139790714Y-113973428D02*
X139790714Y-114771714D01*
X139863285Y-114916857D01*
X140008428Y-114989428D01*
X140226142Y-114989428D01*
X140371285Y-114916857D01*
X140443857Y-114844285D01*
X140951857Y-113973428D02*
X141532428Y-113973428D01*
X141169571Y-113465428D02*
X141169571Y-114771714D01*
X141242142Y-114916857D01*
X141387285Y-114989428D01*
X141532428Y-114989428D01*
X64080571Y-88065428D02*
X65024000Y-88065428D01*
X64516000Y-88646000D01*
X64733714Y-88646000D01*
X64878857Y-88718571D01*
X64951428Y-88791142D01*
X65024000Y-88936285D01*
X65024000Y-89299142D01*
X64951428Y-89444285D01*
X64878857Y-89516857D01*
X64733714Y-89589428D01*
X64298285Y-89589428D01*
X64153142Y-89516857D01*
X64080571Y-89444285D01*
X65967428Y-88065428D02*
X66112571Y-88065428D01*
X66257714Y-88138000D01*
X66330285Y-88210571D01*
X66402857Y-88355714D01*
X66475428Y-88646000D01*
X66475428Y-89008857D01*
X66402857Y-89299142D01*
X66330285Y-89444285D01*
X66257714Y-89516857D01*
X66112571Y-89589428D01*
X65967428Y-89589428D01*
X65822285Y-89516857D01*
X65749714Y-89444285D01*
X65677142Y-89299142D01*
X65604571Y-89008857D01*
X65604571Y-88646000D01*
X65677142Y-88355714D01*
X65749714Y-88210571D01*
X65822285Y-88138000D01*
X65967428Y-88065428D01*
X67418857Y-88065428D02*
X67564000Y-88065428D01*
X67709142Y-88138000D01*
X67781714Y-88210571D01*
X67854285Y-88355714D01*
X67926857Y-88646000D01*
X67926857Y-89008857D01*
X67854285Y-89299142D01*
X67781714Y-89444285D01*
X67709142Y-89516857D01*
X67564000Y-89589428D01*
X67418857Y-89589428D01*
X67273714Y-89516857D01*
X67201142Y-89444285D01*
X67128571Y-89299142D01*
X67056000Y-89008857D01*
X67056000Y-88646000D01*
X67128571Y-88355714D01*
X67201142Y-88210571D01*
X67273714Y-88138000D01*
X67418857Y-88065428D01*
X32149142Y-122428000D02*
X32004000Y-122355428D01*
X31786285Y-122355428D01*
X31568571Y-122428000D01*
X31423428Y-122573142D01*
X31350857Y-122718285D01*
X31278285Y-123008571D01*
X31278285Y-123226285D01*
X31350857Y-123516571D01*
X31423428Y-123661714D01*
X31568571Y-123806857D01*
X31786285Y-123879428D01*
X31931428Y-123879428D01*
X32149142Y-123806857D01*
X32221714Y-123734285D01*
X32221714Y-123226285D01*
X31931428Y-123226285D01*
X31078714Y-120758857D02*
X32239857Y-120758857D01*
X31659285Y-121339428D02*
X31659285Y-120178285D01*
X33691285Y-119815428D02*
X32965571Y-119815428D01*
X32893000Y-120541142D01*
X32965571Y-120468571D01*
X33110714Y-120396000D01*
X33473571Y-120396000D01*
X33618714Y-120468571D01*
X33691285Y-120541142D01*
X33763857Y-120686285D01*
X33763857Y-121049142D01*
X33691285Y-121194285D01*
X33618714Y-121266857D01*
X33473571Y-121339428D01*
X33110714Y-121339428D01*
X32965571Y-121266857D01*
X32893000Y-121194285D01*
X64207571Y-76889428D02*
X64497857Y-76889428D01*
X64643000Y-76816857D01*
X64715571Y-76744285D01*
X64860714Y-76526571D01*
X64933285Y-76236285D01*
X64933285Y-75655714D01*
X64860714Y-75510571D01*
X64788142Y-75438000D01*
X64643000Y-75365428D01*
X64352714Y-75365428D01*
X64207571Y-75438000D01*
X64135000Y-75510571D01*
X64062428Y-75655714D01*
X64062428Y-76018571D01*
X64135000Y-76163714D01*
X64207571Y-76236285D01*
X64352714Y-76308857D01*
X64643000Y-76308857D01*
X64788142Y-76236285D01*
X64860714Y-76163714D01*
X64933285Y-76018571D01*
X66239571Y-75365428D02*
X65949285Y-75365428D01*
X65804142Y-75438000D01*
X65731571Y-75510571D01*
X65586428Y-75728285D01*
X65513857Y-76018571D01*
X65513857Y-76599142D01*
X65586428Y-76744285D01*
X65659000Y-76816857D01*
X65804142Y-76889428D01*
X66094428Y-76889428D01*
X66239571Y-76816857D01*
X66312142Y-76744285D01*
X66384714Y-76599142D01*
X66384714Y-76236285D01*
X66312142Y-76091142D01*
X66239571Y-76018571D01*
X66094428Y-75946000D01*
X65804142Y-75946000D01*
X65659000Y-76018571D01*
X65586428Y-76091142D01*
X65513857Y-76236285D01*
X67328142Y-75365428D02*
X67473285Y-75365428D01*
X67618428Y-75438000D01*
X67691000Y-75510571D01*
X67763571Y-75655714D01*
X67836142Y-75946000D01*
X67836142Y-76308857D01*
X67763571Y-76599142D01*
X67691000Y-76744285D01*
X67618428Y-76816857D01*
X67473285Y-76889428D01*
X67328142Y-76889428D01*
X67183000Y-76816857D01*
X67110428Y-76744285D01*
X67037857Y-76599142D01*
X66965285Y-76308857D01*
X66965285Y-75946000D01*
X67037857Y-75655714D01*
X67110428Y-75510571D01*
X67183000Y-75438000D01*
X67328142Y-75365428D01*
X68779571Y-75365428D02*
X68924714Y-75365428D01*
X69069857Y-75438000D01*
X69142428Y-75510571D01*
X69215000Y-75655714D01*
X69287571Y-75946000D01*
X69287571Y-76308857D01*
X69215000Y-76599142D01*
X69142428Y-76744285D01*
X69069857Y-76816857D01*
X68924714Y-76889428D01*
X68779571Y-76889428D01*
X68634428Y-76816857D01*
X68561857Y-76744285D01*
X68489285Y-76599142D01*
X68416714Y-76308857D01*
X68416714Y-75946000D01*
X68489285Y-75655714D01*
X68561857Y-75510571D01*
X68634428Y-75438000D01*
X68779571Y-75365428D01*
X135418285Y-129340428D02*
X136434285Y-129340428D01*
X135418285Y-130864428D01*
X136434285Y-130864428D01*
X138466285Y-129340428D02*
X138756571Y-129340428D01*
X138901714Y-129413000D01*
X139046857Y-129558142D01*
X139119428Y-129848428D01*
X139119428Y-130356428D01*
X139046857Y-130646714D01*
X138901714Y-130791857D01*
X138756571Y-130864428D01*
X138466285Y-130864428D01*
X138321142Y-130791857D01*
X138176000Y-130646714D01*
X138103428Y-130356428D01*
X138103428Y-129848428D01*
X138176000Y-129558142D01*
X138321142Y-129413000D01*
X138466285Y-129340428D01*
X140425714Y-129848428D02*
X140425714Y-130864428D01*
X139772571Y-129848428D02*
X139772571Y-130646714D01*
X139845142Y-130791857D01*
X139990285Y-130864428D01*
X140208000Y-130864428D01*
X140353142Y-130791857D01*
X140425714Y-130719285D01*
X140933714Y-129848428D02*
X141514285Y-129848428D01*
X141151428Y-129340428D02*
X141151428Y-130646714D01*
X141224000Y-130791857D01*
X141369142Y-130864428D01*
X141514285Y-130864428D01*
X63735857Y-70285428D02*
X64679285Y-70285428D01*
X64171285Y-70866000D01*
X64389000Y-70866000D01*
X64534142Y-70938571D01*
X64606714Y-71011142D01*
X64679285Y-71156285D01*
X64679285Y-71519142D01*
X64606714Y-71664285D01*
X64534142Y-71736857D01*
X64389000Y-71809428D01*
X63953571Y-71809428D01*
X63808428Y-71736857D01*
X63735857Y-71664285D01*
X65550142Y-70938571D02*
X65405000Y-70866000D01*
X65332428Y-70793428D01*
X65259857Y-70648285D01*
X65259857Y-70575714D01*
X65332428Y-70430571D01*
X65405000Y-70358000D01*
X65550142Y-70285428D01*
X65840428Y-70285428D01*
X65985571Y-70358000D01*
X66058142Y-70430571D01*
X66130714Y-70575714D01*
X66130714Y-70648285D01*
X66058142Y-70793428D01*
X65985571Y-70866000D01*
X65840428Y-70938571D01*
X65550142Y-70938571D01*
X65405000Y-71011142D01*
X65332428Y-71083714D01*
X65259857Y-71228857D01*
X65259857Y-71519142D01*
X65332428Y-71664285D01*
X65405000Y-71736857D01*
X65550142Y-71809428D01*
X65840428Y-71809428D01*
X65985571Y-71736857D01*
X66058142Y-71664285D01*
X66130714Y-71519142D01*
X66130714Y-71228857D01*
X66058142Y-71083714D01*
X65985571Y-71011142D01*
X65840428Y-70938571D01*
X66783857Y-71664285D02*
X66856428Y-71736857D01*
X66783857Y-71809428D01*
X66711285Y-71736857D01*
X66783857Y-71664285D01*
X66783857Y-71809428D01*
X68162714Y-70793428D02*
X68162714Y-71809428D01*
X67799857Y-70212857D02*
X67437000Y-71301428D01*
X68380428Y-71301428D01*
X68961000Y-71809428D02*
X68961000Y-70285428D01*
X69106142Y-71228857D02*
X69541571Y-71809428D01*
X69541571Y-70793428D02*
X68961000Y-71374000D01*
X64933285Y-84509428D02*
X64062428Y-84509428D01*
X64497857Y-84509428D02*
X64497857Y-82985428D01*
X64352714Y-83203142D01*
X64207571Y-83348285D01*
X64062428Y-83420857D01*
X65513857Y-83130571D02*
X65586428Y-83058000D01*
X65731571Y-82985428D01*
X66094428Y-82985428D01*
X66239571Y-83058000D01*
X66312142Y-83130571D01*
X66384714Y-83275714D01*
X66384714Y-83420857D01*
X66312142Y-83638571D01*
X65441285Y-84509428D01*
X66384714Y-84509428D01*
X67328142Y-82985428D02*
X67473285Y-82985428D01*
X67618428Y-83058000D01*
X67691000Y-83130571D01*
X67763571Y-83275714D01*
X67836142Y-83566000D01*
X67836142Y-83928857D01*
X67763571Y-84219142D01*
X67691000Y-84364285D01*
X67618428Y-84436857D01*
X67473285Y-84509428D01*
X67328142Y-84509428D01*
X67183000Y-84436857D01*
X67110428Y-84364285D01*
X67037857Y-84219142D01*
X66965285Y-83928857D01*
X66965285Y-83566000D01*
X67037857Y-83275714D01*
X67110428Y-83130571D01*
X67183000Y-83058000D01*
X67328142Y-82985428D01*
X68779571Y-82985428D02*
X68924714Y-82985428D01*
X69069857Y-83058000D01*
X69142428Y-83130571D01*
X69215000Y-83275714D01*
X69287571Y-83566000D01*
X69287571Y-83928857D01*
X69215000Y-84219142D01*
X69142428Y-84364285D01*
X69069857Y-84436857D01*
X68924714Y-84509428D01*
X68779571Y-84509428D01*
X68634428Y-84436857D01*
X68561857Y-84364285D01*
X68489285Y-84219142D01*
X68416714Y-83928857D01*
X68416714Y-83566000D01*
X68489285Y-83275714D01*
X68561857Y-83130571D01*
X68634428Y-83058000D01*
X68779571Y-82985428D01*
X27069142Y-89426142D02*
X27286857Y-89498714D01*
X27359428Y-89571285D01*
X27432000Y-89716428D01*
X27432000Y-89934142D01*
X27359428Y-90079285D01*
X27286857Y-90151857D01*
X27141714Y-90224428D01*
X26561142Y-90224428D01*
X26561142Y-88700428D01*
X27069142Y-88700428D01*
X27214285Y-88773000D01*
X27286857Y-88845571D01*
X27359428Y-88990714D01*
X27359428Y-89135857D01*
X27286857Y-89281000D01*
X27214285Y-89353571D01*
X27069142Y-89426142D01*
X26561142Y-89426142D01*
X28738285Y-90224428D02*
X28738285Y-89426142D01*
X28665714Y-89281000D01*
X28520571Y-89208428D01*
X28230285Y-89208428D01*
X28085142Y-89281000D01*
X28738285Y-90151857D02*
X28593142Y-90224428D01*
X28230285Y-90224428D01*
X28085142Y-90151857D01*
X28012571Y-90006714D01*
X28012571Y-89861571D01*
X28085142Y-89716428D01*
X28230285Y-89643857D01*
X28593142Y-89643857D01*
X28738285Y-89571285D01*
X29246285Y-89208428D02*
X29826857Y-89208428D01*
X29464000Y-88700428D02*
X29464000Y-90006714D01*
X29536571Y-90151857D01*
X29681714Y-90224428D01*
X29826857Y-90224428D01*
X30117142Y-89208428D02*
X30697714Y-89208428D01*
X30334857Y-88700428D02*
X30334857Y-90006714D01*
X30407428Y-90151857D01*
X30552571Y-90224428D01*
X30697714Y-90224428D01*
X32221714Y-88700428D02*
X33165142Y-88700428D01*
X32657142Y-89281000D01*
X32874857Y-89281000D01*
X33020000Y-89353571D01*
X33092571Y-89426142D01*
X33165142Y-89571285D01*
X33165142Y-89934142D01*
X33092571Y-90079285D01*
X33020000Y-90151857D01*
X32874857Y-90224428D01*
X32439428Y-90224428D01*
X32294285Y-90151857D01*
X32221714Y-90079285D01*
X33600571Y-88700428D02*
X34108571Y-90224428D01*
X34616571Y-88700428D01*
X64788142Y-78413428D02*
X64788142Y-79429428D01*
X64425285Y-77832857D02*
X64062428Y-78921428D01*
X65005857Y-78921428D01*
X65804142Y-78558571D02*
X65659000Y-78486000D01*
X65586428Y-78413428D01*
X65513857Y-78268285D01*
X65513857Y-78195714D01*
X65586428Y-78050571D01*
X65659000Y-77978000D01*
X65804142Y-77905428D01*
X66094428Y-77905428D01*
X66239571Y-77978000D01*
X66312142Y-78050571D01*
X66384714Y-78195714D01*
X66384714Y-78268285D01*
X66312142Y-78413428D01*
X66239571Y-78486000D01*
X66094428Y-78558571D01*
X65804142Y-78558571D01*
X65659000Y-78631142D01*
X65586428Y-78703714D01*
X65513857Y-78848857D01*
X65513857Y-79139142D01*
X65586428Y-79284285D01*
X65659000Y-79356857D01*
X65804142Y-79429428D01*
X66094428Y-79429428D01*
X66239571Y-79356857D01*
X66312142Y-79284285D01*
X66384714Y-79139142D01*
X66384714Y-78848857D01*
X66312142Y-78703714D01*
X66239571Y-78631142D01*
X66094428Y-78558571D01*
X67328142Y-77905428D02*
X67473285Y-77905428D01*
X67618428Y-77978000D01*
X67691000Y-78050571D01*
X67763571Y-78195714D01*
X67836142Y-78486000D01*
X67836142Y-78848857D01*
X67763571Y-79139142D01*
X67691000Y-79284285D01*
X67618428Y-79356857D01*
X67473285Y-79429428D01*
X67328142Y-79429428D01*
X67183000Y-79356857D01*
X67110428Y-79284285D01*
X67037857Y-79139142D01*
X66965285Y-78848857D01*
X66965285Y-78486000D01*
X67037857Y-78195714D01*
X67110428Y-78050571D01*
X67183000Y-77978000D01*
X67328142Y-77905428D01*
X68779571Y-77905428D02*
X68924714Y-77905428D01*
X69069857Y-77978000D01*
X69142428Y-78050571D01*
X69215000Y-78195714D01*
X69287571Y-78486000D01*
X69287571Y-78848857D01*
X69215000Y-79139142D01*
X69142428Y-79284285D01*
X69069857Y-79356857D01*
X68924714Y-79429428D01*
X68779571Y-79429428D01*
X68634428Y-79356857D01*
X68561857Y-79284285D01*
X68489285Y-79139142D01*
X68416714Y-78848857D01*
X68416714Y-78486000D01*
X68489285Y-78195714D01*
X68561857Y-78050571D01*
X68634428Y-77978000D01*
X68779571Y-77905428D01*
X64878857Y-85525428D02*
X64588571Y-85525428D01*
X64443428Y-85598000D01*
X64370857Y-85670571D01*
X64225714Y-85888285D01*
X64153142Y-86178571D01*
X64153142Y-86759142D01*
X64225714Y-86904285D01*
X64298285Y-86976857D01*
X64443428Y-87049428D01*
X64733714Y-87049428D01*
X64878857Y-86976857D01*
X64951428Y-86904285D01*
X65024000Y-86759142D01*
X65024000Y-86396285D01*
X64951428Y-86251142D01*
X64878857Y-86178571D01*
X64733714Y-86106000D01*
X64443428Y-86106000D01*
X64298285Y-86178571D01*
X64225714Y-86251142D01*
X64153142Y-86396285D01*
X65967428Y-85525428D02*
X66112571Y-85525428D01*
X66257714Y-85598000D01*
X66330285Y-85670571D01*
X66402857Y-85815714D01*
X66475428Y-86106000D01*
X66475428Y-86468857D01*
X66402857Y-86759142D01*
X66330285Y-86904285D01*
X66257714Y-86976857D01*
X66112571Y-87049428D01*
X65967428Y-87049428D01*
X65822285Y-86976857D01*
X65749714Y-86904285D01*
X65677142Y-86759142D01*
X65604571Y-86468857D01*
X65604571Y-86106000D01*
X65677142Y-85815714D01*
X65749714Y-85670571D01*
X65822285Y-85598000D01*
X65967428Y-85525428D01*
X67418857Y-85525428D02*
X67564000Y-85525428D01*
X67709142Y-85598000D01*
X67781714Y-85670571D01*
X67854285Y-85815714D01*
X67926857Y-86106000D01*
X67926857Y-86468857D01*
X67854285Y-86759142D01*
X67781714Y-86904285D01*
X67709142Y-86976857D01*
X67564000Y-87049428D01*
X67418857Y-87049428D01*
X67273714Y-86976857D01*
X67201142Y-86904285D01*
X67128571Y-86759142D01*
X67056000Y-86468857D01*
X67056000Y-86106000D01*
X67128571Y-85815714D01*
X67201142Y-85670571D01*
X67273714Y-85598000D01*
X67418857Y-85525428D01*
X35628217Y-115180654D02*
X35700788Y-114962940D01*
X35700788Y-114600082D01*
X35628217Y-114454940D01*
X35555645Y-114382368D01*
X35410502Y-114309797D01*
X35265360Y-114309797D01*
X35120217Y-114382368D01*
X35047645Y-114454940D01*
X34975074Y-114600082D01*
X34902502Y-114890368D01*
X34829931Y-115035511D01*
X34757360Y-115108082D01*
X34612217Y-115180654D01*
X34467074Y-115180654D01*
X34321931Y-115108082D01*
X34249360Y-115035511D01*
X34176788Y-114890368D01*
X34176788Y-114527511D01*
X34249360Y-114309797D01*
X35628217Y-113003511D02*
X35700788Y-113148654D01*
X35700788Y-113438940D01*
X35628217Y-113584082D01*
X35555645Y-113656654D01*
X35410502Y-113729225D01*
X34975074Y-113729225D01*
X34829931Y-113656654D01*
X34757360Y-113584082D01*
X34684788Y-113438940D01*
X34684788Y-113148654D01*
X34757360Y-113003511D01*
X35700788Y-112132654D02*
X35628217Y-112277797D01*
X35555645Y-112350368D01*
X35410502Y-112422940D01*
X34975074Y-112422940D01*
X34829931Y-112350368D01*
X34757360Y-112277797D01*
X34684788Y-112132654D01*
X34684788Y-111914940D01*
X34757360Y-111769797D01*
X34829931Y-111697225D01*
X34975074Y-111624654D01*
X35410502Y-111624654D01*
X35555645Y-111697225D01*
X35628217Y-111769797D01*
X35700788Y-111914940D01*
X35700788Y-112132654D01*
X34684788Y-110971511D02*
X36208788Y-110971511D01*
X34757360Y-110971511D02*
X34684788Y-110826368D01*
X34684788Y-110536082D01*
X34757360Y-110390940D01*
X34829931Y-110318368D01*
X34975074Y-110245797D01*
X35410502Y-110245797D01*
X35555645Y-110318368D01*
X35628217Y-110390940D01*
X35700788Y-110536082D01*
X35700788Y-110826368D01*
X35628217Y-110971511D01*
X35628217Y-109012082D02*
X35700788Y-109157225D01*
X35700788Y-109447511D01*
X35628217Y-109592654D01*
X35483074Y-109665225D01*
X34902502Y-109665225D01*
X34757360Y-109592654D01*
X34684788Y-109447511D01*
X34684788Y-109157225D01*
X34757360Y-109012082D01*
X34902502Y-108939511D01*
X35047645Y-108939511D01*
X35192788Y-109665225D01*
X35555645Y-106254368D02*
X35628217Y-106326940D01*
X35700788Y-106544654D01*
X35700788Y-106689797D01*
X35628217Y-106907511D01*
X35483074Y-107052654D01*
X35337931Y-107125225D01*
X35047645Y-107197797D01*
X34829931Y-107197797D01*
X34539645Y-107125225D01*
X34394502Y-107052654D01*
X34249360Y-106907511D01*
X34176788Y-106689797D01*
X34176788Y-106544654D01*
X34249360Y-106326940D01*
X34321931Y-106254368D01*
X35700788Y-105383511D02*
X35628217Y-105528654D01*
X35483074Y-105601225D01*
X34176788Y-105601225D01*
X35700788Y-104585225D02*
X35628217Y-104730368D01*
X35555645Y-104802940D01*
X35410502Y-104875511D01*
X34975074Y-104875511D01*
X34829931Y-104802940D01*
X34757360Y-104730368D01*
X34684788Y-104585225D01*
X34684788Y-104367511D01*
X34757360Y-104222368D01*
X34829931Y-104149797D01*
X34975074Y-104077225D01*
X35410502Y-104077225D01*
X35555645Y-104149797D01*
X35628217Y-104222368D01*
X35700788Y-104367511D01*
X35700788Y-104585225D01*
X35628217Y-102770940D02*
X35700788Y-102916082D01*
X35700788Y-103206368D01*
X35628217Y-103351511D01*
X35555645Y-103424082D01*
X35410502Y-103496654D01*
X34975074Y-103496654D01*
X34829931Y-103424082D01*
X34757360Y-103351511D01*
X34684788Y-103206368D01*
X34684788Y-102916082D01*
X34757360Y-102770940D01*
X35700788Y-102117797D02*
X34176788Y-102117797D01*
X35120217Y-101972654D02*
X35700788Y-101537225D01*
X34684788Y-101537225D02*
X35265360Y-102117797D01*
X35700788Y-99722940D02*
X34176788Y-99722940D01*
X34176788Y-99360082D01*
X34249360Y-99142368D01*
X34394502Y-98997225D01*
X34539645Y-98924654D01*
X34829931Y-98852082D01*
X35047645Y-98852082D01*
X35337931Y-98924654D01*
X35483074Y-98997225D01*
X35628217Y-99142368D01*
X35700788Y-99360082D01*
X35700788Y-99722940D01*
X35700788Y-98198940D02*
X34684788Y-98198940D01*
X34176788Y-98198940D02*
X34249360Y-98271511D01*
X34321931Y-98198940D01*
X34249360Y-98126368D01*
X34176788Y-98198940D01*
X34321931Y-98198940D01*
X35628217Y-97545797D02*
X35700788Y-97400654D01*
X35700788Y-97110368D01*
X35628217Y-96965225D01*
X35483074Y-96892654D01*
X35410502Y-96892654D01*
X35265360Y-96965225D01*
X35192788Y-97110368D01*
X35192788Y-97328082D01*
X35120217Y-97473225D01*
X34975074Y-97545797D01*
X34902502Y-97545797D01*
X34757360Y-97473225D01*
X34684788Y-97328082D01*
X34684788Y-97110368D01*
X34757360Y-96965225D01*
X34684788Y-96239511D02*
X36208788Y-96239511D01*
X34757360Y-96239511D02*
X34684788Y-96094368D01*
X34684788Y-95804082D01*
X34757360Y-95658940D01*
X34829931Y-95586368D01*
X34975074Y-95513797D01*
X35410502Y-95513797D01*
X35555645Y-95586368D01*
X35628217Y-95658940D01*
X35700788Y-95804082D01*
X35700788Y-96094368D01*
X35628217Y-96239511D01*
X35700788Y-94642940D02*
X35628217Y-94788082D01*
X35483074Y-94860654D01*
X34176788Y-94860654D01*
X35700788Y-93409225D02*
X34902502Y-93409225D01*
X34757360Y-93481797D01*
X34684788Y-93626940D01*
X34684788Y-93917225D01*
X34757360Y-94062368D01*
X35628217Y-93409225D02*
X35700788Y-93554368D01*
X35700788Y-93917225D01*
X35628217Y-94062368D01*
X35483074Y-94134940D01*
X35337931Y-94134940D01*
X35192788Y-94062368D01*
X35120217Y-93917225D01*
X35120217Y-93554368D01*
X35047645Y-93409225D01*
X34684788Y-92828654D02*
X35700788Y-92465797D01*
X34684788Y-92102940D02*
X35700788Y-92465797D01*
X36063645Y-92610940D01*
X36136217Y-92683511D01*
X36208788Y-92828654D01*
X38154428Y-114237225D02*
X37428714Y-114745225D01*
X38154428Y-115108082D02*
X36630428Y-115108082D01*
X36630428Y-114527511D01*
X36703000Y-114382368D01*
X36775571Y-114309797D01*
X36920714Y-114237225D01*
X37138428Y-114237225D01*
X37283571Y-114309797D01*
X37356142Y-114382368D01*
X37428714Y-114527511D01*
X37428714Y-115108082D01*
X38081857Y-113003511D02*
X38154428Y-113148654D01*
X38154428Y-113438940D01*
X38081857Y-113584082D01*
X37936714Y-113656654D01*
X37356142Y-113656654D01*
X37211000Y-113584082D01*
X37138428Y-113438940D01*
X37138428Y-113148654D01*
X37211000Y-113003511D01*
X37356142Y-112930940D01*
X37501285Y-112930940D01*
X37646428Y-113656654D01*
X37138428Y-112422940D02*
X38154428Y-112060082D01*
X37138428Y-111697225D01*
X38154428Y-109157225D02*
X38154428Y-110028082D01*
X38154428Y-109592654D02*
X36630428Y-109592654D01*
X36848142Y-109737797D01*
X36993285Y-109882940D01*
X37065857Y-110028082D01*
X37573857Y-107342940D02*
X37573857Y-106181797D01*
X36630428Y-103859511D02*
X37719000Y-103859511D01*
X37936714Y-103932082D01*
X38081857Y-104077225D01*
X38154428Y-104294940D01*
X38154428Y-104440082D01*
X38154428Y-102480654D02*
X37356142Y-102480654D01*
X37211000Y-102553225D01*
X37138428Y-102698368D01*
X37138428Y-102988654D01*
X37211000Y-103133797D01*
X38081857Y-102480654D02*
X38154428Y-102625797D01*
X38154428Y-102988654D01*
X38081857Y-103133797D01*
X37936714Y-103206368D01*
X37791571Y-103206368D01*
X37646428Y-103133797D01*
X37573857Y-102988654D01*
X37573857Y-102625797D01*
X37501285Y-102480654D01*
X37138428Y-101754940D02*
X38154428Y-101754940D01*
X37283571Y-101754940D02*
X37211000Y-101682368D01*
X37138428Y-101537225D01*
X37138428Y-101319511D01*
X37211000Y-101174368D01*
X37356142Y-101101797D01*
X38154428Y-101101797D01*
X36775571Y-99287511D02*
X36703000Y-99214940D01*
X36630428Y-99069797D01*
X36630428Y-98706940D01*
X36703000Y-98561797D01*
X36775571Y-98489225D01*
X36920714Y-98416654D01*
X37065857Y-98416654D01*
X37283571Y-98489225D01*
X38154428Y-99360082D01*
X38154428Y-98416654D01*
X36630428Y-97473225D02*
X36630428Y-97328082D01*
X36703000Y-97182940D01*
X36775571Y-97110368D01*
X36920714Y-97037797D01*
X37211000Y-96965225D01*
X37573857Y-96965225D01*
X37864142Y-97037797D01*
X38009285Y-97110368D01*
X38081857Y-97182940D01*
X38154428Y-97328082D01*
X38154428Y-97473225D01*
X38081857Y-97618368D01*
X38009285Y-97690940D01*
X37864142Y-97763511D01*
X37573857Y-97836082D01*
X37211000Y-97836082D01*
X36920714Y-97763511D01*
X36775571Y-97690940D01*
X36703000Y-97618368D01*
X36630428Y-97473225D01*
X36775571Y-96384654D02*
X36703000Y-96312082D01*
X36630428Y-96166940D01*
X36630428Y-95804082D01*
X36703000Y-95658940D01*
X36775571Y-95586368D01*
X36920714Y-95513797D01*
X37065857Y-95513797D01*
X37283571Y-95586368D01*
X38154428Y-96457225D01*
X38154428Y-95513797D01*
X36630428Y-95005797D02*
X36630428Y-94062368D01*
X37211000Y-94570368D01*
X37211000Y-94352654D01*
X37283571Y-94207511D01*
X37356142Y-94134940D01*
X37501285Y-94062368D01*
X37864142Y-94062368D01*
X38009285Y-94134940D01*
X38081857Y-94207511D01*
X38154428Y-94352654D01*
X38154428Y-94788082D01*
X38081857Y-94933225D01*
X38009285Y-95005797D01*
X39084068Y-115108082D02*
X40317782Y-115108082D01*
X40462925Y-115035511D01*
X40535497Y-114962940D01*
X40608068Y-114817797D01*
X40608068Y-114527511D01*
X40535497Y-114382368D01*
X40462925Y-114309797D01*
X40317782Y-114237225D01*
X39084068Y-114237225D01*
X40608068Y-113511511D02*
X39084068Y-113511511D01*
X39084068Y-112930940D01*
X39156640Y-112785797D01*
X39229211Y-112713225D01*
X39374354Y-112640654D01*
X39592068Y-112640654D01*
X39737211Y-112713225D01*
X39809782Y-112785797D01*
X39882354Y-112930940D01*
X39882354Y-113511511D01*
X40462925Y-111116654D02*
X40535497Y-111189225D01*
X40608068Y-111406940D01*
X40608068Y-111552082D01*
X40535497Y-111769797D01*
X40390354Y-111914940D01*
X40245211Y-111987511D01*
X39954925Y-112060082D01*
X39737211Y-112060082D01*
X39446925Y-111987511D01*
X39301782Y-111914940D01*
X39156640Y-111769797D01*
X39084068Y-111552082D01*
X39084068Y-111406940D01*
X39156640Y-111189225D01*
X39229211Y-111116654D01*
X39084068Y-110173225D02*
X39084068Y-109882940D01*
X39156640Y-109737797D01*
X39301782Y-109592654D01*
X39592068Y-109520082D01*
X40100068Y-109520082D01*
X40390354Y-109592654D01*
X40535497Y-109737797D01*
X40608068Y-109882940D01*
X40608068Y-110173225D01*
X40535497Y-110318368D01*
X40390354Y-110463511D01*
X40100068Y-110536082D01*
X39592068Y-110536082D01*
X39301782Y-110463511D01*
X39156640Y-110318368D01*
X39084068Y-110173225D01*
X39156640Y-106907511D02*
X39084068Y-107052654D01*
X39084068Y-107270368D01*
X39156640Y-107488082D01*
X39301782Y-107633225D01*
X39446925Y-107705797D01*
X39737211Y-107778368D01*
X39954925Y-107778368D01*
X40245211Y-107705797D01*
X40390354Y-107633225D01*
X40535497Y-107488082D01*
X40608068Y-107270368D01*
X40608068Y-107125225D01*
X40535497Y-106907511D01*
X40462925Y-106834940D01*
X39954925Y-106834940D01*
X39954925Y-107125225D01*
X40608068Y-106181797D02*
X39592068Y-106181797D01*
X39882354Y-106181797D02*
X39737211Y-106109225D01*
X39664640Y-106036654D01*
X39592068Y-105891511D01*
X39592068Y-105746368D01*
X40608068Y-104585225D02*
X39809782Y-104585225D01*
X39664640Y-104657797D01*
X39592068Y-104802940D01*
X39592068Y-105093225D01*
X39664640Y-105238368D01*
X40535497Y-104585225D02*
X40608068Y-104730368D01*
X40608068Y-105093225D01*
X40535497Y-105238368D01*
X40390354Y-105310940D01*
X40245211Y-105310940D01*
X40100068Y-105238368D01*
X40027497Y-105093225D01*
X40027497Y-104730368D01*
X39954925Y-104585225D01*
X39592068Y-103859511D02*
X41116068Y-103859511D01*
X39664640Y-103859511D02*
X39592068Y-103714368D01*
X39592068Y-103424082D01*
X39664640Y-103278940D01*
X39737211Y-103206368D01*
X39882354Y-103133797D01*
X40317782Y-103133797D01*
X40462925Y-103206368D01*
X40535497Y-103278940D01*
X40608068Y-103424082D01*
X40608068Y-103714368D01*
X40535497Y-103859511D01*
X40608068Y-102480654D02*
X39084068Y-102480654D01*
X40608068Y-101827511D02*
X39809782Y-101827511D01*
X39664640Y-101900082D01*
X39592068Y-102045225D01*
X39592068Y-102262940D01*
X39664640Y-102408082D01*
X39737211Y-102480654D01*
X40608068Y-101101797D02*
X39592068Y-101101797D01*
X39084068Y-101101797D02*
X39156640Y-101174368D01*
X39229211Y-101101797D01*
X39156640Y-101029225D01*
X39084068Y-101101797D01*
X39229211Y-101101797D01*
X40535497Y-99722940D02*
X40608068Y-99868082D01*
X40608068Y-100158368D01*
X40535497Y-100303511D01*
X40462925Y-100376082D01*
X40317782Y-100448654D01*
X39882354Y-100448654D01*
X39737211Y-100376082D01*
X39664640Y-100303511D01*
X39592068Y-100158368D01*
X39592068Y-99868082D01*
X39664640Y-99722940D01*
X40535497Y-99142368D02*
X40608068Y-98997225D01*
X40608068Y-98706940D01*
X40535497Y-98561797D01*
X40390354Y-98489225D01*
X40317782Y-98489225D01*
X40172640Y-98561797D01*
X40100068Y-98706940D01*
X40100068Y-98924654D01*
X40027497Y-99069797D01*
X39882354Y-99142368D01*
X39809782Y-99142368D01*
X39664640Y-99069797D01*
X39592068Y-98924654D01*
X39592068Y-98706940D01*
X39664640Y-98561797D01*
X40535497Y-96747511D02*
X40608068Y-96529797D01*
X40608068Y-96166940D01*
X40535497Y-96021797D01*
X40462925Y-95949225D01*
X40317782Y-95876654D01*
X40172640Y-95876654D01*
X40027497Y-95949225D01*
X39954925Y-96021797D01*
X39882354Y-96166940D01*
X39809782Y-96457225D01*
X39737211Y-96602368D01*
X39664640Y-96674940D01*
X39519497Y-96747511D01*
X39374354Y-96747511D01*
X39229211Y-96674940D01*
X39156640Y-96602368D01*
X39084068Y-96457225D01*
X39084068Y-96094368D01*
X39156640Y-95876654D01*
X39592068Y-95368654D02*
X40608068Y-95005797D01*
X39592068Y-94642940D02*
X40608068Y-95005797D01*
X40970925Y-95150940D01*
X41043497Y-95223511D01*
X41116068Y-95368654D01*
X40535497Y-94134940D02*
X40608068Y-93989797D01*
X40608068Y-93699511D01*
X40535497Y-93554368D01*
X40390354Y-93481797D01*
X40317782Y-93481797D01*
X40172640Y-93554368D01*
X40100068Y-93699511D01*
X40100068Y-93917225D01*
X40027497Y-94062368D01*
X39882354Y-94134940D01*
X39809782Y-94134940D01*
X39664640Y-94062368D01*
X39592068Y-93917225D01*
X39592068Y-93699511D01*
X39664640Y-93554368D01*
X39592068Y-93046368D02*
X39592068Y-92465797D01*
X39084068Y-92828654D02*
X40390354Y-92828654D01*
X40535497Y-92756082D01*
X40608068Y-92610940D01*
X40608068Y-92465797D01*
X40535497Y-91377225D02*
X40608068Y-91522368D01*
X40608068Y-91812654D01*
X40535497Y-91957797D01*
X40390354Y-92030368D01*
X39809782Y-92030368D01*
X39664640Y-91957797D01*
X39592068Y-91812654D01*
X39592068Y-91522368D01*
X39664640Y-91377225D01*
X39809782Y-91304654D01*
X39954925Y-91304654D01*
X40100068Y-92030368D01*
X40608068Y-90651511D02*
X39592068Y-90651511D01*
X39737211Y-90651511D02*
X39664640Y-90578940D01*
X39592068Y-90433797D01*
X39592068Y-90216082D01*
X39664640Y-90070940D01*
X39809782Y-89998368D01*
X40608068Y-89998368D01*
X39809782Y-89998368D02*
X39664640Y-89925797D01*
X39592068Y-89780654D01*
X39592068Y-89562940D01*
X39664640Y-89417797D01*
X39809782Y-89345225D01*
X40608068Y-89345225D01*
X40535497Y-88692082D02*
X40608068Y-88546940D01*
X40608068Y-88256654D01*
X40535497Y-88111511D01*
X40390354Y-88038940D01*
X40317782Y-88038940D01*
X40172640Y-88111511D01*
X40100068Y-88256654D01*
X40100068Y-88474368D01*
X40027497Y-88619511D01*
X39882354Y-88692082D01*
X39809782Y-88692082D01*
X39664640Y-88619511D01*
X39592068Y-88474368D01*
X39592068Y-88256654D01*
X39664640Y-88111511D01*
X31169428Y-94723857D02*
X32330571Y-94723857D01*
X31750000Y-95304428D02*
X31750000Y-94143285D01*
X31169428Y-92183857D02*
X32330571Y-92183857D01*
X32149142Y-127508000D02*
X32004000Y-127435428D01*
X31786285Y-127435428D01*
X31568571Y-127508000D01*
X31423428Y-127653142D01*
X31350857Y-127798285D01*
X31278285Y-128088571D01*
X31278285Y-128306285D01*
X31350857Y-128596571D01*
X31423428Y-128741714D01*
X31568571Y-128886857D01*
X31786285Y-128959428D01*
X31931428Y-128959428D01*
X32149142Y-128886857D01*
X32221714Y-128814285D01*
X32221714Y-128306285D01*
X31931428Y-128306285D01*
X31078714Y-125838857D02*
X32239857Y-125838857D01*
X33691285Y-124895428D02*
X32965571Y-124895428D01*
X32893000Y-125621142D01*
X32965571Y-125548571D01*
X33110714Y-125476000D01*
X33473571Y-125476000D01*
X33618714Y-125548571D01*
X33691285Y-125621142D01*
X33763857Y-125766285D01*
X33763857Y-126129142D01*
X33691285Y-126274285D01*
X33618714Y-126346857D01*
X33473571Y-126419428D01*
X33110714Y-126419428D01*
X32965571Y-126346857D01*
X32893000Y-126274285D01*
D10*
%TO.C,U6*%
X52178857Y-98125428D02*
X52178857Y-99359142D01*
X52251428Y-99504285D01*
X52324000Y-99576857D01*
X52469142Y-99649428D01*
X52759428Y-99649428D01*
X52904571Y-99576857D01*
X52977142Y-99504285D01*
X53049714Y-99359142D01*
X53049714Y-98125428D01*
X54428571Y-98125428D02*
X54138285Y-98125428D01*
X53993142Y-98198000D01*
X53920571Y-98270571D01*
X53775428Y-98488285D01*
X53702857Y-98778571D01*
X53702857Y-99359142D01*
X53775428Y-99504285D01*
X53848000Y-99576857D01*
X53993142Y-99649428D01*
X54283428Y-99649428D01*
X54428571Y-99576857D01*
X54501142Y-99504285D01*
X54573714Y-99359142D01*
X54573714Y-98996285D01*
X54501142Y-98851142D01*
X54428571Y-98778571D01*
X54283428Y-98706000D01*
X53993142Y-98706000D01*
X53848000Y-98778571D01*
X53775428Y-98851142D01*
X53702857Y-98996285D01*
%TO.C,D1*%
X119525142Y-155209428D02*
X119525142Y-153685428D01*
X119888000Y-153685428D01*
X120105714Y-153758000D01*
X120250857Y-153903142D01*
X120323428Y-154048285D01*
X120396000Y-154338571D01*
X120396000Y-154556285D01*
X120323428Y-154846571D01*
X120250857Y-154991714D01*
X120105714Y-155136857D01*
X119888000Y-155209428D01*
X119525142Y-155209428D01*
X121847428Y-155209428D02*
X120976571Y-155209428D01*
X121412000Y-155209428D02*
X121412000Y-153685428D01*
X121266857Y-153903142D01*
X121121714Y-154048285D01*
X120976571Y-154120857D01*
%TO.C,U5*%
X104248857Y-66685428D02*
X104248857Y-67919142D01*
X104321428Y-68064285D01*
X104394000Y-68136857D01*
X104539142Y-68209428D01*
X104829428Y-68209428D01*
X104974571Y-68136857D01*
X105047142Y-68064285D01*
X105119714Y-67919142D01*
X105119714Y-66685428D01*
X106571142Y-66685428D02*
X105845428Y-66685428D01*
X105772857Y-67411142D01*
X105845428Y-67338571D01*
X105990571Y-67266000D01*
X106353428Y-67266000D01*
X106498571Y-67338571D01*
X106571142Y-67411142D01*
X106643714Y-67556285D01*
X106643714Y-67919142D01*
X106571142Y-68064285D01*
X106498571Y-68136857D01*
X106353428Y-68209428D01*
X105990571Y-68209428D01*
X105845428Y-68136857D01*
X105772857Y-68064285D01*
%TO.C,D3*%
X105555142Y-155209428D02*
X105555142Y-153685428D01*
X105918000Y-153685428D01*
X106135714Y-153758000D01*
X106280857Y-153903142D01*
X106353428Y-154048285D01*
X106426000Y-154338571D01*
X106426000Y-154556285D01*
X106353428Y-154846571D01*
X106280857Y-154991714D01*
X106135714Y-155136857D01*
X105918000Y-155209428D01*
X105555142Y-155209428D01*
X106934000Y-153685428D02*
X107877428Y-153685428D01*
X107369428Y-154266000D01*
X107587142Y-154266000D01*
X107732285Y-154338571D01*
X107804857Y-154411142D01*
X107877428Y-154556285D01*
X107877428Y-154919142D01*
X107804857Y-155064285D01*
X107732285Y-155136857D01*
X107587142Y-155209428D01*
X107151714Y-155209428D01*
X107006571Y-155136857D01*
X106934000Y-155064285D01*
%TO.C,R4*%
X136749428Y-152654000D02*
X136023714Y-153162000D01*
X136749428Y-153524857D02*
X135225428Y-153524857D01*
X135225428Y-152944285D01*
X135298000Y-152799142D01*
X135370571Y-152726571D01*
X135515714Y-152654000D01*
X135733428Y-152654000D01*
X135878571Y-152726571D01*
X135951142Y-152799142D01*
X136023714Y-152944285D01*
X136023714Y-153524857D01*
X135733428Y-151347714D02*
X136749428Y-151347714D01*
X135152857Y-151710571D02*
X136241428Y-152073428D01*
X136241428Y-151130000D01*
%TO.C,J4*%
X56007000Y-69650428D02*
X56007000Y-70739000D01*
X55934428Y-70956714D01*
X55789285Y-71101857D01*
X55571571Y-71174428D01*
X55426428Y-71174428D01*
X57385857Y-70158428D02*
X57385857Y-71174428D01*
X57023000Y-69577857D02*
X56660142Y-70666428D01*
X57603571Y-70666428D01*
%TO.C,R5*%
X130399428Y-103124000D02*
X129673714Y-103632000D01*
X130399428Y-103994857D02*
X128875428Y-103994857D01*
X128875428Y-103414285D01*
X128948000Y-103269142D01*
X129020571Y-103196571D01*
X129165714Y-103124000D01*
X129383428Y-103124000D01*
X129528571Y-103196571D01*
X129601142Y-103269142D01*
X129673714Y-103414285D01*
X129673714Y-103994857D01*
X128875428Y-101745142D02*
X128875428Y-102470857D01*
X129601142Y-102543428D01*
X129528571Y-102470857D01*
X129456000Y-102325714D01*
X129456000Y-101962857D01*
X129528571Y-101817714D01*
X129601142Y-101745142D01*
X129746285Y-101672571D01*
X130109142Y-101672571D01*
X130254285Y-101745142D01*
X130326857Y-101817714D01*
X130399428Y-101962857D01*
X130399428Y-102325714D01*
X130326857Y-102470857D01*
X130254285Y-102543428D01*
%TO.C,R3*%
X108469428Y-146304000D02*
X107743714Y-146812000D01*
X108469428Y-147174857D02*
X106945428Y-147174857D01*
X106945428Y-146594285D01*
X107018000Y-146449142D01*
X107090571Y-146376571D01*
X107235714Y-146304000D01*
X107453428Y-146304000D01*
X107598571Y-146376571D01*
X107671142Y-146449142D01*
X107743714Y-146594285D01*
X107743714Y-147174857D01*
X106945428Y-145796000D02*
X106945428Y-144852571D01*
X107526000Y-145360571D01*
X107526000Y-145142857D01*
X107598571Y-144997714D01*
X107671142Y-144925142D01*
X107816285Y-144852571D01*
X108179142Y-144852571D01*
X108324285Y-144925142D01*
X108396857Y-144997714D01*
X108469428Y-145142857D01*
X108469428Y-145578285D01*
X108396857Y-145723428D01*
X108324285Y-145796000D01*
%TO.C,R7*%
X131191000Y-164984428D02*
X130683000Y-164258714D01*
X130320142Y-164984428D02*
X130320142Y-163460428D01*
X130900714Y-163460428D01*
X131045857Y-163533000D01*
X131118428Y-163605571D01*
X131191000Y-163750714D01*
X131191000Y-163968428D01*
X131118428Y-164113571D01*
X131045857Y-164186142D01*
X130900714Y-164258714D01*
X130320142Y-164258714D01*
X131699000Y-163460428D02*
X132715000Y-163460428D01*
X132061857Y-164984428D01*
%TO.C,C6*%
X103886000Y-94524285D02*
X103813428Y-94596857D01*
X103595714Y-94669428D01*
X103450571Y-94669428D01*
X103232857Y-94596857D01*
X103087714Y-94451714D01*
X103015142Y-94306571D01*
X102942571Y-94016285D01*
X102942571Y-93798571D01*
X103015142Y-93508285D01*
X103087714Y-93363142D01*
X103232857Y-93218000D01*
X103450571Y-93145428D01*
X103595714Y-93145428D01*
X103813428Y-93218000D01*
X103886000Y-93290571D01*
X105192285Y-93145428D02*
X104902000Y-93145428D01*
X104756857Y-93218000D01*
X104684285Y-93290571D01*
X104539142Y-93508285D01*
X104466571Y-93798571D01*
X104466571Y-94379142D01*
X104539142Y-94524285D01*
X104611714Y-94596857D01*
X104756857Y-94669428D01*
X105047142Y-94669428D01*
X105192285Y-94596857D01*
X105264857Y-94524285D01*
X105337428Y-94379142D01*
X105337428Y-94016285D01*
X105264857Y-93871142D01*
X105192285Y-93798571D01*
X105047142Y-93726000D01*
X104756857Y-93726000D01*
X104611714Y-93798571D01*
X104539142Y-93871142D01*
X104466571Y-94016285D01*
%TO.C,C8*%
X111274285Y-112014000D02*
X111346857Y-112086571D01*
X111419428Y-112304285D01*
X111419428Y-112449428D01*
X111346857Y-112667142D01*
X111201714Y-112812285D01*
X111056571Y-112884857D01*
X110766285Y-112957428D01*
X110548571Y-112957428D01*
X110258285Y-112884857D01*
X110113142Y-112812285D01*
X109968000Y-112667142D01*
X109895428Y-112449428D01*
X109895428Y-112304285D01*
X109968000Y-112086571D01*
X110040571Y-112014000D01*
X110548571Y-111143142D02*
X110476000Y-111288285D01*
X110403428Y-111360857D01*
X110258285Y-111433428D01*
X110185714Y-111433428D01*
X110040571Y-111360857D01*
X109968000Y-111288285D01*
X109895428Y-111143142D01*
X109895428Y-110852857D01*
X109968000Y-110707714D01*
X110040571Y-110635142D01*
X110185714Y-110562571D01*
X110258285Y-110562571D01*
X110403428Y-110635142D01*
X110476000Y-110707714D01*
X110548571Y-110852857D01*
X110548571Y-111143142D01*
X110621142Y-111288285D01*
X110693714Y-111360857D01*
X110838857Y-111433428D01*
X111129142Y-111433428D01*
X111274285Y-111360857D01*
X111346857Y-111288285D01*
X111419428Y-111143142D01*
X111419428Y-110852857D01*
X111346857Y-110707714D01*
X111274285Y-110635142D01*
X111129142Y-110562571D01*
X110838857Y-110562571D01*
X110693714Y-110635142D01*
X110621142Y-110707714D01*
X110548571Y-110852857D01*
%TO.C,SW1*%
X104648000Y-163386857D02*
X104865714Y-163459428D01*
X105228571Y-163459428D01*
X105373714Y-163386857D01*
X105446285Y-163314285D01*
X105518857Y-163169142D01*
X105518857Y-163024000D01*
X105446285Y-162878857D01*
X105373714Y-162806285D01*
X105228571Y-162733714D01*
X104938285Y-162661142D01*
X104793142Y-162588571D01*
X104720571Y-162516000D01*
X104648000Y-162370857D01*
X104648000Y-162225714D01*
X104720571Y-162080571D01*
X104793142Y-162008000D01*
X104938285Y-161935428D01*
X105301142Y-161935428D01*
X105518857Y-162008000D01*
X106026857Y-161935428D02*
X106389714Y-163459428D01*
X106680000Y-162370857D01*
X106970285Y-163459428D01*
X107333142Y-161935428D01*
X108712000Y-163459428D02*
X107841142Y-163459428D01*
X108276571Y-163459428D02*
X108276571Y-161935428D01*
X108131428Y-162153142D01*
X107986285Y-162298285D01*
X107841142Y-162370857D01*
%TO.C,C3*%
X89936000Y-62774285D02*
X89863428Y-62846857D01*
X89645714Y-62919428D01*
X89500571Y-62919428D01*
X89282857Y-62846857D01*
X89137714Y-62701714D01*
X89065142Y-62556571D01*
X88992571Y-62266285D01*
X88992571Y-62048571D01*
X89065142Y-61758285D01*
X89137714Y-61613142D01*
X89282857Y-61468000D01*
X89500571Y-61395428D01*
X89645714Y-61395428D01*
X89863428Y-61468000D01*
X89936000Y-61540571D01*
X90444000Y-61395428D02*
X91387428Y-61395428D01*
X90879428Y-61976000D01*
X91097142Y-61976000D01*
X91242285Y-62048571D01*
X91314857Y-62121142D01*
X91387428Y-62266285D01*
X91387428Y-62629142D01*
X91314857Y-62774285D01*
X91242285Y-62846857D01*
X91097142Y-62919428D01*
X90661714Y-62919428D01*
X90516571Y-62846857D01*
X90444000Y-62774285D01*
%TO.C,U8*%
X117583857Y-96855428D02*
X117583857Y-98089142D01*
X117656428Y-98234285D01*
X117729000Y-98306857D01*
X117874142Y-98379428D01*
X118164428Y-98379428D01*
X118309571Y-98306857D01*
X118382142Y-98234285D01*
X118454714Y-98089142D01*
X118454714Y-96855428D01*
X119398142Y-97508571D02*
X119253000Y-97436000D01*
X119180428Y-97363428D01*
X119107857Y-97218285D01*
X119107857Y-97145714D01*
X119180428Y-97000571D01*
X119253000Y-96928000D01*
X119398142Y-96855428D01*
X119688428Y-96855428D01*
X119833571Y-96928000D01*
X119906142Y-97000571D01*
X119978714Y-97145714D01*
X119978714Y-97218285D01*
X119906142Y-97363428D01*
X119833571Y-97436000D01*
X119688428Y-97508571D01*
X119398142Y-97508571D01*
X119253000Y-97581142D01*
X119180428Y-97653714D01*
X119107857Y-97798857D01*
X119107857Y-98089142D01*
X119180428Y-98234285D01*
X119253000Y-98306857D01*
X119398142Y-98379428D01*
X119688428Y-98379428D01*
X119833571Y-98306857D01*
X119906142Y-98234285D01*
X119978714Y-98089142D01*
X119978714Y-97798857D01*
X119906142Y-97653714D01*
X119833571Y-97581142D01*
X119688428Y-97508571D01*
%TO.C,C4*%
X97516000Y-143024285D02*
X97443428Y-143096857D01*
X97225714Y-143169428D01*
X97080571Y-143169428D01*
X96862857Y-143096857D01*
X96717714Y-142951714D01*
X96645142Y-142806571D01*
X96572571Y-142516285D01*
X96572571Y-142298571D01*
X96645142Y-142008285D01*
X96717714Y-141863142D01*
X96862857Y-141718000D01*
X97080571Y-141645428D01*
X97225714Y-141645428D01*
X97443428Y-141718000D01*
X97516000Y-141790571D01*
X98822285Y-142153428D02*
X98822285Y-143169428D01*
X98459428Y-141572857D02*
X98096571Y-142661428D01*
X99040000Y-142661428D01*
%TO.C,C11*%
X129449285Y-138119714D02*
X129521857Y-138192285D01*
X129594428Y-138410000D01*
X129594428Y-138555142D01*
X129521857Y-138772857D01*
X129376714Y-138918000D01*
X129231571Y-138990571D01*
X128941285Y-139063142D01*
X128723571Y-139063142D01*
X128433285Y-138990571D01*
X128288142Y-138918000D01*
X128143000Y-138772857D01*
X128070428Y-138555142D01*
X128070428Y-138410000D01*
X128143000Y-138192285D01*
X128215571Y-138119714D01*
X129594428Y-136668285D02*
X129594428Y-137539142D01*
X129594428Y-137103714D02*
X128070428Y-137103714D01*
X128288142Y-137248857D01*
X128433285Y-137394000D01*
X128505857Y-137539142D01*
X129594428Y-135216857D02*
X129594428Y-136087714D01*
X129594428Y-135652285D02*
X128070428Y-135652285D01*
X128288142Y-135797428D01*
X128433285Y-135942571D01*
X128505857Y-136087714D01*
%TO.C,C13*%
X73930285Y-62774285D02*
X73857714Y-62846857D01*
X73640000Y-62919428D01*
X73494857Y-62919428D01*
X73277142Y-62846857D01*
X73132000Y-62701714D01*
X73059428Y-62556571D01*
X72986857Y-62266285D01*
X72986857Y-62048571D01*
X73059428Y-61758285D01*
X73132000Y-61613142D01*
X73277142Y-61468000D01*
X73494857Y-61395428D01*
X73640000Y-61395428D01*
X73857714Y-61468000D01*
X73930285Y-61540571D01*
X75381714Y-62919428D02*
X74510857Y-62919428D01*
X74946285Y-62919428D02*
X74946285Y-61395428D01*
X74801142Y-61613142D01*
X74656000Y-61758285D01*
X74510857Y-61830857D01*
X75889714Y-61395428D02*
X76833142Y-61395428D01*
X76325142Y-61976000D01*
X76542857Y-61976000D01*
X76688000Y-62048571D01*
X76760571Y-62121142D01*
X76833142Y-62266285D01*
X76833142Y-62629142D01*
X76760571Y-62774285D01*
X76688000Y-62846857D01*
X76542857Y-62919428D01*
X76107428Y-62919428D01*
X75962285Y-62846857D01*
X75889714Y-62774285D01*
%TO.C,BT1*%
X27377571Y-100856142D02*
X27595285Y-100928714D01*
X27667857Y-101001285D01*
X27740428Y-101146428D01*
X27740428Y-101364142D01*
X27667857Y-101509285D01*
X27595285Y-101581857D01*
X27450142Y-101654428D01*
X26869571Y-101654428D01*
X26869571Y-100130428D01*
X27377571Y-100130428D01*
X27522714Y-100203000D01*
X27595285Y-100275571D01*
X27667857Y-100420714D01*
X27667857Y-100565857D01*
X27595285Y-100711000D01*
X27522714Y-100783571D01*
X27377571Y-100856142D01*
X26869571Y-100856142D01*
X28175857Y-100130428D02*
X29046714Y-100130428D01*
X28611285Y-101654428D02*
X28611285Y-100130428D01*
X30352999Y-101654428D02*
X29482142Y-101654428D01*
X29917571Y-101654428D02*
X29917571Y-100130428D01*
X29772428Y-100348142D01*
X29627285Y-100493285D01*
X29482142Y-100565857D01*
%TO.C,IC1*%
X89952285Y-170234428D02*
X89952285Y-168710428D01*
X91548857Y-170089285D02*
X91476285Y-170161857D01*
X91258571Y-170234428D01*
X91113428Y-170234428D01*
X90895714Y-170161857D01*
X90750571Y-170016714D01*
X90678000Y-169871571D01*
X90605428Y-169581285D01*
X90605428Y-169363571D01*
X90678000Y-169073285D01*
X90750571Y-168928142D01*
X90895714Y-168783000D01*
X91113428Y-168710428D01*
X91258571Y-168710428D01*
X91476285Y-168783000D01*
X91548857Y-168855571D01*
X93000285Y-170234428D02*
X92129428Y-170234428D01*
X92564857Y-170234428D02*
X92564857Y-168710428D01*
X92419714Y-168928142D01*
X92274571Y-169073285D01*
X92129428Y-169145857D01*
%TO.C,U9*%
X99803857Y-96855428D02*
X99803857Y-98089142D01*
X99876428Y-98234285D01*
X99949000Y-98306857D01*
X100094142Y-98379428D01*
X100384428Y-98379428D01*
X100529571Y-98306857D01*
X100602142Y-98234285D01*
X100674714Y-98089142D01*
X100674714Y-96855428D01*
X101473000Y-98379428D02*
X101763285Y-98379428D01*
X101908428Y-98306857D01*
X101981000Y-98234285D01*
X102126142Y-98016571D01*
X102198714Y-97726285D01*
X102198714Y-97145714D01*
X102126142Y-97000571D01*
X102053571Y-96928000D01*
X101908428Y-96855428D01*
X101618142Y-96855428D01*
X101473000Y-96928000D01*
X101400428Y-97000571D01*
X101327857Y-97145714D01*
X101327857Y-97508571D01*
X101400428Y-97653714D01*
X101473000Y-97726285D01*
X101618142Y-97798857D01*
X101908428Y-97798857D01*
X102053571Y-97726285D01*
X102126142Y-97653714D01*
X102198714Y-97508571D01*
%TO.C,J7*%
X135382000Y-124260428D02*
X135382000Y-125349000D01*
X135309428Y-125566714D01*
X135164285Y-125711857D01*
X134946571Y-125784428D01*
X134801428Y-125784428D01*
X135962571Y-124260428D02*
X136978571Y-124260428D01*
X136325428Y-125784428D01*
%TO.C,R2*%
X115454428Y-146304000D02*
X114728714Y-146812000D01*
X115454428Y-147174857D02*
X113930428Y-147174857D01*
X113930428Y-146594285D01*
X114003000Y-146449142D01*
X114075571Y-146376571D01*
X114220714Y-146304000D01*
X114438428Y-146304000D01*
X114583571Y-146376571D01*
X114656142Y-146449142D01*
X114728714Y-146594285D01*
X114728714Y-147174857D01*
X114075571Y-145723428D02*
X114003000Y-145650857D01*
X113930428Y-145505714D01*
X113930428Y-145142857D01*
X114003000Y-144997714D01*
X114075571Y-144925142D01*
X114220714Y-144852571D01*
X114365857Y-144852571D01*
X114583571Y-144925142D01*
X115454428Y-145796000D01*
X115454428Y-144852571D01*
%TO.C,J5*%
X134112000Y-132515428D02*
X134112000Y-133604000D01*
X134039428Y-133821714D01*
X133894285Y-133966857D01*
X133676571Y-134039428D01*
X133531428Y-134039428D01*
X135563428Y-132515428D02*
X134837714Y-132515428D01*
X134765142Y-133241142D01*
X134837714Y-133168571D01*
X134982857Y-133096000D01*
X135345714Y-133096000D01*
X135490857Y-133168571D01*
X135563428Y-133241142D01*
X135636000Y-133386285D01*
X135636000Y-133749142D01*
X135563428Y-133894285D01*
X135490857Y-133966857D01*
X135345714Y-134039428D01*
X134982857Y-134039428D01*
X134837714Y-133966857D01*
X134765142Y-133894285D01*
%TO.C,J3*%
X40767000Y-156645428D02*
X40767000Y-157734000D01*
X40694428Y-157951714D01*
X40549285Y-158096857D01*
X40331571Y-158169428D01*
X40186428Y-158169428D01*
X41347571Y-156645428D02*
X42291000Y-156645428D01*
X41783000Y-157226000D01*
X42000714Y-157226000D01*
X42145857Y-157298571D01*
X42218428Y-157371142D01*
X42291000Y-157516285D01*
X42291000Y-157879142D01*
X42218428Y-158024285D01*
X42145857Y-158096857D01*
X42000714Y-158169428D01*
X41565285Y-158169428D01*
X41420142Y-158096857D01*
X41347571Y-158024285D01*
%TO.C,SW2*%
X118618000Y-163386857D02*
X118835714Y-163459428D01*
X119198571Y-163459428D01*
X119343714Y-163386857D01*
X119416285Y-163314285D01*
X119488857Y-163169142D01*
X119488857Y-163024000D01*
X119416285Y-162878857D01*
X119343714Y-162806285D01*
X119198571Y-162733714D01*
X118908285Y-162661142D01*
X118763142Y-162588571D01*
X118690571Y-162516000D01*
X118618000Y-162370857D01*
X118618000Y-162225714D01*
X118690571Y-162080571D01*
X118763142Y-162008000D01*
X118908285Y-161935428D01*
X119271142Y-161935428D01*
X119488857Y-162008000D01*
X119996857Y-161935428D02*
X120359714Y-163459428D01*
X120650000Y-162370857D01*
X120940285Y-163459428D01*
X121303142Y-161935428D01*
X121811142Y-162080571D02*
X121883714Y-162008000D01*
X122028857Y-161935428D01*
X122391714Y-161935428D01*
X122536857Y-162008000D01*
X122609428Y-162080571D01*
X122682000Y-162225714D01*
X122682000Y-162370857D01*
X122609428Y-162588571D01*
X121738571Y-163459428D01*
X122682000Y-163459428D01*
%TO.C,Q1*%
X129354571Y-146195142D02*
X129282000Y-146340285D01*
X129136857Y-146485428D01*
X128919142Y-146703142D01*
X128846571Y-146848285D01*
X128846571Y-146993428D01*
X129209428Y-146920857D02*
X129136857Y-147066000D01*
X128991714Y-147211142D01*
X128701428Y-147283714D01*
X128193428Y-147283714D01*
X127903142Y-147211142D01*
X127758000Y-147066000D01*
X127685428Y-146920857D01*
X127685428Y-146630571D01*
X127758000Y-146485428D01*
X127903142Y-146340285D01*
X128193428Y-146267714D01*
X128701428Y-146267714D01*
X128991714Y-146340285D01*
X129136857Y-146485428D01*
X129209428Y-146630571D01*
X129209428Y-146920857D01*
X129209428Y-144816285D02*
X129209428Y-145687142D01*
X129209428Y-145251714D02*
X127685428Y-145251714D01*
X127903142Y-145396857D01*
X128048285Y-145542000D01*
X128120857Y-145687142D01*
%TO.C,Y1*%
X45629285Y-105363714D02*
X45629285Y-106089428D01*
X45121285Y-104565428D02*
X45629285Y-105363714D01*
X46137285Y-104565428D01*
X47443571Y-106089428D02*
X46572714Y-106089428D01*
X47008142Y-106089428D02*
X47008142Y-104565428D01*
X46863000Y-104783142D01*
X46717857Y-104928285D01*
X46572714Y-105000857D01*
%TO.C,U1*%
X44558857Y-67745428D02*
X44558857Y-68979142D01*
X44631428Y-69124285D01*
X44704000Y-69196857D01*
X44849142Y-69269428D01*
X45139428Y-69269428D01*
X45284571Y-69196857D01*
X45357142Y-69124285D01*
X45429714Y-68979142D01*
X45429714Y-67745428D01*
X46953714Y-69269428D02*
X46082857Y-69269428D01*
X46518285Y-69269428D02*
X46518285Y-67745428D01*
X46373142Y-67963142D01*
X46228000Y-68108285D01*
X46082857Y-68180857D01*
%TO.C,U4*%
X122038857Y-66685428D02*
X122038857Y-67919142D01*
X122111428Y-68064285D01*
X122184000Y-68136857D01*
X122329142Y-68209428D01*
X122619428Y-68209428D01*
X122764571Y-68136857D01*
X122837142Y-68064285D01*
X122909714Y-67919142D01*
X122909714Y-66685428D01*
X124288571Y-67193428D02*
X124288571Y-68209428D01*
X123925714Y-66612857D02*
X123562857Y-67701428D01*
X124506285Y-67701428D01*
%TO.C,U3*%
X89008857Y-66685428D02*
X89008857Y-67919142D01*
X89081428Y-68064285D01*
X89154000Y-68136857D01*
X89299142Y-68209428D01*
X89589428Y-68209428D01*
X89734571Y-68136857D01*
X89807142Y-68064285D01*
X89879714Y-67919142D01*
X89879714Y-66685428D01*
X90460285Y-66685428D02*
X91403714Y-66685428D01*
X90895714Y-67266000D01*
X91113428Y-67266000D01*
X91258571Y-67338571D01*
X91331142Y-67411142D01*
X91403714Y-67556285D01*
X91403714Y-67919142D01*
X91331142Y-68064285D01*
X91258571Y-68136857D01*
X91113428Y-68209428D01*
X90678000Y-68209428D01*
X90532857Y-68136857D01*
X90460285Y-68064285D01*
%TO.C,C7*%
X125456000Y-62774285D02*
X125383428Y-62846857D01*
X125165714Y-62919428D01*
X125020571Y-62919428D01*
X124802857Y-62846857D01*
X124657714Y-62701714D01*
X124585142Y-62556571D01*
X124512571Y-62266285D01*
X124512571Y-62048571D01*
X124585142Y-61758285D01*
X124657714Y-61613142D01*
X124802857Y-61468000D01*
X125020571Y-61395428D01*
X125165714Y-61395428D01*
X125383428Y-61468000D01*
X125456000Y-61540571D01*
X125964000Y-61395428D02*
X126980000Y-61395428D01*
X126326857Y-62919428D01*
%TO.C,C14*%
X122480285Y-138914285D02*
X122407714Y-138986857D01*
X122190000Y-139059428D01*
X122044857Y-139059428D01*
X121827142Y-138986857D01*
X121682000Y-138841714D01*
X121609428Y-138696571D01*
X121536857Y-138406285D01*
X121536857Y-138188571D01*
X121609428Y-137898285D01*
X121682000Y-137753142D01*
X121827142Y-137608000D01*
X122044857Y-137535428D01*
X122190000Y-137535428D01*
X122407714Y-137608000D01*
X122480285Y-137680571D01*
X123931714Y-139059428D02*
X123060857Y-139059428D01*
X123496285Y-139059428D02*
X123496285Y-137535428D01*
X123351142Y-137753142D01*
X123206000Y-137898285D01*
X123060857Y-137970857D01*
X125238000Y-138043428D02*
X125238000Y-139059428D01*
X124875142Y-137462857D02*
X124512285Y-138551428D01*
X125455714Y-138551428D01*
%TO.C,D2*%
X112540142Y-155209428D02*
X112540142Y-153685428D01*
X112903000Y-153685428D01*
X113120714Y-153758000D01*
X113265857Y-153903142D01*
X113338428Y-154048285D01*
X113411000Y-154338571D01*
X113411000Y-154556285D01*
X113338428Y-154846571D01*
X113265857Y-154991714D01*
X113120714Y-155136857D01*
X112903000Y-155209428D01*
X112540142Y-155209428D01*
X113991571Y-153830571D02*
X114064142Y-153758000D01*
X114209285Y-153685428D01*
X114572142Y-153685428D01*
X114717285Y-153758000D01*
X114789857Y-153830571D01*
X114862428Y-153975714D01*
X114862428Y-154120857D01*
X114789857Y-154338571D01*
X113919000Y-155209428D01*
X114862428Y-155209428D01*
%TO.C,X1*%
X36866285Y-67745428D02*
X37882285Y-69269428D01*
X37882285Y-67745428D02*
X36866285Y-69269428D01*
X39261142Y-69269428D02*
X38390285Y-69269428D01*
X38825714Y-69269428D02*
X38825714Y-67745428D01*
X38680571Y-67963142D01*
X38535428Y-68108285D01*
X38390285Y-68180857D01*
%TO.C,C1*%
X38404285Y-122194000D02*
X38476857Y-122266571D01*
X38549428Y-122484285D01*
X38549428Y-122629428D01*
X38476857Y-122847142D01*
X38331714Y-122992285D01*
X38186571Y-123064857D01*
X37896285Y-123137428D01*
X37678571Y-123137428D01*
X37388285Y-123064857D01*
X37243142Y-122992285D01*
X37098000Y-122847142D01*
X37025428Y-122629428D01*
X37025428Y-122484285D01*
X37098000Y-122266571D01*
X37170571Y-122194000D01*
X38549428Y-120742571D02*
X38549428Y-121613428D01*
X38549428Y-121178000D02*
X37025428Y-121178000D01*
X37243142Y-121323142D01*
X37388285Y-121468285D01*
X37460857Y-121613428D01*
%TO.C,C9*%
X58166000Y-95159285D02*
X58093428Y-95231857D01*
X57875714Y-95304428D01*
X57730571Y-95304428D01*
X57512857Y-95231857D01*
X57367714Y-95086714D01*
X57295142Y-94941571D01*
X57222571Y-94651285D01*
X57222571Y-94433571D01*
X57295142Y-94143285D01*
X57367714Y-93998142D01*
X57512857Y-93853000D01*
X57730571Y-93780428D01*
X57875714Y-93780428D01*
X58093428Y-93853000D01*
X58166000Y-93925571D01*
X58891714Y-95304428D02*
X59182000Y-95304428D01*
X59327142Y-95231857D01*
X59399714Y-95159285D01*
X59544857Y-94941571D01*
X59617428Y-94651285D01*
X59617428Y-94070714D01*
X59544857Y-93925571D01*
X59472285Y-93853000D01*
X59327142Y-93780428D01*
X59036857Y-93780428D01*
X58891714Y-93853000D01*
X58819142Y-93925571D01*
X58746571Y-94070714D01*
X58746571Y-94433571D01*
X58819142Y-94578714D01*
X58891714Y-94651285D01*
X59036857Y-94723857D01*
X59327142Y-94723857D01*
X59472285Y-94651285D01*
X59544857Y-94578714D01*
X59617428Y-94433571D01*
%TO.C,R6*%
X129764428Y-124714000D02*
X129038714Y-125222000D01*
X129764428Y-125584857D02*
X128240428Y-125584857D01*
X128240428Y-125004285D01*
X128313000Y-124859142D01*
X128385571Y-124786571D01*
X128530714Y-124714000D01*
X128748428Y-124714000D01*
X128893571Y-124786571D01*
X128966142Y-124859142D01*
X129038714Y-125004285D01*
X129038714Y-125584857D01*
X128240428Y-123407714D02*
X128240428Y-123698000D01*
X128313000Y-123843142D01*
X128385571Y-123915714D01*
X128603285Y-124060857D01*
X128893571Y-124133428D01*
X129474142Y-124133428D01*
X129619285Y-124060857D01*
X129691857Y-123988285D01*
X129764428Y-123843142D01*
X129764428Y-123552857D01*
X129691857Y-123407714D01*
X129619285Y-123335142D01*
X129474142Y-123262571D01*
X129111285Y-123262571D01*
X128966142Y-123335142D01*
X128893571Y-123407714D01*
X128821000Y-123552857D01*
X128821000Y-123843142D01*
X128893571Y-123988285D01*
X128966142Y-124060857D01*
X129111285Y-124133428D01*
%TO.C,C12*%
X52360285Y-64044285D02*
X52287714Y-64116857D01*
X52070000Y-64189428D01*
X51924857Y-64189428D01*
X51707142Y-64116857D01*
X51562000Y-63971714D01*
X51489428Y-63826571D01*
X51416857Y-63536285D01*
X51416857Y-63318571D01*
X51489428Y-63028285D01*
X51562000Y-62883142D01*
X51707142Y-62738000D01*
X51924857Y-62665428D01*
X52070000Y-62665428D01*
X52287714Y-62738000D01*
X52360285Y-62810571D01*
X53811714Y-64189428D02*
X52940857Y-64189428D01*
X53376285Y-64189428D02*
X53376285Y-62665428D01*
X53231142Y-62883142D01*
X53086000Y-63028285D01*
X52940857Y-63100857D01*
X54392285Y-62810571D02*
X54464857Y-62738000D01*
X54610000Y-62665428D01*
X54972857Y-62665428D01*
X55118000Y-62738000D01*
X55190571Y-62810571D01*
X55263142Y-62955714D01*
X55263142Y-63100857D01*
X55190571Y-63318571D01*
X54319714Y-64189428D01*
X55263142Y-64189428D01*
%TO.C,J1*%
X28702000Y-130610428D02*
X28702000Y-131699000D01*
X28629428Y-131916714D01*
X28484285Y-132061857D01*
X28266571Y-132134428D01*
X28121428Y-132134428D01*
X30226000Y-132134428D02*
X29355142Y-132134428D01*
X29790571Y-132134428D02*
X29790571Y-130610428D01*
X29645428Y-130828142D01*
X29500285Y-130973285D01*
X29355142Y-131045857D01*
%TO.C,C16*%
X33290285Y-64284285D02*
X33217714Y-64356857D01*
X33000000Y-64429428D01*
X32854857Y-64429428D01*
X32637142Y-64356857D01*
X32492000Y-64211714D01*
X32419428Y-64066571D01*
X32346857Y-63776285D01*
X32346857Y-63558571D01*
X32419428Y-63268285D01*
X32492000Y-63123142D01*
X32637142Y-62978000D01*
X32854857Y-62905428D01*
X33000000Y-62905428D01*
X33217714Y-62978000D01*
X33290285Y-63050571D01*
X34741714Y-64429428D02*
X33870857Y-64429428D01*
X34306285Y-64429428D02*
X34306285Y-62905428D01*
X34161142Y-63123142D01*
X34016000Y-63268285D01*
X33870857Y-63340857D01*
X36048000Y-62905428D02*
X35757714Y-62905428D01*
X35612571Y-62978000D01*
X35540000Y-63050571D01*
X35394857Y-63268285D01*
X35322285Y-63558571D01*
X35322285Y-64139142D01*
X35394857Y-64284285D01*
X35467428Y-64356857D01*
X35612571Y-64429428D01*
X35902857Y-64429428D01*
X36048000Y-64356857D01*
X36120571Y-64284285D01*
X36193142Y-64139142D01*
X36193142Y-63776285D01*
X36120571Y-63631142D01*
X36048000Y-63558571D01*
X35902857Y-63486000D01*
X35612571Y-63486000D01*
X35467428Y-63558571D01*
X35394857Y-63631142D01*
X35322285Y-63776285D01*
%TO.C,C17*%
X45375285Y-64044285D02*
X45302714Y-64116857D01*
X45085000Y-64189428D01*
X44939857Y-64189428D01*
X44722142Y-64116857D01*
X44577000Y-63971714D01*
X44504428Y-63826571D01*
X44431857Y-63536285D01*
X44431857Y-63318571D01*
X44504428Y-63028285D01*
X44577000Y-62883142D01*
X44722142Y-62738000D01*
X44939857Y-62665428D01*
X45085000Y-62665428D01*
X45302714Y-62738000D01*
X45375285Y-62810571D01*
X46826714Y-64189428D02*
X45955857Y-64189428D01*
X46391285Y-64189428D02*
X46391285Y-62665428D01*
X46246142Y-62883142D01*
X46101000Y-63028285D01*
X45955857Y-63100857D01*
X47334714Y-62665428D02*
X48350714Y-62665428D01*
X47697571Y-64189428D01*
%TO.C,C10*%
X104450285Y-62774285D02*
X104377714Y-62846857D01*
X104160000Y-62919428D01*
X104014857Y-62919428D01*
X103797142Y-62846857D01*
X103652000Y-62701714D01*
X103579428Y-62556571D01*
X103506857Y-62266285D01*
X103506857Y-62048571D01*
X103579428Y-61758285D01*
X103652000Y-61613142D01*
X103797142Y-61468000D01*
X104014857Y-61395428D01*
X104160000Y-61395428D01*
X104377714Y-61468000D01*
X104450285Y-61540571D01*
X105901714Y-62919428D02*
X105030857Y-62919428D01*
X105466285Y-62919428D02*
X105466285Y-61395428D01*
X105321142Y-61613142D01*
X105176000Y-61758285D01*
X105030857Y-61830857D01*
X106845142Y-61395428D02*
X106990285Y-61395428D01*
X107135428Y-61468000D01*
X107208000Y-61540571D01*
X107280571Y-61685714D01*
X107353142Y-61976000D01*
X107353142Y-62338857D01*
X107280571Y-62629142D01*
X107208000Y-62774285D01*
X107135428Y-62846857D01*
X106990285Y-62919428D01*
X106845142Y-62919428D01*
X106700000Y-62846857D01*
X106627428Y-62774285D01*
X106554857Y-62629142D01*
X106482285Y-62338857D01*
X106482285Y-61976000D01*
X106554857Y-61685714D01*
X106627428Y-61540571D01*
X106700000Y-61468000D01*
X106845142Y-61395428D01*
%TO.C,J2*%
X136652000Y-65205428D02*
X136652000Y-66294000D01*
X136579428Y-66511714D01*
X136434285Y-66656857D01*
X136216571Y-66729428D01*
X136071428Y-66729428D01*
X137305142Y-65350571D02*
X137377714Y-65278000D01*
X137522857Y-65205428D01*
X137885714Y-65205428D01*
X138030857Y-65278000D01*
X138103428Y-65350571D01*
X138176000Y-65495714D01*
X138176000Y-65640857D01*
X138103428Y-65858571D01*
X137232571Y-66729428D01*
X138176000Y-66729428D01*
%TO.C,C5*%
X130084285Y-112649000D02*
X130156857Y-112721571D01*
X130229428Y-112939285D01*
X130229428Y-113084428D01*
X130156857Y-113302142D01*
X130011714Y-113447285D01*
X129866571Y-113519857D01*
X129576285Y-113592428D01*
X129358571Y-113592428D01*
X129068285Y-113519857D01*
X128923142Y-113447285D01*
X128778000Y-113302142D01*
X128705428Y-113084428D01*
X128705428Y-112939285D01*
X128778000Y-112721571D01*
X128850571Y-112649000D01*
X128705428Y-111270142D02*
X128705428Y-111995857D01*
X129431142Y-112068428D01*
X129358571Y-111995857D01*
X129286000Y-111850714D01*
X129286000Y-111487857D01*
X129358571Y-111342714D01*
X129431142Y-111270142D01*
X129576285Y-111197571D01*
X129939142Y-111197571D01*
X130084285Y-111270142D01*
X130156857Y-111342714D01*
X130229428Y-111487857D01*
X130229428Y-111850714D01*
X130156857Y-111995857D01*
X130084285Y-112068428D01*
%TO.C,R1*%
X122439428Y-146304000D02*
X121713714Y-146812000D01*
X122439428Y-147174857D02*
X120915428Y-147174857D01*
X120915428Y-146594285D01*
X120988000Y-146449142D01*
X121060571Y-146376571D01*
X121205714Y-146304000D01*
X121423428Y-146304000D01*
X121568571Y-146376571D01*
X121641142Y-146449142D01*
X121713714Y-146594285D01*
X121713714Y-147174857D01*
X122439428Y-144852571D02*
X122439428Y-145723428D01*
X122439428Y-145288000D02*
X120915428Y-145288000D01*
X121133142Y-145433142D01*
X121278285Y-145578285D01*
X121350857Y-145723428D01*
%TO.C,C18*%
X30135285Y-161199285D02*
X30062714Y-161271857D01*
X29845000Y-161344428D01*
X29699857Y-161344428D01*
X29482142Y-161271857D01*
X29337000Y-161126714D01*
X29264428Y-160981571D01*
X29191857Y-160691285D01*
X29191857Y-160473571D01*
X29264428Y-160183285D01*
X29337000Y-160038142D01*
X29482142Y-159893000D01*
X29699857Y-159820428D01*
X29845000Y-159820428D01*
X30062714Y-159893000D01*
X30135285Y-159965571D01*
X31586714Y-161344428D02*
X30715857Y-161344428D01*
X31151285Y-161344428D02*
X31151285Y-159820428D01*
X31006142Y-160038142D01*
X30861000Y-160183285D01*
X30715857Y-160255857D01*
X32457571Y-160473571D02*
X32312428Y-160401000D01*
X32239857Y-160328428D01*
X32167285Y-160183285D01*
X32167285Y-160110714D01*
X32239857Y-159965571D01*
X32312428Y-159893000D01*
X32457571Y-159820428D01*
X32747857Y-159820428D01*
X32893000Y-159893000D01*
X32965571Y-159965571D01*
X33038142Y-160110714D01*
X33038142Y-160183285D01*
X32965571Y-160328428D01*
X32893000Y-160401000D01*
X32747857Y-160473571D01*
X32457571Y-160473571D01*
X32312428Y-160546142D01*
X32239857Y-160618714D01*
X32167285Y-160763857D01*
X32167285Y-161054142D01*
X32239857Y-161199285D01*
X32312428Y-161271857D01*
X32457571Y-161344428D01*
X32747857Y-161344428D01*
X32893000Y-161271857D01*
X32965571Y-161199285D01*
X33038142Y-161054142D01*
X33038142Y-160763857D01*
X32965571Y-160618714D01*
X32893000Y-160546142D01*
X32747857Y-160473571D01*
%TO.C,C2*%
X126746000Y-97064285D02*
X126673428Y-97136857D01*
X126455714Y-97209428D01*
X126310571Y-97209428D01*
X126092857Y-97136857D01*
X125947714Y-96991714D01*
X125875142Y-96846571D01*
X125802571Y-96556285D01*
X125802571Y-96338571D01*
X125875142Y-96048285D01*
X125947714Y-95903142D01*
X126092857Y-95758000D01*
X126310571Y-95685428D01*
X126455714Y-95685428D01*
X126673428Y-95758000D01*
X126746000Y-95830571D01*
X127326571Y-95830571D02*
X127399142Y-95758000D01*
X127544285Y-95685428D01*
X127907142Y-95685428D01*
X128052285Y-95758000D01*
X128124857Y-95830571D01*
X128197428Y-95975714D01*
X128197428Y-96120857D01*
X128124857Y-96338571D01*
X127254000Y-97209428D01*
X128197428Y-97209428D01*
%TO.C,C15*%
X104700285Y-138914285D02*
X104627714Y-138986857D01*
X104410000Y-139059428D01*
X104264857Y-139059428D01*
X104047142Y-138986857D01*
X103902000Y-138841714D01*
X103829428Y-138696571D01*
X103756857Y-138406285D01*
X103756857Y-138188571D01*
X103829428Y-137898285D01*
X103902000Y-137753142D01*
X104047142Y-137608000D01*
X104264857Y-137535428D01*
X104410000Y-137535428D01*
X104627714Y-137608000D01*
X104700285Y-137680571D01*
X106151714Y-139059428D02*
X105280857Y-139059428D01*
X105716285Y-139059428D02*
X105716285Y-137535428D01*
X105571142Y-137753142D01*
X105426000Y-137898285D01*
X105280857Y-137970857D01*
X107530571Y-137535428D02*
X106804857Y-137535428D01*
X106732285Y-138261142D01*
X106804857Y-138188571D01*
X106950000Y-138116000D01*
X107312857Y-138116000D01*
X107458000Y-138188571D01*
X107530571Y-138261142D01*
X107603142Y-138406285D01*
X107603142Y-138769142D01*
X107530571Y-138914285D01*
X107458000Y-138986857D01*
X107312857Y-139059428D01*
X106950000Y-139059428D01*
X106804857Y-138986857D01*
X106732285Y-138914285D01*
%TO.C,J6*%
X56067000Y-148755428D02*
X56067000Y-149844000D01*
X55994428Y-150061714D01*
X55849285Y-150206857D01*
X55631571Y-150279428D01*
X55486428Y-150279428D01*
X57445857Y-148755428D02*
X57155571Y-148755428D01*
X57010428Y-148828000D01*
X56937857Y-148900571D01*
X56792714Y-149118285D01*
X56720142Y-149408571D01*
X56720142Y-149989142D01*
X56792714Y-150134285D01*
X56865285Y-150206857D01*
X57010428Y-150279428D01*
X57300714Y-150279428D01*
X57445857Y-150206857D01*
X57518428Y-150134285D01*
X57591000Y-149989142D01*
X57591000Y-149626285D01*
X57518428Y-149481142D01*
X57445857Y-149408571D01*
X57300714Y-149336000D01*
X57010428Y-149336000D01*
X56865285Y-149408571D01*
X56792714Y-149481142D01*
X56720142Y-149626285D01*
%TO.C,U2*%
X73778857Y-66680428D02*
X73778857Y-67914142D01*
X73851428Y-68059285D01*
X73924000Y-68131857D01*
X74069142Y-68204428D01*
X74359428Y-68204428D01*
X74504571Y-68131857D01*
X74577142Y-68059285D01*
X74649714Y-67914142D01*
X74649714Y-66680428D01*
X75302857Y-66825571D02*
X75375428Y-66753000D01*
X75520571Y-66680428D01*
X75883428Y-66680428D01*
X76028571Y-66753000D01*
X76101142Y-66825571D01*
X76173714Y-66970714D01*
X76173714Y-67115857D01*
X76101142Y-67333571D01*
X75230285Y-68204428D01*
X76173714Y-68204428D01*
%TO.C,U7*%
X81388857Y-147755428D02*
X81388857Y-148989142D01*
X81461428Y-149134285D01*
X81534000Y-149206857D01*
X81679142Y-149279428D01*
X81969428Y-149279428D01*
X82114571Y-149206857D01*
X82187142Y-149134285D01*
X82259714Y-148989142D01*
X82259714Y-147755428D01*
X82840285Y-147755428D02*
X83856285Y-147755428D01*
X83203142Y-149279428D01*
D12*
%TO.C,U6*%
X55780000Y-100285000D02*
X55780000Y-120725000D01*
X61080000Y-120725000D02*
X61080000Y-100285000D01*
X57430000Y-100285000D02*
X55780000Y-100285000D01*
X55780000Y-120725000D02*
X61080000Y-120725000D01*
X61080000Y-100285000D02*
X59430000Y-100285000D01*
X57430000Y-100285000D02*
G75*
G03*
X59430000Y-100285000I1000000J0D01*
G01*
%TO.C,D1*%
X119090000Y-158560000D02*
X119090000Y-158716000D01*
X119090000Y-156244000D02*
X119090000Y-156400000D01*
X122322335Y-156401392D02*
G75*
G03*
X119090000Y-156244484I-1672335J-1078608D01*
G01*
X119090000Y-158715516D02*
G75*
G03*
X122322335Y-158558608I1560000J1235516D01*
G01*
X119609039Y-158560000D02*
G75*
G03*
X121691130Y-158559837I1040961J1080000D01*
G01*
X121691130Y-156400163D02*
G75*
G03*
X119609039Y-156400000I-1041130J-1079837D01*
G01*
%TO.C,U5*%
X104410000Y-68520000D02*
X102760000Y-68520000D01*
X102760000Y-68520000D02*
X102760000Y-88960000D01*
X102760000Y-88960000D02*
X108060000Y-88960000D01*
X108060000Y-88960000D02*
X108060000Y-68520000D01*
X108060000Y-68520000D02*
X106410000Y-68520000D01*
X104410000Y-68520000D02*
G75*
G03*
X106410000Y-68520000I1000000J0D01*
G01*
%TO.C,D3*%
X105120000Y-158560000D02*
X105120000Y-158716000D01*
X105120000Y-156244000D02*
X105120000Y-156400000D01*
X105120000Y-158715516D02*
G75*
G03*
X108352335Y-158558608I1560000J1235516D01*
G01*
X108352335Y-156401392D02*
G75*
G03*
X105120000Y-156244484I-1672335J-1078608D01*
G01*
X107721130Y-156400163D02*
G75*
G03*
X105639039Y-156400000I-1041130J-1079837D01*
G01*
X105639039Y-158560000D02*
G75*
G03*
X107721130Y-158559837I1040961J1080000D01*
G01*
%TO.C,R4*%
X139800000Y-155670000D02*
X139800000Y-149130000D01*
X139800000Y-149130000D02*
X137060000Y-149130000D01*
X137060000Y-155670000D02*
X139800000Y-155670000D01*
X137060000Y-149130000D02*
X137060000Y-155670000D01*
X138430000Y-148360000D02*
X138430000Y-149130000D01*
X138430000Y-156440000D02*
X138430000Y-155670000D01*
%TO.C,J4*%
X60955000Y-69805000D02*
X63555000Y-69805000D01*
X58355000Y-72405000D02*
X60955000Y-72405000D01*
X63555000Y-69805000D02*
X63555000Y-90245000D01*
X58355000Y-72405000D02*
X58355000Y-90245000D01*
X58355000Y-90245000D02*
X63555000Y-90245000D01*
X58355000Y-71135000D02*
X58355000Y-69805000D01*
X58355000Y-69805000D02*
X59685000Y-69805000D01*
X60955000Y-72405000D02*
X60955000Y-69805000D01*
%TO.C,R5*%
X133450000Y-106140000D02*
X133450000Y-99600000D01*
X132080000Y-98830000D02*
X132080000Y-99600000D01*
X130710000Y-99600000D02*
X130710000Y-106140000D01*
X133450000Y-99600000D02*
X130710000Y-99600000D01*
X132080000Y-106910000D02*
X132080000Y-106140000D01*
X130710000Y-106140000D02*
X133450000Y-106140000D01*
%TO.C,R3*%
X104040000Y-142780000D02*
X104040000Y-149320000D01*
X105410000Y-150090000D02*
X105410000Y-149320000D01*
X106780000Y-142780000D02*
X104040000Y-142780000D01*
X105410000Y-142010000D02*
X105410000Y-142780000D01*
X104040000Y-149320000D02*
X106780000Y-149320000D01*
X106780000Y-149320000D02*
X106780000Y-142780000D01*
%TO.C,R7*%
X128175000Y-163295000D02*
X134715000Y-163295000D01*
X128175000Y-160555000D02*
X128175000Y-163295000D01*
X134715000Y-163295000D02*
X134715000Y-160555000D01*
X127405000Y-161925000D02*
X128175000Y-161925000D01*
X135485000Y-161925000D02*
X134715000Y-161925000D01*
X134715000Y-160555000D02*
X128175000Y-160555000D01*
%TO.C,C6*%
X107250000Y-97690000D02*
X107250000Y-97445000D01*
X103610000Y-95595000D02*
X103610000Y-95350000D01*
X107250000Y-95595000D02*
X107250000Y-95350000D01*
X107250000Y-97690000D02*
X103610000Y-97690000D01*
X107250000Y-95350000D02*
X103610000Y-95350000D01*
X103610000Y-97690000D02*
X103610000Y-97445000D01*
%TO.C,C8*%
X114200000Y-113580000D02*
X114200000Y-109940000D01*
X111860000Y-113580000D02*
X112105000Y-113580000D01*
X113955000Y-109940000D02*
X114200000Y-109940000D01*
X113955000Y-113580000D02*
X114200000Y-113580000D01*
X111860000Y-109940000D02*
X112105000Y-109940000D01*
X111860000Y-113580000D02*
X111860000Y-109940000D01*
%TO.C,SW1*%
X105350000Y-163770000D02*
X106680000Y-163770000D01*
X105350000Y-165100000D02*
X105350000Y-163770000D01*
X108010000Y-166370000D02*
X108010000Y-168970000D01*
X105350000Y-166370000D02*
X105350000Y-168970000D01*
X105350000Y-168970000D02*
X108010000Y-168970000D01*
X105350000Y-166370000D02*
X108010000Y-166370000D01*
%TO.C,C3*%
X88370000Y-65940000D02*
X88370000Y-65695000D01*
X88370000Y-63845000D02*
X88370000Y-63600000D01*
X92010000Y-63600000D02*
X88370000Y-63600000D01*
X92010000Y-65940000D02*
X92010000Y-65695000D01*
X92010000Y-63845000D02*
X92010000Y-63600000D01*
X92010000Y-65940000D02*
X88370000Y-65940000D01*
%TO.C,U8*%
X125850000Y-129595000D02*
X125850000Y-98995000D01*
X120550000Y-129595000D02*
X125850000Y-129595000D01*
X125850000Y-98995000D02*
X124200000Y-98995000D01*
X120550000Y-98995000D02*
X120550000Y-129595000D01*
X122200000Y-98995000D02*
X120550000Y-98995000D01*
X122200000Y-98995000D02*
G75*
G03*
X124200000Y-98995000I1000000J0D01*
G01*
%TO.C,C4*%
X95950000Y-145705000D02*
X95950000Y-145950000D01*
X99590000Y-145705000D02*
X99590000Y-145950000D01*
X95950000Y-143610000D02*
X95950000Y-143855000D01*
X99590000Y-143610000D02*
X99590000Y-143855000D01*
X95950000Y-145950000D02*
X99590000Y-145950000D01*
X95950000Y-143610000D02*
X99590000Y-143610000D01*
%TO.C,C11*%
X130910000Y-135320000D02*
X130910000Y-138960000D01*
X133250000Y-138960000D02*
X133005000Y-138960000D01*
X131155000Y-135320000D02*
X130910000Y-135320000D01*
X133250000Y-135320000D02*
X133250000Y-138960000D01*
X131155000Y-138960000D02*
X130910000Y-138960000D01*
X133250000Y-135320000D02*
X133005000Y-135320000D01*
%TO.C,C13*%
X73090000Y-65940000D02*
X73090000Y-65695000D01*
X76730000Y-65940000D02*
X73090000Y-65940000D01*
X73090000Y-63845000D02*
X73090000Y-63600000D01*
X76730000Y-63845000D02*
X76730000Y-63600000D01*
X76730000Y-65940000D02*
X76730000Y-65695000D01*
X76730000Y-63600000D02*
X73090000Y-63600000D01*
%TO.C,BT1*%
X30540000Y-90730000D02*
X27880000Y-90730000D01*
X27880000Y-93330000D02*
X27880000Y-90730000D01*
X30540000Y-93330000D02*
X27880000Y-93330000D01*
X30540000Y-93330000D02*
X30540000Y-90730000D01*
X30540000Y-95930000D02*
X29210000Y-95930000D01*
X30540000Y-94600000D02*
X30540000Y-95930000D01*
D13*
%TO.C,IC1*%
X77970000Y-167040000D02*
X89670000Y-167040000D01*
X77970000Y-158440000D02*
X77970000Y-154040000D01*
X77970000Y-163640000D02*
X77970000Y-167040000D01*
X87420000Y-154040000D02*
X89670000Y-154040000D01*
X89670000Y-167040000D02*
X89670000Y-163640000D01*
X77970000Y-154040000D02*
X80220000Y-154040000D01*
X82420000Y-154040000D02*
X85220000Y-154040000D01*
X89670000Y-154040000D02*
X89670000Y-158440000D01*
D12*
%TO.C,U9*%
X102760000Y-129600000D02*
X108060000Y-129600000D01*
X108060000Y-99000000D02*
X106410000Y-99000000D01*
X102760000Y-99000000D02*
X102760000Y-129600000D01*
X108060000Y-129600000D02*
X108060000Y-99000000D01*
X104410000Y-99000000D02*
X102760000Y-99000000D01*
X104410000Y-99000000D02*
G75*
G03*
X106410000Y-99000000I1000000J0D01*
G01*
%TO.C,J7*%
X138370000Y-118745000D02*
X141030000Y-118745000D01*
X138370000Y-117475000D02*
X138370000Y-116145000D01*
X141030000Y-118745000D02*
X141030000Y-126425000D01*
X138370000Y-118745000D02*
X138370000Y-126425000D01*
X138370000Y-126425000D02*
X141030000Y-126425000D01*
X138370000Y-116145000D02*
X139700000Y-116145000D01*
%TO.C,R2*%
X112395000Y-150090000D02*
X112395000Y-149320000D01*
X113765000Y-142780000D02*
X111025000Y-142780000D01*
X111025000Y-142780000D02*
X111025000Y-149320000D01*
X112395000Y-142010000D02*
X112395000Y-142780000D01*
X111025000Y-149320000D02*
X113765000Y-149320000D01*
X113765000Y-149320000D02*
X113765000Y-142780000D01*
%TO.C,J5*%
X138370000Y-134615000D02*
X141030000Y-134615000D01*
X138370000Y-137215000D02*
X141030000Y-137215000D01*
X138370000Y-133345000D02*
X138370000Y-132015000D01*
X138370000Y-134615000D02*
X138370000Y-137215000D01*
X141030000Y-134615000D02*
X141030000Y-137215000D01*
X138370000Y-132015000D02*
X139700000Y-132015000D01*
%TO.C,J3*%
X46355000Y-156845000D02*
X43755000Y-156845000D01*
X45085000Y-159445000D02*
X43755000Y-159445000D01*
X43755000Y-154245000D02*
X64195000Y-154245000D01*
X46355000Y-159445000D02*
X64195000Y-159445000D01*
X43755000Y-156845000D02*
X43755000Y-154245000D01*
X46355000Y-159445000D02*
X46355000Y-156845000D01*
X43755000Y-159445000D02*
X43755000Y-158115000D01*
X64195000Y-159445000D02*
X64195000Y-154245000D01*
%TO.C,SW2*%
X119320000Y-165100000D02*
X119320000Y-163770000D01*
X119320000Y-166370000D02*
X121980000Y-166370000D01*
X119320000Y-166370000D02*
X119320000Y-168970000D01*
X119320000Y-168970000D02*
X121980000Y-168970000D01*
X121980000Y-166370000D02*
X121980000Y-168970000D01*
X119320000Y-163770000D02*
X120650000Y-163770000D01*
%TO.C,Q1*%
X133930000Y-147850000D02*
X133930000Y-144250000D01*
X129479999Y-146050000D02*
G75*
G03*
X133918478Y-147888478I2600001J0D01*
G01*
X133918478Y-144211522D02*
G75*
G03*
X129480000Y-146050000I-1838478J-1838478D01*
G01*
%TO.C,Y1*%
X42540000Y-106720000D02*
X42540000Y-109180000D01*
X42540000Y-109180000D02*
X49440000Y-109180000D01*
X50340000Y-108900000D02*
X50540000Y-108900000D01*
X49440000Y-106720000D02*
X42540000Y-106720000D01*
X49440000Y-108300000D02*
X50340000Y-108900000D01*
X50340000Y-107000000D02*
X50540000Y-107000000D01*
X49440000Y-107600000D02*
X50340000Y-107000000D01*
X49440000Y-109180000D02*
X49440000Y-106720000D01*
%TO.C,U1*%
X46880000Y-90230000D02*
X52180000Y-90230000D01*
X52180000Y-69790000D02*
X50530000Y-69790000D01*
X48530000Y-69790000D02*
X46880000Y-69790000D01*
X46880000Y-69790000D02*
X46880000Y-90230000D01*
X52180000Y-90230000D02*
X52180000Y-69790000D01*
X48530000Y-69790000D02*
G75*
G03*
X50530000Y-69790000I1000000J0D01*
G01*
%TO.C,U4*%
X125850000Y-68520000D02*
X124200000Y-68520000D01*
X122200000Y-68520000D02*
X120550000Y-68520000D01*
X120550000Y-68520000D02*
X120550000Y-94040000D01*
X120550000Y-94040000D02*
X125850000Y-94040000D01*
X125850000Y-94040000D02*
X125850000Y-68520000D01*
X122200000Y-68520000D02*
G75*
G03*
X124200000Y-68520000I1000000J0D01*
G01*
%TO.C,U3*%
X92820000Y-88960000D02*
X92820000Y-68520000D01*
X92820000Y-68520000D02*
X91170000Y-68520000D01*
X87520000Y-68520000D02*
X87520000Y-88960000D01*
X87520000Y-88960000D02*
X92820000Y-88960000D01*
X89170000Y-68520000D02*
X87520000Y-68520000D01*
X89170000Y-68520000D02*
G75*
G03*
X91170000Y-68520000I1000000J0D01*
G01*
%TO.C,C7*%
X127530000Y-65940000D02*
X123890000Y-65940000D01*
X123890000Y-63845000D02*
X123890000Y-63600000D01*
X127530000Y-63600000D02*
X123890000Y-63600000D01*
X127530000Y-63845000D02*
X127530000Y-63600000D01*
X127530000Y-65940000D02*
X127530000Y-65695000D01*
X123890000Y-65940000D02*
X123890000Y-65695000D01*
%TO.C,C14*%
X121299000Y-136063000D02*
X121299000Y-133177000D01*
X123380000Y-137199000D02*
X123380000Y-135660000D01*
X121419000Y-136225000D02*
X121419000Y-133015000D01*
X122059000Y-133580000D02*
X122059000Y-132445000D01*
X122940000Y-133580000D02*
X122940000Y-132092000D01*
X122259000Y-133580000D02*
X122259000Y-132330000D01*
X121379000Y-136174000D02*
X121379000Y-133066000D01*
X123100000Y-137176000D02*
X123100000Y-135660000D01*
X122419000Y-136985000D02*
X122419000Y-135660000D01*
X123420000Y-137200000D02*
X123420000Y-135660000D01*
X122539000Y-133580000D02*
X122539000Y-132206000D01*
X121939000Y-136715000D02*
X121939000Y-135660000D01*
X121819000Y-136624000D02*
X121819000Y-135660000D01*
X122860000Y-133580000D02*
X122860000Y-132109000D01*
X121619000Y-133580000D02*
X121619000Y-132794000D01*
X123340000Y-137198000D02*
X123340000Y-135660000D01*
X122219000Y-133580000D02*
X122219000Y-132352000D01*
X123100000Y-133580000D02*
X123100000Y-132064000D01*
X126264775Y-136095000D02*
X125764775Y-136095000D01*
X122739000Y-137100000D02*
X122739000Y-135660000D01*
X122419000Y-133580000D02*
X122419000Y-132255000D01*
X122780000Y-137111000D02*
X122780000Y-135660000D01*
X121699000Y-136521000D02*
X121699000Y-135660000D01*
X123460000Y-133580000D02*
X123460000Y-132040000D01*
X121259000Y-136003000D02*
X121259000Y-133237000D01*
X121499000Y-133580000D02*
X121499000Y-132921000D01*
X121939000Y-133580000D02*
X121939000Y-132525000D01*
X123420000Y-133580000D02*
X123420000Y-132040000D01*
X122739000Y-133580000D02*
X122739000Y-132140000D01*
X121459000Y-136273000D02*
X121459000Y-135660000D01*
X121899000Y-136685000D02*
X121899000Y-135660000D01*
X121779000Y-133580000D02*
X121779000Y-132649000D01*
X122259000Y-136910000D02*
X122259000Y-135660000D01*
X122659000Y-133580000D02*
X122659000Y-132165000D01*
X122299000Y-136930000D02*
X122299000Y-135660000D01*
X122900000Y-133580000D02*
X122900000Y-132100000D01*
X122499000Y-133580000D02*
X122499000Y-132222000D01*
X123180000Y-133580000D02*
X123180000Y-132055000D01*
X122459000Y-137002000D02*
X122459000Y-135660000D01*
X120859000Y-134904000D02*
X120859000Y-134336000D01*
X121459000Y-133580000D02*
X121459000Y-132967000D01*
X121539000Y-133580000D02*
X121539000Y-132877000D01*
X121899000Y-133580000D02*
X121899000Y-132555000D01*
X121859000Y-136655000D02*
X121859000Y-135660000D01*
X122019000Y-133580000D02*
X122019000Y-132471000D01*
X123060000Y-137170000D02*
X123060000Y-135660000D01*
X122659000Y-137075000D02*
X122659000Y-135660000D01*
X123060000Y-133580000D02*
X123060000Y-132070000D01*
X121539000Y-136363000D02*
X121539000Y-135660000D01*
X122099000Y-133580000D02*
X122099000Y-132420000D01*
X121779000Y-136591000D02*
X121779000Y-135660000D01*
X122539000Y-137034000D02*
X122539000Y-135660000D01*
X122780000Y-133580000D02*
X122780000Y-132129000D01*
X122219000Y-136888000D02*
X122219000Y-135660000D01*
X121139000Y-135798000D02*
X121139000Y-133442000D01*
X121019000Y-135535000D02*
X121019000Y-133705000D01*
X121979000Y-136742000D02*
X121979000Y-135660000D01*
X122179000Y-133580000D02*
X122179000Y-132373000D01*
X122499000Y-137018000D02*
X122499000Y-135660000D01*
X121739000Y-133580000D02*
X121739000Y-132683000D01*
X123260000Y-137193000D02*
X123260000Y-135660000D01*
X123180000Y-137185000D02*
X123180000Y-135660000D01*
X122980000Y-133580000D02*
X122980000Y-132084000D01*
X121819000Y-133580000D02*
X121819000Y-132616000D01*
X121219000Y-135939000D02*
X121219000Y-133301000D01*
X123220000Y-137189000D02*
X123220000Y-135660000D01*
X121699000Y-133580000D02*
X121699000Y-132719000D01*
X120979000Y-135425000D02*
X120979000Y-133815000D01*
X122139000Y-136844000D02*
X122139000Y-135660000D01*
X122179000Y-136867000D02*
X122179000Y-135660000D01*
X120899000Y-135138000D02*
X120899000Y-134102000D01*
X121659000Y-133580000D02*
X121659000Y-132756000D01*
X122379000Y-133580000D02*
X122379000Y-132272000D01*
X123020000Y-137163000D02*
X123020000Y-135660000D01*
X121579000Y-133580000D02*
X121579000Y-132835000D01*
X122980000Y-137156000D02*
X122980000Y-135660000D01*
X122579000Y-133580000D02*
X122579000Y-132192000D01*
X123460000Y-137200000D02*
X123460000Y-135660000D01*
X123340000Y-133580000D02*
X123340000Y-132042000D01*
X121059000Y-135631000D02*
X121059000Y-133609000D01*
X122139000Y-133580000D02*
X122139000Y-132396000D01*
X122900000Y-137140000D02*
X122900000Y-135660000D01*
X123220000Y-133580000D02*
X123220000Y-132051000D01*
X123300000Y-133580000D02*
X123300000Y-132044000D01*
X121659000Y-136484000D02*
X121659000Y-135660000D01*
X122299000Y-133580000D02*
X122299000Y-132310000D01*
X122579000Y-137048000D02*
X122579000Y-135660000D01*
X122339000Y-136949000D02*
X122339000Y-135660000D01*
X121099000Y-135718000D02*
X121099000Y-133522000D01*
X121979000Y-133580000D02*
X121979000Y-132498000D01*
X123020000Y-133580000D02*
X123020000Y-132077000D01*
X122099000Y-136820000D02*
X122099000Y-135660000D01*
X123140000Y-137181000D02*
X123140000Y-135660000D01*
X122699000Y-133580000D02*
X122699000Y-132152000D01*
X122820000Y-133580000D02*
X122820000Y-132119000D01*
X122820000Y-137121000D02*
X122820000Y-135660000D01*
X120939000Y-135297000D02*
X120939000Y-133943000D01*
X122619000Y-137062000D02*
X122619000Y-135660000D01*
X121339000Y-136120000D02*
X121339000Y-133120000D01*
X122860000Y-137131000D02*
X122860000Y-135660000D01*
X123260000Y-133580000D02*
X123260000Y-132047000D01*
X121739000Y-136557000D02*
X121739000Y-135660000D01*
X122619000Y-133580000D02*
X122619000Y-132178000D01*
X121859000Y-133580000D02*
X121859000Y-132585000D01*
X122940000Y-137148000D02*
X122940000Y-135660000D01*
X126014775Y-136345000D02*
X126014775Y-135845000D01*
X122459000Y-133580000D02*
X122459000Y-132238000D01*
X122339000Y-133580000D02*
X122339000Y-132291000D01*
X121619000Y-136446000D02*
X121619000Y-135660000D01*
X123380000Y-133580000D02*
X123380000Y-132041000D01*
X122059000Y-136795000D02*
X122059000Y-135660000D01*
X121499000Y-136319000D02*
X121499000Y-135660000D01*
X122699000Y-137088000D02*
X122699000Y-135660000D01*
X123140000Y-133580000D02*
X123140000Y-132059000D01*
X122019000Y-136769000D02*
X122019000Y-135660000D01*
X121179000Y-135871000D02*
X121179000Y-133369000D01*
X121579000Y-136405000D02*
X121579000Y-135660000D01*
X123300000Y-137196000D02*
X123300000Y-135660000D01*
X122379000Y-136968000D02*
X122379000Y-135660000D01*
X126080000Y-134620000D02*
G75*
G03*
X126080000Y-134620000I-2620000J0D01*
G01*
%TO.C,D2*%
X112105000Y-156244000D02*
X112105000Y-156400000D01*
X112105000Y-158560000D02*
X112105000Y-158716000D01*
X114706130Y-156400163D02*
G75*
G03*
X112624039Y-156400000I-1041130J-1079837D01*
G01*
X115337335Y-156401392D02*
G75*
G03*
X112105000Y-156244484I-1672335J-1078608D01*
G01*
X112624039Y-158560000D02*
G75*
G03*
X114706130Y-158559837I1040961J1080000D01*
G01*
X112105000Y-158715516D02*
G75*
G03*
X115337335Y-158558608I1560000J1235516D01*
G01*
%TO.C,X1*%
X27840000Y-70500000D02*
X27840000Y-82650000D01*
X40740000Y-81900000D02*
X40740000Y-70500000D01*
X27840000Y-82650000D02*
X39990000Y-82650000D01*
X39990000Y-69750000D02*
X28590000Y-69750000D01*
X28590000Y-69750000D02*
G75*
G03*
X27840000Y-70500000I0J-750000D01*
G01*
X39990000Y-82650000D02*
G75*
G03*
X40740000Y-81900000I0J750000D01*
G01*
X40740000Y-70500000D02*
G75*
G03*
X39990000Y-69750000I-750000J0D01*
G01*
%TO.C,C1*%
X36730000Y-120120000D02*
X36730000Y-123760000D01*
X36730000Y-120120000D02*
X36485000Y-120120000D01*
X34390000Y-120120000D02*
X34390000Y-123760000D01*
X36730000Y-123760000D02*
X36485000Y-123760000D01*
X34635000Y-123760000D02*
X34390000Y-123760000D01*
X34635000Y-120120000D02*
X34390000Y-120120000D01*
%TO.C,C9*%
X56620000Y-96865000D02*
X56620000Y-96620000D01*
X60260000Y-98960000D02*
X56620000Y-98960000D01*
X60260000Y-96620000D02*
X56620000Y-96620000D01*
X60260000Y-96865000D02*
X60260000Y-96620000D01*
X60260000Y-98960000D02*
X60260000Y-98715000D01*
X56620000Y-98960000D02*
X56620000Y-98715000D01*
%TO.C,R6*%
X131445000Y-120420000D02*
X131445000Y-121190000D01*
X130075000Y-127730000D02*
X132815000Y-127730000D01*
X132815000Y-127730000D02*
X132815000Y-121190000D01*
X132815000Y-121190000D02*
X130075000Y-121190000D01*
X130075000Y-121190000D02*
X130075000Y-127730000D01*
X131445000Y-128500000D02*
X131445000Y-127730000D01*
%TO.C,C12*%
X51370000Y-65115000D02*
X51370000Y-64870000D01*
X47730000Y-67210000D02*
X47730000Y-66965000D01*
X47730000Y-65115000D02*
X47730000Y-64870000D01*
X51370000Y-64870000D02*
X47730000Y-64870000D01*
X51370000Y-67210000D02*
X51370000Y-66965000D01*
X51370000Y-67210000D02*
X47730000Y-67210000D01*
%TO.C,J1*%
X30540000Y-121930000D02*
X30540000Y-129610000D01*
X27880000Y-129610000D02*
X30540000Y-129610000D01*
X27880000Y-121930000D02*
X30540000Y-121930000D01*
X27880000Y-121930000D02*
X27880000Y-129610000D01*
X27880000Y-120660000D02*
X27880000Y-119330000D01*
X27880000Y-119330000D02*
X29210000Y-119330000D01*
%TO.C,C16*%
X32450000Y-64870000D02*
X36090000Y-64870000D01*
X32450000Y-67210000D02*
X36090000Y-67210000D01*
X32450000Y-66965000D02*
X32450000Y-67210000D01*
X36090000Y-64870000D02*
X36090000Y-65115000D01*
X36090000Y-66965000D02*
X36090000Y-67210000D01*
X32450000Y-64870000D02*
X32450000Y-65115000D01*
%TO.C,C17*%
X40870000Y-65689888D02*
X39341000Y-65689888D01*
X43293000Y-67650888D02*
X42950000Y-67650888D01*
X40870000Y-66129888D02*
X39419000Y-66129888D01*
X43410000Y-67570888D02*
X42950000Y-67570888D01*
X43515000Y-67490888D02*
X42950000Y-67490888D01*
X40870000Y-67570888D02*
X40410000Y-67570888D01*
X40870000Y-67370888D02*
X40167000Y-67370888D01*
X43975000Y-67010888D02*
X42950000Y-67010888D01*
X40870000Y-67090888D02*
X39906000Y-67090888D01*
X43914000Y-67090888D02*
X42950000Y-67090888D01*
X40870000Y-66450888D02*
X39528000Y-66450888D01*
X40870000Y-67130888D02*
X39939000Y-67130888D01*
X44489000Y-65529888D02*
X39331000Y-65529888D01*
X40870000Y-65729888D02*
X39345000Y-65729888D01*
X40870000Y-67530888D02*
X40356000Y-67530888D01*
X44411000Y-66089888D02*
X42950000Y-66089888D01*
X40870000Y-66770888D02*
X39686000Y-66770888D01*
X44239000Y-66570888D02*
X42950000Y-66570888D01*
X44475000Y-65729888D02*
X42950000Y-65729888D01*
X40870000Y-66810888D02*
X39710000Y-66810888D01*
X44157000Y-66730888D02*
X42950000Y-66730888D01*
X43609000Y-67410888D02*
X42950000Y-67410888D01*
X44479000Y-65689888D02*
X42950000Y-65689888D01*
X40870000Y-67010888D02*
X39845000Y-67010888D01*
X44005000Y-66970888D02*
X42950000Y-66970888D01*
X40870000Y-66890888D02*
X39761000Y-66890888D01*
X44338000Y-66330888D02*
X42950000Y-66330888D01*
X43881000Y-67130888D02*
X42950000Y-67130888D01*
X44401000Y-66129888D02*
X42950000Y-66129888D01*
X43774000Y-67250888D02*
X42950000Y-67250888D01*
X40870000Y-66210888D02*
X39442000Y-66210888D01*
X43563000Y-67450888D02*
X42950000Y-67450888D01*
X43229000Y-67690888D02*
X42950000Y-67690888D01*
X40870000Y-67490888D02*
X40305000Y-67490888D01*
X43847000Y-67170888D02*
X42950000Y-67170888D01*
X40870000Y-66570888D02*
X39581000Y-66570888D01*
X44110000Y-66810888D02*
X42950000Y-66810888D01*
X40870000Y-66049888D02*
X39399000Y-66049888D01*
X40870000Y-66650888D02*
X39620000Y-66650888D01*
X40870000Y-67610888D02*
X40467000Y-67610888D01*
X44352000Y-66290888D02*
X42950000Y-66290888D01*
X44200000Y-66650888D02*
X42950000Y-66650888D01*
X40870000Y-67330888D02*
X40125000Y-67330888D01*
X40870000Y-66250888D02*
X39455000Y-66250888D01*
X44460000Y-65849888D02*
X42950000Y-65849888D01*
X43653000Y-67370888D02*
X42950000Y-67370888D01*
X40870000Y-66370888D02*
X39496000Y-66370888D01*
X44483000Y-65649888D02*
X39337000Y-65649888D01*
X44275000Y-66490888D02*
X42950000Y-66490888D01*
X44324000Y-66370888D02*
X42950000Y-66370888D01*
X40870000Y-65929888D02*
X39374000Y-65929888D01*
X43161000Y-67730888D02*
X42950000Y-67730888D01*
X40870000Y-66850888D02*
X39735000Y-66850888D01*
X40870000Y-67170888D02*
X39973000Y-67170888D01*
X42587000Y-67970888D02*
X41233000Y-67970888D01*
X40870000Y-67730888D02*
X40659000Y-67730888D01*
X44378000Y-66210888D02*
X42950000Y-66210888D01*
X40870000Y-66690888D02*
X39642000Y-66690888D01*
X44490000Y-65449888D02*
X39330000Y-65449888D01*
X44134000Y-66770888D02*
X42950000Y-66770888D01*
X40870000Y-65809888D02*
X39354000Y-65809888D01*
X40870000Y-66930888D02*
X39788000Y-66930888D01*
X40870000Y-67450888D02*
X40257000Y-67450888D01*
X44085000Y-66850888D02*
X42950000Y-66850888D01*
X40870000Y-66290888D02*
X39468000Y-66290888D01*
X43464000Y-67530888D02*
X42950000Y-67530888D01*
X44308000Y-66410888D02*
X42950000Y-66410888D01*
X44438000Y-65969888D02*
X42950000Y-65969888D01*
X40870000Y-66089888D02*
X39409000Y-66089888D01*
X42921000Y-67850888D02*
X40899000Y-67850888D01*
X44486000Y-65609888D02*
X39334000Y-65609888D01*
X44220000Y-66610888D02*
X42950000Y-66610888D01*
X40870000Y-67410888D02*
X40211000Y-67410888D01*
X42428000Y-68010888D02*
X41392000Y-68010888D01*
X40870000Y-67690888D02*
X40591000Y-67690888D01*
X44471000Y-65769888D02*
X42950000Y-65769888D01*
X40870000Y-65849888D02*
X39360000Y-65849888D01*
X43736000Y-67290888D02*
X42950000Y-67290888D01*
X42715000Y-67930888D02*
X41105000Y-67930888D01*
X40870000Y-66009888D02*
X39390000Y-66009888D01*
X44059000Y-66890888D02*
X42950000Y-66890888D01*
X40870000Y-67250888D02*
X40046000Y-67250888D01*
X40870000Y-66530888D02*
X39562000Y-66530888D01*
X43695000Y-67330888D02*
X42950000Y-67330888D01*
X44490000Y-65489888D02*
X39330000Y-65489888D01*
X40870000Y-66330888D02*
X39482000Y-66330888D01*
X44453000Y-65889888D02*
X42950000Y-65889888D01*
X43008000Y-67810888D02*
X40812000Y-67810888D01*
X40870000Y-65969888D02*
X39382000Y-65969888D01*
X44292000Y-66450888D02*
X42950000Y-66450888D01*
X42194000Y-68050888D02*
X41626000Y-68050888D01*
X44365000Y-66250888D02*
X42950000Y-66250888D01*
X42825000Y-67890888D02*
X40995000Y-67890888D01*
X40870000Y-67050888D02*
X39875000Y-67050888D01*
X43385000Y-62645113D02*
X43385000Y-63145113D01*
X40870000Y-67210888D02*
X40009000Y-67210888D01*
X40870000Y-66490888D02*
X39545000Y-66490888D01*
X44258000Y-66530888D02*
X42950000Y-66530888D01*
X44446000Y-65929888D02*
X42950000Y-65929888D01*
X40870000Y-66970888D02*
X39815000Y-66970888D01*
X40870000Y-66170888D02*
X39430000Y-66170888D01*
X44430000Y-66009888D02*
X42950000Y-66009888D01*
X40870000Y-65769888D02*
X39349000Y-65769888D01*
X40870000Y-67290888D02*
X40084000Y-67290888D01*
X44421000Y-66049888D02*
X42950000Y-66049888D01*
X40870000Y-67650888D02*
X40527000Y-67650888D01*
X43811000Y-67210888D02*
X42950000Y-67210888D01*
X44390000Y-66170888D02*
X42950000Y-66170888D01*
X43635000Y-62895113D02*
X43135000Y-62895113D01*
X44466000Y-65809888D02*
X42950000Y-65809888D01*
X40870000Y-66730888D02*
X39663000Y-66730888D01*
X44032000Y-66930888D02*
X42950000Y-66930888D01*
X40870000Y-66610888D02*
X39600000Y-66610888D01*
X44488000Y-65569888D02*
X39332000Y-65569888D01*
X43945000Y-67050888D02*
X42950000Y-67050888D01*
X43088000Y-67770888D02*
X40732000Y-67770888D01*
X40870000Y-65889888D02*
X39367000Y-65889888D01*
X44178000Y-66690888D02*
X42950000Y-66690888D01*
X40870000Y-66410888D02*
X39512000Y-66410888D01*
X43353000Y-67610888D02*
X42950000Y-67610888D01*
X44530000Y-65449888D02*
G75*
G03*
X44530000Y-65449888I-2620000J0D01*
G01*
%TO.C,C10*%
X107250000Y-65940000D02*
X103610000Y-65940000D01*
X107250000Y-63600000D02*
X103610000Y-63600000D01*
X103610000Y-65940000D02*
X103610000Y-65695000D01*
X107250000Y-63845000D02*
X107250000Y-63600000D01*
X103610000Y-63845000D02*
X103610000Y-63600000D01*
X107250000Y-65940000D02*
X107250000Y-65695000D01*
%TO.C,J2*%
X139760000Y-68520000D02*
X139760000Y-88960000D01*
X134560000Y-68520000D02*
X135890000Y-68520000D01*
X134560000Y-71120000D02*
X137160000Y-71120000D01*
X134560000Y-69850000D02*
X134560000Y-68520000D01*
X137160000Y-71120000D02*
X137160000Y-68520000D01*
X137160000Y-68520000D02*
X139760000Y-68520000D01*
X134560000Y-88960000D02*
X139760000Y-88960000D01*
X134560000Y-71120000D02*
X134560000Y-88960000D01*
%TO.C,C5*%
X131135000Y-111210000D02*
X130890000Y-111210000D01*
X130890000Y-111210000D02*
X130890000Y-114850000D01*
X133230000Y-111210000D02*
X133230000Y-114850000D01*
X133230000Y-114850000D02*
X132985000Y-114850000D01*
X131135000Y-114850000D02*
X130890000Y-114850000D01*
X133230000Y-111210000D02*
X132985000Y-111210000D01*
%TO.C,R1*%
X119380000Y-150090000D02*
X119380000Y-149320000D01*
X118010000Y-149320000D02*
X120750000Y-149320000D01*
X119380000Y-142010000D02*
X119380000Y-142780000D01*
X120750000Y-149320000D02*
X120750000Y-142780000D01*
X120750000Y-142780000D02*
X118010000Y-142780000D01*
X118010000Y-142780000D02*
X118010000Y-149320000D01*
%TO.C,C18*%
X29020000Y-155279112D02*
X30075000Y-155279112D01*
X28660000Y-155999112D02*
X30075000Y-155999112D01*
X32155000Y-154919112D02*
X32900000Y-154919112D01*
X29330000Y-154919112D02*
X30075000Y-154919112D01*
X32155000Y-155479112D02*
X33339000Y-155479112D01*
X32155000Y-155159112D02*
X33119000Y-155159112D01*
X32155000Y-154959112D02*
X32941000Y-154959112D01*
X32155000Y-156160112D02*
X33616000Y-156160112D01*
X32155000Y-155399112D02*
X33290000Y-155399112D01*
X32155000Y-154719112D02*
X32669000Y-154719112D01*
X28554000Y-156480112D02*
X30075000Y-156480112D01*
X32155000Y-155639112D02*
X33425000Y-155639112D01*
X28614000Y-156160112D02*
X30075000Y-156160112D01*
X32155000Y-154679112D02*
X32615000Y-154679112D01*
X28537000Y-156680112D02*
X33693000Y-156680112D01*
X32155000Y-154999112D02*
X32979000Y-154999112D01*
X32155000Y-154559112D02*
X32434000Y-154559112D01*
X28559000Y-156440112D02*
X30075000Y-156440112D01*
X29144000Y-155119112D02*
X30075000Y-155119112D01*
X32155000Y-154759112D02*
X32720000Y-154759112D01*
X32155000Y-155839112D02*
X33513000Y-155839112D01*
X28717000Y-155839112D02*
X30075000Y-155839112D01*
X32155000Y-156240112D02*
X33635000Y-156240112D01*
X32155000Y-156280112D02*
X33643000Y-156280112D01*
X32155000Y-155119112D02*
X33086000Y-155119112D01*
X32155000Y-155279112D02*
X33210000Y-155279112D01*
X28847000Y-155559112D02*
X30075000Y-155559112D01*
X28550000Y-156520112D02*
X30075000Y-156520112D01*
X32155000Y-155799112D02*
X33497000Y-155799112D01*
X29864000Y-154519112D02*
X30075000Y-154519112D01*
X32155000Y-155759112D02*
X33480000Y-155759112D01*
X32155000Y-155359112D02*
X33264000Y-155359112D01*
X30310000Y-154319112D02*
X31920000Y-154319112D01*
X30104000Y-154399112D02*
X32126000Y-154399112D01*
X30597000Y-154239112D02*
X31633000Y-154239112D01*
X28579000Y-156320112D02*
X30075000Y-156320112D01*
X29615000Y-154679112D02*
X30075000Y-154679112D01*
X28701000Y-155879112D02*
X30075000Y-155879112D01*
X32155000Y-155559112D02*
X33383000Y-155559112D01*
X29214000Y-155039112D02*
X30075000Y-155039112D01*
X28624000Y-156120112D02*
X30075000Y-156120112D01*
X32155000Y-156400112D02*
X33665000Y-156400112D01*
X29390000Y-159354887D02*
X29890000Y-159354887D01*
X29640000Y-159604887D02*
X29640000Y-159104887D01*
X29561000Y-154719112D02*
X30075000Y-154719112D01*
X28635000Y-156079112D02*
X30075000Y-156079112D01*
X28536000Y-156720112D02*
X33694000Y-156720112D01*
X28786000Y-155679112D02*
X30075000Y-155679112D01*
X30438000Y-154279112D02*
X31792000Y-154279112D01*
X29251000Y-154999112D02*
X30075000Y-154999112D01*
X30831000Y-154199112D02*
X31399000Y-154199112D01*
X32155000Y-156520112D02*
X33680000Y-156520112D01*
X28750000Y-155759112D02*
X30075000Y-155759112D01*
X29672000Y-154639112D02*
X30075000Y-154639112D01*
X32155000Y-155599112D02*
X33405000Y-155599112D01*
X28535000Y-156800112D02*
X33695000Y-156800112D01*
X28733000Y-155799112D02*
X30075000Y-155799112D01*
X28595000Y-156240112D02*
X30075000Y-156240112D01*
X28604000Y-156200112D02*
X30075000Y-156200112D01*
X32155000Y-155079112D02*
X33052000Y-155079112D01*
X28868000Y-155519112D02*
X30075000Y-155519112D01*
X29111000Y-155159112D02*
X30075000Y-155159112D01*
X28940000Y-155399112D02*
X30075000Y-155399112D01*
X32155000Y-156200112D02*
X33626000Y-156200112D01*
X30017000Y-154439112D02*
X32213000Y-154439112D01*
X32155000Y-154879112D02*
X32858000Y-154879112D01*
X29510000Y-154759112D02*
X30075000Y-154759112D01*
X28673000Y-155959112D02*
X30075000Y-155959112D01*
X28993000Y-155319112D02*
X30075000Y-155319112D01*
X28539000Y-156640112D02*
X33691000Y-156640112D01*
X32155000Y-155439112D02*
X33315000Y-155439112D01*
X29732000Y-154599112D02*
X30075000Y-154599112D01*
X28546000Y-156560112D02*
X30075000Y-156560112D01*
X32155000Y-155239112D02*
X33180000Y-155239112D01*
X32155000Y-155959112D02*
X33557000Y-155959112D01*
X32155000Y-156039112D02*
X33583000Y-156039112D01*
X28587000Y-156280112D02*
X30075000Y-156280112D01*
X32155000Y-156120112D02*
X33606000Y-156120112D01*
X32155000Y-155679112D02*
X33444000Y-155679112D01*
X29416000Y-154839112D02*
X30075000Y-154839112D01*
X32155000Y-156480112D02*
X33676000Y-156480112D01*
X32155000Y-155879112D02*
X33529000Y-155879112D01*
X28572000Y-156360112D02*
X30075000Y-156360112D01*
X29080000Y-155199112D02*
X30075000Y-155199112D01*
X32155000Y-155519112D02*
X33362000Y-155519112D01*
X28687000Y-155919112D02*
X30075000Y-155919112D01*
X32155000Y-155319112D02*
X33237000Y-155319112D01*
X32155000Y-156079112D02*
X33595000Y-156079112D01*
X29796000Y-154559112D02*
X30075000Y-154559112D01*
X32155000Y-154639112D02*
X32558000Y-154639112D01*
X32155000Y-156360112D02*
X33658000Y-156360112D01*
X29372000Y-154879112D02*
X30075000Y-154879112D01*
X32155000Y-156320112D02*
X33651000Y-156320112D01*
X30200000Y-154359112D02*
X32030000Y-154359112D01*
X32155000Y-154519112D02*
X32366000Y-154519112D01*
X29178000Y-155079112D02*
X30075000Y-155079112D01*
X28535000Y-156760112D02*
X33695000Y-156760112D01*
X32155000Y-155999112D02*
X33570000Y-155999112D01*
X28542000Y-156600112D02*
X33688000Y-156600112D01*
X32155000Y-156440112D02*
X33671000Y-156440112D01*
X28565000Y-156400112D02*
X30075000Y-156400112D01*
X32155000Y-155199112D02*
X33150000Y-155199112D01*
X32155000Y-154599112D02*
X32498000Y-154599112D01*
X32155000Y-155919112D02*
X33543000Y-155919112D01*
X29050000Y-155239112D02*
X30075000Y-155239112D01*
X29462000Y-154799112D02*
X30075000Y-154799112D01*
X32155000Y-154799112D02*
X32768000Y-154799112D01*
X32155000Y-155039112D02*
X33016000Y-155039112D01*
X29289000Y-154959112D02*
X30075000Y-154959112D01*
X28915000Y-155439112D02*
X30075000Y-155439112D01*
X28891000Y-155479112D02*
X30075000Y-155479112D01*
X28805000Y-155639112D02*
X30075000Y-155639112D01*
X29937000Y-154479112D02*
X32293000Y-154479112D01*
X32155000Y-154839112D02*
X32814000Y-154839112D01*
X28647000Y-156039112D02*
X30075000Y-156039112D01*
X32155000Y-155719112D02*
X33463000Y-155719112D01*
X32155000Y-156560112D02*
X33684000Y-156560112D01*
X28767000Y-155719112D02*
X30075000Y-155719112D01*
X28966000Y-155359112D02*
X30075000Y-155359112D01*
X28825000Y-155599112D02*
X30075000Y-155599112D01*
X33735000Y-156800112D02*
G75*
G03*
X33735000Y-156800112I-2620000J0D01*
G01*
%TO.C,C2*%
X125030000Y-95350000D02*
X121390000Y-95350000D01*
X121390000Y-95595000D02*
X121390000Y-95350000D01*
X125030000Y-95595000D02*
X125030000Y-95350000D01*
X125030000Y-97690000D02*
X121390000Y-97690000D01*
X125030000Y-97690000D02*
X125030000Y-97445000D01*
X121390000Y-97690000D02*
X121390000Y-97445000D01*
%TO.C,C15*%
X104639000Y-136985000D02*
X104639000Y-135660000D01*
X104359000Y-133580000D02*
X104359000Y-132396000D01*
X104319000Y-133580000D02*
X104319000Y-132420000D01*
X104039000Y-136624000D02*
X104039000Y-135660000D01*
X105280000Y-137170000D02*
X105280000Y-135660000D01*
X105360000Y-137181000D02*
X105360000Y-135660000D01*
X104119000Y-133580000D02*
X104119000Y-132555000D01*
X104759000Y-137034000D02*
X104759000Y-135660000D01*
X104719000Y-137018000D02*
X104719000Y-135660000D01*
X103319000Y-135718000D02*
X103319000Y-133522000D01*
X104679000Y-133580000D02*
X104679000Y-132238000D01*
X103159000Y-135297000D02*
X103159000Y-133943000D01*
X104199000Y-133580000D02*
X104199000Y-132498000D01*
X104959000Y-137100000D02*
X104959000Y-135660000D01*
X104159000Y-133580000D02*
X104159000Y-132525000D01*
X103919000Y-133580000D02*
X103919000Y-132719000D01*
X105080000Y-133580000D02*
X105080000Y-132109000D01*
X103359000Y-135798000D02*
X103359000Y-133442000D01*
X105240000Y-133580000D02*
X105240000Y-132077000D01*
X103879000Y-136484000D02*
X103879000Y-135660000D01*
X105160000Y-133580000D02*
X105160000Y-132092000D01*
X103719000Y-133580000D02*
X103719000Y-132921000D01*
X104799000Y-137048000D02*
X104799000Y-135660000D01*
X103919000Y-136521000D02*
X103919000Y-135660000D01*
X105680000Y-137200000D02*
X105680000Y-135660000D01*
X105440000Y-133580000D02*
X105440000Y-132051000D01*
X104679000Y-137002000D02*
X104679000Y-135660000D01*
X105200000Y-133580000D02*
X105200000Y-132084000D01*
X105240000Y-137163000D02*
X105240000Y-135660000D01*
X103999000Y-133580000D02*
X103999000Y-132649000D01*
X105040000Y-133580000D02*
X105040000Y-132119000D01*
X105000000Y-133580000D02*
X105000000Y-132129000D01*
X104919000Y-133580000D02*
X104919000Y-132152000D01*
X103399000Y-135871000D02*
X103399000Y-133369000D01*
X105040000Y-137121000D02*
X105040000Y-135660000D01*
X105440000Y-137189000D02*
X105440000Y-135660000D01*
X104839000Y-137062000D02*
X104839000Y-135660000D01*
X105480000Y-137193000D02*
X105480000Y-135660000D01*
X104239000Y-133580000D02*
X104239000Y-132471000D01*
X103599000Y-136174000D02*
X103599000Y-133066000D01*
X104439000Y-136888000D02*
X104439000Y-135660000D01*
X103839000Y-136446000D02*
X103839000Y-135660000D01*
X104759000Y-133580000D02*
X104759000Y-132206000D01*
X104959000Y-133580000D02*
X104959000Y-132140000D01*
X104519000Y-133580000D02*
X104519000Y-132310000D01*
X104399000Y-136867000D02*
X104399000Y-135660000D01*
X103439000Y-135939000D02*
X103439000Y-133301000D01*
X103759000Y-136363000D02*
X103759000Y-135660000D01*
X105560000Y-133580000D02*
X105560000Y-132042000D01*
X105160000Y-137148000D02*
X105160000Y-135660000D01*
X105640000Y-137200000D02*
X105640000Y-135660000D01*
X104599000Y-133580000D02*
X104599000Y-132272000D01*
X103279000Y-135631000D02*
X103279000Y-133609000D01*
X104479000Y-136910000D02*
X104479000Y-135660000D01*
X104079000Y-136655000D02*
X104079000Y-135660000D01*
X104559000Y-136949000D02*
X104559000Y-135660000D01*
X103839000Y-133580000D02*
X103839000Y-132794000D01*
X104359000Y-136844000D02*
X104359000Y-135660000D01*
X105600000Y-137199000D02*
X105600000Y-135660000D01*
X105320000Y-133580000D02*
X105320000Y-132064000D01*
X104799000Y-133580000D02*
X104799000Y-132192000D01*
X104599000Y-136968000D02*
X104599000Y-135660000D01*
X105400000Y-137185000D02*
X105400000Y-135660000D01*
X104639000Y-133580000D02*
X104639000Y-132255000D01*
X105520000Y-133580000D02*
X105520000Y-132044000D01*
X103519000Y-136063000D02*
X103519000Y-133177000D01*
X104039000Y-133580000D02*
X104039000Y-132616000D01*
X105560000Y-137198000D02*
X105560000Y-135660000D01*
X104399000Y-133580000D02*
X104399000Y-132373000D01*
X105520000Y-137196000D02*
X105520000Y-135660000D01*
X105360000Y-133580000D02*
X105360000Y-132059000D01*
X103879000Y-133580000D02*
X103879000Y-132756000D01*
X103959000Y-136557000D02*
X103959000Y-135660000D01*
X103119000Y-135138000D02*
X103119000Y-134102000D01*
X105480000Y-133580000D02*
X105480000Y-132047000D01*
X104559000Y-133580000D02*
X104559000Y-132291000D01*
X103999000Y-136591000D02*
X103999000Y-135660000D01*
X103479000Y-136003000D02*
X103479000Y-133237000D01*
X104279000Y-136795000D02*
X104279000Y-135660000D01*
X104879000Y-137075000D02*
X104879000Y-135660000D01*
X103239000Y-135535000D02*
X103239000Y-133705000D01*
X103199000Y-135425000D02*
X103199000Y-133815000D01*
X103719000Y-136319000D02*
X103719000Y-135660000D01*
X104319000Y-136820000D02*
X104319000Y-135660000D01*
X108234775Y-136345000D02*
X108234775Y-135845000D01*
X103559000Y-136120000D02*
X103559000Y-133120000D01*
X105600000Y-133580000D02*
X105600000Y-132041000D01*
X103959000Y-133580000D02*
X103959000Y-132683000D01*
X105280000Y-133580000D02*
X105280000Y-132070000D01*
X103639000Y-136225000D02*
X103639000Y-133015000D01*
X104119000Y-136685000D02*
X104119000Y-135660000D01*
X104879000Y-133580000D02*
X104879000Y-132165000D01*
X104159000Y-136715000D02*
X104159000Y-135660000D01*
X103799000Y-136405000D02*
X103799000Y-135660000D01*
X103679000Y-136273000D02*
X103679000Y-135660000D01*
X103799000Y-133580000D02*
X103799000Y-132835000D01*
X105120000Y-133580000D02*
X105120000Y-132100000D01*
X105320000Y-137176000D02*
X105320000Y-135660000D01*
X105120000Y-137140000D02*
X105120000Y-135660000D01*
X105680000Y-133580000D02*
X105680000Y-132040000D01*
X104839000Y-133580000D02*
X104839000Y-132178000D01*
X103679000Y-133580000D02*
X103679000Y-132967000D01*
X105000000Y-137111000D02*
X105000000Y-135660000D01*
X105080000Y-137131000D02*
X105080000Y-135660000D01*
X108484775Y-136095000D02*
X107984775Y-136095000D01*
X104919000Y-137088000D02*
X104919000Y-135660000D01*
X104479000Y-133580000D02*
X104479000Y-132330000D01*
X104279000Y-133580000D02*
X104279000Y-132445000D01*
X105200000Y-137156000D02*
X105200000Y-135660000D01*
X104239000Y-136769000D02*
X104239000Y-135660000D01*
X105400000Y-133580000D02*
X105400000Y-132055000D01*
X104199000Y-136742000D02*
X104199000Y-135660000D01*
X104519000Y-136930000D02*
X104519000Y-135660000D01*
X105640000Y-133580000D02*
X105640000Y-132040000D01*
X104719000Y-133580000D02*
X104719000Y-132222000D01*
X103079000Y-134904000D02*
X103079000Y-134336000D01*
X104439000Y-133580000D02*
X104439000Y-132352000D01*
X104079000Y-133580000D02*
X104079000Y-132585000D01*
X103759000Y-133580000D02*
X103759000Y-132877000D01*
X108300000Y-134620000D02*
G75*
G03*
X108300000Y-134620000I-2620000J0D01*
G01*
%TO.C,J6*%
X62230000Y-148590000D02*
X60960000Y-148590000D01*
X50860000Y-140080000D02*
X50860000Y-139320000D01*
X50860000Y-146940000D02*
X56860000Y-146940000D01*
X56860000Y-147520000D02*
X50860000Y-147520000D01*
X59917071Y-142620000D02*
X59520000Y-142620000D01*
X56860000Y-148650000D02*
X59520000Y-148650000D01*
X59917071Y-139320000D02*
X59520000Y-139320000D01*
X59917071Y-140080000D02*
X59520000Y-140080000D01*
X62230000Y-147320000D02*
X62230000Y-148590000D01*
X56860000Y-147400000D02*
X50860000Y-147400000D01*
X59520000Y-143510000D02*
X56860000Y-143510000D01*
X59520000Y-148650000D02*
X59520000Y-138370000D01*
X56860000Y-147280000D02*
X50860000Y-147280000D01*
X56860000Y-140080000D02*
X50860000Y-140080000D01*
X50860000Y-144400000D02*
X56860000Y-144400000D01*
X59520000Y-146050000D02*
X56860000Y-146050000D01*
X56860000Y-147640000D02*
X50860000Y-147640000D01*
X59520000Y-138370000D02*
X56860000Y-138370000D01*
X56860000Y-138370000D02*
X56860000Y-148650000D01*
X59917071Y-145160000D02*
X59520000Y-145160000D01*
X50860000Y-145160000D02*
X50860000Y-144400000D01*
X50860000Y-139320000D02*
X56860000Y-139320000D01*
X59520000Y-140970000D02*
X56860000Y-140970000D01*
X56860000Y-142620000D02*
X50860000Y-142620000D01*
X50860000Y-147700000D02*
X50860000Y-146940000D01*
X59850000Y-146940000D02*
X59520000Y-146940000D01*
X56860000Y-147700000D02*
X50860000Y-147700000D01*
X59917071Y-144400000D02*
X59520000Y-144400000D01*
X50860000Y-141860000D02*
X56860000Y-141860000D01*
X56860000Y-147160000D02*
X50860000Y-147160000D01*
X59917071Y-141860000D02*
X59520000Y-141860000D01*
X56860000Y-147040000D02*
X50860000Y-147040000D01*
X59850000Y-147700000D02*
X59520000Y-147700000D01*
X50860000Y-142620000D02*
X50860000Y-141860000D01*
X56860000Y-145160000D02*
X50860000Y-145160000D01*
%TO.C,U2*%
X72290000Y-86415000D02*
X77590000Y-86415000D01*
X77590000Y-86415000D02*
X77590000Y-68515000D01*
X77590000Y-68515000D02*
X75940000Y-68515000D01*
X72290000Y-68515000D02*
X72290000Y-86415000D01*
X73940000Y-68515000D02*
X72290000Y-68515000D01*
X73940000Y-68515000D02*
G75*
G03*
X75940000Y-68515000I1000000J0D01*
G01*
%TO.C,U7*%
X83550000Y-146105000D02*
X89010000Y-146105000D01*
X76090000Y-146105000D02*
X81550000Y-146105000D01*
X89010000Y-146105000D02*
X89010000Y-95185000D01*
X76090000Y-95185000D02*
X76090000Y-146105000D01*
X89010000Y-95185000D02*
X76090000Y-95185000D01*
X83550000Y-146105000D02*
G75*
G03*
X81550000Y-146105000I-1000000J0D01*
G01*
%TD*%
M02*
