%TF.GenerationSoftware,KiCad,Pcbnew,7.0.9-7.0.9~ubuntu22.04.1*%
%TF.CreationDate,2023-12-29T15:53:16-05:00*%
%TF.ProjectId,dac,6461632e-6b69-4636-9164-5f7063625858,rev?*%
%TF.SameCoordinates,Original*%
%TF.FileFunction,Legend,Top*%
%TF.FilePolarity,Positive*%
%FSLAX46Y46*%
G04 Gerber Fmt 4.6, Leading zero omitted, Abs format (unit mm)*
G04 Created by KiCad (PCBNEW 7.0.9-7.0.9~ubuntu22.04.1) date 2023-12-29 15:53:16*
%MOMM*%
%LPD*%
G01*
G04 APERTURE LIST*
%ADD10C,0.203200*%
%ADD11C,0.152400*%
%ADD12C,0.150000*%
%ADD13C,0.120000*%
G04 APERTURE END LIST*
D10*
X33020000Y-133350000D02*
X63500000Y-133350000D01*
X63500000Y-153670000D01*
X33020000Y-153670000D01*
X33020000Y-133350000D01*
D11*
X38970856Y-130073820D02*
X38462856Y-130073820D01*
X38462856Y-130872106D02*
X38462856Y-129348106D01*
X38462856Y-129348106D02*
X39188570Y-129348106D01*
X39551427Y-129348106D02*
X40422285Y-129348106D01*
X39986856Y-130872106D02*
X39986856Y-129348106D01*
X40857713Y-129493249D02*
X40930285Y-129420677D01*
X40930285Y-129420677D02*
X41075428Y-129348106D01*
X41075428Y-129348106D02*
X41438285Y-129348106D01*
X41438285Y-129348106D02*
X41583428Y-129420677D01*
X41583428Y-129420677D02*
X41655999Y-129493249D01*
X41655999Y-129493249D02*
X41728570Y-129638392D01*
X41728570Y-129638392D02*
X41728570Y-129783535D01*
X41728570Y-129783535D02*
X41655999Y-130001249D01*
X41655999Y-130001249D02*
X40785142Y-130872106D01*
X40785142Y-130872106D02*
X41728570Y-130872106D01*
X42236571Y-129348106D02*
X43179999Y-129348106D01*
X43179999Y-129348106D02*
X42671999Y-129928677D01*
X42671999Y-129928677D02*
X42889714Y-129928677D01*
X42889714Y-129928677D02*
X43034857Y-130001249D01*
X43034857Y-130001249D02*
X43107428Y-130073820D01*
X43107428Y-130073820D02*
X43179999Y-130218963D01*
X43179999Y-130218963D02*
X43179999Y-130581820D01*
X43179999Y-130581820D02*
X43107428Y-130726963D01*
X43107428Y-130726963D02*
X43034857Y-130799535D01*
X43034857Y-130799535D02*
X42889714Y-130872106D01*
X42889714Y-130872106D02*
X42454285Y-130872106D01*
X42454285Y-130872106D02*
X42309142Y-130799535D01*
X42309142Y-130799535D02*
X42236571Y-130726963D01*
X43760571Y-129493249D02*
X43833143Y-129420677D01*
X43833143Y-129420677D02*
X43978286Y-129348106D01*
X43978286Y-129348106D02*
X44341143Y-129348106D01*
X44341143Y-129348106D02*
X44486286Y-129420677D01*
X44486286Y-129420677D02*
X44558857Y-129493249D01*
X44558857Y-129493249D02*
X44631428Y-129638392D01*
X44631428Y-129638392D02*
X44631428Y-129783535D01*
X44631428Y-129783535D02*
X44558857Y-130001249D01*
X44558857Y-130001249D02*
X43688000Y-130872106D01*
X43688000Y-130872106D02*
X44631428Y-130872106D01*
X46445715Y-129348106D02*
X46445715Y-130581820D01*
X46445715Y-130581820D02*
X46518286Y-130726963D01*
X46518286Y-130726963D02*
X46590858Y-130799535D01*
X46590858Y-130799535D02*
X46736000Y-130872106D01*
X46736000Y-130872106D02*
X47026286Y-130872106D01*
X47026286Y-130872106D02*
X47171429Y-130799535D01*
X47171429Y-130799535D02*
X47244000Y-130726963D01*
X47244000Y-130726963D02*
X47316572Y-130581820D01*
X47316572Y-130581820D02*
X47316572Y-129348106D01*
X47969714Y-130799535D02*
X48187429Y-130872106D01*
X48187429Y-130872106D02*
X48550286Y-130872106D01*
X48550286Y-130872106D02*
X48695429Y-130799535D01*
X48695429Y-130799535D02*
X48768000Y-130726963D01*
X48768000Y-130726963D02*
X48840571Y-130581820D01*
X48840571Y-130581820D02*
X48840571Y-130436677D01*
X48840571Y-130436677D02*
X48768000Y-130291535D01*
X48768000Y-130291535D02*
X48695429Y-130218963D01*
X48695429Y-130218963D02*
X48550286Y-130146392D01*
X48550286Y-130146392D02*
X48260000Y-130073820D01*
X48260000Y-130073820D02*
X48114857Y-130001249D01*
X48114857Y-130001249D02*
X48042286Y-129928677D01*
X48042286Y-129928677D02*
X47969714Y-129783535D01*
X47969714Y-129783535D02*
X47969714Y-129638392D01*
X47969714Y-129638392D02*
X48042286Y-129493249D01*
X48042286Y-129493249D02*
X48114857Y-129420677D01*
X48114857Y-129420677D02*
X48260000Y-129348106D01*
X48260000Y-129348106D02*
X48622857Y-129348106D01*
X48622857Y-129348106D02*
X48840571Y-129420677D01*
X50001715Y-130073820D02*
X50219429Y-130146392D01*
X50219429Y-130146392D02*
X50292000Y-130218963D01*
X50292000Y-130218963D02*
X50364572Y-130364106D01*
X50364572Y-130364106D02*
X50364572Y-130581820D01*
X50364572Y-130581820D02*
X50292000Y-130726963D01*
X50292000Y-130726963D02*
X50219429Y-130799535D01*
X50219429Y-130799535D02*
X50074286Y-130872106D01*
X50074286Y-130872106D02*
X49493715Y-130872106D01*
X49493715Y-130872106D02*
X49493715Y-129348106D01*
X49493715Y-129348106D02*
X50001715Y-129348106D01*
X50001715Y-129348106D02*
X50146858Y-129420677D01*
X50146858Y-129420677D02*
X50219429Y-129493249D01*
X50219429Y-129493249D02*
X50292000Y-129638392D01*
X50292000Y-129638392D02*
X50292000Y-129783535D01*
X50292000Y-129783535D02*
X50219429Y-129928677D01*
X50219429Y-129928677D02*
X50146858Y-130001249D01*
X50146858Y-130001249D02*
X50001715Y-130073820D01*
X50001715Y-130073820D02*
X49493715Y-130073820D01*
X52106286Y-130799535D02*
X52324001Y-130872106D01*
X52324001Y-130872106D02*
X52686858Y-130872106D01*
X52686858Y-130872106D02*
X52832001Y-130799535D01*
X52832001Y-130799535D02*
X52904572Y-130726963D01*
X52904572Y-130726963D02*
X52977143Y-130581820D01*
X52977143Y-130581820D02*
X52977143Y-130436677D01*
X52977143Y-130436677D02*
X52904572Y-130291535D01*
X52904572Y-130291535D02*
X52832001Y-130218963D01*
X52832001Y-130218963D02*
X52686858Y-130146392D01*
X52686858Y-130146392D02*
X52396572Y-130073820D01*
X52396572Y-130073820D02*
X52251429Y-130001249D01*
X52251429Y-130001249D02*
X52178858Y-129928677D01*
X52178858Y-129928677D02*
X52106286Y-129783535D01*
X52106286Y-129783535D02*
X52106286Y-129638392D01*
X52106286Y-129638392D02*
X52178858Y-129493249D01*
X52178858Y-129493249D02*
X52251429Y-129420677D01*
X52251429Y-129420677D02*
X52396572Y-129348106D01*
X52396572Y-129348106D02*
X52759429Y-129348106D01*
X52759429Y-129348106D02*
X52977143Y-129420677D01*
X54210858Y-130799535D02*
X54065715Y-130872106D01*
X54065715Y-130872106D02*
X53775430Y-130872106D01*
X53775430Y-130872106D02*
X53630287Y-130799535D01*
X53630287Y-130799535D02*
X53557715Y-130654392D01*
X53557715Y-130654392D02*
X53557715Y-130073820D01*
X53557715Y-130073820D02*
X53630287Y-129928677D01*
X53630287Y-129928677D02*
X53775430Y-129856106D01*
X53775430Y-129856106D02*
X54065715Y-129856106D01*
X54065715Y-129856106D02*
X54210858Y-129928677D01*
X54210858Y-129928677D02*
X54283430Y-130073820D01*
X54283430Y-130073820D02*
X54283430Y-130218963D01*
X54283430Y-130218963D02*
X53557715Y-130364106D01*
X54936573Y-130872106D02*
X54936573Y-129856106D01*
X54936573Y-130146392D02*
X55009144Y-130001249D01*
X55009144Y-130001249D02*
X55081716Y-129928677D01*
X55081716Y-129928677D02*
X55226858Y-129856106D01*
X55226858Y-129856106D02*
X55372001Y-129856106D01*
X55880002Y-130872106D02*
X55880002Y-129856106D01*
X55880002Y-129348106D02*
X55807430Y-129420677D01*
X55807430Y-129420677D02*
X55880002Y-129493249D01*
X55880002Y-129493249D02*
X55952573Y-129420677D01*
X55952573Y-129420677D02*
X55880002Y-129348106D01*
X55880002Y-129348106D02*
X55880002Y-129493249D01*
X57258859Y-130872106D02*
X57258859Y-130073820D01*
X57258859Y-130073820D02*
X57186287Y-129928677D01*
X57186287Y-129928677D02*
X57041144Y-129856106D01*
X57041144Y-129856106D02*
X56750859Y-129856106D01*
X56750859Y-129856106D02*
X56605716Y-129928677D01*
X57258859Y-130799535D02*
X57113716Y-130872106D01*
X57113716Y-130872106D02*
X56750859Y-130872106D01*
X56750859Y-130872106D02*
X56605716Y-130799535D01*
X56605716Y-130799535D02*
X56533144Y-130654392D01*
X56533144Y-130654392D02*
X56533144Y-130509249D01*
X56533144Y-130509249D02*
X56605716Y-130364106D01*
X56605716Y-130364106D02*
X56750859Y-130291535D01*
X56750859Y-130291535D02*
X57113716Y-130291535D01*
X57113716Y-130291535D02*
X57258859Y-130218963D01*
X58202287Y-130872106D02*
X58057144Y-130799535D01*
X58057144Y-130799535D02*
X57984573Y-130654392D01*
X57984573Y-130654392D02*
X57984573Y-129348106D01*
X29645428Y-85152106D02*
X28774571Y-85152106D01*
X29210000Y-85152106D02*
X29210000Y-83628106D01*
X29210000Y-83628106D02*
X29064857Y-83845820D01*
X29064857Y-83845820D02*
X28919714Y-83990963D01*
X28919714Y-83990963D02*
X28774571Y-84063535D01*
X64062427Y-80598249D02*
X64134999Y-80525677D01*
X64134999Y-80525677D02*
X64280142Y-80453106D01*
X64280142Y-80453106D02*
X64642999Y-80453106D01*
X64642999Y-80453106D02*
X64788142Y-80525677D01*
X64788142Y-80525677D02*
X64860713Y-80598249D01*
X64860713Y-80598249D02*
X64933284Y-80743392D01*
X64933284Y-80743392D02*
X64933284Y-80888535D01*
X64933284Y-80888535D02*
X64860713Y-81106249D01*
X64860713Y-81106249D02*
X63989856Y-81977106D01*
X63989856Y-81977106D02*
X64933284Y-81977106D01*
X66239571Y-80961106D02*
X66239571Y-81977106D01*
X65876713Y-80380535D02*
X65513856Y-81469106D01*
X65513856Y-81469106D02*
X66457285Y-81469106D01*
X67328142Y-80453106D02*
X67473285Y-80453106D01*
X67473285Y-80453106D02*
X67618428Y-80525677D01*
X67618428Y-80525677D02*
X67691000Y-80598249D01*
X67691000Y-80598249D02*
X67763571Y-80743392D01*
X67763571Y-80743392D02*
X67836142Y-81033677D01*
X67836142Y-81033677D02*
X67836142Y-81396535D01*
X67836142Y-81396535D02*
X67763571Y-81686820D01*
X67763571Y-81686820D02*
X67691000Y-81831963D01*
X67691000Y-81831963D02*
X67618428Y-81904535D01*
X67618428Y-81904535D02*
X67473285Y-81977106D01*
X67473285Y-81977106D02*
X67328142Y-81977106D01*
X67328142Y-81977106D02*
X67183000Y-81904535D01*
X67183000Y-81904535D02*
X67110428Y-81831963D01*
X67110428Y-81831963D02*
X67037857Y-81686820D01*
X67037857Y-81686820D02*
X66965285Y-81396535D01*
X66965285Y-81396535D02*
X66965285Y-81033677D01*
X66965285Y-81033677D02*
X67037857Y-80743392D01*
X67037857Y-80743392D02*
X67110428Y-80598249D01*
X67110428Y-80598249D02*
X67183000Y-80525677D01*
X67183000Y-80525677D02*
X67328142Y-80453106D01*
X68779571Y-80453106D02*
X68924714Y-80453106D01*
X68924714Y-80453106D02*
X69069857Y-80525677D01*
X69069857Y-80525677D02*
X69142429Y-80598249D01*
X69142429Y-80598249D02*
X69215000Y-80743392D01*
X69215000Y-80743392D02*
X69287571Y-81033677D01*
X69287571Y-81033677D02*
X69287571Y-81396535D01*
X69287571Y-81396535D02*
X69215000Y-81686820D01*
X69215000Y-81686820D02*
X69142429Y-81831963D01*
X69142429Y-81831963D02*
X69069857Y-81904535D01*
X69069857Y-81904535D02*
X68924714Y-81977106D01*
X68924714Y-81977106D02*
X68779571Y-81977106D01*
X68779571Y-81977106D02*
X68634429Y-81904535D01*
X68634429Y-81904535D02*
X68561857Y-81831963D01*
X68561857Y-81831963D02*
X68489286Y-81686820D01*
X68489286Y-81686820D02*
X68416714Y-81396535D01*
X68416714Y-81396535D02*
X68416714Y-81033677D01*
X68416714Y-81033677D02*
X68489286Y-80743392D01*
X68489286Y-80743392D02*
X68561857Y-80598249D01*
X68561857Y-80598249D02*
X68634429Y-80525677D01*
X68634429Y-80525677D02*
X68779571Y-80453106D01*
X64679285Y-74357106D02*
X63808428Y-74357106D01*
X64243857Y-74357106D02*
X64243857Y-72833106D01*
X64243857Y-72833106D02*
X64098714Y-73050820D01*
X64098714Y-73050820D02*
X63953571Y-73195963D01*
X63953571Y-73195963D02*
X63808428Y-73268535D01*
X65405000Y-74357106D02*
X65695286Y-74357106D01*
X65695286Y-74357106D02*
X65840429Y-74284535D01*
X65840429Y-74284535D02*
X65913000Y-74211963D01*
X65913000Y-74211963D02*
X66058143Y-73994249D01*
X66058143Y-73994249D02*
X66130714Y-73703963D01*
X66130714Y-73703963D02*
X66130714Y-73123392D01*
X66130714Y-73123392D02*
X66058143Y-72978249D01*
X66058143Y-72978249D02*
X65985572Y-72905677D01*
X65985572Y-72905677D02*
X65840429Y-72833106D01*
X65840429Y-72833106D02*
X65550143Y-72833106D01*
X65550143Y-72833106D02*
X65405000Y-72905677D01*
X65405000Y-72905677D02*
X65332429Y-72978249D01*
X65332429Y-72978249D02*
X65259857Y-73123392D01*
X65259857Y-73123392D02*
X65259857Y-73486249D01*
X65259857Y-73486249D02*
X65332429Y-73631392D01*
X65332429Y-73631392D02*
X65405000Y-73703963D01*
X65405000Y-73703963D02*
X65550143Y-73776535D01*
X65550143Y-73776535D02*
X65840429Y-73776535D01*
X65840429Y-73776535D02*
X65985572Y-73703963D01*
X65985572Y-73703963D02*
X66058143Y-73631392D01*
X66058143Y-73631392D02*
X66130714Y-73486249D01*
X66783858Y-74211963D02*
X66856429Y-74284535D01*
X66856429Y-74284535D02*
X66783858Y-74357106D01*
X66783858Y-74357106D02*
X66711286Y-74284535D01*
X66711286Y-74284535D02*
X66783858Y-74211963D01*
X66783858Y-74211963D02*
X66783858Y-74357106D01*
X67437000Y-72978249D02*
X67509572Y-72905677D01*
X67509572Y-72905677D02*
X67654715Y-72833106D01*
X67654715Y-72833106D02*
X68017572Y-72833106D01*
X68017572Y-72833106D02*
X68162715Y-72905677D01*
X68162715Y-72905677D02*
X68235286Y-72978249D01*
X68235286Y-72978249D02*
X68307857Y-73123392D01*
X68307857Y-73123392D02*
X68307857Y-73268535D01*
X68307857Y-73268535D02*
X68235286Y-73486249D01*
X68235286Y-73486249D02*
X67364429Y-74357106D01*
X67364429Y-74357106D02*
X68307857Y-74357106D01*
X68961001Y-74357106D02*
X68961001Y-72833106D01*
X69106144Y-73776535D02*
X69541572Y-74357106D01*
X69541572Y-73341106D02*
X68961001Y-73921677D01*
X136053286Y-151192106D02*
X136053286Y-149668106D01*
X136053286Y-150393820D02*
X136924143Y-150393820D01*
X136924143Y-151192106D02*
X136924143Y-149668106D01*
X137432142Y-149668106D02*
X137940142Y-151192106D01*
X137940142Y-151192106D02*
X138448142Y-149668106D01*
X140697857Y-151119535D02*
X140552714Y-151192106D01*
X140552714Y-151192106D02*
X140262429Y-151192106D01*
X140262429Y-151192106D02*
X140117286Y-151119535D01*
X140117286Y-151119535D02*
X140044714Y-150974392D01*
X140044714Y-150974392D02*
X140044714Y-150393820D01*
X140044714Y-150393820D02*
X140117286Y-150248677D01*
X140117286Y-150248677D02*
X140262429Y-150176106D01*
X140262429Y-150176106D02*
X140552714Y-150176106D01*
X140552714Y-150176106D02*
X140697857Y-150248677D01*
X140697857Y-150248677D02*
X140770429Y-150393820D01*
X140770429Y-150393820D02*
X140770429Y-150538963D01*
X140770429Y-150538963D02*
X140044714Y-150684106D01*
X141423572Y-150176106D02*
X141423572Y-151192106D01*
X141423572Y-150321249D02*
X141496143Y-150248677D01*
X141496143Y-150248677D02*
X141641286Y-150176106D01*
X141641286Y-150176106D02*
X141859000Y-150176106D01*
X141859000Y-150176106D02*
X142004143Y-150248677D01*
X142004143Y-150248677D02*
X142076715Y-150393820D01*
X142076715Y-150393820D02*
X142076715Y-151192106D01*
X56515000Y-67208820D02*
X56732714Y-67281392D01*
X56732714Y-67281392D02*
X56805285Y-67353963D01*
X56805285Y-67353963D02*
X56877857Y-67499106D01*
X56877857Y-67499106D02*
X56877857Y-67716820D01*
X56877857Y-67716820D02*
X56805285Y-67861963D01*
X56805285Y-67861963D02*
X56732714Y-67934535D01*
X56732714Y-67934535D02*
X56587571Y-68007106D01*
X56587571Y-68007106D02*
X56007000Y-68007106D01*
X56007000Y-68007106D02*
X56007000Y-66483106D01*
X56007000Y-66483106D02*
X56515000Y-66483106D01*
X56515000Y-66483106D02*
X56660143Y-66555677D01*
X56660143Y-66555677D02*
X56732714Y-66628249D01*
X56732714Y-66628249D02*
X56805285Y-66773392D01*
X56805285Y-66773392D02*
X56805285Y-66918535D01*
X56805285Y-66918535D02*
X56732714Y-67063677D01*
X56732714Y-67063677D02*
X56660143Y-67136249D01*
X56660143Y-67136249D02*
X56515000Y-67208820D01*
X56515000Y-67208820D02*
X56007000Y-67208820D01*
X58184143Y-68007106D02*
X58184143Y-67208820D01*
X58184143Y-67208820D02*
X58111571Y-67063677D01*
X58111571Y-67063677D02*
X57966428Y-66991106D01*
X57966428Y-66991106D02*
X57676143Y-66991106D01*
X57676143Y-66991106D02*
X57531000Y-67063677D01*
X58184143Y-67934535D02*
X58039000Y-68007106D01*
X58039000Y-68007106D02*
X57676143Y-68007106D01*
X57676143Y-68007106D02*
X57531000Y-67934535D01*
X57531000Y-67934535D02*
X57458428Y-67789392D01*
X57458428Y-67789392D02*
X57458428Y-67644249D01*
X57458428Y-67644249D02*
X57531000Y-67499106D01*
X57531000Y-67499106D02*
X57676143Y-67426535D01*
X57676143Y-67426535D02*
X58039000Y-67426535D01*
X58039000Y-67426535D02*
X58184143Y-67353963D01*
X59563000Y-66991106D02*
X59563000Y-68007106D01*
X58909857Y-66991106D02*
X58909857Y-67789392D01*
X58909857Y-67789392D02*
X58982428Y-67934535D01*
X58982428Y-67934535D02*
X59127571Y-68007106D01*
X59127571Y-68007106D02*
X59345285Y-68007106D01*
X59345285Y-68007106D02*
X59490428Y-67934535D01*
X59490428Y-67934535D02*
X59563000Y-67861963D01*
X60941857Y-68007106D02*
X60941857Y-66483106D01*
X60941857Y-67934535D02*
X60796714Y-68007106D01*
X60796714Y-68007106D02*
X60506428Y-68007106D01*
X60506428Y-68007106D02*
X60361285Y-67934535D01*
X60361285Y-67934535D02*
X60288714Y-67861963D01*
X60288714Y-67861963D02*
X60216142Y-67716820D01*
X60216142Y-67716820D02*
X60216142Y-67281392D01*
X60216142Y-67281392D02*
X60288714Y-67136249D01*
X60288714Y-67136249D02*
X60361285Y-67063677D01*
X60361285Y-67063677D02*
X60506428Y-66991106D01*
X60506428Y-66991106D02*
X60796714Y-66991106D01*
X60796714Y-66991106D02*
X60941857Y-67063677D01*
X63699571Y-68007106D02*
X63191571Y-67281392D01*
X62828714Y-68007106D02*
X62828714Y-66483106D01*
X62828714Y-66483106D02*
X63409285Y-66483106D01*
X63409285Y-66483106D02*
X63554428Y-66555677D01*
X63554428Y-66555677D02*
X63626999Y-66628249D01*
X63626999Y-66628249D02*
X63699571Y-66773392D01*
X63699571Y-66773392D02*
X63699571Y-66991106D01*
X63699571Y-66991106D02*
X63626999Y-67136249D01*
X63626999Y-67136249D02*
X63554428Y-67208820D01*
X63554428Y-67208820D02*
X63409285Y-67281392D01*
X63409285Y-67281392D02*
X62828714Y-67281392D01*
X65005857Y-68007106D02*
X65005857Y-67208820D01*
X65005857Y-67208820D02*
X64933285Y-67063677D01*
X64933285Y-67063677D02*
X64788142Y-66991106D01*
X64788142Y-66991106D02*
X64497857Y-66991106D01*
X64497857Y-66991106D02*
X64352714Y-67063677D01*
X65005857Y-67934535D02*
X64860714Y-68007106D01*
X64860714Y-68007106D02*
X64497857Y-68007106D01*
X64497857Y-68007106D02*
X64352714Y-67934535D01*
X64352714Y-67934535D02*
X64280142Y-67789392D01*
X64280142Y-67789392D02*
X64280142Y-67644249D01*
X64280142Y-67644249D02*
X64352714Y-67499106D01*
X64352714Y-67499106D02*
X64497857Y-67426535D01*
X64497857Y-67426535D02*
X64860714Y-67426535D01*
X64860714Y-67426535D02*
X65005857Y-67353963D01*
X65513856Y-66991106D02*
X66094428Y-66991106D01*
X65731571Y-66483106D02*
X65731571Y-67789392D01*
X65731571Y-67789392D02*
X65804142Y-67934535D01*
X65804142Y-67934535D02*
X65949285Y-68007106D01*
X65949285Y-68007106D02*
X66094428Y-68007106D01*
X67182999Y-67934535D02*
X67037856Y-68007106D01*
X67037856Y-68007106D02*
X66747571Y-68007106D01*
X66747571Y-68007106D02*
X66602428Y-67934535D01*
X66602428Y-67934535D02*
X66529856Y-67789392D01*
X66529856Y-67789392D02*
X66529856Y-67208820D01*
X66529856Y-67208820D02*
X66602428Y-67063677D01*
X66602428Y-67063677D02*
X66747571Y-66991106D01*
X66747571Y-66991106D02*
X67037856Y-66991106D01*
X67037856Y-66991106D02*
X67182999Y-67063677D01*
X67182999Y-67063677D02*
X67255571Y-67208820D01*
X67255571Y-67208820D02*
X67255571Y-67353963D01*
X67255571Y-67353963D02*
X66529856Y-67499106D01*
X134130143Y-113473106D02*
X135146143Y-114997106D01*
X135146143Y-113473106D02*
X134130143Y-114997106D01*
X136017000Y-114271392D02*
X136017000Y-114997106D01*
X135509000Y-113473106D02*
X136017000Y-114271392D01*
X136017000Y-114271392D02*
X136525000Y-113473106D01*
X138484429Y-113473106D02*
X138774715Y-113473106D01*
X138774715Y-113473106D02*
X138919858Y-113545677D01*
X138919858Y-113545677D02*
X139065001Y-113690820D01*
X139065001Y-113690820D02*
X139137572Y-113981106D01*
X139137572Y-113981106D02*
X139137572Y-114489106D01*
X139137572Y-114489106D02*
X139065001Y-114779392D01*
X139065001Y-114779392D02*
X138919858Y-114924535D01*
X138919858Y-114924535D02*
X138774715Y-114997106D01*
X138774715Y-114997106D02*
X138484429Y-114997106D01*
X138484429Y-114997106D02*
X138339287Y-114924535D01*
X138339287Y-114924535D02*
X138194144Y-114779392D01*
X138194144Y-114779392D02*
X138121572Y-114489106D01*
X138121572Y-114489106D02*
X138121572Y-113981106D01*
X138121572Y-113981106D02*
X138194144Y-113690820D01*
X138194144Y-113690820D02*
X138339287Y-113545677D01*
X138339287Y-113545677D02*
X138484429Y-113473106D01*
X140443858Y-113981106D02*
X140443858Y-114997106D01*
X139790715Y-113981106D02*
X139790715Y-114779392D01*
X139790715Y-114779392D02*
X139863286Y-114924535D01*
X139863286Y-114924535D02*
X140008429Y-114997106D01*
X140008429Y-114997106D02*
X140226143Y-114997106D01*
X140226143Y-114997106D02*
X140371286Y-114924535D01*
X140371286Y-114924535D02*
X140443858Y-114851963D01*
X140951857Y-113981106D02*
X141532429Y-113981106D01*
X141169572Y-113473106D02*
X141169572Y-114779392D01*
X141169572Y-114779392D02*
X141242143Y-114924535D01*
X141242143Y-114924535D02*
X141387286Y-114997106D01*
X141387286Y-114997106D02*
X141532429Y-114997106D01*
X64080571Y-88073106D02*
X65023999Y-88073106D01*
X65023999Y-88073106D02*
X64515999Y-88653677D01*
X64515999Y-88653677D02*
X64733714Y-88653677D01*
X64733714Y-88653677D02*
X64878857Y-88726249D01*
X64878857Y-88726249D02*
X64951428Y-88798820D01*
X64951428Y-88798820D02*
X65023999Y-88943963D01*
X65023999Y-88943963D02*
X65023999Y-89306820D01*
X65023999Y-89306820D02*
X64951428Y-89451963D01*
X64951428Y-89451963D02*
X64878857Y-89524535D01*
X64878857Y-89524535D02*
X64733714Y-89597106D01*
X64733714Y-89597106D02*
X64298285Y-89597106D01*
X64298285Y-89597106D02*
X64153142Y-89524535D01*
X64153142Y-89524535D02*
X64080571Y-89451963D01*
X65967428Y-88073106D02*
X66112571Y-88073106D01*
X66112571Y-88073106D02*
X66257714Y-88145677D01*
X66257714Y-88145677D02*
X66330286Y-88218249D01*
X66330286Y-88218249D02*
X66402857Y-88363392D01*
X66402857Y-88363392D02*
X66475428Y-88653677D01*
X66475428Y-88653677D02*
X66475428Y-89016535D01*
X66475428Y-89016535D02*
X66402857Y-89306820D01*
X66402857Y-89306820D02*
X66330286Y-89451963D01*
X66330286Y-89451963D02*
X66257714Y-89524535D01*
X66257714Y-89524535D02*
X66112571Y-89597106D01*
X66112571Y-89597106D02*
X65967428Y-89597106D01*
X65967428Y-89597106D02*
X65822286Y-89524535D01*
X65822286Y-89524535D02*
X65749714Y-89451963D01*
X65749714Y-89451963D02*
X65677143Y-89306820D01*
X65677143Y-89306820D02*
X65604571Y-89016535D01*
X65604571Y-89016535D02*
X65604571Y-88653677D01*
X65604571Y-88653677D02*
X65677143Y-88363392D01*
X65677143Y-88363392D02*
X65749714Y-88218249D01*
X65749714Y-88218249D02*
X65822286Y-88145677D01*
X65822286Y-88145677D02*
X65967428Y-88073106D01*
X67418857Y-88073106D02*
X67564000Y-88073106D01*
X67564000Y-88073106D02*
X67709143Y-88145677D01*
X67709143Y-88145677D02*
X67781715Y-88218249D01*
X67781715Y-88218249D02*
X67854286Y-88363392D01*
X67854286Y-88363392D02*
X67926857Y-88653677D01*
X67926857Y-88653677D02*
X67926857Y-89016535D01*
X67926857Y-89016535D02*
X67854286Y-89306820D01*
X67854286Y-89306820D02*
X67781715Y-89451963D01*
X67781715Y-89451963D02*
X67709143Y-89524535D01*
X67709143Y-89524535D02*
X67564000Y-89597106D01*
X67564000Y-89597106D02*
X67418857Y-89597106D01*
X67418857Y-89597106D02*
X67273715Y-89524535D01*
X67273715Y-89524535D02*
X67201143Y-89451963D01*
X67201143Y-89451963D02*
X67128572Y-89306820D01*
X67128572Y-89306820D02*
X67056000Y-89016535D01*
X67056000Y-89016535D02*
X67056000Y-88653677D01*
X67056000Y-88653677D02*
X67128572Y-88363392D01*
X67128572Y-88363392D02*
X67201143Y-88218249D01*
X67201143Y-88218249D02*
X67273715Y-88145677D01*
X67273715Y-88145677D02*
X67418857Y-88073106D01*
X32149142Y-122435677D02*
X32004000Y-122363106D01*
X32004000Y-122363106D02*
X31786285Y-122363106D01*
X31786285Y-122363106D02*
X31568571Y-122435677D01*
X31568571Y-122435677D02*
X31423428Y-122580820D01*
X31423428Y-122580820D02*
X31350857Y-122725963D01*
X31350857Y-122725963D02*
X31278285Y-123016249D01*
X31278285Y-123016249D02*
X31278285Y-123233963D01*
X31278285Y-123233963D02*
X31350857Y-123524249D01*
X31350857Y-123524249D02*
X31423428Y-123669392D01*
X31423428Y-123669392D02*
X31568571Y-123814535D01*
X31568571Y-123814535D02*
X31786285Y-123887106D01*
X31786285Y-123887106D02*
X31931428Y-123887106D01*
X31931428Y-123887106D02*
X32149142Y-123814535D01*
X32149142Y-123814535D02*
X32221714Y-123741963D01*
X32221714Y-123741963D02*
X32221714Y-123233963D01*
X32221714Y-123233963D02*
X31931428Y-123233963D01*
X31078714Y-120766535D02*
X32239857Y-120766535D01*
X31659285Y-121347106D02*
X31659285Y-120185963D01*
X33691285Y-119823106D02*
X32965571Y-119823106D01*
X32965571Y-119823106D02*
X32892999Y-120548820D01*
X32892999Y-120548820D02*
X32965571Y-120476249D01*
X32965571Y-120476249D02*
X33110714Y-120403677D01*
X33110714Y-120403677D02*
X33473571Y-120403677D01*
X33473571Y-120403677D02*
X33618714Y-120476249D01*
X33618714Y-120476249D02*
X33691285Y-120548820D01*
X33691285Y-120548820D02*
X33763856Y-120693963D01*
X33763856Y-120693963D02*
X33763856Y-121056820D01*
X33763856Y-121056820D02*
X33691285Y-121201963D01*
X33691285Y-121201963D02*
X33618714Y-121274535D01*
X33618714Y-121274535D02*
X33473571Y-121347106D01*
X33473571Y-121347106D02*
X33110714Y-121347106D01*
X33110714Y-121347106D02*
X32965571Y-121274535D01*
X32965571Y-121274535D02*
X32892999Y-121201963D01*
X64207570Y-76897106D02*
X64497856Y-76897106D01*
X64497856Y-76897106D02*
X64642999Y-76824535D01*
X64642999Y-76824535D02*
X64715570Y-76751963D01*
X64715570Y-76751963D02*
X64860713Y-76534249D01*
X64860713Y-76534249D02*
X64933284Y-76243963D01*
X64933284Y-76243963D02*
X64933284Y-75663392D01*
X64933284Y-75663392D02*
X64860713Y-75518249D01*
X64860713Y-75518249D02*
X64788142Y-75445677D01*
X64788142Y-75445677D02*
X64642999Y-75373106D01*
X64642999Y-75373106D02*
X64352713Y-75373106D01*
X64352713Y-75373106D02*
X64207570Y-75445677D01*
X64207570Y-75445677D02*
X64134999Y-75518249D01*
X64134999Y-75518249D02*
X64062427Y-75663392D01*
X64062427Y-75663392D02*
X64062427Y-76026249D01*
X64062427Y-76026249D02*
X64134999Y-76171392D01*
X64134999Y-76171392D02*
X64207570Y-76243963D01*
X64207570Y-76243963D02*
X64352713Y-76316535D01*
X64352713Y-76316535D02*
X64642999Y-76316535D01*
X64642999Y-76316535D02*
X64788142Y-76243963D01*
X64788142Y-76243963D02*
X64860713Y-76171392D01*
X64860713Y-76171392D02*
X64933284Y-76026249D01*
X66239571Y-75373106D02*
X65949285Y-75373106D01*
X65949285Y-75373106D02*
X65804142Y-75445677D01*
X65804142Y-75445677D02*
X65731571Y-75518249D01*
X65731571Y-75518249D02*
X65586428Y-75735963D01*
X65586428Y-75735963D02*
X65513856Y-76026249D01*
X65513856Y-76026249D02*
X65513856Y-76606820D01*
X65513856Y-76606820D02*
X65586428Y-76751963D01*
X65586428Y-76751963D02*
X65658999Y-76824535D01*
X65658999Y-76824535D02*
X65804142Y-76897106D01*
X65804142Y-76897106D02*
X66094428Y-76897106D01*
X66094428Y-76897106D02*
X66239571Y-76824535D01*
X66239571Y-76824535D02*
X66312142Y-76751963D01*
X66312142Y-76751963D02*
X66384713Y-76606820D01*
X66384713Y-76606820D02*
X66384713Y-76243963D01*
X66384713Y-76243963D02*
X66312142Y-76098820D01*
X66312142Y-76098820D02*
X66239571Y-76026249D01*
X66239571Y-76026249D02*
X66094428Y-75953677D01*
X66094428Y-75953677D02*
X65804142Y-75953677D01*
X65804142Y-75953677D02*
X65658999Y-76026249D01*
X65658999Y-76026249D02*
X65586428Y-76098820D01*
X65586428Y-76098820D02*
X65513856Y-76243963D01*
X67328142Y-75373106D02*
X67473285Y-75373106D01*
X67473285Y-75373106D02*
X67618428Y-75445677D01*
X67618428Y-75445677D02*
X67691000Y-75518249D01*
X67691000Y-75518249D02*
X67763571Y-75663392D01*
X67763571Y-75663392D02*
X67836142Y-75953677D01*
X67836142Y-75953677D02*
X67836142Y-76316535D01*
X67836142Y-76316535D02*
X67763571Y-76606820D01*
X67763571Y-76606820D02*
X67691000Y-76751963D01*
X67691000Y-76751963D02*
X67618428Y-76824535D01*
X67618428Y-76824535D02*
X67473285Y-76897106D01*
X67473285Y-76897106D02*
X67328142Y-76897106D01*
X67328142Y-76897106D02*
X67183000Y-76824535D01*
X67183000Y-76824535D02*
X67110428Y-76751963D01*
X67110428Y-76751963D02*
X67037857Y-76606820D01*
X67037857Y-76606820D02*
X66965285Y-76316535D01*
X66965285Y-76316535D02*
X66965285Y-75953677D01*
X66965285Y-75953677D02*
X67037857Y-75663392D01*
X67037857Y-75663392D02*
X67110428Y-75518249D01*
X67110428Y-75518249D02*
X67183000Y-75445677D01*
X67183000Y-75445677D02*
X67328142Y-75373106D01*
X68779571Y-75373106D02*
X68924714Y-75373106D01*
X68924714Y-75373106D02*
X69069857Y-75445677D01*
X69069857Y-75445677D02*
X69142429Y-75518249D01*
X69142429Y-75518249D02*
X69215000Y-75663392D01*
X69215000Y-75663392D02*
X69287571Y-75953677D01*
X69287571Y-75953677D02*
X69287571Y-76316535D01*
X69287571Y-76316535D02*
X69215000Y-76606820D01*
X69215000Y-76606820D02*
X69142429Y-76751963D01*
X69142429Y-76751963D02*
X69069857Y-76824535D01*
X69069857Y-76824535D02*
X68924714Y-76897106D01*
X68924714Y-76897106D02*
X68779571Y-76897106D01*
X68779571Y-76897106D02*
X68634429Y-76824535D01*
X68634429Y-76824535D02*
X68561857Y-76751963D01*
X68561857Y-76751963D02*
X68489286Y-76606820D01*
X68489286Y-76606820D02*
X68416714Y-76316535D01*
X68416714Y-76316535D02*
X68416714Y-75953677D01*
X68416714Y-75953677D02*
X68489286Y-75663392D01*
X68489286Y-75663392D02*
X68561857Y-75518249D01*
X68561857Y-75518249D02*
X68634429Y-75445677D01*
X68634429Y-75445677D02*
X68779571Y-75373106D01*
X135418286Y-129348106D02*
X136434286Y-129348106D01*
X136434286Y-129348106D02*
X135418286Y-130872106D01*
X135418286Y-130872106D02*
X136434286Y-130872106D01*
X138466286Y-129348106D02*
X138756572Y-129348106D01*
X138756572Y-129348106D02*
X138901715Y-129420677D01*
X138901715Y-129420677D02*
X139046858Y-129565820D01*
X139046858Y-129565820D02*
X139119429Y-129856106D01*
X139119429Y-129856106D02*
X139119429Y-130364106D01*
X139119429Y-130364106D02*
X139046858Y-130654392D01*
X139046858Y-130654392D02*
X138901715Y-130799535D01*
X138901715Y-130799535D02*
X138756572Y-130872106D01*
X138756572Y-130872106D02*
X138466286Y-130872106D01*
X138466286Y-130872106D02*
X138321144Y-130799535D01*
X138321144Y-130799535D02*
X138176001Y-130654392D01*
X138176001Y-130654392D02*
X138103429Y-130364106D01*
X138103429Y-130364106D02*
X138103429Y-129856106D01*
X138103429Y-129856106D02*
X138176001Y-129565820D01*
X138176001Y-129565820D02*
X138321144Y-129420677D01*
X138321144Y-129420677D02*
X138466286Y-129348106D01*
X140425715Y-129856106D02*
X140425715Y-130872106D01*
X139772572Y-129856106D02*
X139772572Y-130654392D01*
X139772572Y-130654392D02*
X139845143Y-130799535D01*
X139845143Y-130799535D02*
X139990286Y-130872106D01*
X139990286Y-130872106D02*
X140208000Y-130872106D01*
X140208000Y-130872106D02*
X140353143Y-130799535D01*
X140353143Y-130799535D02*
X140425715Y-130726963D01*
X140933714Y-129856106D02*
X141514286Y-129856106D01*
X141151429Y-129348106D02*
X141151429Y-130654392D01*
X141151429Y-130654392D02*
X141224000Y-130799535D01*
X141224000Y-130799535D02*
X141369143Y-130872106D01*
X141369143Y-130872106D02*
X141514286Y-130872106D01*
X63735857Y-70293106D02*
X64679285Y-70293106D01*
X64679285Y-70293106D02*
X64171285Y-70873677D01*
X64171285Y-70873677D02*
X64389000Y-70873677D01*
X64389000Y-70873677D02*
X64534143Y-70946249D01*
X64534143Y-70946249D02*
X64606714Y-71018820D01*
X64606714Y-71018820D02*
X64679285Y-71163963D01*
X64679285Y-71163963D02*
X64679285Y-71526820D01*
X64679285Y-71526820D02*
X64606714Y-71671963D01*
X64606714Y-71671963D02*
X64534143Y-71744535D01*
X64534143Y-71744535D02*
X64389000Y-71817106D01*
X64389000Y-71817106D02*
X63953571Y-71817106D01*
X63953571Y-71817106D02*
X63808428Y-71744535D01*
X63808428Y-71744535D02*
X63735857Y-71671963D01*
X65550143Y-70946249D02*
X65405000Y-70873677D01*
X65405000Y-70873677D02*
X65332429Y-70801106D01*
X65332429Y-70801106D02*
X65259857Y-70655963D01*
X65259857Y-70655963D02*
X65259857Y-70583392D01*
X65259857Y-70583392D02*
X65332429Y-70438249D01*
X65332429Y-70438249D02*
X65405000Y-70365677D01*
X65405000Y-70365677D02*
X65550143Y-70293106D01*
X65550143Y-70293106D02*
X65840429Y-70293106D01*
X65840429Y-70293106D02*
X65985572Y-70365677D01*
X65985572Y-70365677D02*
X66058143Y-70438249D01*
X66058143Y-70438249D02*
X66130714Y-70583392D01*
X66130714Y-70583392D02*
X66130714Y-70655963D01*
X66130714Y-70655963D02*
X66058143Y-70801106D01*
X66058143Y-70801106D02*
X65985572Y-70873677D01*
X65985572Y-70873677D02*
X65840429Y-70946249D01*
X65840429Y-70946249D02*
X65550143Y-70946249D01*
X65550143Y-70946249D02*
X65405000Y-71018820D01*
X65405000Y-71018820D02*
X65332429Y-71091392D01*
X65332429Y-71091392D02*
X65259857Y-71236535D01*
X65259857Y-71236535D02*
X65259857Y-71526820D01*
X65259857Y-71526820D02*
X65332429Y-71671963D01*
X65332429Y-71671963D02*
X65405000Y-71744535D01*
X65405000Y-71744535D02*
X65550143Y-71817106D01*
X65550143Y-71817106D02*
X65840429Y-71817106D01*
X65840429Y-71817106D02*
X65985572Y-71744535D01*
X65985572Y-71744535D02*
X66058143Y-71671963D01*
X66058143Y-71671963D02*
X66130714Y-71526820D01*
X66130714Y-71526820D02*
X66130714Y-71236535D01*
X66130714Y-71236535D02*
X66058143Y-71091392D01*
X66058143Y-71091392D02*
X65985572Y-71018820D01*
X65985572Y-71018820D02*
X65840429Y-70946249D01*
X66783858Y-71671963D02*
X66856429Y-71744535D01*
X66856429Y-71744535D02*
X66783858Y-71817106D01*
X66783858Y-71817106D02*
X66711286Y-71744535D01*
X66711286Y-71744535D02*
X66783858Y-71671963D01*
X66783858Y-71671963D02*
X66783858Y-71817106D01*
X68162715Y-70801106D02*
X68162715Y-71817106D01*
X67799857Y-70220535D02*
X67437000Y-71309106D01*
X67437000Y-71309106D02*
X68380429Y-71309106D01*
X68961001Y-71817106D02*
X68961001Y-70293106D01*
X69106144Y-71236535D02*
X69541572Y-71817106D01*
X69541572Y-70801106D02*
X68961001Y-71381677D01*
X64933284Y-84517106D02*
X64062427Y-84517106D01*
X64497856Y-84517106D02*
X64497856Y-82993106D01*
X64497856Y-82993106D02*
X64352713Y-83210820D01*
X64352713Y-83210820D02*
X64207570Y-83355963D01*
X64207570Y-83355963D02*
X64062427Y-83428535D01*
X65513856Y-83138249D02*
X65586428Y-83065677D01*
X65586428Y-83065677D02*
X65731571Y-82993106D01*
X65731571Y-82993106D02*
X66094428Y-82993106D01*
X66094428Y-82993106D02*
X66239571Y-83065677D01*
X66239571Y-83065677D02*
X66312142Y-83138249D01*
X66312142Y-83138249D02*
X66384713Y-83283392D01*
X66384713Y-83283392D02*
X66384713Y-83428535D01*
X66384713Y-83428535D02*
X66312142Y-83646249D01*
X66312142Y-83646249D02*
X65441285Y-84517106D01*
X65441285Y-84517106D02*
X66384713Y-84517106D01*
X67328142Y-82993106D02*
X67473285Y-82993106D01*
X67473285Y-82993106D02*
X67618428Y-83065677D01*
X67618428Y-83065677D02*
X67691000Y-83138249D01*
X67691000Y-83138249D02*
X67763571Y-83283392D01*
X67763571Y-83283392D02*
X67836142Y-83573677D01*
X67836142Y-83573677D02*
X67836142Y-83936535D01*
X67836142Y-83936535D02*
X67763571Y-84226820D01*
X67763571Y-84226820D02*
X67691000Y-84371963D01*
X67691000Y-84371963D02*
X67618428Y-84444535D01*
X67618428Y-84444535D02*
X67473285Y-84517106D01*
X67473285Y-84517106D02*
X67328142Y-84517106D01*
X67328142Y-84517106D02*
X67183000Y-84444535D01*
X67183000Y-84444535D02*
X67110428Y-84371963D01*
X67110428Y-84371963D02*
X67037857Y-84226820D01*
X67037857Y-84226820D02*
X66965285Y-83936535D01*
X66965285Y-83936535D02*
X66965285Y-83573677D01*
X66965285Y-83573677D02*
X67037857Y-83283392D01*
X67037857Y-83283392D02*
X67110428Y-83138249D01*
X67110428Y-83138249D02*
X67183000Y-83065677D01*
X67183000Y-83065677D02*
X67328142Y-82993106D01*
X68779571Y-82993106D02*
X68924714Y-82993106D01*
X68924714Y-82993106D02*
X69069857Y-83065677D01*
X69069857Y-83065677D02*
X69142429Y-83138249D01*
X69142429Y-83138249D02*
X69215000Y-83283392D01*
X69215000Y-83283392D02*
X69287571Y-83573677D01*
X69287571Y-83573677D02*
X69287571Y-83936535D01*
X69287571Y-83936535D02*
X69215000Y-84226820D01*
X69215000Y-84226820D02*
X69142429Y-84371963D01*
X69142429Y-84371963D02*
X69069857Y-84444535D01*
X69069857Y-84444535D02*
X68924714Y-84517106D01*
X68924714Y-84517106D02*
X68779571Y-84517106D01*
X68779571Y-84517106D02*
X68634429Y-84444535D01*
X68634429Y-84444535D02*
X68561857Y-84371963D01*
X68561857Y-84371963D02*
X68489286Y-84226820D01*
X68489286Y-84226820D02*
X68416714Y-83936535D01*
X68416714Y-83936535D02*
X68416714Y-83573677D01*
X68416714Y-83573677D02*
X68489286Y-83283392D01*
X68489286Y-83283392D02*
X68561857Y-83138249D01*
X68561857Y-83138249D02*
X68634429Y-83065677D01*
X68634429Y-83065677D02*
X68779571Y-82993106D01*
X27069143Y-89433820D02*
X27286857Y-89506392D01*
X27286857Y-89506392D02*
X27359428Y-89578963D01*
X27359428Y-89578963D02*
X27432000Y-89724106D01*
X27432000Y-89724106D02*
X27432000Y-89941820D01*
X27432000Y-89941820D02*
X27359428Y-90086963D01*
X27359428Y-90086963D02*
X27286857Y-90159535D01*
X27286857Y-90159535D02*
X27141714Y-90232106D01*
X27141714Y-90232106D02*
X26561143Y-90232106D01*
X26561143Y-90232106D02*
X26561143Y-88708106D01*
X26561143Y-88708106D02*
X27069143Y-88708106D01*
X27069143Y-88708106D02*
X27214286Y-88780677D01*
X27214286Y-88780677D02*
X27286857Y-88853249D01*
X27286857Y-88853249D02*
X27359428Y-88998392D01*
X27359428Y-88998392D02*
X27359428Y-89143535D01*
X27359428Y-89143535D02*
X27286857Y-89288677D01*
X27286857Y-89288677D02*
X27214286Y-89361249D01*
X27214286Y-89361249D02*
X27069143Y-89433820D01*
X27069143Y-89433820D02*
X26561143Y-89433820D01*
X28738286Y-90232106D02*
X28738286Y-89433820D01*
X28738286Y-89433820D02*
X28665714Y-89288677D01*
X28665714Y-89288677D02*
X28520571Y-89216106D01*
X28520571Y-89216106D02*
X28230286Y-89216106D01*
X28230286Y-89216106D02*
X28085143Y-89288677D01*
X28738286Y-90159535D02*
X28593143Y-90232106D01*
X28593143Y-90232106D02*
X28230286Y-90232106D01*
X28230286Y-90232106D02*
X28085143Y-90159535D01*
X28085143Y-90159535D02*
X28012571Y-90014392D01*
X28012571Y-90014392D02*
X28012571Y-89869249D01*
X28012571Y-89869249D02*
X28085143Y-89724106D01*
X28085143Y-89724106D02*
X28230286Y-89651535D01*
X28230286Y-89651535D02*
X28593143Y-89651535D01*
X28593143Y-89651535D02*
X28738286Y-89578963D01*
X29246285Y-89216106D02*
X29826857Y-89216106D01*
X29464000Y-88708106D02*
X29464000Y-90014392D01*
X29464000Y-90014392D02*
X29536571Y-90159535D01*
X29536571Y-90159535D02*
X29681714Y-90232106D01*
X29681714Y-90232106D02*
X29826857Y-90232106D01*
X30117142Y-89216106D02*
X30697714Y-89216106D01*
X30334857Y-88708106D02*
X30334857Y-90014392D01*
X30334857Y-90014392D02*
X30407428Y-90159535D01*
X30407428Y-90159535D02*
X30552571Y-90232106D01*
X30552571Y-90232106D02*
X30697714Y-90232106D01*
X32221714Y-88708106D02*
X33165142Y-88708106D01*
X33165142Y-88708106D02*
X32657142Y-89288677D01*
X32657142Y-89288677D02*
X32874857Y-89288677D01*
X32874857Y-89288677D02*
X33020000Y-89361249D01*
X33020000Y-89361249D02*
X33092571Y-89433820D01*
X33092571Y-89433820D02*
X33165142Y-89578963D01*
X33165142Y-89578963D02*
X33165142Y-89941820D01*
X33165142Y-89941820D02*
X33092571Y-90086963D01*
X33092571Y-90086963D02*
X33020000Y-90159535D01*
X33020000Y-90159535D02*
X32874857Y-90232106D01*
X32874857Y-90232106D02*
X32439428Y-90232106D01*
X32439428Y-90232106D02*
X32294285Y-90159535D01*
X32294285Y-90159535D02*
X32221714Y-90086963D01*
X33600571Y-88708106D02*
X34108571Y-90232106D01*
X34108571Y-90232106D02*
X34616571Y-88708106D01*
X64788142Y-78421106D02*
X64788142Y-79437106D01*
X64425284Y-77840535D02*
X64062427Y-78929106D01*
X64062427Y-78929106D02*
X65005856Y-78929106D01*
X65804142Y-78566249D02*
X65658999Y-78493677D01*
X65658999Y-78493677D02*
X65586428Y-78421106D01*
X65586428Y-78421106D02*
X65513856Y-78275963D01*
X65513856Y-78275963D02*
X65513856Y-78203392D01*
X65513856Y-78203392D02*
X65586428Y-78058249D01*
X65586428Y-78058249D02*
X65658999Y-77985677D01*
X65658999Y-77985677D02*
X65804142Y-77913106D01*
X65804142Y-77913106D02*
X66094428Y-77913106D01*
X66094428Y-77913106D02*
X66239571Y-77985677D01*
X66239571Y-77985677D02*
X66312142Y-78058249D01*
X66312142Y-78058249D02*
X66384713Y-78203392D01*
X66384713Y-78203392D02*
X66384713Y-78275963D01*
X66384713Y-78275963D02*
X66312142Y-78421106D01*
X66312142Y-78421106D02*
X66239571Y-78493677D01*
X66239571Y-78493677D02*
X66094428Y-78566249D01*
X66094428Y-78566249D02*
X65804142Y-78566249D01*
X65804142Y-78566249D02*
X65658999Y-78638820D01*
X65658999Y-78638820D02*
X65586428Y-78711392D01*
X65586428Y-78711392D02*
X65513856Y-78856535D01*
X65513856Y-78856535D02*
X65513856Y-79146820D01*
X65513856Y-79146820D02*
X65586428Y-79291963D01*
X65586428Y-79291963D02*
X65658999Y-79364535D01*
X65658999Y-79364535D02*
X65804142Y-79437106D01*
X65804142Y-79437106D02*
X66094428Y-79437106D01*
X66094428Y-79437106D02*
X66239571Y-79364535D01*
X66239571Y-79364535D02*
X66312142Y-79291963D01*
X66312142Y-79291963D02*
X66384713Y-79146820D01*
X66384713Y-79146820D02*
X66384713Y-78856535D01*
X66384713Y-78856535D02*
X66312142Y-78711392D01*
X66312142Y-78711392D02*
X66239571Y-78638820D01*
X66239571Y-78638820D02*
X66094428Y-78566249D01*
X67328142Y-77913106D02*
X67473285Y-77913106D01*
X67473285Y-77913106D02*
X67618428Y-77985677D01*
X67618428Y-77985677D02*
X67691000Y-78058249D01*
X67691000Y-78058249D02*
X67763571Y-78203392D01*
X67763571Y-78203392D02*
X67836142Y-78493677D01*
X67836142Y-78493677D02*
X67836142Y-78856535D01*
X67836142Y-78856535D02*
X67763571Y-79146820D01*
X67763571Y-79146820D02*
X67691000Y-79291963D01*
X67691000Y-79291963D02*
X67618428Y-79364535D01*
X67618428Y-79364535D02*
X67473285Y-79437106D01*
X67473285Y-79437106D02*
X67328142Y-79437106D01*
X67328142Y-79437106D02*
X67183000Y-79364535D01*
X67183000Y-79364535D02*
X67110428Y-79291963D01*
X67110428Y-79291963D02*
X67037857Y-79146820D01*
X67037857Y-79146820D02*
X66965285Y-78856535D01*
X66965285Y-78856535D02*
X66965285Y-78493677D01*
X66965285Y-78493677D02*
X67037857Y-78203392D01*
X67037857Y-78203392D02*
X67110428Y-78058249D01*
X67110428Y-78058249D02*
X67183000Y-77985677D01*
X67183000Y-77985677D02*
X67328142Y-77913106D01*
X68779571Y-77913106D02*
X68924714Y-77913106D01*
X68924714Y-77913106D02*
X69069857Y-77985677D01*
X69069857Y-77985677D02*
X69142429Y-78058249D01*
X69142429Y-78058249D02*
X69215000Y-78203392D01*
X69215000Y-78203392D02*
X69287571Y-78493677D01*
X69287571Y-78493677D02*
X69287571Y-78856535D01*
X69287571Y-78856535D02*
X69215000Y-79146820D01*
X69215000Y-79146820D02*
X69142429Y-79291963D01*
X69142429Y-79291963D02*
X69069857Y-79364535D01*
X69069857Y-79364535D02*
X68924714Y-79437106D01*
X68924714Y-79437106D02*
X68779571Y-79437106D01*
X68779571Y-79437106D02*
X68634429Y-79364535D01*
X68634429Y-79364535D02*
X68561857Y-79291963D01*
X68561857Y-79291963D02*
X68489286Y-79146820D01*
X68489286Y-79146820D02*
X68416714Y-78856535D01*
X68416714Y-78856535D02*
X68416714Y-78493677D01*
X68416714Y-78493677D02*
X68489286Y-78203392D01*
X68489286Y-78203392D02*
X68561857Y-78058249D01*
X68561857Y-78058249D02*
X68634429Y-77985677D01*
X68634429Y-77985677D02*
X68779571Y-77913106D01*
X64878857Y-85533106D02*
X64588571Y-85533106D01*
X64588571Y-85533106D02*
X64443428Y-85605677D01*
X64443428Y-85605677D02*
X64370857Y-85678249D01*
X64370857Y-85678249D02*
X64225714Y-85895963D01*
X64225714Y-85895963D02*
X64153142Y-86186249D01*
X64153142Y-86186249D02*
X64153142Y-86766820D01*
X64153142Y-86766820D02*
X64225714Y-86911963D01*
X64225714Y-86911963D02*
X64298285Y-86984535D01*
X64298285Y-86984535D02*
X64443428Y-87057106D01*
X64443428Y-87057106D02*
X64733714Y-87057106D01*
X64733714Y-87057106D02*
X64878857Y-86984535D01*
X64878857Y-86984535D02*
X64951428Y-86911963D01*
X64951428Y-86911963D02*
X65023999Y-86766820D01*
X65023999Y-86766820D02*
X65023999Y-86403963D01*
X65023999Y-86403963D02*
X64951428Y-86258820D01*
X64951428Y-86258820D02*
X64878857Y-86186249D01*
X64878857Y-86186249D02*
X64733714Y-86113677D01*
X64733714Y-86113677D02*
X64443428Y-86113677D01*
X64443428Y-86113677D02*
X64298285Y-86186249D01*
X64298285Y-86186249D02*
X64225714Y-86258820D01*
X64225714Y-86258820D02*
X64153142Y-86403963D01*
X65967428Y-85533106D02*
X66112571Y-85533106D01*
X66112571Y-85533106D02*
X66257714Y-85605677D01*
X66257714Y-85605677D02*
X66330286Y-85678249D01*
X66330286Y-85678249D02*
X66402857Y-85823392D01*
X66402857Y-85823392D02*
X66475428Y-86113677D01*
X66475428Y-86113677D02*
X66475428Y-86476535D01*
X66475428Y-86476535D02*
X66402857Y-86766820D01*
X66402857Y-86766820D02*
X66330286Y-86911963D01*
X66330286Y-86911963D02*
X66257714Y-86984535D01*
X66257714Y-86984535D02*
X66112571Y-87057106D01*
X66112571Y-87057106D02*
X65967428Y-87057106D01*
X65967428Y-87057106D02*
X65822286Y-86984535D01*
X65822286Y-86984535D02*
X65749714Y-86911963D01*
X65749714Y-86911963D02*
X65677143Y-86766820D01*
X65677143Y-86766820D02*
X65604571Y-86476535D01*
X65604571Y-86476535D02*
X65604571Y-86113677D01*
X65604571Y-86113677D02*
X65677143Y-85823392D01*
X65677143Y-85823392D02*
X65749714Y-85678249D01*
X65749714Y-85678249D02*
X65822286Y-85605677D01*
X65822286Y-85605677D02*
X65967428Y-85533106D01*
X67418857Y-85533106D02*
X67564000Y-85533106D01*
X67564000Y-85533106D02*
X67709143Y-85605677D01*
X67709143Y-85605677D02*
X67781715Y-85678249D01*
X67781715Y-85678249D02*
X67854286Y-85823392D01*
X67854286Y-85823392D02*
X67926857Y-86113677D01*
X67926857Y-86113677D02*
X67926857Y-86476535D01*
X67926857Y-86476535D02*
X67854286Y-86766820D01*
X67854286Y-86766820D02*
X67781715Y-86911963D01*
X67781715Y-86911963D02*
X67709143Y-86984535D01*
X67709143Y-86984535D02*
X67564000Y-87057106D01*
X67564000Y-87057106D02*
X67418857Y-87057106D01*
X67418857Y-87057106D02*
X67273715Y-86984535D01*
X67273715Y-86984535D02*
X67201143Y-86911963D01*
X67201143Y-86911963D02*
X67128572Y-86766820D01*
X67128572Y-86766820D02*
X67056000Y-86476535D01*
X67056000Y-86476535D02*
X67056000Y-86113677D01*
X67056000Y-86113677D02*
X67128572Y-85823392D01*
X67128572Y-85823392D02*
X67201143Y-85678249D01*
X67201143Y-85678249D02*
X67273715Y-85605677D01*
X67273715Y-85605677D02*
X67418857Y-85533106D01*
X35635895Y-115179451D02*
X35708466Y-114961737D01*
X35708466Y-114961737D02*
X35708466Y-114598879D01*
X35708466Y-114598879D02*
X35635895Y-114453737D01*
X35635895Y-114453737D02*
X35563323Y-114381165D01*
X35563323Y-114381165D02*
X35418180Y-114308594D01*
X35418180Y-114308594D02*
X35273037Y-114308594D01*
X35273037Y-114308594D02*
X35127895Y-114381165D01*
X35127895Y-114381165D02*
X35055323Y-114453737D01*
X35055323Y-114453737D02*
X34982752Y-114598879D01*
X34982752Y-114598879D02*
X34910180Y-114889165D01*
X34910180Y-114889165D02*
X34837609Y-115034308D01*
X34837609Y-115034308D02*
X34765037Y-115106879D01*
X34765037Y-115106879D02*
X34619895Y-115179451D01*
X34619895Y-115179451D02*
X34474752Y-115179451D01*
X34474752Y-115179451D02*
X34329609Y-115106879D01*
X34329609Y-115106879D02*
X34257037Y-115034308D01*
X34257037Y-115034308D02*
X34184466Y-114889165D01*
X34184466Y-114889165D02*
X34184466Y-114526308D01*
X34184466Y-114526308D02*
X34257037Y-114308594D01*
X35635895Y-113002308D02*
X35708466Y-113147450D01*
X35708466Y-113147450D02*
X35708466Y-113437736D01*
X35708466Y-113437736D02*
X35635895Y-113582879D01*
X35635895Y-113582879D02*
X35563323Y-113655450D01*
X35563323Y-113655450D02*
X35418180Y-113728022D01*
X35418180Y-113728022D02*
X34982752Y-113728022D01*
X34982752Y-113728022D02*
X34837609Y-113655450D01*
X34837609Y-113655450D02*
X34765037Y-113582879D01*
X34765037Y-113582879D02*
X34692466Y-113437736D01*
X34692466Y-113437736D02*
X34692466Y-113147450D01*
X34692466Y-113147450D02*
X34765037Y-113002308D01*
X35708466Y-112131450D02*
X35635895Y-112276593D01*
X35635895Y-112276593D02*
X35563323Y-112349164D01*
X35563323Y-112349164D02*
X35418180Y-112421736D01*
X35418180Y-112421736D02*
X34982752Y-112421736D01*
X34982752Y-112421736D02*
X34837609Y-112349164D01*
X34837609Y-112349164D02*
X34765037Y-112276593D01*
X34765037Y-112276593D02*
X34692466Y-112131450D01*
X34692466Y-112131450D02*
X34692466Y-111913736D01*
X34692466Y-111913736D02*
X34765037Y-111768593D01*
X34765037Y-111768593D02*
X34837609Y-111696022D01*
X34837609Y-111696022D02*
X34982752Y-111623450D01*
X34982752Y-111623450D02*
X35418180Y-111623450D01*
X35418180Y-111623450D02*
X35563323Y-111696022D01*
X35563323Y-111696022D02*
X35635895Y-111768593D01*
X35635895Y-111768593D02*
X35708466Y-111913736D01*
X35708466Y-111913736D02*
X35708466Y-112131450D01*
X34692466Y-110970307D02*
X36216466Y-110970307D01*
X34765037Y-110970307D02*
X34692466Y-110825165D01*
X34692466Y-110825165D02*
X34692466Y-110534879D01*
X34692466Y-110534879D02*
X34765037Y-110389736D01*
X34765037Y-110389736D02*
X34837609Y-110317165D01*
X34837609Y-110317165D02*
X34982752Y-110244593D01*
X34982752Y-110244593D02*
X35418180Y-110244593D01*
X35418180Y-110244593D02*
X35563323Y-110317165D01*
X35563323Y-110317165D02*
X35635895Y-110389736D01*
X35635895Y-110389736D02*
X35708466Y-110534879D01*
X35708466Y-110534879D02*
X35708466Y-110825165D01*
X35708466Y-110825165D02*
X35635895Y-110970307D01*
X35635895Y-109010879D02*
X35708466Y-109156022D01*
X35708466Y-109156022D02*
X35708466Y-109446308D01*
X35708466Y-109446308D02*
X35635895Y-109591450D01*
X35635895Y-109591450D02*
X35490752Y-109664022D01*
X35490752Y-109664022D02*
X34910180Y-109664022D01*
X34910180Y-109664022D02*
X34765037Y-109591450D01*
X34765037Y-109591450D02*
X34692466Y-109446308D01*
X34692466Y-109446308D02*
X34692466Y-109156022D01*
X34692466Y-109156022D02*
X34765037Y-109010879D01*
X34765037Y-109010879D02*
X34910180Y-108938308D01*
X34910180Y-108938308D02*
X35055323Y-108938308D01*
X35055323Y-108938308D02*
X35200466Y-109664022D01*
X35563323Y-106253164D02*
X35635895Y-106325736D01*
X35635895Y-106325736D02*
X35708466Y-106543450D01*
X35708466Y-106543450D02*
X35708466Y-106688593D01*
X35708466Y-106688593D02*
X35635895Y-106906307D01*
X35635895Y-106906307D02*
X35490752Y-107051450D01*
X35490752Y-107051450D02*
X35345609Y-107124021D01*
X35345609Y-107124021D02*
X35055323Y-107196593D01*
X35055323Y-107196593D02*
X34837609Y-107196593D01*
X34837609Y-107196593D02*
X34547323Y-107124021D01*
X34547323Y-107124021D02*
X34402180Y-107051450D01*
X34402180Y-107051450D02*
X34257037Y-106906307D01*
X34257037Y-106906307D02*
X34184466Y-106688593D01*
X34184466Y-106688593D02*
X34184466Y-106543450D01*
X34184466Y-106543450D02*
X34257037Y-106325736D01*
X34257037Y-106325736D02*
X34329609Y-106253164D01*
X35708466Y-105382307D02*
X35635895Y-105527450D01*
X35635895Y-105527450D02*
X35490752Y-105600021D01*
X35490752Y-105600021D02*
X34184466Y-105600021D01*
X35708466Y-104584021D02*
X35635895Y-104729164D01*
X35635895Y-104729164D02*
X35563323Y-104801735D01*
X35563323Y-104801735D02*
X35418180Y-104874307D01*
X35418180Y-104874307D02*
X34982752Y-104874307D01*
X34982752Y-104874307D02*
X34837609Y-104801735D01*
X34837609Y-104801735D02*
X34765037Y-104729164D01*
X34765037Y-104729164D02*
X34692466Y-104584021D01*
X34692466Y-104584021D02*
X34692466Y-104366307D01*
X34692466Y-104366307D02*
X34765037Y-104221164D01*
X34765037Y-104221164D02*
X34837609Y-104148593D01*
X34837609Y-104148593D02*
X34982752Y-104076021D01*
X34982752Y-104076021D02*
X35418180Y-104076021D01*
X35418180Y-104076021D02*
X35563323Y-104148593D01*
X35563323Y-104148593D02*
X35635895Y-104221164D01*
X35635895Y-104221164D02*
X35708466Y-104366307D01*
X35708466Y-104366307D02*
X35708466Y-104584021D01*
X35635895Y-102769736D02*
X35708466Y-102914878D01*
X35708466Y-102914878D02*
X35708466Y-103205164D01*
X35708466Y-103205164D02*
X35635895Y-103350307D01*
X35635895Y-103350307D02*
X35563323Y-103422878D01*
X35563323Y-103422878D02*
X35418180Y-103495450D01*
X35418180Y-103495450D02*
X34982752Y-103495450D01*
X34982752Y-103495450D02*
X34837609Y-103422878D01*
X34837609Y-103422878D02*
X34765037Y-103350307D01*
X34765037Y-103350307D02*
X34692466Y-103205164D01*
X34692466Y-103205164D02*
X34692466Y-102914878D01*
X34692466Y-102914878D02*
X34765037Y-102769736D01*
X35708466Y-102116592D02*
X34184466Y-102116592D01*
X35127895Y-101971450D02*
X35708466Y-101536021D01*
X34692466Y-101536021D02*
X35273037Y-102116592D01*
X35708466Y-99721735D02*
X34184466Y-99721735D01*
X34184466Y-99721735D02*
X34184466Y-99358878D01*
X34184466Y-99358878D02*
X34257037Y-99141164D01*
X34257037Y-99141164D02*
X34402180Y-98996021D01*
X34402180Y-98996021D02*
X34547323Y-98923450D01*
X34547323Y-98923450D02*
X34837609Y-98850878D01*
X34837609Y-98850878D02*
X35055323Y-98850878D01*
X35055323Y-98850878D02*
X35345609Y-98923450D01*
X35345609Y-98923450D02*
X35490752Y-98996021D01*
X35490752Y-98996021D02*
X35635895Y-99141164D01*
X35635895Y-99141164D02*
X35708466Y-99358878D01*
X35708466Y-99358878D02*
X35708466Y-99721735D01*
X35708466Y-98197735D02*
X34692466Y-98197735D01*
X34184466Y-98197735D02*
X34257037Y-98270307D01*
X34257037Y-98270307D02*
X34329609Y-98197735D01*
X34329609Y-98197735D02*
X34257037Y-98125164D01*
X34257037Y-98125164D02*
X34184466Y-98197735D01*
X34184466Y-98197735D02*
X34329609Y-98197735D01*
X35635895Y-97544593D02*
X35708466Y-97399450D01*
X35708466Y-97399450D02*
X35708466Y-97109164D01*
X35708466Y-97109164D02*
X35635895Y-96964021D01*
X35635895Y-96964021D02*
X35490752Y-96891450D01*
X35490752Y-96891450D02*
X35418180Y-96891450D01*
X35418180Y-96891450D02*
X35273037Y-96964021D01*
X35273037Y-96964021D02*
X35200466Y-97109164D01*
X35200466Y-97109164D02*
X35200466Y-97326879D01*
X35200466Y-97326879D02*
X35127895Y-97472021D01*
X35127895Y-97472021D02*
X34982752Y-97544593D01*
X34982752Y-97544593D02*
X34910180Y-97544593D01*
X34910180Y-97544593D02*
X34765037Y-97472021D01*
X34765037Y-97472021D02*
X34692466Y-97326879D01*
X34692466Y-97326879D02*
X34692466Y-97109164D01*
X34692466Y-97109164D02*
X34765037Y-96964021D01*
X34692466Y-96238307D02*
X36216466Y-96238307D01*
X34765037Y-96238307D02*
X34692466Y-96093165D01*
X34692466Y-96093165D02*
X34692466Y-95802879D01*
X34692466Y-95802879D02*
X34765037Y-95657736D01*
X34765037Y-95657736D02*
X34837609Y-95585165D01*
X34837609Y-95585165D02*
X34982752Y-95512593D01*
X34982752Y-95512593D02*
X35418180Y-95512593D01*
X35418180Y-95512593D02*
X35563323Y-95585165D01*
X35563323Y-95585165D02*
X35635895Y-95657736D01*
X35635895Y-95657736D02*
X35708466Y-95802879D01*
X35708466Y-95802879D02*
X35708466Y-96093165D01*
X35708466Y-96093165D02*
X35635895Y-96238307D01*
X35708466Y-94641736D02*
X35635895Y-94786879D01*
X35635895Y-94786879D02*
X35490752Y-94859450D01*
X35490752Y-94859450D02*
X34184466Y-94859450D01*
X35708466Y-93408022D02*
X34910180Y-93408022D01*
X34910180Y-93408022D02*
X34765037Y-93480593D01*
X34765037Y-93480593D02*
X34692466Y-93625736D01*
X34692466Y-93625736D02*
X34692466Y-93916022D01*
X34692466Y-93916022D02*
X34765037Y-94061164D01*
X35635895Y-93408022D02*
X35708466Y-93553164D01*
X35708466Y-93553164D02*
X35708466Y-93916022D01*
X35708466Y-93916022D02*
X35635895Y-94061164D01*
X35635895Y-94061164D02*
X35490752Y-94133736D01*
X35490752Y-94133736D02*
X35345609Y-94133736D01*
X35345609Y-94133736D02*
X35200466Y-94061164D01*
X35200466Y-94061164D02*
X35127895Y-93916022D01*
X35127895Y-93916022D02*
X35127895Y-93553164D01*
X35127895Y-93553164D02*
X35055323Y-93408022D01*
X34692466Y-92827450D02*
X35708466Y-92464593D01*
X34692466Y-92101736D02*
X35708466Y-92464593D01*
X35708466Y-92464593D02*
X36071323Y-92609736D01*
X36071323Y-92609736D02*
X36143895Y-92682307D01*
X36143895Y-92682307D02*
X36216466Y-92827450D01*
X38162106Y-114236022D02*
X37436392Y-114744022D01*
X38162106Y-115106879D02*
X36638106Y-115106879D01*
X36638106Y-115106879D02*
X36638106Y-114526308D01*
X36638106Y-114526308D02*
X36710677Y-114381165D01*
X36710677Y-114381165D02*
X36783249Y-114308594D01*
X36783249Y-114308594D02*
X36928392Y-114236022D01*
X36928392Y-114236022D02*
X37146106Y-114236022D01*
X37146106Y-114236022D02*
X37291249Y-114308594D01*
X37291249Y-114308594D02*
X37363820Y-114381165D01*
X37363820Y-114381165D02*
X37436392Y-114526308D01*
X37436392Y-114526308D02*
X37436392Y-115106879D01*
X38089535Y-113002308D02*
X38162106Y-113147451D01*
X38162106Y-113147451D02*
X38162106Y-113437737D01*
X38162106Y-113437737D02*
X38089535Y-113582879D01*
X38089535Y-113582879D02*
X37944392Y-113655451D01*
X37944392Y-113655451D02*
X37363820Y-113655451D01*
X37363820Y-113655451D02*
X37218677Y-113582879D01*
X37218677Y-113582879D02*
X37146106Y-113437737D01*
X37146106Y-113437737D02*
X37146106Y-113147451D01*
X37146106Y-113147451D02*
X37218677Y-113002308D01*
X37218677Y-113002308D02*
X37363820Y-112929737D01*
X37363820Y-112929737D02*
X37508963Y-112929737D01*
X37508963Y-112929737D02*
X37654106Y-113655451D01*
X37146106Y-112421736D02*
X38162106Y-112058879D01*
X38162106Y-112058879D02*
X37146106Y-111696022D01*
X36783249Y-110026879D02*
X36710677Y-109954307D01*
X36710677Y-109954307D02*
X36638106Y-109809165D01*
X36638106Y-109809165D02*
X36638106Y-109446307D01*
X36638106Y-109446307D02*
X36710677Y-109301165D01*
X36710677Y-109301165D02*
X36783249Y-109228593D01*
X36783249Y-109228593D02*
X36928392Y-109156022D01*
X36928392Y-109156022D02*
X37073535Y-109156022D01*
X37073535Y-109156022D02*
X37291249Y-109228593D01*
X37291249Y-109228593D02*
X38162106Y-110099450D01*
X38162106Y-110099450D02*
X38162106Y-109156022D01*
X37581535Y-107341735D02*
X37581535Y-106180593D01*
X38162106Y-104293735D02*
X36638106Y-104293735D01*
X36638106Y-104293735D02*
X36638106Y-103930878D01*
X36638106Y-103930878D02*
X36710677Y-103713164D01*
X36710677Y-103713164D02*
X36855820Y-103568021D01*
X36855820Y-103568021D02*
X37000963Y-103495450D01*
X37000963Y-103495450D02*
X37291249Y-103422878D01*
X37291249Y-103422878D02*
X37508963Y-103422878D01*
X37508963Y-103422878D02*
X37799249Y-103495450D01*
X37799249Y-103495450D02*
X37944392Y-103568021D01*
X37944392Y-103568021D02*
X38089535Y-103713164D01*
X38089535Y-103713164D02*
X38162106Y-103930878D01*
X38162106Y-103930878D02*
X38162106Y-104293735D01*
X38089535Y-102189164D02*
X38162106Y-102334307D01*
X38162106Y-102334307D02*
X38162106Y-102624593D01*
X38162106Y-102624593D02*
X38089535Y-102769735D01*
X38089535Y-102769735D02*
X37944392Y-102842307D01*
X37944392Y-102842307D02*
X37363820Y-102842307D01*
X37363820Y-102842307D02*
X37218677Y-102769735D01*
X37218677Y-102769735D02*
X37146106Y-102624593D01*
X37146106Y-102624593D02*
X37146106Y-102334307D01*
X37146106Y-102334307D02*
X37218677Y-102189164D01*
X37218677Y-102189164D02*
X37363820Y-102116593D01*
X37363820Y-102116593D02*
X37508963Y-102116593D01*
X37508963Y-102116593D02*
X37654106Y-102842307D01*
X38089535Y-100810307D02*
X38162106Y-100955449D01*
X38162106Y-100955449D02*
X38162106Y-101245735D01*
X38162106Y-101245735D02*
X38089535Y-101390878D01*
X38089535Y-101390878D02*
X38016963Y-101463449D01*
X38016963Y-101463449D02*
X37871820Y-101536021D01*
X37871820Y-101536021D02*
X37436392Y-101536021D01*
X37436392Y-101536021D02*
X37291249Y-101463449D01*
X37291249Y-101463449D02*
X37218677Y-101390878D01*
X37218677Y-101390878D02*
X37146106Y-101245735D01*
X37146106Y-101245735D02*
X37146106Y-100955449D01*
X37146106Y-100955449D02*
X37218677Y-100810307D01*
X36783249Y-99068592D02*
X36710677Y-98996020D01*
X36710677Y-98996020D02*
X36638106Y-98850878D01*
X36638106Y-98850878D02*
X36638106Y-98488020D01*
X36638106Y-98488020D02*
X36710677Y-98342878D01*
X36710677Y-98342878D02*
X36783249Y-98270306D01*
X36783249Y-98270306D02*
X36928392Y-98197735D01*
X36928392Y-98197735D02*
X37073535Y-98197735D01*
X37073535Y-98197735D02*
X37291249Y-98270306D01*
X37291249Y-98270306D02*
X38162106Y-99141163D01*
X38162106Y-99141163D02*
X38162106Y-98197735D01*
X36638106Y-97254306D02*
X36638106Y-97109163D01*
X36638106Y-97109163D02*
X36710677Y-96964020D01*
X36710677Y-96964020D02*
X36783249Y-96891449D01*
X36783249Y-96891449D02*
X36928392Y-96818877D01*
X36928392Y-96818877D02*
X37218677Y-96746306D01*
X37218677Y-96746306D02*
X37581535Y-96746306D01*
X37581535Y-96746306D02*
X37871820Y-96818877D01*
X37871820Y-96818877D02*
X38016963Y-96891449D01*
X38016963Y-96891449D02*
X38089535Y-96964020D01*
X38089535Y-96964020D02*
X38162106Y-97109163D01*
X38162106Y-97109163D02*
X38162106Y-97254306D01*
X38162106Y-97254306D02*
X38089535Y-97399449D01*
X38089535Y-97399449D02*
X38016963Y-97472020D01*
X38016963Y-97472020D02*
X37871820Y-97544591D01*
X37871820Y-97544591D02*
X37581535Y-97617163D01*
X37581535Y-97617163D02*
X37218677Y-97617163D01*
X37218677Y-97617163D02*
X36928392Y-97544591D01*
X36928392Y-97544591D02*
X36783249Y-97472020D01*
X36783249Y-97472020D02*
X36710677Y-97399449D01*
X36710677Y-97399449D02*
X36638106Y-97254306D01*
X36783249Y-96165734D02*
X36710677Y-96093162D01*
X36710677Y-96093162D02*
X36638106Y-95948020D01*
X36638106Y-95948020D02*
X36638106Y-95585162D01*
X36638106Y-95585162D02*
X36710677Y-95440020D01*
X36710677Y-95440020D02*
X36783249Y-95367448D01*
X36783249Y-95367448D02*
X36928392Y-95294877D01*
X36928392Y-95294877D02*
X37073535Y-95294877D01*
X37073535Y-95294877D02*
X37291249Y-95367448D01*
X37291249Y-95367448D02*
X38162106Y-96238305D01*
X38162106Y-96238305D02*
X38162106Y-95294877D01*
X36638106Y-94786876D02*
X36638106Y-93843448D01*
X36638106Y-93843448D02*
X37218677Y-94351448D01*
X37218677Y-94351448D02*
X37218677Y-94133733D01*
X37218677Y-94133733D02*
X37291249Y-93988591D01*
X37291249Y-93988591D02*
X37363820Y-93916019D01*
X37363820Y-93916019D02*
X37508963Y-93843448D01*
X37508963Y-93843448D02*
X37871820Y-93843448D01*
X37871820Y-93843448D02*
X38016963Y-93916019D01*
X38016963Y-93916019D02*
X38089535Y-93988591D01*
X38089535Y-93988591D02*
X38162106Y-94133733D01*
X38162106Y-94133733D02*
X38162106Y-94569162D01*
X38162106Y-94569162D02*
X38089535Y-94714305D01*
X38089535Y-94714305D02*
X38016963Y-94786876D01*
X39091746Y-115106879D02*
X40325460Y-115106879D01*
X40325460Y-115106879D02*
X40470603Y-115034308D01*
X40470603Y-115034308D02*
X40543175Y-114961737D01*
X40543175Y-114961737D02*
X40615746Y-114816594D01*
X40615746Y-114816594D02*
X40615746Y-114526308D01*
X40615746Y-114526308D02*
X40543175Y-114381165D01*
X40543175Y-114381165D02*
X40470603Y-114308594D01*
X40470603Y-114308594D02*
X40325460Y-114236022D01*
X40325460Y-114236022D02*
X39091746Y-114236022D01*
X40615746Y-113510308D02*
X39091746Y-113510308D01*
X39091746Y-113510308D02*
X39091746Y-112929737D01*
X39091746Y-112929737D02*
X39164317Y-112784594D01*
X39164317Y-112784594D02*
X39236889Y-112712023D01*
X39236889Y-112712023D02*
X39382032Y-112639451D01*
X39382032Y-112639451D02*
X39599746Y-112639451D01*
X39599746Y-112639451D02*
X39744889Y-112712023D01*
X39744889Y-112712023D02*
X39817460Y-112784594D01*
X39817460Y-112784594D02*
X39890032Y-112929737D01*
X39890032Y-112929737D02*
X39890032Y-113510308D01*
X40470603Y-111115451D02*
X40543175Y-111188023D01*
X40543175Y-111188023D02*
X40615746Y-111405737D01*
X40615746Y-111405737D02*
X40615746Y-111550880D01*
X40615746Y-111550880D02*
X40543175Y-111768594D01*
X40543175Y-111768594D02*
X40398032Y-111913737D01*
X40398032Y-111913737D02*
X40252889Y-111986308D01*
X40252889Y-111986308D02*
X39962603Y-112058880D01*
X39962603Y-112058880D02*
X39744889Y-112058880D01*
X39744889Y-112058880D02*
X39454603Y-111986308D01*
X39454603Y-111986308D02*
X39309460Y-111913737D01*
X39309460Y-111913737D02*
X39164317Y-111768594D01*
X39164317Y-111768594D02*
X39091746Y-111550880D01*
X39091746Y-111550880D02*
X39091746Y-111405737D01*
X39091746Y-111405737D02*
X39164317Y-111188023D01*
X39164317Y-111188023D02*
X39236889Y-111115451D01*
X39091746Y-110172023D02*
X39091746Y-109881737D01*
X39091746Y-109881737D02*
X39164317Y-109736594D01*
X39164317Y-109736594D02*
X39309460Y-109591451D01*
X39309460Y-109591451D02*
X39599746Y-109518880D01*
X39599746Y-109518880D02*
X40107746Y-109518880D01*
X40107746Y-109518880D02*
X40398032Y-109591451D01*
X40398032Y-109591451D02*
X40543175Y-109736594D01*
X40543175Y-109736594D02*
X40615746Y-109881737D01*
X40615746Y-109881737D02*
X40615746Y-110172023D01*
X40615746Y-110172023D02*
X40543175Y-110317166D01*
X40543175Y-110317166D02*
X40398032Y-110462308D01*
X40398032Y-110462308D02*
X40107746Y-110534880D01*
X40107746Y-110534880D02*
X39599746Y-110534880D01*
X39599746Y-110534880D02*
X39309460Y-110462308D01*
X39309460Y-110462308D02*
X39164317Y-110317166D01*
X39164317Y-110317166D02*
X39091746Y-110172023D01*
X39164317Y-106906309D02*
X39091746Y-107051452D01*
X39091746Y-107051452D02*
X39091746Y-107269166D01*
X39091746Y-107269166D02*
X39164317Y-107486880D01*
X39164317Y-107486880D02*
X39309460Y-107632023D01*
X39309460Y-107632023D02*
X39454603Y-107704594D01*
X39454603Y-107704594D02*
X39744889Y-107777166D01*
X39744889Y-107777166D02*
X39962603Y-107777166D01*
X39962603Y-107777166D02*
X40252889Y-107704594D01*
X40252889Y-107704594D02*
X40398032Y-107632023D01*
X40398032Y-107632023D02*
X40543175Y-107486880D01*
X40543175Y-107486880D02*
X40615746Y-107269166D01*
X40615746Y-107269166D02*
X40615746Y-107124023D01*
X40615746Y-107124023D02*
X40543175Y-106906309D01*
X40543175Y-106906309D02*
X40470603Y-106833737D01*
X40470603Y-106833737D02*
X39962603Y-106833737D01*
X39962603Y-106833737D02*
X39962603Y-107124023D01*
X40615746Y-106180594D02*
X39599746Y-106180594D01*
X39890032Y-106180594D02*
X39744889Y-106108023D01*
X39744889Y-106108023D02*
X39672317Y-106035452D01*
X39672317Y-106035452D02*
X39599746Y-105890309D01*
X39599746Y-105890309D02*
X39599746Y-105745166D01*
X40615746Y-104584023D02*
X39817460Y-104584023D01*
X39817460Y-104584023D02*
X39672317Y-104656594D01*
X39672317Y-104656594D02*
X39599746Y-104801737D01*
X39599746Y-104801737D02*
X39599746Y-105092023D01*
X39599746Y-105092023D02*
X39672317Y-105237165D01*
X40543175Y-104584023D02*
X40615746Y-104729165D01*
X40615746Y-104729165D02*
X40615746Y-105092023D01*
X40615746Y-105092023D02*
X40543175Y-105237165D01*
X40543175Y-105237165D02*
X40398032Y-105309737D01*
X40398032Y-105309737D02*
X40252889Y-105309737D01*
X40252889Y-105309737D02*
X40107746Y-105237165D01*
X40107746Y-105237165D02*
X40035175Y-105092023D01*
X40035175Y-105092023D02*
X40035175Y-104729165D01*
X40035175Y-104729165D02*
X39962603Y-104584023D01*
X39599746Y-103858308D02*
X41123746Y-103858308D01*
X39672317Y-103858308D02*
X39599746Y-103713166D01*
X39599746Y-103713166D02*
X39599746Y-103422880D01*
X39599746Y-103422880D02*
X39672317Y-103277737D01*
X39672317Y-103277737D02*
X39744889Y-103205166D01*
X39744889Y-103205166D02*
X39890032Y-103132594D01*
X39890032Y-103132594D02*
X40325460Y-103132594D01*
X40325460Y-103132594D02*
X40470603Y-103205166D01*
X40470603Y-103205166D02*
X40543175Y-103277737D01*
X40543175Y-103277737D02*
X40615746Y-103422880D01*
X40615746Y-103422880D02*
X40615746Y-103713166D01*
X40615746Y-103713166D02*
X40543175Y-103858308D01*
X40615746Y-102479451D02*
X39091746Y-102479451D01*
X40615746Y-101826309D02*
X39817460Y-101826309D01*
X39817460Y-101826309D02*
X39672317Y-101898880D01*
X39672317Y-101898880D02*
X39599746Y-102044023D01*
X39599746Y-102044023D02*
X39599746Y-102261737D01*
X39599746Y-102261737D02*
X39672317Y-102406880D01*
X39672317Y-102406880D02*
X39744889Y-102479451D01*
X40615746Y-101100594D02*
X39599746Y-101100594D01*
X39091746Y-101100594D02*
X39164317Y-101173166D01*
X39164317Y-101173166D02*
X39236889Y-101100594D01*
X39236889Y-101100594D02*
X39164317Y-101028023D01*
X39164317Y-101028023D02*
X39091746Y-101100594D01*
X39091746Y-101100594D02*
X39236889Y-101100594D01*
X40543175Y-99721738D02*
X40615746Y-99866880D01*
X40615746Y-99866880D02*
X40615746Y-100157166D01*
X40615746Y-100157166D02*
X40543175Y-100302309D01*
X40543175Y-100302309D02*
X40470603Y-100374880D01*
X40470603Y-100374880D02*
X40325460Y-100447452D01*
X40325460Y-100447452D02*
X39890032Y-100447452D01*
X39890032Y-100447452D02*
X39744889Y-100374880D01*
X39744889Y-100374880D02*
X39672317Y-100302309D01*
X39672317Y-100302309D02*
X39599746Y-100157166D01*
X39599746Y-100157166D02*
X39599746Y-99866880D01*
X39599746Y-99866880D02*
X39672317Y-99721738D01*
X40543175Y-99141166D02*
X40615746Y-98996023D01*
X40615746Y-98996023D02*
X40615746Y-98705737D01*
X40615746Y-98705737D02*
X40543175Y-98560594D01*
X40543175Y-98560594D02*
X40398032Y-98488023D01*
X40398032Y-98488023D02*
X40325460Y-98488023D01*
X40325460Y-98488023D02*
X40180317Y-98560594D01*
X40180317Y-98560594D02*
X40107746Y-98705737D01*
X40107746Y-98705737D02*
X40107746Y-98923452D01*
X40107746Y-98923452D02*
X40035175Y-99068594D01*
X40035175Y-99068594D02*
X39890032Y-99141166D01*
X39890032Y-99141166D02*
X39817460Y-99141166D01*
X39817460Y-99141166D02*
X39672317Y-99068594D01*
X39672317Y-99068594D02*
X39599746Y-98923452D01*
X39599746Y-98923452D02*
X39599746Y-98705737D01*
X39599746Y-98705737D02*
X39672317Y-98560594D01*
X40543175Y-96746309D02*
X40615746Y-96528595D01*
X40615746Y-96528595D02*
X40615746Y-96165737D01*
X40615746Y-96165737D02*
X40543175Y-96020595D01*
X40543175Y-96020595D02*
X40470603Y-95948023D01*
X40470603Y-95948023D02*
X40325460Y-95875452D01*
X40325460Y-95875452D02*
X40180317Y-95875452D01*
X40180317Y-95875452D02*
X40035175Y-95948023D01*
X40035175Y-95948023D02*
X39962603Y-96020595D01*
X39962603Y-96020595D02*
X39890032Y-96165737D01*
X39890032Y-96165737D02*
X39817460Y-96456023D01*
X39817460Y-96456023D02*
X39744889Y-96601166D01*
X39744889Y-96601166D02*
X39672317Y-96673737D01*
X39672317Y-96673737D02*
X39527175Y-96746309D01*
X39527175Y-96746309D02*
X39382032Y-96746309D01*
X39382032Y-96746309D02*
X39236889Y-96673737D01*
X39236889Y-96673737D02*
X39164317Y-96601166D01*
X39164317Y-96601166D02*
X39091746Y-96456023D01*
X39091746Y-96456023D02*
X39091746Y-96093166D01*
X39091746Y-96093166D02*
X39164317Y-95875452D01*
X39599746Y-95367451D02*
X40615746Y-95004594D01*
X39599746Y-94641737D02*
X40615746Y-95004594D01*
X40615746Y-95004594D02*
X40978603Y-95149737D01*
X40978603Y-95149737D02*
X41051175Y-95222308D01*
X41051175Y-95222308D02*
X41123746Y-95367451D01*
X40543175Y-94133737D02*
X40615746Y-93988594D01*
X40615746Y-93988594D02*
X40615746Y-93698308D01*
X40615746Y-93698308D02*
X40543175Y-93553165D01*
X40543175Y-93553165D02*
X40398032Y-93480594D01*
X40398032Y-93480594D02*
X40325460Y-93480594D01*
X40325460Y-93480594D02*
X40180317Y-93553165D01*
X40180317Y-93553165D02*
X40107746Y-93698308D01*
X40107746Y-93698308D02*
X40107746Y-93916023D01*
X40107746Y-93916023D02*
X40035175Y-94061165D01*
X40035175Y-94061165D02*
X39890032Y-94133737D01*
X39890032Y-94133737D02*
X39817460Y-94133737D01*
X39817460Y-94133737D02*
X39672317Y-94061165D01*
X39672317Y-94061165D02*
X39599746Y-93916023D01*
X39599746Y-93916023D02*
X39599746Y-93698308D01*
X39599746Y-93698308D02*
X39672317Y-93553165D01*
X39599746Y-93045166D02*
X39599746Y-92464594D01*
X39091746Y-92827451D02*
X40398032Y-92827451D01*
X40398032Y-92827451D02*
X40543175Y-92754880D01*
X40543175Y-92754880D02*
X40615746Y-92609737D01*
X40615746Y-92609737D02*
X40615746Y-92464594D01*
X40543175Y-91376023D02*
X40615746Y-91521166D01*
X40615746Y-91521166D02*
X40615746Y-91811452D01*
X40615746Y-91811452D02*
X40543175Y-91956594D01*
X40543175Y-91956594D02*
X40398032Y-92029166D01*
X40398032Y-92029166D02*
X39817460Y-92029166D01*
X39817460Y-92029166D02*
X39672317Y-91956594D01*
X39672317Y-91956594D02*
X39599746Y-91811452D01*
X39599746Y-91811452D02*
X39599746Y-91521166D01*
X39599746Y-91521166D02*
X39672317Y-91376023D01*
X39672317Y-91376023D02*
X39817460Y-91303452D01*
X39817460Y-91303452D02*
X39962603Y-91303452D01*
X39962603Y-91303452D02*
X40107746Y-92029166D01*
X40615746Y-90650308D02*
X39599746Y-90650308D01*
X39744889Y-90650308D02*
X39672317Y-90577737D01*
X39672317Y-90577737D02*
X39599746Y-90432594D01*
X39599746Y-90432594D02*
X39599746Y-90214880D01*
X39599746Y-90214880D02*
X39672317Y-90069737D01*
X39672317Y-90069737D02*
X39817460Y-89997166D01*
X39817460Y-89997166D02*
X40615746Y-89997166D01*
X39817460Y-89997166D02*
X39672317Y-89924594D01*
X39672317Y-89924594D02*
X39599746Y-89779451D01*
X39599746Y-89779451D02*
X39599746Y-89561737D01*
X39599746Y-89561737D02*
X39672317Y-89416594D01*
X39672317Y-89416594D02*
X39817460Y-89344023D01*
X39817460Y-89344023D02*
X40615746Y-89344023D01*
X40543175Y-88690880D02*
X40615746Y-88545737D01*
X40615746Y-88545737D02*
X40615746Y-88255451D01*
X40615746Y-88255451D02*
X40543175Y-88110308D01*
X40543175Y-88110308D02*
X40398032Y-88037737D01*
X40398032Y-88037737D02*
X40325460Y-88037737D01*
X40325460Y-88037737D02*
X40180317Y-88110308D01*
X40180317Y-88110308D02*
X40107746Y-88255451D01*
X40107746Y-88255451D02*
X40107746Y-88473166D01*
X40107746Y-88473166D02*
X40035175Y-88618308D01*
X40035175Y-88618308D02*
X39890032Y-88690880D01*
X39890032Y-88690880D02*
X39817460Y-88690880D01*
X39817460Y-88690880D02*
X39672317Y-88618308D01*
X39672317Y-88618308D02*
X39599746Y-88473166D01*
X39599746Y-88473166D02*
X39599746Y-88255451D01*
X39599746Y-88255451D02*
X39672317Y-88110308D01*
X31169429Y-94731535D02*
X32330572Y-94731535D01*
X31750000Y-95312106D02*
X31750000Y-94150963D01*
X31169429Y-92191535D02*
X32330572Y-92191535D01*
X32149142Y-127515677D02*
X32004000Y-127443106D01*
X32004000Y-127443106D02*
X31786285Y-127443106D01*
X31786285Y-127443106D02*
X31568571Y-127515677D01*
X31568571Y-127515677D02*
X31423428Y-127660820D01*
X31423428Y-127660820D02*
X31350857Y-127805963D01*
X31350857Y-127805963D02*
X31278285Y-128096249D01*
X31278285Y-128096249D02*
X31278285Y-128313963D01*
X31278285Y-128313963D02*
X31350857Y-128604249D01*
X31350857Y-128604249D02*
X31423428Y-128749392D01*
X31423428Y-128749392D02*
X31568571Y-128894535D01*
X31568571Y-128894535D02*
X31786285Y-128967106D01*
X31786285Y-128967106D02*
X31931428Y-128967106D01*
X31931428Y-128967106D02*
X32149142Y-128894535D01*
X32149142Y-128894535D02*
X32221714Y-128821963D01*
X32221714Y-128821963D02*
X32221714Y-128313963D01*
X32221714Y-128313963D02*
X31931428Y-128313963D01*
X31078714Y-125846535D02*
X32239857Y-125846535D01*
X33691285Y-124903106D02*
X32965571Y-124903106D01*
X32965571Y-124903106D02*
X32892999Y-125628820D01*
X32892999Y-125628820D02*
X32965571Y-125556249D01*
X32965571Y-125556249D02*
X33110714Y-125483677D01*
X33110714Y-125483677D02*
X33473571Y-125483677D01*
X33473571Y-125483677D02*
X33618714Y-125556249D01*
X33618714Y-125556249D02*
X33691285Y-125628820D01*
X33691285Y-125628820D02*
X33763856Y-125773963D01*
X33763856Y-125773963D02*
X33763856Y-126136820D01*
X33763856Y-126136820D02*
X33691285Y-126281963D01*
X33691285Y-126281963D02*
X33618714Y-126354535D01*
X33618714Y-126354535D02*
X33473571Y-126427106D01*
X33473571Y-126427106D02*
X33110714Y-126427106D01*
X33110714Y-126427106D02*
X32965571Y-126354535D01*
X32965571Y-126354535D02*
X32892999Y-126281963D01*
D10*
X52178857Y-98130464D02*
X52178857Y-99364178D01*
X52178857Y-99364178D02*
X52251428Y-99509321D01*
X52251428Y-99509321D02*
X52324000Y-99581893D01*
X52324000Y-99581893D02*
X52469142Y-99654464D01*
X52469142Y-99654464D02*
X52759428Y-99654464D01*
X52759428Y-99654464D02*
X52904571Y-99581893D01*
X52904571Y-99581893D02*
X52977142Y-99509321D01*
X52977142Y-99509321D02*
X53049714Y-99364178D01*
X53049714Y-99364178D02*
X53049714Y-98130464D01*
X54428571Y-98130464D02*
X54138285Y-98130464D01*
X54138285Y-98130464D02*
X53993142Y-98203035D01*
X53993142Y-98203035D02*
X53920571Y-98275607D01*
X53920571Y-98275607D02*
X53775428Y-98493321D01*
X53775428Y-98493321D02*
X53702856Y-98783607D01*
X53702856Y-98783607D02*
X53702856Y-99364178D01*
X53702856Y-99364178D02*
X53775428Y-99509321D01*
X53775428Y-99509321D02*
X53847999Y-99581893D01*
X53847999Y-99581893D02*
X53993142Y-99654464D01*
X53993142Y-99654464D02*
X54283428Y-99654464D01*
X54283428Y-99654464D02*
X54428571Y-99581893D01*
X54428571Y-99581893D02*
X54501142Y-99509321D01*
X54501142Y-99509321D02*
X54573713Y-99364178D01*
X54573713Y-99364178D02*
X54573713Y-99001321D01*
X54573713Y-99001321D02*
X54501142Y-98856178D01*
X54501142Y-98856178D02*
X54428571Y-98783607D01*
X54428571Y-98783607D02*
X54283428Y-98711035D01*
X54283428Y-98711035D02*
X53993142Y-98711035D01*
X53993142Y-98711035D02*
X53847999Y-98783607D01*
X53847999Y-98783607D02*
X53775428Y-98856178D01*
X53775428Y-98856178D02*
X53702856Y-99001321D01*
X99350285Y-133264321D02*
X99277713Y-133336893D01*
X99277713Y-133336893D02*
X99059999Y-133409464D01*
X99059999Y-133409464D02*
X98914856Y-133409464D01*
X98914856Y-133409464D02*
X98697142Y-133336893D01*
X98697142Y-133336893D02*
X98551999Y-133191750D01*
X98551999Y-133191750D02*
X98479428Y-133046607D01*
X98479428Y-133046607D02*
X98406856Y-132756321D01*
X98406856Y-132756321D02*
X98406856Y-132538607D01*
X98406856Y-132538607D02*
X98479428Y-132248321D01*
X98479428Y-132248321D02*
X98551999Y-132103178D01*
X98551999Y-132103178D02*
X98697142Y-131958035D01*
X98697142Y-131958035D02*
X98914856Y-131885464D01*
X98914856Y-131885464D02*
X99059999Y-131885464D01*
X99059999Y-131885464D02*
X99277713Y-131958035D01*
X99277713Y-131958035D02*
X99350285Y-132030607D01*
X99930856Y-132030607D02*
X100003428Y-131958035D01*
X100003428Y-131958035D02*
X100148571Y-131885464D01*
X100148571Y-131885464D02*
X100511428Y-131885464D01*
X100511428Y-131885464D02*
X100656571Y-131958035D01*
X100656571Y-131958035D02*
X100729142Y-132030607D01*
X100729142Y-132030607D02*
X100801713Y-132175750D01*
X100801713Y-132175750D02*
X100801713Y-132320893D01*
X100801713Y-132320893D02*
X100729142Y-132538607D01*
X100729142Y-132538607D02*
X99858285Y-133409464D01*
X99858285Y-133409464D02*
X100801713Y-133409464D01*
X101745142Y-131885464D02*
X101890285Y-131885464D01*
X101890285Y-131885464D02*
X102035428Y-131958035D01*
X102035428Y-131958035D02*
X102108000Y-132030607D01*
X102108000Y-132030607D02*
X102180571Y-132175750D01*
X102180571Y-132175750D02*
X102253142Y-132466035D01*
X102253142Y-132466035D02*
X102253142Y-132828893D01*
X102253142Y-132828893D02*
X102180571Y-133119178D01*
X102180571Y-133119178D02*
X102108000Y-133264321D01*
X102108000Y-133264321D02*
X102035428Y-133336893D01*
X102035428Y-133336893D02*
X101890285Y-133409464D01*
X101890285Y-133409464D02*
X101745142Y-133409464D01*
X101745142Y-133409464D02*
X101600000Y-133336893D01*
X101600000Y-133336893D02*
X101527428Y-133264321D01*
X101527428Y-133264321D02*
X101454857Y-133119178D01*
X101454857Y-133119178D02*
X101382285Y-132828893D01*
X101382285Y-132828893D02*
X101382285Y-132466035D01*
X101382285Y-132466035D02*
X101454857Y-132175750D01*
X101454857Y-132175750D02*
X101527428Y-132030607D01*
X101527428Y-132030607D02*
X101600000Y-131958035D01*
X101600000Y-131958035D02*
X101745142Y-131885464D01*
X125875143Y-166429464D02*
X125875143Y-164905464D01*
X125875143Y-164905464D02*
X126238000Y-164905464D01*
X126238000Y-164905464D02*
X126455714Y-164978035D01*
X126455714Y-164978035D02*
X126600857Y-165123178D01*
X126600857Y-165123178D02*
X126673428Y-165268321D01*
X126673428Y-165268321D02*
X126746000Y-165558607D01*
X126746000Y-165558607D02*
X126746000Y-165776321D01*
X126746000Y-165776321D02*
X126673428Y-166066607D01*
X126673428Y-166066607D02*
X126600857Y-166211750D01*
X126600857Y-166211750D02*
X126455714Y-166356893D01*
X126455714Y-166356893D02*
X126238000Y-166429464D01*
X126238000Y-166429464D02*
X125875143Y-166429464D01*
X128197428Y-166429464D02*
X127326571Y-166429464D01*
X127762000Y-166429464D02*
X127762000Y-164905464D01*
X127762000Y-164905464D02*
X127616857Y-165123178D01*
X127616857Y-165123178D02*
X127471714Y-165268321D01*
X127471714Y-165268321D02*
X127326571Y-165340893D01*
X104248857Y-66690464D02*
X104248857Y-67924178D01*
X104248857Y-67924178D02*
X104321428Y-68069321D01*
X104321428Y-68069321D02*
X104394000Y-68141893D01*
X104394000Y-68141893D02*
X104539142Y-68214464D01*
X104539142Y-68214464D02*
X104829428Y-68214464D01*
X104829428Y-68214464D02*
X104974571Y-68141893D01*
X104974571Y-68141893D02*
X105047142Y-68069321D01*
X105047142Y-68069321D02*
X105119714Y-67924178D01*
X105119714Y-67924178D02*
X105119714Y-66690464D01*
X106571142Y-66690464D02*
X105845428Y-66690464D01*
X105845428Y-66690464D02*
X105772856Y-67416178D01*
X105772856Y-67416178D02*
X105845428Y-67343607D01*
X105845428Y-67343607D02*
X105990571Y-67271035D01*
X105990571Y-67271035D02*
X106353428Y-67271035D01*
X106353428Y-67271035D02*
X106498571Y-67343607D01*
X106498571Y-67343607D02*
X106571142Y-67416178D01*
X106571142Y-67416178D02*
X106643713Y-67561321D01*
X106643713Y-67561321D02*
X106643713Y-67924178D01*
X106643713Y-67924178D02*
X106571142Y-68069321D01*
X106571142Y-68069321D02*
X106498571Y-68141893D01*
X106498571Y-68141893D02*
X106353428Y-68214464D01*
X106353428Y-68214464D02*
X105990571Y-68214464D01*
X105990571Y-68214464D02*
X105845428Y-68141893D01*
X105845428Y-68141893D02*
X105772856Y-68069321D01*
X110630143Y-166429464D02*
X110630143Y-164905464D01*
X110630143Y-164905464D02*
X110993000Y-164905464D01*
X110993000Y-164905464D02*
X111210714Y-164978035D01*
X111210714Y-164978035D02*
X111355857Y-165123178D01*
X111355857Y-165123178D02*
X111428428Y-165268321D01*
X111428428Y-165268321D02*
X111501000Y-165558607D01*
X111501000Y-165558607D02*
X111501000Y-165776321D01*
X111501000Y-165776321D02*
X111428428Y-166066607D01*
X111428428Y-166066607D02*
X111355857Y-166211750D01*
X111355857Y-166211750D02*
X111210714Y-166356893D01*
X111210714Y-166356893D02*
X110993000Y-166429464D01*
X110993000Y-166429464D02*
X110630143Y-166429464D01*
X112009000Y-164905464D02*
X112952428Y-164905464D01*
X112952428Y-164905464D02*
X112444428Y-165486035D01*
X112444428Y-165486035D02*
X112662143Y-165486035D01*
X112662143Y-165486035D02*
X112807286Y-165558607D01*
X112807286Y-165558607D02*
X112879857Y-165631178D01*
X112879857Y-165631178D02*
X112952428Y-165776321D01*
X112952428Y-165776321D02*
X112952428Y-166139178D01*
X112952428Y-166139178D02*
X112879857Y-166284321D01*
X112879857Y-166284321D02*
X112807286Y-166356893D01*
X112807286Y-166356893D02*
X112662143Y-166429464D01*
X112662143Y-166429464D02*
X112226714Y-166429464D01*
X112226714Y-166429464D02*
X112081571Y-166356893D01*
X112081571Y-166356893D02*
X112009000Y-166284321D01*
X132139464Y-152018999D02*
X131413750Y-152526999D01*
X132139464Y-152889856D02*
X130615464Y-152889856D01*
X130615464Y-152889856D02*
X130615464Y-152309285D01*
X130615464Y-152309285D02*
X130688035Y-152164142D01*
X130688035Y-152164142D02*
X130760607Y-152091571D01*
X130760607Y-152091571D02*
X130905750Y-152018999D01*
X130905750Y-152018999D02*
X131123464Y-152018999D01*
X131123464Y-152018999D02*
X131268607Y-152091571D01*
X131268607Y-152091571D02*
X131341178Y-152164142D01*
X131341178Y-152164142D02*
X131413750Y-152309285D01*
X131413750Y-152309285D02*
X131413750Y-152889856D01*
X131123464Y-150712714D02*
X132139464Y-150712714D01*
X130542893Y-151075571D02*
X131631464Y-151438428D01*
X131631464Y-151438428D02*
X131631464Y-150494999D01*
X56006999Y-69655464D02*
X56006999Y-70744035D01*
X56006999Y-70744035D02*
X55934428Y-70961750D01*
X55934428Y-70961750D02*
X55789285Y-71106893D01*
X55789285Y-71106893D02*
X55571571Y-71179464D01*
X55571571Y-71179464D02*
X55426428Y-71179464D01*
X57385857Y-70163464D02*
X57385857Y-71179464D01*
X57022999Y-69582893D02*
X56660142Y-70671464D01*
X56660142Y-70671464D02*
X57603571Y-70671464D01*
X81152999Y-161911893D02*
X81370714Y-161984464D01*
X81370714Y-161984464D02*
X81733571Y-161984464D01*
X81733571Y-161984464D02*
X81878714Y-161911893D01*
X81878714Y-161911893D02*
X81951285Y-161839321D01*
X81951285Y-161839321D02*
X82023856Y-161694178D01*
X82023856Y-161694178D02*
X82023856Y-161549035D01*
X82023856Y-161549035D02*
X81951285Y-161403893D01*
X81951285Y-161403893D02*
X81878714Y-161331321D01*
X81878714Y-161331321D02*
X81733571Y-161258750D01*
X81733571Y-161258750D02*
X81443285Y-161186178D01*
X81443285Y-161186178D02*
X81298142Y-161113607D01*
X81298142Y-161113607D02*
X81225571Y-161041035D01*
X81225571Y-161041035D02*
X81152999Y-160895893D01*
X81152999Y-160895893D02*
X81152999Y-160750750D01*
X81152999Y-160750750D02*
X81225571Y-160605607D01*
X81225571Y-160605607D02*
X81298142Y-160533035D01*
X81298142Y-160533035D02*
X81443285Y-160460464D01*
X81443285Y-160460464D02*
X81806142Y-160460464D01*
X81806142Y-160460464D02*
X82023856Y-160533035D01*
X82531857Y-160460464D02*
X82894714Y-161984464D01*
X82894714Y-161984464D02*
X83185000Y-160895893D01*
X83185000Y-160895893D02*
X83475285Y-161984464D01*
X83475285Y-161984464D02*
X83838143Y-160460464D01*
X84273571Y-160460464D02*
X85216999Y-160460464D01*
X85216999Y-160460464D02*
X84708999Y-161041035D01*
X84708999Y-161041035D02*
X84926714Y-161041035D01*
X84926714Y-161041035D02*
X85071857Y-161113607D01*
X85071857Y-161113607D02*
X85144428Y-161186178D01*
X85144428Y-161186178D02*
X85216999Y-161331321D01*
X85216999Y-161331321D02*
X85216999Y-161694178D01*
X85216999Y-161694178D02*
X85144428Y-161839321D01*
X85144428Y-161839321D02*
X85071857Y-161911893D01*
X85071857Y-161911893D02*
X84926714Y-161984464D01*
X84926714Y-161984464D02*
X84491285Y-161984464D01*
X84491285Y-161984464D02*
X84346142Y-161911893D01*
X84346142Y-161911893D02*
X84273571Y-161839321D01*
D12*
X81280000Y-170904819D02*
X81280000Y-171142914D01*
X81041905Y-171047676D02*
X81280000Y-171142914D01*
X81280000Y-171142914D02*
X81518095Y-171047676D01*
X81137143Y-171333390D02*
X81280000Y-171142914D01*
X81280000Y-171142914D02*
X81422857Y-171333390D01*
X81280000Y-170904819D02*
X81280000Y-171142914D01*
X81041905Y-171047676D02*
X81280000Y-171142914D01*
X81280000Y-171142914D02*
X81518095Y-171047676D01*
X81137143Y-171333390D02*
X81280000Y-171142914D01*
X81280000Y-171142914D02*
X81422857Y-171333390D01*
D10*
X109238143Y-131885464D02*
X109238143Y-133119178D01*
X109238143Y-133119178D02*
X109310714Y-133264321D01*
X109310714Y-133264321D02*
X109383286Y-133336893D01*
X109383286Y-133336893D02*
X109528428Y-133409464D01*
X109528428Y-133409464D02*
X109818714Y-133409464D01*
X109818714Y-133409464D02*
X109963857Y-133336893D01*
X109963857Y-133336893D02*
X110036428Y-133264321D01*
X110036428Y-133264321D02*
X110109000Y-133119178D01*
X110109000Y-133119178D02*
X110109000Y-131885464D01*
X111632999Y-133409464D02*
X110762142Y-133409464D01*
X111197571Y-133409464D02*
X111197571Y-131885464D01*
X111197571Y-131885464D02*
X111052428Y-132103178D01*
X111052428Y-132103178D02*
X110907285Y-132248321D01*
X110907285Y-132248321D02*
X110762142Y-132320893D01*
X113084428Y-133409464D02*
X112213571Y-133409464D01*
X112649000Y-133409464D02*
X112649000Y-131885464D01*
X112649000Y-131885464D02*
X112503857Y-132103178D01*
X112503857Y-132103178D02*
X112358714Y-132248321D01*
X112358714Y-132248321D02*
X112213571Y-132320893D01*
X130404464Y-103123999D02*
X129678750Y-103631999D01*
X130404464Y-103994856D02*
X128880464Y-103994856D01*
X128880464Y-103994856D02*
X128880464Y-103414285D01*
X128880464Y-103414285D02*
X128953035Y-103269142D01*
X128953035Y-103269142D02*
X129025607Y-103196571D01*
X129025607Y-103196571D02*
X129170750Y-103123999D01*
X129170750Y-103123999D02*
X129388464Y-103123999D01*
X129388464Y-103123999D02*
X129533607Y-103196571D01*
X129533607Y-103196571D02*
X129606178Y-103269142D01*
X129606178Y-103269142D02*
X129678750Y-103414285D01*
X129678750Y-103414285D02*
X129678750Y-103994856D01*
X128880464Y-101745142D02*
X128880464Y-102470856D01*
X128880464Y-102470856D02*
X129606178Y-102543428D01*
X129606178Y-102543428D02*
X129533607Y-102470856D01*
X129533607Y-102470856D02*
X129461035Y-102325714D01*
X129461035Y-102325714D02*
X129461035Y-101962856D01*
X129461035Y-101962856D02*
X129533607Y-101817714D01*
X129533607Y-101817714D02*
X129606178Y-101745142D01*
X129606178Y-101745142D02*
X129751321Y-101672571D01*
X129751321Y-101672571D02*
X130114178Y-101672571D01*
X130114178Y-101672571D02*
X130259321Y-101745142D01*
X130259321Y-101745142D02*
X130331893Y-101817714D01*
X130331893Y-101817714D02*
X130404464Y-101962856D01*
X130404464Y-101962856D02*
X130404464Y-102325714D01*
X130404464Y-102325714D02*
X130331893Y-102470856D01*
X130331893Y-102470856D02*
X130259321Y-102543428D01*
X100076000Y-164694464D02*
X99568000Y-163968750D01*
X99205143Y-164694464D02*
X99205143Y-163170464D01*
X99205143Y-163170464D02*
X99785714Y-163170464D01*
X99785714Y-163170464D02*
X99930857Y-163243035D01*
X99930857Y-163243035D02*
X100003428Y-163315607D01*
X100003428Y-163315607D02*
X100076000Y-163460750D01*
X100076000Y-163460750D02*
X100076000Y-163678464D01*
X100076000Y-163678464D02*
X100003428Y-163823607D01*
X100003428Y-163823607D02*
X99930857Y-163896178D01*
X99930857Y-163896178D02*
X99785714Y-163968750D01*
X99785714Y-163968750D02*
X99205143Y-163968750D01*
X100584000Y-163170464D02*
X101527428Y-163170464D01*
X101527428Y-163170464D02*
X101019428Y-163751035D01*
X101019428Y-163751035D02*
X101237143Y-163751035D01*
X101237143Y-163751035D02*
X101382286Y-163823607D01*
X101382286Y-163823607D02*
X101454857Y-163896178D01*
X101454857Y-163896178D02*
X101527428Y-164041321D01*
X101527428Y-164041321D02*
X101527428Y-164404178D01*
X101527428Y-164404178D02*
X101454857Y-164549321D01*
X101454857Y-164549321D02*
X101382286Y-164621893D01*
X101382286Y-164621893D02*
X101237143Y-164694464D01*
X101237143Y-164694464D02*
X100801714Y-164694464D01*
X100801714Y-164694464D02*
X100656571Y-164621893D01*
X100656571Y-164621893D02*
X100584000Y-164549321D01*
X126111000Y-159444464D02*
X125603000Y-158718750D01*
X125240143Y-159444464D02*
X125240143Y-157920464D01*
X125240143Y-157920464D02*
X125820714Y-157920464D01*
X125820714Y-157920464D02*
X125965857Y-157993035D01*
X125965857Y-157993035D02*
X126038428Y-158065607D01*
X126038428Y-158065607D02*
X126111000Y-158210750D01*
X126111000Y-158210750D02*
X126111000Y-158428464D01*
X126111000Y-158428464D02*
X126038428Y-158573607D01*
X126038428Y-158573607D02*
X125965857Y-158646178D01*
X125965857Y-158646178D02*
X125820714Y-158718750D01*
X125820714Y-158718750D02*
X125240143Y-158718750D01*
X126619000Y-157920464D02*
X127635000Y-157920464D01*
X127635000Y-157920464D02*
X126981857Y-159444464D01*
X103886000Y-94529321D02*
X103813428Y-94601893D01*
X103813428Y-94601893D02*
X103595714Y-94674464D01*
X103595714Y-94674464D02*
X103450571Y-94674464D01*
X103450571Y-94674464D02*
X103232857Y-94601893D01*
X103232857Y-94601893D02*
X103087714Y-94456750D01*
X103087714Y-94456750D02*
X103015143Y-94311607D01*
X103015143Y-94311607D02*
X102942571Y-94021321D01*
X102942571Y-94021321D02*
X102942571Y-93803607D01*
X102942571Y-93803607D02*
X103015143Y-93513321D01*
X103015143Y-93513321D02*
X103087714Y-93368178D01*
X103087714Y-93368178D02*
X103232857Y-93223035D01*
X103232857Y-93223035D02*
X103450571Y-93150464D01*
X103450571Y-93150464D02*
X103595714Y-93150464D01*
X103595714Y-93150464D02*
X103813428Y-93223035D01*
X103813428Y-93223035D02*
X103886000Y-93295607D01*
X105192286Y-93150464D02*
X104902000Y-93150464D01*
X104902000Y-93150464D02*
X104756857Y-93223035D01*
X104756857Y-93223035D02*
X104684286Y-93295607D01*
X104684286Y-93295607D02*
X104539143Y-93513321D01*
X104539143Y-93513321D02*
X104466571Y-93803607D01*
X104466571Y-93803607D02*
X104466571Y-94384178D01*
X104466571Y-94384178D02*
X104539143Y-94529321D01*
X104539143Y-94529321D02*
X104611714Y-94601893D01*
X104611714Y-94601893D02*
X104756857Y-94674464D01*
X104756857Y-94674464D02*
X105047143Y-94674464D01*
X105047143Y-94674464D02*
X105192286Y-94601893D01*
X105192286Y-94601893D02*
X105264857Y-94529321D01*
X105264857Y-94529321D02*
X105337428Y-94384178D01*
X105337428Y-94384178D02*
X105337428Y-94021321D01*
X105337428Y-94021321D02*
X105264857Y-93876178D01*
X105264857Y-93876178D02*
X105192286Y-93803607D01*
X105192286Y-93803607D02*
X105047143Y-93731035D01*
X105047143Y-93731035D02*
X104756857Y-93731035D01*
X104756857Y-93731035D02*
X104611714Y-93803607D01*
X104611714Y-93803607D02*
X104539143Y-93876178D01*
X104539143Y-93876178D02*
X104466571Y-94021321D01*
X113579321Y-107568999D02*
X113651893Y-107641571D01*
X113651893Y-107641571D02*
X113724464Y-107859285D01*
X113724464Y-107859285D02*
X113724464Y-108004428D01*
X113724464Y-108004428D02*
X113651893Y-108222142D01*
X113651893Y-108222142D02*
X113506750Y-108367285D01*
X113506750Y-108367285D02*
X113361607Y-108439856D01*
X113361607Y-108439856D02*
X113071321Y-108512428D01*
X113071321Y-108512428D02*
X112853607Y-108512428D01*
X112853607Y-108512428D02*
X112563321Y-108439856D01*
X112563321Y-108439856D02*
X112418178Y-108367285D01*
X112418178Y-108367285D02*
X112273035Y-108222142D01*
X112273035Y-108222142D02*
X112200464Y-108004428D01*
X112200464Y-108004428D02*
X112200464Y-107859285D01*
X112200464Y-107859285D02*
X112273035Y-107641571D01*
X112273035Y-107641571D02*
X112345607Y-107568999D01*
X112853607Y-106698142D02*
X112781035Y-106843285D01*
X112781035Y-106843285D02*
X112708464Y-106915856D01*
X112708464Y-106915856D02*
X112563321Y-106988428D01*
X112563321Y-106988428D02*
X112490750Y-106988428D01*
X112490750Y-106988428D02*
X112345607Y-106915856D01*
X112345607Y-106915856D02*
X112273035Y-106843285D01*
X112273035Y-106843285D02*
X112200464Y-106698142D01*
X112200464Y-106698142D02*
X112200464Y-106407856D01*
X112200464Y-106407856D02*
X112273035Y-106262714D01*
X112273035Y-106262714D02*
X112345607Y-106190142D01*
X112345607Y-106190142D02*
X112490750Y-106117571D01*
X112490750Y-106117571D02*
X112563321Y-106117571D01*
X112563321Y-106117571D02*
X112708464Y-106190142D01*
X112708464Y-106190142D02*
X112781035Y-106262714D01*
X112781035Y-106262714D02*
X112853607Y-106407856D01*
X112853607Y-106407856D02*
X112853607Y-106698142D01*
X112853607Y-106698142D02*
X112926178Y-106843285D01*
X112926178Y-106843285D02*
X112998750Y-106915856D01*
X112998750Y-106915856D02*
X113143893Y-106988428D01*
X113143893Y-106988428D02*
X113434178Y-106988428D01*
X113434178Y-106988428D02*
X113579321Y-106915856D01*
X113579321Y-106915856D02*
X113651893Y-106843285D01*
X113651893Y-106843285D02*
X113724464Y-106698142D01*
X113724464Y-106698142D02*
X113724464Y-106407856D01*
X113724464Y-106407856D02*
X113651893Y-106262714D01*
X113651893Y-106262714D02*
X113579321Y-106190142D01*
X113579321Y-106190142D02*
X113434178Y-106117571D01*
X113434178Y-106117571D02*
X113143893Y-106117571D01*
X113143893Y-106117571D02*
X112998750Y-106190142D01*
X112998750Y-106190142D02*
X112926178Y-106262714D01*
X112926178Y-106262714D02*
X112853607Y-106407856D01*
X53961893Y-170307000D02*
X54034464Y-170089286D01*
X54034464Y-170089286D02*
X54034464Y-169726428D01*
X54034464Y-169726428D02*
X53961893Y-169581286D01*
X53961893Y-169581286D02*
X53889321Y-169508714D01*
X53889321Y-169508714D02*
X53744178Y-169436143D01*
X53744178Y-169436143D02*
X53599035Y-169436143D01*
X53599035Y-169436143D02*
X53453893Y-169508714D01*
X53453893Y-169508714D02*
X53381321Y-169581286D01*
X53381321Y-169581286D02*
X53308750Y-169726428D01*
X53308750Y-169726428D02*
X53236178Y-170016714D01*
X53236178Y-170016714D02*
X53163607Y-170161857D01*
X53163607Y-170161857D02*
X53091035Y-170234428D01*
X53091035Y-170234428D02*
X52945893Y-170307000D01*
X52945893Y-170307000D02*
X52800750Y-170307000D01*
X52800750Y-170307000D02*
X52655607Y-170234428D01*
X52655607Y-170234428D02*
X52583035Y-170161857D01*
X52583035Y-170161857D02*
X52510464Y-170016714D01*
X52510464Y-170016714D02*
X52510464Y-169653857D01*
X52510464Y-169653857D02*
X52583035Y-169436143D01*
X52510464Y-168928142D02*
X54034464Y-168565285D01*
X54034464Y-168565285D02*
X52945893Y-168274999D01*
X52945893Y-168274999D02*
X54034464Y-167984714D01*
X54034464Y-167984714D02*
X52510464Y-167621857D01*
X54034464Y-166243000D02*
X54034464Y-167113857D01*
X54034464Y-166678428D02*
X52510464Y-166678428D01*
X52510464Y-166678428D02*
X52728178Y-166823571D01*
X52728178Y-166823571D02*
X52873321Y-166968714D01*
X52873321Y-166968714D02*
X52945893Y-167113857D01*
X89936000Y-62779321D02*
X89863428Y-62851893D01*
X89863428Y-62851893D02*
X89645714Y-62924464D01*
X89645714Y-62924464D02*
X89500571Y-62924464D01*
X89500571Y-62924464D02*
X89282857Y-62851893D01*
X89282857Y-62851893D02*
X89137714Y-62706750D01*
X89137714Y-62706750D02*
X89065143Y-62561607D01*
X89065143Y-62561607D02*
X88992571Y-62271321D01*
X88992571Y-62271321D02*
X88992571Y-62053607D01*
X88992571Y-62053607D02*
X89065143Y-61763321D01*
X89065143Y-61763321D02*
X89137714Y-61618178D01*
X89137714Y-61618178D02*
X89282857Y-61473035D01*
X89282857Y-61473035D02*
X89500571Y-61400464D01*
X89500571Y-61400464D02*
X89645714Y-61400464D01*
X89645714Y-61400464D02*
X89863428Y-61473035D01*
X89863428Y-61473035D02*
X89936000Y-61545607D01*
X90444000Y-61400464D02*
X91387428Y-61400464D01*
X91387428Y-61400464D02*
X90879428Y-61981035D01*
X90879428Y-61981035D02*
X91097143Y-61981035D01*
X91097143Y-61981035D02*
X91242286Y-62053607D01*
X91242286Y-62053607D02*
X91314857Y-62126178D01*
X91314857Y-62126178D02*
X91387428Y-62271321D01*
X91387428Y-62271321D02*
X91387428Y-62634178D01*
X91387428Y-62634178D02*
X91314857Y-62779321D01*
X91314857Y-62779321D02*
X91242286Y-62851893D01*
X91242286Y-62851893D02*
X91097143Y-62924464D01*
X91097143Y-62924464D02*
X90661714Y-62924464D01*
X90661714Y-62924464D02*
X90516571Y-62851893D01*
X90516571Y-62851893D02*
X90444000Y-62779321D01*
X127018143Y-131885464D02*
X127018143Y-133119178D01*
X127018143Y-133119178D02*
X127090714Y-133264321D01*
X127090714Y-133264321D02*
X127163286Y-133336893D01*
X127163286Y-133336893D02*
X127308428Y-133409464D01*
X127308428Y-133409464D02*
X127598714Y-133409464D01*
X127598714Y-133409464D02*
X127743857Y-133336893D01*
X127743857Y-133336893D02*
X127816428Y-133264321D01*
X127816428Y-133264321D02*
X127889000Y-133119178D01*
X127889000Y-133119178D02*
X127889000Y-131885464D01*
X129412999Y-133409464D02*
X128542142Y-133409464D01*
X128977571Y-133409464D02*
X128977571Y-131885464D01*
X128977571Y-131885464D02*
X128832428Y-132103178D01*
X128832428Y-132103178D02*
X128687285Y-132248321D01*
X128687285Y-132248321D02*
X128542142Y-132320893D01*
X130356428Y-131885464D02*
X130501571Y-131885464D01*
X130501571Y-131885464D02*
X130646714Y-131958035D01*
X130646714Y-131958035D02*
X130719286Y-132030607D01*
X130719286Y-132030607D02*
X130791857Y-132175750D01*
X130791857Y-132175750D02*
X130864428Y-132466035D01*
X130864428Y-132466035D02*
X130864428Y-132828893D01*
X130864428Y-132828893D02*
X130791857Y-133119178D01*
X130791857Y-133119178D02*
X130719286Y-133264321D01*
X130719286Y-133264321D02*
X130646714Y-133336893D01*
X130646714Y-133336893D02*
X130501571Y-133409464D01*
X130501571Y-133409464D02*
X130356428Y-133409464D01*
X130356428Y-133409464D02*
X130211286Y-133336893D01*
X130211286Y-133336893D02*
X130138714Y-133264321D01*
X130138714Y-133264321D02*
X130066143Y-133119178D01*
X130066143Y-133119178D02*
X129993571Y-132828893D01*
X129993571Y-132828893D02*
X129993571Y-132466035D01*
X129993571Y-132466035D02*
X130066143Y-132175750D01*
X130066143Y-132175750D02*
X130138714Y-132030607D01*
X130138714Y-132030607D02*
X130211286Y-131958035D01*
X130211286Y-131958035D02*
X130356428Y-131885464D01*
X117583857Y-96860464D02*
X117583857Y-98094178D01*
X117583857Y-98094178D02*
X117656428Y-98239321D01*
X117656428Y-98239321D02*
X117729000Y-98311893D01*
X117729000Y-98311893D02*
X117874142Y-98384464D01*
X117874142Y-98384464D02*
X118164428Y-98384464D01*
X118164428Y-98384464D02*
X118309571Y-98311893D01*
X118309571Y-98311893D02*
X118382142Y-98239321D01*
X118382142Y-98239321D02*
X118454714Y-98094178D01*
X118454714Y-98094178D02*
X118454714Y-96860464D01*
X119398142Y-97513607D02*
X119252999Y-97441035D01*
X119252999Y-97441035D02*
X119180428Y-97368464D01*
X119180428Y-97368464D02*
X119107856Y-97223321D01*
X119107856Y-97223321D02*
X119107856Y-97150750D01*
X119107856Y-97150750D02*
X119180428Y-97005607D01*
X119180428Y-97005607D02*
X119252999Y-96933035D01*
X119252999Y-96933035D02*
X119398142Y-96860464D01*
X119398142Y-96860464D02*
X119688428Y-96860464D01*
X119688428Y-96860464D02*
X119833571Y-96933035D01*
X119833571Y-96933035D02*
X119906142Y-97005607D01*
X119906142Y-97005607D02*
X119978713Y-97150750D01*
X119978713Y-97150750D02*
X119978713Y-97223321D01*
X119978713Y-97223321D02*
X119906142Y-97368464D01*
X119906142Y-97368464D02*
X119833571Y-97441035D01*
X119833571Y-97441035D02*
X119688428Y-97513607D01*
X119688428Y-97513607D02*
X119398142Y-97513607D01*
X119398142Y-97513607D02*
X119252999Y-97586178D01*
X119252999Y-97586178D02*
X119180428Y-97658750D01*
X119180428Y-97658750D02*
X119107856Y-97803893D01*
X119107856Y-97803893D02*
X119107856Y-98094178D01*
X119107856Y-98094178D02*
X119180428Y-98239321D01*
X119180428Y-98239321D02*
X119252999Y-98311893D01*
X119252999Y-98311893D02*
X119398142Y-98384464D01*
X119398142Y-98384464D02*
X119688428Y-98384464D01*
X119688428Y-98384464D02*
X119833571Y-98311893D01*
X119833571Y-98311893D02*
X119906142Y-98239321D01*
X119906142Y-98239321D02*
X119978713Y-98094178D01*
X119978713Y-98094178D02*
X119978713Y-97803893D01*
X119978713Y-97803893D02*
X119906142Y-97658750D01*
X119906142Y-97658750D02*
X119833571Y-97586178D01*
X119833571Y-97586178D02*
X119688428Y-97513607D01*
X93726000Y-137709321D02*
X93653428Y-137781893D01*
X93653428Y-137781893D02*
X93435714Y-137854464D01*
X93435714Y-137854464D02*
X93290571Y-137854464D01*
X93290571Y-137854464D02*
X93072857Y-137781893D01*
X93072857Y-137781893D02*
X92927714Y-137636750D01*
X92927714Y-137636750D02*
X92855143Y-137491607D01*
X92855143Y-137491607D02*
X92782571Y-137201321D01*
X92782571Y-137201321D02*
X92782571Y-136983607D01*
X92782571Y-136983607D02*
X92855143Y-136693321D01*
X92855143Y-136693321D02*
X92927714Y-136548178D01*
X92927714Y-136548178D02*
X93072857Y-136403035D01*
X93072857Y-136403035D02*
X93290571Y-136330464D01*
X93290571Y-136330464D02*
X93435714Y-136330464D01*
X93435714Y-136330464D02*
X93653428Y-136403035D01*
X93653428Y-136403035D02*
X93726000Y-136475607D01*
X95032286Y-136838464D02*
X95032286Y-137854464D01*
X94669428Y-136257893D02*
X94306571Y-137346464D01*
X94306571Y-137346464D02*
X95250000Y-137346464D01*
X131100285Y-140884321D02*
X131027713Y-140956893D01*
X131027713Y-140956893D02*
X130809999Y-141029464D01*
X130809999Y-141029464D02*
X130664856Y-141029464D01*
X130664856Y-141029464D02*
X130447142Y-140956893D01*
X130447142Y-140956893D02*
X130301999Y-140811750D01*
X130301999Y-140811750D02*
X130229428Y-140666607D01*
X130229428Y-140666607D02*
X130156856Y-140376321D01*
X130156856Y-140376321D02*
X130156856Y-140158607D01*
X130156856Y-140158607D02*
X130229428Y-139868321D01*
X130229428Y-139868321D02*
X130301999Y-139723178D01*
X130301999Y-139723178D02*
X130447142Y-139578035D01*
X130447142Y-139578035D02*
X130664856Y-139505464D01*
X130664856Y-139505464D02*
X130809999Y-139505464D01*
X130809999Y-139505464D02*
X131027713Y-139578035D01*
X131027713Y-139578035D02*
X131100285Y-139650607D01*
X132551713Y-141029464D02*
X131680856Y-141029464D01*
X132116285Y-141029464D02*
X132116285Y-139505464D01*
X132116285Y-139505464D02*
X131971142Y-139723178D01*
X131971142Y-139723178D02*
X131825999Y-139868321D01*
X131825999Y-139868321D02*
X131680856Y-139940893D01*
X134003142Y-141029464D02*
X133132285Y-141029464D01*
X133567714Y-141029464D02*
X133567714Y-139505464D01*
X133567714Y-139505464D02*
X133422571Y-139723178D01*
X133422571Y-139723178D02*
X133277428Y-139868321D01*
X133277428Y-139868321D02*
X133132285Y-139940893D01*
X73930285Y-62779321D02*
X73857713Y-62851893D01*
X73857713Y-62851893D02*
X73639999Y-62924464D01*
X73639999Y-62924464D02*
X73494856Y-62924464D01*
X73494856Y-62924464D02*
X73277142Y-62851893D01*
X73277142Y-62851893D02*
X73131999Y-62706750D01*
X73131999Y-62706750D02*
X73059428Y-62561607D01*
X73059428Y-62561607D02*
X72986856Y-62271321D01*
X72986856Y-62271321D02*
X72986856Y-62053607D01*
X72986856Y-62053607D02*
X73059428Y-61763321D01*
X73059428Y-61763321D02*
X73131999Y-61618178D01*
X73131999Y-61618178D02*
X73277142Y-61473035D01*
X73277142Y-61473035D02*
X73494856Y-61400464D01*
X73494856Y-61400464D02*
X73639999Y-61400464D01*
X73639999Y-61400464D02*
X73857713Y-61473035D01*
X73857713Y-61473035D02*
X73930285Y-61545607D01*
X75381713Y-62924464D02*
X74510856Y-62924464D01*
X74946285Y-62924464D02*
X74946285Y-61400464D01*
X74946285Y-61400464D02*
X74801142Y-61618178D01*
X74801142Y-61618178D02*
X74655999Y-61763321D01*
X74655999Y-61763321D02*
X74510856Y-61835893D01*
X75889714Y-61400464D02*
X76833142Y-61400464D01*
X76833142Y-61400464D02*
X76325142Y-61981035D01*
X76325142Y-61981035D02*
X76542857Y-61981035D01*
X76542857Y-61981035D02*
X76688000Y-62053607D01*
X76688000Y-62053607D02*
X76760571Y-62126178D01*
X76760571Y-62126178D02*
X76833142Y-62271321D01*
X76833142Y-62271321D02*
X76833142Y-62634178D01*
X76833142Y-62634178D02*
X76760571Y-62779321D01*
X76760571Y-62779321D02*
X76688000Y-62851893D01*
X76688000Y-62851893D02*
X76542857Y-62924464D01*
X76542857Y-62924464D02*
X76107428Y-62924464D01*
X76107428Y-62924464D02*
X75962285Y-62851893D01*
X75962285Y-62851893D02*
X75889714Y-62779321D01*
X27377571Y-100861178D02*
X27595285Y-100933750D01*
X27595285Y-100933750D02*
X27667856Y-101006321D01*
X27667856Y-101006321D02*
X27740428Y-101151464D01*
X27740428Y-101151464D02*
X27740428Y-101369178D01*
X27740428Y-101369178D02*
X27667856Y-101514321D01*
X27667856Y-101514321D02*
X27595285Y-101586893D01*
X27595285Y-101586893D02*
X27450142Y-101659464D01*
X27450142Y-101659464D02*
X26869571Y-101659464D01*
X26869571Y-101659464D02*
X26869571Y-100135464D01*
X26869571Y-100135464D02*
X27377571Y-100135464D01*
X27377571Y-100135464D02*
X27522714Y-100208035D01*
X27522714Y-100208035D02*
X27595285Y-100280607D01*
X27595285Y-100280607D02*
X27667856Y-100425750D01*
X27667856Y-100425750D02*
X27667856Y-100570893D01*
X27667856Y-100570893D02*
X27595285Y-100716035D01*
X27595285Y-100716035D02*
X27522714Y-100788607D01*
X27522714Y-100788607D02*
X27377571Y-100861178D01*
X27377571Y-100861178D02*
X26869571Y-100861178D01*
X28175856Y-100135464D02*
X29046714Y-100135464D01*
X28611285Y-101659464D02*
X28611285Y-100135464D01*
X30352999Y-101659464D02*
X29482142Y-101659464D01*
X29917571Y-101659464D02*
X29917571Y-100135464D01*
X29917571Y-100135464D02*
X29772428Y-100353178D01*
X29772428Y-100353178D02*
X29627285Y-100498321D01*
X29627285Y-100498321D02*
X29482142Y-100570893D01*
X99803857Y-96860464D02*
X99803857Y-98094178D01*
X99803857Y-98094178D02*
X99876428Y-98239321D01*
X99876428Y-98239321D02*
X99949000Y-98311893D01*
X99949000Y-98311893D02*
X100094142Y-98384464D01*
X100094142Y-98384464D02*
X100384428Y-98384464D01*
X100384428Y-98384464D02*
X100529571Y-98311893D01*
X100529571Y-98311893D02*
X100602142Y-98239321D01*
X100602142Y-98239321D02*
X100674714Y-98094178D01*
X100674714Y-98094178D02*
X100674714Y-96860464D01*
X101472999Y-98384464D02*
X101763285Y-98384464D01*
X101763285Y-98384464D02*
X101908428Y-98311893D01*
X101908428Y-98311893D02*
X101980999Y-98239321D01*
X101980999Y-98239321D02*
X102126142Y-98021607D01*
X102126142Y-98021607D02*
X102198713Y-97731321D01*
X102198713Y-97731321D02*
X102198713Y-97150750D01*
X102198713Y-97150750D02*
X102126142Y-97005607D01*
X102126142Y-97005607D02*
X102053571Y-96933035D01*
X102053571Y-96933035D02*
X101908428Y-96860464D01*
X101908428Y-96860464D02*
X101618142Y-96860464D01*
X101618142Y-96860464D02*
X101472999Y-96933035D01*
X101472999Y-96933035D02*
X101400428Y-97005607D01*
X101400428Y-97005607D02*
X101327856Y-97150750D01*
X101327856Y-97150750D02*
X101327856Y-97513607D01*
X101327856Y-97513607D02*
X101400428Y-97658750D01*
X101400428Y-97658750D02*
X101472999Y-97731321D01*
X101472999Y-97731321D02*
X101618142Y-97803893D01*
X101618142Y-97803893D02*
X101908428Y-97803893D01*
X101908428Y-97803893D02*
X102053571Y-97731321D01*
X102053571Y-97731321D02*
X102126142Y-97658750D01*
X102126142Y-97658750D02*
X102198713Y-97513607D01*
X135381999Y-124265464D02*
X135381999Y-125354035D01*
X135381999Y-125354035D02*
X135309428Y-125571750D01*
X135309428Y-125571750D02*
X135164285Y-125716893D01*
X135164285Y-125716893D02*
X134946571Y-125789464D01*
X134946571Y-125789464D02*
X134801428Y-125789464D01*
X135962571Y-124265464D02*
X136978571Y-124265464D01*
X136978571Y-124265464D02*
X136325428Y-125789464D01*
X100076000Y-159444464D02*
X99568000Y-158718750D01*
X99205143Y-159444464D02*
X99205143Y-157920464D01*
X99205143Y-157920464D02*
X99785714Y-157920464D01*
X99785714Y-157920464D02*
X99930857Y-157993035D01*
X99930857Y-157993035D02*
X100003428Y-158065607D01*
X100003428Y-158065607D02*
X100076000Y-158210750D01*
X100076000Y-158210750D02*
X100076000Y-158428464D01*
X100076000Y-158428464D02*
X100003428Y-158573607D01*
X100003428Y-158573607D02*
X99930857Y-158646178D01*
X99930857Y-158646178D02*
X99785714Y-158718750D01*
X99785714Y-158718750D02*
X99205143Y-158718750D01*
X100656571Y-158065607D02*
X100729143Y-157993035D01*
X100729143Y-157993035D02*
X100874286Y-157920464D01*
X100874286Y-157920464D02*
X101237143Y-157920464D01*
X101237143Y-157920464D02*
X101382286Y-157993035D01*
X101382286Y-157993035D02*
X101454857Y-158065607D01*
X101454857Y-158065607D02*
X101527428Y-158210750D01*
X101527428Y-158210750D02*
X101527428Y-158355893D01*
X101527428Y-158355893D02*
X101454857Y-158573607D01*
X101454857Y-158573607D02*
X100584000Y-159444464D01*
X100584000Y-159444464D02*
X101527428Y-159444464D01*
X136330464Y-134493000D02*
X137419035Y-134493000D01*
X137419035Y-134493000D02*
X137636750Y-134565571D01*
X137636750Y-134565571D02*
X137781893Y-134710714D01*
X137781893Y-134710714D02*
X137854464Y-134928428D01*
X137854464Y-134928428D02*
X137854464Y-135073571D01*
X136330464Y-133041571D02*
X136330464Y-133767285D01*
X136330464Y-133767285D02*
X137056178Y-133839857D01*
X137056178Y-133839857D02*
X136983607Y-133767285D01*
X136983607Y-133767285D02*
X136911035Y-133622143D01*
X136911035Y-133622143D02*
X136911035Y-133259285D01*
X136911035Y-133259285D02*
X136983607Y-133114143D01*
X136983607Y-133114143D02*
X137056178Y-133041571D01*
X137056178Y-133041571D02*
X137201321Y-132969000D01*
X137201321Y-132969000D02*
X137564178Y-132969000D01*
X137564178Y-132969000D02*
X137709321Y-133041571D01*
X137709321Y-133041571D02*
X137781893Y-133114143D01*
X137781893Y-133114143D02*
X137854464Y-133259285D01*
X137854464Y-133259285D02*
X137854464Y-133622143D01*
X137854464Y-133622143D02*
X137781893Y-133767285D01*
X137781893Y-133767285D02*
X137709321Y-133839857D01*
X40766999Y-156650464D02*
X40766999Y-157739035D01*
X40766999Y-157739035D02*
X40694428Y-157956750D01*
X40694428Y-157956750D02*
X40549285Y-158101893D01*
X40549285Y-158101893D02*
X40331571Y-158174464D01*
X40331571Y-158174464D02*
X40186428Y-158174464D01*
X41347571Y-156650464D02*
X42290999Y-156650464D01*
X42290999Y-156650464D02*
X41782999Y-157231035D01*
X41782999Y-157231035D02*
X42000714Y-157231035D01*
X42000714Y-157231035D02*
X42145857Y-157303607D01*
X42145857Y-157303607D02*
X42218428Y-157376178D01*
X42218428Y-157376178D02*
X42290999Y-157521321D01*
X42290999Y-157521321D02*
X42290999Y-157884178D01*
X42290999Y-157884178D02*
X42218428Y-158029321D01*
X42218428Y-158029321D02*
X42145857Y-158101893D01*
X42145857Y-158101893D02*
X42000714Y-158174464D01*
X42000714Y-158174464D02*
X41565285Y-158174464D01*
X41565285Y-158174464D02*
X41420142Y-158101893D01*
X41420142Y-158101893D02*
X41347571Y-158029321D01*
X67931893Y-170602000D02*
X68004464Y-170384286D01*
X68004464Y-170384286D02*
X68004464Y-170021428D01*
X68004464Y-170021428D02*
X67931893Y-169876286D01*
X67931893Y-169876286D02*
X67859321Y-169803714D01*
X67859321Y-169803714D02*
X67714178Y-169731143D01*
X67714178Y-169731143D02*
X67569035Y-169731143D01*
X67569035Y-169731143D02*
X67423893Y-169803714D01*
X67423893Y-169803714D02*
X67351321Y-169876286D01*
X67351321Y-169876286D02*
X67278750Y-170021428D01*
X67278750Y-170021428D02*
X67206178Y-170311714D01*
X67206178Y-170311714D02*
X67133607Y-170456857D01*
X67133607Y-170456857D02*
X67061035Y-170529428D01*
X67061035Y-170529428D02*
X66915893Y-170602000D01*
X66915893Y-170602000D02*
X66770750Y-170602000D01*
X66770750Y-170602000D02*
X66625607Y-170529428D01*
X66625607Y-170529428D02*
X66553035Y-170456857D01*
X66553035Y-170456857D02*
X66480464Y-170311714D01*
X66480464Y-170311714D02*
X66480464Y-169948857D01*
X66480464Y-169948857D02*
X66553035Y-169731143D01*
X66480464Y-169223142D02*
X68004464Y-168860285D01*
X68004464Y-168860285D02*
X66915893Y-168569999D01*
X66915893Y-168569999D02*
X68004464Y-168279714D01*
X68004464Y-168279714D02*
X66480464Y-167916857D01*
X66625607Y-167408857D02*
X66553035Y-167336285D01*
X66553035Y-167336285D02*
X66480464Y-167191143D01*
X66480464Y-167191143D02*
X66480464Y-166828285D01*
X66480464Y-166828285D02*
X66553035Y-166683143D01*
X66553035Y-166683143D02*
X66625607Y-166610571D01*
X66625607Y-166610571D02*
X66770750Y-166538000D01*
X66770750Y-166538000D02*
X66915893Y-166538000D01*
X66915893Y-166538000D02*
X67133607Y-166610571D01*
X67133607Y-166610571D02*
X68004464Y-167481428D01*
X68004464Y-167481428D02*
X68004464Y-166538000D01*
X133839857Y-144349607D02*
X133694714Y-144277035D01*
X133694714Y-144277035D02*
X133549571Y-144131893D01*
X133549571Y-144131893D02*
X133331857Y-143914178D01*
X133331857Y-143914178D02*
X133186714Y-143841607D01*
X133186714Y-143841607D02*
X133041571Y-143841607D01*
X133114142Y-144204464D02*
X132969000Y-144131893D01*
X132969000Y-144131893D02*
X132823857Y-143986750D01*
X132823857Y-143986750D02*
X132751285Y-143696464D01*
X132751285Y-143696464D02*
X132751285Y-143188464D01*
X132751285Y-143188464D02*
X132823857Y-142898178D01*
X132823857Y-142898178D02*
X132969000Y-142753035D01*
X132969000Y-142753035D02*
X133114142Y-142680464D01*
X133114142Y-142680464D02*
X133404428Y-142680464D01*
X133404428Y-142680464D02*
X133549571Y-142753035D01*
X133549571Y-142753035D02*
X133694714Y-142898178D01*
X133694714Y-142898178D02*
X133767285Y-143188464D01*
X133767285Y-143188464D02*
X133767285Y-143696464D01*
X133767285Y-143696464D02*
X133694714Y-143986750D01*
X133694714Y-143986750D02*
X133549571Y-144131893D01*
X133549571Y-144131893D02*
X133404428Y-144204464D01*
X133404428Y-144204464D02*
X133114142Y-144204464D01*
X135218713Y-144204464D02*
X134347856Y-144204464D01*
X134783285Y-144204464D02*
X134783285Y-142680464D01*
X134783285Y-142680464D02*
X134638142Y-142898178D01*
X134638142Y-142898178D02*
X134492999Y-143043321D01*
X134492999Y-143043321D02*
X134347856Y-143115893D01*
X45629285Y-105368750D02*
X45629285Y-106094464D01*
X45121285Y-104570464D02*
X45629285Y-105368750D01*
X45629285Y-105368750D02*
X46137285Y-104570464D01*
X47443571Y-106094464D02*
X46572714Y-106094464D01*
X47008143Y-106094464D02*
X47008143Y-104570464D01*
X47008143Y-104570464D02*
X46863000Y-104788178D01*
X46863000Y-104788178D02*
X46717857Y-104933321D01*
X46717857Y-104933321D02*
X46572714Y-105005893D01*
X44558857Y-67750464D02*
X44558857Y-68984178D01*
X44558857Y-68984178D02*
X44631428Y-69129321D01*
X44631428Y-69129321D02*
X44704000Y-69201893D01*
X44704000Y-69201893D02*
X44849142Y-69274464D01*
X44849142Y-69274464D02*
X45139428Y-69274464D01*
X45139428Y-69274464D02*
X45284571Y-69201893D01*
X45284571Y-69201893D02*
X45357142Y-69129321D01*
X45357142Y-69129321D02*
X45429714Y-68984178D01*
X45429714Y-68984178D02*
X45429714Y-67750464D01*
X46953713Y-69274464D02*
X46082856Y-69274464D01*
X46518285Y-69274464D02*
X46518285Y-67750464D01*
X46518285Y-67750464D02*
X46373142Y-67968178D01*
X46373142Y-67968178D02*
X46227999Y-68113321D01*
X46227999Y-68113321D02*
X46082856Y-68185893D01*
X122038857Y-66690464D02*
X122038857Y-67924178D01*
X122038857Y-67924178D02*
X122111428Y-68069321D01*
X122111428Y-68069321D02*
X122184000Y-68141893D01*
X122184000Y-68141893D02*
X122329142Y-68214464D01*
X122329142Y-68214464D02*
X122619428Y-68214464D01*
X122619428Y-68214464D02*
X122764571Y-68141893D01*
X122764571Y-68141893D02*
X122837142Y-68069321D01*
X122837142Y-68069321D02*
X122909714Y-67924178D01*
X122909714Y-67924178D02*
X122909714Y-66690464D01*
X124288571Y-67198464D02*
X124288571Y-68214464D01*
X123925713Y-66617893D02*
X123562856Y-67706464D01*
X123562856Y-67706464D02*
X124506285Y-67706464D01*
X89008857Y-66690464D02*
X89008857Y-67924178D01*
X89008857Y-67924178D02*
X89081428Y-68069321D01*
X89081428Y-68069321D02*
X89154000Y-68141893D01*
X89154000Y-68141893D02*
X89299142Y-68214464D01*
X89299142Y-68214464D02*
X89589428Y-68214464D01*
X89589428Y-68214464D02*
X89734571Y-68141893D01*
X89734571Y-68141893D02*
X89807142Y-68069321D01*
X89807142Y-68069321D02*
X89879714Y-67924178D01*
X89879714Y-67924178D02*
X89879714Y-66690464D01*
X90460285Y-66690464D02*
X91403713Y-66690464D01*
X91403713Y-66690464D02*
X90895713Y-67271035D01*
X90895713Y-67271035D02*
X91113428Y-67271035D01*
X91113428Y-67271035D02*
X91258571Y-67343607D01*
X91258571Y-67343607D02*
X91331142Y-67416178D01*
X91331142Y-67416178D02*
X91403713Y-67561321D01*
X91403713Y-67561321D02*
X91403713Y-67924178D01*
X91403713Y-67924178D02*
X91331142Y-68069321D01*
X91331142Y-68069321D02*
X91258571Y-68141893D01*
X91258571Y-68141893D02*
X91113428Y-68214464D01*
X91113428Y-68214464D02*
X90677999Y-68214464D01*
X90677999Y-68214464D02*
X90532856Y-68141893D01*
X90532856Y-68141893D02*
X90460285Y-68069321D01*
X125456000Y-62779321D02*
X125383428Y-62851893D01*
X125383428Y-62851893D02*
X125165714Y-62924464D01*
X125165714Y-62924464D02*
X125020571Y-62924464D01*
X125020571Y-62924464D02*
X124802857Y-62851893D01*
X124802857Y-62851893D02*
X124657714Y-62706750D01*
X124657714Y-62706750D02*
X124585143Y-62561607D01*
X124585143Y-62561607D02*
X124512571Y-62271321D01*
X124512571Y-62271321D02*
X124512571Y-62053607D01*
X124512571Y-62053607D02*
X124585143Y-61763321D01*
X124585143Y-61763321D02*
X124657714Y-61618178D01*
X124657714Y-61618178D02*
X124802857Y-61473035D01*
X124802857Y-61473035D02*
X125020571Y-61400464D01*
X125020571Y-61400464D02*
X125165714Y-61400464D01*
X125165714Y-61400464D02*
X125383428Y-61473035D01*
X125383428Y-61473035D02*
X125456000Y-61545607D01*
X125964000Y-61400464D02*
X126980000Y-61400464D01*
X126980000Y-61400464D02*
X126326857Y-62924464D01*
X136330464Y-155448000D02*
X137419035Y-155448000D01*
X137419035Y-155448000D02*
X137636750Y-155520571D01*
X137636750Y-155520571D02*
X137781893Y-155665714D01*
X137781893Y-155665714D02*
X137854464Y-155883428D01*
X137854464Y-155883428D02*
X137854464Y-156028571D01*
X136983607Y-154504571D02*
X136911035Y-154649714D01*
X136911035Y-154649714D02*
X136838464Y-154722285D01*
X136838464Y-154722285D02*
X136693321Y-154794857D01*
X136693321Y-154794857D02*
X136620750Y-154794857D01*
X136620750Y-154794857D02*
X136475607Y-154722285D01*
X136475607Y-154722285D02*
X136403035Y-154649714D01*
X136403035Y-154649714D02*
X136330464Y-154504571D01*
X136330464Y-154504571D02*
X136330464Y-154214285D01*
X136330464Y-154214285D02*
X136403035Y-154069143D01*
X136403035Y-154069143D02*
X136475607Y-153996571D01*
X136475607Y-153996571D02*
X136620750Y-153924000D01*
X136620750Y-153924000D02*
X136693321Y-153924000D01*
X136693321Y-153924000D02*
X136838464Y-153996571D01*
X136838464Y-153996571D02*
X136911035Y-154069143D01*
X136911035Y-154069143D02*
X136983607Y-154214285D01*
X136983607Y-154214285D02*
X136983607Y-154504571D01*
X136983607Y-154504571D02*
X137056178Y-154649714D01*
X137056178Y-154649714D02*
X137128750Y-154722285D01*
X137128750Y-154722285D02*
X137273893Y-154794857D01*
X137273893Y-154794857D02*
X137564178Y-154794857D01*
X137564178Y-154794857D02*
X137709321Y-154722285D01*
X137709321Y-154722285D02*
X137781893Y-154649714D01*
X137781893Y-154649714D02*
X137854464Y-154504571D01*
X137854464Y-154504571D02*
X137854464Y-154214285D01*
X137854464Y-154214285D02*
X137781893Y-154069143D01*
X137781893Y-154069143D02*
X137709321Y-153996571D01*
X137709321Y-153996571D02*
X137564178Y-153924000D01*
X137564178Y-153924000D02*
X137273893Y-153924000D01*
X137273893Y-153924000D02*
X137128750Y-153996571D01*
X137128750Y-153996571D02*
X137056178Y-154069143D01*
X137056178Y-154069143D02*
X136983607Y-154214285D01*
X135500398Y-98914321D02*
X135427826Y-98986893D01*
X135427826Y-98986893D02*
X135210112Y-99059464D01*
X135210112Y-99059464D02*
X135064969Y-99059464D01*
X135064969Y-99059464D02*
X134847255Y-98986893D01*
X134847255Y-98986893D02*
X134702112Y-98841750D01*
X134702112Y-98841750D02*
X134629541Y-98696607D01*
X134629541Y-98696607D02*
X134556969Y-98406321D01*
X134556969Y-98406321D02*
X134556969Y-98188607D01*
X134556969Y-98188607D02*
X134629541Y-97898321D01*
X134629541Y-97898321D02*
X134702112Y-97753178D01*
X134702112Y-97753178D02*
X134847255Y-97608035D01*
X134847255Y-97608035D02*
X135064969Y-97535464D01*
X135064969Y-97535464D02*
X135210112Y-97535464D01*
X135210112Y-97535464D02*
X135427826Y-97608035D01*
X135427826Y-97608035D02*
X135500398Y-97680607D01*
X136951826Y-99059464D02*
X136080969Y-99059464D01*
X136516398Y-99059464D02*
X136516398Y-97535464D01*
X136516398Y-97535464D02*
X136371255Y-97753178D01*
X136371255Y-97753178D02*
X136226112Y-97898321D01*
X136226112Y-97898321D02*
X136080969Y-97970893D01*
X138258113Y-98043464D02*
X138258113Y-99059464D01*
X137895255Y-97462893D02*
X137532398Y-98551464D01*
X137532398Y-98551464D02*
X138475827Y-98551464D01*
X118255143Y-166429464D02*
X118255143Y-164905464D01*
X118255143Y-164905464D02*
X118618000Y-164905464D01*
X118618000Y-164905464D02*
X118835714Y-164978035D01*
X118835714Y-164978035D02*
X118980857Y-165123178D01*
X118980857Y-165123178D02*
X119053428Y-165268321D01*
X119053428Y-165268321D02*
X119126000Y-165558607D01*
X119126000Y-165558607D02*
X119126000Y-165776321D01*
X119126000Y-165776321D02*
X119053428Y-166066607D01*
X119053428Y-166066607D02*
X118980857Y-166211750D01*
X118980857Y-166211750D02*
X118835714Y-166356893D01*
X118835714Y-166356893D02*
X118618000Y-166429464D01*
X118618000Y-166429464D02*
X118255143Y-166429464D01*
X119706571Y-165050607D02*
X119779143Y-164978035D01*
X119779143Y-164978035D02*
X119924286Y-164905464D01*
X119924286Y-164905464D02*
X120287143Y-164905464D01*
X120287143Y-164905464D02*
X120432286Y-164978035D01*
X120432286Y-164978035D02*
X120504857Y-165050607D01*
X120504857Y-165050607D02*
X120577428Y-165195750D01*
X120577428Y-165195750D02*
X120577428Y-165340893D01*
X120577428Y-165340893D02*
X120504857Y-165558607D01*
X120504857Y-165558607D02*
X119634000Y-166429464D01*
X119634000Y-166429464D02*
X120577428Y-166429464D01*
X36866285Y-67750464D02*
X37882285Y-69274464D01*
X37882285Y-67750464D02*
X36866285Y-69274464D01*
X39261142Y-69274464D02*
X38390285Y-69274464D01*
X38825714Y-69274464D02*
X38825714Y-67750464D01*
X38825714Y-67750464D02*
X38680571Y-67968178D01*
X38680571Y-67968178D02*
X38535428Y-68113321D01*
X38535428Y-68113321D02*
X38390285Y-68185893D01*
X38409321Y-122193999D02*
X38481893Y-122266571D01*
X38481893Y-122266571D02*
X38554464Y-122484285D01*
X38554464Y-122484285D02*
X38554464Y-122629428D01*
X38554464Y-122629428D02*
X38481893Y-122847142D01*
X38481893Y-122847142D02*
X38336750Y-122992285D01*
X38336750Y-122992285D02*
X38191607Y-123064856D01*
X38191607Y-123064856D02*
X37901321Y-123137428D01*
X37901321Y-123137428D02*
X37683607Y-123137428D01*
X37683607Y-123137428D02*
X37393321Y-123064856D01*
X37393321Y-123064856D02*
X37248178Y-122992285D01*
X37248178Y-122992285D02*
X37103035Y-122847142D01*
X37103035Y-122847142D02*
X37030464Y-122629428D01*
X37030464Y-122629428D02*
X37030464Y-122484285D01*
X37030464Y-122484285D02*
X37103035Y-122266571D01*
X37103035Y-122266571D02*
X37175607Y-122193999D01*
X38554464Y-120742571D02*
X38554464Y-121613428D01*
X38554464Y-121177999D02*
X37030464Y-121177999D01*
X37030464Y-121177999D02*
X37248178Y-121323142D01*
X37248178Y-121323142D02*
X37393321Y-121468285D01*
X37393321Y-121468285D02*
X37465893Y-121613428D01*
X58166000Y-95164321D02*
X58093428Y-95236893D01*
X58093428Y-95236893D02*
X57875714Y-95309464D01*
X57875714Y-95309464D02*
X57730571Y-95309464D01*
X57730571Y-95309464D02*
X57512857Y-95236893D01*
X57512857Y-95236893D02*
X57367714Y-95091750D01*
X57367714Y-95091750D02*
X57295143Y-94946607D01*
X57295143Y-94946607D02*
X57222571Y-94656321D01*
X57222571Y-94656321D02*
X57222571Y-94438607D01*
X57222571Y-94438607D02*
X57295143Y-94148321D01*
X57295143Y-94148321D02*
X57367714Y-94003178D01*
X57367714Y-94003178D02*
X57512857Y-93858035D01*
X57512857Y-93858035D02*
X57730571Y-93785464D01*
X57730571Y-93785464D02*
X57875714Y-93785464D01*
X57875714Y-93785464D02*
X58093428Y-93858035D01*
X58093428Y-93858035D02*
X58166000Y-93930607D01*
X58891714Y-95309464D02*
X59182000Y-95309464D01*
X59182000Y-95309464D02*
X59327143Y-95236893D01*
X59327143Y-95236893D02*
X59399714Y-95164321D01*
X59399714Y-95164321D02*
X59544857Y-94946607D01*
X59544857Y-94946607D02*
X59617428Y-94656321D01*
X59617428Y-94656321D02*
X59617428Y-94075750D01*
X59617428Y-94075750D02*
X59544857Y-93930607D01*
X59544857Y-93930607D02*
X59472286Y-93858035D01*
X59472286Y-93858035D02*
X59327143Y-93785464D01*
X59327143Y-93785464D02*
X59036857Y-93785464D01*
X59036857Y-93785464D02*
X58891714Y-93858035D01*
X58891714Y-93858035D02*
X58819143Y-93930607D01*
X58819143Y-93930607D02*
X58746571Y-94075750D01*
X58746571Y-94075750D02*
X58746571Y-94438607D01*
X58746571Y-94438607D02*
X58819143Y-94583750D01*
X58819143Y-94583750D02*
X58891714Y-94656321D01*
X58891714Y-94656321D02*
X59036857Y-94728893D01*
X59036857Y-94728893D02*
X59327143Y-94728893D01*
X59327143Y-94728893D02*
X59472286Y-94656321D01*
X59472286Y-94656321D02*
X59544857Y-94583750D01*
X59544857Y-94583750D02*
X59617428Y-94438607D01*
X134679464Y-122173999D02*
X133953750Y-122681999D01*
X134679464Y-123044856D02*
X133155464Y-123044856D01*
X133155464Y-123044856D02*
X133155464Y-122464285D01*
X133155464Y-122464285D02*
X133228035Y-122319142D01*
X133228035Y-122319142D02*
X133300607Y-122246571D01*
X133300607Y-122246571D02*
X133445750Y-122173999D01*
X133445750Y-122173999D02*
X133663464Y-122173999D01*
X133663464Y-122173999D02*
X133808607Y-122246571D01*
X133808607Y-122246571D02*
X133881178Y-122319142D01*
X133881178Y-122319142D02*
X133953750Y-122464285D01*
X133953750Y-122464285D02*
X133953750Y-123044856D01*
X133155464Y-120867714D02*
X133155464Y-121157999D01*
X133155464Y-121157999D02*
X133228035Y-121303142D01*
X133228035Y-121303142D02*
X133300607Y-121375714D01*
X133300607Y-121375714D02*
X133518321Y-121520856D01*
X133518321Y-121520856D02*
X133808607Y-121593428D01*
X133808607Y-121593428D02*
X134389178Y-121593428D01*
X134389178Y-121593428D02*
X134534321Y-121520856D01*
X134534321Y-121520856D02*
X134606893Y-121448285D01*
X134606893Y-121448285D02*
X134679464Y-121303142D01*
X134679464Y-121303142D02*
X134679464Y-121012856D01*
X134679464Y-121012856D02*
X134606893Y-120867714D01*
X134606893Y-120867714D02*
X134534321Y-120795142D01*
X134534321Y-120795142D02*
X134389178Y-120722571D01*
X134389178Y-120722571D02*
X134026321Y-120722571D01*
X134026321Y-120722571D02*
X133881178Y-120795142D01*
X133881178Y-120795142D02*
X133808607Y-120867714D01*
X133808607Y-120867714D02*
X133736035Y-121012856D01*
X133736035Y-121012856D02*
X133736035Y-121303142D01*
X133736035Y-121303142D02*
X133808607Y-121448285D01*
X133808607Y-121448285D02*
X133881178Y-121520856D01*
X133881178Y-121520856D02*
X134026321Y-121593428D01*
X52360285Y-64049321D02*
X52287713Y-64121893D01*
X52287713Y-64121893D02*
X52069999Y-64194464D01*
X52069999Y-64194464D02*
X51924856Y-64194464D01*
X51924856Y-64194464D02*
X51707142Y-64121893D01*
X51707142Y-64121893D02*
X51561999Y-63976750D01*
X51561999Y-63976750D02*
X51489428Y-63831607D01*
X51489428Y-63831607D02*
X51416856Y-63541321D01*
X51416856Y-63541321D02*
X51416856Y-63323607D01*
X51416856Y-63323607D02*
X51489428Y-63033321D01*
X51489428Y-63033321D02*
X51561999Y-62888178D01*
X51561999Y-62888178D02*
X51707142Y-62743035D01*
X51707142Y-62743035D02*
X51924856Y-62670464D01*
X51924856Y-62670464D02*
X52069999Y-62670464D01*
X52069999Y-62670464D02*
X52287713Y-62743035D01*
X52287713Y-62743035D02*
X52360285Y-62815607D01*
X53811713Y-64194464D02*
X52940856Y-64194464D01*
X53376285Y-64194464D02*
X53376285Y-62670464D01*
X53376285Y-62670464D02*
X53231142Y-62888178D01*
X53231142Y-62888178D02*
X53085999Y-63033321D01*
X53085999Y-63033321D02*
X52940856Y-63105893D01*
X54392285Y-62815607D02*
X54464857Y-62743035D01*
X54464857Y-62743035D02*
X54610000Y-62670464D01*
X54610000Y-62670464D02*
X54972857Y-62670464D01*
X54972857Y-62670464D02*
X55118000Y-62743035D01*
X55118000Y-62743035D02*
X55190571Y-62815607D01*
X55190571Y-62815607D02*
X55263142Y-62960750D01*
X55263142Y-62960750D02*
X55263142Y-63105893D01*
X55263142Y-63105893D02*
X55190571Y-63323607D01*
X55190571Y-63323607D02*
X54319714Y-64194464D01*
X54319714Y-64194464D02*
X55263142Y-64194464D01*
X28701999Y-130615464D02*
X28701999Y-131704035D01*
X28701999Y-131704035D02*
X28629428Y-131921750D01*
X28629428Y-131921750D02*
X28484285Y-132066893D01*
X28484285Y-132066893D02*
X28266571Y-132139464D01*
X28266571Y-132139464D02*
X28121428Y-132139464D01*
X30225999Y-132139464D02*
X29355142Y-132139464D01*
X29790571Y-132139464D02*
X29790571Y-130615464D01*
X29790571Y-130615464D02*
X29645428Y-130833178D01*
X29645428Y-130833178D02*
X29500285Y-130978321D01*
X29500285Y-130978321D02*
X29355142Y-131050893D01*
X33290285Y-64289321D02*
X33217713Y-64361893D01*
X33217713Y-64361893D02*
X32999999Y-64434464D01*
X32999999Y-64434464D02*
X32854856Y-64434464D01*
X32854856Y-64434464D02*
X32637142Y-64361893D01*
X32637142Y-64361893D02*
X32491999Y-64216750D01*
X32491999Y-64216750D02*
X32419428Y-64071607D01*
X32419428Y-64071607D02*
X32346856Y-63781321D01*
X32346856Y-63781321D02*
X32346856Y-63563607D01*
X32346856Y-63563607D02*
X32419428Y-63273321D01*
X32419428Y-63273321D02*
X32491999Y-63128178D01*
X32491999Y-63128178D02*
X32637142Y-62983035D01*
X32637142Y-62983035D02*
X32854856Y-62910464D01*
X32854856Y-62910464D02*
X32999999Y-62910464D01*
X32999999Y-62910464D02*
X33217713Y-62983035D01*
X33217713Y-62983035D02*
X33290285Y-63055607D01*
X34741713Y-64434464D02*
X33870856Y-64434464D01*
X34306285Y-64434464D02*
X34306285Y-62910464D01*
X34306285Y-62910464D02*
X34161142Y-63128178D01*
X34161142Y-63128178D02*
X34015999Y-63273321D01*
X34015999Y-63273321D02*
X33870856Y-63345893D01*
X36048000Y-62910464D02*
X35757714Y-62910464D01*
X35757714Y-62910464D02*
X35612571Y-62983035D01*
X35612571Y-62983035D02*
X35540000Y-63055607D01*
X35540000Y-63055607D02*
X35394857Y-63273321D01*
X35394857Y-63273321D02*
X35322285Y-63563607D01*
X35322285Y-63563607D02*
X35322285Y-64144178D01*
X35322285Y-64144178D02*
X35394857Y-64289321D01*
X35394857Y-64289321D02*
X35467428Y-64361893D01*
X35467428Y-64361893D02*
X35612571Y-64434464D01*
X35612571Y-64434464D02*
X35902857Y-64434464D01*
X35902857Y-64434464D02*
X36048000Y-64361893D01*
X36048000Y-64361893D02*
X36120571Y-64289321D01*
X36120571Y-64289321D02*
X36193142Y-64144178D01*
X36193142Y-64144178D02*
X36193142Y-63781321D01*
X36193142Y-63781321D02*
X36120571Y-63636178D01*
X36120571Y-63636178D02*
X36048000Y-63563607D01*
X36048000Y-63563607D02*
X35902857Y-63491035D01*
X35902857Y-63491035D02*
X35612571Y-63491035D01*
X35612571Y-63491035D02*
X35467428Y-63563607D01*
X35467428Y-63563607D02*
X35394857Y-63636178D01*
X35394857Y-63636178D02*
X35322285Y-63781321D01*
X45375285Y-64049321D02*
X45302713Y-64121893D01*
X45302713Y-64121893D02*
X45084999Y-64194464D01*
X45084999Y-64194464D02*
X44939856Y-64194464D01*
X44939856Y-64194464D02*
X44722142Y-64121893D01*
X44722142Y-64121893D02*
X44576999Y-63976750D01*
X44576999Y-63976750D02*
X44504428Y-63831607D01*
X44504428Y-63831607D02*
X44431856Y-63541321D01*
X44431856Y-63541321D02*
X44431856Y-63323607D01*
X44431856Y-63323607D02*
X44504428Y-63033321D01*
X44504428Y-63033321D02*
X44576999Y-62888178D01*
X44576999Y-62888178D02*
X44722142Y-62743035D01*
X44722142Y-62743035D02*
X44939856Y-62670464D01*
X44939856Y-62670464D02*
X45084999Y-62670464D01*
X45084999Y-62670464D02*
X45302713Y-62743035D01*
X45302713Y-62743035D02*
X45375285Y-62815607D01*
X46826713Y-64194464D02*
X45955856Y-64194464D01*
X46391285Y-64194464D02*
X46391285Y-62670464D01*
X46391285Y-62670464D02*
X46246142Y-62888178D01*
X46246142Y-62888178D02*
X46100999Y-63033321D01*
X46100999Y-63033321D02*
X45955856Y-63105893D01*
X47334714Y-62670464D02*
X48350714Y-62670464D01*
X48350714Y-62670464D02*
X47697571Y-64194464D01*
X104450285Y-62779321D02*
X104377713Y-62851893D01*
X104377713Y-62851893D02*
X104159999Y-62924464D01*
X104159999Y-62924464D02*
X104014856Y-62924464D01*
X104014856Y-62924464D02*
X103797142Y-62851893D01*
X103797142Y-62851893D02*
X103651999Y-62706750D01*
X103651999Y-62706750D02*
X103579428Y-62561607D01*
X103579428Y-62561607D02*
X103506856Y-62271321D01*
X103506856Y-62271321D02*
X103506856Y-62053607D01*
X103506856Y-62053607D02*
X103579428Y-61763321D01*
X103579428Y-61763321D02*
X103651999Y-61618178D01*
X103651999Y-61618178D02*
X103797142Y-61473035D01*
X103797142Y-61473035D02*
X104014856Y-61400464D01*
X104014856Y-61400464D02*
X104159999Y-61400464D01*
X104159999Y-61400464D02*
X104377713Y-61473035D01*
X104377713Y-61473035D02*
X104450285Y-61545607D01*
X105901713Y-62924464D02*
X105030856Y-62924464D01*
X105466285Y-62924464D02*
X105466285Y-61400464D01*
X105466285Y-61400464D02*
X105321142Y-61618178D01*
X105321142Y-61618178D02*
X105175999Y-61763321D01*
X105175999Y-61763321D02*
X105030856Y-61835893D01*
X106845142Y-61400464D02*
X106990285Y-61400464D01*
X106990285Y-61400464D02*
X107135428Y-61473035D01*
X107135428Y-61473035D02*
X107208000Y-61545607D01*
X107208000Y-61545607D02*
X107280571Y-61690750D01*
X107280571Y-61690750D02*
X107353142Y-61981035D01*
X107353142Y-61981035D02*
X107353142Y-62343893D01*
X107353142Y-62343893D02*
X107280571Y-62634178D01*
X107280571Y-62634178D02*
X107208000Y-62779321D01*
X107208000Y-62779321D02*
X107135428Y-62851893D01*
X107135428Y-62851893D02*
X106990285Y-62924464D01*
X106990285Y-62924464D02*
X106845142Y-62924464D01*
X106845142Y-62924464D02*
X106700000Y-62851893D01*
X106700000Y-62851893D02*
X106627428Y-62779321D01*
X106627428Y-62779321D02*
X106554857Y-62634178D01*
X106554857Y-62634178D02*
X106482285Y-62343893D01*
X106482285Y-62343893D02*
X106482285Y-61981035D01*
X106482285Y-61981035D02*
X106554857Y-61690750D01*
X106554857Y-61690750D02*
X106627428Y-61545607D01*
X106627428Y-61545607D02*
X106700000Y-61473035D01*
X106700000Y-61473035D02*
X106845142Y-61400464D01*
X136651999Y-65210464D02*
X136651999Y-66299035D01*
X136651999Y-66299035D02*
X136579428Y-66516750D01*
X136579428Y-66516750D02*
X136434285Y-66661893D01*
X136434285Y-66661893D02*
X136216571Y-66734464D01*
X136216571Y-66734464D02*
X136071428Y-66734464D01*
X137305142Y-65355607D02*
X137377714Y-65283035D01*
X137377714Y-65283035D02*
X137522857Y-65210464D01*
X137522857Y-65210464D02*
X137885714Y-65210464D01*
X137885714Y-65210464D02*
X138030857Y-65283035D01*
X138030857Y-65283035D02*
X138103428Y-65355607D01*
X138103428Y-65355607D02*
X138175999Y-65500750D01*
X138175999Y-65500750D02*
X138175999Y-65645893D01*
X138175999Y-65645893D02*
X138103428Y-65863607D01*
X138103428Y-65863607D02*
X137232571Y-66734464D01*
X137232571Y-66734464D02*
X138175999Y-66734464D01*
X130089321Y-112648999D02*
X130161893Y-112721571D01*
X130161893Y-112721571D02*
X130234464Y-112939285D01*
X130234464Y-112939285D02*
X130234464Y-113084428D01*
X130234464Y-113084428D02*
X130161893Y-113302142D01*
X130161893Y-113302142D02*
X130016750Y-113447285D01*
X130016750Y-113447285D02*
X129871607Y-113519856D01*
X129871607Y-113519856D02*
X129581321Y-113592428D01*
X129581321Y-113592428D02*
X129363607Y-113592428D01*
X129363607Y-113592428D02*
X129073321Y-113519856D01*
X129073321Y-113519856D02*
X128928178Y-113447285D01*
X128928178Y-113447285D02*
X128783035Y-113302142D01*
X128783035Y-113302142D02*
X128710464Y-113084428D01*
X128710464Y-113084428D02*
X128710464Y-112939285D01*
X128710464Y-112939285D02*
X128783035Y-112721571D01*
X128783035Y-112721571D02*
X128855607Y-112648999D01*
X128710464Y-111270142D02*
X128710464Y-111995856D01*
X128710464Y-111995856D02*
X129436178Y-112068428D01*
X129436178Y-112068428D02*
X129363607Y-111995856D01*
X129363607Y-111995856D02*
X129291035Y-111850714D01*
X129291035Y-111850714D02*
X129291035Y-111487856D01*
X129291035Y-111487856D02*
X129363607Y-111342714D01*
X129363607Y-111342714D02*
X129436178Y-111270142D01*
X129436178Y-111270142D02*
X129581321Y-111197571D01*
X129581321Y-111197571D02*
X129944178Y-111197571D01*
X129944178Y-111197571D02*
X130089321Y-111270142D01*
X130089321Y-111270142D02*
X130161893Y-111342714D01*
X130161893Y-111342714D02*
X130234464Y-111487856D01*
X130234464Y-111487856D02*
X130234464Y-111850714D01*
X130234464Y-111850714D02*
X130161893Y-111995856D01*
X130161893Y-111995856D02*
X130089321Y-112068428D01*
X114681000Y-159614464D02*
X114173000Y-158888750D01*
X113810143Y-159614464D02*
X113810143Y-158090464D01*
X113810143Y-158090464D02*
X114390714Y-158090464D01*
X114390714Y-158090464D02*
X114535857Y-158163035D01*
X114535857Y-158163035D02*
X114608428Y-158235607D01*
X114608428Y-158235607D02*
X114681000Y-158380750D01*
X114681000Y-158380750D02*
X114681000Y-158598464D01*
X114681000Y-158598464D02*
X114608428Y-158743607D01*
X114608428Y-158743607D02*
X114535857Y-158816178D01*
X114535857Y-158816178D02*
X114390714Y-158888750D01*
X114390714Y-158888750D02*
X113810143Y-158888750D01*
X116132428Y-159614464D02*
X115261571Y-159614464D01*
X115697000Y-159614464D02*
X115697000Y-158090464D01*
X115697000Y-158090464D02*
X115551857Y-158308178D01*
X115551857Y-158308178D02*
X115406714Y-158453321D01*
X115406714Y-158453321D02*
X115261571Y-158525893D01*
X30135285Y-161204321D02*
X30062713Y-161276893D01*
X30062713Y-161276893D02*
X29844999Y-161349464D01*
X29844999Y-161349464D02*
X29699856Y-161349464D01*
X29699856Y-161349464D02*
X29482142Y-161276893D01*
X29482142Y-161276893D02*
X29336999Y-161131750D01*
X29336999Y-161131750D02*
X29264428Y-160986607D01*
X29264428Y-160986607D02*
X29191856Y-160696321D01*
X29191856Y-160696321D02*
X29191856Y-160478607D01*
X29191856Y-160478607D02*
X29264428Y-160188321D01*
X29264428Y-160188321D02*
X29336999Y-160043178D01*
X29336999Y-160043178D02*
X29482142Y-159898035D01*
X29482142Y-159898035D02*
X29699856Y-159825464D01*
X29699856Y-159825464D02*
X29844999Y-159825464D01*
X29844999Y-159825464D02*
X30062713Y-159898035D01*
X30062713Y-159898035D02*
X30135285Y-159970607D01*
X31586713Y-161349464D02*
X30715856Y-161349464D01*
X31151285Y-161349464D02*
X31151285Y-159825464D01*
X31151285Y-159825464D02*
X31006142Y-160043178D01*
X31006142Y-160043178D02*
X30860999Y-160188321D01*
X30860999Y-160188321D02*
X30715856Y-160260893D01*
X32457571Y-160478607D02*
X32312428Y-160406035D01*
X32312428Y-160406035D02*
X32239857Y-160333464D01*
X32239857Y-160333464D02*
X32167285Y-160188321D01*
X32167285Y-160188321D02*
X32167285Y-160115750D01*
X32167285Y-160115750D02*
X32239857Y-159970607D01*
X32239857Y-159970607D02*
X32312428Y-159898035D01*
X32312428Y-159898035D02*
X32457571Y-159825464D01*
X32457571Y-159825464D02*
X32747857Y-159825464D01*
X32747857Y-159825464D02*
X32893000Y-159898035D01*
X32893000Y-159898035D02*
X32965571Y-159970607D01*
X32965571Y-159970607D02*
X33038142Y-160115750D01*
X33038142Y-160115750D02*
X33038142Y-160188321D01*
X33038142Y-160188321D02*
X32965571Y-160333464D01*
X32965571Y-160333464D02*
X32893000Y-160406035D01*
X32893000Y-160406035D02*
X32747857Y-160478607D01*
X32747857Y-160478607D02*
X32457571Y-160478607D01*
X32457571Y-160478607D02*
X32312428Y-160551178D01*
X32312428Y-160551178D02*
X32239857Y-160623750D01*
X32239857Y-160623750D02*
X32167285Y-160768893D01*
X32167285Y-160768893D02*
X32167285Y-161059178D01*
X32167285Y-161059178D02*
X32239857Y-161204321D01*
X32239857Y-161204321D02*
X32312428Y-161276893D01*
X32312428Y-161276893D02*
X32457571Y-161349464D01*
X32457571Y-161349464D02*
X32747857Y-161349464D01*
X32747857Y-161349464D02*
X32893000Y-161276893D01*
X32893000Y-161276893D02*
X32965571Y-161204321D01*
X32965571Y-161204321D02*
X33038142Y-161059178D01*
X33038142Y-161059178D02*
X33038142Y-160768893D01*
X33038142Y-160768893D02*
X32965571Y-160623750D01*
X32965571Y-160623750D02*
X32893000Y-160551178D01*
X32893000Y-160551178D02*
X32747857Y-160478607D01*
X126746000Y-97069321D02*
X126673428Y-97141893D01*
X126673428Y-97141893D02*
X126455714Y-97214464D01*
X126455714Y-97214464D02*
X126310571Y-97214464D01*
X126310571Y-97214464D02*
X126092857Y-97141893D01*
X126092857Y-97141893D02*
X125947714Y-96996750D01*
X125947714Y-96996750D02*
X125875143Y-96851607D01*
X125875143Y-96851607D02*
X125802571Y-96561321D01*
X125802571Y-96561321D02*
X125802571Y-96343607D01*
X125802571Y-96343607D02*
X125875143Y-96053321D01*
X125875143Y-96053321D02*
X125947714Y-95908178D01*
X125947714Y-95908178D02*
X126092857Y-95763035D01*
X126092857Y-95763035D02*
X126310571Y-95690464D01*
X126310571Y-95690464D02*
X126455714Y-95690464D01*
X126455714Y-95690464D02*
X126673428Y-95763035D01*
X126673428Y-95763035D02*
X126746000Y-95835607D01*
X127326571Y-95835607D02*
X127399143Y-95763035D01*
X127399143Y-95763035D02*
X127544286Y-95690464D01*
X127544286Y-95690464D02*
X127907143Y-95690464D01*
X127907143Y-95690464D02*
X128052286Y-95763035D01*
X128052286Y-95763035D02*
X128124857Y-95835607D01*
X128124857Y-95835607D02*
X128197428Y-95980750D01*
X128197428Y-95980750D02*
X128197428Y-96125893D01*
X128197428Y-96125893D02*
X128124857Y-96343607D01*
X128124857Y-96343607D02*
X127254000Y-97214464D01*
X127254000Y-97214464D02*
X128197428Y-97214464D01*
X112961189Y-98279321D02*
X112888617Y-98351893D01*
X112888617Y-98351893D02*
X112670903Y-98424464D01*
X112670903Y-98424464D02*
X112525760Y-98424464D01*
X112525760Y-98424464D02*
X112308046Y-98351893D01*
X112308046Y-98351893D02*
X112162903Y-98206750D01*
X112162903Y-98206750D02*
X112090332Y-98061607D01*
X112090332Y-98061607D02*
X112017760Y-97771321D01*
X112017760Y-97771321D02*
X112017760Y-97553607D01*
X112017760Y-97553607D02*
X112090332Y-97263321D01*
X112090332Y-97263321D02*
X112162903Y-97118178D01*
X112162903Y-97118178D02*
X112308046Y-96973035D01*
X112308046Y-96973035D02*
X112525760Y-96900464D01*
X112525760Y-96900464D02*
X112670903Y-96900464D01*
X112670903Y-96900464D02*
X112888617Y-96973035D01*
X112888617Y-96973035D02*
X112961189Y-97045607D01*
X114412617Y-98424464D02*
X113541760Y-98424464D01*
X113977189Y-98424464D02*
X113977189Y-96900464D01*
X113977189Y-96900464D02*
X113832046Y-97118178D01*
X113832046Y-97118178D02*
X113686903Y-97263321D01*
X113686903Y-97263321D02*
X113541760Y-97335893D01*
X115791475Y-96900464D02*
X115065761Y-96900464D01*
X115065761Y-96900464D02*
X114993189Y-97626178D01*
X114993189Y-97626178D02*
X115065761Y-97553607D01*
X115065761Y-97553607D02*
X115210904Y-97481035D01*
X115210904Y-97481035D02*
X115573761Y-97481035D01*
X115573761Y-97481035D02*
X115718904Y-97553607D01*
X115718904Y-97553607D02*
X115791475Y-97626178D01*
X115791475Y-97626178D02*
X115864046Y-97771321D01*
X115864046Y-97771321D02*
X115864046Y-98134178D01*
X115864046Y-98134178D02*
X115791475Y-98279321D01*
X115791475Y-98279321D02*
X115718904Y-98351893D01*
X115718904Y-98351893D02*
X115573761Y-98424464D01*
X115573761Y-98424464D02*
X115210904Y-98424464D01*
X115210904Y-98424464D02*
X115065761Y-98351893D01*
X115065761Y-98351893D02*
X114993189Y-98279321D01*
X57911999Y-135060464D02*
X57911999Y-136149035D01*
X57911999Y-136149035D02*
X57839428Y-136366750D01*
X57839428Y-136366750D02*
X57694285Y-136511893D01*
X57694285Y-136511893D02*
X57476571Y-136584464D01*
X57476571Y-136584464D02*
X57331428Y-136584464D01*
X59290857Y-135060464D02*
X59000571Y-135060464D01*
X59000571Y-135060464D02*
X58855428Y-135133035D01*
X58855428Y-135133035D02*
X58782857Y-135205607D01*
X58782857Y-135205607D02*
X58637714Y-135423321D01*
X58637714Y-135423321D02*
X58565142Y-135713607D01*
X58565142Y-135713607D02*
X58565142Y-136294178D01*
X58565142Y-136294178D02*
X58637714Y-136439321D01*
X58637714Y-136439321D02*
X58710285Y-136511893D01*
X58710285Y-136511893D02*
X58855428Y-136584464D01*
X58855428Y-136584464D02*
X59145714Y-136584464D01*
X59145714Y-136584464D02*
X59290857Y-136511893D01*
X59290857Y-136511893D02*
X59363428Y-136439321D01*
X59363428Y-136439321D02*
X59435999Y-136294178D01*
X59435999Y-136294178D02*
X59435999Y-135931321D01*
X59435999Y-135931321D02*
X59363428Y-135786178D01*
X59363428Y-135786178D02*
X59290857Y-135713607D01*
X59290857Y-135713607D02*
X59145714Y-135641035D01*
X59145714Y-135641035D02*
X58855428Y-135641035D01*
X58855428Y-135641035D02*
X58710285Y-135713607D01*
X58710285Y-135713607D02*
X58637714Y-135786178D01*
X58637714Y-135786178D02*
X58565142Y-135931321D01*
X73778857Y-66685464D02*
X73778857Y-67919178D01*
X73778857Y-67919178D02*
X73851428Y-68064321D01*
X73851428Y-68064321D02*
X73924000Y-68136893D01*
X73924000Y-68136893D02*
X74069142Y-68209464D01*
X74069142Y-68209464D02*
X74359428Y-68209464D01*
X74359428Y-68209464D02*
X74504571Y-68136893D01*
X74504571Y-68136893D02*
X74577142Y-68064321D01*
X74577142Y-68064321D02*
X74649714Y-67919178D01*
X74649714Y-67919178D02*
X74649714Y-66685464D01*
X75302856Y-66830607D02*
X75375428Y-66758035D01*
X75375428Y-66758035D02*
X75520571Y-66685464D01*
X75520571Y-66685464D02*
X75883428Y-66685464D01*
X75883428Y-66685464D02*
X76028571Y-66758035D01*
X76028571Y-66758035D02*
X76101142Y-66830607D01*
X76101142Y-66830607D02*
X76173713Y-66975750D01*
X76173713Y-66975750D02*
X76173713Y-67120893D01*
X76173713Y-67120893D02*
X76101142Y-67338607D01*
X76101142Y-67338607D02*
X75230285Y-68209464D01*
X75230285Y-68209464D02*
X76173713Y-68209464D01*
X81388857Y-147760464D02*
X81388857Y-148994178D01*
X81388857Y-148994178D02*
X81461428Y-149139321D01*
X81461428Y-149139321D02*
X81534000Y-149211893D01*
X81534000Y-149211893D02*
X81679142Y-149284464D01*
X81679142Y-149284464D02*
X81969428Y-149284464D01*
X81969428Y-149284464D02*
X82114571Y-149211893D01*
X82114571Y-149211893D02*
X82187142Y-149139321D01*
X82187142Y-149139321D02*
X82259714Y-148994178D01*
X82259714Y-148994178D02*
X82259714Y-147760464D01*
X82840285Y-147760464D02*
X83856285Y-147760464D01*
X83856285Y-147760464D02*
X83203142Y-149284464D01*
X117130285Y-133264321D02*
X117057713Y-133336893D01*
X117057713Y-133336893D02*
X116839999Y-133409464D01*
X116839999Y-133409464D02*
X116694856Y-133409464D01*
X116694856Y-133409464D02*
X116477142Y-133336893D01*
X116477142Y-133336893D02*
X116331999Y-133191750D01*
X116331999Y-133191750D02*
X116259428Y-133046607D01*
X116259428Y-133046607D02*
X116186856Y-132756321D01*
X116186856Y-132756321D02*
X116186856Y-132538607D01*
X116186856Y-132538607D02*
X116259428Y-132248321D01*
X116259428Y-132248321D02*
X116331999Y-132103178D01*
X116331999Y-132103178D02*
X116477142Y-131958035D01*
X116477142Y-131958035D02*
X116694856Y-131885464D01*
X116694856Y-131885464D02*
X116839999Y-131885464D01*
X116839999Y-131885464D02*
X117057713Y-131958035D01*
X117057713Y-131958035D02*
X117130285Y-132030607D01*
X118581713Y-133409464D02*
X117710856Y-133409464D01*
X118146285Y-133409464D02*
X118146285Y-131885464D01*
X118146285Y-131885464D02*
X118001142Y-132103178D01*
X118001142Y-132103178D02*
X117855999Y-132248321D01*
X117855999Y-132248321D02*
X117710856Y-132320893D01*
X119307428Y-133409464D02*
X119597714Y-133409464D01*
X119597714Y-133409464D02*
X119742857Y-133336893D01*
X119742857Y-133336893D02*
X119815428Y-133264321D01*
X119815428Y-133264321D02*
X119960571Y-133046607D01*
X119960571Y-133046607D02*
X120033142Y-132756321D01*
X120033142Y-132756321D02*
X120033142Y-132175750D01*
X120033142Y-132175750D02*
X119960571Y-132030607D01*
X119960571Y-132030607D02*
X119888000Y-131958035D01*
X119888000Y-131958035D02*
X119742857Y-131885464D01*
X119742857Y-131885464D02*
X119452571Y-131885464D01*
X119452571Y-131885464D02*
X119307428Y-131958035D01*
X119307428Y-131958035D02*
X119234857Y-132030607D01*
X119234857Y-132030607D02*
X119162285Y-132175750D01*
X119162285Y-132175750D02*
X119162285Y-132538607D01*
X119162285Y-132538607D02*
X119234857Y-132683750D01*
X119234857Y-132683750D02*
X119307428Y-132756321D01*
X119307428Y-132756321D02*
X119452571Y-132828893D01*
X119452571Y-132828893D02*
X119742857Y-132828893D01*
X119742857Y-132828893D02*
X119888000Y-132756321D01*
X119888000Y-132756321D02*
X119960571Y-132683750D01*
X119960571Y-132683750D02*
X120033142Y-132538607D01*
D13*
%TO.C,U6*%
X55780000Y-100285000D02*
X55780000Y-120725000D01*
X55780000Y-120725000D02*
X61080000Y-120725000D01*
X57430000Y-100285000D02*
X55780000Y-100285000D01*
X61080000Y-100285000D02*
X59430000Y-100285000D01*
X61080000Y-120725000D02*
X61080000Y-100285000D01*
X57430000Y-100285000D02*
G75*
G03*
X59430000Y-100285000I1000000J0D01*
G01*
%TO.C,C20*%
X107230000Y-133885000D02*
X107230000Y-133640000D01*
X107230000Y-133885000D02*
X103590000Y-133885000D01*
X107230000Y-131790000D02*
X107230000Y-131545000D01*
X107230000Y-131545000D02*
X103590000Y-131545000D01*
X103590000Y-133885000D02*
X103590000Y-133640000D01*
X103590000Y-131790000D02*
X103590000Y-131545000D01*
%TO.C,D1*%
X125435000Y-168309000D02*
X125435000Y-168465000D01*
X125435000Y-170625000D02*
X125435000Y-170781000D01*
X128667334Y-168466392D02*
G75*
G03*
X125435001Y-168309485I-1672334J-1078608D01*
G01*
X128036129Y-168465164D02*
G75*
G03*
X125954040Y-168465001I-1041129J-1079836D01*
G01*
X125954040Y-170624999D02*
G75*
G03*
X128036129Y-170624836I1040960J1079999D01*
G01*
X125435001Y-170780515D02*
G75*
G03*
X128667334Y-170623608I1559999J1235515D01*
G01*
%TO.C,U5*%
X102760000Y-68520000D02*
X102760000Y-88960000D01*
X102760000Y-88960000D02*
X108060000Y-88960000D01*
X104410000Y-68520000D02*
X102760000Y-68520000D01*
X108060000Y-68520000D02*
X106410000Y-68520000D01*
X108060000Y-88960000D02*
X108060000Y-68520000D01*
X104410000Y-68520000D02*
G75*
G03*
X106410000Y-68520000I1000000J0D01*
G01*
%TO.C,D3*%
X110190000Y-168309000D02*
X110190000Y-168465000D01*
X110190000Y-170625000D02*
X110190000Y-170781000D01*
X113422334Y-168466392D02*
G75*
G03*
X110190001Y-168309485I-1672334J-1078608D01*
G01*
X112791129Y-168465164D02*
G75*
G03*
X110709040Y-168465001I-1041129J-1079836D01*
G01*
X110709040Y-170624999D02*
G75*
G03*
X112791129Y-170624836I1040960J1079999D01*
G01*
X110190001Y-170780515D02*
G75*
G03*
X113422334Y-170623608I1559999J1235515D01*
G01*
%TO.C,R4*%
X133985000Y-156440000D02*
X133985000Y-155670000D01*
X132615000Y-155670000D02*
X135355000Y-155670000D01*
X135355000Y-155670000D02*
X135355000Y-149130000D01*
X132615000Y-149130000D02*
X132615000Y-155670000D01*
X135355000Y-149130000D02*
X132615000Y-149130000D01*
X133985000Y-148360000D02*
X133985000Y-149130000D01*
%TO.C,J4*%
X58355000Y-69805000D02*
X59685000Y-69805000D01*
X58355000Y-71135000D02*
X58355000Y-69805000D01*
X58355000Y-72405000D02*
X58355000Y-90245000D01*
X58355000Y-72405000D02*
X60955000Y-72405000D01*
X58355000Y-90245000D02*
X63555000Y-90245000D01*
X60955000Y-69805000D02*
X63555000Y-69805000D01*
X60955000Y-72405000D02*
X60955000Y-69805000D01*
X63555000Y-69805000D02*
X63555000Y-90245000D01*
D11*
%TO.C,SW3*%
X77798300Y-163168100D02*
X77798300Y-163958360D01*
X77798300Y-169732640D02*
X77798300Y-173072200D01*
X77798300Y-173072200D02*
X89761700Y-173072200D01*
X81946870Y-163168100D02*
X77798300Y-163168100D01*
X86946870Y-163168100D02*
X81946870Y-163168100D01*
X89761700Y-163168100D02*
X86946870Y-163168100D01*
X89761700Y-163958360D02*
X89761700Y-163168100D01*
X89761700Y-173072200D02*
X89761700Y-169732640D01*
D13*
%TO.C,U11*%
X102770000Y-134560000D02*
X102770000Y-155000000D01*
X102770000Y-155000000D02*
X108070000Y-155000000D01*
X104420000Y-134560000D02*
X102770000Y-134560000D01*
X108070000Y-134560000D02*
X106420000Y-134560000D01*
X108070000Y-155000000D02*
X108070000Y-134560000D01*
X104420000Y-134560000D02*
G75*
G03*
X106420000Y-134560000I1000000J0D01*
G01*
%TO.C,R5*%
X132080000Y-106910000D02*
X132080000Y-106140000D01*
X130710000Y-106140000D02*
X133450000Y-106140000D01*
X133450000Y-106140000D02*
X133450000Y-99600000D01*
X130710000Y-99600000D02*
X130710000Y-106140000D01*
X133450000Y-99600000D02*
X130710000Y-99600000D01*
X132080000Y-98830000D02*
X132080000Y-99600000D01*
%TO.C,R3*%
X96290000Y-166370000D02*
X97060000Y-166370000D01*
X97060000Y-165000000D02*
X97060000Y-167740000D01*
X97060000Y-167740000D02*
X103600000Y-167740000D01*
X103600000Y-165000000D02*
X97060000Y-165000000D01*
X103600000Y-167740000D02*
X103600000Y-165000000D01*
X104370000Y-166370000D02*
X103600000Y-166370000D01*
%TO.C,R7*%
X132945000Y-161290000D02*
X132175000Y-161290000D01*
X132175000Y-162660000D02*
X132175000Y-159920000D01*
X132175000Y-159920000D02*
X125635000Y-159920000D01*
X125635000Y-162660000D02*
X132175000Y-162660000D01*
X125635000Y-159920000D02*
X125635000Y-162660000D01*
X124865000Y-161290000D02*
X125635000Y-161290000D01*
%TO.C,C6*%
X107250000Y-97690000D02*
X107250000Y-97445000D01*
X107250000Y-97690000D02*
X103610000Y-97690000D01*
X107250000Y-95595000D02*
X107250000Y-95350000D01*
X107250000Y-95350000D02*
X103610000Y-95350000D01*
X103610000Y-97690000D02*
X103610000Y-97445000D01*
X103610000Y-95595000D02*
X103610000Y-95350000D01*
%TO.C,C8*%
X111860000Y-113580000D02*
X112105000Y-113580000D01*
X111860000Y-113580000D02*
X111860000Y-109940000D01*
X113955000Y-113580000D02*
X114200000Y-113580000D01*
X114200000Y-113580000D02*
X114200000Y-109940000D01*
X111860000Y-109940000D02*
X112105000Y-109940000D01*
X113955000Y-109940000D02*
X114200000Y-109940000D01*
%TO.C,SW1*%
X51910000Y-164970000D02*
X51760000Y-164970000D01*
X49260000Y-164970000D02*
X49760000Y-164970000D01*
X46760000Y-164970000D02*
X47260000Y-164970000D01*
X44610000Y-164970000D02*
X44760000Y-164970000D01*
X44610000Y-164970000D02*
X44610000Y-172920000D01*
X51910000Y-172920000D02*
X51910000Y-164970000D01*
X44610000Y-172920000D02*
X51910000Y-172920000D01*
%TO.C,C3*%
X92010000Y-65940000D02*
X92010000Y-65695000D01*
X92010000Y-65940000D02*
X88370000Y-65940000D01*
X92010000Y-63845000D02*
X92010000Y-63600000D01*
X92010000Y-63600000D02*
X88370000Y-63600000D01*
X88370000Y-65940000D02*
X88370000Y-65695000D01*
X88370000Y-63845000D02*
X88370000Y-63600000D01*
%TO.C,U10*%
X120550000Y-134560000D02*
X120550000Y-155000000D01*
X120550000Y-155000000D02*
X125850000Y-155000000D01*
X122200000Y-134560000D02*
X120550000Y-134560000D01*
X125850000Y-134560000D02*
X124200000Y-134560000D01*
X125850000Y-155000000D02*
X125850000Y-134560000D01*
X122200000Y-134560000D02*
G75*
G03*
X124200000Y-134560000I1000000J0D01*
G01*
%TO.C,U8*%
X120550000Y-98995000D02*
X120550000Y-129595000D01*
X120550000Y-129595000D02*
X125850000Y-129595000D01*
X122200000Y-98995000D02*
X120550000Y-98995000D01*
X125850000Y-98995000D02*
X124200000Y-98995000D01*
X125850000Y-129595000D02*
X125850000Y-98995000D01*
X122200000Y-98995000D02*
G75*
G03*
X124200000Y-98995000I1000000J0D01*
G01*
%TO.C,C4*%
X92810000Y-143425000D02*
X93055000Y-143425000D01*
X92810000Y-143425000D02*
X92810000Y-139785000D01*
X94905000Y-143425000D02*
X95150000Y-143425000D01*
X95150000Y-143425000D02*
X95150000Y-139785000D01*
X92810000Y-139785000D02*
X93055000Y-139785000D01*
X94905000Y-139785000D02*
X95150000Y-139785000D01*
%TO.C,C11*%
X133250000Y-135320000D02*
X133005000Y-135320000D01*
X133250000Y-135320000D02*
X133250000Y-138960000D01*
X131155000Y-135320000D02*
X130910000Y-135320000D01*
X130910000Y-135320000D02*
X130910000Y-138960000D01*
X133250000Y-138960000D02*
X133005000Y-138960000D01*
X131155000Y-138960000D02*
X130910000Y-138960000D01*
%TO.C,C13*%
X76730000Y-65940000D02*
X76730000Y-65695000D01*
X76730000Y-65940000D02*
X73090000Y-65940000D01*
X76730000Y-63845000D02*
X76730000Y-63600000D01*
X76730000Y-63600000D02*
X73090000Y-63600000D01*
X73090000Y-65940000D02*
X73090000Y-65695000D01*
X73090000Y-63845000D02*
X73090000Y-63600000D01*
%TO.C,BT1*%
X30540000Y-95930000D02*
X29210000Y-95930000D01*
X30540000Y-94600000D02*
X30540000Y-95930000D01*
X30540000Y-93330000D02*
X30540000Y-90730000D01*
X30540000Y-93330000D02*
X27880000Y-93330000D01*
X30540000Y-90730000D02*
X27880000Y-90730000D01*
X27880000Y-93330000D02*
X27880000Y-90730000D01*
%TO.C,U9*%
X102760000Y-99000000D02*
X102760000Y-129600000D01*
X102760000Y-129600000D02*
X108060000Y-129600000D01*
X104410000Y-99000000D02*
X102760000Y-99000000D01*
X108060000Y-99000000D02*
X106410000Y-99000000D01*
X108060000Y-129600000D02*
X108060000Y-99000000D01*
X104410000Y-99000000D02*
G75*
G03*
X106410000Y-99000000I1000000J0D01*
G01*
%TO.C,J7*%
X138370000Y-116145000D02*
X139700000Y-116145000D01*
X138370000Y-117475000D02*
X138370000Y-116145000D01*
X138370000Y-118745000D02*
X138370000Y-126425000D01*
X138370000Y-118745000D02*
X141030000Y-118745000D01*
X138370000Y-126425000D02*
X141030000Y-126425000D01*
X141030000Y-118745000D02*
X141030000Y-126425000D01*
%TO.C,R2*%
X96290000Y-161290000D02*
X97060000Y-161290000D01*
X97060000Y-159920000D02*
X97060000Y-162660000D01*
X97060000Y-162660000D02*
X103600000Y-162660000D01*
X103600000Y-159920000D02*
X97060000Y-159920000D01*
X103600000Y-162660000D02*
X103600000Y-159920000D01*
X104370000Y-161290000D02*
X103600000Y-161290000D01*
%TO.C,J5*%
X138370000Y-132015000D02*
X139700000Y-132015000D01*
X138370000Y-133345000D02*
X138370000Y-132015000D01*
X138370000Y-134615000D02*
X138370000Y-137215000D01*
X138370000Y-134615000D02*
X141030000Y-134615000D01*
X138370000Y-137215000D02*
X141030000Y-137215000D01*
X141030000Y-134615000D02*
X141030000Y-137215000D01*
%TO.C,J3*%
X43755000Y-159445000D02*
X43755000Y-158115000D01*
X45085000Y-159445000D02*
X43755000Y-159445000D01*
X46355000Y-159445000D02*
X64195000Y-159445000D01*
X46355000Y-159445000D02*
X46355000Y-156845000D01*
X64195000Y-159445000D02*
X64195000Y-154245000D01*
X43755000Y-156845000D02*
X43755000Y-154245000D01*
X46355000Y-156845000D02*
X43755000Y-156845000D01*
X43755000Y-154245000D02*
X64195000Y-154245000D01*
%TO.C,SW2*%
X65880000Y-164970000D02*
X65730000Y-164970000D01*
X63230000Y-164970000D02*
X63730000Y-164970000D01*
X60730000Y-164970000D02*
X61230000Y-164970000D01*
X58580000Y-164970000D02*
X58730000Y-164970000D01*
X58580000Y-164970000D02*
X58580000Y-172920000D01*
X65880000Y-172920000D02*
X65880000Y-164970000D01*
X58580000Y-172920000D02*
X65880000Y-172920000D01*
%TO.C,Q1*%
X140365000Y-144675000D02*
X140365000Y-141075000D01*
X135915000Y-142875000D02*
G75*
G03*
X140353478Y-144713478I2600000J0D01*
G01*
X140353478Y-141036522D02*
G75*
G03*
X135915000Y-142875000I-1838478J-1838478D01*
G01*
%TO.C,Y1*%
X49440000Y-106720000D02*
X42540000Y-106720000D01*
X42540000Y-106720000D02*
X42540000Y-109180000D01*
X50340000Y-107000000D02*
X50540000Y-107000000D01*
X49440000Y-107600000D02*
X50340000Y-107000000D01*
X49440000Y-108300000D02*
X50340000Y-108900000D01*
X50340000Y-108900000D02*
X50540000Y-108900000D01*
X49440000Y-109180000D02*
X49440000Y-106720000D01*
X42540000Y-109180000D02*
X49440000Y-109180000D01*
%TO.C,U1*%
X46880000Y-69790000D02*
X46880000Y-90230000D01*
X46880000Y-90230000D02*
X52180000Y-90230000D01*
X48530000Y-69790000D02*
X46880000Y-69790000D01*
X52180000Y-69790000D02*
X50530000Y-69790000D01*
X52180000Y-90230000D02*
X52180000Y-69790000D01*
X48530000Y-69790000D02*
G75*
G03*
X50530000Y-69790000I1000000J0D01*
G01*
%TO.C,U4*%
X120550000Y-68520000D02*
X120550000Y-94040000D01*
X120550000Y-94040000D02*
X125850000Y-94040000D01*
X122200000Y-68520000D02*
X120550000Y-68520000D01*
X125850000Y-68520000D02*
X124200000Y-68520000D01*
X125850000Y-94040000D02*
X125850000Y-68520000D01*
X122200000Y-68520000D02*
G75*
G03*
X124200000Y-68520000I1000000J0D01*
G01*
%TO.C,U3*%
X87520000Y-68520000D02*
X87520000Y-88960000D01*
X87520000Y-88960000D02*
X92820000Y-88960000D01*
X89170000Y-68520000D02*
X87520000Y-68520000D01*
X92820000Y-68520000D02*
X91170000Y-68520000D01*
X92820000Y-88960000D02*
X92820000Y-68520000D01*
X89170000Y-68520000D02*
G75*
G03*
X91170000Y-68520000I1000000J0D01*
G01*
%TO.C,C7*%
X127530000Y-65940000D02*
X127530000Y-65695000D01*
X127530000Y-65940000D02*
X123890000Y-65940000D01*
X127530000Y-63845000D02*
X127530000Y-63600000D01*
X127530000Y-63600000D02*
X123890000Y-63600000D01*
X123890000Y-65940000D02*
X123890000Y-65695000D01*
X123890000Y-63845000D02*
X123890000Y-63600000D01*
%TO.C,J8*%
X138370000Y-152335000D02*
X139700000Y-152335000D01*
X138370000Y-153665000D02*
X138370000Y-152335000D01*
X138370000Y-154935000D02*
X138370000Y-157535000D01*
X138370000Y-154935000D02*
X141030000Y-154935000D01*
X138370000Y-157535000D02*
X141030000Y-157535000D01*
X141030000Y-154935000D02*
X141030000Y-157535000D01*
%TO.C,C14*%
X139284888Y-96090000D02*
X138784888Y-96090000D01*
X139034888Y-96340000D02*
X139034888Y-95840000D01*
X136480113Y-97195000D02*
X136480113Y-95655000D01*
X136480113Y-93575000D02*
X136480113Y-92035000D01*
X136440113Y-97195000D02*
X136440113Y-95655000D01*
X136440113Y-93575000D02*
X136440113Y-92035000D01*
X136400113Y-97194000D02*
X136400113Y-95655000D01*
X136400113Y-93575000D02*
X136400113Y-92036000D01*
X136360113Y-97193000D02*
X136360113Y-95655000D01*
X136360113Y-93575000D02*
X136360113Y-92037000D01*
X136320113Y-97191000D02*
X136320113Y-95655000D01*
X136320113Y-93575000D02*
X136320113Y-92039000D01*
X136280113Y-97188000D02*
X136280113Y-95655000D01*
X136280113Y-93575000D02*
X136280113Y-92042000D01*
X136240113Y-97184000D02*
X136240113Y-95655000D01*
X136240113Y-93575000D02*
X136240113Y-92046000D01*
X136200113Y-97180000D02*
X136200113Y-95655000D01*
X136200113Y-93575000D02*
X136200113Y-92050000D01*
X136160113Y-97176000D02*
X136160113Y-95655000D01*
X136160113Y-93575000D02*
X136160113Y-92054000D01*
X136120113Y-97171000D02*
X136120113Y-95655000D01*
X136120113Y-93575000D02*
X136120113Y-92059000D01*
X136080113Y-97165000D02*
X136080113Y-95655000D01*
X136080113Y-93575000D02*
X136080113Y-92065000D01*
X136040113Y-97158000D02*
X136040113Y-95655000D01*
X136040113Y-93575000D02*
X136040113Y-92072000D01*
X136000113Y-97151000D02*
X136000113Y-95655000D01*
X136000113Y-93575000D02*
X136000113Y-92079000D01*
X135960113Y-97143000D02*
X135960113Y-95655000D01*
X135960113Y-93575000D02*
X135960113Y-92087000D01*
X135920113Y-97135000D02*
X135920113Y-95655000D01*
X135920113Y-93575000D02*
X135920113Y-92095000D01*
X135880113Y-97126000D02*
X135880113Y-95655000D01*
X135880113Y-93575000D02*
X135880113Y-92104000D01*
X135840113Y-97116000D02*
X135840113Y-95655000D01*
X135840113Y-93575000D02*
X135840113Y-92114000D01*
X135800113Y-97106000D02*
X135800113Y-95655000D01*
X135800113Y-93575000D02*
X135800113Y-92124000D01*
X135759113Y-97095000D02*
X135759113Y-95655000D01*
X135759113Y-93575000D02*
X135759113Y-92135000D01*
X135719113Y-97083000D02*
X135719113Y-95655000D01*
X135719113Y-93575000D02*
X135719113Y-92147000D01*
X135679113Y-97070000D02*
X135679113Y-95655000D01*
X135679113Y-93575000D02*
X135679113Y-92160000D01*
X135639113Y-97057000D02*
X135639113Y-95655000D01*
X135639113Y-93575000D02*
X135639113Y-92173000D01*
X135599113Y-97043000D02*
X135599113Y-95655000D01*
X135599113Y-93575000D02*
X135599113Y-92187000D01*
X135559113Y-97029000D02*
X135559113Y-95655000D01*
X135559113Y-93575000D02*
X135559113Y-92201000D01*
X135519113Y-97013000D02*
X135519113Y-95655000D01*
X135519113Y-93575000D02*
X135519113Y-92217000D01*
X135479113Y-96997000D02*
X135479113Y-95655000D01*
X135479113Y-93575000D02*
X135479113Y-92233000D01*
X135439113Y-96980000D02*
X135439113Y-95655000D01*
X135439113Y-93575000D02*
X135439113Y-92250000D01*
X135399113Y-96963000D02*
X135399113Y-95655000D01*
X135399113Y-93575000D02*
X135399113Y-92267000D01*
X135359113Y-96944000D02*
X135359113Y-95655000D01*
X135359113Y-93575000D02*
X135359113Y-92286000D01*
X135319113Y-96925000D02*
X135319113Y-95655000D01*
X135319113Y-93575000D02*
X135319113Y-92305000D01*
X135279113Y-96905000D02*
X135279113Y-95655000D01*
X135279113Y-93575000D02*
X135279113Y-92325000D01*
X135239113Y-96883000D02*
X135239113Y-95655000D01*
X135239113Y-93575000D02*
X135239113Y-92347000D01*
X135199113Y-96862000D02*
X135199113Y-95655000D01*
X135199113Y-93575000D02*
X135199113Y-92368000D01*
X135159113Y-96839000D02*
X135159113Y-95655000D01*
X135159113Y-93575000D02*
X135159113Y-92391000D01*
X135119113Y-96815000D02*
X135119113Y-95655000D01*
X135119113Y-93575000D02*
X135119113Y-92415000D01*
X135079113Y-96790000D02*
X135079113Y-95655000D01*
X135079113Y-93575000D02*
X135079113Y-92440000D01*
X135039113Y-96764000D02*
X135039113Y-95655000D01*
X135039113Y-93575000D02*
X135039113Y-92466000D01*
X134999113Y-96737000D02*
X134999113Y-95655000D01*
X134999113Y-93575000D02*
X134999113Y-92493000D01*
X134959113Y-96710000D02*
X134959113Y-95655000D01*
X134959113Y-93575000D02*
X134959113Y-92520000D01*
X134919113Y-96680000D02*
X134919113Y-95655000D01*
X134919113Y-93575000D02*
X134919113Y-92550000D01*
X134879113Y-96650000D02*
X134879113Y-95655000D01*
X134879113Y-93575000D02*
X134879113Y-92580000D01*
X134839113Y-96619000D02*
X134839113Y-95655000D01*
X134839113Y-93575000D02*
X134839113Y-92611000D01*
X134799113Y-96586000D02*
X134799113Y-95655000D01*
X134799113Y-93575000D02*
X134799113Y-92644000D01*
X134759113Y-96552000D02*
X134759113Y-95655000D01*
X134759113Y-93575000D02*
X134759113Y-92678000D01*
X134719113Y-96516000D02*
X134719113Y-95655000D01*
X134719113Y-93575000D02*
X134719113Y-92714000D01*
X134679113Y-96479000D02*
X134679113Y-95655000D01*
X134679113Y-93575000D02*
X134679113Y-92751000D01*
X134639113Y-96441000D02*
X134639113Y-95655000D01*
X134639113Y-93575000D02*
X134639113Y-92789000D01*
X134599113Y-96400000D02*
X134599113Y-95655000D01*
X134599113Y-93575000D02*
X134599113Y-92830000D01*
X134559113Y-96358000D02*
X134559113Y-95655000D01*
X134559113Y-93575000D02*
X134559113Y-92872000D01*
X134519113Y-96314000D02*
X134519113Y-95655000D01*
X134519113Y-93575000D02*
X134519113Y-92916000D01*
X134479113Y-96268000D02*
X134479113Y-95655000D01*
X134479113Y-93575000D02*
X134479113Y-92962000D01*
X134439113Y-96220000D02*
X134439113Y-93010000D01*
X134399113Y-96169000D02*
X134399113Y-93061000D01*
X134359113Y-96115000D02*
X134359113Y-93115000D01*
X134319113Y-96058000D02*
X134319113Y-93172000D01*
X134279113Y-95998000D02*
X134279113Y-93232000D01*
X134239113Y-95934000D02*
X134239113Y-93296000D01*
X134199113Y-95866000D02*
X134199113Y-93364000D01*
X134159113Y-95793000D02*
X134159113Y-93437000D01*
X134119113Y-95713000D02*
X134119113Y-93517000D01*
X134079113Y-95626000D02*
X134079113Y-93604000D01*
X134039113Y-95530000D02*
X134039113Y-93700000D01*
X133999113Y-95420000D02*
X133999113Y-93810000D01*
X133959113Y-95292000D02*
X133959113Y-93938000D01*
X133919113Y-95133000D02*
X133919113Y-94097000D01*
X133879113Y-94899000D02*
X133879113Y-94331000D01*
X139100113Y-94615000D02*
G75*
G03*
X139100113Y-94615000I-2620000J0D01*
G01*
%TO.C,D2*%
X117815000Y-168309000D02*
X117815000Y-168465000D01*
X117815000Y-170625000D02*
X117815000Y-170781000D01*
X121047334Y-168466392D02*
G75*
G03*
X117815001Y-168309485I-1672334J-1078608D01*
G01*
X120416129Y-168465164D02*
G75*
G03*
X118334040Y-168465001I-1041129J-1079836D01*
G01*
X118334040Y-170624999D02*
G75*
G03*
X120416129Y-170624836I1040960J1079999D01*
G01*
X117815001Y-170780515D02*
G75*
G03*
X121047334Y-170623608I1559999J1235515D01*
G01*
%TO.C,X1*%
X27840000Y-70500000D02*
X27840000Y-82650000D01*
X27840000Y-82650000D02*
X39990000Y-82650000D01*
X39990000Y-69750000D02*
X28590000Y-69750000D01*
X40740000Y-81900000D02*
X40740000Y-70500000D01*
X28590000Y-69750000D02*
G75*
G03*
X27840000Y-70500000I0J-750000D01*
G01*
X40740000Y-70500000D02*
G75*
G03*
X39990000Y-69750000I-750000J0D01*
G01*
X39990000Y-82650000D02*
G75*
G03*
X40740000Y-81900000I0J750000D01*
G01*
%TO.C,C1*%
X36730000Y-120120000D02*
X36485000Y-120120000D01*
X36730000Y-120120000D02*
X36730000Y-123760000D01*
X34635000Y-120120000D02*
X34390000Y-120120000D01*
X34390000Y-120120000D02*
X34390000Y-123760000D01*
X36730000Y-123760000D02*
X36485000Y-123760000D01*
X34635000Y-123760000D02*
X34390000Y-123760000D01*
%TO.C,C9*%
X60260000Y-98960000D02*
X60260000Y-98715000D01*
X60260000Y-98960000D02*
X56620000Y-98960000D01*
X60260000Y-96865000D02*
X60260000Y-96620000D01*
X60260000Y-96620000D02*
X56620000Y-96620000D01*
X56620000Y-98960000D02*
X56620000Y-98715000D01*
X56620000Y-96865000D02*
X56620000Y-96620000D01*
%TO.C,R6*%
X131445000Y-128500000D02*
X131445000Y-127730000D01*
X130075000Y-127730000D02*
X132815000Y-127730000D01*
X132815000Y-127730000D02*
X132815000Y-121190000D01*
X130075000Y-121190000D02*
X130075000Y-127730000D01*
X132815000Y-121190000D02*
X130075000Y-121190000D01*
X131445000Y-120420000D02*
X131445000Y-121190000D01*
%TO.C,C12*%
X51370000Y-67210000D02*
X51370000Y-66965000D01*
X51370000Y-67210000D02*
X47730000Y-67210000D01*
X51370000Y-65115000D02*
X51370000Y-64870000D01*
X51370000Y-64870000D02*
X47730000Y-64870000D01*
X47730000Y-67210000D02*
X47730000Y-66965000D01*
X47730000Y-65115000D02*
X47730000Y-64870000D01*
%TO.C,J1*%
X27880000Y-119330000D02*
X29210000Y-119330000D01*
X27880000Y-120660000D02*
X27880000Y-119330000D01*
X27880000Y-121930000D02*
X27880000Y-129610000D01*
X27880000Y-121930000D02*
X30540000Y-121930000D01*
X27880000Y-129610000D02*
X30540000Y-129610000D01*
X30540000Y-121930000D02*
X30540000Y-129610000D01*
%TO.C,C16*%
X32450000Y-64870000D02*
X32450000Y-65115000D01*
X32450000Y-64870000D02*
X36090000Y-64870000D01*
X32450000Y-66965000D02*
X32450000Y-67210000D01*
X32450000Y-67210000D02*
X36090000Y-67210000D01*
X36090000Y-64870000D02*
X36090000Y-65115000D01*
X36090000Y-66965000D02*
X36090000Y-67210000D01*
%TO.C,C17*%
X43385000Y-62645113D02*
X43385000Y-63145113D01*
X43635000Y-62895113D02*
X43135000Y-62895113D01*
X44490000Y-65449888D02*
X39330000Y-65449888D01*
X44490000Y-65489888D02*
X39330000Y-65489888D01*
X44489000Y-65529888D02*
X39331000Y-65529888D01*
X44488000Y-65569888D02*
X39332000Y-65569888D01*
X44486000Y-65609888D02*
X39334000Y-65609888D01*
X44483000Y-65649888D02*
X39337000Y-65649888D01*
X44479000Y-65689888D02*
X42950000Y-65689888D01*
X40870000Y-65689888D02*
X39341000Y-65689888D01*
X44475000Y-65729888D02*
X42950000Y-65729888D01*
X40870000Y-65729888D02*
X39345000Y-65729888D01*
X44471000Y-65769888D02*
X42950000Y-65769888D01*
X40870000Y-65769888D02*
X39349000Y-65769888D01*
X44466000Y-65809888D02*
X42950000Y-65809888D01*
X40870000Y-65809888D02*
X39354000Y-65809888D01*
X44460000Y-65849888D02*
X42950000Y-65849888D01*
X40870000Y-65849888D02*
X39360000Y-65849888D01*
X44453000Y-65889888D02*
X42950000Y-65889888D01*
X40870000Y-65889888D02*
X39367000Y-65889888D01*
X44446000Y-65929888D02*
X42950000Y-65929888D01*
X40870000Y-65929888D02*
X39374000Y-65929888D01*
X44438000Y-65969888D02*
X42950000Y-65969888D01*
X40870000Y-65969888D02*
X39382000Y-65969888D01*
X44430000Y-66009888D02*
X42950000Y-66009888D01*
X40870000Y-66009888D02*
X39390000Y-66009888D01*
X44421000Y-66049888D02*
X42950000Y-66049888D01*
X40870000Y-66049888D02*
X39399000Y-66049888D01*
X44411000Y-66089888D02*
X42950000Y-66089888D01*
X40870000Y-66089888D02*
X39409000Y-66089888D01*
X44401000Y-66129888D02*
X42950000Y-66129888D01*
X40870000Y-66129888D02*
X39419000Y-66129888D01*
X44390000Y-66170888D02*
X42950000Y-66170888D01*
X40870000Y-66170888D02*
X39430000Y-66170888D01*
X44378000Y-66210888D02*
X42950000Y-66210888D01*
X40870000Y-66210888D02*
X39442000Y-66210888D01*
X44365000Y-66250888D02*
X42950000Y-66250888D01*
X40870000Y-66250888D02*
X39455000Y-66250888D01*
X44352000Y-66290888D02*
X42950000Y-66290888D01*
X40870000Y-66290888D02*
X39468000Y-66290888D01*
X44338000Y-66330888D02*
X42950000Y-66330888D01*
X40870000Y-66330888D02*
X39482000Y-66330888D01*
X44324000Y-66370888D02*
X42950000Y-66370888D01*
X40870000Y-66370888D02*
X39496000Y-66370888D01*
X44308000Y-66410888D02*
X42950000Y-66410888D01*
X40870000Y-66410888D02*
X39512000Y-66410888D01*
X44292000Y-66450888D02*
X42950000Y-66450888D01*
X40870000Y-66450888D02*
X39528000Y-66450888D01*
X44275000Y-66490888D02*
X42950000Y-66490888D01*
X40870000Y-66490888D02*
X39545000Y-66490888D01*
X44258000Y-66530888D02*
X42950000Y-66530888D01*
X40870000Y-66530888D02*
X39562000Y-66530888D01*
X44239000Y-66570888D02*
X42950000Y-66570888D01*
X40870000Y-66570888D02*
X39581000Y-66570888D01*
X44220000Y-66610888D02*
X42950000Y-66610888D01*
X40870000Y-66610888D02*
X39600000Y-66610888D01*
X44200000Y-66650888D02*
X42950000Y-66650888D01*
X40870000Y-66650888D02*
X39620000Y-66650888D01*
X44178000Y-66690888D02*
X42950000Y-66690888D01*
X40870000Y-66690888D02*
X39642000Y-66690888D01*
X44157000Y-66730888D02*
X42950000Y-66730888D01*
X40870000Y-66730888D02*
X39663000Y-66730888D01*
X44134000Y-66770888D02*
X42950000Y-66770888D01*
X40870000Y-66770888D02*
X39686000Y-66770888D01*
X44110000Y-66810888D02*
X42950000Y-66810888D01*
X40870000Y-66810888D02*
X39710000Y-66810888D01*
X44085000Y-66850888D02*
X42950000Y-66850888D01*
X40870000Y-66850888D02*
X39735000Y-66850888D01*
X44059000Y-66890888D02*
X42950000Y-66890888D01*
X40870000Y-66890888D02*
X39761000Y-66890888D01*
X44032000Y-66930888D02*
X42950000Y-66930888D01*
X40870000Y-66930888D02*
X39788000Y-66930888D01*
X44005000Y-66970888D02*
X42950000Y-66970888D01*
X40870000Y-66970888D02*
X39815000Y-66970888D01*
X43975000Y-67010888D02*
X42950000Y-67010888D01*
X40870000Y-67010888D02*
X39845000Y-67010888D01*
X43945000Y-67050888D02*
X42950000Y-67050888D01*
X40870000Y-67050888D02*
X39875000Y-67050888D01*
X43914000Y-67090888D02*
X42950000Y-67090888D01*
X40870000Y-67090888D02*
X39906000Y-67090888D01*
X43881000Y-67130888D02*
X42950000Y-67130888D01*
X40870000Y-67130888D02*
X39939000Y-67130888D01*
X43847000Y-67170888D02*
X42950000Y-67170888D01*
X40870000Y-67170888D02*
X39973000Y-67170888D01*
X43811000Y-67210888D02*
X42950000Y-67210888D01*
X40870000Y-67210888D02*
X40009000Y-67210888D01*
X43774000Y-67250888D02*
X42950000Y-67250888D01*
X40870000Y-67250888D02*
X40046000Y-67250888D01*
X43736000Y-67290888D02*
X42950000Y-67290888D01*
X40870000Y-67290888D02*
X40084000Y-67290888D01*
X43695000Y-67330888D02*
X42950000Y-67330888D01*
X40870000Y-67330888D02*
X40125000Y-67330888D01*
X43653000Y-67370888D02*
X42950000Y-67370888D01*
X40870000Y-67370888D02*
X40167000Y-67370888D01*
X43609000Y-67410888D02*
X42950000Y-67410888D01*
X40870000Y-67410888D02*
X40211000Y-67410888D01*
X43563000Y-67450888D02*
X42950000Y-67450888D01*
X40870000Y-67450888D02*
X40257000Y-67450888D01*
X43515000Y-67490888D02*
X42950000Y-67490888D01*
X40870000Y-67490888D02*
X40305000Y-67490888D01*
X43464000Y-67530888D02*
X42950000Y-67530888D01*
X40870000Y-67530888D02*
X40356000Y-67530888D01*
X43410000Y-67570888D02*
X42950000Y-67570888D01*
X40870000Y-67570888D02*
X40410000Y-67570888D01*
X43353000Y-67610888D02*
X42950000Y-67610888D01*
X40870000Y-67610888D02*
X40467000Y-67610888D01*
X43293000Y-67650888D02*
X42950000Y-67650888D01*
X40870000Y-67650888D02*
X40527000Y-67650888D01*
X43229000Y-67690888D02*
X42950000Y-67690888D01*
X40870000Y-67690888D02*
X40591000Y-67690888D01*
X43161000Y-67730888D02*
X42950000Y-67730888D01*
X40870000Y-67730888D02*
X40659000Y-67730888D01*
X43088000Y-67770888D02*
X40732000Y-67770888D01*
X43008000Y-67810888D02*
X40812000Y-67810888D01*
X42921000Y-67850888D02*
X40899000Y-67850888D01*
X42825000Y-67890888D02*
X40995000Y-67890888D01*
X42715000Y-67930888D02*
X41105000Y-67930888D01*
X42587000Y-67970888D02*
X41233000Y-67970888D01*
X42428000Y-68010888D02*
X41392000Y-68010888D01*
X42194000Y-68050888D02*
X41626000Y-68050888D01*
X44530000Y-65449888D02*
G75*
G03*
X44530000Y-65449888I-2620000J0D01*
G01*
%TO.C,C10*%
X107250000Y-65940000D02*
X107250000Y-65695000D01*
X107250000Y-65940000D02*
X103610000Y-65940000D01*
X107250000Y-63845000D02*
X107250000Y-63600000D01*
X107250000Y-63600000D02*
X103610000Y-63600000D01*
X103610000Y-65940000D02*
X103610000Y-65695000D01*
X103610000Y-63845000D02*
X103610000Y-63600000D01*
%TO.C,J2*%
X134560000Y-68520000D02*
X135890000Y-68520000D01*
X134560000Y-69850000D02*
X134560000Y-68520000D01*
X134560000Y-71120000D02*
X134560000Y-88960000D01*
X134560000Y-71120000D02*
X137160000Y-71120000D01*
X134560000Y-88960000D02*
X139760000Y-88960000D01*
X137160000Y-68520000D02*
X139760000Y-68520000D01*
X137160000Y-71120000D02*
X137160000Y-68520000D01*
X139760000Y-68520000D02*
X139760000Y-88960000D01*
%TO.C,C5*%
X133230000Y-111210000D02*
X132985000Y-111210000D01*
X133230000Y-111210000D02*
X133230000Y-114850000D01*
X131135000Y-111210000D02*
X130890000Y-111210000D01*
X130890000Y-111210000D02*
X130890000Y-114850000D01*
X133230000Y-114850000D02*
X132985000Y-114850000D01*
X131135000Y-114850000D02*
X130890000Y-114850000D01*
%TO.C,R1*%
X110895000Y-161290000D02*
X111665000Y-161290000D01*
X111665000Y-159920000D02*
X111665000Y-162660000D01*
X111665000Y-162660000D02*
X118205000Y-162660000D01*
X118205000Y-159920000D02*
X111665000Y-159920000D01*
X118205000Y-162660000D02*
X118205000Y-159920000D01*
X118975000Y-161290000D02*
X118205000Y-161290000D01*
%TO.C,C18*%
X29640000Y-159604887D02*
X29640000Y-159104887D01*
X29390000Y-159354887D02*
X29890000Y-159354887D01*
X28535000Y-156800112D02*
X33695000Y-156800112D01*
X28535000Y-156760112D02*
X33695000Y-156760112D01*
X28536000Y-156720112D02*
X33694000Y-156720112D01*
X28537000Y-156680112D02*
X33693000Y-156680112D01*
X28539000Y-156640112D02*
X33691000Y-156640112D01*
X28542000Y-156600112D02*
X33688000Y-156600112D01*
X28546000Y-156560112D02*
X30075000Y-156560112D01*
X32155000Y-156560112D02*
X33684000Y-156560112D01*
X28550000Y-156520112D02*
X30075000Y-156520112D01*
X32155000Y-156520112D02*
X33680000Y-156520112D01*
X28554000Y-156480112D02*
X30075000Y-156480112D01*
X32155000Y-156480112D02*
X33676000Y-156480112D01*
X28559000Y-156440112D02*
X30075000Y-156440112D01*
X32155000Y-156440112D02*
X33671000Y-156440112D01*
X28565000Y-156400112D02*
X30075000Y-156400112D01*
X32155000Y-156400112D02*
X33665000Y-156400112D01*
X28572000Y-156360112D02*
X30075000Y-156360112D01*
X32155000Y-156360112D02*
X33658000Y-156360112D01*
X28579000Y-156320112D02*
X30075000Y-156320112D01*
X32155000Y-156320112D02*
X33651000Y-156320112D01*
X28587000Y-156280112D02*
X30075000Y-156280112D01*
X32155000Y-156280112D02*
X33643000Y-156280112D01*
X28595000Y-156240112D02*
X30075000Y-156240112D01*
X32155000Y-156240112D02*
X33635000Y-156240112D01*
X28604000Y-156200112D02*
X30075000Y-156200112D01*
X32155000Y-156200112D02*
X33626000Y-156200112D01*
X28614000Y-156160112D02*
X30075000Y-156160112D01*
X32155000Y-156160112D02*
X33616000Y-156160112D01*
X28624000Y-156120112D02*
X30075000Y-156120112D01*
X32155000Y-156120112D02*
X33606000Y-156120112D01*
X28635000Y-156079112D02*
X30075000Y-156079112D01*
X32155000Y-156079112D02*
X33595000Y-156079112D01*
X28647000Y-156039112D02*
X30075000Y-156039112D01*
X32155000Y-156039112D02*
X33583000Y-156039112D01*
X28660000Y-155999112D02*
X30075000Y-155999112D01*
X32155000Y-155999112D02*
X33570000Y-155999112D01*
X28673000Y-155959112D02*
X30075000Y-155959112D01*
X32155000Y-155959112D02*
X33557000Y-155959112D01*
X28687000Y-155919112D02*
X30075000Y-155919112D01*
X32155000Y-155919112D02*
X33543000Y-155919112D01*
X28701000Y-155879112D02*
X30075000Y-155879112D01*
X32155000Y-155879112D02*
X33529000Y-155879112D01*
X28717000Y-155839112D02*
X30075000Y-155839112D01*
X32155000Y-155839112D02*
X33513000Y-155839112D01*
X28733000Y-155799112D02*
X30075000Y-155799112D01*
X32155000Y-155799112D02*
X33497000Y-155799112D01*
X28750000Y-155759112D02*
X30075000Y-155759112D01*
X32155000Y-155759112D02*
X33480000Y-155759112D01*
X28767000Y-155719112D02*
X30075000Y-155719112D01*
X32155000Y-155719112D02*
X33463000Y-155719112D01*
X28786000Y-155679112D02*
X30075000Y-155679112D01*
X32155000Y-155679112D02*
X33444000Y-155679112D01*
X28805000Y-155639112D02*
X30075000Y-155639112D01*
X32155000Y-155639112D02*
X33425000Y-155639112D01*
X28825000Y-155599112D02*
X30075000Y-155599112D01*
X32155000Y-155599112D02*
X33405000Y-155599112D01*
X28847000Y-155559112D02*
X30075000Y-155559112D01*
X32155000Y-155559112D02*
X33383000Y-155559112D01*
X28868000Y-155519112D02*
X30075000Y-155519112D01*
X32155000Y-155519112D02*
X33362000Y-155519112D01*
X28891000Y-155479112D02*
X30075000Y-155479112D01*
X32155000Y-155479112D02*
X33339000Y-155479112D01*
X28915000Y-155439112D02*
X30075000Y-155439112D01*
X32155000Y-155439112D02*
X33315000Y-155439112D01*
X28940000Y-155399112D02*
X30075000Y-155399112D01*
X32155000Y-155399112D02*
X33290000Y-155399112D01*
X28966000Y-155359112D02*
X30075000Y-155359112D01*
X32155000Y-155359112D02*
X33264000Y-155359112D01*
X28993000Y-155319112D02*
X30075000Y-155319112D01*
X32155000Y-155319112D02*
X33237000Y-155319112D01*
X29020000Y-155279112D02*
X30075000Y-155279112D01*
X32155000Y-155279112D02*
X33210000Y-155279112D01*
X29050000Y-155239112D02*
X30075000Y-155239112D01*
X32155000Y-155239112D02*
X33180000Y-155239112D01*
X29080000Y-155199112D02*
X30075000Y-155199112D01*
X32155000Y-155199112D02*
X33150000Y-155199112D01*
X29111000Y-155159112D02*
X30075000Y-155159112D01*
X32155000Y-155159112D02*
X33119000Y-155159112D01*
X29144000Y-155119112D02*
X30075000Y-155119112D01*
X32155000Y-155119112D02*
X33086000Y-155119112D01*
X29178000Y-155079112D02*
X30075000Y-155079112D01*
X32155000Y-155079112D02*
X33052000Y-155079112D01*
X29214000Y-155039112D02*
X30075000Y-155039112D01*
X32155000Y-155039112D02*
X33016000Y-155039112D01*
X29251000Y-154999112D02*
X30075000Y-154999112D01*
X32155000Y-154999112D02*
X32979000Y-154999112D01*
X29289000Y-154959112D02*
X30075000Y-154959112D01*
X32155000Y-154959112D02*
X32941000Y-154959112D01*
X29330000Y-154919112D02*
X30075000Y-154919112D01*
X32155000Y-154919112D02*
X32900000Y-154919112D01*
X29372000Y-154879112D02*
X30075000Y-154879112D01*
X32155000Y-154879112D02*
X32858000Y-154879112D01*
X29416000Y-154839112D02*
X30075000Y-154839112D01*
X32155000Y-154839112D02*
X32814000Y-154839112D01*
X29462000Y-154799112D02*
X30075000Y-154799112D01*
X32155000Y-154799112D02*
X32768000Y-154799112D01*
X29510000Y-154759112D02*
X30075000Y-154759112D01*
X32155000Y-154759112D02*
X32720000Y-154759112D01*
X29561000Y-154719112D02*
X30075000Y-154719112D01*
X32155000Y-154719112D02*
X32669000Y-154719112D01*
X29615000Y-154679112D02*
X30075000Y-154679112D01*
X32155000Y-154679112D02*
X32615000Y-154679112D01*
X29672000Y-154639112D02*
X30075000Y-154639112D01*
X32155000Y-154639112D02*
X32558000Y-154639112D01*
X29732000Y-154599112D02*
X30075000Y-154599112D01*
X32155000Y-154599112D02*
X32498000Y-154599112D01*
X29796000Y-154559112D02*
X30075000Y-154559112D01*
X32155000Y-154559112D02*
X32434000Y-154559112D01*
X29864000Y-154519112D02*
X30075000Y-154519112D01*
X32155000Y-154519112D02*
X32366000Y-154519112D01*
X29937000Y-154479112D02*
X32293000Y-154479112D01*
X30017000Y-154439112D02*
X32213000Y-154439112D01*
X30104000Y-154399112D02*
X32126000Y-154399112D01*
X30200000Y-154359112D02*
X32030000Y-154359112D01*
X30310000Y-154319112D02*
X31920000Y-154319112D01*
X30438000Y-154279112D02*
X31792000Y-154279112D01*
X30597000Y-154239112D02*
X31633000Y-154239112D01*
X30831000Y-154199112D02*
X31399000Y-154199112D01*
X33735000Y-156800112D02*
G75*
G03*
X33735000Y-156800112I-2620000J0D01*
G01*
%TO.C,C2*%
X125030000Y-97690000D02*
X125030000Y-97445000D01*
X125030000Y-97690000D02*
X121390000Y-97690000D01*
X125030000Y-95595000D02*
X125030000Y-95350000D01*
X125030000Y-95350000D02*
X121390000Y-95350000D01*
X121390000Y-97690000D02*
X121390000Y-97445000D01*
X121390000Y-95595000D02*
X121390000Y-95350000D01*
%TO.C,C15*%
X116745679Y-95455000D02*
X116245679Y-95455000D01*
X116495679Y-95705000D02*
X116495679Y-95205000D01*
X113940904Y-96560000D02*
X113940904Y-95020000D01*
X113940904Y-92940000D02*
X113940904Y-91400000D01*
X113900904Y-96560000D02*
X113900904Y-95020000D01*
X113900904Y-92940000D02*
X113900904Y-91400000D01*
X113860904Y-96559000D02*
X113860904Y-95020000D01*
X113860904Y-92940000D02*
X113860904Y-91401000D01*
X113820904Y-96558000D02*
X113820904Y-95020000D01*
X113820904Y-92940000D02*
X113820904Y-91402000D01*
X113780904Y-96556000D02*
X113780904Y-95020000D01*
X113780904Y-92940000D02*
X113780904Y-91404000D01*
X113740904Y-96553000D02*
X113740904Y-95020000D01*
X113740904Y-92940000D02*
X113740904Y-91407000D01*
X113700904Y-96549000D02*
X113700904Y-95020000D01*
X113700904Y-92940000D02*
X113700904Y-91411000D01*
X113660904Y-96545000D02*
X113660904Y-95020000D01*
X113660904Y-92940000D02*
X113660904Y-91415000D01*
X113620904Y-96541000D02*
X113620904Y-95020000D01*
X113620904Y-92940000D02*
X113620904Y-91419000D01*
X113580904Y-96536000D02*
X113580904Y-95020000D01*
X113580904Y-92940000D02*
X113580904Y-91424000D01*
X113540904Y-96530000D02*
X113540904Y-95020000D01*
X113540904Y-92940000D02*
X113540904Y-91430000D01*
X113500904Y-96523000D02*
X113500904Y-95020000D01*
X113500904Y-92940000D02*
X113500904Y-91437000D01*
X113460904Y-96516000D02*
X113460904Y-95020000D01*
X113460904Y-92940000D02*
X113460904Y-91444000D01*
X113420904Y-96508000D02*
X113420904Y-95020000D01*
X113420904Y-92940000D02*
X113420904Y-91452000D01*
X113380904Y-96500000D02*
X113380904Y-95020000D01*
X113380904Y-92940000D02*
X113380904Y-91460000D01*
X113340904Y-96491000D02*
X113340904Y-95020000D01*
X113340904Y-92940000D02*
X113340904Y-91469000D01*
X113300904Y-96481000D02*
X113300904Y-95020000D01*
X113300904Y-92940000D02*
X113300904Y-91479000D01*
X113260904Y-96471000D02*
X113260904Y-95020000D01*
X113260904Y-92940000D02*
X113260904Y-91489000D01*
X113219904Y-96460000D02*
X113219904Y-95020000D01*
X113219904Y-92940000D02*
X113219904Y-91500000D01*
X113179904Y-96448000D02*
X113179904Y-95020000D01*
X113179904Y-92940000D02*
X113179904Y-91512000D01*
X113139904Y-96435000D02*
X113139904Y-95020000D01*
X113139904Y-92940000D02*
X113139904Y-91525000D01*
X113099904Y-96422000D02*
X113099904Y-95020000D01*
X113099904Y-92940000D02*
X113099904Y-91538000D01*
X113059904Y-96408000D02*
X113059904Y-95020000D01*
X113059904Y-92940000D02*
X113059904Y-91552000D01*
X113019904Y-96394000D02*
X113019904Y-95020000D01*
X113019904Y-92940000D02*
X113019904Y-91566000D01*
X112979904Y-96378000D02*
X112979904Y-95020000D01*
X112979904Y-92940000D02*
X112979904Y-91582000D01*
X112939904Y-96362000D02*
X112939904Y-95020000D01*
X112939904Y-92940000D02*
X112939904Y-91598000D01*
X112899904Y-96345000D02*
X112899904Y-95020000D01*
X112899904Y-92940000D02*
X112899904Y-91615000D01*
X112859904Y-96328000D02*
X112859904Y-95020000D01*
X112859904Y-92940000D02*
X112859904Y-91632000D01*
X112819904Y-96309000D02*
X112819904Y-95020000D01*
X112819904Y-92940000D02*
X112819904Y-91651000D01*
X112779904Y-96290000D02*
X112779904Y-95020000D01*
X112779904Y-92940000D02*
X112779904Y-91670000D01*
X112739904Y-96270000D02*
X112739904Y-95020000D01*
X112739904Y-92940000D02*
X112739904Y-91690000D01*
X112699904Y-96248000D02*
X112699904Y-95020000D01*
X112699904Y-92940000D02*
X112699904Y-91712000D01*
X112659904Y-96227000D02*
X112659904Y-95020000D01*
X112659904Y-92940000D02*
X112659904Y-91733000D01*
X112619904Y-96204000D02*
X112619904Y-95020000D01*
X112619904Y-92940000D02*
X112619904Y-91756000D01*
X112579904Y-96180000D02*
X112579904Y-95020000D01*
X112579904Y-92940000D02*
X112579904Y-91780000D01*
X112539904Y-96155000D02*
X112539904Y-95020000D01*
X112539904Y-92940000D02*
X112539904Y-91805000D01*
X112499904Y-96129000D02*
X112499904Y-95020000D01*
X112499904Y-92940000D02*
X112499904Y-91831000D01*
X112459904Y-96102000D02*
X112459904Y-95020000D01*
X112459904Y-92940000D02*
X112459904Y-91858000D01*
X112419904Y-96075000D02*
X112419904Y-95020000D01*
X112419904Y-92940000D02*
X112419904Y-91885000D01*
X112379904Y-96045000D02*
X112379904Y-95020000D01*
X112379904Y-92940000D02*
X112379904Y-91915000D01*
X112339904Y-96015000D02*
X112339904Y-95020000D01*
X112339904Y-92940000D02*
X112339904Y-91945000D01*
X112299904Y-95984000D02*
X112299904Y-95020000D01*
X112299904Y-92940000D02*
X112299904Y-91976000D01*
X112259904Y-95951000D02*
X112259904Y-95020000D01*
X112259904Y-92940000D02*
X112259904Y-92009000D01*
X112219904Y-95917000D02*
X112219904Y-95020000D01*
X112219904Y-92940000D02*
X112219904Y-92043000D01*
X112179904Y-95881000D02*
X112179904Y-95020000D01*
X112179904Y-92940000D02*
X112179904Y-92079000D01*
X112139904Y-95844000D02*
X112139904Y-95020000D01*
X112139904Y-92940000D02*
X112139904Y-92116000D01*
X112099904Y-95806000D02*
X112099904Y-95020000D01*
X112099904Y-92940000D02*
X112099904Y-92154000D01*
X112059904Y-95765000D02*
X112059904Y-95020000D01*
X112059904Y-92940000D02*
X112059904Y-92195000D01*
X112019904Y-95723000D02*
X112019904Y-95020000D01*
X112019904Y-92940000D02*
X112019904Y-92237000D01*
X111979904Y-95679000D02*
X111979904Y-95020000D01*
X111979904Y-92940000D02*
X111979904Y-92281000D01*
X111939904Y-95633000D02*
X111939904Y-95020000D01*
X111939904Y-92940000D02*
X111939904Y-92327000D01*
X111899904Y-95585000D02*
X111899904Y-92375000D01*
X111859904Y-95534000D02*
X111859904Y-92426000D01*
X111819904Y-95480000D02*
X111819904Y-92480000D01*
X111779904Y-95423000D02*
X111779904Y-92537000D01*
X111739904Y-95363000D02*
X111739904Y-92597000D01*
X111699904Y-95299000D02*
X111699904Y-92661000D01*
X111659904Y-95231000D02*
X111659904Y-92729000D01*
X111619904Y-95158000D02*
X111619904Y-92802000D01*
X111579904Y-95078000D02*
X111579904Y-92882000D01*
X111539904Y-94991000D02*
X111539904Y-92969000D01*
X111499904Y-94895000D02*
X111499904Y-93065000D01*
X111459904Y-94785000D02*
X111459904Y-93175000D01*
X111419904Y-94657000D02*
X111419904Y-93303000D01*
X111379904Y-94498000D02*
X111379904Y-93462000D01*
X111339904Y-94264000D02*
X111339904Y-93696000D01*
X116560904Y-93980000D02*
G75*
G03*
X116560904Y-93980000I-2620000J0D01*
G01*
%TO.C,J6*%
X62230000Y-148590000D02*
X60960000Y-148590000D01*
X62230000Y-147320000D02*
X62230000Y-148590000D01*
X59917071Y-145160000D02*
X59520000Y-145160000D01*
X59917071Y-144400000D02*
X59520000Y-144400000D01*
X59917071Y-142620000D02*
X59520000Y-142620000D01*
X59917071Y-141860000D02*
X59520000Y-141860000D01*
X59917071Y-140080000D02*
X59520000Y-140080000D01*
X59917071Y-139320000D02*
X59520000Y-139320000D01*
X59850000Y-147700000D02*
X59520000Y-147700000D01*
X59850000Y-146940000D02*
X59520000Y-146940000D01*
X59520000Y-148650000D02*
X59520000Y-138370000D01*
X59520000Y-146050000D02*
X56860000Y-146050000D01*
X59520000Y-143510000D02*
X56860000Y-143510000D01*
X59520000Y-140970000D02*
X56860000Y-140970000D01*
X59520000Y-138370000D02*
X56860000Y-138370000D01*
X56860000Y-148650000D02*
X59520000Y-148650000D01*
X56860000Y-147700000D02*
X50860000Y-147700000D01*
X56860000Y-147640000D02*
X50860000Y-147640000D01*
X56860000Y-147520000D02*
X50860000Y-147520000D01*
X56860000Y-147400000D02*
X50860000Y-147400000D01*
X56860000Y-147280000D02*
X50860000Y-147280000D01*
X56860000Y-147160000D02*
X50860000Y-147160000D01*
X56860000Y-147040000D02*
X50860000Y-147040000D01*
X56860000Y-145160000D02*
X50860000Y-145160000D01*
X56860000Y-142620000D02*
X50860000Y-142620000D01*
X56860000Y-140080000D02*
X50860000Y-140080000D01*
X56860000Y-138370000D02*
X56860000Y-148650000D01*
X50860000Y-147700000D02*
X50860000Y-146940000D01*
X50860000Y-146940000D02*
X56860000Y-146940000D01*
X50860000Y-145160000D02*
X50860000Y-144400000D01*
X50860000Y-144400000D02*
X56860000Y-144400000D01*
X50860000Y-142620000D02*
X50860000Y-141860000D01*
X50860000Y-141860000D02*
X56860000Y-141860000D01*
X50860000Y-140080000D02*
X50860000Y-139320000D01*
X50860000Y-139320000D02*
X56860000Y-139320000D01*
%TO.C,U2*%
X72290000Y-68515000D02*
X72290000Y-86415000D01*
X72290000Y-86415000D02*
X77590000Y-86415000D01*
X73940000Y-68515000D02*
X72290000Y-68515000D01*
X77590000Y-68515000D02*
X75940000Y-68515000D01*
X77590000Y-86415000D02*
X77590000Y-68515000D01*
X73940000Y-68515000D02*
G75*
G03*
X75940000Y-68515000I1000000J0D01*
G01*
%TO.C,U7*%
X89010000Y-146105000D02*
X89010000Y-95185000D01*
X89010000Y-95185000D02*
X76090000Y-95185000D01*
X83550000Y-146105000D02*
X89010000Y-146105000D01*
X76090000Y-146105000D02*
X81550000Y-146105000D01*
X76090000Y-95185000D02*
X76090000Y-146105000D01*
X83550000Y-146105000D02*
G75*
G03*
X81550000Y-146105000I-1000000J0D01*
G01*
%TO.C,C19*%
X125010000Y-133885000D02*
X125010000Y-133640000D01*
X125010000Y-133885000D02*
X121370000Y-133885000D01*
X125010000Y-131790000D02*
X125010000Y-131545000D01*
X125010000Y-131545000D02*
X121370000Y-131545000D01*
X121370000Y-133885000D02*
X121370000Y-133640000D01*
X121370000Y-131790000D02*
X121370000Y-131545000D01*
%TD*%
M02*
