999
dxfrw 0.6.3
  0
SECTION
  2
HEADER
  9
$ACADVER
  1
AC1021
  9
$DWGCODEPAGE
  3
ANSI_1252
  9
$INSBASE
 10
0
 20
0
 30
0
  9
$EXTMIN
 10
-3.068750000000001
 20
-0.8875000000000003
 30
0
  9
$EXTMAX
 10
18.1875
 20
15.46875
 30
0
  9
$LIMMIN
 10
0
 20
0
  9
$LIMMAX
 10
420
 20
297
  9
$ORTHOMODE
 70
    0
  9
$REGENMODE
 70
    1
  9
$FILLMODE
 70
    1
  9
$QTEXTMODE
 70
    0
  9
$MIRRTEXT
 70
    0
  9
$LTSCALE
 40
1
  9
$ATTMODE
 70
    0
  9
$TEXTSIZE
 40
2.5
  9
$TRACEWID
 40
15.68
  9
$TEXTSTYLE
  7
STANDARD
  9
$CLAYER
  8
DIM
  9
$CELTYPE
  6
BYLAYER
  9
$CECOLOR
 62
  256
  9
$CELTSCALE
 40
1
  9
$DISPSILH
 70
    0
  9
$DIMSCALE
 40
0.15
  9
$DIMASZ
 40
2.5
  9
$DIMEXO
 40
0.625
  9
$DIMDLI
 40
3.75
  9
$DIMRND
 40
0
  9
$DIMDLE
 40
0
  9
$DIMEXE
 40
1.25
  9
$DIMTP
 40
0
  9
$DIMTM
 40
0
  9
$DIMTXT
 40
2.5
  9
$DIMCEN
 40
2.5
  9
$DIMTSZ
 40
0
  9
$DIMTOL
 70
    0
  9
$DIMLIM
 70
    0
  9
$DIMTIH
 70
    0
  9
$DIMTOH
 70
    0
  9
$DIMSE1
 70
    0
  9
$DIMSE2
 70
    0
  9
$DIMTAD
 70
    1
  9
$DIMZIN
 70
    0
  9
$DIMBLK
  1

  9
$DIMASO
 70
    1
  9
$DIMSHO
 70
    1
  9
$DIMPOST
  1

  9
$DIMAPOST
  1

  9
$DIMALT
 70
    0
  9
$DIMALTD
 70
    3
  9
$DIMALTF
 40
0.03937
  9
$DIMLFAC
 40
1
  9
$DIMTOFL
 70
    1
  9
$DIMTVP
 40
0
  9
$DIMTIX
 70
    0
  9
$DIMSOXD
 70
    0
  9
$DIMSAH
 70
    0
  9
$DIMBLK1
  1

  9
$DIMBLK2
  1

  9
$DIMSTYLE
  2
STANDARD
  9
$DIMCLRD
 70
    0
  9
$DIMCLRE
 70
    0
  9
$DIMCLRT
 70
    0
  9
$DIMTFAC
 40
1
  9
$DIMGAP
 40
0.625
  9
$DIMJUST
 70
    0
  9
$DIMSD1
 70
    0
  9
$DIMSD2
 70
    0
  9
$DIMTOLJ
 70
    0
  9
$DIMTZIN
 70
    8
  9
$DIMALTZ
 70
    0
  9
$DIMALTTZ
 70
    0
  9
$DIMUPT
 70
    0
  9
$DIMDEC
 70
    3
  9
$DIMTDEC
 70
    2
  9
$DIMALTU
 70
    2
  9
$DIMALTTD
 70
    3
  9
$DIMTXSTY
  7
standard
  9
$DIMAUNIT
 70
    0
  9
$DIMADEC
 70
    0
  9
$DIMALTRND
 40
0
  9
$DIMAZIN
 70
    0
  9
$DIMDSEP
 70
   44
  9
$DIMATFIT
 70
    3
  9
$DIMFRAC
 70
    0
  9
$DIMLDRBLK
  1
STANDARD
  9
$DIMLUNIT
 70
    2
  9
$DIMLWD
 70
   -2
  9
$DIMLWE
 70
   -2
  9
$DIMTMOVE
 70
    0
  9
$DIMFXL
 40
1
  9
$DIMFXLON
 70
    0
  9
$DIMJOGANG
 40
0.7854
  9
$DIMTFILL
 70
    0
  9
$DIMTFILLCLR
 70
    0
  9
$DIMARCSYM
 70
    0
  9
$DIMLTYPE
  6

  9
$DIMLTEX1
  6

  9
$DIMLTEX2
  6

  9
$LUNITS
 70
    2
  9
$LUPREC
 70
    4
  9
$SKETCHINC
 40
1
  9
$FILLETRAD
 40
0
  9
$AUNITS
 70
    0
  9
$AUPREC
 70
    2
  9
$MENU
  1
.
  9
$ELEVATION
 40
0
  9
$PELEVATION
 40
0
  9
$THICKNESS
 40
0
  9
$LIMCHECK
 70
    0
  9
$CHAMFERA
 40
0
  9
$CHAMFERB
 40
0
  9
$CHAMFERC
 40
0
  9
$CHAMFERD
 40
0
  9
$SKPOLY
 70
    0
  9
$USRTIMER
 70
    1
  9
$ANGBASE
 50
0
  9
$ANGDIR
 70
    0
  9
$PDMODE
 70
   34
  9
$PDSIZE
 40
0
  9
$PLINEWID
 40
0
  9
$SPLFRAME
 70
    0
  9
$SPLINETYPE
 70
    2
  9
$SPLINESEGS
 70
    8
  9
$HANDSEED
  5
20000
  9
$SURFTAB1
 70
    6
  9
$SURFTAB2
 70
    6
  9
$SURFTYPE
 70
    6
  9
$SURFU
 70
    6
  9
$SURFV
 70
    6
  9
$UCSBASE
  2

  9
$UCSNAME
  2

  9
$UCSORG
 10
0
 20
0
 30
0
  9
$UCSXDIR
 10
1
 20
0
 30
0
  9
$UCSYDIR
 10
0
 20
1
 30
0
  9
$UCSORTHOREF
  2

  9
$UCSORTHOVIEW
 70
    0
  9
$UCSORGTOP
 10
0
 20
0
 30
0
  9
$UCSORGBOTTOM
 10
0
 20
0
 30
0
  9
$UCSORGLEFT
 10
0
 20
0
 30
0
  9
$UCSORGRIGHT
 10
0
 20
0
 30
0
  9
$UCSORGFRONT
 10
0
 20
0
 30
0
  9
$UCSORGBACK
 10
0
 20
0
 30
0
  9
$PUCSBASE
  2

  9
$PUCSNAME
  2

  9
$PUCSORG
 10
0
 20
0
 30
0
  9
$PUCSXDIR
 10
1
 20
0
 30
0
  9
$PUCSYDIR
 10
0
 20
1
 30
0
  9
$PUCSORTHOREF
  2

  9
$PUCSORTHOVIEW
 70
    0
  9
$PUCSORGTOP
 10
0
 20
0
 30
0
  9
$PUCSORGBOTTOM
 10
0
 20
0
 30
0
  9
$PUCSORGLEFT
 10
0
 20
0
 30
0
  9
$PUCSORGRIGHT
 10
0
 20
0
 30
0
  9
$PUCSORGFRONT
 10
0
 20
0
 30
0
  9
$PUCSORGBACK
 10
0
 20
0
 30
0
  9
$USERI1
 70
    0
  9
$USERI2
 70
    0
  9
$USERI3
 70
    0
  9
$USERI4
 70
    0
  9
$USERI5
 70
    0
  9
$USERR1
 40
0
  9
$USERR2
 40
0
  9
$USERR3
 40
0
  9
$USERR4
 40
0
  9
$USERR5
 40
0
  9
$WORLDVIEW
 70
    1
  9
$SHADEDGE
 70
    3
  9
$SHADEDIF
 70
   70
  9
$TILEMODE
 70
    1
  9
$MAXACTVP
 70
   64
  9
$PINSBASE
 10
-6.560089646749692
 20
-4.020885635519887
 30
0
  9
$PLIMCHECK
 70
    0
  9
$PEXTMIN
 10
0
 20
0
 30
0
  9
$PEXTMAX
 10
0
 20
0
 30
0
  9
$GRIDMODE
 70
    1
  9
$SNAPSTYLE
 70
    0
  9
$GRIDUNIT
 10
0
 20
0
  9
$PLIMMIN
 10
0
 20
0
  9
$PLIMMAX
 10
11
 20
8.5
  9
$UNITMODE
 70
    0
  9
$VISRETAIN
 70
    1
  9
$PLINEGEN
 70
    0
  9
$PSLTSCALE
 70
    1
  9
$TREEDEPTH
 70
 3020
  9
$CMLSTYLE
  2
Standard
  9
$CMLJUST
 70
    0
  9
$CMLSCALE
 40
20
  9
$PROXYGRAPHICS
 70
    1
  9
$MEASUREMENT
 70
    1
  9
$CELWEIGHT
370
   -1
  9
$ENDCAPS
280
    0
  9
$JOINSTYLE
280
    0
  9
$LWDISPLAY
290
    0
  9
$INSUNITS
 70
    1
  9
$HYPERLINKBASE
  1

  9
$STYLESHEET
  1

  9
$XEDIT
290
    1
  9
$CEPSNTYPE
380
    0
  9
$PSTYLEMODE
290
    1
  9
$EXTNAMES
290
    1
  9
$PSVPSCALE
 40
1
  9
$OLESTARTUP
290
    0
  9
$SORTENTS
280
  127
  9
$INDEXCTL
280
    0
  9
$HIDETEXT
280
    1
  9
$XCLIPFRAME
290
    0
  9
$HALOGAP
280
    0
  9
$OBSCOLOR
 70
  257
  9
$OBSLTYPE
280
    0
  9
$INTERSECTIONDISPLAY
280
    0
  9
$INTERSECTIONCOLOR
 70
  257
  9
$DIMASSOC
280
    1
  9
$PROJECTNAME
  1

  9
$CAMERADISPLAY
290
    0
  9
$LENSLENGTH
 40
50
  9
$CAMERAHEIGHT
 40
0
  9
$STEPSPERSEC
 40
2
  9
$STEPSIZE
 40
50
  9
$3DDWFPREC
 40
2
  9
$PSOLWIDTH
 40
5
  9
$PSOLHEIGHT
 40
80
  9
$LOFTANG1
 40
1.570796326794897
  9
$LOFTANG2
 40
1.570796326794897
  9
$LOFTMAG1
 40
0
  9
$LOFTMAG2
 40
0
  9
$LOFTPARAM
 70
    7
  9
$LOFTNORMALS
280
    1
  9
$LATITUDE
 40
1
  9
$LONGITUDE
 40
1
  9
$NORTHDIRECTION
 40
0
  9
$TIMEZONE
 70
-8000
  9
$LIGHTGLYPHDISPLAY
280
    1
  9
$TILEMODELIGHTSYNCH
280
    1
  9
$SOLIDHIST
280
    1
  9
$SHOWHIST
280
    1
  9
$DWFFRAME
280
    2
  9
$DGNFRAME
280
    0
  9
$REALWORLDSCALE
290
    1
  9
$INTERFERECOLOR
 62
    1
  9
$CSHADOW
280
    0
  9
$SHADOWPLANELOCATION
 40
0
  0
ENDSEC
  0
SECTION
  2
CLASSES
  0
ENDSEC
  0
SECTION
  2
TABLES
  0
TABLE
  2
VPORT
  5
8
330
0
100
AcDbSymbolTable
 70
    1
  0
VPORT
  5
31
330
2
100
AcDbSymbolTableRecord
100
AcDbViewportTableRecord
  2
*ACTIVE
 70
    0
 10
0
 20
0
 11
1
 21
1
 12
-4.611516877695168
 22
-0.7991549134642194
 13
0
 23
0
 14
10
 24
10
 15
10
 25
10
 16
0
 26
0
 36
1
 17
0
 27
0
 37
0
 40
1.41489722383829
 41
1.814814814814815
 42
50
 43
0
 44
0
 50
0
 51
0
 71
    0
 72
  100
 73
    1
 74
    3
 75
    0
 76
    1
 77
    0
 78
    0
281
    0
 65
    1
110
0
120
0
130
0
111
1
121
0
131
0
112
0
122
1
132
0
 79
    0
146
0
348
10020
 60
    7
 61
    5
292
1
282
    1
141
0
142
0
 63
  250
421
3358443
  0
ENDTAB
  0
TABLE
  2
LTYPE
  5
5
330
0
100
AcDbSymbolTable
 70
    4
  0
LTYPE
  5
14
330
5
100
AcDbSymbolTableRecord
100
AcDbLinetypeTableRecord
  2
ByBlock
 70
    0
  3

 72
   65
 73
    0
 40
0
  0
LTYPE
  5
15
330
5
100
AcDbSymbolTableRecord
100
AcDbLinetypeTableRecord
  2
ByLayer
 70
    0
  3

 72
   65
 73
    0
 40
0
  0
LTYPE
  5
16
330
5
100
AcDbSymbolTableRecord
100
AcDbLinetypeTableRecord
  2
Continuous
 70
    0
  3
Solid line
 72
   65
 73
    0
 40
0
  0
LTYPE
  5
32
330
5
100
AcDbSymbolTableRecord
100
AcDbLinetypeTableRecord
  2
DOT
 70
    0
  3
Dot . . . . . . . . . . . . . . . . . . . . . .
 72
   65
 73
    2
 40
6.35
 49
0
 74
    0
 49
-6.35
 74
    0
  0
LTYPE
  5
33
330
5
100
AcDbSymbolTableRecord
100
AcDbLinetypeTableRecord
  2
DOTTINY
 70
    0
  3
Dot (.15x) .....................................
 72
   65
 73
    2
 40
0.9525
 49
0
 74
    0
 49
-0.9525
 74
    0
  0
LTYPE
  5
34
330
5
100
AcDbSymbolTableRecord
100
AcDbLinetypeTableRecord
  2
DOT2
 70
    0
  3
Dot (.5x) .....................................
 72
   65
 73
    2
 40
3.175
 49
0
 74
    0
 49
-3.175
 74
    0
  0
LTYPE
  5
35
330
5
100
AcDbSymbolTableRecord
100
AcDbLinetypeTableRecord
  2
DOTX2
 70
    0
  3
Dot (2x) .  .  .  .  .  .  .  .  .  .  .  .  .
 72
   65
 73
    2
 40
12.7
 49
0
 74
    0
 49
-12.7
 74
    0
  0
LTYPE
  5
36
330
5
100
AcDbSymbolTableRecord
100
AcDbLinetypeTableRecord
  2
DASHED
 70
    0
  3
Dashed _ _ _ _ _ _ _ _ _ _ _ _ _ _ _ _ _
 72
   65
 73
    2
 40
19.05
 49
12.7
 74
    0
 49
-6.35
 74
    0
  0
LTYPE
  5
37
330
5
100
AcDbSymbolTableRecord
100
AcDbLinetypeTableRecord
  2
DASHEDTINY
 70
    0
  3
Dashed (.15x) _ _ _ _ _ _ _ _ _ _ _ _ _ _ _ _ _
 72
   65
 73
    2
 40
2.8575
 49
1.905
 74
    0
 49
-0.9525
 74
    0
  0
LTYPE
  5
38
330
5
100
AcDbSymbolTableRecord
100
AcDbLinetypeTableRecord
  2
DASHED2
 70
    0
  3
Dashed (.5x) _ _ _ _ _ _ _ _ _ _ _ _ _ _ _ _ _
 72
   65
 73
    2
 40
9.524999999999999
 49
6.35
 74
    0
 49
-3.175
 74
    0
  0
LTYPE
  5
39
330
5
100
AcDbSymbolTableRecord
100
AcDbLinetypeTableRecord
  2
DASHEDX2
 70
    0
  3
Dashed (2x) ____  ____  ____  ____  ____  ___
 72
   65
 73
    2
 40
38.09999999999999
 49
25.4
 74
    0
 49
-12.7
 74
    0
  0
LTYPE
  5
3A
330
5
100
AcDbSymbolTableRecord
100
AcDbLinetypeTableRecord
  2
DASHDOT
 70
    0
  3
Dash dot __ . __ . __ . __ . __ . __ . __ . __
 72
   65
 73
    4
 40
25.4
 49
12.7
 74
    0
 49
-6.35
 74
    0
 49
0
 74
    0
 49
-6.35
 74
    0
  0
LTYPE
  5
3B
330
5
100
AcDbSymbolTableRecord
100
AcDbLinetypeTableRecord
  2
DASHDOTTINY
 70
    0
  3
Dash dot (.15x) _._._._._._._._._._._._._._._.
 72
   65
 73
    4
 40
3.81
 49
1.905
 74
    0
 49
-0.9525
 74
    0
 49
0
 74
    0
 49
-0.9525
 74
    0
  0
LTYPE
  5
3C
330
5
100
AcDbSymbolTableRecord
100
AcDbLinetypeTableRecord
  2
DASHDOT2
 70
    0
  3
Dash dot (.5x) _._._._._._._._._._._._._._._.
 72
   65
 73
    4
 40
12.7
 49
6.35
 74
    0
 49
-3.175
 74
    0
 49
0
 74
    0
 49
-3.175
 74
    0
  0
LTYPE
  5
3D
330
5
100
AcDbSymbolTableRecord
100
AcDbLinetypeTableRecord
  2
DASHDOTX2
 70
    0
  3
Dash dot (2x) ____  .  ____  .  ____  .  ___
 72
   65
 73
    4
 40
50.8
 49
25.4
 74
    0
 49
-12.7
 74
    0
 49
0
 74
    0
 49
-12.7
 74
    0
  0
LTYPE
  5
3E
330
5
100
AcDbSymbolTableRecord
100
AcDbLinetypeTableRecord
  2
DIVIDE
 70
    0
  3
Divide ____ . . ____ . . ____ . . ____ . . ____
 72
   65
 73
    6
 40
31.75
 49
12.7
 74
    0
 49
-6.35
 74
    0
 49
0
 74
    0
 49
-6.35
 74
    0
 49
0
 74
    0
 49
-6.35
 74
    0
  0
LTYPE
  5
3F
330
5
100
AcDbSymbolTableRecord
100
AcDbLinetypeTableRecord
  2
DIVIDETINY
 70
    0
  3
Divide (.15x) __..__..__..__..__..__..__..__.._
 72
   65
 73
    6
 40
4.7625
 49
1.905
 74
    0
 49
-0.9525
 74
    0
 49
0
 74
    0
 49
-0.9525
 74
    0
 49
0
 74
    0
 49
-0.9525
 74
    0
  0
LTYPE
  5
40
330
5
100
AcDbSymbolTableRecord
100
AcDbLinetypeTableRecord
  2
DIVIDE2
 70
    0
  3
Divide (.5x) __..__..__..__..__..__..__..__.._
 72
   65
 73
    6
 40
15.875
 49
6.35
 74
    0
 49
-3.175
 74
    0
 49
0
 74
    0
 49
-3.175
 74
    0
 49
0
 74
    0
 49
-3.175
 74
    0
  0
LTYPE
  5
41
330
5
100
AcDbSymbolTableRecord
100
AcDbLinetypeTableRecord
  2
DIVIDEX2
 70
    0
  3
Divide (2x) ________  .  .  ________  .  .  _
 72
   65
 73
    6
 40
63.5
 49
25.4
 74
    0
 49
-12.7
 74
    0
 49
0
 74
    0
 49
-12.7
 74
    0
 49
0
 74
    0
 49
-12.7
 74
    0
  0
LTYPE
  5
42
330
5
100
AcDbSymbolTableRecord
100
AcDbLinetypeTableRecord
  2
BORDER
 70
    0
  3
Border __ __ . __ __ . __ __ . __ __ . __ __ .
 72
   65
 73
    6
 40
44.45
 49
12.7
 74
    0
 49
-6.35
 74
    0
 49
12.7
 74
    0
 49
-6.35
 74
    0
 49
0
 74
    0
 49
-6.35
 74
    0
  0
LTYPE
  5
43
330
5
100
AcDbSymbolTableRecord
100
AcDbLinetypeTableRecord
  2
BORDERTINY
 70
    0
  3
Border (.15x) __.__.__.__.__.__.__.__.__.__.__.
 72
   65
 73
    6
 40
6.6675
 49
1.905
 74
    0
 49
-0.9525
 74
    0
 49
1.905
 74
    0
 49
-0.9525
 74
    0
 49
0
 74
    0
 49
-0.9525
 74
    0
  0
LTYPE
  5
44
330
5
100
AcDbSymbolTableRecord
100
AcDbLinetypeTableRecord
  2
BORDER2
 70
    0
  3
Border (.5x) __.__.__.__.__.__.__.__.__.__.__.
 72
   65
 73
    6
 40
22.225
 49
6.35
 74
    0
 49
-3.175
 74
    0
 49
6.35
 74
    0
 49
-3.175
 74
    0
 49
0
 74
    0
 49
-3.175
 74
    0
  0
LTYPE
  5
45
330
5
100
AcDbSymbolTableRecord
100
AcDbLinetypeTableRecord
  2
BORDERX2
 70
    0
  3
Border (2x) ____  ____  .  ____  ____  .  ___
 72
   65
 73
    6
 40
88.89999999999999
 49
25.4
 74
    0
 49
-12.7
 74
    0
 49
25.4
 74
    0
 49
-12.7
 74
    0
 49
0
 74
    0
 49
-12.7
 74
    0
  0
LTYPE
  5
46
330
5
100
AcDbSymbolTableRecord
100
AcDbLinetypeTableRecord
  2
CENTER
 70
    0
  3
Center ____ _ ____ _ ____ _ ____ _ ____ _ ____
 72
   65
 73
    4
 40
50.8
 49
31.75
 74
    0
 49
-6.35
 74
    0
 49
6.35
 74
    0
 49
-6.35
 74
    0
  0
LTYPE
  5
47
330
5
100
AcDbSymbolTableRecord
100
AcDbLinetypeTableRecord
  2
CENTERTINY
 70
    0
  3
Center (.15x) ___ _ ___ _ ___ _ ___ _ ___ _ ___
 72
   65
 73
    4
 40
7.619999999999999
 49
4.7625
 74
    0
 49
-0.9525
 74
    0
 49
0.9525
 74
    0
 49
-0.9525
 74
    0
  0
LTYPE
  5
48
330
5
100
AcDbSymbolTableRecord
100
AcDbLinetypeTableRecord
  2
CENTER2
 70
    0
  3
Center (.5x) ___ _ ___ _ ___ _ ___ _ ___ _ ___
 72
   65
 73
    4
 40
28.575
 49
19.05
 74
    0
 49
-3.175
 74
    0
 49
3.175
 74
    0
 49
-3.175
 74
    0
  0
LTYPE
  5
49
330
5
100
AcDbSymbolTableRecord
100
AcDbLinetypeTableRecord
  2
CENTERX2
 70
    0
  3
Center (2x) ________  __  ________  __  _____
 72
   65
 73
    4
 40
101.6
 49
63.5
 74
    0
 49
-12.7
 74
    0
 49
12.7
 74
    0
 49
-12.7
 74
    0
  0
ENDTAB
  0
TABLE
  2
LAYER
  5
2
330
0
100
AcDbSymbolTable
 70
    1
  0
LAYER
  5
10
330
2
100
AcDbSymbolTableRecord
100
AcDbLayerTableRecord
  2
0
 70
    0
 62
    7
  6
CONTINUOUS
370
    0
390
F
  0
LAYER
  5
4A
330
2
100
AcDbSymbolTableRecord
100
AcDbLayerTableRecord
  2
BLACK
 70
    0
 62
    7
  6
CONTINUOUS
370
   -3
390
F
  0
LAYER
  5
4B
330
2
100
AcDbSymbolTableRecord
100
AcDbLayerTableRecord
  2
DIM
 70
    0
 62
    1
  6
CONTINUOUS
370
    0
390
F
  0
LAYER
  5
4C
330
2
100
AcDbSymbolTableRecord
100
AcDbLayerTableRecord
  2
chassis
 70
    0
 62
    4
  6
CONTINUOUS
370
    0
390
F
  0
ENDTAB
  0
TABLE
  2
STYLE
  5
3
330
0
100
AcDbSymbolTable
 70
    3
  0
STYLE
  5
4D
330
2
100
AcDbSymbolTableRecord
100
AcDbTextStyleTableRecord
  2
standard
 70
    0
 40
0
 41
1
 50
0
 71
    0
 42
1
  3
standard
  4

  0
ENDTAB
  0
TABLE
  2
VIEW
  5
6
330
0
100
AcDbSymbolTable
 70
    0
  0
ENDTAB
  0
TABLE
  2
UCS
  5
7
330
0
100
AcDbSymbolTable
 70
    0
  0
ENDTAB
  0
TABLE
  2
APPID
  5
9
330
0
100
AcDbSymbolTable
 70
    1
  0
APPID
  5
12
330
9
100
AcDbSymbolTableRecord
100
AcDbRegAppTableRecord
  2
ACAD
 70
    0
  0
APPID
  5
4E
330
9
100
AcDbSymbolTableRecord
100
AcDbRegAppTableRecord
  2
LibreCad
 70
    0
  0
ENDTAB
  0
TABLE
  2
DIMSTYLE
  5
A
330
0
100
AcDbSymbolTable
 70
    1
100
AcDbDimStyleTable
 71
    1
  0
DIMSTYLE
105
4F
330
A
100
AcDbSymbolTableRecord
100
AcDbDimStyleTableRecord
  2
Standard
 70
    0
 40
0.15
 41
2.5
 42
0.625
 43
0.38
 44
1.25
 45
0
 46
0
 47
0
 48
0
 49
1
140
2.5
141
0.09
142
0
143
25.4
144
1
145
0
146
1
147
0.625
148
0
 71
    0
 72
    0
 73
    0
 74
    1
 75
    0
 76
    0
 77
    0
 78
    0
 79
    0
170
    0
171
    2
172
    0
173
    0
174
    0
175
    0
176
    0
177
    0
178
    0
179
    0
271
    3
272
    4
273
    2
274
    2
275
    0
276
    0
277
    2
278
   44
279
    0
280
    0
281
    0
282
    0
283
    1
284
    0
285
    0
286
    0
288
    0
289
    3
340
standard
341

371
   -2
372
   -2
  0
ENDTAB
  0
TABLE
  2
BLOCK_RECORD
  5
1
330
0
100
AcDbSymbolTable
 70
    2
  0
BLOCK_RECORD
  5
1F
330
1
100
AcDbSymbolTableRecord
100
AcDbBlockTableRecord
  2
*Model_Space
 70
    0
280
    1
281
    0
  0
BLOCK_RECORD
  5
1E
330
1
100
AcDbSymbolTableRecord
100
AcDbBlockTableRecord
  2
*Paper_Space
 70
    0
280
    1
281
    0
  0
BLOCK_RECORD
  5
50
330
1
100
AcDbSymbolTableRecord
100
AcDbBlockTableRecord
  2
*D15
 70
    0
280
    1
281
    0
  0
BLOCK_RECORD
  5
53
330
1
100
AcDbSymbolTableRecord
100
AcDbBlockTableRecord
  2
*D1
 70
    0
280
    1
281
    0
  0
BLOCK_RECORD
  5
56
330
1
100
AcDbSymbolTableRecord
100
AcDbBlockTableRecord
  2
*D7
 70
    0
280
    1
281
    0
  0
BLOCK_RECORD
  5
59
330
1
100
AcDbSymbolTableRecord
100
AcDbBlockTableRecord
  2
*D10
 70
    0
280
    1
281
    0
  0
BLOCK_RECORD
  5
5C
330
1
100
AcDbSymbolTableRecord
100
AcDbBlockTableRecord
  2
*D19
 70
    0
280
    1
281
    0
  0
BLOCK_RECORD
  5
5F
330
1
100
AcDbSymbolTableRecord
100
AcDbBlockTableRecord
  2
*D21
 70
    0
280
    1
281
    0
  0
BLOCK_RECORD
  5
62
330
1
100
AcDbSymbolTableRecord
100
AcDbBlockTableRecord
  2
*D6
 70
    0
280
    1
281
    0
  0
BLOCK_RECORD
  5
65
330
1
100
AcDbSymbolTableRecord
100
AcDbBlockTableRecord
  2
*D22
 70
    0
280
    1
281
    0
  0
BLOCK_RECORD
  5
68
330
1
100
AcDbSymbolTableRecord
100
AcDbBlockTableRecord
  2
*D14
 70
    0
280
    1
281
    0
  0
BLOCK_RECORD
  5
6B
330
1
100
AcDbSymbolTableRecord
100
AcDbBlockTableRecord
  2
*D18
 70
    0
280
    1
281
    0
  0
BLOCK_RECORD
  5
6E
330
1
100
AcDbSymbolTableRecord
100
AcDbBlockTableRecord
  2
*D8
 70
    0
280
    1
281
    0
  0
BLOCK_RECORD
  5
71
330
1
100
AcDbSymbolTableRecord
100
AcDbBlockTableRecord
  2
*D5
 70
    0
280
    1
281
    0
  0
BLOCK_RECORD
  5
74
330
1
100
AcDbSymbolTableRecord
100
AcDbBlockTableRecord
  2
*D9
 70
    0
280
    1
281
    0
  0
BLOCK_RECORD
  5
77
330
1
100
AcDbSymbolTableRecord
100
AcDbBlockTableRecord
  2
*D3
 70
    0
280
    1
281
    0
  0
BLOCK_RECORD
  5
7A
330
1
100
AcDbSymbolTableRecord
100
AcDbBlockTableRecord
  2
*D11
 70
    0
280
    1
281
    0
  0
BLOCK_RECORD
  5
7D
330
1
100
AcDbSymbolTableRecord
100
AcDbBlockTableRecord
  2
*D13
 70
    0
280
    1
281
    0
  0
BLOCK_RECORD
  5
80
330
1
100
AcDbSymbolTableRecord
100
AcDbBlockTableRecord
  2
*D20
 70
    0
280
    1
281
    0
  0
BLOCK_RECORD
  5
83
330
1
100
AcDbSymbolTableRecord
100
AcDbBlockTableRecord
  2
*D16
 70
    0
280
    1
281
    0
  0
BLOCK_RECORD
  5
86
330
1
100
AcDbSymbolTableRecord
100
AcDbBlockTableRecord
  2
*D23
 70
    0
280
    1
281
    0
  0
BLOCK_RECORD
  5
89
330
1
100
AcDbSymbolTableRecord
100
AcDbBlockTableRecord
  2
*D4
 70
    0
280
    1
281
    0
  0
BLOCK_RECORD
  5
8C
330
1
100
AcDbSymbolTableRecord
100
AcDbBlockTableRecord
  2
*D17
 70
    0
280
    1
281
    0
  0
BLOCK_RECORD
  5
8F
330
1
100
AcDbSymbolTableRecord
100
AcDbBlockTableRecord
  2
*D2
 70
    0
280
    1
281
    0
  0
BLOCK_RECORD
  5
92
330
1
100
AcDbSymbolTableRecord
100
AcDbBlockTableRecord
  2
*D12
 70
    0
280
    1
281
    0
  0
BLOCK_RECORD
  5
95
330
1
100
AcDbSymbolTableRecord
100
AcDbBlockTableRecord
  2
TOROID
 70
    0
280
    1
281
    0
  0
BLOCK_RECORD
  5
98
330
1
100
AcDbSymbolTableRecord
100
AcDbBlockTableRecord
  2
hammond
 70
    0
280
    1
281
    0
  0
BLOCK_RECORD
  5
9B
330
1
100
AcDbSymbolTableRecord
100
AcDbBlockTableRecord
  2
PSU
 70
    0
280
    1
281
    0
  0
BLOCK_RECORD
  5
9E
330
1
100
AcDbSymbolTableRecord
100
AcDbBlockTableRecord
  2
hammond-0
 70
    0
280
    1
281
    0
  0
BLOCK_RECORD
  5
A1
330
1
100
AcDbSymbolTableRecord
100
AcDbBlockTableRecord
  2
CPU
 70
    0
280
    1
281
    0
  0
BLOCK_RECORD
  5
A4
330
1
100
AcDbSymbolTableRecord
100
AcDbBlockTableRecord
  2
AMP
 70
    0
280
    1
281
    0
  0
BLOCK_RECORD
  5
A7
330
1
100
AcDbSymbolTableRecord
100
AcDbBlockTableRecord
  2
CRT
 70
    0
280
    1
281
    0
  0
ENDTAB
  0
ENDSEC
  0
SECTION
  2
BLOCKS
  0
BLOCK
  5
20
330
1F
100
AcDbEntity
  8
0
100
AcDbBlockBegin
  2
*Model_Space
 70
    0
 10
0
 20
0
 30
0
  3
*Model_Space
  1

  0
ENDBLK
  5
21
330
1F
100
AcDbEntity
  8
0
100
AcDbBlockEnd
  0
BLOCK
  5
1C
330
1B
100
AcDbEntity
  8
0
100
AcDbBlockBegin
  2
*Paper_Space
 70
    0
 10
0
 20
0
 30
0
  3
*Paper_Space
  1

  0
ENDBLK
  5
1D
330
1F
100
AcDbEntity
  8
0
100
AcDbBlockEnd
  0
BLOCK
  5
51
330
50
100
AcDbEntity
  8
0
100
AcDbBlockBegin
  2
*D15
 70
    1
 10
0
 20
0
  3
*D15
  1

  0
LINE
  5
AA
100
AcDbEntity
  8
DIM
  6
ByBlock
 62
    0
370
   -2
100
AcDbLine
 10
0.3356681164888053
 20
-0.7000000000000003
 11
6.935668116488804
 21
-0.7000000000000003
  0
SOLID
  5
AB
100
AcDbEntity
  8
DIM
  6
ByBlock
 62
    0
370
   -2
100
AcDbTrace
 10
0.3356681164888053
 20
-0.7000000000000003
 30
0
 11
0.7106681164888053
 21
-0.6375573013340743
 31
0
 12
0.7106681164888053
 22
-0.7624426986659264
 32
0
 13
0.7106681164888053
 23
-0.7624426986659264
 33
0
  0
SOLID
  5
AC
100
AcDbEntity
  8
DIM
  6
ByBlock
 62
    0
370
   -2
100
AcDbTrace
 10
6.935668116488804
 20
-0.7000000000000003
 30
0
 11
6.560668116488804
 21
-0.7624426986659264
 31
0
 12
6.560668116488804
 22
-0.6375573013340742
 32
0
 13
6.560668116488804
 23
-0.6375573013340742
 33
0
  0
MTEXT
  5
AD
100
AcDbEntity
  8
DIM
  6
CONTINUOUS
 62
    0
370
   -2
100
AcDbMText
 10
3.635668116488805
 20
-0.4187500000000003
 30
0
 40
0.375
 41
1.187500000000046
 71
    5
 72
    1
  1
6,600
  7
standard
210
0
220
0
230
1
 50
0
 73
    2
 44
1
  0
LINE
  5
AE
100
AcDbEntity
  8
DIM
  6
ByBlock
 62
    0
370
   -2
100
AcDbLine
 10
0.3356681164888051
 20
0.2312500000000012
 11
0.3356681164888053
 21
-0.8875000000000003
  0
LINE
  5
AF
100
AcDbEntity
  8
DIM
  6
ByBlock
 62
    0
370
   -2
100
AcDbLine
 10
6.935668116488804
 20
0.2312500000000012
 11
6.935668116488804
 21
-0.8875000000000003
  0
ENDBLK
  5
52
330
50
100
AcDbEntity
  8
0
100
AcDbBlockEnd
  0
BLOCK
  5
54
330
53
100
AcDbEntity
  8
0
100
AcDbBlockBegin
  2
*D1
 70
    1
 10
0
 20
0
  3
*D1
  1

  0
LINE
  5
B0
100
AcDbEntity
  8
DIM
  6
CONTINUOUS
 62
    7
370
    0
100
AcDbLine
 10
0.4000000000000001
 20
8.300000000000001
 11
0.8000000000000002
 21
7.800000000000001
  0
LINE
  5
B1
100
AcDbEntity
  8
DIM
  6
CONTINUOUS
 62
    7
370
    0
100
AcDbLine
 10
0.8000000000000002
 20
7.800000000000001
 11
0.8000000000000002
 21
7.800000000000001
  0
LINE
  5
B2
100
AcDbEntity
  8
DIM
  6
CONTINUOUS
 62
    7
370
    0
100
AcDbLine
 10
0.8000000000000002
 20
7.800000000000001
 11
1.2
 21
7.800000000000001
  0
LINE
  5
B3
100
AcDbEntity
  8
DIM
  6
CONTINUOUS
 62
    7
370
    0
100
AcDbLine
 10
1.2
 20
7.800000000000001
 11
1.2
 21
7.800000000000001
  0
LINE
  5
B4
100
AcDbEntity
  8
DIM
  6
CONTINUOUS
 62
    7
370
    0
100
AcDbLine
 10
1.2
 20
7.800000000000001
 11
1.2
 21
7.800000000000001
  0
LINE
  5
B5
100
AcDbEntity
  8
DIM
  6
CONTINUOUS
 62
    7
370
    0
100
AcDbLine
 10
1.2
 20
7.800000000000001
 11
1.2
 21
7.800000000000001
  0
SOLID
  5
B6
100
AcDbEntity
  8
DIM
  6
CONTINUOUS
 62
    7
370
    0
100
AcDbTrace
 10
0.4000000000000001
 20
8.300000000000001
 30
0
 11
0.6830201985985809
 21
8.046181841071402
 31
0
 12
0.5855010870672377
 22
7.968166551846327
 32
0
 13
0.5855010870672377
 23
7.968166551846327
 33
0
  0
ENDBLK
  5
55
330
53
100
AcDbEntity
  8
0
100
AcDbBlockEnd
  0
BLOCK
  5
57
330
56
100
AcDbEntity
  8
0
100
AcDbBlockBegin
  2
*D7
 70
    1
 10
0
 20
0
  3
*D7
  1

  0
LINE
  5
B7
100
AcDbEntity
  8
DIM
  6
ByBlock
 62
    0
370
   -2
100
AcDbLine
 10
-1.4
 20
0
 11
-1.4
 21
4.446701708267494
  0
SOLID
  5
B8
100
AcDbEntity
  8
DIM
  6
ByBlock
 62
    0
370
   -2
100
AcDbTrace
 10
-1.4
 20
0
 30
0
 11
-1.462442698665926
 21
0.375
 31
0
 12
-1.337557301334074
 22
0.375
 32
0
 13
-1.337557301334074
 23
0.375
 33
0
  0
SOLID
  5
B9
100
AcDbEntity
  8
DIM
  6
ByBlock
 62
    0
370
   -2
100
AcDbTrace
 10
-1.4
 20
4.446701708267494
 30
0
 11
-1.337557301334074
 21
4.071701708267494
 31
0
 12
-1.462442698665926
 22
4.071701708267494
 32
0
 13
-1.462442698665926
 23
4.071701708267494
 33
0
  0
MTEXT
  5
BA
100
AcDbEntity
  8
DIM
  6
CONTINUOUS
 62
    0
370
   -2
100
AcDbMText
 10
-1.68125
 20
2.223350854133747
 30
0
 40
0.375
 41
1.3125
 71
    5
 72
    1
  1
4,447
  7
standard
210
0
220
0
230
1
 50
90
 73
    2
 44
1
  0
LINE
  5
BB
100
AcDbEntity
  8
DIM
  6
ByBlock
 62
    0
370
   -2
100
AcDbLine
 10
-0.09374999999999822
 20
6.699221497326426e-17
 11
-1.5875
 21
2.296212748401287e-17
  0
LINE
  5
BC
100
AcDbEntity
  8
DIM
  6
ByBlock
 62
    0
370
   -2
100
AcDbLine
 10
0.2399384690621283
 20
4.446701708267494
 11
-1.5875
 21
4.446701708267494
  0
ENDBLK
  5
58
330
56
100
AcDbEntity
  8
0
100
AcDbBlockEnd
  0
BLOCK
  5
5A
330
59
100
AcDbEntity
  8
0
100
AcDbBlockBegin
  2
*D10
 70
    1
 10
0
 20
0
  3
*D10
  1

  0
LINE
  5
BD
100
AcDbEntity
  8
DIM
  6
ByBlock
 62
    0
370
   -2
100
AcDbLine
 10
-0.7499999999999982
 20
12.2
 11
1.344654749531793
 21
12.2
  0
SOLID
  5
BE
100
AcDbEntity
  8
DIM
  6
ByBlock
 62
    0
370
   -2
100
AcDbTrace
 10
1.77635683940025e-15
 20
12.2
 30
0
 11
-0.3749999999999982
 21
12.13755730133407
 31
0
 12
-0.3749999999999982
 22
12.26244269866593
 32
0
 13
-0.3749999999999982
 23
12.26244269866593
 33
0
  0
SOLID
  5
BF
100
AcDbEntity
  8
DIM
  6
ByBlock
 62
    0
370
   -2
100
AcDbTrace
 10
0.594654749531793
 20
12.2
 30
0
 11
0.969654749531793
 21
12.26244269866593
 31
0
 12
0.969654749531793
 22
12.13755730133407
 32
0
 13
0.969654749531793
 23
12.13755730133407
 33
0
  0
MTEXT
  5
C0
100
AcDbEntity
  8
DIM
  6
CONTINUOUS
 62
    0
370
   -2
100
AcDbMText
 10
1.282154749531816
 20
12.48125
 30
0
 40
0.375
 41
1.187500000000047
 71
    5
 72
    1
  1
0,595
  7
standard
210
0
220
0
230
1
 50
0
 73
    2
 44
1
  0
LINE
  5
C1
100
AcDbEntity
  8
DIM
  6
ByBlock
 62
    0
370
   -2
100
AcDbLine
 10
1.782097371271253e-15
 20
12.09375
 11
1.787837903142257e-15
 21
12.3875
  0
LINE
  5
C2
100
AcDbEntity
  8
DIM
  6
ByBlock
 62
    0
370
   -2
100
AcDbLine
 10
0.594654749531793
 20
9.616353441815125
 11
0.594654749531793
 21
12.3875
  0
ENDBLK
  5
5B
330
59
100
AcDbEntity
  8
0
100
AcDbBlockEnd
  0
BLOCK
  5
5D
330
5C
100
AcDbEntity
  8
0
100
AcDbBlockBegin
  2
*D19
 70
    1
 10
0
 20
0
  3
*D19
  1

  0
LINE
  5
C3
100
AcDbEntity
  8
DIM
  6
ByBlock
 62
    0
370
   -2
100
AcDbLine
 10
0.1342761873549474
 20
15
 11
9.594294913479958
 21
15
  0
SOLID
  5
C4
100
AcDbEntity
  8
DIM
  6
ByBlock
 62
    0
370
   -2
100
AcDbTrace
 10
0.1342761873549474
 20
15
 30
0
 11
0.5092761873549474
 21
15.06244269866593
 31
0
 12
0.5092761873549474
 22
14.93755730133407
 32
0
 13
0.5092761873549474
 23
14.93755730133407
 33
0
  0
SOLID
  5
C5
100
AcDbEntity
  8
DIM
  6
ByBlock
 62
    0
370
   -2
100
AcDbTrace
 10
9.594294913479958
 20
15
 30
0
 11
9.219294913479958
 21
14.93755730133407
 31
0
 12
9.219294913479958
 22
15.06244269866593
 32
0
 13
9.219294913479958
 23
15.06244269866593
 33
0
  0
MTEXT
  5
C6
100
AcDbEntity
  8
DIM
  6
CONTINUOUS
 62
    0
370
   -2
100
AcDbMText
 10
4.864285550417453
 20
15.28125
 30
0
 40
0.375
 41
1.229166666666713
 71
    5
 72
    1
  1
9,460
  7
standard
210
0
220
0
230
1
 50
0
 73
    2
 44
1
  0
LINE
  5
C7
100
AcDbEntity
  8
DIM
  6
ByBlock
 62
    0
370
   -2
100
AcDbLine
 10
0.1342761873549472
 20
0.2173580708661432
 11
0.1342761873549474
 21
15.1875
  0
LINE
  5
C8
100
AcDbEntity
  8
DIM
  6
ByBlock
 62
    0
370
   -2
100
AcDbLine
 10
9.594294913479958
 20
8.577850694267754
 11
9.594294913479958
 21
15.1875
  0
ENDBLK
  5
5E
330
5C
100
AcDbEntity
  8
0
100
AcDbBlockEnd
  0
BLOCK
  5
60
330
5F
100
AcDbEntity
  8
0
100
AcDbBlockBegin
  2
*D21
 70
    1
 10
0
 20
0
  3
*D21
  1

  0
LINE
  5
C9
100
AcDbEntity
  8
DIM
  6
ByBlock
 62
    0
370
   -2
100
AcDbLine
 10
5.36094601026803
 20
9.456312181078886
 11
6.44121161714594
 21
8.376046574200979
  0
LINE
  5
CA
100
AcDbEntity
  8
DIM
  6
ByBlock
 62
    0
370
   -2
100
AcDbLine
 10
7.043860149492014
 20
11.13922632030287
 11
8.124125756369923
 21
10.05896071342496
  0
LINE
  5
CB
100
AcDbEntity
  8
DIM
  6
ByBlock
 62
    0
370
   -2
100
AcDbLine
 10
6.308629095673462
 20
8.508629095673456
 11
7.991543234897446
 21
10.19154323489744
  0
SOLID
  5
CC
100
AcDbEntity
  8
DIM
  6
ByBlock
 62
    0
370
   -2
100
AcDbTrace
 10
6.308629095673462
 20
8.508629095673456
 30
0
 11
6.529640482956152
 21
8.817947794280675
 31
0
 12
6.617947794280681
 22
8.729640482956146
 32
0
 13
6.617947794280681
 23
8.729640482956146
 33
0
  0
SOLID
  5
CD
100
AcDbEntity
  8
DIM
  6
ByBlock
 62
    0
370
   -2
100
AcDbTrace
 10
7.991543234897446
 20
10.19154323489744
 30
0
 11
7.770531847614754
 21
9.882224536290222
 31
0
 12
7.682224536290226
 22
9.970531847614751
 32
0
 13
7.682224536290226
 23
9.970531847614751
 33
0
  0
MTEXT
  5
CE
100
AcDbEntity
  8
DIM
  6
CONTINUOUS
 62
    0
370
   -2
100
AcDbMText
 10
6.951212383076731
 20
9.548959947494167
 30
0
 40
0.375
 41
1.187500000000023
 71
    5
 72
    1
  1
2,380
  7
standard
210
0
220
0
230
1
 50
45.00000000000003
 73
    2
 44
1
  0
ENDBLK
  5
61
330
5F
100
AcDbEntity
  8
0
100
AcDbBlockEnd
  0
BLOCK
  5
63
330
62
100
AcDbEntity
  8
0
100
AcDbBlockBegin
  2
*D6
 70
    1
 10
0
 20
0
  3
*D6
  1

  0
LINE
  5
CF
100
AcDbEntity
  8
DIM
  6
ByBlock
 62
    0
370
   -2
100
AcDbLine
 10
-0.195744033614094
 20
-0.75
 11
-0.1957440336140936
 21
1.075000000000001
  0
SOLID
  5
D0
100
AcDbEntity
  8
DIM
  6
ByBlock
 62
    0
370
   -2
100
AcDbTrace
 10
-0.1957440336140938
 20
5.551115123125783e-17
 30
0
 11
-0.1333013349481678
 21
-0.3749999999999999
 31
0
 12
-0.2581867322800199
 22
-0.3749999999999999
 32
0
 13
-0.2581867322800199
 23
-0.3749999999999999
 33
0
  0
SOLID
  5
D1
100
AcDbEntity
  8
DIM
  6
ByBlock
 62
    0
370
   -2
100
AcDbTrace
 10
-0.1957440336140938
 20
0.3250000000000012
 30
0
 11
-0.2581867322800198
 21
0.7000000000000013
 31
0
 12
-0.1333013349481676
 22
0.7000000000000013
 32
0
 13
-0.1333013349481676
 23
0.7000000000000013
 33
0
  0
MTEXT
  5
D2
100
AcDbEntity
  8
DIM
  6
CONTINUOUS
 62
    0
370
   -2
100
AcDbMText
 10
-0.4769940336140938
 20
1.012500000000025
 30
0
 40
0.375
 41
1.187500000000047
 71
    5
 72
    1
  1
0,325
  7
standard
210
0
220
0
230
1
 50
90
 73
    2
 44
1
  0
LINE
  5
D3
100
AcDbEntity
  8
DIM
  6
ByBlock
 62
    0
370
   -2
100
AcDbLine
 10
-0.09374999999999822
 20
6.699221497326426e-17
 11
-0.3832440336140938
 21
7.847327871527069e-17
  0
LINE
  5
D4
100
AcDbEntity
  8
DIM
  6
ByBlock
 62
    0
370
   -2
100
AcDbLine
 10
0.2419181164888051
 20
0.3250000000000012
 11
-0.3832440336140938
 21
0.3250000000000012
  0
ENDBLK
  5
64
330
62
100
AcDbEntity
  8
0
100
AcDbBlockEnd
  0
BLOCK
  5
66
330
65
100
AcDbEntity
  8
0
100
AcDbBlockBegin
  2
*D22
 70
    1
 10
0
 20
0
  3
*D22
  1

  0
LINE
  5
D5
100
AcDbEntity
  8
DIM
  6
ByBlock
 62
    0
370
   -2
100
AcDbLine
 10
0.3336884690621291
 20
6
 11
6.933688469062129
 21
6
  0
SOLID
  5
D6
100
AcDbEntity
  8
DIM
  6
ByBlock
 62
    0
370
   -2
100
AcDbTrace
 10
0.3336884690621291
 20
6
 30
0
 11
0.7086884690621291
 21
6.062442698665926
 31
0
 12
0.7086884690621291
 22
5.937557301334074
 32
0
 13
0.7086884690621291
 23
5.937557301334074
 33
0
  0
SOLID
  5
D7
100
AcDbEntity
  8
DIM
  6
ByBlock
 62
    0
370
   -2
100
AcDbTrace
 10
6.933688469062129
 20
6
 30
0
 11
6.558688469062129
 21
5.937557301334074
 31
0
 12
6.558688469062129
 22
6.062442698665926
 32
0
 13
6.558688469062129
 23
6.062442698665926
 33
0
  0
MTEXT
  5
D8
100
AcDbEntity
  8
DIM
  6
CONTINUOUS
 62
    0
370
   -2
100
AcDbMText
 10
3.633688469062129
 20
6.28125
 30
0
 40
0.375
 41
1.187500000000046
 71
    5
 72
    1
  1
6,600
  7
standard
210
0
220
0
230
1
 50
0
 73
    2
 44
1
  0
LINE
  5
D9
100
AcDbEntity
  8
DIM
  6
ByBlock
 62
    0
370
   -2
100
AcDbLine
 10
0.3336884690621283
 20
4.540451708267494
 11
0.3336884690621292
 21
6.1875
  0
LINE
  5
DA
100
AcDbEntity
  8
DIM
  6
ByBlock
 62
    0
370
   -2
100
AcDbLine
 10
6.933688469062129
 20
5.040451708267494
 11
6.933688469062129
 21
6.1875
  0
ENDBLK
  5
67
330
65
100
AcDbEntity
  8
0
100
AcDbBlockEnd
  0
BLOCK
  5
69
330
68
100
AcDbEntity
  8
0
100
AcDbBlockBegin
  2
*D14
 70
    1
 10
0
 20
0
  3
*D14
  1

  0
LINE
  5
DB
100
AcDbEntity
  8
DIM
  6
ByBlock
 62
    0
370
   -2
100
AcDbLine
 10
-0.7999999999999996
 20
4.446701708267494
 11
-0.7999999999999994
 21
8.546701708267495
  0
SOLID
  5
DC
100
AcDbEntity
  8
DIM
  6
ByBlock
 62
    0
370
   -2
100
AcDbTrace
 10
-0.7999999999999996
 20
4.446701708267494
 30
0
 11
-0.8624426986659256
 21
4.821701708267494
 31
0
 12
-0.7375573013340735
 22
4.821701708267494
 32
0
 13
-0.7375573013340735
 23
4.821701708267494
 33
0
  0
SOLID
  5
DD
100
AcDbEntity
  8
DIM
  6
ByBlock
 62
    0
370
   -2
100
AcDbTrace
 10
-0.7999999999999994
 20
8.546701708267495
 30
0
 11
-0.7375573013340733
 21
8.171701708267495
 31
0
 12
-0.8624426986659255
 22
8.171701708267495
 32
0
 13
-0.8624426986659255
 23
8.171701708267495
 33
0
  0
MTEXT
  5
DE
100
AcDbEntity
  8
DIM
  6
CONTINUOUS
 62
    0
370
   -2
100
AcDbMText
 10
-1.081249999999999
 20
6.496701708267494
 30
0
 40
0.375
 41
1.145833333333333
 71
    5
 72
    1
  1
4,100
  7
standard
210
0
220
0
230
1
 50
90
 73
    2
 44
1
  0
LINE
  5
DF
100
AcDbEntity
  8
DIM
  6
ByBlock
 62
    0
370
   -2
100
AcDbLine
 10
0.2399384690621283
 20
4.446701708267494
 11
-0.9874999999999996
 21
4.446701708267494
  0
LINE
  5
E0
100
AcDbEntity
  8
DIM
  6
ByBlock
 62
    0
370
   -2
100
AcDbLine
 10
0.2399384690621283
 20
8.546701708267495
 11
-0.9874999999999994
 21
8.546701708267495
  0
ENDBLK
  5
6A
330
68
100
AcDbEntity
  8
0
100
AcDbBlockEnd
  0
BLOCK
  5
6C
330
6B
100
AcDbEntity
  8
0
100
AcDbBlockBegin
  2
*D18
 70
    1
 10
0
 20
0
  3
*D18
  1

  0
LINE
  5
E1
100
AcDbEntity
  8
DIM
  6
ByBlock
 62
    0
370
   -2
100
AcDbLine
 10
11.3
 20
0.2751774497150996
 11
11.3
 21
2.725177449715098
  0
SOLID
  5
E2
100
AcDbEntity
  8
DIM
  6
ByBlock
 62
    0
370
   -2
100
AcDbTrace
 10
11.3
 20
0.2751774497150996
 30
0
 11
11.23755730133407
 21
0.6501774497150996
 31
0
 12
11.36244269866593
 22
0.6501774497150996
 32
0
 13
11.36244269866593
 23
0.6501774497150996
 33
0
  0
SOLID
  5
E3
100
AcDbEntity
  8
DIM
  6
ByBlock
 62
    0
370
   -2
100
AcDbTrace
 10
11.3
 20
2.725177449715098
 30
0
 11
11.36244269866593
 21
2.350177449715098
 31
0
 12
11.23755730133407
 22
2.350177449715098
 32
0
 13
11.23755730133407
 23
2.350177449715098
 33
0
  0
MTEXT
  5
E4
100
AcDbEntity
  8
DIM
  6
CONTINUOUS
 62
    0
370
   -2
100
AcDbMText
 10
11.01875
 20
1.500177449715099
 30
0
 40
0.375
 41
1.22916666666669
 71
    5
 72
    1
  1
2,450
  7
standard
210
0
220
0
230
1
 50
90
 73
    2
 44
1
  0
LINE
  5
E5
100
AcDbEntity
  8
DIM
  6
ByBlock
 62
    0
370
   -2
100
AcDbLine
 10
11.66452648898478
 20
0.2751774497150999
 11
11.1125
 21
0.2751774497150996
  0
LINE
  5
E6
100
AcDbEntity
  8
DIM
  6
ByBlock
 62
    0
370
   -2
100
AcDbLine
 10
11.66452648898478
 20
2.725177449715098
 11
11.1125
 21
2.725177449715098
  0
ENDBLK
  5
6D
330
6B
100
AcDbEntity
  8
0
100
AcDbBlockEnd
  0
BLOCK
  5
6F
330
6E
100
AcDbEntity
  8
0
100
AcDbBlockBegin
  2
*D8
 70
    1
 10
0
 20
0
  3
*D8
  1

  0
LINE
  5
E7
100
AcDbEntity
  8
DIM
  6
ByBlock
 62
    0
370
   -2
100
AcDbLine
 10
-2.600000000000001
 20
0
 11
-2.6
 21
9.522603441815125
  0
SOLID
  5
E8
100
AcDbEntity
  8
DIM
  6
ByBlock
 62
    0
370
   -2
100
AcDbTrace
 10
-2.600000000000001
 20
0
 30
0
 11
-2.662442698665926
 21
0.375
 31
0
 12
-2.537557301334074
 22
0.375
 32
0
 13
-2.537557301334074
 23
0.375
 33
0
  0
SOLID
  5
E9
100
AcDbEntity
  8
DIM
  6
ByBlock
 62
    0
370
   -2
100
AcDbTrace
 10
-2.6
 20
9.522603441815125
 30
0
 11
-2.537557301334074
 21
9.147603441815125
 31
0
 12
-2.662442698665926
 22
9.147603441815125
 32
0
 13
-2.662442698665926
 23
9.147603441815125
 33
0
  0
MTEXT
  5
EA
100
AcDbEntity
  8
DIM
  6
CONTINUOUS
 62
    0
370
   -2
100
AcDbMText
 10
-2.88125
 20
4.761301720907563
 30
0
 40
0.375
 41
1.18750000000007
 71
    5
 72
    1
  1
9,523
  7
standard
210
0
220
0
230
1
 50
90
 73
    2
 44
1
  0
LINE
  5
EB
100
AcDbEntity
  8
DIM
  6
ByBlock
 62
    0
370
   -2
100
AcDbLine
 10
-0.09374999999999822
 20
6.699221497326426e-17
 11
-2.787500000000001
 21
2.296212748401287e-17
  0
LINE
  5
EC
100
AcDbEntity
  8
DIM
  6
ByBlock
 62
    0
370
   -2
100
AcDbLine
 10
0.500904749531793
 20
9.522603441815125
 11
-2.7875
 21
9.522603441815125
  0
ENDBLK
  5
70
330
6E
100
AcDbEntity
  8
0
100
AcDbBlockEnd
  0
BLOCK
  5
72
330
71
100
AcDbEntity
  8
0
100
AcDbBlockBegin
  2
*D5
 70
    1
 10
0
 20
0
  3
*D5
  1

  0
LINE
  5
ED
100
AcDbEntity
  8
DIM
  6
CONTINUOUS
 62
    7
370
    0
100
AcDbLine
 10
7.151079078066928
 20
11.34176520446099
 11
7.650885680297413
 21
11.51477518215616
  0
LINE
  5
EE
100
AcDbEntity
  8
DIM
  6
CONTINUOUS
 62
    7
370
    0
100
AcDbLine
 10
7.650885680297413
 20
11.51477518215616
 11
8.304478929368045
 21
11.47632852044612
  0
SOLID
  5
EF
100
AcDbEntity
  8
DIM
  6
CONTINUOUS
 62
    7
370
    0
100
AcDbTrace
 10
7.151079078066928
 20
11.34176520446099
 30
0
 11
7.485023189236026
 21
11.52343914654451
 31
0
 12
7.525874521978023
 22
11.40542418528985
 32
0
 13
7.525874521978023
 23
11.40542418528985
 33
0
  0
ENDBLK
  5
73
330
71
100
AcDbEntity
  8
0
100
AcDbBlockEnd
  0
BLOCK
  5
75
330
74
100
AcDbEntity
  8
0
100
AcDbBlockBegin
  2
*D9
 70
    1
 10
0
 20
0
  3
*D9
  1

  0
LINE
  5
F0
100
AcDbEntity
  8
DIM
  6
ByBlock
 62
    0
370
   -2
100
AcDbLine
 10
-2.6
 20
9.522603441815125
 11
-2.6
 21
11.20551758103911
  0
SOLID
  5
F1
100
AcDbEntity
  8
DIM
  6
ByBlock
 62
    0
370
   -2
100
AcDbTrace
 10
-2.6
 20
9.522603441815125
 30
0
 11
-2.662442698665926
 21
9.897603441815125
 31
0
 12
-2.537557301334074
 22
9.897603441815125
 32
0
 13
-2.537557301334074
 23
9.897603441815125
 33
0
  0
SOLID
  5
F2
100
AcDbEntity
  8
DIM
  6
ByBlock
 62
    0
370
   -2
100
AcDbTrace
 10
-2.6
 20
11.20551758103911
 30
0
 11
-2.537557301334074
 21
10.83051758103911
 31
0
 12
-2.662442698665926
 22
10.83051758103911
 32
0
 13
-2.662442698665926
 23
10.83051758103911
 33
0
  0
MTEXT
  5
F3
100
AcDbEntity
  8
DIM
  6
CONTINUOUS
 62
    0
370
   -2
100
AcDbMText
 10
-2.88125
 20
10.36406051142712
 30
0
 40
0.375
 41
1.104166666666713
 71
    5
 72
    1
  1
1,683
  7
standard
210
0
220
0
230
1
 50
90
 73
    2
 44
1
  0
LINE
  5
F4
100
AcDbEntity
  8
DIM
  6
ByBlock
 62
    0
370
   -2
100
AcDbLine
 10
0.500904749531793
 20
9.522603441815125
 11
-2.7875
 21
9.522603441815125
  0
LINE
  5
F5
100
AcDbEntity
  8
DIM
  6
ByBlock
 62
    0
370
   -2
100
AcDbLine
 10
2.183818888755776
 20
11.20551758103911
 11
-2.7875
 21
11.20551758103911
  0
ENDBLK
  5
76
330
74
100
AcDbEntity
  8
0
100
AcDbBlockEnd
  0
BLOCK
  5
78
330
77
100
AcDbEntity
  8
0
100
AcDbBlockBegin
  2
*D3
 70
    1
 10
0
 20
0
  3
*D3
  1

  0
LINE
  5
F6
100
AcDbEntity
  8
DIM
  6
CONTINUOUS
 62
    7
370
    0
100
AcDbLine
 10
7.672862453531598
 20
5.561338289962825
 11
8.579925650557621
 21
4.684014869888476
  0
LINE
  5
F7
100
AcDbEntity
  8
DIM
  6
CONTINUOUS
 62
    7
370
    0
100
AcDbLine
 10
8.579925650557621
 20
4.684014869888476
 11
8.594795539033457
 21
3.925650557620818
  0
SOLID
  5
F8
100
AcDbEntity
  8
DIM
  6
CONTINUOUS
 62
    7
370
    0
100
AcDbTrace
 10
7.672862453531598
 20
5.561338289962825
 30
0
 11
7.985821211784082
 21
5.345512188089704
 31
0
 12
7.898997746958886
 22
5.255745554965348
 32
0
 13
7.898997746958886
 23
5.255745554965348
 33
0
  0
ENDBLK
  5
79
330
77
100
AcDbEntity
  8
0
100
AcDbBlockEnd
  0
BLOCK
  5
7B
330
7A
100
AcDbEntity
  8
0
100
AcDbBlockBegin
  2
*D11
 70
    1
 10
0
 20
0
  3
*D11
  1

  0
LINE
  5
F9
100
AcDbEntity
  8
DIM
  6
ByBlock
 62
    0
370
   -2
100
AcDbLine
 10
0.5946547495317926
 20
13
 11
2.277568888755776
 21
13
  0
SOLID
  5
FA
100
AcDbEntity
  8
DIM
  6
ByBlock
 62
    0
370
   -2
100
AcDbTrace
 10
0.5946547495317926
 20
13
 30
0
 11
0.9696547495317926
 21
13.06244269866593
 31
0
 12
0.9696547495317926
 22
12.93755730133407
 32
0
 13
0.9696547495317926
 23
12.93755730133407
 33
0
  0
SOLID
  5
FB
100
AcDbEntity
  8
DIM
  6
ByBlock
 62
    0
370
   -2
100
AcDbTrace
 10
2.277568888755776
 20
13
 30
0
 11
1.902568888755776
 21
12.93755730133407
 31
0
 12
1.902568888755776
 22
13.06244269866593
 32
0
 13
1.902568888755776
 23
13.06244269866593
 33
0
  0
MTEXT
  5
FC
100
AcDbEntity
  8
DIM
  6
CONTINUOUS
 62
    0
370
   -2
100
AcDbMText
 10
1.436111819143784
 20
13.28125
 30
0
 40
0.375
 41
1.104166666666713
 71
    5
 72
    1
  1
1,683
  7
standard
210
0
220
0
230
1
 50
0
 73
    2
 44
1
  0
LINE
  5
FD
100
AcDbEntity
  8
DIM
  6
ByBlock
 62
    0
370
   -2
100
AcDbLine
 10
0.594654749531793
 20
9.616353441815125
 11
0.5946547495317926
 21
13.1875
  0
LINE
  5
FE
100
AcDbEntity
  8
DIM
  6
ByBlock
 62
    0
370
   -2
100
AcDbLine
 10
2.277568888755776
 20
11.29926758103911
 11
2.277568888755776
 21
13.1875
  0
ENDBLK
  5
7C
330
7A
100
AcDbEntity
  8
0
100
AcDbBlockEnd
  0
BLOCK
  5
7E
330
7D
100
AcDbEntity
  8
0
100
AcDbBlockBegin
  2
*D13
 70
    1
 10
0
 20
0
  3
*D13
  1

  0
LINE
  5
FF
100
AcDbEntity
  8
DIM
  6
ByBlock
 62
    0
370
   -2
100
AcDbLine
 10
-0.7999999999999998
 20
0.3250000000000006
 11
-0.7999999999999996
 21
3.925000000000002
  0
SOLID
  5
100
100
AcDbEntity
  8
DIM
  6
ByBlock
 62
    0
370
   -2
100
AcDbTrace
 10
-0.7999999999999998
 20
0.3250000000000006
 30
0
 11
-0.8624426986659258
 21
0.7000000000000006
 31
0
 12
-0.7375573013340737
 22
0.7000000000000006
 32
0
 13
-0.7375573013340737
 23
0.7000000000000006
 33
0
  0
SOLID
  5
101
100
AcDbEntity
  8
DIM
  6
ByBlock
 62
    0
370
   -2
100
AcDbTrace
 10
-0.7999999999999996
 20
3.925000000000002
 30
0
 11
-0.7375573013340735
 21
3.550000000000002
 31
0
 12
-0.8624426986659257
 22
3.550000000000002
 32
0
 13
-0.8624426986659257
 23
3.550000000000002
 33
0
  0
MTEXT
  5
102
100
AcDbEntity
  8
DIM
  6
CONTINUOUS
 62
    0
370
   -2
100
AcDbMText
 10
-1.08125
 20
2.125000000000001
 30
0
 40
0.375
 41
1.187500000000046
 71
    5
 72
    1
  1
3,600
  7
standard
210
0
220
0
230
1
 50
90
 73
    2
 44
1
  0
LINE
  5
103
100
AcDbEntity
  8
DIM
  6
ByBlock
 62
    0
370
   -2
100
AcDbLine
 10
0.2419181164888051
 20
0.3250000000000012
 11
-0.9874999999999998
 21
0.3250000000000006
  0
LINE
  5
104
100
AcDbEntity
  8
DIM
  6
ByBlock
 62
    0
370
   -2
100
AcDbLine
 10
0.2419181164888051
 20
3.925000000000002
 11
-0.9874999999999996
 21
3.925000000000002
  0
ENDBLK
  5
7F
330
7D
100
AcDbEntity
  8
0
100
AcDbBlockEnd
  0
BLOCK
  5
81
330
80
100
AcDbEntity
  8
0
100
AcDbBlockBegin
  2
*D20
 70
    1
 10
0
 20
0
  3
*D20
  1

  0
LINE
  5
105
100
AcDbEntity
  8
DIM
  6
ByBlock
 62
    0
370
   -2
100
AcDbLine
 10
18
 20
0
 11
18
 21
8.484100694267754
  0
SOLID
  5
106
100
AcDbEntity
  8
DIM
  6
ByBlock
 62
    0
370
   -2
100
AcDbTrace
 10
18
 20
0
 30
0
 11
17.93755730133407
 21
0.375
 31
0
 12
18.06244269866593
 22
0.375
 32
0
 13
18.06244269866593
 23
0.375
 33
0
  0
SOLID
  5
107
100
AcDbEntity
  8
DIM
  6
ByBlock
 62
    0
370
   -2
100
AcDbTrace
 10
18
 20
8.484100694267754
 30
0
 11
18.06244269866593
 21
8.109100694267754
 31
0
 12
17.93755730133407
 22
8.109100694267754
 32
0
 13
17.93755730133407
 23
8.109100694267754
 33
0
  0
MTEXT
  5
108
100
AcDbEntity
  8
DIM
  6
CONTINUOUS
 62
    0
370
   -2
100
AcDbMText
 10
17.71875
 20
4.242050347133877
 30
0
 40
0.375
 41
1.270833333333333
 71
    5
 72
    1
  1
8,484
  7
standard
210
0
220
0
230
1
 50
90
 73
    2
 44
1
  0
LINE
  5
109
100
AcDbEntity
  8
DIM
  6
ByBlock
 62
    0
370
   -2
100
AcDbLine
 10
17.09375
 20
0
 11
18.1875
 21
0
  0
LINE
  5
10A
100
AcDbEntity
  8
DIM
  6
ByBlock
 62
    0
370
   -2
100
AcDbLine
 10
9.688044913479958
 20
8.484100694267754
 11
18.1875
 21
8.484100694267754
  0
ENDBLK
  5
82
330
80
100
AcDbEntity
  8
0
100
AcDbBlockEnd
  0
BLOCK
  5
84
330
83
100
AcDbEntity
  8
0
100
AcDbBlockBegin
  2
*D16
 70
    1
 10
0
 20
0
  3
*D16
  1

  0
LINE
  5
10B
100
AcDbEntity
  8
DIM
  6
ByBlock
 62
    0
370
   -2
100
AcDbLine
 10
7.458276488984787
 20
-0.7000000000000002
 11
11.75827648898478
 21
-0.7000000000000002
  0
SOLID
  5
10C
100
AcDbEntity
  8
DIM
  6
ByBlock
 62
    0
370
   -2
100
AcDbTrace
 10
7.458276488984787
 20
-0.7000000000000002
 30
0
 11
7.833276488984787
 21
-0.6375573013340742
 31
0
 12
7.833276488984787
 22
-0.7624426986659263
 32
0
 13
7.833276488984787
 23
-0.7624426986659263
 33
0
  0
SOLID
  5
10D
100
AcDbEntity
  8
DIM
  6
ByBlock
 62
    0
370
   -2
100
AcDbTrace
 10
11.75827648898478
 20
-0.7000000000000002
 30
0
 11
11.38327648898478
 21
-0.7624426986659263
 31
0
 12
11.38327648898478
 22
-0.6375573013340741
 32
0
 13
11.38327648898478
 23
-0.6375573013340741
 33
0
  0
MTEXT
  5
10E
100
AcDbEntity
  8
DIM
  6
CONTINUOUS
 62
    0
370
   -2
100
AcDbMText
 10
9.608276488984785
 20
-0.4187500000000002
 30
0
 40
0.375
 41
1.22916666666669
 71
    5
 72
    1
  1
4,300
  7
standard
210
0
220
0
230
1
 50
0
 73
    2
 44
1
  0
LINE
  5
10F
100
AcDbEntity
  8
DIM
  6
ByBlock
 62
    0
370
   -2
100
AcDbLine
 10
7.458276488984787
 20
0.1814274497150999
 11
7.458276488984787
 21
-0.8875000000000002
  0
LINE
  5
110
100
AcDbEntity
  8
DIM
  6
ByBlock
 62
    0
370
   -2
100
AcDbLine
 10
11.75827648898478
 20
0.1814274497150999
 11
11.75827648898478
 21
-0.8875000000000002
  0
ENDBLK
  5
85
330
83
100
AcDbEntity
  8
0
100
AcDbBlockEnd
  0
BLOCK
  5
87
330
86
100
AcDbEntity
  8
0
100
AcDbBlockBegin
  2
*D23
 70
    1
 10
0
 20
0
  3
*D23
  1

  0
LINE
  5
111
100
AcDbEntity
  8
DIM
  6
ByBlock
 62
    0
370
   -2
100
AcDbLine
 10
6
 20
3.696701708267494
 11
6
 21
5.696701708267494
  0
SOLID
  5
112
100
AcDbEntity
  8
DIM
  6
ByBlock
 62
    0
370
   -2
100
AcDbTrace
 10
6
 20
4.446701708267494
 30
0
 11
6.062442698665926
 21
4.071701708267494
 31
0
 12
5.937557301334074
 22
4.071701708267494
 32
0
 13
5.937557301334074
 23
4.071701708267494
 33
0
  0
SOLID
  5
113
100
AcDbEntity
  8
DIM
  6
ByBlock
 62
    0
370
   -2
100
AcDbTrace
 10
6
 20
4.946701708267494
 30
0
 11
5.937557301334074
 21
5.321701708267494
 31
0
 12
6.062442698665926
 22
5.321701708267494
 32
0
 13
6.062442698665926
 23
5.321701708267494
 33
0
  0
MTEXT
  5
114
100
AcDbEntity
  8
DIM
  6
CONTINUOUS
 62
    0
370
   -2
100
AcDbMText
 10
5.71875
 20
5.634201708267505
 30
0
 40
0.375
 41
1.187500000000023
 71
    5
 72
    1
  1
0,500
  7
standard
210
0
220
0
230
1
 50
90
 73
    2
 44
1
  0
LINE
  5
115
100
AcDbEntity
  8
DIM
  6
ByBlock
 62
    0
370
   -2
100
AcDbLine
 10
0.4274384690621283
 20
4.446701708267494
 11
6.1875
 21
4.446701708267494
  0
LINE
  5
116
100
AcDbEntity
  8
DIM
  6
ByBlock
 62
    0
370
   -2
100
AcDbLine
 10
6.839938469062129
 20
4.946701708267494
 11
5.8125
 21
4.946701708267494
  0
ENDBLK
  5
88
330
86
100
AcDbEntity
  8
0
100
AcDbBlockEnd
  0
BLOCK
  5
8A
330
89
100
AcDbEntity
  8
0
100
AcDbBlockBegin
  2
*D4
 70
    1
 10
0
 20
0
  3
*D4
  1

  0
LINE
  5
117
100
AcDbEntity
  8
DIM
  6
ByBlock
 62
    0
370
   -2
100
AcDbLine
 10
9.017606802272686
 20
9.191914103572911
 11
10.17098302468723
 21
7.776287284962597
  0
SOLID
  5
118
100
AcDbEntity
  8
DIM
  6
ByBlock
 62
    0
370
   -2
100
AcDbTrace
 10
9.491337452223895
 20
8.610468258031982
 30
0
 11
9.206062730283403
 21
8.861749820504158
 31
0
 12
9.302881524213181
 22
8.940632541100735
 32
0
 13
9.302881524213181
 23
8.940632541100735
 33
0
  0
SOLID
  5
119
100
AcDbEntity
  8
DIM
  6
ByBlock
 62
    0
370
   -2
100
AcDbTrace
 10
9.697252374736021
 20
8.357733130503526
 30
0
 11
9.982527096676515
 21
8.10645156803135
 31
0
 12
9.885708302746735
 22
8.027568847434774
 32
0
 13
9.885708302746735
 23
8.027568847434774
 33
0
  0
MTEXT
  5
11A
100
AcDbEntity
  8
DIM
  6
CONTINUOUS
 62
    0
370
   -2
100
AcDbMText
 10
10.34954766260249
 20
8.002390099156026
 30
0
 40
0.375
 41
1.187500000000047
 71
    5
 72
    1
  1
0,326
  7
standard
210
0
220
0
230
1
 50
309.1712867166298
 73
    2
 44
1
  0
ENDBLK
  5
8B
330
89
100
AcDbEntity
  8
0
100
AcDbBlockEnd
  0
BLOCK
  5
8D
330
8C
100
AcDbEntity
  8
0
100
AcDbBlockBegin
  2
*D17
 70
    1
 10
0
 20
0
  3
*D17
  1

  0
LINE
  5
11B
100
AcDbEntity
  8
DIM
  6
ByBlock
 62
    0
370
   -2
100
AcDbLine
 10
12.6
 20
5.775177449715098
 11
12.6
 21
0.2751774497150998
  0
SOLID
  5
11C
100
AcDbEntity
  8
DIM
  6
ByBlock
 62
    0
370
   -2
100
AcDbTrace
 10
12.6
 20
5.775177449715098
 30
0
 11
12.66244269866593
 21
5.400177449715098
 31
0
 12
12.53755730133407
 22
5.400177449715098
 32
0
 13
12.53755730133407
 23
5.400177449715098
 33
0
  0
SOLID
  5
11D
100
AcDbEntity
  8
DIM
  6
ByBlock
 62
    0
370
   -2
100
AcDbTrace
 10
12.6
 20
0.2751774497150998
 30
0
 11
12.53755730133407
 21
0.6501774497150998
 31
0
 12
12.66244269866593
 22
0.6501774497150998
 32
0
 13
12.66244269866593
 23
0.6501774497150998
 33
0
  0
MTEXT
  5
11E
100
AcDbEntity
  8
DIM
  6
CONTINUOUS
 62
    0
370
   -2
100
AcDbMText
 10
12.31875
 20
3.025177449715099
 30
0
 40
0.375
 41
1.187500000000046
 71
    5
 72
    1
  1
5,500
  7
standard
210
0
220
0
230
1
 50
90
 73
    2
 44
1
  0
LINE
  5
11F
100
AcDbEntity
  8
DIM
  6
ByBlock
 62
    0
370
   -2
100
AcDbLine
 10
11.85202648898478
 20
5.775177449715098
 11
12.7875
 21
5.775177449715098
  0
LINE
  5
120
100
AcDbEntity
  8
DIM
  6
ByBlock
 62
    0
370
   -2
100
AcDbLine
 10
11.85202648898478
 20
0.2751774497150999
 11
12.7875
 21
0.2751774497150998
  0
ENDBLK
  5
8E
330
8C
100
AcDbEntity
  8
0
100
AcDbBlockEnd
  0
BLOCK
  5
90
330
8F
100
AcDbEntity
  8
0
100
AcDbBlockBegin
  2
*D2
 70
    1
 10
0
 20
0
  3
*D2
  1

  0
LINE
  5
121
100
AcDbEntity
  8
DIM
  6
CONTINUOUS
 62
    7
370
    0
100
AcDbLine
 10
0.4148698884758366
 20
3.734944237918215
 11
0.8148698884758366
 21
3.234944237918215
  0
LINE
  5
122
100
AcDbEntity
  8
DIM
  6
CONTINUOUS
 62
    7
370
    0
100
AcDbLine
 10
0.8148698884758366
 20
3.234944237918215
 11
0.8148698884758366
 21
3.234944237918215
  0
LINE
  5
123
100
AcDbEntity
  8
DIM
  6
CONTINUOUS
 62
    7
370
    0
100
AcDbLine
 10
0.8148698884758366
 20
3.234944237918215
 11
1.214869888475837
 21
3.234944237918215
  0
LINE
  5
124
100
AcDbEntity
  8
DIM
  6
CONTINUOUS
 62
    7
370
    0
100
AcDbLine
 10
1.214869888475837
 20
3.234944237918215
 11
1.214869888475837
 21
3.234944237918215
  0
LINE
  5
125
100
AcDbEntity
  8
DIM
  6
CONTINUOUS
 62
    7
370
    0
100
AcDbLine
 10
1.214869888475837
 20
3.234944237918215
 11
1.214869888475837
 21
3.234944237918215
  0
LINE
  5
126
100
AcDbEntity
  8
DIM
  6
CONTINUOUS
 62
    7
370
    0
100
AcDbLine
 10
1.214869888475837
 20
3.234944237918215
 11
1.214869888475837
 21
3.234944237918215
  0
SOLID
  5
127
100
AcDbEntity
  8
DIM
  6
CONTINUOUS
 62
    7
370
    0
100
AcDbTrace
 10
0.4148698884758366
 20
3.734944237918215
 30
0
 11
0.6978900870744174
 21
3.481126078989616
 31
0
 12
0.6003709755430742
 22
3.403110789764541
 32
0
 13
0.6003709755430742
 23
3.403110789764541
 33
0
  0
ENDBLK
  5
91
330
8F
100
AcDbEntity
  8
0
100
AcDbBlockEnd
  0
BLOCK
  5
93
330
92
100
AcDbEntity
  8
0
100
AcDbBlockBegin
  2
*D12
 70
    1
 10
0
 20
0
  3
*D12
  1

  0
LINE
  5
128
100
AcDbEntity
  8
DIM
  6
ByBlock
 62
    0
370
   -2
100
AcDbLine
 10
0.5946547495317933
 20
14
 11
2.94465474953179
 21
14
  0
SOLID
  5
129
100
AcDbEntity
  8
DIM
  6
ByBlock
 62
    0
370
   -2
100
AcDbTrace
 10
0.5946547495317933
 20
14
 30
0
 11
0.9696547495317933
 21
14.06244269866593
 31
0
 12
0.9696547495317933
 22
13.93755730133407
 32
0
 13
0.9696547495317933
 23
13.93755730133407
 33
0
  0
SOLID
  5
12A
100
AcDbEntity
  8
DIM
  6
ByBlock
 62
    0
370
   -2
100
AcDbTrace
 10
2.94465474953179
 20
14
 30
0
 11
2.56965474953179
 21
13.93755730133407
 31
0
 12
2.56965474953179
 22
14.06244269866593
 32
0
 13
2.56965474953179
 23
14.06244269866593
 33
0
  0
MTEXT
  5
12B
100
AcDbEntity
  8
DIM
  6
CONTINUOUS
 62
    0
370
   -2
100
AcDbMText
 10
1.769654749531791
 20
14.28125
 30
0
 40
0.375
 41
1.187500000000047
 71
    5
 72
    1
  1
2,350
  7
standard
210
0
220
0
230
1
 50
0
 73
    2
 44
1
  0
LINE
  5
12C
100
AcDbEntity
  8
DIM
  6
ByBlock
 62
    0
370
   -2
100
AcDbLine
 10
0.594654749531793
 20
9.616353441815125
 11
0.5946547495317933
 21
14.1875
  0
LINE
  5
12D
100
AcDbEntity
  8
DIM
  6
ByBlock
 62
    0
370
   -2
100
AcDbLine
 10
2.94465474953179
 20
9.616353441815125
 11
2.94465474953179
 21
14.1875
  0
ENDBLK
  5
94
330
92
100
AcDbEntity
  8
0
100
AcDbBlockEnd
  0
BLOCK
  5
96
330
95
100
AcDbEntity
  8
0
100
AcDbBlockBegin
  2
TOROID
 70
    0
 10
0
 20
0
  3
TOROID
  1

  0
CIRCLE
  5
12E
100
AcDbEntity
  8
0
  6
ByLayer
 62
  256
370
   -1
100
AcDbCircle
 10
0
 20
0
 40
2.375
  0
CIRCLE
  5
12F
100
AcDbEntity
  8
0
  6
ByLayer
 62
  256
370
   -1
100
AcDbCircle
 10
0
 20
0
 40
0.163
  0
ENDBLK
  5
97
330
95
100
AcDbEntity
  8
0
100
AcDbBlockEnd
  0
BLOCK
  5
99
330
98
100
AcDbEntity
  8
0
100
AcDbBlockBegin
  2
hammond
 70
    0
 10
0
 20
0
  3
hammond
  1

  0
CIRCLE
  5
130
100
AcDbEntity
  8
0
  6
ByLayer
 62
  256
370
   -1
100
AcDbCircle
 10
-1.231034482758621
 20
0
 40
0.075
  0
CIRCLE
  5
131
100
AcDbEntity
  8
0
  6
ByLayer
 62
  256
370
   -1
100
AcDbCircle
 10
1.148965517241379
 20
0
 40
0.075
  0
LINE
  5
132
100
AcDbEntity
  8
0
  6
ByLayer
 62
  256
370
   -1
100
AcDbLine
 10
-0.625
 20
0.8150000000000013
 11
0.6250000000000004
 21
0.8150000000000013
  0
LINE
  5
133
100
AcDbEntity
  8
0
  6
ByLayer
 62
  256
370
   -1
100
AcDbLine
 10
-0.625
 20
-0.8149999999999995
 11
0.6250000000000004
 21
-0.8150000000000013
  0
LINE
  5
134
100
AcDbEntity
  8
0
  6
ByLayer
 62
  256
370
   -1
100
AcDbLine
 10
-0.625
 20
-0.8149999999999977
 11
-0.625
 21
0.8150000000000013
  0
LINE
  5
135
100
AcDbEntity
  8
0
  6
ByLayer
 62
  256
370
   -1
100
AcDbLine
 10
0.6250000000000004
 20
-0.8149999999999995
 11
0.6250000000000004
 21
0.8150000000000013
  0
LINE
  5
136
100
AcDbEntity
  8
0
  6
ByLayer
 62
  256
370
   -1
100
AcDbLine
 10
-1.405
 20
0.4059999999999988
 11
1.405
 21
0.4059999999999988
  0
LINE
  5
137
100
AcDbEntity
  8
0
  6
ByLayer
 62
  256
370
   -1
100
AcDbLine
 10
-1.405
 20
-0.4060000000000006
 11
1.405
 21
-0.4060000000000006
  0
LINE
  5
138
100
AcDbEntity
  8
0
  6
ByLayer
 62
  256
370
   -1
100
AcDbLine
 10
1.405
 20
0.4059999999999988
 11
1.405
 21
-0.4060000000000006
  0
LINE
  5
139
100
AcDbEntity
  8
0
  6
ByLayer
 62
  256
370
   -1
100
AcDbLine
 10
-1.405
 20
0.4059999999999988
 11
-1.405
 21
-0.4060000000000006
  0
CIRCLE
  5
13A
100
AcDbEntity
  8
0
  6
ByLayer
 62
  256
370
   -1
100
AcDbCircle
 10
0
 20
0
 40
0.075
  0
ENDBLK
  5
9A
330
98
100
AcDbEntity
  8
0
100
AcDbBlockEnd
  0
BLOCK
  5
9C
330
9B
100
AcDbEntity
  8
0
100
AcDbBlockBegin
  2
PSU
 70
    0
 10
0
 20
0
  3
PSU
  1

  0
LINE
  5
13B
100
AcDbEntity
  8
BLACK
  6
CONTINUOUS
 62
  256
370
   -1
100
AcDbLine
 10
7.000000000000001
 20
4.50196850393701
 11
7.00139192913386
 21
4.50139192913386
  0
LINE
  5
13C
100
AcDbEntity
  8
BLACK
  6
CONTINUOUS
 62
  256
370
   -1
100
AcDbLine
 10
7.00139192913386
 20
4.50139192913386
 11
7.00196850393701
 21
4.500000000000001
  0
LINE
  5
13D
100
AcDbEntity
  8
BLACK
  6
CONTINUOUS
 62
  256
370
   -1
100
AcDbLine
 10
7.00196850393701
 20
4.500000000000001
 11
7.00196850393701
 21
-8.881784197001252e-16
  0
LINE
  5
13E
100
AcDbEntity
  8
BLACK
  6
CONTINUOUS
 62
  256
370
   -1
100
AcDbLine
 10
7.00196850393701
 20
-8.881784197001252e-16
 11
7.00139192913386
 21
-0.00139192913385866
  0
LINE
  5
13F
100
AcDbEntity
  8
BLACK
  6
CONTINUOUS
 62
  256
370
   -1
100
AcDbLine
 10
7.00139192913386
 20
-0.00139192913385866
 11
7.000000000000001
 21
-0.001968503937007426
  0
LINE
  5
140
100
AcDbEntity
  8
BLACK
  6
CONTINUOUS
 62
  256
370
   -1
100
AcDbLine
 10
7.000000000000001
 20
-0.001968503937007426
 11
8.881784197001252e-16
 21
-0.001968503937007426
  0
LINE
  5
141
100
AcDbEntity
  8
BLACK
  6
CONTINUOUS
 62
  256
370
   -1
100
AcDbLine
 10
8.881784197001252e-16
 20
-0.001968503937007426
 11
-0.001391929133856884
 21
-0.00139192913385866
  0
LINE
  5
142
100
AcDbEntity
  8
BLACK
  6
CONTINUOUS
 62
  256
370
   -1
100
AcDbLine
 10
-0.001391929133856884
 20
-0.00139192913385866
 11
-0.001968503937006538
 21
-8.881784197001252e-16
  0
LINE
  5
143
100
AcDbEntity
  8
BLACK
  6
CONTINUOUS
 62
  256
370
   -1
100
AcDbLine
 10
-0.001968503937006538
 20
-8.881784197001252e-16
 11
-0.001968503937006538
 21
4.500000000000001
  0
LINE
  5
144
100
AcDbEntity
  8
BLACK
  6
CONTINUOUS
 62
  256
370
   -1
100
AcDbLine
 10
-0.001968503937006538
 20
4.500000000000001
 11
-0.001391929133856884
 21
4.50139192913386
  0
LINE
  5
145
100
AcDbEntity
  8
BLACK
  6
CONTINUOUS
 62
  256
370
   -1
100
AcDbLine
 10
-0.001391929133856884
 20
4.50139192913386
 11
8.881784197001252e-16
 21
4.50196850393701
  0
LINE
  5
146
100
AcDbEntity
  8
BLACK
  6
CONTINUOUS
 62
  256
370
   -1
100
AcDbLine
 10
8.881784197001252e-16
 20
4.50196850393701
 11
7.000000000000001
 21
4.50196850393701
  0
LINE
  5
147
100
AcDbEntity
  8
BLACK
  6
CONTINUOUS
 62
  256
370
   -1
100
AcDbLine
 10
0.001968503937009203
 20
4.49803149606299
 11
0.001968503937009203
 21
0.001968503937007426
  0
LINE
  5
148
100
AcDbEntity
  8
BLACK
  6
CONTINUOUS
 62
  256
370
   -1
100
AcDbLine
 10
0.001968503937009203
 20
0.001968503937007426
 11
6.998031496062992
 21
0.001968503937007426
  0
LINE
  5
149
100
AcDbEntity
  8
BLACK
  6
CONTINUOUS
 62
  256
370
   -1
100
AcDbLine
 10
6.998031496062992
 20
0.001968503937007426
 11
6.998031496062992
 21
4.49803149606299
  0
LINE
  5
14A
100
AcDbEntity
  8
BLACK
  6
CONTINUOUS
 62
  256
370
   -1
100
AcDbLine
 10
6.998031496062992
 20
4.49803149606299
 11
0.001968503937009203
 21
4.49803149606299
  0
CIRCLE
  5
14B
100
AcDbEntity
  8
BLACK
  6
ByLayer
 62
  256
370
   -1
100
AcDbCircle
 10
6.800000000000002
 20
0.6999999999999993
 40
0.0846456692913386
  0
CIRCLE
  5
14C
100
AcDbEntity
  8
BLACK
  6
ByLayer
 62
  256
370
   -1
100
AcDbCircle
 10
0.2000000000000011
 20
0.1999999999999993
 40
0.0846456692913386
  0
CIRCLE
  5
14D
100
AcDbEntity
  8
BLACK
  6
ByLayer
 62
  256
370
   -1
100
AcDbCircle
 10
0.2000000000000011
 20
4.3
 40
0.0846456692913386
  0
CIRCLE
  5
14E
100
AcDbEntity
  8
BLACK
  6
ByLayer
 62
  256
370
   -1
100
AcDbCircle
 10
6.800000000000002
 20
4.3
 40
0.0846456692913386
  0
ENDBLK
  5
9D
330
9B
100
AcDbEntity
  8
0
100
AcDbBlockEnd
  0
BLOCK
  5
9F
330
9E
100
AcDbEntity
  8
0
100
AcDbBlockBegin
  2
hammond-0
 70
    0
 10
0
 20
0
  3
hammond-0
  1

  0
CIRCLE
  5
14F
100
AcDbEntity
  8
0
  6
ByLayer
 62
  256
370
   -1
100
AcDbCircle
 10
-1.231034482758621
 20
0
 40
0.075
  0
CIRCLE
  5
150
100
AcDbEntity
  8
0
  6
ByLayer
 62
  256
370
   -1
100
AcDbCircle
 10
1.148965517241379
 20
0
 40
0.075
  0
LINE
  5
151
100
AcDbEntity
  8
0
  6
ByLayer
 62
  256
370
   -1
100
AcDbLine
 10
-0.625
 20
0.8150000000000013
 11
0.6250000000000004
 21
0.8150000000000013
  0
LINE
  5
152
100
AcDbEntity
  8
0
  6
ByLayer
 62
  256
370
   -1
100
AcDbLine
 10
-0.625
 20
-0.8149999999999995
 11
0.6250000000000004
 21
-0.8150000000000013
  0
LINE
  5
153
100
AcDbEntity
  8
0
  6
ByLayer
 62
  256
370
   -1
100
AcDbLine
 10
-0.625
 20
-0.8149999999999977
 11
-0.625
 21
0.8150000000000013
  0
LINE
  5
154
100
AcDbEntity
  8
0
  6
ByLayer
 62
  256
370
   -1
100
AcDbLine
 10
0.6250000000000004
 20
-0.8149999999999995
 11
0.6250000000000004
 21
0.8150000000000013
  0
LINE
  5
155
100
AcDbEntity
  8
0
  6
ByLayer
 62
  256
370
   -1
100
AcDbLine
 10
-1.405
 20
0.4059999999999988
 11
1.405
 21
0.4059999999999988
  0
LINE
  5
156
100
AcDbEntity
  8
0
  6
ByLayer
 62
  256
370
   -1
100
AcDbLine
 10
-1.405
 20
-0.4060000000000006
 11
1.405
 21
-0.4060000000000006
  0
LINE
  5
157
100
AcDbEntity
  8
0
  6
ByLayer
 62
  256
370
   -1
100
AcDbLine
 10
1.405
 20
0.4059999999999988
 11
1.405
 21
-0.4060000000000006
  0
LINE
  5
158
100
AcDbEntity
  8
0
  6
ByLayer
 62
  256
370
   -1
100
AcDbLine
 10
-1.405
 20
0.4059999999999988
 11
-1.405
 21
-0.4060000000000006
  0
CIRCLE
  5
159
100
AcDbEntity
  8
0
  6
ByLayer
 62
  256
370
   -1
100
AcDbCircle
 10
0
 20
0
 40
0.075
  0
ENDBLK
  5
A0
330
9E
100
AcDbEntity
  8
0
100
AcDbBlockEnd
  0
BLOCK
  5
A2
330
A1
100
AcDbEntity
  8
0
100
AcDbBlockBegin
  2
CPU
 70
    0
 10
0
 20
0
  3
CPU
  1

  0
LINE
  5
15A
100
AcDbEntity
  8
BLACK
  6
CONTINUOUS
 62
  256
370
   -1
100
AcDbLine
 10
4.600008310330211
 20
5.801955772809209
 11
4.601400239464071
 21
5.80137919800606
  0
LINE
  5
15B
100
AcDbEntity
  8
BLACK
  6
CONTINUOUS
 62
  256
370
   -1
100
AcDbLine
 10
4.601400239464071
 20
5.80137919800606
 11
4.60197681426722
 21
5.799987268872202
  0
LINE
  5
15C
100
AcDbEntity
  8
BLACK
  6
CONTINUOUS
 62
  256
370
   -1
100
AcDbLine
 10
4.60197681426722
 20
5.799987268872202
 11
4.60197681426722
 21
-1.273112779831553e-05
  0
LINE
  5
15D
100
AcDbEntity
  8
BLACK
  6
CONTINUOUS
 62
  256
370
   -1
100
AcDbLine
 10
4.60197681426722
 20
-1.273112779831553e-05
 11
4.601400239464071
 21
-0.001404660261656115
  0
LINE
  5
15E
100
AcDbEntity
  8
BLACK
  6
CONTINUOUS
 62
  256
370
   -1
100
AcDbLine
 10
4.601400239464071
 20
-0.001404660261656115
 11
4.600008310330211
 21
-0.001981235064806616
  0
LINE
  5
15F
100
AcDbEntity
  8
BLACK
  6
CONTINUOUS
 62
  256
370
   -1
100
AcDbLine
 10
4.600008310330211
 20
-0.001981235064806616
 11
8.310330213312511e-06
 21
-0.001981235064806616
  0
LINE
  5
160
100
AcDbEntity
  8
BLACK
  6
CONTINUOUS
 62
  256
370
   -1
100
AcDbLine
 10
8.310330213312511e-06
 20
-0.001981235064806616
 11
-0.00138361880364446
 21
-0.001404660261656115
  0
LINE
  5
161
100
AcDbEntity
  8
BLACK
  6
CONTINUOUS
 62
  256
370
   -1
100
AcDbLine
 10
-0.00138361880364446
 20
-0.001404660261656115
 11
-0.001960193606794114
 21
-1.273112779831553e-05
  0
LINE
  5
162
100
AcDbEntity
  8
BLACK
  6
CONTINUOUS
 62
  256
370
   -1
100
AcDbLine
 10
-0.001960193606794114
 20
-1.273112779831553e-05
 11
-0.001960193606794114
 21
5.799987268872202
  0
LINE
  5
163
100
AcDbEntity
  8
BLACK
  6
CONTINUOUS
 62
  256
370
   -1
100
AcDbLine
 10
-0.001960193606794114
 20
5.799987268872202
 11
-0.00138361880364446
 21
5.80137919800606
  0
LINE
  5
164
100
AcDbEntity
  8
BLACK
  6
CONTINUOUS
 62
  256
370
   -1
100
AcDbLine
 10
-0.00138361880364446
 20
5.80137919800606
 11
8.310330213312511e-06
 21
5.801955772809209
  0
LINE
  5
165
100
AcDbEntity
  8
BLACK
  6
CONTINUOUS
 62
  256
370
   -1
100
AcDbLine
 10
8.310330213312511e-06
 20
5.801955772809209
 11
4.600008310330211
 21
5.801955772809209
  0
LINE
  5
166
100
AcDbEntity
  8
BLACK
  6
CONTINUOUS
 62
  256
370
   -1
100
AcDbLine
 10
0.001976814267220739
 20
5.798018764935193
 11
0.001976814267220739
 21
0.001955772809209083
  0
LINE
  5
167
100
AcDbEntity
  8
BLACK
  6
CONTINUOUS
 62
  256
370
   -1
100
AcDbLine
 10
0.001976814267220739
 20
0.001955772809209083
 11
4.5980398063932
 21
0.001955772809209083
  0
LINE
  5
168
100
AcDbEntity
  8
BLACK
  6
CONTINUOUS
 62
  256
370
   -1
100
AcDbLine
 10
4.5980398063932
 20
0.001955772809209083
 11
4.5980398063932
 21
5.798018764935193
  0
LINE
  5
169
100
AcDbEntity
  8
BLACK
  6
CONTINUOUS
 62
  256
370
   -1
100
AcDbLine
 10
4.5980398063932
 20
5.798018764935193
 11
0.001976814267220739
 21
5.798018764935193
  0
CIRCLE
  5
16A
100
AcDbEntity
  8
BLACK
  6
ByLayer
 62
  256
370
   -1
100
AcDbCircle
 10
0.1500083103302137
 20
0.1499872688722028
 40
0.062992125984252
  0
CIRCLE
  5
16B
100
AcDbEntity
  8
BLACK
  6
ByLayer
 62
  256
370
   -1
100
AcDbCircle
 10
0.1500083103302137
 20
5.649987268872201
 40
0.062992125984252
  0
CIRCLE
  5
16C
100
AcDbEntity
  8
BLACK
  6
ByLayer
 62
  256
370
   -1
100
AcDbCircle
 10
4.450008310330211
 20
5.649987268872201
 40
0.062992125984252
  0
CIRCLE
  5
16D
100
AcDbEntity
  8
BLACK
  6
ByLayer
 62
  256
370
   -1
100
AcDbCircle
 10
4.450008310330211
 20
0.1499872688722028
 40
0.062992125984252
  0
CIRCLE
  5
16E
100
AcDbEntity
  8
BLACK
  6
ByLayer
 62
  256
370
   -1
100
AcDbCircle
 10
0.1500083103302137
 20
2.599987268872201
 40
0.062992125984252
  0
CIRCLE
  5
16F
100
AcDbEntity
  8
BLACK
  6
ByLayer
 62
  256
370
   -1
100
AcDbCircle
 10
4.450008310330211
 20
2.599987268872201
 40
0.062992125984252
  0
ENDBLK
  5
A3
330
A1
100
AcDbEntity
  8
0
100
AcDbBlockEnd
  0
BLOCK
  5
A5
330
A4
100
AcDbEntity
  8
0
100
AcDbBlockBegin
  2
AMP
 70
    0
 10
0
 20
0
  3
AMP
  1

  0
LINE
  5
170
100
AcDbEntity
  8
BLACK
  6
CONTINUOUS
 62
  256
370
   -1
100
AcDbLine
 10
7
 20
4.003937007874016
 11
7.001391929133858
 21
4.003360433070865
  0
LINE
  5
171
100
AcDbEntity
  8
BLACK
  6
CONTINUOUS
 62
  256
370
   -1
100
AcDbLine
 10
7.001391929133858
 20
4.003360433070865
 11
7.001968503937007
 21
4.001968503937007
  0
LINE
  5
172
100
AcDbEntity
  8
BLACK
  6
CONTINUOUS
 62
  256
370
   -1
100
AcDbLine
 10
7.001968503937007
 20
4.001968503937007
 11
7.001968503937007
 21
0.001968503937007385
  0
LINE
  5
173
100
AcDbEntity
  8
BLACK
  6
CONTINUOUS
 62
  256
370
   -1
100
AcDbLine
 10
7.001968503937007
 20
0.001968503937007385
 11
7.001391929133858
 21
0.0005765748031495987
  0
LINE
  5
174
100
AcDbEntity
  8
BLACK
  6
CONTINUOUS
 62
  256
370
   -1
100
AcDbLine
 10
7.001391929133858
 20
0.0005765748031495987
 11
7
 21
0
  0
LINE
  5
175
100
AcDbEntity
  8
BLACK
  6
CONTINUOUS
 62
  256
370
   -1
100
AcDbLine
 10
7
 20
0
 11
2.775557561562891e-17
 21
0
  0
LINE
  5
176
100
AcDbEntity
  8
BLACK
  6
CONTINUOUS
 62
  256
370
   -1
100
AcDbLine
 10
2.775557561562891e-17
 20
0
 11
-0.00139192913385798
 21
0.0005765748031495987
  0
LINE
  5
177
100
AcDbEntity
  8
BLACK
  6
CONTINUOUS
 62
  256
370
   -1
100
AcDbLine
 10
-0.00139192913385798
 20
0.0005765748031495987
 11
-0.001968503937008079
 21
0.001968503937007385
  0
LINE
  5
178
100
AcDbEntity
  8
BLACK
  6
CONTINUOUS
 62
  256
370
   -1
100
AcDbLine
 10
-0.001968503937008079
 20
0.001968503937007385
 11
-0.001968503937008079
 21
4.001968503937007
  0
LINE
  5
179
100
AcDbEntity
  8
BLACK
  6
CONTINUOUS
 62
  256
370
   -1
100
AcDbLine
 10
-0.001968503937008079
 20
4.001968503937007
 11
-0.00139192913385798
 21
4.003360433070865
  0
LINE
  5
17A
100
AcDbEntity
  8
BLACK
  6
CONTINUOUS
 62
  256
370
   -1
100
AcDbLine
 10
-0.00139192913385798
 20
4.003360433070865
 11
2.775557561562891e-17
 21
4.003937007874016
  0
LINE
  5
17B
100
AcDbEntity
  8
BLACK
  6
CONTINUOUS
 62
  256
370
   -1
100
AcDbLine
 10
2.775557561562891e-17
 20
4.003937007874016
 11
7
 21
4.003937007874016
  0
LINE
  5
17C
100
AcDbEntity
  8
BLACK
  6
CONTINUOUS
 62
  256
370
   -1
100
AcDbLine
 10
0.00196850393700812
 20
3.999999999999999
 11
0.00196850393700812
 21
0.003937007874015699
  0
LINE
  5
17D
100
AcDbEntity
  8
BLACK
  6
CONTINUOUS
 62
  256
370
   -1
100
AcDbLine
 10
0.00196850393700812
 20
0.003937007874015699
 11
6.998031496062993
 21
0.003937007874015699
  0
LINE
  5
17E
100
AcDbEntity
  8
BLACK
  6
CONTINUOUS
 62
  256
370
   -1
100
AcDbLine
 10
6.998031496062993
 20
0.003937007874015699
 11
6.998031496062993
 21
3.999999999999999
  0
LINE
  5
17F
100
AcDbEntity
  8
BLACK
  6
CONTINUOUS
 62
  256
370
   -1
100
AcDbLine
 10
6.998031496062993
 20
3.999999999999999
 11
0.00196850393700812
 21
3.999999999999999
  0
CIRCLE
  5
180
100
AcDbEntity
  8
BLACK
  6
ByLayer
 62
  256
370
   -1
100
AcDbCircle
 10
0.1999999999999999
 20
0.2019685039370076
 40
0.0885826771653543
  0
CIRCLE
  5
181
100
AcDbEntity
  8
BLACK
  6
ByLayer
 62
  256
370
   -1
100
AcDbCircle
 10
6.799999999999999
 20
3.801968503937008
 40
0.0885826771653543
  0
CIRCLE
  5
182
100
AcDbEntity
  8
BLACK
  6
ByLayer
 62
  256
370
   -1
100
AcDbCircle
 10
6.799999999999999
 20
0.2019685039370076
 40
0.0885826771653543
  0
CIRCLE
  5
183
100
AcDbEntity
  8
BLACK
  6
ByLayer
 62
  256
370
   -1
100
AcDbCircle
 10
0.1999999999999999
 20
3.801968503937008
 40
0.0885826771653543
  0
ENDBLK
  5
A6
330
A4
100
AcDbEntity
  8
0
100
AcDbBlockEnd
  0
BLOCK
  5
A8
330
A7
100
AcDbEntity
  8
0
100
AcDbBlockBegin
  2
CRT
 70
    0
 10
0
 20
0
  3
CRT
  1

  0
LWPOLYLINE
  5
184
100
AcDbEntity
  8
0
  6
ByLayer
 62
  256
370
   -1
100
AcDbPolyline
 90
    4
 70
    1
 43
0
 10
0
 20
-0.063
 10
4.75
 20
-0.063
 10
4.75
 20
0
 10
0
 20
0
  0
LINE
  5
185
100
AcDbEntity
  8
0
  6
ByLayer
 62
  256
370
   -1
100
AcDbLine
 10
0.3750000000000001
 20
-9.563000000000001
 11
0.75
 21
-5.563
  0
LINE
  5
186
100
AcDbEntity
  8
0
  6
ByLayer
 62
  256
370
   -1
100
AcDbLine
 10
3.375
 20
-9.563000000000001
 11
3
 21
-5.563
  0
LINE
  5
187
100
AcDbEntity
  8
0
  6
ByLayer
 62
  256
370
   -1
100
AcDbLine
 10
0.3750000000000001
 20
-9.563000000000001
 11
3.375
 21
-9.563000000000001
  0
LINE
  5
188
100
AcDbEntity
  8
0
  6
ByLayer
 62
  256
370
   -1
100
AcDbLine
 10
0.75
 20
-9.563000000000001
 11
3
 21
-9.563000000000001
  0
LINE
  5
189
100
AcDbEntity
  8
0
  6
ByLayer
 62
  256
370
   -1
100
AcDbLine
 10
3
 20
-0.063
 11
0.75
 21
-0.063
  0
LINE
  5
18A
100
AcDbEntity
  8
0
  6
ByLayer
 62
  256
370
   -1
100
AcDbLine
 10
0.75
 20
-0.063
 11
0.75
 21
-5.563000000000001
  0
LINE
  5
18B
100
AcDbEntity
  8
0
  6
ByLayer
 62
  256
370
   -1
100
AcDbLine
 10
3
 20
-5.563000000000001
 11
3
 21
-0.063
  0
ENDBLK
  5
A9
330
A7
100
AcDbEntity
  8
0
100
AcDbBlockEnd
  0
ENDSEC
  0
SECTION
  2
ENTITIES
  0
INSERT
  5
18C
100
AcDbEntity
  8
0
  6
ByLayer
 62
  256
370
   -1
100
AcDbBlockReference
  2
AMP
 10
0.1356681164888052
 20
0.1230314960629936
 30
0
 41
1
 42
1
 43
0
 50
0
 70
    1
 71
    1
 44
0
 45
0
  0
INSERT
  5
18D
100
AcDbEntity
  8
chassis
  6
ByLayer
 62
  256
370
   -1
100
AcDbBlockReference
  2
CPU
 10
7.308268178654574
 20
0.1251901808428971
 30
0
 41
1
 42
1
 43
0
 50
0
 70
    1
 71
    1
 44
0
 45
0
  0
INSERT
  5
18E
100
AcDbEntity
  8
0
  6
ByLayer
 62
  256
370
   -1
100
AcDbBlockReference
  2
CRT
 10
12.02580879070083
 20
9.788476921152133
 30
0
 41
1
 42
1
 43
0
 50
0
 70
    1
 71
    1
 44
0
 45
0
  0
INSERT
  5
18F
100
AcDbEntity
  8
0
  6
ByLayer
 62
  256
370
   -1
100
AcDbBlockReference
  2
TOROID
 10
9.594294913479958
 20
8.484100694267754
 30
0
 41
1
 42
1
 43
0
 50
0
 70
    1
 71
    1
 44
0
 45
0
  0
LWPOLYLINE
  5
190
100
AcDbEntity
  8
chassis
  6
ByLayer
 62
  256
370
   -1
100
AcDbPolyline
 90
    4
 70
    1
 43
0
 10
1.77635683940025e-15
 20
5.551115123125783e-17
 10
17
 20
5.551115123125783e-17
 10
17
 20
12
 10
1.77635683940025e-15
 20
12
  0
INSERT
  5
191
100
AcDbEntity
  8
0
  6
ByLayer
 62
  256
370
   -1
100
AcDbBlockReference
  2
PSU
 10
0.1336884690621272
 20
4.246701708267494
 30
0
 41
1
 42
1
 43
0
 50
0
 70
    1
 71
    1
 44
0
 45
0
  0
INSERT
  5
192
100
AcDbEntity
  8
0
  6
ByLayer
 62
  256
370
   -1
100
AcDbBlockReference
  2
hammond-0
 10
1.465127580164888
 20
10.39307627244822
 30
0
 41
1
 42
1
 43
0
 50
45
 70
    1
 71
    1
 44
0
 45
0
  0
INSERT
  5
193
100
AcDbEntity
  8
0
  6
ByLayer
 62
  256
370
   -1
100
AcDbBlockReference
  2
hammond-0
 10
3.815127580164885
 20
10.39307627244822
 30
0
 41
1
 42
1
 43
0
 50
45
 70
    1
 71
    1
 44
0
 45
0
  0
INSERT
  5
194
100
AcDbEntity
  8
0
  6
ByLayer
 62
  256
370
   -1
100
AcDbBlockReference
  2
hammond-0
 10
6.165127580164887
 20
10.39307627244822
 30
0
 41
1
 42
1
 43
0
 50
45
 70
    1
 71
    1
 44
0
 45
0
  0
LEADER
  5
195
100
AcDbEntity
  8
DIM
  6
ByLayer
 62
  256
370
   -1
100
AcDbLeader
  3
Standard
 71
    1
 72
    0
 73
    3
 74
    0
 75
    0
 40
1
 41
10
 76
7
 76
7
 10
0.4000000000000001
 20
8.300000000000001
 30
0
 10
0.8000000000000002
 20
7.800000000000001
 30
0
 10
0.8000000000000002
 20
7.800000000000001
 30
0
 10
1.2
 20
7.800000000000001
 30
0
 10
1.2
 20
7.800000000000001
 30
0
 10
1.2
 20
7.800000000000001
 30
0
 10
1.2
 20
7.800000000000001
 30
0
  0
MTEXT
  5
196
100
AcDbEntity
  8
DIM
  6
ByLayer
 62
  256
370
   -1
100
AcDbMText
 10
3.2
 20
7.800000000000001
 30
0
 40
0.25
 41
3.42361121190516
 71
    5
 72
    1
  1
8-32 TAP (8 places)
  7
standard
210
0
220
0
230
1
 50
0
 73
    2
 44
1
  0
MTEXT
  5
197
100
AcDbEntity
  8
DIM
  6
ByLayer
 62
  256
370
   -1
100
AcDbMText
 10
3.2
 20
3.500000000000001
 30
0
 40
0.25
 41
3.42361121190516
 71
    5
 72
    1
  1
8-32 TAP (8 places)
  7
standard
210
0
220
0
230
1
 50
0
 73
    2
 44
1
  0
LEADER
  5
198
100
AcDbEntity
  8
DIM
  6
ByLayer
 62
  256
370
   -1
100
AcDbLeader
  3
Standard
 71
    1
 72
    0
 73
    3
 74
    0
 75
    0
 40
1
 41
10
 76
7
 76
7
 10
0.4148698884758366
 20
3.734944237918215
 30
0
 10
0.8148698884758366
 20
3.234944237918215
 30
0
 10
0.8148698884758366
 20
3.234944237918215
 30
0
 10
1.214869888475837
 20
3.234944237918215
 30
0
 10
1.214869888475837
 20
3.234944237918215
 30
0
 10
1.214869888475837
 20
3.234944237918215
 30
0
 10
1.214869888475837
 20
3.234944237918215
 30
0
  0
MTEXT
  5
199
100
AcDbEntity
  8
DIM
  6
ByLayer
 62
  256
370
   -1
100
AcDbMText
 10
9.605947955390334
 20
3.345724907063197
 30
0
 40
0.25
 41
3.479166767460716
 71
    5
 72
    1
  1
4-40 TAP (6 places)
  7
standard
210
0
220
0
230
1
 50
0
 73
    2
 44
1
  0
LEADER
  5
19A
100
AcDbEntity
  8
DIM
  6
ByLayer
 62
  256
370
   -1
100
AcDbLeader
  3
Standard
 71
    1
 72
    0
 73
    3
 74
    0
 75
    0
 40
1
 41
10
 76
3
 76
3
 10
7.672862453531598
 20
5.561338289962825
 30
0
 10
8.579925650557621
 20
4.684014869888476
 30
0
 10
8.594795539033457
 20
3.925650557620818
 30
0
  0
DIMENSION
  5
19B
100
AcDbEntity
  8
DIM
  6
ByLayer
 62
  256
370
   -1
100
AcDbDimension
  2
*D4
 10
9.491337452223895
 20
8.610468258031982
 30
0
 11
9.812337105557805
 21
8.661749687999457
 31
0
 70
   35
 71
    5
  3
Standard
 53
0
210
0
220
0
230
1
100
AcDbDiametricDimension
 15
9.697252374736021
 25
8.357733130503526
 35
0
 40
0
  0
MTEXT
  5
19C
100
AcDbEntity
  8
DIM
  6
ByLayer
 62
  256
370
   -1
100
AcDbMText
 10
10.41189591078067
 20
11.41338289962825
 30
0
 40
0.25
 41
3.423611211905175
 71
    5
 72
    1
  1
8-32 TAP (6 places)
  7
standard
210
0
220
0
230
1
 50
0
 73
    2
 44
1
  0
LEADER
  5
19D
100
AcDbEntity
  8
DIM
  6
ByLayer
 62
  256
370
   -1
100
AcDbLeader
  3
Standard
 71
    1
 72
    0
 73
    3
 74
    0
 75
    0
 40
1
 41
10
 76
3
 76
3
 10
7.151079078066928
 20
11.34176520446099
 30
0
 10
7.650885680297413
 20
11.51477518215616
 30
0
 10
8.304478929368045
 20
11.47632852044612
 30
0
  0
DIMENSION
  5
19E
100
AcDbEntity
  8
DIM
  6
ByLayer
 62
  256
370
   -1
100
AcDbDimension
  2
*D6
 10
-0.1957440336140938
 20
0.3250000000000012
 30
0
 11
-0.4769940336140938
 21
0.1625000000000007
 31
0
 70
   32
 71
    5
  3
Standard
 53
0
210
0
220
0
230
1
100
AcDbAlignedDimension
 13
1.77635683940025e-15
 23
5.551115123125783e-17
 33
0
 14
0.3356681164888051
 24
0.3250000000000012
 34
0
 50
90
100
AcDbRotatedDimension
  0
DIMENSION
  5
19F
100
AcDbEntity
  8
DIM
  6
ByLayer
 62
  256
370
   -1
100
AcDbDimension
  2
*D7
 10
-1.4
 20
4.446701708267494
 30
0
 11
-1.68125
 21
2.223350854133747
 31
0
 70
   32
 71
    5
  3
Standard
 53
0
210
0
220
0
230
1
100
AcDbAlignedDimension
 13
1.77635683940025e-15
 23
5.551115123125783e-17
 33
0
 14
0.3336884690621283
 24
4.446701708267494
 34
0
 50
90
100
AcDbRotatedDimension
  0
DIMENSION
  5
1A0
100
AcDbEntity
  8
DIM
  6
ByLayer
 62
  256
370
   -1
100
AcDbDimension
  2
*D8
 10
-2.6
 20
9.522603441815125
 30
0
 11
-2.88125
 21
4.761301720907563
 31
0
 70
   32
 71
    5
  3
Standard
 53
0
210
0
220
0
230
1
100
AcDbAlignedDimension
 13
1.77635683940025e-15
 23
5.551115123125783e-17
 33
0
 14
0.594654749531793
 24
9.522603441815125
 34
0
 50
90
100
AcDbRotatedDimension
  0
DIMENSION
  5
1A1
100
AcDbEntity
  8
DIM
  6
ByLayer
 62
  256
370
   -1
100
AcDbDimension
  2
*D9
 10
-2.6
 20
11.20551758103911
 30
0
 11
-2.88125
 21
10.36406051142712
 31
0
 70
   32
 71
    5
  3
Standard
 53
0
210
0
220
0
230
1
100
AcDbAlignedDimension
 13
0.594654749531793
 23
9.522603441815125
 33
0
 14
2.277568888755776
 24
11.20551758103911
 34
0
 50
90
100
AcDbRotatedDimension
  0
DIMENSION
  5
1A2
100
AcDbEntity
  8
DIM
  6
ByLayer
 62
  256
370
   -1
100
AcDbDimension
  2
*D10
 10
0.5946547495317931
 20
12.2
 30
0
 11
0.2973273747658973
 21
12.48125
 31
0
 70
   32
 71
    5
  3
Standard
 53
0
210
0
220
0
230
1
100
AcDbAlignedDimension
 13
1.77635683940025e-15
 23
12
 33
0
 14
0.594654749531793
 24
9.522603441815125
 34
0
100
AcDbRotatedDimension
  0
DIMENSION
  5
1A3
100
AcDbEntity
  8
DIM
  6
ByLayer
 62
  256
370
   -1
100
AcDbDimension
  2
*D11
 10
2.277568888755776
 20
13
 30
0
 11
1.436111819143784
 21
13.28125
 31
0
 70
   32
 71
    5
  3
Standard
 53
0
210
0
220
0
230
1
100
AcDbAlignedDimension
 13
0.594654749531793
 23
9.522603441815125
 33
0
 14
2.277568888755776
 24
11.20551758103911
 34
0
100
AcDbRotatedDimension
  0
DIMENSION
  5
1A4
100
AcDbEntity
  8
DIM
  6
ByLayer
 62
  256
370
   -1
100
AcDbDimension
  2
*D12
 10
2.94465474953179
 20
14
 30
0
 11
1.769654749531791
 21
14.28125
 31
0
 70
   32
 71
    5
  3
Standard
 53
0
210
0
220
0
230
1
100
AcDbAlignedDimension
 13
0.594654749531793
 23
9.522603441815125
 33
0
 14
2.94465474953179
 24
9.522603441815125
 34
0
100
AcDbRotatedDimension
  0
DIMENSION
  5
1A5
100
AcDbEntity
  8
DIM
  6
ByLayer
 62
  256
370
   -1
100
AcDbDimension
  2
*D13
 10
-0.7999999999999996
 20
3.925000000000002
 30
0
 11
-1.08125
 21
2.125000000000001
 31
0
 70
   32
 71
    5
  3
Standard
 53
0
210
0
220
0
230
1
100
AcDbAlignedDimension
 13
0.3356681164888051
 23
0.3250000000000012
 33
0
 14
0.3356681164888051
 24
3.925000000000002
 34
0
 50
90
100
AcDbRotatedDimension
  0
DIMENSION
  5
1A6
100
AcDbEntity
  8
DIM
  6
ByLayer
 62
  256
370
   -1
100
AcDbDimension
  2
*D14
 10
-0.7999999999999994
 20
8.546701708267495
 30
0
 11
-1.081249999999999
 21
6.496701708267494
 31
0
 70
   32
 71
    5
  3
Standard
 53
0
210
0
220
0
230
1
100
AcDbAlignedDimension
 13
0.3336884690621283
 23
4.446701708267494
 33
0
 14
0.3336884690621283
 24
8.546701708267495
 34
0
 50
90
100
AcDbRotatedDimension
  0
DIMENSION
  5
1A7
100
AcDbEntity
  8
DIM
  6
ByLayer
 62
  256
370
   -1
100
AcDbDimension
  2
*D15
 10
6.935668116488804
 20
-0.7000000000000003
 30
0
 11
3.635668116488805
 21
-0.4187500000000003
 31
0
 70
   32
 71
    5
  3
Standard
 53
0
210
0
220
0
230
1
100
AcDbAlignedDimension
 13
0.3356681164888051
 23
0.3250000000000012
 33
0
 14
6.935668116488804
 24
0.3250000000000012
 34
0
100
AcDbRotatedDimension
  0
DIMENSION
  5
1A8
100
AcDbEntity
  8
DIM
  6
ByLayer
 62
  256
370
   -1
100
AcDbDimension
  2
*D16
 10
11.75827648898478
 20
-0.7000000000000002
 30
0
 11
9.608276488984785
 21
-0.4187500000000002
 31
0
 70
   32
 71
    5
  3
Standard
 53
0
210
0
220
0
230
1
100
AcDbAlignedDimension
 13
7.458276488984787
 23
0.2751774497150999
 33
0
 14
11.75827648898478
 24
0.2751774497150999
 34
0
100
AcDbRotatedDimension
  0
DIMENSION
  5
1A9
100
AcDbEntity
  8
DIM
  6
ByLayer
 62
  256
370
   -1
100
AcDbDimension
  2
*D17
 10
12.6
 20
0.2751774497150998
 30
0
 11
12.31875
 21
3.025177449715099
 31
0
 70
   32
 71
    5
  3
Standard
 53
0
210
0
220
0
230
1
100
AcDbAlignedDimension
 13
11.75827648898478
 23
5.775177449715098
 33
0
 14
11.75827648898478
 24
0.2751774497150999
 34
0
 50
90
100
AcDbRotatedDimension
  0
DIMENSION
  5
1AA
100
AcDbEntity
  8
DIM
  6
ByLayer
 62
  256
370
   -1
100
AcDbDimension
  2
*D18
 10
11.3
 20
2.725177449715098
 30
0
 11
11.01875
 21
1.500177449715099
 31
0
 70
   32
 71
    5
  3
Standard
 53
0
210
0
220
0
230
1
100
AcDbAlignedDimension
 13
11.75827648898478
 23
0.2751774497150999
 33
0
 14
11.75827648898478
 24
2.725177449715098
 34
0
 50
90
100
AcDbRotatedDimension
  0
DIMENSION
  5
1AB
100
AcDbEntity
  8
DIM
  6
ByLayer
 62
  256
370
   -1
100
AcDbDimension
  2
*D19
 10
9.594294913479958
 20
15
 30
0
 11
4.864285550417453
 21
15.28125
 31
0
 70
   32
 71
    5
  3
Standard
 53
0
210
0
220
0
230
1
100
AcDbAlignedDimension
 13
0.1342761873549472
 23
0.1236080708661432
 33
0
 14
9.594294913479958
 24
8.484100694267754
 34
0
100
AcDbRotatedDimension
  0
DIMENSION
  5
1AC
100
AcDbEntity
  8
DIM
  6
ByLayer
 62
  256
370
   -1
100
AcDbDimension
  2
*D20
 10
18
 20
8.484100694267752
 30
0
 11
17.71875
 21
4.242050347133877
 31
0
 70
   32
 71
    5
  3
Standard
 53
0
210
0
220
0
230
1
100
AcDbAlignedDimension
 13
17
 23
0
 33
0
 14
9.594294913479958
 24
8.484100694267754
 34
0
 50
90
100
AcDbRotatedDimension
  0
DIMENSION
  5
1AD
100
AcDbEntity
  8
DIM
  6
ByLayer
 62
  256
370
   -1
100
AcDbDimension
  2
*D21
 10
7.991543234897446
 20
10.19154323489744
 30
0
 11
6.951212383076731
 21
9.548959947494167
 31
0
 70
   33
 71
    5
  3
Standard
 53
0
210
0
220
0
230
1
100
AcDbAlignedDimension
 13
5.294654749531792
 23
9.522603441815125
 33
0
 14
6.977568888755775
 24
11.20551758103911
 34
0
  0
DIMENSION
  5
1AE
100
AcDbEntity
  8
DIM
  6
ByLayer
 62
  256
370
   -1
100
AcDbDimension
  2
*D22
 10
6.933688469062129
 20
6
 30
0
 11
3.633688469062129
 21
6.28125
 31
0
 70
   32
 71
    5
  3
Standard
 53
0
210
0
220
0
230
1
100
AcDbAlignedDimension
 13
0.3336884690621283
 23
4.446701708267494
 33
0
 14
6.933688469062129
 24
4.946701708267494
 34
0
100
AcDbRotatedDimension
  0
DIMENSION
  5
1AF
100
AcDbEntity
  8
DIM
  6
ByLayer
 62
  256
370
   -1
100
AcDbDimension
  2
*D23
 10
6
 20
4.946701708267494
 30
0
 11
5.71875
 21
4.696701708267494
 31
0
 70
   32
 71
    5
  3
Standard
 53
0
210
0
220
0
230
1
100
AcDbAlignedDimension
 13
0.3336884690621283
 23
4.446701708267494
 33
0
 14
6.933688469062129
 24
4.946701708267494
 34
0
 50
90
100
AcDbRotatedDimension
  0
ENDSEC
  0
SECTION
  2
OBJECTS
  0
DICTIONARY
  5
C
330
0
100
AcDbDictionary
281
    1
  3
ACAD_GROUP
350
D
  0
DICTIONARY
  5
D
330
C
100
AcDbDictionary
281
    1
  0
ENDSEC
  0
EOF
