  0
SECTION
  2
HEADER
  9
$ANGBASE
  50
0.0
  9
$ANGDIR
  70
1
  9
$MEASUREMENT
  70
0
  0
ENDSEC
  0
SECTION
  2
TABLES
  0
TABLE
  2
LTYPE
  70
4
  0
LTYPE
  5
40F
  2
CONTINUOUS
  70
0
  3
Solid line
  72
65
  73
0
  40
0.0
  0
LTYPE
  5
410
  2
DASHDOT
 70
0
  3
Dash Dot ____ _ ____ _
 72
65
 73
4
 40
2.0
 49
1.25
 49
-0.25
 49
0.25
 49
-0.25
  0
LTYPE
  5
411
  2
DASHED
 70
0
  3
Dashed __ __ __ __ __
 72
65
 73
2
 40
0.75
 49
0.5
 49
-0.25
  0
LTYPE
  5
43B
  2
DOTTED
 70
0
  3
Dotted .  .  .  .
 72
65
 73
2
 40
0.2
 49
0.0
 49
-0.2
  0
ENDTAB
  0
TABLE
  2
STYLE
  70
4
  0
STYLE
  2
KICAD
  70
0
  40
0
  41
1
  42
1
  50
0
  71
0
  3
isocp.shx
  0
STYLE
  2
KICADB
  70
0
  40
0
  41
1
  42
1
  50
0
  71
0
  3
isocp.shx
  0
STYLE
  2
KICADI
  70
0
  40
0
  41
1
  42
1
  50
15
  71
0
  3
isocp.shx
  0
STYLE
  2
KICADBI
  70
0
  40
0
  41
1
  42
1
  50
15
  71
0
  3
isocp.shx
  0
ENDTAB
  0
TABLE
  2
LAYER
  70
1
  0
LAYER
  2
BLACK
  70
0
  62
7
  6
CONTINUOUS
  0
ENDTAB
  0
ENDSEC
  0
SECTION
  2
ENTITIES
0
LINE
8
BLACK
6
CONTINUOUS
10
3.9185
20
-2.1685
11
3.9185
21
-2.2315
0
LINE
8
BLACK
6
CONTINUOUS
10
3.9185
20
-2.2315
11
3.9815
21
-2.2315
0
LINE
8
BLACK
6
CONTINUOUS
10
3.9815
20
-2.2315
11
3.9815
21
-2.1685
0
LINE
8
BLACK
6
CONTINUOUS
10
3.9815
20
-2.1685
11
3.9185
21
-2.1685
0
ARC
8
BLACK
10
4.55
20
-3.5
40
0.0314961
50
180
51
360
0
ARC
8
BLACK
10
4.55
20
-3.5
40
0.0314961
50
0
51
180
0
ARC
8
BLACK
10
3.95
20
-2.3
40
0.0314961
50
180
51
360
0
ARC
8
BLACK
10
3.95
20
-2.3
40
0.0314961
50
0
51
180
0
ARC
8
BLACK
10
4.55
20
-3.4
40
0.0314961
50
180
51
360
0
ARC
8
BLACK
10
4.55
20
-3.4
40
0.0314961
50
0
51
180
0
ARC
8
BLACK
10
3.95
20
-2.4
40
0.0314961
50
180
51
360
0
ARC
8
BLACK
10
3.95
20
-2.4
40
0.0314961
50
0
51
180
0
ARC
8
BLACK
10
4.55
20
-3.3
40
0.0314961
50
180
51
360
0
ARC
8
BLACK
10
4.55
20
-3.3
40
0.0314961
50
0
51
180
0
ARC
8
BLACK
10
3.95
20
-2.5
40
0.0314961
50
180
51
360
0
ARC
8
BLACK
10
3.95
20
-2.5
40
0.0314961
50
0
51
180
0
ARC
8
BLACK
10
4.55
20
-3.2
40
0.0314961
50
180
51
360
0
ARC
8
BLACK
10
4.55
20
-3.2
40
0.0314961
50
0
51
180
0
ARC
8
BLACK
10
3.95
20
-2.6
40
0.0314961
50
180
51
360
0
ARC
8
BLACK
10
3.95
20
-2.6
40
0.0314961
50
0
51
180
0
ARC
8
BLACK
10
4.55
20
-3.1
40
0.0314961
50
180
51
360
0
ARC
8
BLACK
10
4.55
20
-3.1
40
0.0314961
50
0
51
180
0
ARC
8
BLACK
10
3.95
20
-2.7
40
0.0314961
50
180
51
360
0
ARC
8
BLACK
10
3.95
20
-2.7
40
0.0314961
50
0
51
180
0
ARC
8
BLACK
10
4.55
20
-3
40
0.0314961
50
180
51
360
0
ARC
8
BLACK
10
4.55
20
-3
40
0.0314961
50
0
51
180
0
ARC
8
BLACK
10
3.95
20
-2.8
40
0.0314961
50
180
51
360
0
ARC
8
BLACK
10
3.95
20
-2.8
40
0.0314961
50
0
51
180
0
ARC
8
BLACK
10
4.55
20
-2.9
40
0.0314961
50
180
51
360
0
ARC
8
BLACK
10
4.55
20
-2.9
40
0.0314961
50
0
51
180
0
ARC
8
BLACK
10
3.95
20
-2.9
40
0.0314961
50
180
51
360
0
ARC
8
BLACK
10
3.95
20
-2.9
40
0.0314961
50
0
51
180
0
ARC
8
BLACK
10
4.55
20
-2.8
40
0.0314961
50
180
51
360
0
ARC
8
BLACK
10
4.55
20
-2.8
40
0.0314961
50
0
51
180
0
ARC
8
BLACK
10
3.95
20
-3
40
0.0314961
50
180
51
360
0
ARC
8
BLACK
10
3.95
20
-3
40
0.0314961
50
0
51
180
0
ARC
8
BLACK
10
4.55
20
-2.7
40
0.0314961
50
180
51
360
0
ARC
8
BLACK
10
4.55
20
-2.7
40
0.0314961
50
0
51
180
0
ARC
8
BLACK
10
3.95
20
-3.1
40
0.0314961
50
180
51
360
0
ARC
8
BLACK
10
3.95
20
-3.1
40
0.0314961
50
0
51
180
0
ARC
8
BLACK
10
4.55
20
-2.6
40
0.0314961
50
180
51
360
0
ARC
8
BLACK
10
4.55
20
-2.6
40
0.0314961
50
0
51
180
0
ARC
8
BLACK
10
3.95
20
-3.2
40
0.0314961
50
180
51
360
0
ARC
8
BLACK
10
3.95
20
-3.2
40
0.0314961
50
0
51
180
0
ARC
8
BLACK
10
4.55
20
-2.5
40
0.0314961
50
180
51
360
0
ARC
8
BLACK
10
4.55
20
-2.5
40
0.0314961
50
0
51
180
0
ARC
8
BLACK
10
3.95
20
-3.3
40
0.0314961
50
180
51
360
0
ARC
8
BLACK
10
3.95
20
-3.3
40
0.0314961
50
0
51
180
0
ARC
8
BLACK
10
4.55
20
-2.4
40
0.0314961
50
180
51
360
0
ARC
8
BLACK
10
4.55
20
-2.4
40
0.0314961
50
0
51
180
0
ARC
8
BLACK
10
3.95
20
-3.4
40
0.0314961
50
180
51
360
0
ARC
8
BLACK
10
3.95
20
-3.4
40
0.0314961
50
0
51
180
0
ARC
8
BLACK
10
4.55
20
-2.3
40
0.0314961
50
180
51
360
0
ARC
8
BLACK
10
4.55
20
-2.3
40
0.0314961
50
0
51
180
0
ARC
8
BLACK
10
3.95
20
-3.5
40
0.0314961
50
180
51
360
0
ARC
8
BLACK
10
3.95
20
-3.5
40
0.0314961
50
0
51
180
0
ARC
8
BLACK
10
4.55
20
-2.2
40
0.0314961
50
180
51
360
0
ARC
8
BLACK
10
4.55
20
-2.2
40
0.0314961
50
0
51
180
0
LINE
8
BLACK
6
CONTINUOUS
10
1.9815
20
-1.56575
11
1.9815
21
-1.53425
0
LINE
8
BLACK
6
CONTINUOUS
10
1.9185
20
-1.56575
11
1.9185
21
-1.53425
0
ARC
8
BLACK
10
1.95
20
-1.53425
40
0.0314961
50
360
51
540
0
ARC
8
BLACK
10
1.95
20
-1.56575
40
0.0314961
50
180
51
360
0
LINE
8
BLACK
6
CONTINUOUS
10
2.5815
20
-1.86575
11
2.5815
21
-1.83425
0
LINE
8
BLACK
6
CONTINUOUS
10
2.5185
20
-1.86575
11
2.5185
21
-1.83425
0
ARC
8
BLACK
10
2.55
20
-1.83425
40
0.0314961
50
360
51
540
0
ARC
8
BLACK
10
2.55
20
-1.86575
40
0.0314961
50
180
51
360
0
LINE
8
BLACK
6
CONTINUOUS
10
2.0815
20
-1.56575
11
2.0815
21
-1.53425
0
LINE
8
BLACK
6
CONTINUOUS
10
2.0185
20
-1.56575
11
2.0185
21
-1.53425
0
ARC
8
BLACK
10
2.05
20
-1.53425
40
0.0314961
50
360
51
540
0
ARC
8
BLACK
10
2.05
20
-1.56575
40
0.0314961
50
180
51
360
0
LINE
8
BLACK
6
CONTINUOUS
10
2.4815
20
-1.86575
11
2.4815
21
-1.83425
0
LINE
8
BLACK
6
CONTINUOUS
10
2.4185
20
-1.86575
11
2.4185
21
-1.83425
0
ARC
8
BLACK
10
2.45
20
-1.83425
40
0.0314961
50
360
51
540
0
ARC
8
BLACK
10
2.45
20
-1.86575
40
0.0314961
50
180
51
360
0
LINE
8
BLACK
6
CONTINUOUS
10
2.1815
20
-1.56575
11
2.1815
21
-1.53425
0
LINE
8
BLACK
6
CONTINUOUS
10
2.1185
20
-1.56575
11
2.1185
21
-1.53425
0
ARC
8
BLACK
10
2.15
20
-1.53425
40
0.0314961
50
360
51
540
0
ARC
8
BLACK
10
2.15
20
-1.56575
40
0.0314961
50
180
51
360
0
LINE
8
BLACK
6
CONTINUOUS
10
2.3815
20
-1.86575
11
2.3815
21
-1.83425
0
LINE
8
BLACK
6
CONTINUOUS
10
2.3185
20
-1.86575
11
2.3185
21
-1.83425
0
ARC
8
BLACK
10
2.35
20
-1.83425
40
0.0314961
50
360
51
540
0
ARC
8
BLACK
10
2.35
20
-1.86575
40
0.0314961
50
180
51
360
0
LINE
8
BLACK
6
CONTINUOUS
10
2.2815
20
-1.56575
11
2.2815
21
-1.53425
0
LINE
8
BLACK
6
CONTINUOUS
10
2.2185
20
-1.56575
11
2.2185
21
-1.53425
0
ARC
8
BLACK
10
2.25
20
-1.53425
40
0.0314961
50
360
51
540
0
ARC
8
BLACK
10
2.25
20
-1.56575
40
0.0314961
50
180
51
360
0
LINE
8
BLACK
6
CONTINUOUS
10
2.2815
20
-1.86575
11
2.2815
21
-1.83425
0
LINE
8
BLACK
6
CONTINUOUS
10
2.2185
20
-1.86575
11
2.2185
21
-1.83425
0
ARC
8
BLACK
10
2.25
20
-1.83425
40
0.0314961
50
360
51
540
0
ARC
8
BLACK
10
2.25
20
-1.86575
40
0.0314961
50
180
51
360
0
LINE
8
BLACK
6
CONTINUOUS
10
2.3815
20
-1.56575
11
2.3815
21
-1.53425
0
LINE
8
BLACK
6
CONTINUOUS
10
2.3185
20
-1.56575
11
2.3185
21
-1.53425
0
ARC
8
BLACK
10
2.35
20
-1.53425
40
0.0314961
50
360
51
540
0
ARC
8
BLACK
10
2.35
20
-1.56575
40
0.0314961
50
180
51
360
0
LINE
8
BLACK
6
CONTINUOUS
10
2.1815
20
-1.86575
11
2.1815
21
-1.83425
0
LINE
8
BLACK
6
CONTINUOUS
10
2.1185
20
-1.86575
11
2.1185
21
-1.83425
0
ARC
8
BLACK
10
2.15
20
-1.83425
40
0.0314961
50
360
51
540
0
ARC
8
BLACK
10
2.15
20
-1.86575
40
0.0314961
50
180
51
360
0
LINE
8
BLACK
6
CONTINUOUS
10
2.4815
20
-1.56575
11
2.4815
21
-1.53425
0
LINE
8
BLACK
6
CONTINUOUS
10
2.4185
20
-1.56575
11
2.4185
21
-1.53425
0
ARC
8
BLACK
10
2.45
20
-1.53425
40
0.0314961
50
360
51
540
0
ARC
8
BLACK
10
2.45
20
-1.56575
40
0.0314961
50
180
51
360
0
LINE
8
BLACK
6
CONTINUOUS
10
2.0815
20
-1.86575
11
2.0815
21
-1.83425
0
LINE
8
BLACK
6
CONTINUOUS
10
2.0185
20
-1.86575
11
2.0185
21
-1.83425
0
ARC
8
BLACK
10
2.05
20
-1.83425
40
0.0314961
50
360
51
540
0
ARC
8
BLACK
10
2.05
20
-1.86575
40
0.0314961
50
180
51
360
0
LINE
8
BLACK
6
CONTINUOUS
10
2.5815
20
-1.56575
11
2.5815
21
-1.53425
0
LINE
8
BLACK
6
CONTINUOUS
10
2.5185
20
-1.56575
11
2.5185
21
-1.53425
0
ARC
8
BLACK
10
2.55
20
-1.53425
40
0.0314961
50
360
51
540
0
ARC
8
BLACK
10
2.55
20
-1.56575
40
0.0314961
50
180
51
360
0
LINE
8
BLACK
6
CONTINUOUS
10
1.9185
20
-1.89724
11
1.9815
21
-1.89724
0
LINE
8
BLACK
6
CONTINUOUS
10
1.9815
20
-1.89724
11
1.9815
21
-1.80276
0
LINE
8
BLACK
6
CONTINUOUS
10
1.9815
20
-1.80276
11
1.9185
21
-1.80276
0
LINE
8
BLACK
6
CONTINUOUS
10
1.9185
20
-1.80276
11
1.9185
21
-1.89724
0
ARC
8
BLACK
10
3.6
20
-2.2
40
0.0314961
50
180
51
360
0
ARC
8
BLACK
10
3.6
20
-2.2
40
0.0314961
50
0
51
180
0
ARC
8
BLACK
10
3
20
-3.5
40
0.0314961
50
180
51
360
0
ARC
8
BLACK
10
3
20
-3.5
40
0.0314961
50
0
51
180
0
ARC
8
BLACK
10
3.6
20
-2.3
40
0.0314961
50
180
51
360
0
ARC
8
BLACK
10
3.6
20
-2.3
40
0.0314961
50
0
51
180
0
ARC
8
BLACK
10
3
20
-3.4
40
0.0314961
50
180
51
360
0
ARC
8
BLACK
10
3
20
-3.4
40
0.0314961
50
0
51
180
0
ARC
8
BLACK
10
3.6
20
-2.4
40
0.0314961
50
180
51
360
0
ARC
8
BLACK
10
3.6
20
-2.4
40
0.0314961
50
0
51
180
0
ARC
8
BLACK
10
3
20
-3.3
40
0.0314961
50
180
51
360
0
ARC
8
BLACK
10
3
20
-3.3
40
0.0314961
50
0
51
180
0
ARC
8
BLACK
10
3.6
20
-2.5
40
0.0314961
50
180
51
360
0
ARC
8
BLACK
10
3.6
20
-2.5
40
0.0314961
50
0
51
180
0
ARC
8
BLACK
10
3
20
-3.2
40
0.0314961
50
180
51
360
0
ARC
8
BLACK
10
3
20
-3.2
40
0.0314961
50
0
51
180
0
ARC
8
BLACK
10
3.6
20
-2.6
40
0.0314961
50
180
51
360
0
ARC
8
BLACK
10
3.6
20
-2.6
40
0.0314961
50
0
51
180
0
ARC
8
BLACK
10
3
20
-3.1
40
0.0314961
50
180
51
360
0
ARC
8
BLACK
10
3
20
-3.1
40
0.0314961
50
0
51
180
0
ARC
8
BLACK
10
3.6
20
-2.7
40
0.0314961
50
180
51
360
0
ARC
8
BLACK
10
3.6
20
-2.7
40
0.0314961
50
0
51
180
0
ARC
8
BLACK
10
3
20
-3
40
0.0314961
50
180
51
360
0
ARC
8
BLACK
10
3
20
-3
40
0.0314961
50
0
51
180
0
ARC
8
BLACK
10
3.6
20
-2.8
40
0.0314961
50
180
51
360
0
ARC
8
BLACK
10
3.6
20
-2.8
40
0.0314961
50
0
51
180
0
ARC
8
BLACK
10
3
20
-2.9
40
0.0314961
50
180
51
360
0
ARC
8
BLACK
10
3
20
-2.9
40
0.0314961
50
0
51
180
0
ARC
8
BLACK
10
3.6
20
-2.9
40
0.0314961
50
180
51
360
0
ARC
8
BLACK
10
3.6
20
-2.9
40
0.0314961
50
0
51
180
0
ARC
8
BLACK
10
3
20
-2.8
40
0.0314961
50
180
51
360
0
ARC
8
BLACK
10
3
20
-2.8
40
0.0314961
50
0
51
180
0
ARC
8
BLACK
10
3.6
20
-3
40
0.0314961
50
180
51
360
0
ARC
8
BLACK
10
3.6
20
-3
40
0.0314961
50
0
51
180
0
ARC
8
BLACK
10
3
20
-2.7
40
0.0314961
50
180
51
360
0
ARC
8
BLACK
10
3
20
-2.7
40
0.0314961
50
0
51
180
0
ARC
8
BLACK
10
3.6
20
-3.1
40
0.0314961
50
180
51
360
0
ARC
8
BLACK
10
3.6
20
-3.1
40
0.0314961
50
0
51
180
0
ARC
8
BLACK
10
3
20
-2.6
40
0.0314961
50
180
51
360
0
ARC
8
BLACK
10
3
20
-2.6
40
0.0314961
50
0
51
180
0
ARC
8
BLACK
10
3.6
20
-3.2
40
0.0314961
50
180
51
360
0
ARC
8
BLACK
10
3.6
20
-3.2
40
0.0314961
50
0
51
180
0
ARC
8
BLACK
10
3
20
-2.5
40
0.0314961
50
180
51
360
0
ARC
8
BLACK
10
3
20
-2.5
40
0.0314961
50
0
51
180
0
ARC
8
BLACK
10
3.6
20
-3.3
40
0.0314961
50
180
51
360
0
ARC
8
BLACK
10
3.6
20
-3.3
40
0.0314961
50
0
51
180
0
ARC
8
BLACK
10
3
20
-2.4
40
0.0314961
50
180
51
360
0
ARC
8
BLACK
10
3
20
-2.4
40
0.0314961
50
0
51
180
0
ARC
8
BLACK
10
3.6
20
-3.4
40
0.0314961
50
180
51
360
0
ARC
8
BLACK
10
3.6
20
-3.4
40
0.0314961
50
0
51
180
0
ARC
8
BLACK
10
3
20
-2.3
40
0.0314961
50
180
51
360
0
ARC
8
BLACK
10
3
20
-2.3
40
0.0314961
50
0
51
180
0
ARC
8
BLACK
10
3.6
20
-3.5
40
0.0314961
50
180
51
360
0
ARC
8
BLACK
10
3.6
20
-3.5
40
0.0314961
50
0
51
180
0
LINE
8
BLACK
6
CONTINUOUS
10
2.9685
20
-2.1685
11
2.9685
21
-2.2315
0
LINE
8
BLACK
6
CONTINUOUS
10
2.9685
20
-2.2315
11
3.0315
21
-2.2315
0
LINE
8
BLACK
6
CONTINUOUS
10
3.0315
20
-2.2315
11
3.0315
21
-2.1685
0
LINE
8
BLACK
6
CONTINUOUS
10
3.0315
20
-2.1685
11
2.9685
21
-2.1685
0
CIRCLE
8
BLACK
10
5
20
-5.32343
40
0.0314961
0
CIRCLE
8
BLACK
10
5
20
-5.225
40
0.0314961
0
CIRCLE
8
BLACK
10
3.44843
20
-1.2
40
0.0314961
0
CIRCLE
8
BLACK
10
3.35
20
-1.2
40
0.0314961
0
CIRCLE
8
BLACK
10
4.40157
20
-4.375
40
0.0314961
0
CIRCLE
8
BLACK
10
4.5
20
-4.375
40
0.0314961
0
CIRCLE
8
BLACK
10
2.04843
20
-1.35
40
0.0314961
0
CIRCLE
8
BLACK
10
1.95
20
-1.35
40
0.0314961
0
CIRCLE
8
BLACK
10
1.72657
20
-4.425
40
0.0314961
0
CIRCLE
8
BLACK
10
1.825
20
-4.425
40
0.0314961
0
CIRCLE
8
BLACK
10
3.8
20
-1.74843
40
0.0314961
0
CIRCLE
8
BLACK
10
3.8
20
-1.65
40
0.0314961
0
CIRCLE
8
BLACK
10
2.8
20
-1.69843
40
0.0314961
0
CIRCLE
8
BLACK
10
2.8
20
-1.6
40
0.0314961
0
CIRCLE
8
BLACK
10
1.7
20
-3.00157
40
0.0314961
0
CIRCLE
8
BLACK
10
1.7
20
-3.1
40
0.0314961
0
CIRCLE
8
BLACK
10
3.50157
20
-2.05
40
0.0314961
0
CIRCLE
8
BLACK
10
3.6
20
-2.05
40
0.0314961
0
CIRCLE
8
BLACK
10
4.45157
20
-2.05
40
0.0314961
0
CIRCLE
8
BLACK
10
4.55
20
-2.05
40
0.0314961
0
CIRCLE
8
BLACK
10
2.37343
20
-3.15
40
0.0314961
0
CIRCLE
8
BLACK
10
2.275
20
-3.15
40
0.0314961
0
CIRCLE
8
BLACK
10
1.75
20
-1.74843
40
0.0314961
0
CIRCLE
8
BLACK
10
1.75
20
-1.65
40
0.0314961
0
CIRCLE
8
BLACK
10
2.42657
20
-4.425
40
0.0314961
0
CIRCLE
8
BLACK
10
2.525
20
-4.425
40
0.0314961
0
CIRCLE
8
BLACK
10
3.67657
20
-4.375
40
0.0314961
0
CIRCLE
8
BLACK
10
3.775
20
-4.375
40
0.0314961
0
CIRCLE
8
BLACK
10
5.25157
20
-1.55
40
0.0314961
0
CIRCLE
8
BLACK
10
5.35
20
-1.55
40
0.0314961
0
CIRCLE
8
BLACK
10
5.45
20
-4.2
40
0.125984
0
CIRCLE
8
BLACK
10
1.15
20
-4.2
40
0.125984
0
CIRCLE
8
BLACK
10
1.15
20
-6.65
40
0.125984
0
CIRCLE
8
BLACK
10
5.45
20
-6.65
40
0.125984
0
CIRCLE
8
BLACK
10
5.45
20
-1.15
40
0.125984
0
CIRCLE
8
BLACK
10
2.25
20
-1.2
40
0.0314961
0
CIRCLE
8
BLACK
10
2.34843
20
-1.2
40
0.0314961
0
CIRCLE
8
BLACK
10
5.5
20
-5.45
40
0.0354331
0
LINE
8
BLACK
6
CONTINUOUS
10
5.36457
20
-5.41457
11
5.36457
21
-5.48543
0
LINE
8
BLACK
6
CONTINUOUS
10
5.36457
20
-5.48543
11
5.43543
21
-5.48543
0
LINE
8
BLACK
6
CONTINUOUS
10
5.43543
20
-5.48543
11
5.43543
21
-5.41457
0
LINE
8
BLACK
6
CONTINUOUS
10
5.43543
20
-5.41457
11
5.36457
21
-5.41457
0
LINE
8
BLACK
6
CONTINUOUS
10
4.9685
20
-5.0815
11
5.0315
21
-5.0815
0
LINE
8
BLACK
6
CONTINUOUS
10
5.0315
20
-5.0815
11
5.0315
21
-5.0185
0
LINE
8
BLACK
6
CONTINUOUS
10
5.0315
20
-5.0185
11
4.9685
21
-5.0185
0
LINE
8
BLACK
6
CONTINUOUS
10
4.9685
20
-5.0185
11
4.9685
21
-5.0815
0
ARC
8
BLACK
10
5
20
-4.65
40
0.0314961
50
270
51
450
0
ARC
8
BLACK
10
5
20
-4.65
40
0.0314961
50
90
51
270
0
LINE
8
BLACK
6
CONTINUOUS
10
5.36457
20
-4.83957
11
5.36457
21
-4.91043
0
LINE
8
BLACK
6
CONTINUOUS
10
5.36457
20
-4.91043
11
5.43543
21
-4.91043
0
LINE
8
BLACK
6
CONTINUOUS
10
5.43543
20
-4.91043
11
5.43543
21
-4.83957
0
LINE
8
BLACK
6
CONTINUOUS
10
5.43543
20
-4.83957
11
5.36457
21
-4.83957
0
CIRCLE
8
BLACK
10
5.5
20
-4.875
40
0.0354331
0
LINE
8
BLACK
6
CONTINUOUS
10
2.4315
20
-6.5815
11
2.4315
21
-6.5185
0
LINE
8
BLACK
6
CONTINUOUS
10
2.4315
20
-6.5185
11
2.3685
21
-6.5185
0
LINE
8
BLACK
6
CONTINUOUS
10
2.3685
20
-6.5185
11
2.3685
21
-6.5815
0
LINE
8
BLACK
6
CONTINUOUS
10
2.3685
20
-6.5815
11
2.4315
21
-6.5815
0
ARC
8
BLACK
10
2.1
20
-6.55
40
0.0314961
50
360
51
540
0
ARC
8
BLACK
10
2.1
20
-6.55
40
0.0314961
50
180
51
360
0
ARC
8
BLACK
10
1.625
20
-6.55
40
0.0314961
50
360
51
540
0
ARC
8
BLACK
10
1.625
20
-6.55
40
0.0314961
50
180
51
360
0
LINE
8
BLACK
6
CONTINUOUS
10
1.9565
20
-6.5815
11
1.9565
21
-6.5185
0
LINE
8
BLACK
6
CONTINUOUS
10
1.9565
20
-6.5185
11
1.8935
21
-6.5185
0
LINE
8
BLACK
6
CONTINUOUS
10
1.8935
20
-6.5185
11
1.8935
21
-6.5815
0
LINE
8
BLACK
6
CONTINUOUS
10
1.8935
20
-6.5815
11
1.9565
21
-6.5815
0
ARC
8
BLACK
10
5.45
20
-3.45
40
0.0334646
50
180
51
360
0
ARC
8
BLACK
10
5.45
20
-3.45
40
0.0334646
50
0
51
180
0
ARC
8
BLACK
10
5.35
20
-3.45
40
0.0334646
50
180
51
360
0
ARC
8
BLACK
10
5.35
20
-3.45
40
0.0334646
50
0
51
180
0
ARC
8
BLACK
10
5.45
20
-3.35
40
0.0334646
50
180
51
360
0
ARC
8
BLACK
10
5.45
20
-3.35
40
0.0334646
50
0
51
180
0
ARC
8
BLACK
10
5.35
20
-3.35
40
0.0334646
50
180
51
360
0
ARC
8
BLACK
10
5.35
20
-3.35
40
0.0334646
50
0
51
180
0
ARC
8
BLACK
10
5.45
20
-3.25
40
0.0334646
50
180
51
360
0
ARC
8
BLACK
10
5.45
20
-3.25
40
0.0334646
50
0
51
180
0
ARC
8
BLACK
10
5.35
20
-3.25
40
0.0334646
50
180
51
360
0
ARC
8
BLACK
10
5.35
20
-3.25
40
0.0334646
50
0
51
180
0
ARC
8
BLACK
10
5.45
20
-3.15
40
0.0334646
50
180
51
360
0
ARC
8
BLACK
10
5.45
20
-3.15
40
0.0334646
50
0
51
180
0
ARC
8
BLACK
10
5.35
20
-3.15
40
0.0334646
50
180
51
360
0
ARC
8
BLACK
10
5.35
20
-3.15
40
0.0334646
50
0
51
180
0
ARC
8
BLACK
10
5.45
20
-3.05
40
0.0334646
50
180
51
360
0
ARC
8
BLACK
10
5.45
20
-3.05
40
0.0334646
50
0
51
180
0
ARC
8
BLACK
10
5.35
20
-3.05
40
0.0334646
50
180
51
360
0
ARC
8
BLACK
10
5.35
20
-3.05
40
0.0334646
50
0
51
180
0
ARC
8
BLACK
10
5.45
20
-2.95
40
0.0334646
50
180
51
360
0
ARC
8
BLACK
10
5.45
20
-2.95
40
0.0334646
50
0
51
180
0
ARC
8
BLACK
10
5.35
20
-2.95
40
0.0334646
50
180
51
360
0
ARC
8
BLACK
10
5.35
20
-2.95
40
0.0334646
50
0
51
180
0
ARC
8
BLACK
10
5.45
20
-2.85
40
0.0334646
50
180
51
360
0
ARC
8
BLACK
10
5.45
20
-2.85
40
0.0334646
50
0
51
180
0
ARC
8
BLACK
10
5.35
20
-2.85
40
0.0334646
50
180
51
360
0
ARC
8
BLACK
10
5.35
20
-2.85
40
0.0334646
50
0
51
180
0
ARC
8
BLACK
10
5.45
20
-2.75
40
0.0334646
50
180
51
360
0
ARC
8
BLACK
10
5.45
20
-2.75
40
0.0334646
50
0
51
180
0
LINE
8
BLACK
6
CONTINUOUS
10
5.31654
20
-2.71654
11
5.31654
21
-2.78346
0
LINE
8
BLACK
6
CONTINUOUS
10
5.31654
20
-2.78346
11
5.38346
21
-2.78346
0
LINE
8
BLACK
6
CONTINUOUS
10
5.38346
20
-2.78346
11
5.38346
21
-2.71654
0
LINE
8
BLACK
6
CONTINUOUS
10
5.38346
20
-2.71654
11
5.31654
21
-2.71654
0
LINE
8
BLACK
6
CONTINUOUS
10
3.53346
20
-6.14154
11
3.46654
21
-6.14154
0
LINE
8
BLACK
6
CONTINUOUS
10
3.46654
20
-6.14154
11
3.46654
21
-6.20846
0
LINE
8
BLACK
6
CONTINUOUS
10
3.46654
20
-6.20846
11
3.53346
21
-6.20846
0
LINE
8
BLACK
6
CONTINUOUS
10
3.53346
20
-6.20846
11
3.53346
21
-6.14154
0
ARC
8
BLACK
10
3.4
20
-6.175
40
0.0334646
50
450
51
630
0
ARC
8
BLACK
10
3.4
20
-6.175
40
0.0334646
50
270
51
450
0
ARC
8
BLACK
10
3.3
20
-6.175
40
0.0334646
50
450
51
630
0
ARC
8
BLACK
10
3.3
20
-6.175
40
0.0334646
50
270
51
450
0
ARC
8
BLACK
10
3.2
20
-6.175
40
0.0334646
50
450
51
630
0
ARC
8
BLACK
10
3.2
20
-6.175
40
0.0334646
50
270
51
450
0
ARC
8
BLACK
10
3.1
20
-6.175
40
0.0334646
50
450
51
630
0
ARC
8
BLACK
10
3.1
20
-6.175
40
0.0334646
50
270
51
450
0
ARC
8
BLACK
10
3
20
-6.175
40
0.0334646
50
450
51
630
0
ARC
8
BLACK
10
3
20
-6.175
40
0.0334646
50
270
51
450
0
LINE
8
BLACK
6
CONTINUOUS
10
1.74154
20
-6.25846
11
1.80846
21
-6.25846
0
LINE
8
BLACK
6
CONTINUOUS
10
1.80846
20
-6.25846
11
1.80846
21
-6.19154
0
LINE
8
BLACK
6
CONTINUOUS
10
1.80846
20
-6.19154
11
1.74154
21
-6.19154
0
LINE
8
BLACK
6
CONTINUOUS
10
1.74154
20
-6.19154
11
1.74154
21
-6.25846
0
ARC
8
BLACK
10
1.775
20
-6.125
40
0.0334646
50
270
51
450
0
ARC
8
BLACK
10
1.775
20
-6.125
40
0.0334646
50
90
51
270
0
ARC
8
BLACK
10
1.875
20
-6.225
40
0.0334646
50
270
51
450
0
ARC
8
BLACK
10
1.875
20
-6.225
40
0.0334646
50
90
51
270
0
ARC
8
BLACK
10
1.875
20
-6.125
40
0.0334646
50
270
51
450
0
ARC
8
BLACK
10
1.875
20
-6.125
40
0.0334646
50
90
51
270
0
ARC
8
BLACK
10
1.975
20
-6.225
40
0.0334646
50
270
51
450
0
ARC
8
BLACK
10
1.975
20
-6.225
40
0.0334646
50
90
51
270
0
ARC
8
BLACK
10
1.975
20
-6.125
40
0.0334646
50
270
51
450
0
ARC
8
BLACK
10
1.975
20
-6.125
40
0.0334646
50
90
51
270
0
ARC
8
BLACK
10
2.075
20
-6.225
40
0.0334646
50
270
51
450
0
ARC
8
BLACK
10
2.075
20
-6.225
40
0.0334646
50
90
51
270
0
ARC
8
BLACK
10
2.075
20
-6.125
40
0.0334646
50
270
51
450
0
ARC
8
BLACK
10
2.075
20
-6.125
40
0.0334646
50
90
51
270
0
ARC
8
BLACK
10
2.175
20
-6.225
40
0.0334646
50
270
51
450
0
ARC
8
BLACK
10
2.175
20
-6.225
40
0.0334646
50
90
51
270
0
ARC
8
BLACK
10
2.175
20
-6.125
40
0.0334646
50
270
51
450
0
ARC
8
BLACK
10
2.175
20
-6.125
40
0.0334646
50
90
51
270
0
ARC
8
BLACK
10
2.275
20
-6.225
40
0.0334646
50
270
51
450
0
ARC
8
BLACK
10
2.275
20
-6.225
40
0.0334646
50
90
51
270
0
ARC
8
BLACK
10
2.275
20
-6.125
40
0.0334646
50
270
51
450
0
ARC
8
BLACK
10
2.275
20
-6.125
40
0.0334646
50
90
51
270
0
ARC
8
BLACK
10
2.375
20
-6.225
40
0.0334646
50
270
51
450
0
ARC
8
BLACK
10
2.375
20
-6.225
40
0.0334646
50
90
51
270
0
ARC
8
BLACK
10
2.375
20
-6.125
40
0.0334646
50
270
51
450
0
ARC
8
BLACK
10
2.375
20
-6.125
40
0.0334646
50
90
51
270
0
ARC
8
BLACK
10
2.475
20
-6.225
40
0.0334646
50
270
51
450
0
ARC
8
BLACK
10
2.475
20
-6.225
40
0.0334646
50
90
51
270
0
ARC
8
BLACK
10
2.475
20
-6.125
40
0.0334646
50
270
51
450
0
ARC
8
BLACK
10
2.475
20
-6.125
40
0.0334646
50
90
51
270
0
LINE
8
BLACK
6
CONTINUOUS
10
1.45157
20
-1.20472
11
1.45232
21
-1.20096
0
LINE
8
BLACK
6
CONTINUOUS
10
1.45232
20
-1.20096
11
1.45446
21
-1.19776
0
LINE
8
BLACK
6
CONTINUOUS
10
1.45446
20
-1.19776
11
1.45765
21
-1.19563
0
LINE
8
BLACK
6
CONTINUOUS
10
1.45765
20
-1.19563
11
1.46142
21
-1.19488
0
LINE
8
BLACK
6
CONTINUOUS
10
1.46142
20
-1.19488
11
1.53858
21
-1.19488
0
LINE
8
BLACK
6
CONTINUOUS
10
1.53858
20
-1.19488
11
1.54235
21
-1.19563
0
LINE
8
BLACK
6
CONTINUOUS
10
1.54235
20
-1.19563
11
1.54554
21
-1.19776
0
LINE
8
BLACK
6
CONTINUOUS
10
1.54554
20
-1.19776
11
1.54768
21
-1.20096
0
LINE
8
BLACK
6
CONTINUOUS
10
1.54768
20
-1.20096
11
1.54843
21
-1.20472
0
LINE
8
BLACK
6
CONTINUOUS
10
1.54843
20
-1.20472
11
1.54843
21
-1.29528
0
LINE
8
BLACK
6
CONTINUOUS
10
1.54843
20
-1.29528
11
1.54768
21
-1.29904
0
LINE
8
BLACK
6
CONTINUOUS
10
1.54768
20
-1.29904
11
1.54554
21
-1.30224
0
LINE
8
BLACK
6
CONTINUOUS
10
1.54554
20
-1.30224
11
1.54235
21
-1.30437
0
LINE
8
BLACK
6
CONTINUOUS
10
1.54235
20
-1.30437
11
1.53858
21
-1.30512
0
LINE
8
BLACK
6
CONTINUOUS
10
1.53858
20
-1.30512
11
1.46142
21
-1.30512
0
LINE
8
BLACK
6
CONTINUOUS
10
1.46142
20
-1.30512
11
1.45765
21
-1.30437
0
LINE
8
BLACK
6
CONTINUOUS
10
1.45765
20
-1.30437
11
1.45446
21
-1.30224
0
LINE
8
BLACK
6
CONTINUOUS
10
1.45446
20
-1.30224
11
1.45232
21
-1.29904
0
LINE
8
BLACK
6
CONTINUOUS
10
1.45232
20
-1.29904
11
1.45157
21
-1.29528
0
LINE
8
BLACK
6
CONTINUOUS
10
1.45157
20
-1.29528
11
1.45157
21
-1.20472
0
LINE
8
BLACK
6
CONTINUOUS
10
1.60748
20
-1.24331
11
1.60748
21
-1.25669
0
LINE
8
BLACK
6
CONTINUOUS
10
1.70433
20
-1.24331
11
1.70433
21
-1.25669
0
ARC
8
BLACK
10
1.65591
20
-1.25669
40
0.0484252
50
180
51
360
0
ARC
8
BLACK
10
1.65591
20
-1.24331
40
0.0484252
50
0
51
180
0
CIRCLE
8
BLACK
10
1.44094
20
-1.37795
40
0.0314961
0
LINE
8
BLACK
6
CONTINUOUS
10
3.16654
20
-3.69154
11
3.16654
21
-3.75846
0
LINE
8
BLACK
6
CONTINUOUS
10
3.16654
20
-3.75846
11
3.23346
21
-3.75846
0
LINE
8
BLACK
6
CONTINUOUS
10
3.23346
20
-3.75846
11
3.23346
21
-3.69154
0
LINE
8
BLACK
6
CONTINUOUS
10
3.23346
20
-3.69154
11
3.16654
21
-3.69154
0
ARC
8
BLACK
10
3.2
20
-3.825
40
0.0334646
50
180
51
360
0
ARC
8
BLACK
10
3.2
20
-3.825
40
0.0334646
50
0
51
180
0
ARC
8
BLACK
10
3.2
20
-3.925
40
0.0334646
50
180
51
360
0
ARC
8
BLACK
10
3.2
20
-3.925
40
0.0334646
50
0
51
180
0
CIRCLE
8
BLACK
10
3.875
20
-5.475
40
0.0275591
0
ARC
8
BLACK
10
3.675
20
-5.475
40
0.0275591
50
360
51
540
0
ARC
8
BLACK
10
3.675
20
-5.475
40
0.0275591
50
180
51
360
0
ARC
8
BLACK
10
1.55
20
-3.55
40
0.0275591
50
360
51
540
0
ARC
8
BLACK
10
1.55
20
-3.55
40
0.0275591
50
180
51
360
0
CIRCLE
8
BLACK
10
1.75
20
-3.55
40
0.0275591
0
CIRCLE
8
BLACK
10
1.7
20
-2.6
40
0.0275591
0
ARC
8
BLACK
10
1.7
20
-2.4
40
0.0275591
50
270
51
450
0
ARC
8
BLACK
10
1.7
20
-2.4
40
0.0275591
50
90
51
270
0
ARC
8
BLACK
10
5
20
-4.275
40
0.0275591
50
270
51
450
0
ARC
8
BLACK
10
5
20
-4.275
40
0.0275591
50
90
51
270
0
CIRCLE
8
BLACK
10
5
20
-4.475
40
0.0275591
0
ARC
8
BLACK
10
4.05
20
-5.475
40
0.0275591
50
360
51
540
0
ARC
8
BLACK
10
4.05
20
-5.475
40
0.0275591
50
180
51
360
0
CIRCLE
8
BLACK
10
4.25
20
-5.475
40
0.0275591
0
CIRCLE
8
BLACK
10
1.75
20
-3.75
40
0.0275591
0
ARC
8
BLACK
10
1.55
20
-3.75
40
0.0275591
50
360
51
540
0
ARC
8
BLACK
10
1.55
20
-3.75
40
0.0275591
50
180
51
360
0
LINE
8
BLACK
6
CONTINUOUS
10
3.0565
20
-4.5435
11
2.9935
21
-4.5435
0
LINE
8
BLACK
6
CONTINUOUS
10
2.9935
20
-4.5435
11
2.9935
21
-4.6065
0
LINE
8
BLACK
6
CONTINUOUS
10
2.9935
20
-4.6065
11
3.0565
21
-4.6065
0
LINE
8
BLACK
6
CONTINUOUS
10
3.0565
20
-4.6065
11
3.0565
21
-4.5435
0
ARC
8
BLACK
10
3.025
20
-4.675
40
0.0314961
50
450
51
630
0
ARC
8
BLACK
10
3.025
20
-4.675
40
0.0314961
50
270
51
450
0
ARC
8
BLACK
10
3.025
20
-4.775
40
0.0314961
50
450
51
630
0
ARC
8
BLACK
10
3.025
20
-4.775
40
0.0314961
50
270
51
450
0
ARC
8
BLACK
10
3.025
20
-4.875
40
0.0314961
50
450
51
630
0
ARC
8
BLACK
10
3.025
20
-4.875
40
0.0314961
50
270
51
450
0
ARC
8
BLACK
10
3.025
20
-4.975
40
0.0314961
50
450
51
630
0
ARC
8
BLACK
10
3.025
20
-4.975
40
0.0314961
50
270
51
450
0
ARC
8
BLACK
10
3.025
20
-5.075
40
0.0314961
50
450
51
630
0
ARC
8
BLACK
10
3.025
20
-5.075
40
0.0314961
50
270
51
450
0
ARC
8
BLACK
10
3.025
20
-5.175
40
0.0314961
50
450
51
630
0
ARC
8
BLACK
10
3.025
20
-5.175
40
0.0314961
50
270
51
450
0
ARC
8
BLACK
10
3.025
20
-5.275
40
0.0314961
50
450
51
630
0
ARC
8
BLACK
10
3.025
20
-5.275
40
0.0314961
50
270
51
450
0
ARC
8
BLACK
10
3.025
20
-5.375
40
0.0314961
50
450
51
630
0
ARC
8
BLACK
10
3.025
20
-5.375
40
0.0314961
50
270
51
450
0
CIRCLE
8
BLACK
10
4.95
20
-6.25217
40
0.0393701
0
CIRCLE
8
BLACK
10
4.95
20
-6.075
40
0.0393701
0
CIRCLE
8
BLACK
10
5.20591
20
-6.25217
40
0.0393701
0
CIRCLE
8
BLACK
10
5.20591
20
-6.075
40
0.0393701
0
LINE
8
BLACK
6
CONTINUOUS
10
1.90925
20
-4.6065
11
1.94075
21
-4.6065
0
LINE
8
BLACK
6
CONTINUOUS
10
1.90925
20
-4.5435
11
1.94075
21
-4.5435
0
ARC
8
BLACK
10
1.94075
20
-4.575
40
0.0314961
50
270
51
450
0
ARC
8
BLACK
10
1.90925
20
-4.575
40
0.0314961
50
90
51
270
0
LINE
8
BLACK
6
CONTINUOUS
10
1.60925
20
-5.5065
11
1.64075
21
-5.5065
0
LINE
8
BLACK
6
CONTINUOUS
10
1.60925
20
-5.4435
11
1.64075
21
-5.4435
0
ARC
8
BLACK
10
1.64075
20
-5.475
40
0.0314961
50
270
51
450
0
ARC
8
BLACK
10
1.60925
20
-5.475
40
0.0314961
50
90
51
270
0
LINE
8
BLACK
6
CONTINUOUS
10
1.90925
20
-4.7065
11
1.94075
21
-4.7065
0
LINE
8
BLACK
6
CONTINUOUS
10
1.90925
20
-4.6435
11
1.94075
21
-4.6435
0
ARC
8
BLACK
10
1.94075
20
-4.675
40
0.0314961
50
270
51
450
0
ARC
8
BLACK
10
1.90925
20
-4.675
40
0.0314961
50
90
51
270
0
LINE
8
BLACK
6
CONTINUOUS
10
1.60925
20
-5.4065
11
1.64075
21
-5.4065
0
LINE
8
BLACK
6
CONTINUOUS
10
1.60925
20
-5.3435
11
1.64075
21
-5.3435
0
ARC
8
BLACK
10
1.64075
20
-5.375
40
0.0314961
50
270
51
450
0
ARC
8
BLACK
10
1.60925
20
-5.375
40
0.0314961
50
90
51
270
0
LINE
8
BLACK
6
CONTINUOUS
10
1.90925
20
-4.8065
11
1.94075
21
-4.8065
0
LINE
8
BLACK
6
CONTINUOUS
10
1.90925
20
-4.7435
11
1.94075
21
-4.7435
0
ARC
8
BLACK
10
1.94075
20
-4.775
40
0.0314961
50
270
51
450
0
ARC
8
BLACK
10
1.90925
20
-4.775
40
0.0314961
50
90
51
270
0
LINE
8
BLACK
6
CONTINUOUS
10
1.60925
20
-5.3065
11
1.64075
21
-5.3065
0
LINE
8
BLACK
6
CONTINUOUS
10
1.60925
20
-5.2435
11
1.64075
21
-5.2435
0
ARC
8
BLACK
10
1.64075
20
-5.275
40
0.0314961
50
270
51
450
0
ARC
8
BLACK
10
1.60925
20
-5.275
40
0.0314961
50
90
51
270
0
LINE
8
BLACK
6
CONTINUOUS
10
1.90925
20
-4.9065
11
1.94075
21
-4.9065
0
LINE
8
BLACK
6
CONTINUOUS
10
1.90925
20
-4.8435
11
1.94075
21
-4.8435
0
ARC
8
BLACK
10
1.94075
20
-4.875
40
0.0314961
50
270
51
450
0
ARC
8
BLACK
10
1.90925
20
-4.875
40
0.0314961
50
90
51
270
0
LINE
8
BLACK
6
CONTINUOUS
10
1.60925
20
-5.2065
11
1.64075
21
-5.2065
0
LINE
8
BLACK
6
CONTINUOUS
10
1.60925
20
-5.1435
11
1.64075
21
-5.1435
0
ARC
8
BLACK
10
1.64075
20
-5.175
40
0.0314961
50
270
51
450
0
ARC
8
BLACK
10
1.60925
20
-5.175
40
0.0314961
50
90
51
270
0
LINE
8
BLACK
6
CONTINUOUS
10
1.90925
20
-5.0065
11
1.94075
21
-5.0065
0
LINE
8
BLACK
6
CONTINUOUS
10
1.90925
20
-4.9435
11
1.94075
21
-4.9435
0
ARC
8
BLACK
10
1.94075
20
-4.975
40
0.0314961
50
270
51
450
0
ARC
8
BLACK
10
1.90925
20
-4.975
40
0.0314961
50
90
51
270
0
LINE
8
BLACK
6
CONTINUOUS
10
1.60925
20
-5.1065
11
1.64075
21
-5.1065
0
LINE
8
BLACK
6
CONTINUOUS
10
1.60925
20
-5.0435
11
1.64075
21
-5.0435
0
ARC
8
BLACK
10
1.64075
20
-5.075
40
0.0314961
50
270
51
450
0
ARC
8
BLACK
10
1.60925
20
-5.075
40
0.0314961
50
90
51
270
0
LINE
8
BLACK
6
CONTINUOUS
10
1.90925
20
-5.1065
11
1.94075
21
-5.1065
0
LINE
8
BLACK
6
CONTINUOUS
10
1.90925
20
-5.0435
11
1.94075
21
-5.0435
0
ARC
8
BLACK
10
1.94075
20
-5.075
40
0.0314961
50
270
51
450
0
ARC
8
BLACK
10
1.90925
20
-5.075
40
0.0314961
50
90
51
270
0
LINE
8
BLACK
6
CONTINUOUS
10
1.60925
20
-5.0065
11
1.64075
21
-5.0065
0
LINE
8
BLACK
6
CONTINUOUS
10
1.60925
20
-4.9435
11
1.64075
21
-4.9435
0
ARC
8
BLACK
10
1.64075
20
-4.975
40
0.0314961
50
270
51
450
0
ARC
8
BLACK
10
1.60925
20
-4.975
40
0.0314961
50
90
51
270
0
LINE
8
BLACK
6
CONTINUOUS
10
1.90925
20
-5.2065
11
1.94075
21
-5.2065
0
LINE
8
BLACK
6
CONTINUOUS
10
1.90925
20
-5.1435
11
1.94075
21
-5.1435
0
ARC
8
BLACK
10
1.94075
20
-5.175
40
0.0314961
50
270
51
450
0
ARC
8
BLACK
10
1.90925
20
-5.175
40
0.0314961
50
90
51
270
0
LINE
8
BLACK
6
CONTINUOUS
10
1.60925
20
-4.9065
11
1.64075
21
-4.9065
0
LINE
8
BLACK
6
CONTINUOUS
10
1.60925
20
-4.8435
11
1.64075
21
-4.8435
0
ARC
8
BLACK
10
1.64075
20
-4.875
40
0.0314961
50
270
51
450
0
ARC
8
BLACK
10
1.60925
20
-4.875
40
0.0314961
50
90
51
270
0
LINE
8
BLACK
6
CONTINUOUS
10
1.90925
20
-5.3065
11
1.94075
21
-5.3065
0
LINE
8
BLACK
6
CONTINUOUS
10
1.90925
20
-5.2435
11
1.94075
21
-5.2435
0
ARC
8
BLACK
10
1.94075
20
-5.275
40
0.0314961
50
270
51
450
0
ARC
8
BLACK
10
1.90925
20
-5.275
40
0.0314961
50
90
51
270
0
LINE
8
BLACK
6
CONTINUOUS
10
1.60925
20
-4.8065
11
1.64075
21
-4.8065
0
LINE
8
BLACK
6
CONTINUOUS
10
1.60925
20
-4.7435
11
1.64075
21
-4.7435
0
ARC
8
BLACK
10
1.64075
20
-4.775
40
0.0314961
50
270
51
450
0
ARC
8
BLACK
10
1.60925
20
-4.775
40
0.0314961
50
90
51
270
0
LINE
8
BLACK
6
CONTINUOUS
10
1.90925
20
-5.4065
11
1.94075
21
-5.4065
0
LINE
8
BLACK
6
CONTINUOUS
10
1.90925
20
-5.3435
11
1.94075
21
-5.3435
0
ARC
8
BLACK
10
1.94075
20
-5.375
40
0.0314961
50
270
51
450
0
ARC
8
BLACK
10
1.90925
20
-5.375
40
0.0314961
50
90
51
270
0
LINE
8
BLACK
6
CONTINUOUS
10
1.60925
20
-4.7065
11
1.64075
21
-4.7065
0
LINE
8
BLACK
6
CONTINUOUS
10
1.60925
20
-4.6435
11
1.64075
21
-4.6435
0
ARC
8
BLACK
10
1.64075
20
-4.675
40
0.0314961
50
270
51
450
0
ARC
8
BLACK
10
1.60925
20
-4.675
40
0.0314961
50
90
51
270
0
LINE
8
BLACK
6
CONTINUOUS
10
1.90925
20
-5.5065
11
1.94075
21
-5.5065
0
LINE
8
BLACK
6
CONTINUOUS
10
1.90925
20
-5.4435
11
1.94075
21
-5.4435
0
ARC
8
BLACK
10
1.94075
20
-5.475
40
0.0314961
50
270
51
450
0
ARC
8
BLACK
10
1.90925
20
-5.475
40
0.0314961
50
90
51
270
0
LINE
8
BLACK
6
CONTINUOUS
10
1.57776
20
-4.5435
11
1.57776
21
-4.6065
0
LINE
8
BLACK
6
CONTINUOUS
10
1.57776
20
-4.6065
11
1.67224
21
-4.6065
0
LINE
8
BLACK
6
CONTINUOUS
10
1.67224
20
-4.6065
11
1.67224
21
-4.5435
0
LINE
8
BLACK
6
CONTINUOUS
10
1.67224
20
-4.5435
11
1.57776
21
-4.5435
0
LINE
8
BLACK
6
CONTINUOUS
10
1.90276
20
-2.0685
11
1.90276
21
-2.1315
0
LINE
8
BLACK
6
CONTINUOUS
10
1.90276
20
-2.1315
11
1.99724
21
-2.1315
0
LINE
8
BLACK
6
CONTINUOUS
10
1.99724
20
-2.1315
11
1.99724
21
-2.0685
0
LINE
8
BLACK
6
CONTINUOUS
10
1.99724
20
-2.0685
11
1.90276
21
-2.0685
0
LINE
8
BLACK
6
CONTINUOUS
10
2.53425
20
-4.0315
11
2.56575
21
-4.0315
0
LINE
8
BLACK
6
CONTINUOUS
10
2.53425
20
-3.9685
11
2.56575
21
-3.9685
0
ARC
8
BLACK
10
2.56575
20
-4
40
0.0314961
50
270
51
450
0
ARC
8
BLACK
10
2.53425
20
-4
40
0.0314961
50
90
51
270
0
LINE
8
BLACK
6
CONTINUOUS
10
1.93425
20
-2.2315
11
1.96575
21
-2.2315
0
LINE
8
BLACK
6
CONTINUOUS
10
1.93425
20
-2.1685
11
1.96575
21
-2.1685
0
ARC
8
BLACK
10
1.96575
20
-2.2
40
0.0314961
50
270
51
450
0
ARC
8
BLACK
10
1.93425
20
-2.2
40
0.0314961
50
90
51
270
0
LINE
8
BLACK
6
CONTINUOUS
10
2.53425
20
-3.9315
11
2.56575
21
-3.9315
0
LINE
8
BLACK
6
CONTINUOUS
10
2.53425
20
-3.8685
11
2.56575
21
-3.8685
0
ARC
8
BLACK
10
2.56575
20
-3.9
40
0.0314961
50
270
51
450
0
ARC
8
BLACK
10
2.53425
20
-3.9
40
0.0314961
50
90
51
270
0
LINE
8
BLACK
6
CONTINUOUS
10
1.93425
20
-2.3315
11
1.96575
21
-2.3315
0
LINE
8
BLACK
6
CONTINUOUS
10
1.93425
20
-2.2685
11
1.96575
21
-2.2685
0
ARC
8
BLACK
10
1.96575
20
-2.3
40
0.0314961
50
270
51
450
0
ARC
8
BLACK
10
1.93425
20
-2.3
40
0.0314961
50
90
51
270
0
LINE
8
BLACK
6
CONTINUOUS
10
2.53425
20
-3.8315
11
2.56575
21
-3.8315
0
LINE
8
BLACK
6
CONTINUOUS
10
2.53425
20
-3.7685
11
2.56575
21
-3.7685
0
ARC
8
BLACK
10
2.56575
20
-3.8
40
0.0314961
50
270
51
450
0
ARC
8
BLACK
10
2.53425
20
-3.8
40
0.0314961
50
90
51
270
0
LINE
8
BLACK
6
CONTINUOUS
10
1.93425
20
-2.4315
11
1.96575
21
-2.4315
0
LINE
8
BLACK
6
CONTINUOUS
10
1.93425
20
-2.3685
11
1.96575
21
-2.3685
0
ARC
8
BLACK
10
1.96575
20
-2.4
40
0.0314961
50
270
51
450
0
ARC
8
BLACK
10
1.93425
20
-2.4
40
0.0314961
50
90
51
270
0
LINE
8
BLACK
6
CONTINUOUS
10
2.53425
20
-3.7315
11
2.56575
21
-3.7315
0
LINE
8
BLACK
6
CONTINUOUS
10
2.53425
20
-3.6685
11
2.56575
21
-3.6685
0
ARC
8
BLACK
10
2.56575
20
-3.7
40
0.0314961
50
270
51
450
0
ARC
8
BLACK
10
2.53425
20
-3.7
40
0.0314961
50
90
51
270
0
LINE
8
BLACK
6
CONTINUOUS
10
1.93425
20
-2.5315
11
1.96575
21
-2.5315
0
LINE
8
BLACK
6
CONTINUOUS
10
1.93425
20
-2.4685
11
1.96575
21
-2.4685
0
ARC
8
BLACK
10
1.96575
20
-2.5
40
0.0314961
50
270
51
450
0
ARC
8
BLACK
10
1.93425
20
-2.5
40
0.0314961
50
90
51
270
0
LINE
8
BLACK
6
CONTINUOUS
10
2.53425
20
-3.6315
11
2.56575
21
-3.6315
0
LINE
8
BLACK
6
CONTINUOUS
10
2.53425
20
-3.5685
11
2.56575
21
-3.5685
0
ARC
8
BLACK
10
2.56575
20
-3.6
40
0.0314961
50
270
51
450
0
ARC
8
BLACK
10
2.53425
20
-3.6
40
0.0314961
50
90
51
270
0
LINE
8
BLACK
6
CONTINUOUS
10
1.93425
20
-2.6315
11
1.96575
21
-2.6315
0
LINE
8
BLACK
6
CONTINUOUS
10
1.93425
20
-2.5685
11
1.96575
21
-2.5685
0
ARC
8
BLACK
10
1.96575
20
-2.6
40
0.0314961
50
270
51
450
0
ARC
8
BLACK
10
1.93425
20
-2.6
40
0.0314961
50
90
51
270
0
LINE
8
BLACK
6
CONTINUOUS
10
2.53425
20
-3.5315
11
2.56575
21
-3.5315
0
LINE
8
BLACK
6
CONTINUOUS
10
2.53425
20
-3.4685
11
2.56575
21
-3.4685
0
ARC
8
BLACK
10
2.56575
20
-3.5
40
0.0314961
50
270
51
450
0
ARC
8
BLACK
10
2.53425
20
-3.5
40
0.0314961
50
90
51
270
0
LINE
8
BLACK
6
CONTINUOUS
10
1.93425
20
-2.7315
11
1.96575
21
-2.7315
0
LINE
8
BLACK
6
CONTINUOUS
10
1.93425
20
-2.6685
11
1.96575
21
-2.6685
0
ARC
8
BLACK
10
1.96575
20
-2.7
40
0.0314961
50
270
51
450
0
ARC
8
BLACK
10
1.93425
20
-2.7
40
0.0314961
50
90
51
270
0
LINE
8
BLACK
6
CONTINUOUS
10
2.53425
20
-3.4315
11
2.56575
21
-3.4315
0
LINE
8
BLACK
6
CONTINUOUS
10
2.53425
20
-3.3685
11
2.56575
21
-3.3685
0
ARC
8
BLACK
10
2.56575
20
-3.4
40
0.0314961
50
270
51
450
0
ARC
8
BLACK
10
2.53425
20
-3.4
40
0.0314961
50
90
51
270
0
LINE
8
BLACK
6
CONTINUOUS
10
1.93425
20
-2.8315
11
1.96575
21
-2.8315
0
LINE
8
BLACK
6
CONTINUOUS
10
1.93425
20
-2.7685
11
1.96575
21
-2.7685
0
ARC
8
BLACK
10
1.96575
20
-2.8
40
0.0314961
50
270
51
450
0
ARC
8
BLACK
10
1.93425
20
-2.8
40
0.0314961
50
90
51
270
0
LINE
8
BLACK
6
CONTINUOUS
10
2.53425
20
-3.3315
11
2.56575
21
-3.3315
0
LINE
8
BLACK
6
CONTINUOUS
10
2.53425
20
-3.2685
11
2.56575
21
-3.2685
0
ARC
8
BLACK
10
2.56575
20
-3.3
40
0.0314961
50
270
51
450
0
ARC
8
BLACK
10
2.53425
20
-3.3
40
0.0314961
50
90
51
270
0
LINE
8
BLACK
6
CONTINUOUS
10
1.93425
20
-2.9315
11
1.96575
21
-2.9315
0
LINE
8
BLACK
6
CONTINUOUS
10
1.93425
20
-2.8685
11
1.96575
21
-2.8685
0
ARC
8
BLACK
10
1.96575
20
-2.9
40
0.0314961
50
270
51
450
0
ARC
8
BLACK
10
1.93425
20
-2.9
40
0.0314961
50
90
51
270
0
LINE
8
BLACK
6
CONTINUOUS
10
2.53425
20
-3.2315
11
2.56575
21
-3.2315
0
LINE
8
BLACK
6
CONTINUOUS
10
2.53425
20
-3.1685
11
2.56575
21
-3.1685
0
ARC
8
BLACK
10
2.56575
20
-3.2
40
0.0314961
50
270
51
450
0
ARC
8
BLACK
10
2.53425
20
-3.2
40
0.0314961
50
90
51
270
0
LINE
8
BLACK
6
CONTINUOUS
10
1.93425
20
-3.0315
11
1.96575
21
-3.0315
0
LINE
8
BLACK
6
CONTINUOUS
10
1.93425
20
-2.9685
11
1.96575
21
-2.9685
0
ARC
8
BLACK
10
1.96575
20
-3
40
0.0314961
50
270
51
450
0
ARC
8
BLACK
10
1.93425
20
-3
40
0.0314961
50
90
51
270
0
LINE
8
BLACK
6
CONTINUOUS
10
2.53425
20
-3.1315
11
2.56575
21
-3.1315
0
LINE
8
BLACK
6
CONTINUOUS
10
2.53425
20
-3.0685
11
2.56575
21
-3.0685
0
ARC
8
BLACK
10
2.56575
20
-3.1
40
0.0314961
50
270
51
450
0
ARC
8
BLACK
10
2.53425
20
-3.1
40
0.0314961
50
90
51
270
0
LINE
8
BLACK
6
CONTINUOUS
10
1.93425
20
-3.1315
11
1.96575
21
-3.1315
0
LINE
8
BLACK
6
CONTINUOUS
10
1.93425
20
-3.0685
11
1.96575
21
-3.0685
0
ARC
8
BLACK
10
1.96575
20
-3.1
40
0.0314961
50
270
51
450
0
ARC
8
BLACK
10
1.93425
20
-3.1
40
0.0314961
50
90
51
270
0
LINE
8
BLACK
6
CONTINUOUS
10
2.53425
20
-3.0315
11
2.56575
21
-3.0315
0
LINE
8
BLACK
6
CONTINUOUS
10
2.53425
20
-2.9685
11
2.56575
21
-2.9685
0
ARC
8
BLACK
10
2.56575
20
-3
40
0.0314961
50
270
51
450
0
ARC
8
BLACK
10
2.53425
20
-3
40
0.0314961
50
90
51
270
0
LINE
8
BLACK
6
CONTINUOUS
10
1.93425
20
-3.2315
11
1.96575
21
-3.2315
0
LINE
8
BLACK
6
CONTINUOUS
10
1.93425
20
-3.1685
11
1.96575
21
-3.1685
0
ARC
8
BLACK
10
1.96575
20
-3.2
40
0.0314961
50
270
51
450
0
ARC
8
BLACK
10
1.93425
20
-3.2
40
0.0314961
50
90
51
270
0
LINE
8
BLACK
6
CONTINUOUS
10
2.53425
20
-2.9315
11
2.56575
21
-2.9315
0
LINE
8
BLACK
6
CONTINUOUS
10
2.53425
20
-2.8685
11
2.56575
21
-2.8685
0
ARC
8
BLACK
10
2.56575
20
-2.9
40
0.0314961
50
270
51
450
0
ARC
8
BLACK
10
2.53425
20
-2.9
40
0.0314961
50
90
51
270
0
LINE
8
BLACK
6
CONTINUOUS
10
1.93425
20
-3.3315
11
1.96575
21
-3.3315
0
LINE
8
BLACK
6
CONTINUOUS
10
1.93425
20
-3.2685
11
1.96575
21
-3.2685
0
ARC
8
BLACK
10
1.96575
20
-3.3
40
0.0314961
50
270
51
450
0
ARC
8
BLACK
10
1.93425
20
-3.3
40
0.0314961
50
90
51
270
0
LINE
8
BLACK
6
CONTINUOUS
10
2.53425
20
-2.8315
11
2.56575
21
-2.8315
0
LINE
8
BLACK
6
CONTINUOUS
10
2.53425
20
-2.7685
11
2.56575
21
-2.7685
0
ARC
8
BLACK
10
2.56575
20
-2.8
40
0.0314961
50
270
51
450
0
ARC
8
BLACK
10
2.53425
20
-2.8
40
0.0314961
50
90
51
270
0
LINE
8
BLACK
6
CONTINUOUS
10
1.93425
20
-3.4315
11
1.96575
21
-3.4315
0
LINE
8
BLACK
6
CONTINUOUS
10
1.93425
20
-3.3685
11
1.96575
21
-3.3685
0
ARC
8
BLACK
10
1.96575
20
-3.4
40
0.0314961
50
270
51
450
0
ARC
8
BLACK
10
1.93425
20
-3.4
40
0.0314961
50
90
51
270
0
LINE
8
BLACK
6
CONTINUOUS
10
2.53425
20
-2.7315
11
2.56575
21
-2.7315
0
LINE
8
BLACK
6
CONTINUOUS
10
2.53425
20
-2.6685
11
2.56575
21
-2.6685
0
ARC
8
BLACK
10
2.56575
20
-2.7
40
0.0314961
50
270
51
450
0
ARC
8
BLACK
10
2.53425
20
-2.7
40
0.0314961
50
90
51
270
0
LINE
8
BLACK
6
CONTINUOUS
10
1.93425
20
-3.5315
11
1.96575
21
-3.5315
0
LINE
8
BLACK
6
CONTINUOUS
10
1.93425
20
-3.4685
11
1.96575
21
-3.4685
0
ARC
8
BLACK
10
1.96575
20
-3.5
40
0.0314961
50
270
51
450
0
ARC
8
BLACK
10
1.93425
20
-3.5
40
0.0314961
50
90
51
270
0
LINE
8
BLACK
6
CONTINUOUS
10
2.53425
20
-2.6315
11
2.56575
21
-2.6315
0
LINE
8
BLACK
6
CONTINUOUS
10
2.53425
20
-2.5685
11
2.56575
21
-2.5685
0
ARC
8
BLACK
10
2.56575
20
-2.6
40
0.0314961
50
270
51
450
0
ARC
8
BLACK
10
2.53425
20
-2.6
40
0.0314961
50
90
51
270
0
LINE
8
BLACK
6
CONTINUOUS
10
1.93425
20
-3.6315
11
1.96575
21
-3.6315
0
LINE
8
BLACK
6
CONTINUOUS
10
1.93425
20
-3.5685
11
1.96575
21
-3.5685
0
ARC
8
BLACK
10
1.96575
20
-3.6
40
0.0314961
50
270
51
450
0
ARC
8
BLACK
10
1.93425
20
-3.6
40
0.0314961
50
90
51
270
0
LINE
8
BLACK
6
CONTINUOUS
10
2.53425
20
-2.5315
11
2.56575
21
-2.5315
0
LINE
8
BLACK
6
CONTINUOUS
10
2.53425
20
-2.4685
11
2.56575
21
-2.4685
0
ARC
8
BLACK
10
2.56575
20
-2.5
40
0.0314961
50
270
51
450
0
ARC
8
BLACK
10
2.53425
20
-2.5
40
0.0314961
50
90
51
270
0
LINE
8
BLACK
6
CONTINUOUS
10
1.93425
20
-3.7315
11
1.96575
21
-3.7315
0
LINE
8
BLACK
6
CONTINUOUS
10
1.93425
20
-3.6685
11
1.96575
21
-3.6685
0
ARC
8
BLACK
10
1.96575
20
-3.7
40
0.0314961
50
270
51
450
0
ARC
8
BLACK
10
1.93425
20
-3.7
40
0.0314961
50
90
51
270
0
LINE
8
BLACK
6
CONTINUOUS
10
2.53425
20
-2.4315
11
2.56575
21
-2.4315
0
LINE
8
BLACK
6
CONTINUOUS
10
2.53425
20
-2.3685
11
2.56575
21
-2.3685
0
ARC
8
BLACK
10
2.56575
20
-2.4
40
0.0314961
50
270
51
450
0
ARC
8
BLACK
10
2.53425
20
-2.4
40
0.0314961
50
90
51
270
0
LINE
8
BLACK
6
CONTINUOUS
10
1.93425
20
-3.8315
11
1.96575
21
-3.8315
0
LINE
8
BLACK
6
CONTINUOUS
10
1.93425
20
-3.7685
11
1.96575
21
-3.7685
0
ARC
8
BLACK
10
1.96575
20
-3.8
40
0.0314961
50
270
51
450
0
ARC
8
BLACK
10
1.93425
20
-3.8
40
0.0314961
50
90
51
270
0
LINE
8
BLACK
6
CONTINUOUS
10
2.53425
20
-2.3315
11
2.56575
21
-2.3315
0
LINE
8
BLACK
6
CONTINUOUS
10
2.53425
20
-2.2685
11
2.56575
21
-2.2685
0
ARC
8
BLACK
10
2.56575
20
-2.3
40
0.0314961
50
270
51
450
0
ARC
8
BLACK
10
2.53425
20
-2.3
40
0.0314961
50
90
51
270
0
LINE
8
BLACK
6
CONTINUOUS
10
1.93425
20
-3.9315
11
1.96575
21
-3.9315
0
LINE
8
BLACK
6
CONTINUOUS
10
1.93425
20
-3.8685
11
1.96575
21
-3.8685
0
ARC
8
BLACK
10
1.96575
20
-3.9
40
0.0314961
50
270
51
450
0
ARC
8
BLACK
10
1.93425
20
-3.9
40
0.0314961
50
90
51
270
0
LINE
8
BLACK
6
CONTINUOUS
10
2.53425
20
-2.2315
11
2.56575
21
-2.2315
0
LINE
8
BLACK
6
CONTINUOUS
10
2.53425
20
-2.1685
11
2.56575
21
-2.1685
0
ARC
8
BLACK
10
2.56575
20
-2.2
40
0.0314961
50
270
51
450
0
ARC
8
BLACK
10
2.53425
20
-2.2
40
0.0314961
50
90
51
270
0
LINE
8
BLACK
6
CONTINUOUS
10
1.93425
20
-4.0315
11
1.96575
21
-4.0315
0
LINE
8
BLACK
6
CONTINUOUS
10
1.93425
20
-3.9685
11
1.96575
21
-3.9685
0
ARC
8
BLACK
10
1.96575
20
-4
40
0.0314961
50
270
51
450
0
ARC
8
BLACK
10
1.93425
20
-4
40
0.0314961
50
90
51
270
0
LINE
8
BLACK
6
CONTINUOUS
10
2.53425
20
-2.1315
11
2.56575
21
-2.1315
0
LINE
8
BLACK
6
CONTINUOUS
10
2.53425
20
-2.0685
11
2.56575
21
-2.0685
0
ARC
8
BLACK
10
2.56575
20
-2.1
40
0.0314961
50
270
51
450
0
ARC
8
BLACK
10
2.53425
20
-2.1
40
0.0314961
50
90
51
270
0
LINE
8
BLACK
6
CONTINUOUS
10
2.27776
20
-4.5435
11
2.27776
21
-4.6065
0
LINE
8
BLACK
6
CONTINUOUS
10
2.27776
20
-4.6065
11
2.37224
21
-4.6065
0
LINE
8
BLACK
6
CONTINUOUS
10
2.37224
20
-4.6065
11
2.37224
21
-4.5435
0
LINE
8
BLACK
6
CONTINUOUS
10
2.37224
20
-4.5435
11
2.27776
21
-4.5435
0
LINE
8
BLACK
6
CONTINUOUS
10
2.60925
20
-5.5065
11
2.64075
21
-5.5065
0
LINE
8
BLACK
6
CONTINUOUS
10
2.60925
20
-5.4435
11
2.64075
21
-5.4435
0
ARC
8
BLACK
10
2.64075
20
-5.475
40
0.0314961
50
270
51
450
0
ARC
8
BLACK
10
2.60925
20
-5.475
40
0.0314961
50
90
51
270
0
LINE
8
BLACK
6
CONTINUOUS
10
2.30925
20
-4.7065
11
2.34075
21
-4.7065
0
LINE
8
BLACK
6
CONTINUOUS
10
2.30925
20
-4.6435
11
2.34075
21
-4.6435
0
ARC
8
BLACK
10
2.34075
20
-4.675
40
0.0314961
50
270
51
450
0
ARC
8
BLACK
10
2.30925
20
-4.675
40
0.0314961
50
90
51
270
0
LINE
8
BLACK
6
CONTINUOUS
10
2.60925
20
-5.4065
11
2.64075
21
-5.4065
0
LINE
8
BLACK
6
CONTINUOUS
10
2.60925
20
-5.3435
11
2.64075
21
-5.3435
0
ARC
8
BLACK
10
2.64075
20
-5.375
40
0.0314961
50
270
51
450
0
ARC
8
BLACK
10
2.60925
20
-5.375
40
0.0314961
50
90
51
270
0
LINE
8
BLACK
6
CONTINUOUS
10
2.30925
20
-4.8065
11
2.34075
21
-4.8065
0
LINE
8
BLACK
6
CONTINUOUS
10
2.30925
20
-4.7435
11
2.34075
21
-4.7435
0
ARC
8
BLACK
10
2.34075
20
-4.775
40
0.0314961
50
270
51
450
0
ARC
8
BLACK
10
2.30925
20
-4.775
40
0.0314961
50
90
51
270
0
LINE
8
BLACK
6
CONTINUOUS
10
2.60925
20
-5.3065
11
2.64075
21
-5.3065
0
LINE
8
BLACK
6
CONTINUOUS
10
2.60925
20
-5.2435
11
2.64075
21
-5.2435
0
ARC
8
BLACK
10
2.64075
20
-5.275
40
0.0314961
50
270
51
450
0
ARC
8
BLACK
10
2.60925
20
-5.275
40
0.0314961
50
90
51
270
0
LINE
8
BLACK
6
CONTINUOUS
10
2.30925
20
-4.9065
11
2.34075
21
-4.9065
0
LINE
8
BLACK
6
CONTINUOUS
10
2.30925
20
-4.8435
11
2.34075
21
-4.8435
0
ARC
8
BLACK
10
2.34075
20
-4.875
40
0.0314961
50
270
51
450
0
ARC
8
BLACK
10
2.30925
20
-4.875
40
0.0314961
50
90
51
270
0
LINE
8
BLACK
6
CONTINUOUS
10
2.60925
20
-5.2065
11
2.64075
21
-5.2065
0
LINE
8
BLACK
6
CONTINUOUS
10
2.60925
20
-5.1435
11
2.64075
21
-5.1435
0
ARC
8
BLACK
10
2.64075
20
-5.175
40
0.0314961
50
270
51
450
0
ARC
8
BLACK
10
2.60925
20
-5.175
40
0.0314961
50
90
51
270
0
LINE
8
BLACK
6
CONTINUOUS
10
2.30925
20
-5.0065
11
2.34075
21
-5.0065
0
LINE
8
BLACK
6
CONTINUOUS
10
2.30925
20
-4.9435
11
2.34075
21
-4.9435
0
ARC
8
BLACK
10
2.34075
20
-4.975
40
0.0314961
50
270
51
450
0
ARC
8
BLACK
10
2.30925
20
-4.975
40
0.0314961
50
90
51
270
0
LINE
8
BLACK
6
CONTINUOUS
10
2.60925
20
-5.1065
11
2.64075
21
-5.1065
0
LINE
8
BLACK
6
CONTINUOUS
10
2.60925
20
-5.0435
11
2.64075
21
-5.0435
0
ARC
8
BLACK
10
2.64075
20
-5.075
40
0.0314961
50
270
51
450
0
ARC
8
BLACK
10
2.60925
20
-5.075
40
0.0314961
50
90
51
270
0
LINE
8
BLACK
6
CONTINUOUS
10
2.30925
20
-5.1065
11
2.34075
21
-5.1065
0
LINE
8
BLACK
6
CONTINUOUS
10
2.30925
20
-5.0435
11
2.34075
21
-5.0435
0
ARC
8
BLACK
10
2.34075
20
-5.075
40
0.0314961
50
270
51
450
0
ARC
8
BLACK
10
2.30925
20
-5.075
40
0.0314961
50
90
51
270
0
LINE
8
BLACK
6
CONTINUOUS
10
2.60925
20
-5.0065
11
2.64075
21
-5.0065
0
LINE
8
BLACK
6
CONTINUOUS
10
2.60925
20
-4.9435
11
2.64075
21
-4.9435
0
ARC
8
BLACK
10
2.64075
20
-4.975
40
0.0314961
50
270
51
450
0
ARC
8
BLACK
10
2.60925
20
-4.975
40
0.0314961
50
90
51
270
0
LINE
8
BLACK
6
CONTINUOUS
10
2.30925
20
-5.2065
11
2.34075
21
-5.2065
0
LINE
8
BLACK
6
CONTINUOUS
10
2.30925
20
-5.1435
11
2.34075
21
-5.1435
0
ARC
8
BLACK
10
2.34075
20
-5.175
40
0.0314961
50
270
51
450
0
ARC
8
BLACK
10
2.30925
20
-5.175
40
0.0314961
50
90
51
270
0
LINE
8
BLACK
6
CONTINUOUS
10
2.60925
20
-4.9065
11
2.64075
21
-4.9065
0
LINE
8
BLACK
6
CONTINUOUS
10
2.60925
20
-4.8435
11
2.64075
21
-4.8435
0
ARC
8
BLACK
10
2.64075
20
-4.875
40
0.0314961
50
270
51
450
0
ARC
8
BLACK
10
2.60925
20
-4.875
40
0.0314961
50
90
51
270
0
LINE
8
BLACK
6
CONTINUOUS
10
2.30925
20
-5.3065
11
2.34075
21
-5.3065
0
LINE
8
BLACK
6
CONTINUOUS
10
2.30925
20
-5.2435
11
2.34075
21
-5.2435
0
ARC
8
BLACK
10
2.34075
20
-5.275
40
0.0314961
50
270
51
450
0
ARC
8
BLACK
10
2.30925
20
-5.275
40
0.0314961
50
90
51
270
0
LINE
8
BLACK
6
CONTINUOUS
10
2.60925
20
-4.8065
11
2.64075
21
-4.8065
0
LINE
8
BLACK
6
CONTINUOUS
10
2.60925
20
-4.7435
11
2.64075
21
-4.7435
0
ARC
8
BLACK
10
2.64075
20
-4.775
40
0.0314961
50
270
51
450
0
ARC
8
BLACK
10
2.60925
20
-4.775
40
0.0314961
50
90
51
270
0
LINE
8
BLACK
6
CONTINUOUS
10
2.30925
20
-5.4065
11
2.34075
21
-5.4065
0
LINE
8
BLACK
6
CONTINUOUS
10
2.30925
20
-5.3435
11
2.34075
21
-5.3435
0
ARC
8
BLACK
10
2.34075
20
-5.375
40
0.0314961
50
270
51
450
0
ARC
8
BLACK
10
2.30925
20
-5.375
40
0.0314961
50
90
51
270
0
LINE
8
BLACK
6
CONTINUOUS
10
2.60925
20
-4.7065
11
2.64075
21
-4.7065
0
LINE
8
BLACK
6
CONTINUOUS
10
2.60925
20
-4.6435
11
2.64075
21
-4.6435
0
ARC
8
BLACK
10
2.64075
20
-4.675
40
0.0314961
50
270
51
450
0
ARC
8
BLACK
10
2.60925
20
-4.675
40
0.0314961
50
90
51
270
0
LINE
8
BLACK
6
CONTINUOUS
10
2.30925
20
-5.5065
11
2.34075
21
-5.5065
0
LINE
8
BLACK
6
CONTINUOUS
10
2.30925
20
-5.4435
11
2.34075
21
-5.4435
0
ARC
8
BLACK
10
2.34075
20
-5.475
40
0.0314961
50
270
51
450
0
ARC
8
BLACK
10
2.30925
20
-5.475
40
0.0314961
50
90
51
270
0
LINE
8
BLACK
6
CONTINUOUS
10
2.60925
20
-4.6065
11
2.64075
21
-4.6065
0
LINE
8
BLACK
6
CONTINUOUS
10
2.60925
20
-4.5435
11
2.64075
21
-4.5435
0
ARC
8
BLACK
10
2.64075
20
-4.575
40
0.0314961
50
270
51
450
0
ARC
8
BLACK
10
2.60925
20
-4.575
40
0.0314961
50
90
51
270
0
LINE
8
BLACK
6
CONTINUOUS
10
4.55925
20
-4.6315
11
4.59075
21
-4.6315
0
LINE
8
BLACK
6
CONTINUOUS
10
4.55925
20
-4.5685
11
4.59075
21
-4.5685
0
ARC
8
BLACK
10
4.59075
20
-4.6
40
0.0314961
50
270
51
450
0
ARC
8
BLACK
10
4.55925
20
-4.6
40
0.0314961
50
90
51
270
0
LINE
8
BLACK
6
CONTINUOUS
10
4.25925
20
-5.2315
11
4.29075
21
-5.2315
0
LINE
8
BLACK
6
CONTINUOUS
10
4.25925
20
-5.1685
11
4.29075
21
-5.1685
0
ARC
8
BLACK
10
4.29075
20
-5.2
40
0.0314961
50
270
51
450
0
ARC
8
BLACK
10
4.25925
20
-5.2
40
0.0314961
50
90
51
270
0
LINE
8
BLACK
6
CONTINUOUS
10
4.55925
20
-4.7315
11
4.59075
21
-4.7315
0
LINE
8
BLACK
6
CONTINUOUS
10
4.55925
20
-4.6685
11
4.59075
21
-4.6685
0
ARC
8
BLACK
10
4.59075
20
-4.7
40
0.0314961
50
270
51
450
0
ARC
8
BLACK
10
4.55925
20
-4.7
40
0.0314961
50
90
51
270
0
LINE
8
BLACK
6
CONTINUOUS
10
4.25925
20
-5.1315
11
4.29075
21
-5.1315
0
LINE
8
BLACK
6
CONTINUOUS
10
4.25925
20
-5.0685
11
4.29075
21
-5.0685
0
ARC
8
BLACK
10
4.29075
20
-5.1
40
0.0314961
50
270
51
450
0
ARC
8
BLACK
10
4.25925
20
-5.1
40
0.0314961
50
90
51
270
0
LINE
8
BLACK
6
CONTINUOUS
10
4.55925
20
-4.8315
11
4.59075
21
-4.8315
0
LINE
8
BLACK
6
CONTINUOUS
10
4.55925
20
-4.7685
11
4.59075
21
-4.7685
0
ARC
8
BLACK
10
4.59075
20
-4.8
40
0.0314961
50
270
51
450
0
ARC
8
BLACK
10
4.55925
20
-4.8
40
0.0314961
50
90
51
270
0
LINE
8
BLACK
6
CONTINUOUS
10
4.25925
20
-5.0315
11
4.29075
21
-5.0315
0
LINE
8
BLACK
6
CONTINUOUS
10
4.25925
20
-4.9685
11
4.29075
21
-4.9685
0
ARC
8
BLACK
10
4.29075
20
-5
40
0.0314961
50
270
51
450
0
ARC
8
BLACK
10
4.25925
20
-5
40
0.0314961
50
90
51
270
0
LINE
8
BLACK
6
CONTINUOUS
10
4.55925
20
-4.9315
11
4.59075
21
-4.9315
0
LINE
8
BLACK
6
CONTINUOUS
10
4.55925
20
-4.8685
11
4.59075
21
-4.8685
0
ARC
8
BLACK
10
4.59075
20
-4.9
40
0.0314961
50
270
51
450
0
ARC
8
BLACK
10
4.55925
20
-4.9
40
0.0314961
50
90
51
270
0
LINE
8
BLACK
6
CONTINUOUS
10
4.25925
20
-4.9315
11
4.29075
21
-4.9315
0
LINE
8
BLACK
6
CONTINUOUS
10
4.25925
20
-4.8685
11
4.29075
21
-4.8685
0
ARC
8
BLACK
10
4.29075
20
-4.9
40
0.0314961
50
270
51
450
0
ARC
8
BLACK
10
4.25925
20
-4.9
40
0.0314961
50
90
51
270
0
LINE
8
BLACK
6
CONTINUOUS
10
4.55925
20
-5.0315
11
4.59075
21
-5.0315
0
LINE
8
BLACK
6
CONTINUOUS
10
4.55925
20
-4.9685
11
4.59075
21
-4.9685
0
ARC
8
BLACK
10
4.59075
20
-5
40
0.0314961
50
270
51
450
0
ARC
8
BLACK
10
4.55925
20
-5
40
0.0314961
50
90
51
270
0
LINE
8
BLACK
6
CONTINUOUS
10
4.25925
20
-4.8315
11
4.29075
21
-4.8315
0
LINE
8
BLACK
6
CONTINUOUS
10
4.25925
20
-4.7685
11
4.29075
21
-4.7685
0
ARC
8
BLACK
10
4.29075
20
-4.8
40
0.0314961
50
270
51
450
0
ARC
8
BLACK
10
4.25925
20
-4.8
40
0.0314961
50
90
51
270
0
LINE
8
BLACK
6
CONTINUOUS
10
4.55925
20
-5.1315
11
4.59075
21
-5.1315
0
LINE
8
BLACK
6
CONTINUOUS
10
4.55925
20
-5.0685
11
4.59075
21
-5.0685
0
ARC
8
BLACK
10
4.59075
20
-5.1
40
0.0314961
50
270
51
450
0
ARC
8
BLACK
10
4.55925
20
-5.1
40
0.0314961
50
90
51
270
0
LINE
8
BLACK
6
CONTINUOUS
10
4.25925
20
-4.7315
11
4.29075
21
-4.7315
0
LINE
8
BLACK
6
CONTINUOUS
10
4.25925
20
-4.6685
11
4.29075
21
-4.6685
0
ARC
8
BLACK
10
4.29075
20
-4.7
40
0.0314961
50
270
51
450
0
ARC
8
BLACK
10
4.25925
20
-4.7
40
0.0314961
50
90
51
270
0
LINE
8
BLACK
6
CONTINUOUS
10
4.55925
20
-5.2315
11
4.59075
21
-5.2315
0
LINE
8
BLACK
6
CONTINUOUS
10
4.55925
20
-5.1685
11
4.59075
21
-5.1685
0
ARC
8
BLACK
10
4.59075
20
-5.2
40
0.0314961
50
270
51
450
0
ARC
8
BLACK
10
4.55925
20
-5.2
40
0.0314961
50
90
51
270
0
LINE
8
BLACK
6
CONTINUOUS
10
4.22776
20
-4.5685
11
4.22776
21
-4.6315
0
LINE
8
BLACK
6
CONTINUOUS
10
4.22776
20
-4.6315
11
4.32224
21
-4.6315
0
LINE
8
BLACK
6
CONTINUOUS
10
4.32224
20
-4.6315
11
4.32224
21
-4.5685
0
LINE
8
BLACK
6
CONTINUOUS
10
4.32224
20
-4.5685
11
4.22776
21
-4.5685
0
LINE
8
BLACK
6
CONTINUOUS
10
5.00276
20
-1.6935
11
5.00276
21
-1.7565
0
LINE
8
BLACK
6
CONTINUOUS
10
5.00276
20
-1.7565
11
5.09724
21
-1.7565
0
LINE
8
BLACK
6
CONTINUOUS
10
5.09724
20
-1.7565
11
5.09724
21
-1.6935
0
LINE
8
BLACK
6
CONTINUOUS
10
5.09724
20
-1.6935
11
5.00276
21
-1.6935
0
LINE
8
BLACK
6
CONTINUOUS
10
5.33425
20
-2.4565
11
5.36575
21
-2.4565
0
LINE
8
BLACK
6
CONTINUOUS
10
5.33425
20
-2.3935
11
5.36575
21
-2.3935
0
ARC
8
BLACK
10
5.36575
20
-2.425
40
0.0314961
50
270
51
450
0
ARC
8
BLACK
10
5.33425
20
-2.425
40
0.0314961
50
90
51
270
0
LINE
8
BLACK
6
CONTINUOUS
10
5.03425
20
-1.8565
11
5.06575
21
-1.8565
0
LINE
8
BLACK
6
CONTINUOUS
10
5.03425
20
-1.7935
11
5.06575
21
-1.7935
0
ARC
8
BLACK
10
5.06575
20
-1.825
40
0.0314961
50
270
51
450
0
ARC
8
BLACK
10
5.03425
20
-1.825
40
0.0314961
50
90
51
270
0
LINE
8
BLACK
6
CONTINUOUS
10
5.33425
20
-2.3565
11
5.36575
21
-2.3565
0
LINE
8
BLACK
6
CONTINUOUS
10
5.33425
20
-2.2935
11
5.36575
21
-2.2935
0
ARC
8
BLACK
10
5.36575
20
-2.325
40
0.0314961
50
270
51
450
0
ARC
8
BLACK
10
5.33425
20
-2.325
40
0.0314961
50
90
51
270
0
LINE
8
BLACK
6
CONTINUOUS
10
5.03425
20
-1.9565
11
5.06575
21
-1.9565
0
LINE
8
BLACK
6
CONTINUOUS
10
5.03425
20
-1.8935
11
5.06575
21
-1.8935
0
ARC
8
BLACK
10
5.06575
20
-1.925
40
0.0314961
50
270
51
450
0
ARC
8
BLACK
10
5.03425
20
-1.925
40
0.0314961
50
90
51
270
0
LINE
8
BLACK
6
CONTINUOUS
10
5.33425
20
-2.2565
11
5.36575
21
-2.2565
0
LINE
8
BLACK
6
CONTINUOUS
10
5.33425
20
-2.1935
11
5.36575
21
-2.1935
0
ARC
8
BLACK
10
5.36575
20
-2.225
40
0.0314961
50
270
51
450
0
ARC
8
BLACK
10
5.33425
20
-2.225
40
0.0314961
50
90
51
270
0
LINE
8
BLACK
6
CONTINUOUS
10
5.03425
20
-2.0565
11
5.06575
21
-2.0565
0
LINE
8
BLACK
6
CONTINUOUS
10
5.03425
20
-1.9935
11
5.06575
21
-1.9935
0
ARC
8
BLACK
10
5.06575
20
-2.025
40
0.0314961
50
270
51
450
0
ARC
8
BLACK
10
5.03425
20
-2.025
40
0.0314961
50
90
51
270
0
LINE
8
BLACK
6
CONTINUOUS
10
5.33425
20
-2.1565
11
5.36575
21
-2.1565
0
LINE
8
BLACK
6
CONTINUOUS
10
5.33425
20
-2.0935
11
5.36575
21
-2.0935
0
ARC
8
BLACK
10
5.36575
20
-2.125
40
0.0314961
50
270
51
450
0
ARC
8
BLACK
10
5.33425
20
-2.125
40
0.0314961
50
90
51
270
0
LINE
8
BLACK
6
CONTINUOUS
10
5.03425
20
-2.1565
11
5.06575
21
-2.1565
0
LINE
8
BLACK
6
CONTINUOUS
10
5.03425
20
-2.0935
11
5.06575
21
-2.0935
0
ARC
8
BLACK
10
5.06575
20
-2.125
40
0.0314961
50
270
51
450
0
ARC
8
BLACK
10
5.03425
20
-2.125
40
0.0314961
50
90
51
270
0
LINE
8
BLACK
6
CONTINUOUS
10
5.33425
20
-2.0565
11
5.36575
21
-2.0565
0
LINE
8
BLACK
6
CONTINUOUS
10
5.33425
20
-1.9935
11
5.36575
21
-1.9935
0
ARC
8
BLACK
10
5.36575
20
-2.025
40
0.0314961
50
270
51
450
0
ARC
8
BLACK
10
5.33425
20
-2.025
40
0.0314961
50
90
51
270
0
LINE
8
BLACK
6
CONTINUOUS
10
5.03425
20
-2.2565
11
5.06575
21
-2.2565
0
LINE
8
BLACK
6
CONTINUOUS
10
5.03425
20
-2.1935
11
5.06575
21
-2.1935
0
ARC
8
BLACK
10
5.06575
20
-2.225
40
0.0314961
50
270
51
450
0
ARC
8
BLACK
10
5.03425
20
-2.225
40
0.0314961
50
90
51
270
0
LINE
8
BLACK
6
CONTINUOUS
10
5.33425
20
-1.9565
11
5.36575
21
-1.9565
0
LINE
8
BLACK
6
CONTINUOUS
10
5.33425
20
-1.8935
11
5.36575
21
-1.8935
0
ARC
8
BLACK
10
5.36575
20
-1.925
40
0.0314961
50
270
51
450
0
ARC
8
BLACK
10
5.33425
20
-1.925
40
0.0314961
50
90
51
270
0
LINE
8
BLACK
6
CONTINUOUS
10
5.03425
20
-2.3565
11
5.06575
21
-2.3565
0
LINE
8
BLACK
6
CONTINUOUS
10
5.03425
20
-2.2935
11
5.06575
21
-2.2935
0
ARC
8
BLACK
10
5.06575
20
-2.325
40
0.0314961
50
270
51
450
0
ARC
8
BLACK
10
5.03425
20
-2.325
40
0.0314961
50
90
51
270
0
LINE
8
BLACK
6
CONTINUOUS
10
5.33425
20
-1.8565
11
5.36575
21
-1.8565
0
LINE
8
BLACK
6
CONTINUOUS
10
5.33425
20
-1.7935
11
5.36575
21
-1.7935
0
ARC
8
BLACK
10
5.36575
20
-1.825
40
0.0314961
50
270
51
450
0
ARC
8
BLACK
10
5.33425
20
-1.825
40
0.0314961
50
90
51
270
0
LINE
8
BLACK
6
CONTINUOUS
10
5.03425
20
-2.4565
11
5.06575
21
-2.4565
0
LINE
8
BLACK
6
CONTINUOUS
10
5.03425
20
-2.3935
11
5.06575
21
-2.3935
0
ARC
8
BLACK
10
5.06575
20
-2.425
40
0.0314961
50
270
51
450
0
ARC
8
BLACK
10
5.03425
20
-2.425
40
0.0314961
50
90
51
270
0
LINE
8
BLACK
6
CONTINUOUS
10
5.33425
20
-1.7565
11
5.36575
21
-1.7565
0
LINE
8
BLACK
6
CONTINUOUS
10
5.33425
20
-1.6935
11
5.36575
21
-1.6935
0
ARC
8
BLACK
10
5.36575
20
-1.725
40
0.0314961
50
270
51
450
0
ARC
8
BLACK
10
5.33425
20
-1.725
40
0.0314961
50
90
51
270
0
LINE
8
BLACK
6
CONTINUOUS
10
3.52776
20
-4.5685
11
3.52776
21
-4.6315
0
LINE
8
BLACK
6
CONTINUOUS
10
3.52776
20
-4.6315
11
3.62224
21
-4.6315
0
LINE
8
BLACK
6
CONTINUOUS
10
3.62224
20
-4.6315
11
3.62224
21
-4.5685
0
LINE
8
BLACK
6
CONTINUOUS
10
3.62224
20
-4.5685
11
3.52776
21
-4.5685
0
LINE
8
BLACK
6
CONTINUOUS
10
3.85925
20
-5.2315
11
3.89075
21
-5.2315
0
LINE
8
BLACK
6
CONTINUOUS
10
3.85925
20
-5.1685
11
3.89075
21
-5.1685
0
ARC
8
BLACK
10
3.89075
20
-5.2
40
0.0314961
50
270
51
450
0
ARC
8
BLACK
10
3.85925
20
-5.2
40
0.0314961
50
90
51
270
0
LINE
8
BLACK
6
CONTINUOUS
10
3.55925
20
-4.7315
11
3.59075
21
-4.7315
0
LINE
8
BLACK
6
CONTINUOUS
10
3.55925
20
-4.6685
11
3.59075
21
-4.6685
0
ARC
8
BLACK
10
3.59075
20
-4.7
40
0.0314961
50
270
51
450
0
ARC
8
BLACK
10
3.55925
20
-4.7
40
0.0314961
50
90
51
270
0
LINE
8
BLACK
6
CONTINUOUS
10
3.85925
20
-5.1315
11
3.89075
21
-5.1315
0
LINE
8
BLACK
6
CONTINUOUS
10
3.85925
20
-5.0685
11
3.89075
21
-5.0685
0
ARC
8
BLACK
10
3.89075
20
-5.1
40
0.0314961
50
270
51
450
0
ARC
8
BLACK
10
3.85925
20
-5.1
40
0.0314961
50
90
51
270
0
LINE
8
BLACK
6
CONTINUOUS
10
3.55925
20
-4.8315
11
3.59075
21
-4.8315
0
LINE
8
BLACK
6
CONTINUOUS
10
3.55925
20
-4.7685
11
3.59075
21
-4.7685
0
ARC
8
BLACK
10
3.59075
20
-4.8
40
0.0314961
50
270
51
450
0
ARC
8
BLACK
10
3.55925
20
-4.8
40
0.0314961
50
90
51
270
0
LINE
8
BLACK
6
CONTINUOUS
10
3.85925
20
-5.0315
11
3.89075
21
-5.0315
0
LINE
8
BLACK
6
CONTINUOUS
10
3.85925
20
-4.9685
11
3.89075
21
-4.9685
0
ARC
8
BLACK
10
3.89075
20
-5
40
0.0314961
50
270
51
450
0
ARC
8
BLACK
10
3.85925
20
-5
40
0.0314961
50
90
51
270
0
LINE
8
BLACK
6
CONTINUOUS
10
3.55925
20
-4.9315
11
3.59075
21
-4.9315
0
LINE
8
BLACK
6
CONTINUOUS
10
3.55925
20
-4.8685
11
3.59075
21
-4.8685
0
ARC
8
BLACK
10
3.59075
20
-4.9
40
0.0314961
50
270
51
450
0
ARC
8
BLACK
10
3.55925
20
-4.9
40
0.0314961
50
90
51
270
0
LINE
8
BLACK
6
CONTINUOUS
10
3.85925
20
-4.9315
11
3.89075
21
-4.9315
0
LINE
8
BLACK
6
CONTINUOUS
10
3.85925
20
-4.8685
11
3.89075
21
-4.8685
0
ARC
8
BLACK
10
3.89075
20
-4.9
40
0.0314961
50
270
51
450
0
ARC
8
BLACK
10
3.85925
20
-4.9
40
0.0314961
50
90
51
270
0
LINE
8
BLACK
6
CONTINUOUS
10
3.55925
20
-5.0315
11
3.59075
21
-5.0315
0
LINE
8
BLACK
6
CONTINUOUS
10
3.55925
20
-4.9685
11
3.59075
21
-4.9685
0
ARC
8
BLACK
10
3.59075
20
-5
40
0.0314961
50
270
51
450
0
ARC
8
BLACK
10
3.55925
20
-5
40
0.0314961
50
90
51
270
0
LINE
8
BLACK
6
CONTINUOUS
10
3.85925
20
-4.8315
11
3.89075
21
-4.8315
0
LINE
8
BLACK
6
CONTINUOUS
10
3.85925
20
-4.7685
11
3.89075
21
-4.7685
0
ARC
8
BLACK
10
3.89075
20
-4.8
40
0.0314961
50
270
51
450
0
ARC
8
BLACK
10
3.85925
20
-4.8
40
0.0314961
50
90
51
270
0
LINE
8
BLACK
6
CONTINUOUS
10
3.55925
20
-5.1315
11
3.59075
21
-5.1315
0
LINE
8
BLACK
6
CONTINUOUS
10
3.55925
20
-5.0685
11
3.59075
21
-5.0685
0
ARC
8
BLACK
10
3.59075
20
-5.1
40
0.0314961
50
270
51
450
0
ARC
8
BLACK
10
3.55925
20
-5.1
40
0.0314961
50
90
51
270
0
LINE
8
BLACK
6
CONTINUOUS
10
3.85925
20
-4.7315
11
3.89075
21
-4.7315
0
LINE
8
BLACK
6
CONTINUOUS
10
3.85925
20
-4.6685
11
3.89075
21
-4.6685
0
ARC
8
BLACK
10
3.89075
20
-4.7
40
0.0314961
50
270
51
450
0
ARC
8
BLACK
10
3.85925
20
-4.7
40
0.0314961
50
90
51
270
0
LINE
8
BLACK
6
CONTINUOUS
10
3.55925
20
-5.2315
11
3.59075
21
-5.2315
0
LINE
8
BLACK
6
CONTINUOUS
10
3.55925
20
-5.1685
11
3.59075
21
-5.1685
0
ARC
8
BLACK
10
3.59075
20
-5.2
40
0.0314961
50
270
51
450
0
ARC
8
BLACK
10
3.55925
20
-5.2
40
0.0314961
50
90
51
270
0
LINE
8
BLACK
6
CONTINUOUS
10
3.85925
20
-4.6315
11
3.89075
21
-4.6315
0
LINE
8
BLACK
6
CONTINUOUS
10
3.85925
20
-4.5685
11
3.89075
21
-4.5685
0
ARC
8
BLACK
10
3.89075
20
-4.6
40
0.0314961
50
270
51
450
0
ARC
8
BLACK
10
3.85925
20
-4.6
40
0.0314961
50
90
51
270
0
LINE
8
BLACK
6
CONTINUOUS
10
2.7125
20
-1.16063
11
2.7125
21
-1.23937
0
LINE
8
BLACK
6
CONTINUOUS
10
2.7125
20
-1.23937
11
2.7875
21
-1.23937
0
LINE
8
BLACK
6
CONTINUOUS
10
2.7875
20
-1.23937
11
2.7875
21
-1.16063
0
LINE
8
BLACK
6
CONTINUOUS
10
2.7875
20
-1.16063
11
2.7125
21
-1.16063
0
LINE
8
BLACK
6
CONTINUOUS
10
2.8125
20
-1.19813
11
2.8125
21
-1.20187
0
LINE
8
BLACK
6
CONTINUOUS
10
2.8875
20
-1.19813
11
2.8875
21
-1.20187
0
ARC
8
BLACK
10
2.85
20
-1.20187
40
0.0375
50
180
51
360
0
ARC
8
BLACK
10
2.85
20
-1.19813
40
0.0375
50
0
51
180
0
LINE
8
BLACK
6
CONTINUOUS
10
2.9125
20
-1.19813
11
2.9125
21
-1.20187
0
LINE
8
BLACK
6
CONTINUOUS
10
2.9875
20
-1.19813
11
2.9875
21
-1.20187
0
ARC
8
BLACK
10
2.95
20
-1.20187
40
0.0375
50
180
51
360
0
ARC
8
BLACK
10
2.95
20
-1.19813
40
0.0375
50
0
51
180
0
LINE
8
BLACK
6
CONTINUOUS
10
3.9185
20
-1.89724
11
3.9815
21
-1.89724
0
LINE
8
BLACK
6
CONTINUOUS
10
3.9815
20
-1.89724
11
3.9815
21
-1.80276
0
LINE
8
BLACK
6
CONTINUOUS
10
3.9815
20
-1.80276
11
3.9185
21
-1.80276
0
LINE
8
BLACK
6
CONTINUOUS
10
3.9185
20
-1.80276
11
3.9185
21
-1.89724
0
LINE
8
BLACK
6
CONTINUOUS
10
4.5815
20
-1.56575
11
4.5815
21
-1.53425
0
LINE
8
BLACK
6
CONTINUOUS
10
4.5185
20
-1.56575
11
4.5185
21
-1.53425
0
ARC
8
BLACK
10
4.55
20
-1.53425
40
0.0314961
50
360
51
540
0
ARC
8
BLACK
10
4.55
20
-1.56575
40
0.0314961
50
180
51
360
0
LINE
8
BLACK
6
CONTINUOUS
10
4.0815
20
-1.86575
11
4.0815
21
-1.83425
0
LINE
8
BLACK
6
CONTINUOUS
10
4.0185
20
-1.86575
11
4.0185
21
-1.83425
0
ARC
8
BLACK
10
4.05
20
-1.83425
40
0.0314961
50
360
51
540
0
ARC
8
BLACK
10
4.05
20
-1.86575
40
0.0314961
50
180
51
360
0
LINE
8
BLACK
6
CONTINUOUS
10
4.4815
20
-1.56575
11
4.4815
21
-1.53425
0
LINE
8
BLACK
6
CONTINUOUS
10
4.4185
20
-1.56575
11
4.4185
21
-1.53425
0
ARC
8
BLACK
10
4.45
20
-1.53425
40
0.0314961
50
360
51
540
0
ARC
8
BLACK
10
4.45
20
-1.56575
40
0.0314961
50
180
51
360
0
LINE
8
BLACK
6
CONTINUOUS
10
4.1815
20
-1.86575
11
4.1815
21
-1.83425
0
LINE
8
BLACK
6
CONTINUOUS
10
4.1185
20
-1.86575
11
4.1185
21
-1.83425
0
ARC
8
BLACK
10
4.15
20
-1.83425
40
0.0314961
50
360
51
540
0
ARC
8
BLACK
10
4.15
20
-1.86575
40
0.0314961
50
180
51
360
0
LINE
8
BLACK
6
CONTINUOUS
10
4.3815
20
-1.56575
11
4.3815
21
-1.53425
0
LINE
8
BLACK
6
CONTINUOUS
10
4.3185
20
-1.56575
11
4.3185
21
-1.53425
0
ARC
8
BLACK
10
4.35
20
-1.53425
40
0.0314961
50
360
51
540
0
ARC
8
BLACK
10
4.35
20
-1.56575
40
0.0314961
50
180
51
360
0
LINE
8
BLACK
6
CONTINUOUS
10
4.2815
20
-1.86575
11
4.2815
21
-1.83425
0
LINE
8
BLACK
6
CONTINUOUS
10
4.2185
20
-1.86575
11
4.2185
21
-1.83425
0
ARC
8
BLACK
10
4.25
20
-1.83425
40
0.0314961
50
360
51
540
0
ARC
8
BLACK
10
4.25
20
-1.86575
40
0.0314961
50
180
51
360
0
LINE
8
BLACK
6
CONTINUOUS
10
4.2815
20
-1.56575
11
4.2815
21
-1.53425
0
LINE
8
BLACK
6
CONTINUOUS
10
4.2185
20
-1.56575
11
4.2185
21
-1.53425
0
ARC
8
BLACK
10
4.25
20
-1.53425
40
0.0314961
50
360
51
540
0
ARC
8
BLACK
10
4.25
20
-1.56575
40
0.0314961
50
180
51
360
0
LINE
8
BLACK
6
CONTINUOUS
10
4.3815
20
-1.86575
11
4.3815
21
-1.83425
0
LINE
8
BLACK
6
CONTINUOUS
10
4.3185
20
-1.86575
11
4.3185
21
-1.83425
0
ARC
8
BLACK
10
4.35
20
-1.83425
40
0.0314961
50
360
51
540
0
ARC
8
BLACK
10
4.35
20
-1.86575
40
0.0314961
50
180
51
360
0
LINE
8
BLACK
6
CONTINUOUS
10
4.1815
20
-1.56575
11
4.1815
21
-1.53425
0
LINE
8
BLACK
6
CONTINUOUS
10
4.1185
20
-1.56575
11
4.1185
21
-1.53425
0
ARC
8
BLACK
10
4.15
20
-1.53425
40
0.0314961
50
360
51
540
0
ARC
8
BLACK
10
4.15
20
-1.56575
40
0.0314961
50
180
51
360
0
LINE
8
BLACK
6
CONTINUOUS
10
4.4815
20
-1.86575
11
4.4815
21
-1.83425
0
LINE
8
BLACK
6
CONTINUOUS
10
4.4185
20
-1.86575
11
4.4185
21
-1.83425
0
ARC
8
BLACK
10
4.45
20
-1.83425
40
0.0314961
50
360
51
540
0
ARC
8
BLACK
10
4.45
20
-1.86575
40
0.0314961
50
180
51
360
0
LINE
8
BLACK
6
CONTINUOUS
10
4.0815
20
-1.56575
11
4.0815
21
-1.53425
0
LINE
8
BLACK
6
CONTINUOUS
10
4.0185
20
-1.56575
11
4.0185
21
-1.53425
0
ARC
8
BLACK
10
4.05
20
-1.53425
40
0.0314961
50
360
51
540
0
ARC
8
BLACK
10
4.05
20
-1.56575
40
0.0314961
50
180
51
360
0
LINE
8
BLACK
6
CONTINUOUS
10
4.5815
20
-1.86575
11
4.5815
21
-1.83425
0
LINE
8
BLACK
6
CONTINUOUS
10
4.5185
20
-1.86575
11
4.5185
21
-1.83425
0
ARC
8
BLACK
10
4.55
20
-1.83425
40
0.0314961
50
360
51
540
0
ARC
8
BLACK
10
4.55
20
-1.86575
40
0.0314961
50
180
51
360
0
LINE
8
BLACK
6
CONTINUOUS
10
3.9815
20
-1.56575
11
3.9815
21
-1.53425
0
LINE
8
BLACK
6
CONTINUOUS
10
3.9185
20
-1.56575
11
3.9185
21
-1.53425
0
ARC
8
BLACK
10
3.95
20
-1.53425
40
0.0314961
50
360
51
540
0
ARC
8
BLACK
10
3.95
20
-1.56575
40
0.0314961
50
180
51
360
0
LINE
8
BLACK
6
CONTINUOUS
10
2.9685
20
-1.89724
11
3.0315
21
-1.89724
0
LINE
8
BLACK
6
CONTINUOUS
10
3.0315
20
-1.89724
11
3.0315
21
-1.80276
0
LINE
8
BLACK
6
CONTINUOUS
10
3.0315
20
-1.80276
11
2.9685
21
-1.80276
0
LINE
8
BLACK
6
CONTINUOUS
10
2.9685
20
-1.80276
11
2.9685
21
-1.89724
0
LINE
8
BLACK
6
CONTINUOUS
10
3.6315
20
-1.56575
11
3.6315
21
-1.53425
0
LINE
8
BLACK
6
CONTINUOUS
10
3.5685
20
-1.56575
11
3.5685
21
-1.53425
0
ARC
8
BLACK
10
3.6
20
-1.53425
40
0.0314961
50
360
51
540
0
ARC
8
BLACK
10
3.6
20
-1.56575
40
0.0314961
50
180
51
360
0
LINE
8
BLACK
6
CONTINUOUS
10
3.1315
20
-1.86575
11
3.1315
21
-1.83425
0
LINE
8
BLACK
6
CONTINUOUS
10
3.0685
20
-1.86575
11
3.0685
21
-1.83425
0
ARC
8
BLACK
10
3.1
20
-1.83425
40
0.0314961
50
360
51
540
0
ARC
8
BLACK
10
3.1
20
-1.86575
40
0.0314961
50
180
51
360
0
LINE
8
BLACK
6
CONTINUOUS
10
3.5315
20
-1.56575
11
3.5315
21
-1.53425
0
LINE
8
BLACK
6
CONTINUOUS
10
3.4685
20
-1.56575
11
3.4685
21
-1.53425
0
ARC
8
BLACK
10
3.5
20
-1.53425
40
0.0314961
50
360
51
540
0
ARC
8
BLACK
10
3.5
20
-1.56575
40
0.0314961
50
180
51
360
0
LINE
8
BLACK
6
CONTINUOUS
10
3.2315
20
-1.86575
11
3.2315
21
-1.83425
0
LINE
8
BLACK
6
CONTINUOUS
10
3.1685
20
-1.86575
11
3.1685
21
-1.83425
0
ARC
8
BLACK
10
3.2
20
-1.83425
40
0.0314961
50
360
51
540
0
ARC
8
BLACK
10
3.2
20
-1.86575
40
0.0314961
50
180
51
360
0
LINE
8
BLACK
6
CONTINUOUS
10
3.4315
20
-1.56575
11
3.4315
21
-1.53425
0
LINE
8
BLACK
6
CONTINUOUS
10
3.3685
20
-1.56575
11
3.3685
21
-1.53425
0
ARC
8
BLACK
10
3.4
20
-1.53425
40
0.0314961
50
360
51
540
0
ARC
8
BLACK
10
3.4
20
-1.56575
40
0.0314961
50
180
51
360
0
LINE
8
BLACK
6
CONTINUOUS
10
3.3315
20
-1.86575
11
3.3315
21
-1.83425
0
LINE
8
BLACK
6
CONTINUOUS
10
3.2685
20
-1.86575
11
3.2685
21
-1.83425
0
ARC
8
BLACK
10
3.3
20
-1.83425
40
0.0314961
50
360
51
540
0
ARC
8
BLACK
10
3.3
20
-1.86575
40
0.0314961
50
180
51
360
0
LINE
8
BLACK
6
CONTINUOUS
10
3.3315
20
-1.56575
11
3.3315
21
-1.53425
0
LINE
8
BLACK
6
CONTINUOUS
10
3.2685
20
-1.56575
11
3.2685
21
-1.53425
0
ARC
8
BLACK
10
3.3
20
-1.53425
40
0.0314961
50
360
51
540
0
ARC
8
BLACK
10
3.3
20
-1.56575
40
0.0314961
50
180
51
360
0
LINE
8
BLACK
6
CONTINUOUS
10
3.4315
20
-1.86575
11
3.4315
21
-1.83425
0
LINE
8
BLACK
6
CONTINUOUS
10
3.3685
20
-1.86575
11
3.3685
21
-1.83425
0
ARC
8
BLACK
10
3.4
20
-1.83425
40
0.0314961
50
360
51
540
0
ARC
8
BLACK
10
3.4
20
-1.86575
40
0.0314961
50
180
51
360
0
LINE
8
BLACK
6
CONTINUOUS
10
3.2315
20
-1.56575
11
3.2315
21
-1.53425
0
LINE
8
BLACK
6
CONTINUOUS
10
3.1685
20
-1.56575
11
3.1685
21
-1.53425
0
ARC
8
BLACK
10
3.2
20
-1.53425
40
0.0314961
50
360
51
540
0
ARC
8
BLACK
10
3.2
20
-1.56575
40
0.0314961
50
180
51
360
0
LINE
8
BLACK
6
CONTINUOUS
10
3.5315
20
-1.86575
11
3.5315
21
-1.83425
0
LINE
8
BLACK
6
CONTINUOUS
10
3.4685
20
-1.86575
11
3.4685
21
-1.83425
0
ARC
8
BLACK
10
3.5
20
-1.83425
40
0.0314961
50
360
51
540
0
ARC
8
BLACK
10
3.5
20
-1.86575
40
0.0314961
50
180
51
360
0
LINE
8
BLACK
6
CONTINUOUS
10
3.1315
20
-1.56575
11
3.1315
21
-1.53425
0
LINE
8
BLACK
6
CONTINUOUS
10
3.0685
20
-1.56575
11
3.0685
21
-1.53425
0
ARC
8
BLACK
10
3.1
20
-1.53425
40
0.0314961
50
360
51
540
0
ARC
8
BLACK
10
3.1
20
-1.56575
40
0.0314961
50
180
51
360
0
LINE
8
BLACK
6
CONTINUOUS
10
3.6315
20
-1.86575
11
3.6315
21
-1.83425
0
LINE
8
BLACK
6
CONTINUOUS
10
3.5685
20
-1.86575
11
3.5685
21
-1.83425
0
ARC
8
BLACK
10
3.6
20
-1.83425
40
0.0314961
50
360
51
540
0
ARC
8
BLACK
10
3.6
20
-1.86575
40
0.0314961
50
180
51
360
0
LINE
8
BLACK
6
CONTINUOUS
10
3.0315
20
-1.56575
11
3.0315
21
-1.53425
0
LINE
8
BLACK
6
CONTINUOUS
10
2.9685
20
-1.56575
11
2.9685
21
-1.53425
0
ARC
8
BLACK
10
3
20
-1.53425
40
0.0314961
50
360
51
540
0
ARC
8
BLACK
10
3
20
-1.56575
40
0.0314961
50
180
51
360
0
CIRCLE
8
BLACK
10
1.15
20
-1.15
40
0.125984
  0
ENDSEC
  0
EOF
