%TF.GenerationSoftware,KiCad,Pcbnew,6.0.11-2627ca5db0~126~ubuntu22.04.1*%
%TF.CreationDate,2023-02-11T20:38:48-05:00*%
%TF.ProjectId,psu,7073752e-6b69-4636-9164-5f7063625858,rev?*%
%TF.SameCoordinates,Original*%
%TF.FileFunction,Soldermask,Bot*%
%TF.FilePolarity,Negative*%
%FSLAX46Y46*%
G04 Gerber Fmt 4.6, Leading zero omitted, Abs format (unit mm)*
G04 Created by KiCad (PCBNEW 6.0.11-2627ca5db0~126~ubuntu22.04.1) date 2023-02-11 20:38:48*
%MOMM*%
%LPD*%
G01*
G04 APERTURE LIST*
G04 Aperture macros list*
%AMRoundRect*
0 Rectangle with rounded corners*
0 $1 Rounding radius*
0 $2 $3 $4 $5 $6 $7 $8 $9 X,Y pos of 4 corners*
0 Add a 4 corners polygon primitive as box body*
4,1,4,$2,$3,$4,$5,$6,$7,$8,$9,$2,$3,0*
0 Add four circle primitives for the rounded corners*
1,1,$1+$1,$2,$3*
1,1,$1+$1,$4,$5*
1,1,$1+$1,$6,$7*
1,1,$1+$1,$8,$9*
0 Add four rect primitives between the rounded corners*
20,1,$1+$1,$2,$3,$4,$5,0*
20,1,$1+$1,$4,$5,$6,$7,0*
20,1,$1+$1,$6,$7,$8,$9,0*
20,1,$1+$1,$8,$9,$2,$3,0*%
G04 Aperture macros list end*
%ADD10O,1.600000X1.600000*%
%ADD11C,1.600000*%
%ADD12R,1.800000X1.800000*%
%ADD13C,1.800000*%
%ADD14RoundRect,0.250000X-1.330000X-1.800000X1.330000X-1.800000X1.330000X1.800000X-1.330000X1.800000X0*%
%ADD15O,3.160000X4.100000*%
%ADD16C,4.300000*%
%ADD17R,2.400000X2.400000*%
%ADD18C,2.400000*%
%ADD19R,2.200000X2.200000*%
%ADD20O,2.200000X2.200000*%
%ADD21C,1.905000*%
%ADD22R,2.000000X1.905000*%
%ADD23O,2.000000X1.905000*%
%ADD24R,2.000000X2.000000*%
%ADD25C,2.000000*%
%ADD26R,1.600000X1.600000*%
%ADD27R,4.000000X4.000000*%
%ADD28C,4.000000*%
%ADD29O,2.400000X2.400000*%
%ADD30RoundRect,0.250000X-0.620000X-0.845000X0.620000X-0.845000X0.620000X0.845000X-0.620000X0.845000X0*%
%ADD31O,1.740000X2.190000*%
%ADD32C,2.600000*%
%ADD33C,5.000000*%
%ADD34RoundRect,0.250000X1.800000X-1.330000X1.800000X1.330000X-1.800000X1.330000X-1.800000X-1.330000X0*%
%ADD35O,4.100000X3.160000*%
%ADD36RoundRect,0.250000X1.330000X1.800000X-1.330000X1.800000X-1.330000X-1.800000X1.330000X-1.800000X0*%
%ADD37R,1.700000X1.700000*%
%ADD38O,1.700000X1.700000*%
%ADD39C,2.200000*%
%ADD40R,2.400000X1.600000*%
%ADD41O,2.400000X1.600000*%
%ADD42O,1.800000X3.000000*%
G04 APERTURE END LIST*
D10*
%TO.C,R13*%
X187960000Y-101600000D03*
D11*
X187960000Y-88900000D03*
%TD*%
D12*
%TO.C,D12*%
X191775000Y-110490000D03*
D13*
X189235000Y-110490000D03*
%TD*%
D14*
%TO.C,J5*%
X44300000Y-134725000D03*
D15*
X48260000Y-134725000D03*
X52220000Y-134725000D03*
%TD*%
D16*
%TO.C,H1*%
X198120000Y-121920000D03*
%TD*%
D14*
%TO.C,J3*%
X84380000Y-29315000D03*
D15*
X88340000Y-29315000D03*
%TD*%
D17*
%TO.C,C8*%
X133680000Y-88900000D03*
D18*
X128680000Y-88900000D03*
%TD*%
D19*
%TO.C,D2*%
X149860000Y-33020000D03*
D20*
X160020000Y-33020000D03*
%TD*%
D14*
%TO.C,J8*%
X62080000Y-134725000D03*
D15*
X66040000Y-134725000D03*
X70000000Y-134725000D03*
%TD*%
D14*
%TO.C,J6*%
X97790000Y-134620000D03*
D15*
X101750000Y-134620000D03*
X105710000Y-134620000D03*
X109670000Y-134620000D03*
X113630000Y-134620000D03*
%TD*%
D11*
%TO.C,R6*%
X182880000Y-106680000D03*
D10*
X182880000Y-91440000D03*
%TD*%
D21*
%TO.C,F1*%
X63053750Y-44450000D03*
X47813750Y-44450000D03*
X30033750Y-44450000D03*
%TD*%
D11*
%TO.C,R8*%
X146050000Y-77470000D03*
D10*
X130810000Y-77470000D03*
%TD*%
D11*
%TO.C,R9*%
X127000000Y-77470000D03*
D10*
X111760000Y-77470000D03*
%TD*%
D17*
%TO.C,C5*%
X156540000Y-116840000D03*
D18*
X151540000Y-116840000D03*
%TD*%
D11*
%TO.C,R3*%
X49530000Y-55880000D03*
D10*
X36830000Y-55880000D03*
%TD*%
D22*
%TO.C,U1*%
X59690000Y-92710000D03*
D23*
X59690000Y-90170000D03*
X59690000Y-87630000D03*
%TD*%
D24*
%TO.C,D14*%
X77487500Y-93817500D03*
D25*
X77487500Y-88817500D03*
X77487500Y-83817500D03*
X77487500Y-78817500D03*
%TD*%
D26*
%TO.C,C11*%
X66040000Y-102870000D03*
D11*
X66040000Y-100870000D03*
%TD*%
D17*
%TO.C,C10*%
X118440000Y-88900000D03*
D18*
X113440000Y-88900000D03*
%TD*%
D14*
%TO.C,J13*%
X79225000Y-134725000D03*
D15*
X83185000Y-134725000D03*
X87145000Y-134725000D03*
%TD*%
D11*
%TO.C,C12*%
X59690000Y-77510000D03*
X59690000Y-82510000D03*
%TD*%
D19*
%TO.C,D3*%
X156784785Y-107950000D03*
D20*
X156784785Y-97790000D03*
%TD*%
D27*
%TO.C,C14*%
X104562169Y-60960000D03*
D28*
X114562169Y-60960000D03*
%TD*%
D19*
%TO.C,D10*%
X111064785Y-107950000D03*
D20*
X111064785Y-97790000D03*
%TD*%
D11*
%TO.C,R11*%
X189230000Y-43180000D03*
D10*
X173990000Y-43180000D03*
%TD*%
D19*
%TO.C,D6*%
X141544785Y-107950000D03*
D20*
X141544785Y-97790000D03*
%TD*%
D19*
%TO.C,D1*%
X164404785Y-97790000D03*
D20*
X164404785Y-107950000D03*
%TD*%
D16*
%TO.C,H4*%
X30480000Y-134620000D03*
%TD*%
D11*
%TO.C,R10*%
X189230000Y-38100000D03*
D10*
X173990000Y-38100000D03*
%TD*%
D18*
%TO.C,R4*%
X134620000Y-41910000D03*
D29*
X109220000Y-41910000D03*
%TD*%
D16*
%TO.C,H2*%
X30480000Y-30480000D03*
%TD*%
D30*
%TO.C,J9*%
X61595000Y-117495000D03*
D31*
X64135000Y-117495000D03*
X66675000Y-117495000D03*
X69215000Y-117495000D03*
%TD*%
D22*
%TO.C,Q1*%
X199065000Y-88900000D03*
D23*
X199065000Y-86360000D03*
X199065000Y-83820000D03*
%TD*%
D19*
%TO.C,D5*%
X149164785Y-97790000D03*
D20*
X149164785Y-107950000D03*
%TD*%
D11*
%TO.C,R7*%
X166370000Y-77470000D03*
D10*
X151130000Y-77470000D03*
%TD*%
D27*
%TO.C,C4*%
X129962169Y-60960000D03*
D28*
X139962169Y-60960000D03*
%TD*%
D32*
%TO.C,J2*%
X40560000Y-91280000D03*
X40560000Y-100330000D03*
X40560000Y-109380000D03*
D33*
X30860000Y-80330000D03*
X30860000Y-120330000D03*
%TD*%
D12*
%TO.C,NE1*%
X31525000Y-53995000D03*
D13*
X31525000Y-56535000D03*
%TD*%
D11*
%TO.C,R12*%
X192405000Y-101600000D03*
D10*
X192405000Y-88900000D03*
%TD*%
D17*
%TO.C,C3*%
X164160000Y-88900000D03*
D18*
X159160000Y-88900000D03*
%TD*%
%TO.C,R2*%
X167640000Y-41910000D03*
D29*
X142240000Y-41910000D03*
%TD*%
D34*
%TO.C,J7*%
X198225000Y-67200000D03*
D35*
X198225000Y-63240000D03*
X198225000Y-59280000D03*
X198225000Y-55320000D03*
X198225000Y-51360000D03*
X198225000Y-47400000D03*
X198225000Y-43440000D03*
X198225000Y-39480000D03*
%TD*%
D16*
%TO.C,H3*%
X198120000Y-30480000D03*
%TD*%
D17*
%TO.C,C6*%
X148920000Y-88900000D03*
D18*
X143920000Y-88900000D03*
%TD*%
%TO.C,R5*%
X102235000Y-41910000D03*
D29*
X76835000Y-41910000D03*
%TD*%
D17*
%TO.C,C9*%
X125915216Y-116840000D03*
D18*
X120915216Y-116840000D03*
%TD*%
D26*
%TO.C,C13*%
X77470000Y-102870000D03*
D11*
X77470000Y-100870000D03*
%TD*%
D27*
%TO.C,C15*%
X79797169Y-60960000D03*
D28*
X89797169Y-60960000D03*
%TD*%
D30*
%TO.C,J10*%
X79375000Y-117495000D03*
D31*
X81915000Y-117495000D03*
X84455000Y-117495000D03*
X86995000Y-117495000D03*
%TD*%
D36*
%TO.C,J4*%
X148330000Y-133880000D03*
D15*
X144370000Y-133880000D03*
X140410000Y-133880000D03*
X136450000Y-133880000D03*
X132490000Y-133880000D03*
X128530000Y-133880000D03*
%TD*%
D37*
%TO.C,J1*%
X173990000Y-29210000D03*
D38*
X176530000Y-29210000D03*
%TD*%
D27*
%TO.C,C2*%
X154092169Y-60960000D03*
D28*
X164092169Y-60960000D03*
%TD*%
D17*
%TO.C,C7*%
X141300000Y-116840000D03*
D18*
X136300000Y-116840000D03*
%TD*%
D17*
%TO.C,C1*%
X171780000Y-116840000D03*
D18*
X166780000Y-116840000D03*
%TD*%
D19*
%TO.C,J14*%
X99390000Y-106680000D03*
D39*
X99390000Y-102720000D03*
X99390000Y-98760000D03*
X99390000Y-94800000D03*
X99390000Y-90840000D03*
%TD*%
D40*
%TO.C,K1*%
X184165000Y-74930000D03*
D41*
X184165000Y-59690000D03*
X184165000Y-54610000D03*
X184165000Y-49530000D03*
X176545000Y-49530000D03*
X176545000Y-54610000D03*
X176545000Y-59690000D03*
X176545000Y-74930000D03*
%TD*%
D19*
%TO.C,D8*%
X126304785Y-107950000D03*
D20*
X126304785Y-97790000D03*
%TD*%
D19*
%TO.C,D7*%
X133924785Y-97790000D03*
D20*
X133924785Y-107950000D03*
%TD*%
D19*
%TO.C,D9*%
X118684785Y-97790000D03*
D20*
X118684785Y-107950000D03*
%TD*%
D11*
%TO.C,R1*%
X173990000Y-92710000D03*
D10*
X173990000Y-105410000D03*
%TD*%
D42*
%TO.C,SW1*%
X41745000Y-66040000D03*
X44285000Y-66040000D03*
X46825000Y-66040000D03*
X29045000Y-63500000D03*
X29045000Y-68580000D03*
%TD*%
D37*
%TO.C,J12*%
X185420000Y-29210000D03*
D38*
X187960000Y-29210000D03*
%TD*%
D19*
%TO.C,D4*%
X134620000Y-33020000D03*
D20*
X144780000Y-33020000D03*
%TD*%
D24*
%TO.C,D11*%
X66057500Y-78740000D03*
D25*
X66057500Y-83740000D03*
X66057500Y-88740000D03*
X66057500Y-93740000D03*
%TD*%
D37*
%TO.C,J15*%
X199390000Y-102230000D03*
D38*
X199390000Y-104770000D03*
%TD*%
M02*
