M48
; DRILL file {KiCad 6.0.11-2627ca5db0~126~ubuntu22.04.1} date Sat 11 Feb 2023 08:38:51 PM EST
; FORMAT={-:-/ absolute / inch / decimal}
; #@! TF.CreationDate,2023-02-11T20:38:51-05:00
; #@! TF.GenerationSoftware,Kicad,Pcbnew,6.0.11-2627ca5db0~126~ubuntu22.04.1
; #@! TF.FileFunction,Plated,1,2,PTH
FMAT,2
INCH
; #@! TA.AperFunction,Plated,PTH,ViaDrill
T1C0.0157
; #@! TA.AperFunction,Plated,PTH,ViaDrill
T2C0.0250
; #@! TA.AperFunction,Plated,PTH,ComponentDrill
T3C0.0315
; #@! TA.AperFunction,Plated,PTH,ComponentDrill
T4C0.0354
; #@! TA.AperFunction,Plated,PTH,ComponentDrill
T5C0.0394
; #@! TA.AperFunction,Plated,PTH,ComponentDrill
T6C0.0433
; #@! TA.AperFunction,Plated,PTH,ComponentDrill
T7C0.0469
; #@! TA.AperFunction,Plated,PTH,ComponentDrill
T8C0.0472
; #@! TA.AperFunction,Plated,PTH,ComponentDrill
T9C0.0500
; #@! TA.AperFunction,Plated,PTH,ComponentDrill
T10C0.0630
; #@! TA.AperFunction,Plated,PTH,ComponentDrill
T11C0.0669
; #@! TA.AperFunction,Plated,PTH,ComponentDrill
T12C0.0787
; #@! TA.AperFunction,Plated,PTH,ComponentDrill
T13C0.1417
%
G90
G05
T1
X3.75Y-4.4
X3.75Y-4.575
X4.0Y-2.825
T2
X7.2Y-3.125
T3
X1.45Y-2.2
X1.95Y-2.2
X2.35Y-3.0516
X2.35Y-3.2484
X2.6Y-3.9713
X2.6Y-4.05
X3.05Y-3.9713
X3.05Y-4.05
X4.4Y-3.05
X5.0Y-3.05
X5.15Y-3.05
X5.75Y-3.05
X5.95Y-3.05
X6.55Y-3.05
X6.85Y-1.5
X6.85Y-1.7
X6.85Y-3.65
X6.85Y-4.15
X6.9506Y-1.95
X6.9506Y-2.15
X6.9506Y-2.35
X6.9506Y-2.95
X7.2Y-3.6
X7.2Y-4.2
X7.2506Y-1.95
X7.2506Y-2.15
X7.2506Y-2.35
X7.2506Y-2.95
X7.4Y-3.5
X7.4Y-4.0
X7.45Y-1.5
X7.45Y-1.7
X7.575Y-3.5
X7.575Y-4.0
T4
X1.2411Y-2.1258
X1.2411Y-2.2258
X7.4502Y-4.35
X7.5502Y-4.35
T5
X2.6007Y-3.1
X2.6007Y-3.2969
X2.6007Y-3.4937
X2.6007Y-3.6906
X3.0507Y-3.1031
X3.0507Y-3.2999
X3.0507Y-3.4968
X3.0507Y-3.6936
X6.85Y-1.15
X6.95Y-1.15
X7.3Y-1.15
X7.4Y-1.15
X7.85Y-4.0248
X7.85Y-4.1248
T6
X2.35Y-3.45
X2.35Y-3.55
X2.35Y-3.65
X4.3726Y-3.85
X4.3726Y-4.25
X4.6726Y-3.85
X4.6726Y-4.25
X4.9726Y-3.85
X4.9726Y-4.25
X5.2726Y-3.85
X5.2726Y-4.25
X5.3Y-1.3
X5.5726Y-3.85
X5.5726Y-4.25
X5.7Y-1.3
X5.8726Y-3.85
X5.8726Y-4.25
X5.9Y-1.3
X6.1726Y-3.85
X6.1726Y-4.25
X6.3Y-1.3
X6.4726Y-3.85
X6.4726Y-4.25
X7.8372Y-3.3
X7.8372Y-3.4
X7.8372Y-3.5
T7
X2.425Y-4.6258
X2.525Y-4.6258
X2.625Y-4.6258
X2.725Y-4.6258
X3.125Y-4.6258
X3.225Y-4.6258
X3.325Y-4.6258
X3.425Y-4.6258
T8
X3.025Y-1.65
X3.913Y-3.5764
X3.913Y-3.7323
X3.913Y-3.8882
X3.913Y-4.0441
X3.913Y-4.2
X4.025Y-1.65
X4.3Y-1.65
X4.4661Y-3.5
X4.663Y-3.5
X4.7604Y-4.6
X4.9573Y-4.6
X5.0661Y-3.5
X5.263Y-3.5
X5.3Y-1.65
X5.3661Y-4.6
X5.563Y-4.6
X5.6Y-1.65
X5.6661Y-3.5
X5.863Y-3.5
X5.9661Y-4.6
X6.163Y-4.6
X6.2661Y-3.5
X6.463Y-3.5
X6.5661Y-4.6
X6.6Y-1.65
X6.763Y-4.6
T9
X1.1824Y-1.75
X1.8824Y-1.75
X2.4824Y-1.75
T10
X1.1435Y-2.5
X1.1435Y-2.7
X1.5969Y-3.5937
X1.5969Y-3.95
X1.5969Y-4.3063
X1.6435Y-2.6
X1.7435Y-2.6
X1.8435Y-2.6
T11
X1.7441Y-5.3041
X1.9Y-5.3041
X2.0559Y-5.3041
X2.4441Y-5.3041
X2.6Y-5.3041
X2.7559Y-5.3041
X3.1191Y-5.3041
X3.275Y-5.3041
X3.322Y-1.1541
X3.4309Y-5.3041
X3.478Y-1.1541
X3.85Y-5.3
X4.0059Y-5.3
X4.1618Y-5.3
X4.3177Y-5.3
X4.4736Y-5.3
X5.0602Y-5.2709
X5.2161Y-5.2709
X5.372Y-5.2709
X5.528Y-5.2709
X5.6839Y-5.2709
X5.8398Y-5.2709
X7.8041Y-1.5543
X7.8041Y-1.7102
X7.8041Y-1.8661
X7.8041Y-2.022
X7.8041Y-2.178
X7.8041Y-2.3339
X7.8041Y-2.4898
X7.8041Y-2.6457
T12
X3.1416Y-2.4
X3.5353Y-2.4
X4.1166Y-2.4
X4.5103Y-2.4
X5.1166Y-2.4
X5.5103Y-2.4
X6.0666Y-2.4
X6.4603Y-2.4
T13
X1.215Y-3.1626
X1.215Y-4.7374
T0
M30
