M48
; DRILL file {KiCad 6.0.9-8da3e8f707~117~ubuntu22.04.1} date Tue 13 Dec 2022 08:05:40 PM EST
; FORMAT={-:-/ absolute / inch / decimal}
; #@! TF.CreationDate,2022-12-13T20:05:40-05:00
; #@! TF.GenerationSoftware,Kicad,Pcbnew,6.0.9-8da3e8f707~117~ubuntu22.04.1
; #@! TF.FileFunction,Plated,1,2,PTH
FMAT,2
INCH
; #@! TA.AperFunction,Plated,PTH,ComponentDrill
T1C0.0295
; #@! TA.AperFunction,Plated,PTH,ComponentDrill
T2C0.0315
; #@! TA.AperFunction,Plated,PTH,ComponentDrill
T3C0.0394
; #@! TA.AperFunction,Plated,PTH,ComponentDrill
T4C0.0472
; #@! TA.AperFunction,Plated,PTH,ComponentDrill
T5C0.0709
; #@! TA.AperFunction,Plated,PTH,ComponentDrill
T6C0.1500
%
G90
G05
T1
X7.025Y-5.0045
X7.075Y-5.0545
X7.125Y-5.0045
T2
X6.05Y-4.3
X6.05Y-4.55
X6.05Y-4.85
X6.05Y-5.1
X6.3Y-3.95
X6.35Y-4.55
X6.45Y-4.3
X6.45Y-4.85
X6.65Y-5.1
X6.7Y-3.95
X6.875Y-4.175
X6.9246Y-4.5502
X6.9246Y-4.6502
X7.2246Y-4.5502
X7.2246Y-4.6502
X7.275Y-4.175
T3
X3.4Y-2.45
X3.4Y-2.55
X3.4Y-2.65
X3.4Y-2.75
X3.4Y-2.85
X3.4Y-2.95
X3.4Y-4.3748
X3.4Y-4.4748
X3.4Y-4.725
X3.4Y-4.825
X7.15Y-2.6068
X7.15Y-2.8036
X7.65Y-2.575
X7.65Y-2.675
X7.65Y-2.775
X7.6508Y-3.4
X7.6508Y-3.5
X7.6508Y-3.6
X7.6508Y-4.35
X7.6508Y-4.45
X7.6508Y-4.55
T4
X6.2Y-3.0
X6.25Y-2.35
X6.25Y-2.65
X6.25Y-3.35
X6.25Y-3.65
X6.75Y-2.35
X6.75Y-2.65
X6.75Y-3.35
X6.75Y-3.65
X6.8Y-3.0
T5
X3.3911Y-3.2455
X3.3911Y-3.4014
X3.3911Y-3.5573
X3.3911Y-3.7132
X3.3911Y-3.8691
X3.3911Y-4.025
T6
X4.0713Y-3.4496
X4.1579Y-3.07
X4.1579Y-3.8293
X4.4007Y-2.7655
X4.7515Y-2.5965
X4.7515Y-4.3027
X5.141Y-2.5965
X5.141Y-4.3027
X5.4918Y-4.1337
X5.7346Y-3.07
X5.7346Y-3.8293
X5.8213Y-3.4496
T0
M30
