%TF.GenerationSoftware,KiCad,Pcbnew,6.0.9-8da3e8f707~117~ubuntu22.04.1*%
%TF.CreationDate,2022-12-13T20:05:36-05:00*%
%TF.ProjectId,anderson_crt,616e6465-7273-46f6-9e5f-6372742e6b69,rev?*%
%TF.SameCoordinates,Original*%
%TF.FileFunction,Legend,Top*%
%TF.FilePolarity,Positive*%
%FSLAX46Y46*%
G04 Gerber Fmt 4.6, Leading zero omitted, Abs format (unit mm)*
G04 Created by KiCad (PCBNEW 6.0.9-8da3e8f707~117~ubuntu22.04.1) date 2022-12-13 20:05:36*
%MOMM*%
%LPD*%
G01*
G04 APERTURE LIST*
%ADD10C,0.254000*%
%ADD11C,0.203200*%
%ADD12C,0.150000*%
%ADD13C,0.120000*%
G04 APERTURE END LIST*
D10*
X189653333Y-77258333D02*
X190862857Y-77258333D01*
X189411428Y-77984047D02*
X190258095Y-75444047D01*
X191104761Y-77984047D01*
X191830476Y-77863095D02*
X192193333Y-77984047D01*
X192798095Y-77984047D01*
X193040000Y-77863095D01*
X193160952Y-77742142D01*
X193281904Y-77500238D01*
X193281904Y-77258333D01*
X193160952Y-77016428D01*
X193040000Y-76895476D01*
X192798095Y-76774523D01*
X192314285Y-76653571D01*
X192072380Y-76532619D01*
X191951428Y-76411666D01*
X191830476Y-76169761D01*
X191830476Y-75927857D01*
X191951428Y-75685952D01*
X192072380Y-75565000D01*
X192314285Y-75444047D01*
X192919047Y-75444047D01*
X193281904Y-75565000D01*
X194007619Y-75444047D02*
X195459047Y-75444047D01*
X194733333Y-77984047D02*
X194733333Y-75444047D01*
X196305714Y-77984047D02*
X196305714Y-75444047D01*
X198845714Y-75565000D02*
X198603809Y-75444047D01*
X198240952Y-75444047D01*
X197878095Y-75565000D01*
X197636190Y-75806904D01*
X197515238Y-76048809D01*
X197394285Y-76532619D01*
X197394285Y-76895476D01*
X197515238Y-77379285D01*
X197636190Y-77621190D01*
X197878095Y-77863095D01*
X198240952Y-77984047D01*
X198482857Y-77984047D01*
X198845714Y-77863095D01*
X198966666Y-77742142D01*
X198966666Y-76895476D01*
X198482857Y-76895476D01*
D11*
X92437857Y-81416071D02*
X93889285Y-81416071D01*
X93163571Y-82141785D02*
X93163571Y-80690357D01*
X94615000Y-80236785D02*
X95794285Y-80236785D01*
X95159285Y-80962500D01*
X95431428Y-80962500D01*
X95612857Y-81053214D01*
X95703571Y-81143928D01*
X95794285Y-81325357D01*
X95794285Y-81778928D01*
X95703571Y-81960357D01*
X95612857Y-82051071D01*
X95431428Y-82141785D01*
X94887142Y-82141785D01*
X94705714Y-82051071D01*
X94615000Y-81960357D01*
X97427142Y-80236785D02*
X97064285Y-80236785D01*
X96882857Y-80327500D01*
X96792142Y-80418214D01*
X96610714Y-80690357D01*
X96520000Y-81053214D01*
X96520000Y-81778928D01*
X96610714Y-81960357D01*
X96701428Y-82051071D01*
X96882857Y-82141785D01*
X97245714Y-82141785D01*
X97427142Y-82051071D01*
X97517857Y-81960357D01*
X97608571Y-81778928D01*
X97608571Y-81325357D01*
X97517857Y-81143928D01*
X97427142Y-81053214D01*
X97245714Y-80962500D01*
X96882857Y-80962500D01*
X96701428Y-81053214D01*
X96610714Y-81143928D01*
X96520000Y-81325357D01*
X98787857Y-80236785D02*
X98969285Y-80236785D01*
X99150714Y-80327500D01*
X99241428Y-80418214D01*
X99332142Y-80599642D01*
X99422857Y-80962500D01*
X99422857Y-81416071D01*
X99332142Y-81778928D01*
X99241428Y-81960357D01*
X99150714Y-82051071D01*
X98969285Y-82141785D01*
X98787857Y-82141785D01*
X98606428Y-82051071D01*
X98515714Y-81960357D01*
X98425000Y-81778928D01*
X98334285Y-81416071D01*
X98334285Y-80962500D01*
X98425000Y-80599642D01*
X98515714Y-80418214D01*
X98606428Y-80327500D01*
X98787857Y-80236785D01*
X89565238Y-74234523D02*
X89686190Y-74234523D01*
X89807142Y-74295000D01*
X89867619Y-74355476D01*
X89928095Y-74476428D01*
X89988571Y-74718333D01*
X89988571Y-75020714D01*
X89928095Y-75262619D01*
X89867619Y-75383571D01*
X89807142Y-75444047D01*
X89686190Y-75504523D01*
X89565238Y-75504523D01*
X89444285Y-75444047D01*
X89383809Y-75383571D01*
X89323333Y-75262619D01*
X89262857Y-75020714D01*
X89262857Y-74718333D01*
X89323333Y-74476428D01*
X89383809Y-74355476D01*
X89444285Y-74295000D01*
X89565238Y-74234523D01*
X90351428Y-74234523D02*
X90774761Y-75504523D01*
X91198095Y-74234523D01*
X92619285Y-101736071D02*
X94070714Y-101736071D01*
X95975714Y-102461785D02*
X94887142Y-102461785D01*
X95431428Y-102461785D02*
X95431428Y-100556785D01*
X95250000Y-100828928D01*
X95068571Y-101010357D01*
X94887142Y-101101071D01*
X97608571Y-101191785D02*
X97608571Y-102461785D01*
X97155000Y-100466071D02*
X96701428Y-101826785D01*
X97880714Y-101826785D01*
X98969285Y-100556785D02*
X99150714Y-100556785D01*
X99332142Y-100647500D01*
X99422857Y-100738214D01*
X99513571Y-100919642D01*
X99604285Y-101282500D01*
X99604285Y-101736071D01*
X99513571Y-102098928D01*
X99422857Y-102280357D01*
X99332142Y-102371071D01*
X99150714Y-102461785D01*
X98969285Y-102461785D01*
X98787857Y-102371071D01*
X98697142Y-102280357D01*
X98606428Y-102098928D01*
X98515714Y-101736071D01*
X98515714Y-101282500D01*
X98606428Y-100919642D01*
X98697142Y-100738214D01*
X98787857Y-100647500D01*
X98969285Y-100556785D01*
X100783571Y-100556785D02*
X100965000Y-100556785D01*
X101146428Y-100647500D01*
X101237142Y-100738214D01*
X101327857Y-100919642D01*
X101418571Y-101282500D01*
X101418571Y-101736071D01*
X101327857Y-102098928D01*
X101237142Y-102280357D01*
X101146428Y-102371071D01*
X100965000Y-102461785D01*
X100783571Y-102461785D01*
X100602142Y-102371071D01*
X100511428Y-102280357D01*
X100420714Y-102098928D01*
X100330000Y-101736071D01*
X100330000Y-101282500D01*
X100420714Y-100919642D01*
X100511428Y-100738214D01*
X100602142Y-100647500D01*
X100783571Y-100556785D01*
X101962857Y-100556785D02*
X102597857Y-102461785D01*
X103232857Y-100556785D01*
X100330000Y-121799047D02*
X100330000Y-119259047D01*
X101781428Y-121799047D01*
X101781428Y-119259047D01*
X103837619Y-120468571D02*
X104200476Y-120589523D01*
X104321428Y-120710476D01*
X104442380Y-120952380D01*
X104442380Y-121315238D01*
X104321428Y-121557142D01*
X104200476Y-121678095D01*
X103958571Y-121799047D01*
X102990952Y-121799047D01*
X102990952Y-119259047D01*
X103837619Y-119259047D01*
X104079523Y-119380000D01*
X104200476Y-119500952D01*
X104321428Y-119742857D01*
X104321428Y-119984761D01*
X104200476Y-120226666D01*
X104079523Y-120347619D01*
X103837619Y-120468571D01*
X102990952Y-120468571D01*
X105168095Y-119259047D02*
X106619523Y-119259047D01*
X105893809Y-121799047D02*
X105893809Y-119259047D01*
X107103333Y-119259047D02*
X107950000Y-121799047D01*
X108796666Y-119259047D01*
X111457619Y-121073333D02*
X112667142Y-121073333D01*
X111215714Y-121799047D02*
X112062380Y-119259047D01*
X112909047Y-121799047D01*
X113755714Y-120105714D02*
X113755714Y-121799047D01*
X113755714Y-120347619D02*
X113876666Y-120226666D01*
X114118571Y-120105714D01*
X114481428Y-120105714D01*
X114723333Y-120226666D01*
X114844285Y-120468571D01*
X114844285Y-121799047D01*
X117142380Y-121799047D02*
X117142380Y-119259047D01*
X117142380Y-121678095D02*
X116900476Y-121799047D01*
X116416666Y-121799047D01*
X116174761Y-121678095D01*
X116053809Y-121557142D01*
X115932857Y-121315238D01*
X115932857Y-120589523D01*
X116053809Y-120347619D01*
X116174761Y-120226666D01*
X116416666Y-120105714D01*
X116900476Y-120105714D01*
X117142380Y-120226666D01*
X119319523Y-121678095D02*
X119077619Y-121799047D01*
X118593809Y-121799047D01*
X118351904Y-121678095D01*
X118230952Y-121436190D01*
X118230952Y-120468571D01*
X118351904Y-120226666D01*
X118593809Y-120105714D01*
X119077619Y-120105714D01*
X119319523Y-120226666D01*
X119440476Y-120468571D01*
X119440476Y-120710476D01*
X118230952Y-120952380D01*
X120529047Y-121799047D02*
X120529047Y-120105714D01*
X120529047Y-120589523D02*
X120650000Y-120347619D01*
X120770952Y-120226666D01*
X121012857Y-120105714D01*
X121254761Y-120105714D01*
X121980476Y-121678095D02*
X122222380Y-121799047D01*
X122706190Y-121799047D01*
X122948095Y-121678095D01*
X123069047Y-121436190D01*
X123069047Y-121315238D01*
X122948095Y-121073333D01*
X122706190Y-120952380D01*
X122343333Y-120952380D01*
X122101428Y-120831428D01*
X121980476Y-120589523D01*
X121980476Y-120468571D01*
X122101428Y-120226666D01*
X122343333Y-120105714D01*
X122706190Y-120105714D01*
X122948095Y-120226666D01*
X124520476Y-121799047D02*
X124278571Y-121678095D01*
X124157619Y-121557142D01*
X124036666Y-121315238D01*
X124036666Y-120589523D01*
X124157619Y-120347619D01*
X124278571Y-120226666D01*
X124520476Y-120105714D01*
X124883333Y-120105714D01*
X125125238Y-120226666D01*
X125246190Y-120347619D01*
X125367142Y-120589523D01*
X125367142Y-121315238D01*
X125246190Y-121557142D01*
X125125238Y-121678095D01*
X124883333Y-121799047D01*
X124520476Y-121799047D01*
X126455714Y-120105714D02*
X126455714Y-121799047D01*
X126455714Y-120347619D02*
X126576666Y-120226666D01*
X126818571Y-120105714D01*
X127181428Y-120105714D01*
X127423333Y-120226666D01*
X127544285Y-120468571D01*
X127544285Y-121799047D01*
X130689047Y-121799047D02*
X130689047Y-119259047D01*
X131535714Y-121073333D01*
X132382380Y-119259047D01*
X132382380Y-121799047D01*
X133954761Y-121799047D02*
X133712857Y-121678095D01*
X133591904Y-121557142D01*
X133470952Y-121315238D01*
X133470952Y-120589523D01*
X133591904Y-120347619D01*
X133712857Y-120226666D01*
X133954761Y-120105714D01*
X134317619Y-120105714D01*
X134559523Y-120226666D01*
X134680476Y-120347619D01*
X134801428Y-120589523D01*
X134801428Y-121315238D01*
X134680476Y-121557142D01*
X134559523Y-121678095D01*
X134317619Y-121799047D01*
X133954761Y-121799047D01*
X135890000Y-120105714D02*
X135890000Y-121799047D01*
X135890000Y-120347619D02*
X136010952Y-120226666D01*
X136252857Y-120105714D01*
X136615714Y-120105714D01*
X136857619Y-120226666D01*
X136978571Y-120468571D01*
X136978571Y-121799047D01*
X138188095Y-121799047D02*
X138188095Y-120105714D01*
X138188095Y-119259047D02*
X138067142Y-119380000D01*
X138188095Y-119500952D01*
X138309047Y-119380000D01*
X138188095Y-119259047D01*
X138188095Y-119500952D01*
X139034761Y-120105714D02*
X140002380Y-120105714D01*
X139397619Y-119259047D02*
X139397619Y-121436190D01*
X139518571Y-121678095D01*
X139760476Y-121799047D01*
X140002380Y-121799047D01*
X141211904Y-121799047D02*
X140970000Y-121678095D01*
X140849047Y-121557142D01*
X140728095Y-121315238D01*
X140728095Y-120589523D01*
X140849047Y-120347619D01*
X140970000Y-120226666D01*
X141211904Y-120105714D01*
X141574761Y-120105714D01*
X141816666Y-120226666D01*
X141937619Y-120347619D01*
X142058571Y-120589523D01*
X142058571Y-121315238D01*
X141937619Y-121557142D01*
X141816666Y-121678095D01*
X141574761Y-121799047D01*
X141211904Y-121799047D01*
X143147142Y-121799047D02*
X143147142Y-120105714D01*
X143147142Y-120589523D02*
X143268095Y-120347619D01*
X143389047Y-120226666D01*
X143630952Y-120105714D01*
X143872857Y-120105714D01*
X88506904Y-62320714D02*
X89474523Y-62320714D01*
X88990714Y-62804523D02*
X88990714Y-61836904D01*
X89958333Y-61534523D02*
X90744523Y-61534523D01*
X90321190Y-62018333D01*
X90502619Y-62018333D01*
X90623571Y-62078809D01*
X90684047Y-62139285D01*
X90744523Y-62260238D01*
X90744523Y-62562619D01*
X90684047Y-62683571D01*
X90623571Y-62744047D01*
X90502619Y-62804523D01*
X90139761Y-62804523D01*
X90018809Y-62744047D01*
X89958333Y-62683571D01*
X91833095Y-61534523D02*
X91591190Y-61534523D01*
X91470238Y-61595000D01*
X91409761Y-61655476D01*
X91288809Y-61836904D01*
X91228333Y-62078809D01*
X91228333Y-62562619D01*
X91288809Y-62683571D01*
X91349285Y-62744047D01*
X91470238Y-62804523D01*
X91712142Y-62804523D01*
X91833095Y-62744047D01*
X91893571Y-62683571D01*
X91954047Y-62562619D01*
X91954047Y-62260238D01*
X91893571Y-62139285D01*
X91833095Y-62078809D01*
X91712142Y-62018333D01*
X91470238Y-62018333D01*
X91349285Y-62078809D01*
X91288809Y-62139285D01*
X91228333Y-62260238D01*
X92740238Y-61534523D02*
X92861190Y-61534523D01*
X92982142Y-61595000D01*
X93042619Y-61655476D01*
X93103095Y-61776428D01*
X93163571Y-62018333D01*
X93163571Y-62320714D01*
X93103095Y-62562619D01*
X93042619Y-62683571D01*
X92982142Y-62744047D01*
X92861190Y-62804523D01*
X92740238Y-62804523D01*
X92619285Y-62744047D01*
X92558809Y-62683571D01*
X92498333Y-62562619D01*
X92437857Y-62320714D01*
X92437857Y-62018333D01*
X92498333Y-61776428D01*
X92558809Y-61655476D01*
X92619285Y-61595000D01*
X92740238Y-61534523D01*
D10*
X189278380Y-97862571D02*
X188431714Y-97862571D01*
X188431714Y-99193047D02*
X188431714Y-96653047D01*
X189641238Y-96653047D01*
X191092666Y-96653047D02*
X191576476Y-96653047D01*
X191818380Y-96774000D01*
X192060285Y-97015904D01*
X192181238Y-97499714D01*
X192181238Y-98346380D01*
X192060285Y-98830190D01*
X191818380Y-99072095D01*
X191576476Y-99193047D01*
X191092666Y-99193047D01*
X190850761Y-99072095D01*
X190608857Y-98830190D01*
X190487904Y-98346380D01*
X190487904Y-97499714D01*
X190608857Y-97015904D01*
X190850761Y-96774000D01*
X191092666Y-96653047D01*
X194721238Y-98951142D02*
X194600285Y-99072095D01*
X194237428Y-99193047D01*
X193995523Y-99193047D01*
X193632666Y-99072095D01*
X193390761Y-98830190D01*
X193269809Y-98588285D01*
X193148857Y-98104476D01*
X193148857Y-97741619D01*
X193269809Y-97257809D01*
X193390761Y-97015904D01*
X193632666Y-96774000D01*
X193995523Y-96653047D01*
X194237428Y-96653047D01*
X194600285Y-96774000D01*
X194721238Y-96894952D01*
X195809809Y-96653047D02*
X195809809Y-98709238D01*
X195930761Y-98951142D01*
X196051714Y-99072095D01*
X196293619Y-99193047D01*
X196777428Y-99193047D01*
X197019333Y-99072095D01*
X197140285Y-98951142D01*
X197261238Y-98709238D01*
X197261238Y-96653047D01*
X198349809Y-99072095D02*
X198712666Y-99193047D01*
X199317428Y-99193047D01*
X199559333Y-99072095D01*
X199680285Y-98951142D01*
X199801238Y-98709238D01*
X199801238Y-98467333D01*
X199680285Y-98225428D01*
X199559333Y-98104476D01*
X199317428Y-97983523D01*
X198833619Y-97862571D01*
X198591714Y-97741619D01*
X198470761Y-97620666D01*
X198349809Y-97378761D01*
X198349809Y-97136857D01*
X198470761Y-96894952D01*
X198591714Y-96774000D01*
X198833619Y-96653047D01*
X199438380Y-96653047D01*
X199801238Y-96774000D01*
X190717714Y-121738571D02*
X191080571Y-121859523D01*
X191201523Y-121980476D01*
X191322476Y-122222380D01*
X191322476Y-122585238D01*
X191201523Y-122827142D01*
X191080571Y-122948095D01*
X190838666Y-123069047D01*
X189871047Y-123069047D01*
X189871047Y-120529047D01*
X190717714Y-120529047D01*
X190959619Y-120650000D01*
X191080571Y-120770952D01*
X191201523Y-121012857D01*
X191201523Y-121254761D01*
X191080571Y-121496666D01*
X190959619Y-121617619D01*
X190717714Y-121738571D01*
X189871047Y-121738571D01*
X193862476Y-123069047D02*
X193015809Y-121859523D01*
X192411047Y-123069047D02*
X192411047Y-120529047D01*
X193378666Y-120529047D01*
X193620571Y-120650000D01*
X193741523Y-120770952D01*
X193862476Y-121012857D01*
X193862476Y-121375714D01*
X193741523Y-121617619D01*
X193620571Y-121738571D01*
X193378666Y-121859523D01*
X192411047Y-121859523D01*
X194951047Y-123069047D02*
X194951047Y-120529047D01*
X197370095Y-123069047D02*
X196160571Y-123069047D01*
X196160571Y-120529047D01*
X199426285Y-123069047D02*
X198216761Y-123069047D01*
X198216761Y-120529047D01*
X200272952Y-122827142D02*
X200393904Y-122948095D01*
X200272952Y-123069047D01*
X200152000Y-122948095D01*
X200272952Y-122827142D01*
X200272952Y-123069047D01*
D11*
X93072857Y-89126785D02*
X93254285Y-89126785D01*
X93435714Y-89217500D01*
X93526428Y-89308214D01*
X93617142Y-89489642D01*
X93707857Y-89852500D01*
X93707857Y-90306071D01*
X93617142Y-90668928D01*
X93526428Y-90850357D01*
X93435714Y-90941071D01*
X93254285Y-91031785D01*
X93072857Y-91031785D01*
X92891428Y-90941071D01*
X92800714Y-90850357D01*
X92710000Y-90668928D01*
X92619285Y-90306071D01*
X92619285Y-89852500D01*
X92710000Y-89489642D01*
X92800714Y-89308214D01*
X92891428Y-89217500D01*
X93072857Y-89126785D01*
X94252142Y-89126785D02*
X94887142Y-91031785D01*
X95522142Y-89126785D01*
X80418214Y-105727500D02*
X82323214Y-105727500D01*
X81416071Y-105727500D02*
X81416071Y-106816071D01*
X80418214Y-106816071D02*
X82323214Y-106816071D01*
X81416071Y-107723214D02*
X81416071Y-108358214D01*
X80418214Y-108630357D02*
X80418214Y-107723214D01*
X82323214Y-107723214D01*
X82323214Y-108630357D01*
X80962500Y-109356071D02*
X80962500Y-110263214D01*
X80418214Y-109174642D02*
X82323214Y-109809642D01*
X80418214Y-110444642D01*
X82323214Y-110807500D02*
X82323214Y-111896071D01*
X80418214Y-111351785D02*
X82323214Y-111351785D01*
X81416071Y-112531071D02*
X81416071Y-113166071D01*
X80418214Y-113438214D02*
X80418214Y-112531071D01*
X82323214Y-112531071D01*
X82323214Y-113438214D01*
X80418214Y-115343214D02*
X81325357Y-114708214D01*
X80418214Y-114254642D02*
X82323214Y-114254642D01*
X82323214Y-114980357D01*
X82232500Y-115161785D01*
X82141785Y-115252500D01*
X81960357Y-115343214D01*
X81688214Y-115343214D01*
X81506785Y-115252500D01*
X81416071Y-115161785D01*
X81325357Y-114980357D01*
X81325357Y-114254642D01*
X101369222Y-127153307D02*
X101278508Y-127244021D01*
X101006365Y-127334735D01*
X100824937Y-127334735D01*
X100552794Y-127244021D01*
X100371365Y-127062592D01*
X100280651Y-126881164D01*
X100189937Y-126518307D01*
X100189937Y-126246164D01*
X100280651Y-125883307D01*
X100371365Y-125701878D01*
X100552794Y-125520450D01*
X100824937Y-125429735D01*
X101006365Y-125429735D01*
X101278508Y-125520450D01*
X101369222Y-125611164D01*
X103274222Y-127334735D02*
X102639222Y-126427592D01*
X102185651Y-127334735D02*
X102185651Y-125429735D01*
X102911365Y-125429735D01*
X103092794Y-125520450D01*
X103183508Y-125611164D01*
X103274222Y-125792592D01*
X103274222Y-126064735D01*
X103183508Y-126246164D01*
X103092794Y-126336878D01*
X102911365Y-126427592D01*
X102185651Y-126427592D01*
X103818508Y-125429735D02*
X104907080Y-125429735D01*
X104362794Y-127334735D02*
X104362794Y-125429735D01*
X107628508Y-126336878D02*
X107900651Y-126427592D01*
X107991365Y-126518307D01*
X108082080Y-126699735D01*
X108082080Y-126971878D01*
X107991365Y-127153307D01*
X107900651Y-127244021D01*
X107719222Y-127334735D01*
X106993508Y-127334735D01*
X106993508Y-125429735D01*
X107628508Y-125429735D01*
X107809937Y-125520450D01*
X107900651Y-125611164D01*
X107991365Y-125792592D01*
X107991365Y-125974021D01*
X107900651Y-126155450D01*
X107809937Y-126246164D01*
X107628508Y-126336878D01*
X106993508Y-126336878D01*
X108898508Y-127334735D02*
X108898508Y-126064735D01*
X108898508Y-125429735D02*
X108807794Y-125520450D01*
X108898508Y-125611164D01*
X108989222Y-125520450D01*
X108898508Y-125429735D01*
X108898508Y-125611164D01*
X110622080Y-127334735D02*
X110622080Y-126336878D01*
X110531365Y-126155450D01*
X110349937Y-126064735D01*
X109987080Y-126064735D01*
X109805651Y-126155450D01*
X110622080Y-127244021D02*
X110440651Y-127334735D01*
X109987080Y-127334735D01*
X109805651Y-127244021D01*
X109714937Y-127062592D01*
X109714937Y-126881164D01*
X109805651Y-126699735D01*
X109987080Y-126609021D01*
X110440651Y-126609021D01*
X110622080Y-126518307D01*
X111438508Y-127244021D02*
X111619937Y-127334735D01*
X111982794Y-127334735D01*
X112164222Y-127244021D01*
X112254937Y-127062592D01*
X112254937Y-126971878D01*
X112164222Y-126790450D01*
X111982794Y-126699735D01*
X111710651Y-126699735D01*
X111529222Y-126609021D01*
X111438508Y-126427592D01*
X111438508Y-126336878D01*
X111529222Y-126155450D01*
X111710651Y-126064735D01*
X111982794Y-126064735D01*
X112164222Y-126155450D01*
X114522794Y-126609021D02*
X115974222Y-126609021D01*
X118060651Y-125429735D02*
X118695651Y-127334735D01*
X119330651Y-125429735D01*
X120963508Y-127334735D02*
X119874937Y-127334735D01*
X120419222Y-127334735D02*
X120419222Y-125429735D01*
X120237794Y-125701878D01*
X120056365Y-125883307D01*
X119874937Y-125974021D01*
X121779937Y-127153307D02*
X121870651Y-127244021D01*
X121779937Y-127334735D01*
X121689222Y-127244021D01*
X121779937Y-127153307D01*
X121779937Y-127334735D01*
X123049937Y-125429735D02*
X123231365Y-125429735D01*
X123412794Y-125520450D01*
X123503508Y-125611164D01*
X123594222Y-125792592D01*
X123684937Y-126155450D01*
X123684937Y-126609021D01*
X123594222Y-126971878D01*
X123503508Y-127153307D01*
X123412794Y-127244021D01*
X123231365Y-127334735D01*
X123049937Y-127334735D01*
X122868508Y-127244021D01*
X122777794Y-127153307D01*
X122687080Y-126971878D01*
X122596365Y-126609021D01*
X122596365Y-126155450D01*
X122687080Y-125792592D01*
X122777794Y-125611164D01*
X122868508Y-125520450D01*
X123049937Y-125429735D01*
X125952794Y-126609021D02*
X127404222Y-126609021D01*
X129672080Y-125611164D02*
X129762794Y-125520450D01*
X129944222Y-125429735D01*
X130397794Y-125429735D01*
X130579222Y-125520450D01*
X130669937Y-125611164D01*
X130760651Y-125792592D01*
X130760651Y-125974021D01*
X130669937Y-126246164D01*
X129581365Y-127334735D01*
X130760651Y-127334735D01*
X131939937Y-125429735D02*
X132121365Y-125429735D01*
X132302794Y-125520450D01*
X132393508Y-125611164D01*
X132484222Y-125792592D01*
X132574937Y-126155450D01*
X132574937Y-126609021D01*
X132484222Y-126971878D01*
X132393508Y-127153307D01*
X132302794Y-127244021D01*
X132121365Y-127334735D01*
X131939937Y-127334735D01*
X131758508Y-127244021D01*
X131667794Y-127153307D01*
X131577080Y-126971878D01*
X131486365Y-126609021D01*
X131486365Y-126155450D01*
X131577080Y-125792592D01*
X131667794Y-125611164D01*
X131758508Y-125520450D01*
X131939937Y-125429735D01*
X133300651Y-125611164D02*
X133391365Y-125520450D01*
X133572794Y-125429735D01*
X134026365Y-125429735D01*
X134207794Y-125520450D01*
X134298508Y-125611164D01*
X134389222Y-125792592D01*
X134389222Y-125974021D01*
X134298508Y-126246164D01*
X133209937Y-127334735D01*
X134389222Y-127334735D01*
X135114937Y-125611164D02*
X135205651Y-125520450D01*
X135387080Y-125429735D01*
X135840651Y-125429735D01*
X136022080Y-125520450D01*
X136112794Y-125611164D01*
X136203508Y-125792592D01*
X136203508Y-125974021D01*
X136112794Y-126246164D01*
X135024222Y-127334735D01*
X136203508Y-127334735D01*
X137019937Y-126609021D02*
X138471365Y-126609021D01*
X140376365Y-127334735D02*
X139287794Y-127334735D01*
X139832080Y-127334735D02*
X139832080Y-125429735D01*
X139650651Y-125701878D01*
X139469222Y-125883307D01*
X139287794Y-125974021D01*
X141102080Y-125611164D02*
X141192794Y-125520450D01*
X141374222Y-125429735D01*
X141827794Y-125429735D01*
X142009222Y-125520450D01*
X142099937Y-125611164D01*
X142190651Y-125792592D01*
X142190651Y-125974021D01*
X142099937Y-126246164D01*
X141011365Y-127334735D01*
X142190651Y-127334735D01*
X100280651Y-130401785D02*
X100280651Y-128496785D01*
X101006365Y-128496785D01*
X101187794Y-128587500D01*
X101278508Y-128678214D01*
X101369222Y-128859642D01*
X101369222Y-129131785D01*
X101278508Y-129313214D01*
X101187794Y-129403928D01*
X101006365Y-129494642D01*
X100280651Y-129494642D01*
X103274222Y-130220357D02*
X103183508Y-130311071D01*
X102911365Y-130401785D01*
X102729937Y-130401785D01*
X102457794Y-130311071D01*
X102276365Y-130129642D01*
X102185651Y-129948214D01*
X102094937Y-129585357D01*
X102094937Y-129313214D01*
X102185651Y-128950357D01*
X102276365Y-128768928D01*
X102457794Y-128587500D01*
X102729937Y-128496785D01*
X102911365Y-128496785D01*
X103183508Y-128587500D01*
X103274222Y-128678214D01*
X104725651Y-129403928D02*
X104997794Y-129494642D01*
X105088508Y-129585357D01*
X105179222Y-129766785D01*
X105179222Y-130038928D01*
X105088508Y-130220357D01*
X104997794Y-130311071D01*
X104816365Y-130401785D01*
X104090651Y-130401785D01*
X104090651Y-128496785D01*
X104725651Y-128496785D01*
X104907080Y-128587500D01*
X104997794Y-128678214D01*
X105088508Y-128859642D01*
X105088508Y-129041071D01*
X104997794Y-129222500D01*
X104907080Y-129313214D01*
X104725651Y-129403928D01*
X104090651Y-129403928D01*
X107447080Y-130401785D02*
X107447080Y-128496785D01*
X107447080Y-129222500D02*
X107628508Y-129131785D01*
X107991365Y-129131785D01*
X108172794Y-129222500D01*
X108263508Y-129313214D01*
X108354222Y-129494642D01*
X108354222Y-130038928D01*
X108263508Y-130220357D01*
X108172794Y-130311071D01*
X107991365Y-130401785D01*
X107628508Y-130401785D01*
X107447080Y-130311071D01*
X108989222Y-129131785D02*
X109442794Y-130401785D01*
X109896365Y-129131785D02*
X109442794Y-130401785D01*
X109261365Y-130855357D01*
X109170651Y-130946071D01*
X108989222Y-131036785D01*
X112073508Y-129403928D02*
X112708508Y-129403928D01*
X112980651Y-130401785D02*
X112073508Y-130401785D01*
X112073508Y-128496785D01*
X112980651Y-128496785D01*
X113797080Y-130220357D02*
X113887794Y-130311071D01*
X113797080Y-130401785D01*
X113706365Y-130311071D01*
X113797080Y-130220357D01*
X113797080Y-130401785D01*
X116155651Y-130401785D02*
X116155651Y-128496785D01*
X116155651Y-129403928D02*
X117244222Y-129403928D01*
X117244222Y-130401785D02*
X117244222Y-128496785D01*
X118967794Y-130401785D02*
X118967794Y-129403928D01*
X118877080Y-129222500D01*
X118695651Y-129131785D01*
X118332794Y-129131785D01*
X118151365Y-129222500D01*
X118967794Y-130311071D02*
X118786365Y-130401785D01*
X118332794Y-130401785D01*
X118151365Y-130311071D01*
X118060651Y-130129642D01*
X118060651Y-129948214D01*
X118151365Y-129766785D01*
X118332794Y-129676071D01*
X118786365Y-129676071D01*
X118967794Y-129585357D01*
X119693508Y-129131785D02*
X120691365Y-129131785D01*
X119693508Y-130401785D01*
X120691365Y-130401785D01*
X122142794Y-130311071D02*
X121961365Y-130401785D01*
X121598508Y-130401785D01*
X121417080Y-130311071D01*
X121326365Y-130129642D01*
X121326365Y-129403928D01*
X121417080Y-129222500D01*
X121598508Y-129131785D01*
X121961365Y-129131785D01*
X122142794Y-129222500D01*
X122233508Y-129403928D01*
X122233508Y-129585357D01*
X121326365Y-129766785D01*
X123049937Y-129131785D02*
X123049937Y-130401785D01*
X123049937Y-129313214D02*
X123140651Y-129222500D01*
X123322080Y-129131785D01*
X123594222Y-129131785D01*
X123775651Y-129222500D01*
X123866365Y-129403928D01*
X123866365Y-130401785D01*
X101097080Y-132198835D02*
X101097080Y-133740978D01*
X101006365Y-133922407D01*
X100915651Y-134013121D01*
X100734222Y-134103835D01*
X100462080Y-134103835D01*
X100280651Y-134013121D01*
X101097080Y-133378121D02*
X100915651Y-133468835D01*
X100552794Y-133468835D01*
X100371365Y-133378121D01*
X100280651Y-133287407D01*
X100189937Y-133105978D01*
X100189937Y-132561692D01*
X100280651Y-132380264D01*
X100371365Y-132289550D01*
X100552794Y-132198835D01*
X100915651Y-132198835D01*
X101097080Y-132289550D01*
X102004222Y-133468835D02*
X102004222Y-132198835D01*
X102004222Y-131563835D02*
X101913508Y-131654550D01*
X102004222Y-131745264D01*
X102094937Y-131654550D01*
X102004222Y-131563835D01*
X102004222Y-131745264D01*
X102639222Y-132198835D02*
X103364937Y-132198835D01*
X102911365Y-131563835D02*
X102911365Y-133196692D01*
X103002080Y-133378121D01*
X103183508Y-133468835D01*
X103364937Y-133468835D01*
X103999937Y-133468835D02*
X103999937Y-131563835D01*
X104816365Y-133468835D02*
X104816365Y-132470978D01*
X104725651Y-132289550D01*
X104544222Y-132198835D01*
X104272080Y-132198835D01*
X104090651Y-132289550D01*
X103999937Y-132380264D01*
X106539937Y-132198835D02*
X106539937Y-133468835D01*
X105723508Y-132198835D02*
X105723508Y-133196692D01*
X105814222Y-133378121D01*
X105995651Y-133468835D01*
X106267794Y-133468835D01*
X106449222Y-133378121D01*
X106539937Y-133287407D01*
X107447080Y-133468835D02*
X107447080Y-131563835D01*
X107447080Y-132289550D02*
X107628508Y-132198835D01*
X107991365Y-132198835D01*
X108172794Y-132289550D01*
X108263508Y-132380264D01*
X108354222Y-132561692D01*
X108354222Y-133105978D01*
X108263508Y-133287407D01*
X108172794Y-133378121D01*
X107991365Y-133468835D01*
X107628508Y-133468835D01*
X107447080Y-133378121D01*
X111347794Y-133378121D02*
X111166365Y-133468835D01*
X110803508Y-133468835D01*
X110622080Y-133378121D01*
X110531365Y-133196692D01*
X110531365Y-132470978D01*
X110622080Y-132289550D01*
X110803508Y-132198835D01*
X111166365Y-132198835D01*
X111347794Y-132289550D01*
X111438508Y-132470978D01*
X111438508Y-132652407D01*
X110531365Y-132833835D01*
X112164222Y-133378121D02*
X112345651Y-133468835D01*
X112708508Y-133468835D01*
X112889937Y-133378121D01*
X112980651Y-133196692D01*
X112980651Y-133105978D01*
X112889937Y-132924550D01*
X112708508Y-132833835D01*
X112436365Y-132833835D01*
X112254937Y-132743121D01*
X112164222Y-132561692D01*
X112164222Y-132470978D01*
X112254937Y-132289550D01*
X112436365Y-132198835D01*
X112708508Y-132198835D01*
X112889937Y-132289550D01*
X113797080Y-133468835D02*
X113797080Y-131563835D01*
X114613508Y-133468835D02*
X114613508Y-132470978D01*
X114522794Y-132289550D01*
X114341365Y-132198835D01*
X114069222Y-132198835D01*
X113887794Y-132289550D01*
X113797080Y-132380264D01*
X116337080Y-133468835D02*
X116337080Y-132470978D01*
X116246365Y-132289550D01*
X116064937Y-132198835D01*
X115702080Y-132198835D01*
X115520651Y-132289550D01*
X116337080Y-133378121D02*
X116155651Y-133468835D01*
X115702080Y-133468835D01*
X115520651Y-133378121D01*
X115429937Y-133196692D01*
X115429937Y-133015264D01*
X115520651Y-132833835D01*
X115702080Y-132743121D01*
X116155651Y-132743121D01*
X116337080Y-132652407D01*
X117062794Y-132198835D02*
X118060651Y-132198835D01*
X117062794Y-133468835D01*
X118060651Y-133468835D01*
X119512080Y-133378121D02*
X119330651Y-133468835D01*
X118967794Y-133468835D01*
X118786365Y-133378121D01*
X118695651Y-133196692D01*
X118695651Y-132470978D01*
X118786365Y-132289550D01*
X118967794Y-132198835D01*
X119330651Y-132198835D01*
X119512080Y-132289550D01*
X119602794Y-132470978D01*
X119602794Y-132652407D01*
X118695651Y-132833835D01*
X120419222Y-132198835D02*
X120419222Y-133468835D01*
X120419222Y-132380264D02*
X120509937Y-132289550D01*
X120691365Y-132198835D01*
X120963508Y-132198835D01*
X121144937Y-132289550D01*
X121235651Y-132470978D01*
X121235651Y-133468835D01*
X123503508Y-131473121D02*
X121870651Y-133922407D01*
X124047794Y-133378121D02*
X124229222Y-133468835D01*
X124592080Y-133468835D01*
X124773508Y-133378121D01*
X124864222Y-133196692D01*
X124864222Y-133105978D01*
X124773508Y-132924550D01*
X124592080Y-132833835D01*
X124319937Y-132833835D01*
X124138508Y-132743121D01*
X124047794Y-132561692D01*
X124047794Y-132470978D01*
X124138508Y-132289550D01*
X124319937Y-132198835D01*
X124592080Y-132198835D01*
X124773508Y-132289550D01*
X126497080Y-133378121D02*
X126315651Y-133468835D01*
X125952794Y-133468835D01*
X125771365Y-133378121D01*
X125680651Y-133287407D01*
X125589937Y-133105978D01*
X125589937Y-132561692D01*
X125680651Y-132380264D01*
X125771365Y-132289550D01*
X125952794Y-132198835D01*
X126315651Y-132198835D01*
X126497080Y-132289550D01*
X127585651Y-133468835D02*
X127404222Y-133378121D01*
X127313508Y-133287407D01*
X127222794Y-133105978D01*
X127222794Y-132561692D01*
X127313508Y-132380264D01*
X127404222Y-132289550D01*
X127585651Y-132198835D01*
X127857794Y-132198835D01*
X128039222Y-132289550D01*
X128129937Y-132380264D01*
X128220651Y-132561692D01*
X128220651Y-133105978D01*
X128129937Y-133287407D01*
X128039222Y-133378121D01*
X127857794Y-133468835D01*
X127585651Y-133468835D01*
X129037080Y-132198835D02*
X129037080Y-134103835D01*
X129037080Y-132289550D02*
X129218508Y-132198835D01*
X129581365Y-132198835D01*
X129762794Y-132289550D01*
X129853508Y-132380264D01*
X129944222Y-132561692D01*
X129944222Y-133105978D01*
X129853508Y-133287407D01*
X129762794Y-133378121D01*
X129581365Y-133468835D01*
X129218508Y-133468835D01*
X129037080Y-133378121D01*
X131486365Y-133378121D02*
X131304937Y-133468835D01*
X130942080Y-133468835D01*
X130760651Y-133378121D01*
X130669937Y-133196692D01*
X130669937Y-132470978D01*
X130760651Y-132289550D01*
X130942080Y-132198835D01*
X131304937Y-132198835D01*
X131486365Y-132289550D01*
X131577080Y-132470978D01*
X131577080Y-132652407D01*
X130669937Y-132833835D01*
X132393508Y-132743121D02*
X133844937Y-132743121D01*
X135568508Y-133378121D02*
X135387080Y-133468835D01*
X135024222Y-133468835D01*
X134842794Y-133378121D01*
X134752080Y-133287407D01*
X134661365Y-133105978D01*
X134661365Y-132561692D01*
X134752080Y-132380264D01*
X134842794Y-132289550D01*
X135024222Y-132198835D01*
X135387080Y-132198835D01*
X135568508Y-132289550D01*
X136657080Y-133468835D02*
X136475651Y-133378121D01*
X136384937Y-133196692D01*
X136384937Y-131563835D01*
X137654937Y-133468835D02*
X137473508Y-133378121D01*
X137382794Y-133287407D01*
X137292080Y-133105978D01*
X137292080Y-132561692D01*
X137382794Y-132380264D01*
X137473508Y-132289550D01*
X137654937Y-132198835D01*
X137927080Y-132198835D01*
X138108508Y-132289550D01*
X138199222Y-132380264D01*
X138289937Y-132561692D01*
X138289937Y-133105978D01*
X138199222Y-133287407D01*
X138108508Y-133378121D01*
X137927080Y-133468835D01*
X137654937Y-133468835D01*
X139922794Y-133378121D02*
X139741365Y-133468835D01*
X139378508Y-133468835D01*
X139197080Y-133378121D01*
X139106365Y-133287407D01*
X139015651Y-133105978D01*
X139015651Y-132561692D01*
X139106365Y-132380264D01*
X139197080Y-132289550D01*
X139378508Y-132198835D01*
X139741365Y-132198835D01*
X139922794Y-132289550D01*
X140739222Y-133468835D02*
X140739222Y-131563835D01*
X140920651Y-132743121D02*
X141464937Y-133468835D01*
X141464937Y-132198835D02*
X140739222Y-132924550D01*
X83312453Y-118654285D02*
X83312453Y-120105714D01*
X82586739Y-119380000D02*
X84038167Y-119380000D01*
X83312453Y-122464285D02*
X83312453Y-123915714D01*
X79519689Y-120105714D02*
X79519689Y-119017142D01*
X79519689Y-119561428D02*
X81424689Y-119561428D01*
X81152546Y-119380000D01*
X80971117Y-119198571D01*
X80880403Y-119017142D01*
X81243260Y-120831428D02*
X81333975Y-120922142D01*
X81424689Y-121103571D01*
X81424689Y-121557142D01*
X81333975Y-121738571D01*
X81243260Y-121829285D01*
X81061832Y-121920000D01*
X80880403Y-121920000D01*
X80608260Y-121829285D01*
X79519689Y-120740714D01*
X79519689Y-121920000D01*
X81424689Y-122464285D02*
X79519689Y-123099285D01*
X81424689Y-123734285D01*
X89141904Y-64074523D02*
X89988571Y-65344523D01*
X89988571Y-64074523D02*
X89141904Y-65344523D01*
X91137619Y-65344523D02*
X90411904Y-65344523D01*
X90774761Y-65344523D02*
X90774761Y-64074523D01*
X90653809Y-64255952D01*
X90532857Y-64376904D01*
X90411904Y-64437380D01*
X89565238Y-69819761D02*
X89565238Y-70424523D01*
X89141904Y-69154523D02*
X89565238Y-69819761D01*
X89988571Y-69154523D01*
X91077142Y-70424523D02*
X90351428Y-70424523D01*
X90714285Y-70424523D02*
X90714285Y-69154523D01*
X90593333Y-69335952D01*
X90472380Y-69456904D01*
X90351428Y-69517380D01*
X80418214Y-61186785D02*
X82323214Y-61186785D01*
X82323214Y-61640357D01*
X82232500Y-61912500D01*
X82051071Y-62093928D01*
X81869642Y-62184642D01*
X81506785Y-62275357D01*
X81234642Y-62275357D01*
X80871785Y-62184642D01*
X80690357Y-62093928D01*
X80508928Y-61912500D01*
X80418214Y-61640357D01*
X80418214Y-61186785D01*
X81416071Y-63091785D02*
X81416071Y-63726785D01*
X80418214Y-63998928D02*
X80418214Y-63091785D01*
X82323214Y-63091785D01*
X82323214Y-63998928D01*
X81416071Y-65450357D02*
X81416071Y-64815357D01*
X80418214Y-64815357D02*
X82323214Y-64815357D01*
X82323214Y-65722500D01*
X80418214Y-67355357D02*
X80418214Y-66448214D01*
X82323214Y-66448214D01*
X81416071Y-67990357D02*
X81416071Y-68625357D01*
X80418214Y-68897500D02*
X80418214Y-67990357D01*
X82323214Y-67990357D01*
X82323214Y-68897500D01*
X80599642Y-70802500D02*
X80508928Y-70711785D01*
X80418214Y-70439642D01*
X80418214Y-70258214D01*
X80508928Y-69986071D01*
X80690357Y-69804642D01*
X80871785Y-69713928D01*
X81234642Y-69623214D01*
X81506785Y-69623214D01*
X81869642Y-69713928D01*
X82051071Y-69804642D01*
X82232500Y-69986071D01*
X82323214Y-70258214D01*
X82323214Y-70439642D01*
X82232500Y-70711785D01*
X82141785Y-70802500D01*
X82323214Y-71346785D02*
X82323214Y-72435357D01*
X80418214Y-71891071D02*
X82323214Y-71891071D01*
X89141904Y-66614523D02*
X89988571Y-67884523D01*
X89988571Y-66614523D02*
X89141904Y-67884523D01*
X90411904Y-66735476D02*
X90472380Y-66675000D01*
X90593333Y-66614523D01*
X90895714Y-66614523D01*
X91016666Y-66675000D01*
X91077142Y-66735476D01*
X91137619Y-66856428D01*
X91137619Y-66977380D01*
X91077142Y-67158809D01*
X90351428Y-67884523D01*
X91137619Y-67884523D01*
X89565238Y-72359761D02*
X89565238Y-72964523D01*
X89141904Y-71694523D02*
X89565238Y-72359761D01*
X89988571Y-71694523D01*
X90351428Y-71815476D02*
X90411904Y-71755000D01*
X90532857Y-71694523D01*
X90835238Y-71694523D01*
X90956190Y-71755000D01*
X91016666Y-71815476D01*
X91077142Y-71936428D01*
X91077142Y-72057380D01*
X91016666Y-72238809D01*
X90290952Y-72964523D01*
X91077142Y-72964523D01*
X80418214Y-76109285D02*
X82323214Y-76109285D01*
X81416071Y-76109285D02*
X81416071Y-77197857D01*
X80418214Y-77197857D02*
X82323214Y-77197857D01*
X82323214Y-77832857D02*
X80418214Y-78467857D01*
X82323214Y-79102857D01*
%TO.C,J3*%
X85725000Y-58011785D02*
X85725000Y-59372500D01*
X85634285Y-59644642D01*
X85452857Y-59826071D01*
X85180714Y-59916785D01*
X84999285Y-59916785D01*
X86450714Y-58011785D02*
X87630000Y-58011785D01*
X86995000Y-58737500D01*
X87267142Y-58737500D01*
X87448571Y-58828214D01*
X87539285Y-58918928D01*
X87630000Y-59100357D01*
X87630000Y-59553928D01*
X87539285Y-59735357D01*
X87448571Y-59826071D01*
X87267142Y-59916785D01*
X86722857Y-59916785D01*
X86541428Y-59826071D01*
X86450714Y-59735357D01*
%TO.C,D1*%
X157597928Y-107541785D02*
X157597928Y-105636785D01*
X158051500Y-105636785D01*
X158323642Y-105727500D01*
X158505071Y-105908928D01*
X158595785Y-106090357D01*
X158686500Y-106453214D01*
X158686500Y-106725357D01*
X158595785Y-107088214D01*
X158505071Y-107269642D01*
X158323642Y-107451071D01*
X158051500Y-107541785D01*
X157597928Y-107541785D01*
X160500785Y-107541785D02*
X159412214Y-107541785D01*
X159956500Y-107541785D02*
X159956500Y-105636785D01*
X159775071Y-105908928D01*
X159593642Y-106090357D01*
X159412214Y-106181071D01*
D12*
X163568095Y-111472380D02*
X163568095Y-110472380D01*
X164139523Y-111472380D02*
X163710952Y-110900952D01*
X164139523Y-110472380D02*
X163568095Y-111043809D01*
%TO.C,H4*%
X195453095Y-126597380D02*
X195453095Y-125597380D01*
X195453095Y-126073571D02*
X196024523Y-126073571D01*
X196024523Y-126597380D02*
X196024523Y-125597380D01*
X196929285Y-125930714D02*
X196929285Y-126597380D01*
X196691190Y-125549761D02*
X196453095Y-126264047D01*
X197072142Y-126264047D01*
D11*
%TO.C,D2*%
X156073928Y-113637785D02*
X156073928Y-111732785D01*
X156527500Y-111732785D01*
X156799642Y-111823500D01*
X156981071Y-112004928D01*
X157071785Y-112186357D01*
X157162500Y-112549214D01*
X157162500Y-112821357D01*
X157071785Y-113184214D01*
X156981071Y-113365642D01*
X156799642Y-113547071D01*
X156527500Y-113637785D01*
X156073928Y-113637785D01*
X157888214Y-111914214D02*
X157978928Y-111823500D01*
X158160357Y-111732785D01*
X158613928Y-111732785D01*
X158795357Y-111823500D01*
X158886071Y-111914214D01*
X158976785Y-112095642D01*
X158976785Y-112277071D01*
X158886071Y-112549214D01*
X157797500Y-113637785D01*
X158976785Y-113637785D01*
D12*
X161028095Y-117822380D02*
X161028095Y-116822380D01*
X161599523Y-117822380D02*
X161170952Y-117250952D01*
X161599523Y-116822380D02*
X161028095Y-117393809D01*
D11*
%TO.C,R2*%
X160972500Y-127353785D02*
X160337500Y-126446642D01*
X159883928Y-127353785D02*
X159883928Y-125448785D01*
X160609642Y-125448785D01*
X160791071Y-125539500D01*
X160881785Y-125630214D01*
X160972500Y-125811642D01*
X160972500Y-126083785D01*
X160881785Y-126265214D01*
X160791071Y-126355928D01*
X160609642Y-126446642D01*
X159883928Y-126446642D01*
X161698214Y-125630214D02*
X161788928Y-125539500D01*
X161970357Y-125448785D01*
X162423928Y-125448785D01*
X162605357Y-125539500D01*
X162696071Y-125630214D01*
X162786785Y-125811642D01*
X162786785Y-125993071D01*
X162696071Y-126265214D01*
X161607500Y-127353785D01*
X162786785Y-127353785D01*
%TO.C,J1*%
X89535000Y-77956785D02*
X89535000Y-79317500D01*
X89444285Y-79589642D01*
X89262857Y-79771071D01*
X88990714Y-79861785D01*
X88809285Y-79861785D01*
X91440000Y-79861785D02*
X90351428Y-79861785D01*
X90895714Y-79861785D02*
X90895714Y-77956785D01*
X90714285Y-78228928D01*
X90532857Y-78410357D01*
X90351428Y-78501071D01*
%TO.C,Q1*%
X183968571Y-124243214D02*
X183787142Y-124152500D01*
X183605714Y-123971071D01*
X183333571Y-123698928D01*
X183152142Y-123608214D01*
X182970714Y-123608214D01*
X183061428Y-124061785D02*
X182880000Y-123971071D01*
X182698571Y-123789642D01*
X182607857Y-123426785D01*
X182607857Y-122791785D01*
X182698571Y-122428928D01*
X182880000Y-122247500D01*
X183061428Y-122156785D01*
X183424285Y-122156785D01*
X183605714Y-122247500D01*
X183787142Y-122428928D01*
X183877857Y-122791785D01*
X183877857Y-123426785D01*
X183787142Y-123789642D01*
X183605714Y-123971071D01*
X183424285Y-124061785D01*
X183061428Y-124061785D01*
X185692142Y-124061785D02*
X184603571Y-124061785D01*
X185147857Y-124061785D02*
X185147857Y-122156785D01*
X184966428Y-122428928D01*
X184785000Y-122610357D01*
X184603571Y-122701071D01*
%TO.C,U1*%
X178497571Y-111229785D02*
X178497571Y-112771928D01*
X178588285Y-112953357D01*
X178679000Y-113044071D01*
X178860428Y-113134785D01*
X179223285Y-113134785D01*
X179404714Y-113044071D01*
X179495428Y-112953357D01*
X179586142Y-112771928D01*
X179586142Y-111229785D01*
X181491142Y-113134785D02*
X180402571Y-113134785D01*
X180946857Y-113134785D02*
X180946857Y-111229785D01*
X180765428Y-111501928D01*
X180584000Y-111683357D01*
X180402571Y-111774071D01*
%TO.C,R7*%
X164782500Y-89761785D02*
X164147500Y-88854642D01*
X163693928Y-89761785D02*
X163693928Y-87856785D01*
X164419642Y-87856785D01*
X164601071Y-87947500D01*
X164691785Y-88038214D01*
X164782500Y-88219642D01*
X164782500Y-88491785D01*
X164691785Y-88673214D01*
X164601071Y-88763928D01*
X164419642Y-88854642D01*
X163693928Y-88854642D01*
X165417500Y-87856785D02*
X166687500Y-87856785D01*
X165871071Y-89761785D01*
%TO.C,R6*%
X164782500Y-82141785D02*
X164147500Y-81234642D01*
X163693928Y-82141785D02*
X163693928Y-80236785D01*
X164419642Y-80236785D01*
X164601071Y-80327500D01*
X164691785Y-80418214D01*
X164782500Y-80599642D01*
X164782500Y-80871785D01*
X164691785Y-81053214D01*
X164601071Y-81143928D01*
X164419642Y-81234642D01*
X163693928Y-81234642D01*
X166415357Y-80236785D02*
X166052500Y-80236785D01*
X165871071Y-80327500D01*
X165780357Y-80418214D01*
X165598928Y-80690357D01*
X165508214Y-81053214D01*
X165508214Y-81778928D01*
X165598928Y-81960357D01*
X165689642Y-82051071D01*
X165871071Y-82141785D01*
X166233928Y-82141785D01*
X166415357Y-82051071D01*
X166506071Y-81960357D01*
X166596785Y-81778928D01*
X166596785Y-81325357D01*
X166506071Y-81143928D01*
X166415357Y-81053214D01*
X166233928Y-80962500D01*
X165871071Y-80962500D01*
X165689642Y-81053214D01*
X165598928Y-81143928D01*
X165508214Y-81325357D01*
%TO.C,J2*%
X85725000Y-116641785D02*
X85725000Y-118002500D01*
X85634285Y-118274642D01*
X85452857Y-118456071D01*
X85180714Y-118546785D01*
X84999285Y-118546785D01*
X86541428Y-116823214D02*
X86632142Y-116732500D01*
X86813571Y-116641785D01*
X87267142Y-116641785D01*
X87448571Y-116732500D01*
X87539285Y-116823214D01*
X87630000Y-117004642D01*
X87630000Y-117186071D01*
X87539285Y-117458214D01*
X86450714Y-118546785D01*
X87630000Y-118546785D01*
%TO.C,R3*%
X164782500Y-57249785D02*
X164147500Y-56342642D01*
X163693928Y-57249785D02*
X163693928Y-55344785D01*
X164419642Y-55344785D01*
X164601071Y-55435500D01*
X164691785Y-55526214D01*
X164782500Y-55707642D01*
X164782500Y-55979785D01*
X164691785Y-56161214D01*
X164601071Y-56251928D01*
X164419642Y-56342642D01*
X163693928Y-56342642D01*
X165417500Y-55344785D02*
X166596785Y-55344785D01*
X165961785Y-56070500D01*
X166233928Y-56070500D01*
X166415357Y-56161214D01*
X166506071Y-56251928D01*
X166596785Y-56433357D01*
X166596785Y-56886928D01*
X166506071Y-57068357D01*
X166415357Y-57159071D01*
X166233928Y-57249785D01*
X165689642Y-57249785D01*
X165508214Y-57159071D01*
X165417500Y-57068357D01*
D12*
%TO.C,H1*%
X82423095Y-50397380D02*
X82423095Y-49397380D01*
X82423095Y-49873571D02*
X82994523Y-49873571D01*
X82994523Y-50397380D02*
X82994523Y-49397380D01*
X83994523Y-50397380D02*
X83423095Y-50397380D01*
X83708809Y-50397380D02*
X83708809Y-49397380D01*
X83613571Y-49540238D01*
X83518333Y-49635476D01*
X83423095Y-49683095D01*
D11*
%TO.C,RV3*%
X192922071Y-105509785D02*
X192287071Y-104602642D01*
X191833500Y-105509785D02*
X191833500Y-103604785D01*
X192559214Y-103604785D01*
X192740642Y-103695500D01*
X192831357Y-103786214D01*
X192922071Y-103967642D01*
X192922071Y-104239785D01*
X192831357Y-104421214D01*
X192740642Y-104511928D01*
X192559214Y-104602642D01*
X191833500Y-104602642D01*
X193466357Y-103604785D02*
X194101357Y-105509785D01*
X194736357Y-103604785D01*
X195189928Y-103604785D02*
X196369214Y-103604785D01*
X195734214Y-104330500D01*
X196006357Y-104330500D01*
X196187785Y-104421214D01*
X196278500Y-104511928D01*
X196369214Y-104693357D01*
X196369214Y-105146928D01*
X196278500Y-105328357D01*
X196187785Y-105419071D01*
X196006357Y-105509785D01*
X195462071Y-105509785D01*
X195280642Y-105419071D01*
X195189928Y-105328357D01*
D12*
%TO.C,H3*%
X195453095Y-50397380D02*
X195453095Y-49397380D01*
X195453095Y-49873571D02*
X196024523Y-49873571D01*
X196024523Y-50397380D02*
X196024523Y-49397380D01*
X196405476Y-49397380D02*
X197024523Y-49397380D01*
X196691190Y-49778333D01*
X196834047Y-49778333D01*
X196929285Y-49825952D01*
X196976904Y-49873571D01*
X197024523Y-49968809D01*
X197024523Y-50206904D01*
X196976904Y-50302142D01*
X196929285Y-50349761D01*
X196834047Y-50397380D01*
X196548333Y-50397380D01*
X196453095Y-50349761D01*
X196405476Y-50302142D01*
D11*
%TO.C,RV1*%
X193176071Y-60678785D02*
X192541071Y-59771642D01*
X192087500Y-60678785D02*
X192087500Y-58773785D01*
X192813214Y-58773785D01*
X192994642Y-58864500D01*
X193085357Y-58955214D01*
X193176071Y-59136642D01*
X193176071Y-59408785D01*
X193085357Y-59590214D01*
X192994642Y-59680928D01*
X192813214Y-59771642D01*
X192087500Y-59771642D01*
X193720357Y-58773785D02*
X194355357Y-60678785D01*
X194990357Y-58773785D01*
X196623214Y-60678785D02*
X195534642Y-60678785D01*
X196078928Y-60678785D02*
X196078928Y-58773785D01*
X195897500Y-59045928D01*
X195716071Y-59227357D01*
X195534642Y-59318071D01*
%TO.C,CRT1*%
X140264285Y-62900357D02*
X140173571Y-62991071D01*
X139901428Y-63081785D01*
X139720000Y-63081785D01*
X139447857Y-62991071D01*
X139266428Y-62809642D01*
X139175714Y-62628214D01*
X139085000Y-62265357D01*
X139085000Y-61993214D01*
X139175714Y-61630357D01*
X139266428Y-61448928D01*
X139447857Y-61267500D01*
X139720000Y-61176785D01*
X139901428Y-61176785D01*
X140173571Y-61267500D01*
X140264285Y-61358214D01*
X142169285Y-63081785D02*
X141534285Y-62174642D01*
X141080714Y-63081785D02*
X141080714Y-61176785D01*
X141806428Y-61176785D01*
X141987857Y-61267500D01*
X142078571Y-61358214D01*
X142169285Y-61539642D01*
X142169285Y-61811785D01*
X142078571Y-61993214D01*
X141987857Y-62083928D01*
X141806428Y-62174642D01*
X141080714Y-62174642D01*
X142713571Y-61176785D02*
X143802142Y-61176785D01*
X143257857Y-63081785D02*
X143257857Y-61176785D01*
X145435000Y-63081785D02*
X144346428Y-63081785D01*
X144890714Y-63081785D02*
X144890714Y-61176785D01*
X144709285Y-61448928D01*
X144527857Y-61630357D01*
X144346428Y-61721071D01*
D12*
X107254401Y-66524761D02*
X107635354Y-66524761D01*
X107825830Y-66429523D01*
X107921068Y-66334285D01*
X108111544Y-66048571D01*
X108206782Y-65667619D01*
X108206782Y-64905714D01*
X108111544Y-64715238D01*
X108016306Y-64620000D01*
X107825830Y-64524761D01*
X107444877Y-64524761D01*
X107254401Y-64620000D01*
X107159163Y-64715238D01*
X107063925Y-64905714D01*
X107063925Y-65381904D01*
X107159163Y-65572380D01*
X107254401Y-65667619D01*
X107444877Y-65762857D01*
X107825830Y-65762857D01*
X108016306Y-65667619D01*
X108111544Y-65572380D01*
X108206782Y-65381904D01*
X99754401Y-76024761D02*
X98611544Y-76024761D01*
X99182973Y-76024761D02*
X99182973Y-74024761D01*
X98992496Y-74310476D01*
X98802020Y-74500952D01*
X98611544Y-74596190D01*
X100992496Y-74024761D02*
X101182973Y-74024761D01*
X101373449Y-74120000D01*
X101468687Y-74215238D01*
X101563925Y-74405714D01*
X101659163Y-74786666D01*
X101659163Y-75262857D01*
X101563925Y-75643809D01*
X101468687Y-75834285D01*
X101373449Y-75929523D01*
X101182973Y-76024761D01*
X100992496Y-76024761D01*
X100802020Y-75929523D01*
X100706782Y-75834285D01*
X100611544Y-75643809D01*
X100516306Y-75262857D01*
X100516306Y-74786666D01*
X100611544Y-74405714D01*
X100706782Y-74215238D01*
X100802020Y-74120000D01*
X100992496Y-74024761D01*
X141063925Y-109215238D02*
X141159163Y-109120000D01*
X141349639Y-109024761D01*
X141825830Y-109024761D01*
X142016306Y-109120000D01*
X142111544Y-109215238D01*
X142206782Y-109405714D01*
X142206782Y-109596190D01*
X142111544Y-109881904D01*
X140968687Y-111024761D01*
X142206782Y-111024761D01*
X118254401Y-116024761D02*
X117111544Y-116024761D01*
X117682973Y-116024761D02*
X117682973Y-114024761D01*
X117492496Y-114310476D01*
X117302020Y-114500952D01*
X117111544Y-114596190D01*
X119968687Y-114691428D02*
X119968687Y-116024761D01*
X119492496Y-113929523D02*
X119016306Y-115358095D01*
X120254401Y-115358095D01*
X154016306Y-87191428D02*
X154016306Y-88524761D01*
X153540115Y-86429523D02*
X153063925Y-87858095D01*
X154302020Y-87858095D01*
X131968687Y-59024761D02*
X133302020Y-59024761D01*
X132444877Y-61024761D01*
X97409047Y-87264761D02*
X96266190Y-87264761D01*
X96837619Y-87264761D02*
X96837619Y-85264761D01*
X96647142Y-85550476D01*
X96456666Y-85740952D01*
X96266190Y-85836190D01*
X99313809Y-87264761D02*
X98170952Y-87264761D01*
X98742380Y-87264761D02*
X98742380Y-85264761D01*
X98551904Y-85550476D01*
X98361428Y-85740952D01*
X98170952Y-85836190D01*
X118444877Y-59881904D02*
X118254401Y-59786666D01*
X118159163Y-59691428D01*
X118063925Y-59500952D01*
X118063925Y-59405714D01*
X118159163Y-59215238D01*
X118254401Y-59120000D01*
X118444877Y-59024761D01*
X118825830Y-59024761D01*
X119016306Y-59120000D01*
X119111544Y-59215238D01*
X119206782Y-59405714D01*
X119206782Y-59500952D01*
X119111544Y-59691428D01*
X119016306Y-59786666D01*
X118825830Y-59881904D01*
X118444877Y-59881904D01*
X118254401Y-59977142D01*
X118159163Y-60072380D01*
X118063925Y-60262857D01*
X118063925Y-60643809D01*
X118159163Y-60834285D01*
X118254401Y-60929523D01*
X118444877Y-61024761D01*
X118825830Y-61024761D01*
X119016306Y-60929523D01*
X119111544Y-60834285D01*
X119206782Y-60643809D01*
X119206782Y-60262857D01*
X119111544Y-60072380D01*
X119016306Y-59977142D01*
X118825830Y-59881904D01*
X98679047Y-98694761D02*
X97536190Y-98694761D01*
X98107619Y-98694761D02*
X98107619Y-96694761D01*
X97917142Y-96980476D01*
X97726666Y-97170952D01*
X97536190Y-97266190D01*
X99440952Y-96885238D02*
X99536190Y-96790000D01*
X99726666Y-96694761D01*
X100202857Y-96694761D01*
X100393333Y-96790000D01*
X100488571Y-96885238D01*
X100583809Y-97075714D01*
X100583809Y-97266190D01*
X100488571Y-97551904D01*
X99345714Y-98694761D01*
X100583809Y-98694761D01*
X135211428Y-116464761D02*
X134068571Y-116464761D01*
X134640000Y-116464761D02*
X134640000Y-114464761D01*
X134449523Y-114750476D01*
X134259047Y-114940952D01*
X134068571Y-115036190D01*
X149968687Y-99524761D02*
X151206782Y-99524761D01*
X150540115Y-100286666D01*
X150825830Y-100286666D01*
X151016306Y-100381904D01*
X151111544Y-100477142D01*
X151206782Y-100667619D01*
X151206782Y-101143809D01*
X151111544Y-101334285D01*
X151016306Y-101429523D01*
X150825830Y-101524761D01*
X150254401Y-101524761D01*
X150063925Y-101429523D01*
X149968687Y-101334285D01*
X151611544Y-74524761D02*
X150659163Y-74524761D01*
X150563925Y-75477142D01*
X150659163Y-75381904D01*
X150849639Y-75286666D01*
X151325830Y-75286666D01*
X151516306Y-75381904D01*
X151611544Y-75477142D01*
X151706782Y-75667619D01*
X151706782Y-76143809D01*
X151611544Y-76334285D01*
X151516306Y-76429523D01*
X151325830Y-76524761D01*
X150849639Y-76524761D01*
X150659163Y-76429523D01*
X150563925Y-76334285D01*
D11*
%TO.C,D3*%
X157343928Y-121257785D02*
X157343928Y-119352785D01*
X157797500Y-119352785D01*
X158069642Y-119443500D01*
X158251071Y-119624928D01*
X158341785Y-119806357D01*
X158432500Y-120169214D01*
X158432500Y-120441357D01*
X158341785Y-120804214D01*
X158251071Y-120985642D01*
X158069642Y-121167071D01*
X157797500Y-121257785D01*
X157343928Y-121257785D01*
X159067500Y-119352785D02*
X160246785Y-119352785D01*
X159611785Y-120078500D01*
X159883928Y-120078500D01*
X160065357Y-120169214D01*
X160156071Y-120259928D01*
X160246785Y-120441357D01*
X160246785Y-120894928D01*
X160156071Y-121076357D01*
X160065357Y-121167071D01*
X159883928Y-121257785D01*
X159339642Y-121257785D01*
X159158214Y-121167071D01*
X159067500Y-121076357D01*
D12*
X163568095Y-125442380D02*
X163568095Y-124442380D01*
X164139523Y-125442380D02*
X163710952Y-124870952D01*
X164139523Y-124442380D02*
X163568095Y-125013809D01*
%TO.C,H2*%
X88773095Y-131897380D02*
X88773095Y-130897380D01*
X88773095Y-131373571D02*
X89344523Y-131373571D01*
X89344523Y-131897380D02*
X89344523Y-130897380D01*
X89773095Y-130992619D02*
X89820714Y-130945000D01*
X89915952Y-130897380D01*
X90154047Y-130897380D01*
X90249285Y-130945000D01*
X90296904Y-130992619D01*
X90344523Y-131087857D01*
X90344523Y-131183095D01*
X90296904Y-131325952D01*
X89725476Y-131897380D01*
X90344523Y-131897380D01*
D11*
%TO.C,R8*%
X164782500Y-98397785D02*
X164147500Y-97490642D01*
X163693928Y-98397785D02*
X163693928Y-96492785D01*
X164419642Y-96492785D01*
X164601071Y-96583500D01*
X164691785Y-96674214D01*
X164782500Y-96855642D01*
X164782500Y-97127785D01*
X164691785Y-97309214D01*
X164601071Y-97399928D01*
X164419642Y-97490642D01*
X163693928Y-97490642D01*
X165871071Y-97309214D02*
X165689642Y-97218500D01*
X165598928Y-97127785D01*
X165508214Y-96946357D01*
X165508214Y-96855642D01*
X165598928Y-96674214D01*
X165689642Y-96583500D01*
X165871071Y-96492785D01*
X166233928Y-96492785D01*
X166415357Y-96583500D01*
X166506071Y-96674214D01*
X166596785Y-96855642D01*
X166596785Y-96946357D01*
X166506071Y-97127785D01*
X166415357Y-97218500D01*
X166233928Y-97309214D01*
X165871071Y-97309214D01*
X165689642Y-97399928D01*
X165598928Y-97490642D01*
X165508214Y-97672071D01*
X165508214Y-98034928D01*
X165598928Y-98216357D01*
X165689642Y-98307071D01*
X165871071Y-98397785D01*
X166233928Y-98397785D01*
X166415357Y-98307071D01*
X166506071Y-98216357D01*
X166596785Y-98034928D01*
X166596785Y-97672071D01*
X166506071Y-97490642D01*
X166415357Y-97399928D01*
X166233928Y-97309214D01*
%TO.C,R1*%
X179387500Y-103858785D02*
X178752500Y-102951642D01*
X178298928Y-103858785D02*
X178298928Y-101953785D01*
X179024642Y-101953785D01*
X179206071Y-102044500D01*
X179296785Y-102135214D01*
X179387500Y-102316642D01*
X179387500Y-102588785D01*
X179296785Y-102770214D01*
X179206071Y-102860928D01*
X179024642Y-102951642D01*
X178298928Y-102951642D01*
X181201785Y-103858785D02*
X180113214Y-103858785D01*
X180657500Y-103858785D02*
X180657500Y-101953785D01*
X180476071Y-102225928D01*
X180294642Y-102407357D01*
X180113214Y-102498071D01*
%TO.C,R5*%
X164782500Y-73505785D02*
X164147500Y-72598642D01*
X163693928Y-73505785D02*
X163693928Y-71600785D01*
X164419642Y-71600785D01*
X164601071Y-71691500D01*
X164691785Y-71782214D01*
X164782500Y-71963642D01*
X164782500Y-72235785D01*
X164691785Y-72417214D01*
X164601071Y-72507928D01*
X164419642Y-72598642D01*
X163693928Y-72598642D01*
X166506071Y-71600785D02*
X165598928Y-71600785D01*
X165508214Y-72507928D01*
X165598928Y-72417214D01*
X165780357Y-72326500D01*
X166233928Y-72326500D01*
X166415357Y-72417214D01*
X166506071Y-72507928D01*
X166596785Y-72689357D01*
X166596785Y-73142928D01*
X166506071Y-73324357D01*
X166415357Y-73415071D01*
X166233928Y-73505785D01*
X165780357Y-73505785D01*
X165598928Y-73415071D01*
X165508214Y-73324357D01*
%TO.C,J4*%
X85725000Y-107746785D02*
X85725000Y-109107500D01*
X85634285Y-109379642D01*
X85452857Y-109561071D01*
X85180714Y-109651785D01*
X84999285Y-109651785D01*
X87448571Y-108381785D02*
X87448571Y-109651785D01*
X86995000Y-107656071D02*
X86541428Y-109016785D01*
X87720714Y-109016785D01*
%TO.C,C1*%
X188540357Y-69029823D02*
X188631071Y-69120537D01*
X188721785Y-69392680D01*
X188721785Y-69574108D01*
X188631071Y-69846251D01*
X188449642Y-70027680D01*
X188268214Y-70118394D01*
X187905357Y-70209108D01*
X187633214Y-70209108D01*
X187270357Y-70118394D01*
X187088928Y-70027680D01*
X186907500Y-69846251D01*
X186816785Y-69574108D01*
X186816785Y-69392680D01*
X186907500Y-69120537D01*
X186998214Y-69029823D01*
X188721785Y-67215537D02*
X188721785Y-68304108D01*
X188721785Y-67759823D02*
X186816785Y-67759823D01*
X187088928Y-67941251D01*
X187270357Y-68122680D01*
X187361071Y-68304108D01*
%TO.C,RV2*%
X192922071Y-81633785D02*
X192287071Y-80726642D01*
X191833500Y-81633785D02*
X191833500Y-79728785D01*
X192559214Y-79728785D01*
X192740642Y-79819500D01*
X192831357Y-79910214D01*
X192922071Y-80091642D01*
X192922071Y-80363785D01*
X192831357Y-80545214D01*
X192740642Y-80635928D01*
X192559214Y-80726642D01*
X191833500Y-80726642D01*
X193466357Y-79728785D02*
X194101357Y-81633785D01*
X194736357Y-79728785D01*
X195280642Y-79910214D02*
X195371357Y-79819500D01*
X195552785Y-79728785D01*
X196006357Y-79728785D01*
X196187785Y-79819500D01*
X196278500Y-79910214D01*
X196369214Y-80091642D01*
X196369214Y-80273071D01*
X196278500Y-80545214D01*
X195189928Y-81633785D01*
X196369214Y-81633785D01*
%TO.C,R4*%
X164782500Y-64869785D02*
X164147500Y-63962642D01*
X163693928Y-64869785D02*
X163693928Y-62964785D01*
X164419642Y-62964785D01*
X164601071Y-63055500D01*
X164691785Y-63146214D01*
X164782500Y-63327642D01*
X164782500Y-63599785D01*
X164691785Y-63781214D01*
X164601071Y-63871928D01*
X164419642Y-63962642D01*
X163693928Y-63962642D01*
X166415357Y-63599785D02*
X166415357Y-64869785D01*
X165961785Y-62874071D02*
X165508214Y-64234785D01*
X166687500Y-64234785D01*
D13*
%TO.C,J3*%
X85030000Y-63500000D02*
X85030000Y-76260000D01*
X85030000Y-62230000D02*
X85030000Y-60900000D01*
X85030000Y-60900000D02*
X86360000Y-60900000D01*
X85030000Y-76260000D02*
X87690000Y-76260000D01*
X85030000Y-63500000D02*
X87690000Y-63500000D01*
X87690000Y-63500000D02*
X87690000Y-76260000D01*
%TO.C,D1*%
X160870000Y-110340000D02*
X160870000Y-108100000D01*
X162790000Y-109220000D02*
X160870000Y-109220000D01*
X156630000Y-110340000D02*
X160870000Y-110340000D01*
X156630000Y-108100000D02*
X156630000Y-110340000D01*
X160150000Y-110340000D02*
X160150000Y-108100000D01*
X154710000Y-109220000D02*
X156630000Y-109220000D01*
X160030000Y-110340000D02*
X160030000Y-108100000D01*
X160270000Y-110340000D02*
X160270000Y-108100000D01*
X160870000Y-108100000D02*
X156630000Y-108100000D01*
%TO.C,D2*%
X159000000Y-116690000D02*
X159000000Y-114450000D01*
X160250000Y-115570000D02*
X159600000Y-115570000D01*
X155360000Y-114450000D02*
X155360000Y-116690000D01*
X159600000Y-114450000D02*
X155360000Y-114450000D01*
X154710000Y-115570000D02*
X155360000Y-115570000D01*
X158880000Y-116690000D02*
X158880000Y-114450000D01*
X159600000Y-116690000D02*
X159600000Y-114450000D01*
X158760000Y-116690000D02*
X158760000Y-114450000D01*
X155360000Y-116690000D02*
X159600000Y-116690000D01*
%TO.C,R2*%
X156670000Y-127820000D02*
X156670000Y-131260000D01*
X154710000Y-129540000D02*
X156670000Y-129540000D01*
X165910000Y-131260000D02*
X165910000Y-127820000D01*
X167870000Y-129540000D02*
X165910000Y-129540000D01*
X165910000Y-127820000D02*
X156670000Y-127820000D01*
X156670000Y-131260000D02*
X165910000Y-131260000D01*
%TO.C,J1*%
X81875000Y-80725000D02*
X91845000Y-80725000D01*
X91445000Y-83005000D02*
X91445000Y-85705000D01*
X80875000Y-103945000D02*
X80875000Y-80725000D01*
X80875000Y-80725000D02*
X81875000Y-80725000D01*
X88135000Y-80435000D02*
X84135000Y-80435000D01*
X91845000Y-85705000D02*
X91845000Y-103945000D01*
X91845000Y-80725000D02*
X91845000Y-83005000D01*
X91445000Y-85705000D02*
X91845000Y-85705000D01*
X81875000Y-80725000D02*
X81875000Y-103945000D01*
X91845000Y-83005000D02*
X91445000Y-83005000D01*
X91845000Y-103945000D02*
X80875000Y-103945000D01*
%TO.C,Q1*%
X181505000Y-125265000D02*
X177905000Y-125265000D01*
X177896555Y-125287316D02*
G75*
G03*
X178925000Y-129565000I1808445J-1827684D01*
G01*
X180525000Y-129565000D02*
G75*
G03*
X181516875Y-125273259I-820000J2450000D01*
G01*
%TO.C,U1*%
X182345000Y-119445000D02*
X182345000Y-114245000D01*
X180695000Y-119445000D02*
X182345000Y-119445000D01*
X177045000Y-114245000D02*
X177045000Y-119445000D01*
X182345000Y-114245000D02*
X177045000Y-114245000D01*
X177045000Y-119445000D02*
X178695000Y-119445000D01*
X180695000Y-119445000D02*
G75*
G03*
X178695000Y-119445000I-1000000J0D01*
G01*
%TO.C,R7*%
X170170000Y-94630000D02*
X170170000Y-94150000D01*
X170170000Y-90790000D02*
X170170000Y-91270000D01*
X160030000Y-94150000D02*
X160030000Y-94630000D01*
X160030000Y-91270000D02*
X160030000Y-90790000D01*
X160030000Y-94630000D02*
X170170000Y-94630000D01*
X160030000Y-90790000D02*
X170170000Y-90790000D01*
%TO.C,R6*%
X160030000Y-83650000D02*
X160030000Y-83170000D01*
X160030000Y-87010000D02*
X170170000Y-87010000D01*
X160030000Y-86530000D02*
X160030000Y-87010000D01*
X170170000Y-83170000D02*
X170170000Y-83650000D01*
X160030000Y-83170000D02*
X170170000Y-83170000D01*
X170170000Y-87010000D02*
X170170000Y-86530000D01*
%TO.C,J2*%
X85030000Y-120015000D02*
X85030000Y-118685000D01*
X85030000Y-121285000D02*
X85030000Y-123885000D01*
X85030000Y-121285000D02*
X87690000Y-121285000D01*
X85030000Y-118685000D02*
X86360000Y-118685000D01*
X85030000Y-123885000D02*
X87690000Y-123885000D01*
X87690000Y-121285000D02*
X87690000Y-123885000D01*
%TO.C,R3*%
X170170000Y-58250000D02*
X170170000Y-57770000D01*
X160030000Y-61610000D02*
X160030000Y-61130000D01*
X170170000Y-61610000D02*
X160030000Y-61610000D01*
X170170000Y-57770000D02*
X160030000Y-57770000D01*
X160030000Y-57770000D02*
X160030000Y-58250000D01*
X170170000Y-61130000D02*
X170170000Y-61610000D01*
%TO.C,RV3*%
X205880000Y-109735000D02*
X205880000Y-116325000D01*
X205880000Y-111326000D02*
X205880000Y-114735000D01*
X190460000Y-106660000D02*
X199530000Y-106660000D01*
X205880000Y-111326000D02*
X212330000Y-111326000D01*
X199530000Y-106660000D02*
X199530000Y-119400000D01*
X199530000Y-116325000D02*
X205880000Y-116325000D01*
X190460000Y-119400000D02*
X199530000Y-119400000D01*
X212330000Y-111326000D02*
X212330000Y-114735000D01*
X190460000Y-106660000D02*
X190460000Y-119400000D01*
X199530000Y-109735000D02*
X199530000Y-116325000D01*
X199530000Y-109735000D02*
X205880000Y-109735000D01*
X205880000Y-114735000D02*
X212330000Y-114735000D01*
%TO.C,RV1*%
X205860000Y-69650000D02*
X212310000Y-69650000D01*
X199510000Y-64650000D02*
X199510000Y-71240000D01*
X199510000Y-64650000D02*
X205860000Y-64650000D01*
X190440000Y-74315000D02*
X199510000Y-74315000D01*
X190440000Y-61575000D02*
X199510000Y-61575000D01*
X190440000Y-61575000D02*
X190440000Y-74315000D01*
X199510000Y-61575000D02*
X199510000Y-74315000D01*
X205860000Y-66241000D02*
X212310000Y-66241000D01*
X212310000Y-66241000D02*
X212310000Y-69650000D01*
X205860000Y-64650000D02*
X205860000Y-71240000D01*
X205860000Y-66241000D02*
X205860000Y-69650000D01*
X199510000Y-71240000D02*
X205860000Y-71240000D01*
%TO.C,CRT1*%
X127135354Y-102120000D02*
X123635354Y-102120000D01*
X127135354Y-99620000D02*
X127135354Y-102120000D01*
X123635354Y-102120000D02*
X123635354Y-99620000D01*
X151035354Y-87620000D02*
G75*
G03*
X151035354Y-87620000I-25400000J0D01*
G01*
%TO.C,D3*%
X160270000Y-124310000D02*
X160270000Y-122070000D01*
X160030000Y-124310000D02*
X160030000Y-122070000D01*
X154710000Y-123190000D02*
X156630000Y-123190000D01*
X156630000Y-124310000D02*
X160870000Y-124310000D01*
X160870000Y-124310000D02*
X160870000Y-122070000D01*
X160870000Y-122070000D02*
X156630000Y-122070000D01*
X156630000Y-122070000D02*
X156630000Y-124310000D01*
X162790000Y-123190000D02*
X160870000Y-123190000D01*
X160150000Y-124310000D02*
X160150000Y-122070000D01*
%TO.C,R8*%
X168370000Y-101700000D02*
X168370000Y-98960000D01*
X161060000Y-100330000D02*
X161830000Y-100330000D01*
X169140000Y-100330000D02*
X168370000Y-100330000D01*
X168370000Y-98960000D02*
X161830000Y-98960000D01*
X161830000Y-101700000D02*
X168370000Y-101700000D01*
X161830000Y-98960000D02*
X161830000Y-101700000D01*
%TO.C,R1*%
X182975000Y-107415000D02*
X182975000Y-104675000D01*
X175665000Y-106045000D02*
X176435000Y-106045000D01*
X176435000Y-107415000D02*
X182975000Y-107415000D01*
X183745000Y-106045000D02*
X182975000Y-106045000D01*
X182975000Y-104675000D02*
X176435000Y-104675000D01*
X176435000Y-104675000D02*
X176435000Y-107415000D01*
%TO.C,R5*%
X160030000Y-74280000D02*
X160030000Y-78120000D01*
X171280000Y-76200000D02*
X170170000Y-76200000D01*
X170170000Y-74280000D02*
X160030000Y-74280000D01*
X160030000Y-78120000D02*
X170170000Y-78120000D01*
X170170000Y-78120000D02*
X170170000Y-74280000D01*
X158920000Y-76200000D02*
X160030000Y-76200000D01*
%TO.C,J4*%
X85030000Y-109790000D02*
X86360000Y-109790000D01*
X87690000Y-112390000D02*
X87690000Y-114990000D01*
X85030000Y-112390000D02*
X85030000Y-114990000D01*
X85030000Y-114990000D02*
X87690000Y-114990000D01*
X85030000Y-111120000D02*
X85030000Y-109790000D01*
X85030000Y-112390000D02*
X87690000Y-112390000D01*
%TO.C,C1*%
X186484000Y-70153323D02*
X182851000Y-70153323D01*
X185981000Y-71313323D02*
X182851000Y-71313323D01*
X180369000Y-72033323D02*
X177752000Y-72033323D01*
X186628000Y-69513323D02*
X176592000Y-69513323D01*
X184664000Y-72793323D02*
X178556000Y-72793323D01*
X186333000Y-70593323D02*
X182851000Y-70593323D01*
X186174000Y-70953323D02*
X182851000Y-70953323D01*
X186194000Y-70913323D02*
X182851000Y-70913323D01*
X185363000Y-72153323D02*
X182851000Y-72153323D01*
X180369000Y-70113323D02*
X176725000Y-70113323D01*
X180369000Y-69993323D02*
X176692000Y-69993323D01*
X184864000Y-72633323D02*
X178356000Y-72633323D01*
X186548000Y-69913323D02*
X176672000Y-69913323D01*
X180369000Y-70193323D02*
X176748000Y-70193323D01*
X186393000Y-70433323D02*
X182851000Y-70433323D01*
X182988000Y-73633323D02*
X180232000Y-73633323D01*
X180369000Y-70473323D02*
X176842000Y-70473323D01*
X183456000Y-73473323D02*
X179764000Y-73473323D01*
X184911000Y-72593323D02*
X178309000Y-72593323D01*
X183975000Y-73233323D02*
X179245000Y-73233323D01*
X180369000Y-71953323D02*
X177685000Y-71953323D01*
X186434000Y-70313323D02*
X182851000Y-70313323D01*
X184957000Y-72553323D02*
X178263000Y-72553323D01*
X183899000Y-73273323D02*
X179321000Y-73273323D01*
X186072000Y-71153323D02*
X182851000Y-71153323D01*
X185326000Y-72193323D02*
X182851000Y-72193323D01*
X183647000Y-73393323D02*
X179573000Y-73393323D01*
X180369000Y-71673323D02*
X177472000Y-71673323D01*
X186495000Y-70113323D02*
X182851000Y-70113323D01*
X186678000Y-69072323D02*
X176542000Y-69072323D01*
X186300000Y-70673323D02*
X182851000Y-70673323D01*
X180369000Y-71313323D02*
X177239000Y-71313323D01*
X180369000Y-71473323D02*
X177337000Y-71473323D01*
X186528000Y-69993323D02*
X182851000Y-69993323D01*
X186378000Y-70473323D02*
X182851000Y-70473323D01*
X180369000Y-70993323D02*
X177065000Y-70993323D01*
X185660000Y-71793323D02*
X182851000Y-71793323D01*
X186447000Y-70273323D02*
X182851000Y-70273323D01*
X180369000Y-71073323D02*
X177106000Y-71073323D01*
X180369000Y-70433323D02*
X176827000Y-70433323D01*
X185857000Y-71513323D02*
X182851000Y-71513323D01*
X185630000Y-71833323D02*
X182851000Y-71833323D01*
X186683000Y-68992323D02*
X176537000Y-68992323D01*
X180369000Y-70913323D02*
X177026000Y-70913323D01*
X185502000Y-71993323D02*
X182851000Y-71993323D01*
X180369000Y-71433323D02*
X177312000Y-71433323D01*
X184555000Y-72873323D02*
X178665000Y-72873323D01*
X185567000Y-71913323D02*
X182851000Y-71913323D01*
X180369000Y-71273323D02*
X177215000Y-71273323D01*
X180369000Y-70553323D02*
X176872000Y-70553323D01*
X185211000Y-72313323D02*
X182851000Y-72313323D01*
X180369000Y-72313323D02*
X178009000Y-72313323D01*
X180369000Y-71233323D02*
X177193000Y-71233323D01*
X180369000Y-71553323D02*
X177389000Y-71553323D01*
X184049000Y-73193323D02*
X179171000Y-73193323D01*
X180369000Y-72353323D02*
X178049000Y-72353323D01*
X180369000Y-71833323D02*
X177590000Y-71833323D01*
X185883000Y-71473323D02*
X182851000Y-71473323D01*
X184120000Y-73153323D02*
X179100000Y-73153323D01*
X186685000Y-68952323D02*
X176535000Y-68952323D01*
X186460000Y-70233323D02*
X182851000Y-70233323D01*
X180369000Y-71593323D02*
X177416000Y-71593323D01*
X186640000Y-69433323D02*
X176580000Y-69433323D01*
X184499000Y-72913323D02*
X178721000Y-72913323D01*
X180369000Y-70353323D02*
X176799000Y-70353323D01*
X184255000Y-73073323D02*
X178965000Y-73073323D01*
X186421000Y-70353323D02*
X182851000Y-70353323D01*
X185599000Y-71873323D02*
X182851000Y-71873323D01*
X183735000Y-73353323D02*
X179485000Y-73353323D01*
X186135000Y-71033323D02*
X182851000Y-71033323D01*
X186650000Y-69352323D02*
X176570000Y-69352323D01*
X186634000Y-69473323D02*
X176586000Y-69473323D01*
X185690000Y-71753323D02*
X182851000Y-71753323D01*
X180369000Y-70833323D02*
X176989000Y-70833323D01*
X180369000Y-70953323D02*
X177046000Y-70953323D01*
X180369000Y-70593323D02*
X176887000Y-70593323D01*
X185130000Y-72393323D02*
X182851000Y-72393323D01*
X180369000Y-71513323D02*
X177363000Y-71513323D01*
X186689000Y-68832323D02*
X176531000Y-68832323D01*
X183352000Y-73513323D02*
X179868000Y-73513323D01*
X185002000Y-72513323D02*
X178218000Y-72513323D01*
X183819000Y-73313323D02*
X179401000Y-73313323D01*
X186472000Y-70193323D02*
X182851000Y-70193323D01*
X185088000Y-72433323D02*
X182851000Y-72433323D01*
X186584000Y-69753323D02*
X176636000Y-69753323D01*
X186566000Y-69833323D02*
X176654000Y-69833323D01*
X180369000Y-71153323D02*
X177148000Y-71153323D01*
X180369000Y-71633323D02*
X177444000Y-71633323D01*
X185468000Y-72033323D02*
X182851000Y-72033323D01*
X180369000Y-72073323D02*
X177786000Y-72073323D01*
X185399000Y-72113323D02*
X182851000Y-72113323D01*
X183554000Y-73433323D02*
X179666000Y-73433323D01*
X186155000Y-70993323D02*
X182851000Y-70993323D01*
X186538000Y-69953323D02*
X176682000Y-69953323D01*
X184816000Y-72673323D02*
X178404000Y-72673323D01*
X184380000Y-72993323D02*
X178840000Y-72993323D01*
X186557000Y-69873323D02*
X176663000Y-69873323D01*
X180369000Y-71873323D02*
X177621000Y-71873323D01*
X186660000Y-69272323D02*
X176560000Y-69272323D01*
X185535000Y-71953323D02*
X182851000Y-71953323D01*
X186213000Y-70873323D02*
X182851000Y-70873323D01*
X182209000Y-73793323D02*
X181011000Y-73793323D01*
X184610000Y-72833323D02*
X178610000Y-72833323D01*
X182672000Y-73713323D02*
X180548000Y-73713323D01*
X180369000Y-70753323D02*
X176953000Y-70753323D01*
X186317000Y-70633323D02*
X182851000Y-70633323D01*
X185776000Y-71633323D02*
X182851000Y-71633323D01*
X182472000Y-73753323D02*
X180748000Y-73753323D01*
X186690000Y-68752323D02*
X176530000Y-68752323D01*
X183120000Y-73593323D02*
X180100000Y-73593323D01*
X180369000Y-70673323D02*
X176920000Y-70673323D01*
X186607000Y-69633323D02*
X176613000Y-69633323D01*
X184985000Y-63732677D02*
X183985000Y-63732677D01*
X186267000Y-70753323D02*
X182851000Y-70753323D01*
X180369000Y-70273323D02*
X176773000Y-70273323D01*
X180369000Y-72153323D02*
X177857000Y-72153323D01*
X185434000Y-72073323D02*
X182851000Y-72073323D01*
X180369000Y-71793323D02*
X177560000Y-71793323D01*
X186575000Y-69793323D02*
X176645000Y-69793323D01*
X186093000Y-71113323D02*
X182851000Y-71113323D01*
X180369000Y-71113323D02*
X177127000Y-71113323D01*
X186600000Y-69673323D02*
X176620000Y-69673323D01*
X180369000Y-70633323D02*
X176903000Y-70633323D01*
X186688000Y-68872323D02*
X176532000Y-68872323D01*
X180369000Y-71033323D02*
X177085000Y-71033323D01*
X185748000Y-71673323D02*
X182851000Y-71673323D01*
X180369000Y-71393323D02*
X177287000Y-71393323D01*
X186027000Y-71233323D02*
X182851000Y-71233323D01*
X185046000Y-72473323D02*
X178174000Y-72473323D01*
X180369000Y-70153323D02*
X176736000Y-70153323D01*
X180369000Y-72273323D02*
X177970000Y-72273323D01*
X186655000Y-69312323D02*
X176565000Y-69312323D01*
X185957000Y-71353323D02*
X182851000Y-71353323D01*
X185720000Y-71713323D02*
X182851000Y-71713323D01*
X186690000Y-68712323D02*
X176530000Y-68712323D01*
X184485000Y-63232677D02*
X184485000Y-64232677D01*
X185804000Y-71593323D02*
X182851000Y-71593323D01*
X186348000Y-70553323D02*
X182851000Y-70553323D01*
X180369000Y-71993323D02*
X177718000Y-71993323D01*
X180369000Y-70073323D02*
X176713000Y-70073323D01*
X184319000Y-73033323D02*
X178901000Y-73033323D01*
X180369000Y-70873323D02*
X177007000Y-70873323D01*
X180369000Y-72233323D02*
X177931000Y-72233323D01*
X186114000Y-71073323D02*
X182851000Y-71073323D01*
X180369000Y-72113323D02*
X177821000Y-72113323D01*
X186664000Y-69232323D02*
X176556000Y-69232323D01*
X185250000Y-72273323D02*
X182851000Y-72273323D01*
X184440000Y-72953323D02*
X178780000Y-72953323D01*
X186614000Y-69593323D02*
X176606000Y-69593323D01*
X186231000Y-70833323D02*
X182851000Y-70833323D01*
X184716000Y-72753323D02*
X178504000Y-72753323D01*
X186050000Y-71193323D02*
X182851000Y-71193323D01*
X180369000Y-72393323D02*
X178090000Y-72393323D01*
X186364000Y-70513323D02*
X182851000Y-70513323D01*
X186249000Y-70793323D02*
X182851000Y-70793323D01*
X180369000Y-70313323D02*
X176786000Y-70313323D01*
X186407000Y-70393323D02*
X182851000Y-70393323D01*
X184766000Y-72713323D02*
X178454000Y-72713323D01*
X183240000Y-73553323D02*
X179980000Y-73553323D01*
X186592000Y-69713323D02*
X176628000Y-69713323D01*
X180369000Y-71193323D02*
X177170000Y-71193323D01*
X186690000Y-68792323D02*
X176530000Y-68792323D01*
X186672000Y-69152323D02*
X176548000Y-69152323D01*
X186507000Y-70073323D02*
X182851000Y-70073323D01*
X182840000Y-73673323D02*
X180380000Y-73673323D01*
X186284000Y-70713323D02*
X182851000Y-70713323D01*
X180369000Y-71353323D02*
X177263000Y-71353323D01*
X180369000Y-70393323D02*
X176813000Y-70393323D01*
X180369000Y-71713323D02*
X177500000Y-71713323D01*
X186675000Y-69112323D02*
X176545000Y-69112323D01*
X180369000Y-70793323D02*
X176971000Y-70793323D01*
X180369000Y-70513323D02*
X176856000Y-70513323D01*
X185908000Y-71433323D02*
X182851000Y-71433323D01*
X186517000Y-70033323D02*
X182851000Y-70033323D01*
X180369000Y-72193323D02*
X177894000Y-72193323D01*
X180369000Y-70033323D02*
X176703000Y-70033323D01*
X185289000Y-72233323D02*
X182851000Y-72233323D01*
X186687000Y-68912323D02*
X176533000Y-68912323D01*
X180369000Y-71913323D02*
X177653000Y-71913323D01*
X186645000Y-69392323D02*
X176575000Y-69392323D01*
X180369000Y-70713323D02*
X176936000Y-70713323D01*
X180369000Y-70233323D02*
X176760000Y-70233323D01*
X185933000Y-71393323D02*
X182851000Y-71393323D01*
X184189000Y-73113323D02*
X179031000Y-73113323D01*
X186680000Y-69032323D02*
X176540000Y-69032323D01*
X186621000Y-69553323D02*
X176599000Y-69553323D01*
X185171000Y-72353323D02*
X182851000Y-72353323D01*
X186005000Y-71273323D02*
X182851000Y-71273323D01*
X180369000Y-72433323D02*
X178132000Y-72433323D01*
X186668000Y-69192323D02*
X176552000Y-69192323D01*
X185831000Y-71553323D02*
X182851000Y-71553323D01*
X180369000Y-71753323D02*
X177530000Y-71753323D01*
X186730000Y-68712323D02*
G75*
G03*
X186730000Y-68712323I-5120000J0D01*
G01*
%TO.C,RV2*%
X212330000Y-87196000D02*
X212330000Y-90605000D01*
X199530000Y-82530000D02*
X199530000Y-95270000D01*
X190460000Y-82530000D02*
X199530000Y-82530000D01*
X205880000Y-90605000D02*
X212330000Y-90605000D01*
X205880000Y-85605000D02*
X205880000Y-92195000D01*
X199530000Y-85605000D02*
X205880000Y-85605000D01*
X190460000Y-95270000D02*
X199530000Y-95270000D01*
X205880000Y-87196000D02*
X212330000Y-87196000D01*
X199530000Y-85605000D02*
X199530000Y-92195000D01*
X199530000Y-92195000D02*
X205880000Y-92195000D01*
X190460000Y-82530000D02*
X190460000Y-95270000D01*
X205880000Y-87196000D02*
X205880000Y-90605000D01*
%TO.C,R4*%
X160030000Y-65390000D02*
X170170000Y-65390000D01*
X160030000Y-69230000D02*
X170170000Y-69230000D01*
X170170000Y-65390000D02*
X170170000Y-65870000D01*
X160030000Y-65870000D02*
X160030000Y-65390000D01*
X170170000Y-69230000D02*
X170170000Y-68750000D01*
X160030000Y-68750000D02*
X160030000Y-69230000D01*
%TD*%
M02*
