%TF.GenerationSoftware,KiCad,Pcbnew,6.0.9-8da3e8f707~117~ubuntu22.04.1*%
%TF.CreationDate,2022-12-13T20:05:36-05:00*%
%TF.ProjectId,anderson_crt,616e6465-7273-46f6-9e5f-6372742e6b69,rev?*%
%TF.SameCoordinates,Original*%
%TF.FileFunction,Copper,L2,Bot*%
%TF.FilePolarity,Positive*%
%FSLAX46Y46*%
G04 Gerber Fmt 4.6, Leading zero omitted, Abs format (unit mm)*
G04 Created by KiCad (PCBNEW 6.0.9-8da3e8f707~117~ubuntu22.04.1) date 2022-12-13 20:05:36*
%MOMM*%
%LPD*%
G01*
G04 APERTURE LIST*
G04 Aperture macros list*
%AMRoundRect*
0 Rectangle with rounded corners*
0 $1 Rounding radius*
0 $2 $3 $4 $5 $6 $7 $8 $9 X,Y pos of 4 corners*
0 Add a 4 corners polygon primitive as box body*
4,1,4,$2,$3,$4,$5,$6,$7,$8,$9,$2,$3,0*
0 Add four circle primitives for the rounded corners*
1,1,$1+$1,$2,$3*
1,1,$1+$1,$4,$5*
1,1,$1+$1,$6,$7*
1,1,$1+$1,$8,$9*
0 Add four rect primitives between the rounded corners*
20,1,$1+$1,$2,$3,$4,$5,0*
20,1,$1+$1,$4,$5,$6,$7,0*
20,1,$1+$1,$6,$7,$8,$9,0*
20,1,$1+$1,$8,$9,$2,$3,0*%
G04 Aperture macros list end*
%TA.AperFunction,ComponentPad*%
%ADD10R,1.700000X1.700000*%
%TD*%
%TA.AperFunction,ComponentPad*%
%ADD11O,1.700000X1.700000*%
%TD*%
%TA.AperFunction,ComponentPad*%
%ADD12R,1.600000X1.600000*%
%TD*%
%TA.AperFunction,ComponentPad*%
%ADD13O,1.600000X1.600000*%
%TD*%
%TA.AperFunction,ComponentPad*%
%ADD14C,1.600000*%
%TD*%
%TA.AperFunction,ComponentPad*%
%ADD15RoundRect,0.250000X-1.850000X1.330000X-1.850000X-1.330000X1.850000X-1.330000X1.850000X1.330000X0*%
%TD*%
%TA.AperFunction,ComponentPad*%
%ADD16O,4.200000X3.160000*%
%TD*%
%TA.AperFunction,ComponentPad*%
%ADD17R,1.100000X1.800000*%
%TD*%
%TA.AperFunction,ComponentPad*%
%ADD18RoundRect,0.275000X0.275000X0.625000X-0.275000X0.625000X-0.275000X-0.625000X0.275000X-0.625000X0*%
%TD*%
%TA.AperFunction,ComponentPad*%
%ADD19C,2.400000*%
%TD*%
%TA.AperFunction,ComponentPad*%
%ADD20O,2.400000X2.400000*%
%TD*%
%TA.AperFunction,ComponentPad*%
%ADD21C,1.800000*%
%TD*%
%TA.AperFunction,ComponentPad*%
%ADD22C,5.715000*%
%TD*%
%TA.AperFunction,ComponentPad*%
%ADD23R,2.000000X2.000000*%
%TD*%
%TA.AperFunction,ComponentPad*%
%ADD24C,2.000000*%
%TD*%
%TA.AperFunction,Conductor*%
%ADD25C,1.016000*%
%TD*%
G04 APERTURE END LIST*
D10*
%TO.P,J3,1,Pin_1*%
%TO.N,/+360V*%
X86360000Y-62230000D03*
D11*
%TO.P,J3,2,Pin_2*%
%TO.N,Net-(CRT1-Pad7)*%
X86360000Y-64770000D03*
%TO.P,J3,3,Pin_3*%
%TO.N,Net-(CRT1-Pad8)*%
X86360000Y-67310000D03*
%TO.P,J3,4,Pin_4*%
%TO.N,Net-(CRT1-Pad10)*%
X86360000Y-69850000D03*
%TO.P,J3,5,Pin_5*%
%TO.N,Net-(CRT1-Pad11)*%
X86360000Y-72390000D03*
%TO.P,J3,6,Pin_6*%
%TO.N,/0V*%
X86360000Y-74930000D03*
%TD*%
D12*
%TO.P,D1,1,K*%
%TO.N,/-1320V*%
X163830000Y-109220000D03*
D13*
%TO.P,D1,2,A*%
%TO.N,/H1*%
X153670000Y-109220000D03*
%TD*%
D12*
%TO.P,D2,1,K*%
%TO.N,Net-(D2-Pad1)*%
X161290000Y-115570000D03*
D13*
%TO.P,D2,2,A*%
%TO.N,/H1*%
X153670000Y-115570000D03*
%TD*%
D14*
%TO.P,R2,1*%
%TO.N,/-1400V*%
X153670000Y-129540000D03*
D13*
%TO.P,R2,2*%
%TO.N,Net-(Q1-Pad3)*%
X168910000Y-129540000D03*
%TD*%
D15*
%TO.P,J1,1,Pin_1*%
%TO.N,/+360V*%
X86135000Y-82435000D03*
D16*
%TO.P,J1,2,Pin_2*%
%TO.N,unconnected-(J1-Pad2)*%
X86135000Y-86395000D03*
%TO.P,J1,3,Pin_3*%
%TO.N,/0V*%
X86135000Y-90355000D03*
%TO.P,J1,4,Pin_4*%
%TO.N,unconnected-(J1-Pad4)*%
X86135000Y-94315000D03*
%TO.P,J1,5,Pin_5*%
%TO.N,unconnected-(J1-Pad5)*%
X86135000Y-98275000D03*
%TO.P,J1,6,Pin_6*%
%TO.N,/-1400V*%
X86135000Y-102235000D03*
%TD*%
D17*
%TO.P,Q1,1,E*%
%TO.N,Net-(Q1-Pad1)*%
X180975000Y-126715000D03*
D18*
%TO.P,Q1,2,B*%
%TO.N,Net-(D2-Pad1)*%
X179705000Y-128785000D03*
%TO.P,Q1,3,C*%
%TO.N,Net-(Q1-Pad3)*%
X178435000Y-126715000D03*
%TD*%
D12*
%TO.P,U1,1*%
%TO.N,unconnected-(U1-Pad1)*%
X183505000Y-118115000D03*
D13*
%TO.P,U1,2*%
%TO.N,Net-(J2-Pad2)*%
X183505000Y-115575000D03*
%TO.P,U1,3*%
%TO.N,Net-(Q1-Pad1)*%
X175885000Y-115575000D03*
%TO.P,U1,4*%
%TO.N,/-1320V*%
X175885000Y-118115000D03*
%TD*%
D19*
%TO.P,R7,1*%
%TO.N,/-935V*%
X158750000Y-92710000D03*
D20*
%TO.P,R7,2*%
%TO.N,/-1320V*%
X171450000Y-92710000D03*
%TD*%
D19*
%TO.P,R6,1*%
%TO.N,/-935V*%
X158750000Y-85090000D03*
D20*
%TO.P,R6,2*%
%TO.N,Net-(R5-Pad1)*%
X171450000Y-85090000D03*
%TD*%
D10*
%TO.P,J2,1,Pin_1*%
%TO.N,Net-(J2-Pad1)*%
X86360000Y-120015000D03*
D11*
%TO.P,J2,2,Pin_2*%
%TO.N,Net-(J2-Pad2)*%
X86360000Y-122555000D03*
%TD*%
D19*
%TO.P,R3,1*%
%TO.N,Net-(R3-Pad1)*%
X171450000Y-59690000D03*
D20*
%TO.P,R3,2*%
%TO.N,/+360V*%
X158750000Y-59690000D03*
%TD*%
D21*
%TO.P,RV3,1,1*%
%TO.N,Net-(J2-Pad1)*%
X194330000Y-115570000D03*
%TO.P,RV3,2,2*%
%TO.N,unconnected-(RV3-Pad2)*%
X194330000Y-113030000D03*
%TO.P,RV3,3,3*%
%TO.N,Net-(J2-Pad2)*%
X194330000Y-110490000D03*
%TD*%
%TO.P,RV1,1,1*%
%TO.N,Net-(R3-Pad1)*%
X194310000Y-70485000D03*
%TO.P,RV1,2,2*%
%TO.N,Net-(C1-Pad1)*%
X194310000Y-67945000D03*
%TO.P,RV1,3,3*%
%TO.N,Net-(R4-Pad2)*%
X194310000Y-65405000D03*
%TD*%
D22*
%TO.P,CRT1,1,H1*%
%TO.N,/H1*%
X130581354Y-109288000D03*
%TO.P,CRT1,2,K*%
X139492354Y-104996000D03*
%TO.P,CRT1,3,G1*%
%TO.N,Net-(CRT1-Pad3)*%
X145659354Y-97263000D03*
%TO.P,CRT1,4*%
%TO.N,N/C*%
X147860354Y-87620000D03*
%TO.P,CRT1,5,A1*%
%TO.N,Net-(CRT1-Pad5)*%
X145659354Y-77977000D03*
%TO.P,CRT1,7,Y1*%
%TO.N,Net-(CRT1-Pad7)*%
X130581354Y-65952000D03*
%TO.P,CRT1,8,Y2*%
%TO.N,Net-(CRT1-Pad8)*%
X120689354Y-65952000D03*
%TO.P,CRT1,9,A2*%
%TO.N,Net-(C1-Pad1)*%
X111778354Y-70244000D03*
%TO.P,CRT1,10,X1*%
%TO.N,Net-(CRT1-Pad10)*%
X105611354Y-77977000D03*
%TO.P,CRT1,11,X2*%
%TO.N,Net-(CRT1-Pad11)*%
X103410354Y-87620000D03*
%TO.P,CRT1,12*%
%TO.N,N/C*%
X105611354Y-97263000D03*
%TO.P,CRT1,14,H2*%
%TO.N,/H2*%
X120689354Y-109288000D03*
%TD*%
D12*
%TO.P,D3,1,K*%
%TO.N,Net-(D2-Pad1)*%
X163830000Y-123190000D03*
D13*
%TO.P,D3,2,A*%
%TO.N,/-1400V*%
X153670000Y-123190000D03*
%TD*%
D14*
%TO.P,R8,1*%
%TO.N,Net-(Q1-Pad3)*%
X170180000Y-100330000D03*
D13*
%TO.P,R8,2*%
%TO.N,Net-(CRT1-Pad3)*%
X160020000Y-100330000D03*
%TD*%
D14*
%TO.P,R1,1*%
%TO.N,Net-(R1-Pad1)*%
X184785000Y-106045000D03*
D13*
%TO.P,R1,2*%
%TO.N,Net-(R1-Pad2)*%
X174625000Y-106045000D03*
%TD*%
D19*
%TO.P,R5,1*%
%TO.N,Net-(R5-Pad1)*%
X172720000Y-76200000D03*
D20*
%TO.P,R5,2*%
%TO.N,/0V*%
X157480000Y-76200000D03*
%TD*%
D10*
%TO.P,J4,1,Pin_1*%
%TO.N,/H1*%
X86360000Y-111120000D03*
D11*
%TO.P,J4,2,Pin_2*%
%TO.N,/H2*%
X86360000Y-113660000D03*
%TD*%
D23*
%TO.P,C1,1*%
%TO.N,Net-(C1-Pad1)*%
X181610000Y-66212323D03*
D24*
%TO.P,C1,2*%
%TO.N,/0V*%
X181610000Y-71212323D03*
%TD*%
D21*
%TO.P,RV2,1,1*%
%TO.N,Net-(R5-Pad1)*%
X194330000Y-91440000D03*
%TO.P,RV2,2,2*%
%TO.N,Net-(CRT1-Pad5)*%
X194330000Y-88900000D03*
%TO.P,RV2,3,3*%
%TO.N,/-935V*%
X194330000Y-86360000D03*
%TD*%
D19*
%TO.P,R4,1*%
%TO.N,/0V*%
X158750000Y-67310000D03*
D20*
%TO.P,R4,2*%
%TO.N,Net-(R4-Pad2)*%
X171450000Y-67310000D03*
%TD*%
D25*
%TO.N,/0V*%
X107315000Y-60325000D02*
X144145000Y-60325000D01*
X144145000Y-60325000D02*
X151130000Y-67310000D01*
X92710000Y-74930000D02*
X107315000Y-60325000D01*
X151130000Y-67310000D02*
X158750000Y-67310000D01*
X86135000Y-90355000D02*
X93160000Y-90355000D01*
X93160000Y-90355000D02*
X95250000Y-88265000D01*
X95250000Y-88265000D02*
X95250000Y-81280000D01*
X92710000Y-78740000D02*
X92710000Y-74930000D01*
X95250000Y-81280000D02*
X92710000Y-78740000D01*
X157480000Y-68580000D02*
X158750000Y-67310000D01*
X157480000Y-76200000D02*
X157480000Y-68580000D01*
X86360000Y-74930000D02*
X92710000Y-74930000D01*
%TO.N,/H1*%
X130581354Y-109288000D02*
X135200354Y-109288000D01*
X135200354Y-109288000D02*
X139492354Y-104996000D01*
%TO.N,/-1320V*%
X173995000Y-118115000D02*
X175885000Y-118115000D01*
X171450000Y-92710000D02*
X163830000Y-100330000D01*
X163830000Y-109220000D02*
X165100000Y-109220000D01*
X165100000Y-109220000D02*
X173995000Y-118115000D01*
X163830000Y-100330000D02*
X163830000Y-109220000D01*
%TO.N,Net-(D2-Pad1)*%
X169545000Y-123190000D02*
X163830000Y-123190000D01*
X175895000Y-131445000D02*
X173355000Y-128905000D01*
X179705000Y-128385000D02*
X179705000Y-128905000D01*
X173355000Y-127000000D02*
X169545000Y-123190000D01*
X179705000Y-128905000D02*
X177165000Y-131445000D01*
X177165000Y-131445000D02*
X175895000Y-131445000D01*
X173355000Y-128905000D02*
X173355000Y-127000000D01*
%TO.N,/-1400V*%
X107090000Y-123190000D02*
X153670000Y-123190000D01*
X86135000Y-102235000D02*
X107090000Y-123190000D01*
%TO.N,Net-(Q1-Pad1)*%
X180975000Y-123825000D02*
X180975000Y-127115000D01*
X177170000Y-115575000D02*
X179705000Y-118110000D01*
X175885000Y-115575000D02*
X177170000Y-115575000D01*
X179705000Y-118110000D02*
X179705000Y-122555000D01*
X179705000Y-122555000D02*
X180975000Y-123825000D01*
%TO.N,Net-(R4-Pad2)*%
X177165000Y-61595000D02*
X171450000Y-67310000D01*
X190500000Y-61595000D02*
X177165000Y-61595000D01*
X194310000Y-65405000D02*
X190500000Y-61595000D01*
%TO.N,Net-(R5-Pad1)*%
X171450000Y-85090000D02*
X180340000Y-93980000D01*
X171450000Y-77470000D02*
X172720000Y-76200000D01*
X171450000Y-85090000D02*
X171450000Y-77470000D01*
X191790000Y-93980000D02*
X194330000Y-91440000D01*
X180340000Y-93980000D02*
X191790000Y-93980000D01*
%TO.N,/-935V*%
X158750000Y-92710000D02*
X158750000Y-85090000D01*
%TO.N,unconnected-(RV3-Pad2)*%
X189230000Y-113030000D02*
X194330000Y-113030000D01*
X184785000Y-106045000D02*
X184785000Y-108585000D01*
X184785000Y-108585000D02*
X189230000Y-113030000D01*
%TD*%
M02*
