M48
; DRILL file {KiCad 6.0.9-8da3e8f707~117~ubuntu22.04.1} date Thu 15 Dec 2022 07:25:57 AM EST
; FORMAT={-:-/ absolute / inch / decimal}
; #@! TF.CreationDate,2022-12-15T07:25:57-05:00
; #@! TF.GenerationSoftware,Kicad,Pcbnew,6.0.9-8da3e8f707~117~ubuntu22.04.1
; #@! TF.FileFunction,Plated,1,2,PTH
FMAT,2
INCH
; #@! TA.AperFunction,Plated,PTH,ComponentDrill
T1C0.0252
; #@! TA.AperFunction,Plated,PTH,ComponentDrill
T2C0.0315
; #@! TA.AperFunction,Plated,PTH,ComponentDrill
T3C0.0394
; #@! TA.AperFunction,Plated,PTH,ComponentDrill
T4C0.0472
; #@! TA.AperFunction,Plated,PTH,ViaDrill
T5C0.0630
; #@! TA.AperFunction,Plated,PTH,ComponentDrill
T6C0.0669
; #@! TA.AperFunction,Plated,PTH,ComponentDrill
T7C0.0945
; #@! TA.AperFunction,Plated,PTH,ComponentDrill
T8C0.1772
; #@! TA.AperFunction,Plated,PTH,ComponentDrill
T9C0.3346
%
G90
G05
T1
X3.0343Y-5.476
X3.0657Y-5.224
X3.9843Y-5.476
X4.0157Y-5.224
T2
X2.85Y-4.4
X2.85Y-4.9
X3.25Y-5.1
X3.25Y-5.6
X3.75Y-5.1
X3.75Y-5.6
X4.05Y-4.4
X4.05Y-4.9
X4.6Y-4.55
X4.6Y-4.6484
X4.8Y-4.35
X4.8Y-4.85
X4.8Y-5.05
X4.8Y-5.55
X5.25Y-4.4
X5.25Y-4.9
X5.8Y-4.5016
X5.8Y-4.6984
X6.0Y-4.35
X6.0Y-4.85
X6.0Y-5.05
X6.0Y-5.55
X6.35Y-4.5
X6.35Y-5.0
X6.65Y-4.55
X6.65Y-4.6484
X6.85Y-4.35
X6.85Y-4.85
X6.85Y-5.0
X6.85Y-5.5
X7.35Y-4.5
X7.35Y-5.0
X7.8Y-4.5016
X7.8Y-4.6984
X8.0Y-4.35
X8.0Y-4.85
X8.0Y-5.0
X8.0Y-5.5
X8.4Y-4.45
X8.4Y-4.95
T3
X2.025Y-3.4
X2.025Y-3.5
X2.025Y-3.6
X2.025Y-3.7
X5.3Y-5.5
X5.4Y-5.5
X5.5Y-5.5
X7.25Y-5.5
X7.35Y-5.5
X7.45Y-5.5
X8.6Y-2.75
X8.6Y-2.85
X8.6Y-2.95
X8.6Y-3.05
X8.6Y-3.15
X8.6Y-3.25
T4
X2.55Y-2.1835
X2.55Y-2.3804
X3.125Y-1.85
X3.125Y-2.85
X3.5Y-1.85
X3.5Y-2.85
X4.5Y-3.2071
X4.5Y-4.0929
X5.2Y-1.85
X5.2Y-2.85
X5.75Y-1.85
X5.75Y-2.85
X6.5Y-3.1571
X6.5Y-4.0429
X7.5Y-1.85
X7.5Y-2.85
X8.0Y-1.85
X8.0Y-2.85
T5
X2.525Y-3.45
T6
X1.9709Y-2.622
X1.9709Y-2.778
X2.0291Y-4.0941
X2.0291Y-4.25
X2.0291Y-4.4059
T7
X2.9882Y-3.7
X3.1381Y-3.3381
X3.1381Y-4.0619
X3.5Y-3.1882
X3.5Y-4.2118
X3.8619Y-3.3381
X3.8619Y-4.0619
X4.0118Y-3.7
X4.9882Y-3.7
X5.1381Y-3.3381
X5.1381Y-4.0619
X5.5Y-3.1882
X5.5Y-4.2118
X5.8619Y-3.3381
X5.8619Y-4.0619
X6.0118Y-3.7
X6.9882Y-3.7
X7.1381Y-3.3381
X7.1381Y-4.0619
X7.5Y-3.1882
X7.5Y-4.2118
X7.8619Y-3.3381
X7.8619Y-4.0619
X8.0118Y-3.7
T8
X1.95Y-1.95
X1.95Y-5.55
X8.55Y-1.95
X8.55Y-5.55
T9
X3.5Y-3.7
X5.5Y-3.7
X7.5Y-3.7
T0
M30
