%TF.GenerationSoftware,KiCad,Pcbnew,6.0.9-8da3e8f707~117~ubuntu22.04.1*%
%TF.CreationDate,2022-12-15T07:25:52-05:00*%
%TF.ProjectId,deflection_amp,6465666c-6563-4746-996f-6e5f616d702e,rev?*%
%TF.SameCoordinates,Original*%
%TF.FileFunction,Legend,Top*%
%TF.FilePolarity,Positive*%
%FSLAX46Y46*%
G04 Gerber Fmt 4.6, Leading zero omitted, Abs format (unit mm)*
G04 Created by KiCad (PCBNEW 6.0.9-8da3e8f707~117~ubuntu22.04.1) date 2022-12-15 07:25:52*
%MOMM*%
%LPD*%
G01*
G04 APERTURE LIST*
%ADD10C,0.203200*%
%ADD11C,0.254000*%
%ADD12C,0.150000*%
%ADD13C,0.120000*%
G04 APERTURE END LIST*
D10*
X54640238Y-85664523D02*
X55486904Y-86934523D01*
X55486904Y-85664523D02*
X54640238Y-86934523D01*
X56938333Y-86934523D02*
X56938333Y-85664523D01*
X57543095Y-86934523D02*
X57543095Y-85664523D01*
X58268809Y-86934523D01*
X58268809Y-85664523D01*
X58329285Y-65631785D02*
X59508571Y-65631785D01*
X58873571Y-66357500D01*
X59145714Y-66357500D01*
X59327142Y-66448214D01*
X59417857Y-66538928D01*
X59508571Y-66720357D01*
X59508571Y-67173928D01*
X59417857Y-67355357D01*
X59327142Y-67446071D01*
X59145714Y-67536785D01*
X58601428Y-67536785D01*
X58420000Y-67446071D01*
X58329285Y-67355357D01*
X61141428Y-65631785D02*
X60778571Y-65631785D01*
X60597142Y-65722500D01*
X60506428Y-65813214D01*
X60325000Y-66085357D01*
X60234285Y-66448214D01*
X60234285Y-67173928D01*
X60325000Y-67355357D01*
X60415714Y-67446071D01*
X60597142Y-67536785D01*
X60960000Y-67536785D01*
X61141428Y-67446071D01*
X61232142Y-67355357D01*
X61322857Y-67173928D01*
X61322857Y-66720357D01*
X61232142Y-66538928D01*
X61141428Y-66448214D01*
X60960000Y-66357500D01*
X60597142Y-66357500D01*
X60415714Y-66448214D01*
X60325000Y-66538928D01*
X60234285Y-66720357D01*
X62502142Y-65631785D02*
X62683571Y-65631785D01*
X62865000Y-65722500D01*
X62955714Y-65813214D01*
X63046428Y-65994642D01*
X63137142Y-66357500D01*
X63137142Y-66811071D01*
X63046428Y-67173928D01*
X62955714Y-67355357D01*
X62865000Y-67446071D01*
X62683571Y-67536785D01*
X62502142Y-67536785D01*
X62320714Y-67446071D01*
X62230000Y-67355357D01*
X62139285Y-67173928D01*
X62048571Y-66811071D01*
X62048571Y-66357500D01*
X62139285Y-65994642D01*
X62230000Y-65813214D01*
X62320714Y-65722500D01*
X62502142Y-65631785D01*
X63681428Y-65631785D02*
X64316428Y-67536785D01*
X64951428Y-65631785D01*
X58873571Y-103187500D02*
X58692142Y-103096785D01*
X58420000Y-103096785D01*
X58147857Y-103187500D01*
X57966428Y-103368928D01*
X57875714Y-103550357D01*
X57785000Y-103913214D01*
X57785000Y-104185357D01*
X57875714Y-104548214D01*
X57966428Y-104729642D01*
X58147857Y-104911071D01*
X58420000Y-105001785D01*
X58601428Y-105001785D01*
X58873571Y-104911071D01*
X58964285Y-104820357D01*
X58964285Y-104185357D01*
X58601428Y-104185357D01*
X59780714Y-105001785D02*
X59780714Y-103096785D01*
X60869285Y-105001785D01*
X60869285Y-103096785D01*
X61776428Y-105001785D02*
X61776428Y-103096785D01*
X62230000Y-103096785D01*
X62502142Y-103187500D01*
X62683571Y-103368928D01*
X62774285Y-103550357D01*
X62865000Y-103913214D01*
X62865000Y-104185357D01*
X62774285Y-104548214D01*
X62683571Y-104729642D01*
X62502142Y-104911071D01*
X62230000Y-105001785D01*
X61776428Y-105001785D01*
X212150476Y-74234523D02*
X212997142Y-75504523D01*
X212997142Y-74234523D02*
X212150476Y-75504523D01*
X213480952Y-75020714D02*
X214448571Y-75020714D01*
X59372500Y-107813928D02*
X58737500Y-107813928D01*
X58737500Y-108811785D02*
X58737500Y-106906785D01*
X59644642Y-106906785D01*
X60370357Y-108811785D02*
X60370357Y-106906785D01*
X62184642Y-108811785D02*
X61277500Y-108811785D01*
X61277500Y-106906785D01*
X212150476Y-71694523D02*
X212997142Y-72964523D01*
X212997142Y-71694523D02*
X212150476Y-72964523D01*
X213480952Y-72480714D02*
X214448571Y-72480714D01*
X213964761Y-72964523D02*
X213964761Y-71996904D01*
X95835651Y-62193260D02*
X95835651Y-60288260D01*
X96289222Y-60288260D01*
X96561365Y-60378975D01*
X96742794Y-60560403D01*
X96833508Y-60741832D01*
X96924222Y-61104689D01*
X96924222Y-61376832D01*
X96833508Y-61739689D01*
X96742794Y-61921117D01*
X96561365Y-62102546D01*
X96289222Y-62193260D01*
X95835651Y-62193260D01*
X98466365Y-62102546D02*
X98284937Y-62193260D01*
X97922080Y-62193260D01*
X97740651Y-62102546D01*
X97649937Y-61921117D01*
X97649937Y-61195403D01*
X97740651Y-61013975D01*
X97922080Y-60923260D01*
X98284937Y-60923260D01*
X98466365Y-61013975D01*
X98557080Y-61195403D01*
X98557080Y-61376832D01*
X97649937Y-61558260D01*
X99282794Y-62102546D02*
X99464222Y-62193260D01*
X99827080Y-62193260D01*
X100008508Y-62102546D01*
X100099222Y-61921117D01*
X100099222Y-61830403D01*
X100008508Y-61648975D01*
X99827080Y-61558260D01*
X99554937Y-61558260D01*
X99373508Y-61467546D01*
X99282794Y-61286117D01*
X99282794Y-61195403D01*
X99373508Y-61013975D01*
X99554937Y-60923260D01*
X99827080Y-60923260D01*
X100008508Y-61013975D01*
X100915651Y-62193260D02*
X100915651Y-60923260D01*
X100915651Y-60288260D02*
X100824937Y-60378975D01*
X100915651Y-60469689D01*
X101006365Y-60378975D01*
X100915651Y-60288260D01*
X100915651Y-60469689D01*
X102639222Y-60923260D02*
X102639222Y-62465403D01*
X102548508Y-62646832D01*
X102457794Y-62737546D01*
X102276365Y-62828260D01*
X102004222Y-62828260D01*
X101822794Y-62737546D01*
X102639222Y-62102546D02*
X102457794Y-62193260D01*
X102094937Y-62193260D01*
X101913508Y-62102546D01*
X101822794Y-62011832D01*
X101732080Y-61830403D01*
X101732080Y-61286117D01*
X101822794Y-61104689D01*
X101913508Y-61013975D01*
X102094937Y-60923260D01*
X102457794Y-60923260D01*
X102639222Y-61013975D01*
X103546365Y-60923260D02*
X103546365Y-62193260D01*
X103546365Y-61104689D02*
X103637080Y-61013975D01*
X103818508Y-60923260D01*
X104090651Y-60923260D01*
X104272080Y-61013975D01*
X104362794Y-61195403D01*
X104362794Y-62193260D01*
X106630651Y-60197546D02*
X104997794Y-62646832D01*
X107265651Y-62193260D02*
X107265651Y-60288260D01*
X107991365Y-60288260D01*
X108172794Y-60378975D01*
X108263508Y-60469689D01*
X108354222Y-60651117D01*
X108354222Y-60923260D01*
X108263508Y-61104689D01*
X108172794Y-61195403D01*
X107991365Y-61286117D01*
X107265651Y-61286117D01*
X110259222Y-62011832D02*
X110168508Y-62102546D01*
X109896365Y-62193260D01*
X109714937Y-62193260D01*
X109442794Y-62102546D01*
X109261365Y-61921117D01*
X109170651Y-61739689D01*
X109079937Y-61376832D01*
X109079937Y-61104689D01*
X109170651Y-60741832D01*
X109261365Y-60560403D01*
X109442794Y-60378975D01*
X109714937Y-60288260D01*
X109896365Y-60288260D01*
X110168508Y-60378975D01*
X110259222Y-60469689D01*
X111710651Y-61195403D02*
X111982794Y-61286117D01*
X112073508Y-61376832D01*
X112164222Y-61558260D01*
X112164222Y-61830403D01*
X112073508Y-62011832D01*
X111982794Y-62102546D01*
X111801365Y-62193260D01*
X111075651Y-62193260D01*
X111075651Y-60288260D01*
X111710651Y-60288260D01*
X111892080Y-60378975D01*
X111982794Y-60469689D01*
X112073508Y-60651117D01*
X112073508Y-60832546D01*
X111982794Y-61013975D01*
X111892080Y-61104689D01*
X111710651Y-61195403D01*
X111075651Y-61195403D01*
X112980651Y-62011832D02*
X113071365Y-62102546D01*
X112980651Y-62193260D01*
X112889937Y-62102546D01*
X112980651Y-62011832D01*
X112980651Y-62193260D01*
X112980651Y-61013975D02*
X113071365Y-61104689D01*
X112980651Y-61195403D01*
X112889937Y-61104689D01*
X112980651Y-61013975D01*
X112980651Y-61195403D01*
X115339222Y-61195403D02*
X115974222Y-61195403D01*
X116246365Y-62193260D02*
X115339222Y-62193260D01*
X115339222Y-60288260D01*
X116246365Y-60288260D01*
X117062794Y-62011832D02*
X117153508Y-62102546D01*
X117062794Y-62193260D01*
X116972080Y-62102546D01*
X117062794Y-62011832D01*
X117062794Y-62193260D01*
X119421365Y-62193260D02*
X119421365Y-60288260D01*
X119421365Y-61195403D02*
X120509937Y-61195403D01*
X120509937Y-62193260D02*
X120509937Y-60288260D01*
X122233508Y-62193260D02*
X122233508Y-61195403D01*
X122142794Y-61013975D01*
X121961365Y-60923260D01*
X121598508Y-60923260D01*
X121417080Y-61013975D01*
X122233508Y-62102546D02*
X122052080Y-62193260D01*
X121598508Y-62193260D01*
X121417080Y-62102546D01*
X121326365Y-61921117D01*
X121326365Y-61739689D01*
X121417080Y-61558260D01*
X121598508Y-61467546D01*
X122052080Y-61467546D01*
X122233508Y-61376832D01*
X122959222Y-60923260D02*
X123957080Y-60923260D01*
X122959222Y-62193260D01*
X123957080Y-62193260D01*
X125408508Y-62102546D02*
X125227080Y-62193260D01*
X124864222Y-62193260D01*
X124682794Y-62102546D01*
X124592080Y-61921117D01*
X124592080Y-61195403D01*
X124682794Y-61013975D01*
X124864222Y-60923260D01*
X125227080Y-60923260D01*
X125408508Y-61013975D01*
X125499222Y-61195403D01*
X125499222Y-61376832D01*
X124592080Y-61558260D01*
X126315651Y-60923260D02*
X126315651Y-62193260D01*
X126315651Y-61104689D02*
X126406365Y-61013975D01*
X126587794Y-60923260D01*
X126859937Y-60923260D01*
X127041365Y-61013975D01*
X127132080Y-61195403D01*
X127132080Y-62193260D01*
X96924222Y-65260310D02*
X96289222Y-64353167D01*
X95835651Y-65260310D02*
X95835651Y-63355310D01*
X96561365Y-63355310D01*
X96742794Y-63446025D01*
X96833508Y-63536739D01*
X96924222Y-63718167D01*
X96924222Y-63990310D01*
X96833508Y-64171739D01*
X96742794Y-64262453D01*
X96561365Y-64353167D01*
X95835651Y-64353167D01*
X98466365Y-65169596D02*
X98284937Y-65260310D01*
X97922080Y-65260310D01*
X97740651Y-65169596D01*
X97649937Y-64988167D01*
X97649937Y-64262453D01*
X97740651Y-64081025D01*
X97922080Y-63990310D01*
X98284937Y-63990310D01*
X98466365Y-64081025D01*
X98557080Y-64262453D01*
X98557080Y-64443882D01*
X97649937Y-64625310D01*
X99192080Y-63990310D02*
X99645651Y-65260310D01*
X100099222Y-63990310D01*
X103274222Y-65260310D02*
X102185651Y-65260310D01*
X102729937Y-65260310D02*
X102729937Y-63355310D01*
X102548508Y-63627453D01*
X102367080Y-63808882D01*
X102185651Y-63899596D01*
X104090651Y-65078882D02*
X104181365Y-65169596D01*
X104090651Y-65260310D01*
X103999937Y-65169596D01*
X104090651Y-65078882D01*
X104090651Y-65260310D01*
X105360651Y-63355310D02*
X105542080Y-63355310D01*
X105723508Y-63446025D01*
X105814222Y-63536739D01*
X105904937Y-63718167D01*
X105995651Y-64081025D01*
X105995651Y-64534596D01*
X105904937Y-64897453D01*
X105814222Y-65078882D01*
X105723508Y-65169596D01*
X105542080Y-65260310D01*
X105360651Y-65260310D01*
X105179222Y-65169596D01*
X105088508Y-65078882D01*
X104997794Y-64897453D01*
X104907080Y-64534596D01*
X104907080Y-64081025D01*
X104997794Y-63718167D01*
X105088508Y-63536739D01*
X105179222Y-63446025D01*
X105360651Y-63355310D01*
X108263508Y-64534596D02*
X109714937Y-64534596D01*
X111982794Y-63536739D02*
X112073508Y-63446025D01*
X112254937Y-63355310D01*
X112708508Y-63355310D01*
X112889937Y-63446025D01*
X112980651Y-63536739D01*
X113071365Y-63718167D01*
X113071365Y-63899596D01*
X112980651Y-64171739D01*
X111892080Y-65260310D01*
X113071365Y-65260310D01*
X114250651Y-63355310D02*
X114432080Y-63355310D01*
X114613508Y-63446025D01*
X114704222Y-63536739D01*
X114794937Y-63718167D01*
X114885651Y-64081025D01*
X114885651Y-64534596D01*
X114794937Y-64897453D01*
X114704222Y-65078882D01*
X114613508Y-65169596D01*
X114432080Y-65260310D01*
X114250651Y-65260310D01*
X114069222Y-65169596D01*
X113978508Y-65078882D01*
X113887794Y-64897453D01*
X113797080Y-64534596D01*
X113797080Y-64081025D01*
X113887794Y-63718167D01*
X113978508Y-63536739D01*
X114069222Y-63446025D01*
X114250651Y-63355310D01*
X115611365Y-63536739D02*
X115702080Y-63446025D01*
X115883508Y-63355310D01*
X116337080Y-63355310D01*
X116518508Y-63446025D01*
X116609222Y-63536739D01*
X116699937Y-63718167D01*
X116699937Y-63899596D01*
X116609222Y-64171739D01*
X115520651Y-65260310D01*
X116699937Y-65260310D01*
X117425651Y-63536739D02*
X117516365Y-63446025D01*
X117697794Y-63355310D01*
X118151365Y-63355310D01*
X118332794Y-63446025D01*
X118423508Y-63536739D01*
X118514222Y-63718167D01*
X118514222Y-63899596D01*
X118423508Y-64171739D01*
X117334937Y-65260310D01*
X118514222Y-65260310D01*
X119330651Y-64534596D02*
X120782080Y-64534596D01*
X122687080Y-65260310D02*
X121598508Y-65260310D01*
X122142794Y-65260310D02*
X122142794Y-63355310D01*
X121961365Y-63627453D01*
X121779937Y-63808882D01*
X121598508Y-63899596D01*
X123412794Y-63536739D02*
X123503508Y-63446025D01*
X123684937Y-63355310D01*
X124138508Y-63355310D01*
X124319937Y-63446025D01*
X124410651Y-63536739D01*
X124501365Y-63718167D01*
X124501365Y-63899596D01*
X124410651Y-64171739D01*
X123322080Y-65260310D01*
X124501365Y-65260310D01*
X212392380Y-81915000D02*
X212271428Y-81854523D01*
X212090000Y-81854523D01*
X211908571Y-81915000D01*
X211787619Y-82035952D01*
X211727142Y-82156904D01*
X211666666Y-82398809D01*
X211666666Y-82580238D01*
X211727142Y-82822142D01*
X211787619Y-82943095D01*
X211908571Y-83064047D01*
X212090000Y-83124523D01*
X212210952Y-83124523D01*
X212392380Y-83064047D01*
X212452857Y-83003571D01*
X212452857Y-82580238D01*
X212210952Y-82580238D01*
X212997142Y-83124523D02*
X212997142Y-81854523D01*
X213722857Y-83124523D01*
X213722857Y-81854523D01*
X214327619Y-83124523D02*
X214327619Y-81854523D01*
X214630000Y-81854523D01*
X214811428Y-81915000D01*
X214932380Y-82035952D01*
X214992857Y-82156904D01*
X215053333Y-82398809D01*
X215053333Y-82580238D01*
X214992857Y-82822142D01*
X214932380Y-82943095D01*
X214811428Y-83064047D01*
X214630000Y-83124523D01*
X214327619Y-83124523D01*
X212573809Y-77439761D02*
X212573809Y-78044523D01*
X212150476Y-76774523D02*
X212573809Y-77439761D01*
X212997142Y-76774523D01*
X213420476Y-77560714D02*
X214388095Y-77560714D01*
X213904285Y-78044523D02*
X213904285Y-77076904D01*
X55063571Y-91409761D02*
X55063571Y-92014523D01*
X54640238Y-90744523D02*
X55063571Y-91409761D01*
X55486904Y-90744523D01*
X56877857Y-92014523D02*
X56877857Y-90744523D01*
X57482619Y-92014523D02*
X57482619Y-90744523D01*
X58208333Y-92014523D01*
X58208333Y-90744523D01*
X194808928Y-143736785D02*
X195443928Y-145641785D01*
X196078928Y-143736785D01*
X198165357Y-145641785D02*
X198165357Y-143736785D01*
X198891071Y-143736785D01*
X199072500Y-143827500D01*
X199163214Y-143918214D01*
X199253928Y-144099642D01*
X199253928Y-144371785D01*
X199163214Y-144553214D01*
X199072500Y-144643928D01*
X198891071Y-144734642D01*
X198165357Y-144734642D01*
X200433214Y-143736785D02*
X200796071Y-143736785D01*
X200977500Y-143827500D01*
X201158928Y-144008928D01*
X201249642Y-144371785D01*
X201249642Y-145006785D01*
X201158928Y-145369642D01*
X200977500Y-145551071D01*
X200796071Y-145641785D01*
X200433214Y-145641785D01*
X200251785Y-145551071D01*
X200070357Y-145369642D01*
X199979642Y-145006785D01*
X199979642Y-144371785D01*
X200070357Y-144008928D01*
X200251785Y-143827500D01*
X200433214Y-143736785D01*
X201975357Y-145551071D02*
X202247500Y-145641785D01*
X202701071Y-145641785D01*
X202882500Y-145551071D01*
X202973214Y-145460357D01*
X203063928Y-145278928D01*
X203063928Y-145097500D01*
X202973214Y-144916071D01*
X202882500Y-144825357D01*
X202701071Y-144734642D01*
X202338214Y-144643928D01*
X202156785Y-144553214D01*
X202066071Y-144462500D01*
X201975357Y-144281071D01*
X201975357Y-144099642D01*
X202066071Y-143918214D01*
X202156785Y-143827500D01*
X202338214Y-143736785D01*
X202791785Y-143736785D01*
X203063928Y-143827500D01*
X203880357Y-145641785D02*
X203880357Y-143736785D01*
X204968928Y-145641785D01*
X204968928Y-143736785D01*
X144734642Y-145641785D02*
X144734642Y-143736785D01*
X144734642Y-144643928D02*
X145823214Y-144643928D01*
X145823214Y-145641785D02*
X145823214Y-143736785D01*
X148181785Y-145641785D02*
X148181785Y-143736785D01*
X148907500Y-143736785D01*
X149088928Y-143827500D01*
X149179642Y-143918214D01*
X149270357Y-144099642D01*
X149270357Y-144371785D01*
X149179642Y-144553214D01*
X149088928Y-144643928D01*
X148907500Y-144734642D01*
X148181785Y-144734642D01*
X150449642Y-143736785D02*
X150812500Y-143736785D01*
X150993928Y-143827500D01*
X151175357Y-144008928D01*
X151266071Y-144371785D01*
X151266071Y-145006785D01*
X151175357Y-145369642D01*
X150993928Y-145551071D01*
X150812500Y-145641785D01*
X150449642Y-145641785D01*
X150268214Y-145551071D01*
X150086785Y-145369642D01*
X149996071Y-145006785D01*
X149996071Y-144371785D01*
X150086785Y-144008928D01*
X150268214Y-143827500D01*
X150449642Y-143736785D01*
X151991785Y-145551071D02*
X152263928Y-145641785D01*
X152717500Y-145641785D01*
X152898928Y-145551071D01*
X152989642Y-145460357D01*
X153080357Y-145278928D01*
X153080357Y-145097500D01*
X152989642Y-144916071D01*
X152898928Y-144825357D01*
X152717500Y-144734642D01*
X152354642Y-144643928D01*
X152173214Y-144553214D01*
X152082500Y-144462500D01*
X151991785Y-144281071D01*
X151991785Y-144099642D01*
X152082500Y-143918214D01*
X152173214Y-143827500D01*
X152354642Y-143736785D01*
X152808214Y-143736785D01*
X153080357Y-143827500D01*
X153896785Y-145641785D02*
X153896785Y-143736785D01*
X154985357Y-145641785D01*
X154985357Y-143736785D01*
X217133260Y-102185651D02*
X215228260Y-102185651D01*
X215228260Y-101732080D01*
X215318975Y-101459937D01*
X215500403Y-101278508D01*
X215681832Y-101187794D01*
X216044689Y-101097080D01*
X216316832Y-101097080D01*
X216679689Y-101187794D01*
X216861117Y-101278508D01*
X217042546Y-101459937D01*
X217133260Y-101732080D01*
X217133260Y-102185651D01*
X216135403Y-100280651D02*
X216135403Y-99645651D01*
X217133260Y-99373508D02*
X217133260Y-100280651D01*
X215228260Y-100280651D01*
X215228260Y-99373508D01*
X216135403Y-97922080D02*
X216135403Y-98557080D01*
X217133260Y-98557080D02*
X215228260Y-98557080D01*
X215228260Y-97649937D01*
X217133260Y-96017080D02*
X217133260Y-96924222D01*
X215228260Y-96924222D01*
X216135403Y-95382080D02*
X216135403Y-94747080D01*
X217133260Y-94474937D02*
X217133260Y-95382080D01*
X215228260Y-95382080D01*
X215228260Y-94474937D01*
X216951832Y-92569937D02*
X217042546Y-92660651D01*
X217133260Y-92932794D01*
X217133260Y-93114222D01*
X217042546Y-93386365D01*
X216861117Y-93567794D01*
X216679689Y-93658508D01*
X216316832Y-93749222D01*
X216044689Y-93749222D01*
X215681832Y-93658508D01*
X215500403Y-93567794D01*
X215318975Y-93386365D01*
X215228260Y-93114222D01*
X215228260Y-92932794D01*
X215318975Y-92660651D01*
X215409689Y-92569937D01*
X215228260Y-92025651D02*
X215228260Y-90937080D01*
X217133260Y-91481365D02*
X215228260Y-91481365D01*
X217133260Y-90302080D02*
X215228260Y-90302080D01*
X215228260Y-89032080D02*
X215228260Y-88669222D01*
X215318975Y-88487794D01*
X215500403Y-88306365D01*
X215863260Y-88215651D01*
X216498260Y-88215651D01*
X216861117Y-88306365D01*
X217042546Y-88487794D01*
X217133260Y-88669222D01*
X217133260Y-89032080D01*
X217042546Y-89213508D01*
X216861117Y-89394937D01*
X216498260Y-89485651D01*
X215863260Y-89485651D01*
X215500403Y-89394937D01*
X215318975Y-89213508D01*
X215228260Y-89032080D01*
X217133260Y-87399222D02*
X215228260Y-87399222D01*
X217133260Y-86310651D01*
X215228260Y-86310651D01*
X218295310Y-95835651D02*
X218295310Y-95472794D01*
X218386025Y-95291365D01*
X218567453Y-95109937D01*
X218930310Y-95019222D01*
X219565310Y-95019222D01*
X219928167Y-95109937D01*
X220109596Y-95291365D01*
X220200310Y-95472794D01*
X220200310Y-95835651D01*
X220109596Y-96017080D01*
X219928167Y-96198508D01*
X219565310Y-96289222D01*
X218930310Y-96289222D01*
X218567453Y-96198508D01*
X218386025Y-96017080D01*
X218295310Y-95835651D01*
X218295310Y-94202794D02*
X219837453Y-94202794D01*
X220018882Y-94112080D01*
X220109596Y-94021365D01*
X220200310Y-93839937D01*
X220200310Y-93477080D01*
X220109596Y-93295651D01*
X220018882Y-93204937D01*
X219837453Y-93114222D01*
X218295310Y-93114222D01*
X218295310Y-92479222D02*
X218295310Y-91390651D01*
X220200310Y-91934937D02*
X218295310Y-91934937D01*
X220200310Y-90755651D02*
X218295310Y-90755651D01*
X218295310Y-90029937D01*
X218386025Y-89848508D01*
X218476739Y-89757794D01*
X218658167Y-89667080D01*
X218930310Y-89667080D01*
X219111739Y-89757794D01*
X219202453Y-89848508D01*
X219293167Y-90029937D01*
X219293167Y-90755651D01*
X218295310Y-88850651D02*
X219837453Y-88850651D01*
X220018882Y-88759937D01*
X220109596Y-88669222D01*
X220200310Y-88487794D01*
X220200310Y-88124937D01*
X220109596Y-87943508D01*
X220018882Y-87852794D01*
X219837453Y-87762080D01*
X218295310Y-87762080D01*
X218295310Y-87127080D02*
X218295310Y-86038508D01*
X220200310Y-86582794D02*
X218295310Y-86582794D01*
X55547380Y-88265000D02*
X55426428Y-88204523D01*
X55245000Y-88204523D01*
X55063571Y-88265000D01*
X54942619Y-88385952D01*
X54882142Y-88506904D01*
X54821666Y-88748809D01*
X54821666Y-88930238D01*
X54882142Y-89172142D01*
X54942619Y-89293095D01*
X55063571Y-89414047D01*
X55245000Y-89474523D01*
X55365952Y-89474523D01*
X55547380Y-89414047D01*
X55607857Y-89353571D01*
X55607857Y-88930238D01*
X55365952Y-88930238D01*
X56152142Y-89474523D02*
X56152142Y-88204523D01*
X56877857Y-89474523D01*
X56877857Y-88204523D01*
X57482619Y-89474523D02*
X57482619Y-88204523D01*
X57785000Y-88204523D01*
X57966428Y-88265000D01*
X58087380Y-88385952D01*
X58147857Y-88506904D01*
X58208333Y-88748809D01*
X58208333Y-88930238D01*
X58147857Y-89172142D01*
X58087380Y-89293095D01*
X57966428Y-89414047D01*
X57785000Y-89474523D01*
X57482619Y-89474523D01*
X59372500Y-112258928D02*
X58737500Y-112258928D01*
X58737500Y-113256785D02*
X58737500Y-111351785D01*
X59644642Y-111351785D01*
X60370357Y-113256785D02*
X60370357Y-111351785D01*
X62184642Y-113256785D02*
X61277500Y-113256785D01*
X61277500Y-111351785D01*
X212573809Y-79979761D02*
X212573809Y-80584523D01*
X212150476Y-79314523D02*
X212573809Y-79979761D01*
X212997142Y-79314523D01*
X213420476Y-80100714D02*
X214388095Y-80100714D01*
X211061904Y-69940714D02*
X212029523Y-69940714D01*
X211545714Y-70424523D02*
X211545714Y-69456904D01*
X212513333Y-69154523D02*
X213299523Y-69154523D01*
X212876190Y-69638333D01*
X213057619Y-69638333D01*
X213178571Y-69698809D01*
X213239047Y-69759285D01*
X213299523Y-69880238D01*
X213299523Y-70182619D01*
X213239047Y-70303571D01*
X213178571Y-70364047D01*
X213057619Y-70424523D01*
X212694761Y-70424523D01*
X212573809Y-70364047D01*
X212513333Y-70303571D01*
X214388095Y-69154523D02*
X214146190Y-69154523D01*
X214025238Y-69215000D01*
X213964761Y-69275476D01*
X213843809Y-69456904D01*
X213783333Y-69698809D01*
X213783333Y-70182619D01*
X213843809Y-70303571D01*
X213904285Y-70364047D01*
X214025238Y-70424523D01*
X214267142Y-70424523D01*
X214388095Y-70364047D01*
X214448571Y-70303571D01*
X214509047Y-70182619D01*
X214509047Y-69880238D01*
X214448571Y-69759285D01*
X214388095Y-69698809D01*
X214267142Y-69638333D01*
X214025238Y-69638333D01*
X213904285Y-69698809D01*
X213843809Y-69759285D01*
X213783333Y-69880238D01*
X215295238Y-69154523D02*
X215416190Y-69154523D01*
X215537142Y-69215000D01*
X215597619Y-69275476D01*
X215658095Y-69396428D01*
X215718571Y-69638333D01*
X215718571Y-69940714D01*
X215658095Y-70182619D01*
X215597619Y-70303571D01*
X215537142Y-70364047D01*
X215416190Y-70424523D01*
X215295238Y-70424523D01*
X215174285Y-70364047D01*
X215113809Y-70303571D01*
X215053333Y-70182619D01*
X214992857Y-69940714D01*
X214992857Y-69638333D01*
X215053333Y-69396428D01*
X215113809Y-69275476D01*
X215174285Y-69215000D01*
X215295238Y-69154523D01*
X55547380Y-93345000D02*
X55426428Y-93284523D01*
X55245000Y-93284523D01*
X55063571Y-93345000D01*
X54942619Y-93465952D01*
X54882142Y-93586904D01*
X54821666Y-93828809D01*
X54821666Y-94010238D01*
X54882142Y-94252142D01*
X54942619Y-94373095D01*
X55063571Y-94494047D01*
X55245000Y-94554523D01*
X55365952Y-94554523D01*
X55547380Y-94494047D01*
X55607857Y-94433571D01*
X55607857Y-94010238D01*
X55365952Y-94010238D01*
X56152142Y-94554523D02*
X56152142Y-93284523D01*
X56877857Y-94554523D01*
X56877857Y-93284523D01*
X57482619Y-94554523D02*
X57482619Y-93284523D01*
X57785000Y-93284523D01*
X57966428Y-93345000D01*
X58087380Y-93465952D01*
X58147857Y-93586904D01*
X58208333Y-93828809D01*
X58208333Y-94010238D01*
X58147857Y-94252142D01*
X58087380Y-94373095D01*
X57966428Y-94494047D01*
X57785000Y-94554523D01*
X57482619Y-94554523D01*
D11*
X94580528Y-51245770D02*
X95669100Y-51245770D01*
X94362814Y-51898912D02*
X95124814Y-49612912D01*
X95886814Y-51898912D01*
X96648814Y-50374912D02*
X96648814Y-51898912D01*
X96648814Y-50592627D02*
X96757671Y-50483770D01*
X96975385Y-50374912D01*
X97301957Y-50374912D01*
X97519671Y-50483770D01*
X97628528Y-50701484D01*
X97628528Y-51898912D01*
X99696814Y-51898912D02*
X99696814Y-49612912D01*
X99696814Y-51790055D02*
X99479100Y-51898912D01*
X99043671Y-51898912D01*
X98825957Y-51790055D01*
X98717100Y-51681198D01*
X98608242Y-51463484D01*
X98608242Y-50810341D01*
X98717100Y-50592627D01*
X98825957Y-50483770D01*
X99043671Y-50374912D01*
X99479100Y-50374912D01*
X99696814Y-50483770D01*
X101656242Y-51790055D02*
X101438528Y-51898912D01*
X101003100Y-51898912D01*
X100785385Y-51790055D01*
X100676528Y-51572341D01*
X100676528Y-50701484D01*
X100785385Y-50483770D01*
X101003100Y-50374912D01*
X101438528Y-50374912D01*
X101656242Y-50483770D01*
X101765100Y-50701484D01*
X101765100Y-50919198D01*
X100676528Y-51136912D01*
X102744814Y-51898912D02*
X102744814Y-50374912D01*
X102744814Y-50810341D02*
X102853671Y-50592627D01*
X102962528Y-50483770D01*
X103180242Y-50374912D01*
X103397957Y-50374912D01*
X104051100Y-51790055D02*
X104268814Y-51898912D01*
X104704242Y-51898912D01*
X104921957Y-51790055D01*
X105030814Y-51572341D01*
X105030814Y-51463484D01*
X104921957Y-51245770D01*
X104704242Y-51136912D01*
X104377671Y-51136912D01*
X104159957Y-51028055D01*
X104051100Y-50810341D01*
X104051100Y-50701484D01*
X104159957Y-50483770D01*
X104377671Y-50374912D01*
X104704242Y-50374912D01*
X104921957Y-50483770D01*
X106337100Y-51898912D02*
X106119385Y-51790055D01*
X106010528Y-51681198D01*
X105901671Y-51463484D01*
X105901671Y-50810341D01*
X106010528Y-50592627D01*
X106119385Y-50483770D01*
X106337100Y-50374912D01*
X106663671Y-50374912D01*
X106881385Y-50483770D01*
X106990242Y-50592627D01*
X107099100Y-50810341D01*
X107099100Y-51463484D01*
X106990242Y-51681198D01*
X106881385Y-51790055D01*
X106663671Y-51898912D01*
X106337100Y-51898912D01*
X108078814Y-50374912D02*
X108078814Y-51898912D01*
X108078814Y-50592627D02*
X108187671Y-50483770D01*
X108405385Y-50374912D01*
X108731957Y-50374912D01*
X108949671Y-50483770D01*
X109058528Y-50701484D01*
X109058528Y-51898912D01*
X111888814Y-51898912D02*
X111888814Y-49612912D01*
X112650814Y-51245770D01*
X113412814Y-49612912D01*
X113412814Y-51898912D01*
X114827957Y-51898912D02*
X114610242Y-51790055D01*
X114501385Y-51681198D01*
X114392528Y-51463484D01*
X114392528Y-50810341D01*
X114501385Y-50592627D01*
X114610242Y-50483770D01*
X114827957Y-50374912D01*
X115154528Y-50374912D01*
X115372242Y-50483770D01*
X115481100Y-50592627D01*
X115589957Y-50810341D01*
X115589957Y-51463484D01*
X115481100Y-51681198D01*
X115372242Y-51790055D01*
X115154528Y-51898912D01*
X114827957Y-51898912D01*
X116569671Y-50374912D02*
X116569671Y-51898912D01*
X116569671Y-50592627D02*
X116678528Y-50483770D01*
X116896242Y-50374912D01*
X117222814Y-50374912D01*
X117440528Y-50483770D01*
X117549385Y-50701484D01*
X117549385Y-51898912D01*
X118637957Y-51898912D02*
X118637957Y-50374912D01*
X118637957Y-49612912D02*
X118529100Y-49721770D01*
X118637957Y-49830627D01*
X118746814Y-49721770D01*
X118637957Y-49612912D01*
X118637957Y-49830627D01*
X119399957Y-50374912D02*
X120270814Y-50374912D01*
X119726528Y-49612912D02*
X119726528Y-51572341D01*
X119835385Y-51790055D01*
X120053100Y-51898912D01*
X120270814Y-51898912D01*
X121359385Y-51898912D02*
X121141671Y-51790055D01*
X121032814Y-51681198D01*
X120923957Y-51463484D01*
X120923957Y-50810341D01*
X121032814Y-50592627D01*
X121141671Y-50483770D01*
X121359385Y-50374912D01*
X121685957Y-50374912D01*
X121903671Y-50483770D01*
X122012528Y-50592627D01*
X122121385Y-50810341D01*
X122121385Y-51463484D01*
X122012528Y-51681198D01*
X121903671Y-51790055D01*
X121685957Y-51898912D01*
X121359385Y-51898912D01*
X123101100Y-51898912D02*
X123101100Y-50374912D01*
X123101100Y-50810341D02*
X123209957Y-50592627D01*
X123318814Y-50483770D01*
X123536528Y-50374912D01*
X123754242Y-50374912D01*
X94689385Y-55579372D02*
X94689385Y-53293372D01*
X95233671Y-53293372D01*
X95560242Y-53402230D01*
X95777957Y-53619944D01*
X95886814Y-53837658D01*
X95995671Y-54273087D01*
X95995671Y-54599658D01*
X95886814Y-55035087D01*
X95777957Y-55252801D01*
X95560242Y-55470515D01*
X95233671Y-55579372D01*
X94689385Y-55579372D01*
X97846242Y-55470515D02*
X97628528Y-55579372D01*
X97193100Y-55579372D01*
X96975385Y-55470515D01*
X96866528Y-55252801D01*
X96866528Y-54381944D01*
X96975385Y-54164230D01*
X97193100Y-54055372D01*
X97628528Y-54055372D01*
X97846242Y-54164230D01*
X97955100Y-54381944D01*
X97955100Y-54599658D01*
X96866528Y-54817372D01*
X98608242Y-54055372D02*
X99479100Y-54055372D01*
X98934814Y-55579372D02*
X98934814Y-53619944D01*
X99043671Y-53402230D01*
X99261385Y-53293372D01*
X99479100Y-53293372D01*
X100567671Y-55579372D02*
X100349957Y-55470515D01*
X100241100Y-55252801D01*
X100241100Y-53293372D01*
X102309385Y-55470515D02*
X102091671Y-55579372D01*
X101656242Y-55579372D01*
X101438528Y-55470515D01*
X101329671Y-55252801D01*
X101329671Y-54381944D01*
X101438528Y-54164230D01*
X101656242Y-54055372D01*
X102091671Y-54055372D01*
X102309385Y-54164230D01*
X102418242Y-54381944D01*
X102418242Y-54599658D01*
X101329671Y-54817372D01*
X104377671Y-55470515D02*
X104159957Y-55579372D01*
X103724528Y-55579372D01*
X103506814Y-55470515D01*
X103397957Y-55361658D01*
X103289100Y-55143944D01*
X103289100Y-54490801D01*
X103397957Y-54273087D01*
X103506814Y-54164230D01*
X103724528Y-54055372D01*
X104159957Y-54055372D01*
X104377671Y-54164230D01*
X105030814Y-54055372D02*
X105901671Y-54055372D01*
X105357385Y-53293372D02*
X105357385Y-55252801D01*
X105466242Y-55470515D01*
X105683957Y-55579372D01*
X105901671Y-55579372D01*
X106663671Y-55579372D02*
X106663671Y-54055372D01*
X106663671Y-53293372D02*
X106554814Y-53402230D01*
X106663671Y-53511087D01*
X106772528Y-53402230D01*
X106663671Y-53293372D01*
X106663671Y-53511087D01*
X108078814Y-55579372D02*
X107861100Y-55470515D01*
X107752242Y-55361658D01*
X107643385Y-55143944D01*
X107643385Y-54490801D01*
X107752242Y-54273087D01*
X107861100Y-54164230D01*
X108078814Y-54055372D01*
X108405385Y-54055372D01*
X108623100Y-54164230D01*
X108731957Y-54273087D01*
X108840814Y-54490801D01*
X108840814Y-55143944D01*
X108731957Y-55361658D01*
X108623100Y-55470515D01*
X108405385Y-55579372D01*
X108078814Y-55579372D01*
X109820528Y-54055372D02*
X109820528Y-55579372D01*
X109820528Y-54273087D02*
X109929385Y-54164230D01*
X110147100Y-54055372D01*
X110473671Y-54055372D01*
X110691385Y-54164230D01*
X110800242Y-54381944D01*
X110800242Y-55579372D01*
X113521671Y-54926230D02*
X114610242Y-54926230D01*
X113303957Y-55579372D02*
X114065957Y-53293372D01*
X114827957Y-55579372D01*
X115589957Y-55579372D02*
X115589957Y-54055372D01*
X115589957Y-54273087D02*
X115698814Y-54164230D01*
X115916528Y-54055372D01*
X116243100Y-54055372D01*
X116460814Y-54164230D01*
X116569671Y-54381944D01*
X116569671Y-55579372D01*
X116569671Y-54381944D02*
X116678528Y-54164230D01*
X116896242Y-54055372D01*
X117222814Y-54055372D01*
X117440528Y-54164230D01*
X117549385Y-54381944D01*
X117549385Y-55579372D01*
X118637957Y-54055372D02*
X118637957Y-56341372D01*
X118637957Y-54164230D02*
X118855671Y-54055372D01*
X119291100Y-54055372D01*
X119508814Y-54164230D01*
X119617671Y-54273087D01*
X119726528Y-54490801D01*
X119726528Y-55143944D01*
X119617671Y-55361658D01*
X119508814Y-55470515D01*
X119291100Y-55579372D01*
X118855671Y-55579372D01*
X118637957Y-55470515D01*
X121032814Y-55579372D02*
X120815100Y-55470515D01*
X120706242Y-55252801D01*
X120706242Y-53293372D01*
X121903671Y-55579372D02*
X121903671Y-54055372D01*
X121903671Y-53293372D02*
X121794814Y-53402230D01*
X121903671Y-53511087D01*
X122012528Y-53402230D01*
X121903671Y-53293372D01*
X121903671Y-53511087D01*
X122665671Y-54055372D02*
X123536528Y-54055372D01*
X122992242Y-55579372D02*
X122992242Y-53619944D01*
X123101100Y-53402230D01*
X123318814Y-53293372D01*
X123536528Y-53293372D01*
X124298528Y-55579372D02*
X124298528Y-54055372D01*
X124298528Y-53293372D02*
X124189671Y-53402230D01*
X124298528Y-53511087D01*
X124407385Y-53402230D01*
X124298528Y-53293372D01*
X124298528Y-53511087D01*
X126257957Y-55470515D02*
X126040242Y-55579372D01*
X125604814Y-55579372D01*
X125387100Y-55470515D01*
X125278242Y-55252801D01*
X125278242Y-54381944D01*
X125387100Y-54164230D01*
X125604814Y-54055372D01*
X126040242Y-54055372D01*
X126257957Y-54164230D01*
X126366814Y-54381944D01*
X126366814Y-54599658D01*
X125278242Y-54817372D01*
X127346528Y-55579372D02*
X127346528Y-54055372D01*
X127346528Y-54490801D02*
X127455385Y-54273087D01*
X127564242Y-54164230D01*
X127781957Y-54055372D01*
X127999671Y-54055372D01*
D10*
X59508571Y-69532500D02*
X59327142Y-69441785D01*
X59055000Y-69441785D01*
X58782857Y-69532500D01*
X58601428Y-69713928D01*
X58510714Y-69895357D01*
X58420000Y-70258214D01*
X58420000Y-70530357D01*
X58510714Y-70893214D01*
X58601428Y-71074642D01*
X58782857Y-71256071D01*
X59055000Y-71346785D01*
X59236428Y-71346785D01*
X59508571Y-71256071D01*
X59599285Y-71165357D01*
X59599285Y-70530357D01*
X59236428Y-70530357D01*
X60415714Y-71346785D02*
X60415714Y-69441785D01*
X61504285Y-71346785D01*
X61504285Y-69441785D01*
X62411428Y-71346785D02*
X62411428Y-69441785D01*
X62865000Y-69441785D01*
X63137142Y-69532500D01*
X63318571Y-69713928D01*
X63409285Y-69895357D01*
X63500000Y-70258214D01*
X63500000Y-70530357D01*
X63409285Y-70893214D01*
X63318571Y-71074642D01*
X63137142Y-71256071D01*
X62865000Y-71346785D01*
X62411428Y-71346785D01*
X46404348Y-79973260D02*
X46404348Y-78068260D01*
X46857920Y-78068260D01*
X47130062Y-78158975D01*
X47311491Y-78340403D01*
X47402205Y-78521832D01*
X47492920Y-78884689D01*
X47492920Y-79156832D01*
X47402205Y-79519689D01*
X47311491Y-79701117D01*
X47130062Y-79882546D01*
X46857920Y-79973260D01*
X46404348Y-79973260D01*
X48309348Y-78975403D02*
X48944348Y-78975403D01*
X49216491Y-79973260D02*
X48309348Y-79973260D01*
X48309348Y-78068260D01*
X49216491Y-78068260D01*
X50667920Y-78975403D02*
X50032920Y-78975403D01*
X50032920Y-79973260D02*
X50032920Y-78068260D01*
X50940062Y-78068260D01*
X52572920Y-79973260D02*
X51665777Y-79973260D01*
X51665777Y-78068260D01*
X53207920Y-78975403D02*
X53842920Y-78975403D01*
X54115062Y-79973260D02*
X53207920Y-79973260D01*
X53207920Y-78068260D01*
X54115062Y-78068260D01*
X56020062Y-79791832D02*
X55929348Y-79882546D01*
X55657205Y-79973260D01*
X55475777Y-79973260D01*
X55203634Y-79882546D01*
X55022205Y-79701117D01*
X54931491Y-79519689D01*
X54840777Y-79156832D01*
X54840777Y-78884689D01*
X54931491Y-78521832D01*
X55022205Y-78340403D01*
X55203634Y-78158975D01*
X55475777Y-78068260D01*
X55657205Y-78068260D01*
X55929348Y-78158975D01*
X56020062Y-78249689D01*
X56564348Y-78068260D02*
X57652920Y-78068260D01*
X57108634Y-79973260D02*
X57108634Y-78068260D01*
X58287920Y-79973260D02*
X58287920Y-78068260D01*
X59557920Y-78068260D02*
X59920777Y-78068260D01*
X60102205Y-78158975D01*
X60283634Y-78340403D01*
X60374348Y-78703260D01*
X60374348Y-79338260D01*
X60283634Y-79701117D01*
X60102205Y-79882546D01*
X59920777Y-79973260D01*
X59557920Y-79973260D01*
X59376491Y-79882546D01*
X59195062Y-79701117D01*
X59104348Y-79338260D01*
X59104348Y-78703260D01*
X59195062Y-78340403D01*
X59376491Y-78158975D01*
X59557920Y-78068260D01*
X61190777Y-79973260D02*
X61190777Y-78068260D01*
X62279348Y-79973260D01*
X62279348Y-78068260D01*
X54931491Y-83040310D02*
X54931491Y-81135310D01*
X55838634Y-83040310D02*
X55838634Y-81135310D01*
X56927205Y-83040310D01*
X56927205Y-81135310D01*
X57834348Y-83040310D02*
X57834348Y-81135310D01*
X58560062Y-81135310D01*
X58741491Y-81226025D01*
X58832205Y-81316739D01*
X58922920Y-81498167D01*
X58922920Y-81770310D01*
X58832205Y-81951739D01*
X58741491Y-82042453D01*
X58560062Y-82133167D01*
X57834348Y-82133167D01*
X59739348Y-81135310D02*
X59739348Y-82677453D01*
X59830062Y-82858882D01*
X59920777Y-82949596D01*
X60102205Y-83040310D01*
X60465062Y-83040310D01*
X60646491Y-82949596D01*
X60737205Y-82858882D01*
X60827920Y-82677453D01*
X60827920Y-81135310D01*
X61462920Y-81135310D02*
X62551491Y-81135310D01*
X62007205Y-83040310D02*
X62007205Y-81135310D01*
%TO.C,RV2*%
X181746071Y-134211785D02*
X181111071Y-133304642D01*
X180657500Y-134211785D02*
X180657500Y-132306785D01*
X181383214Y-132306785D01*
X181564642Y-132397500D01*
X181655357Y-132488214D01*
X181746071Y-132669642D01*
X181746071Y-132941785D01*
X181655357Y-133123214D01*
X181564642Y-133213928D01*
X181383214Y-133304642D01*
X180657500Y-133304642D01*
X182290357Y-132306785D02*
X182925357Y-134211785D01*
X183560357Y-132306785D01*
X184104642Y-132488214D02*
X184195357Y-132397500D01*
X184376785Y-132306785D01*
X184830357Y-132306785D01*
X185011785Y-132397500D01*
X185102500Y-132488214D01*
X185193214Y-132669642D01*
X185193214Y-132851071D01*
X185102500Y-133123214D01*
X184013928Y-134211785D01*
X185193214Y-134211785D01*
X189653333Y-133410476D02*
X189713809Y-133350000D01*
X189834761Y-133289523D01*
X190137142Y-133289523D01*
X190258095Y-133350000D01*
X190318571Y-133410476D01*
X190379047Y-133531428D01*
X190379047Y-133652380D01*
X190318571Y-133833809D01*
X189592857Y-134559523D01*
X190379047Y-134559523D01*
X191528095Y-133289523D02*
X190923333Y-133289523D01*
X190862857Y-133894285D01*
X190923333Y-133833809D01*
X191044285Y-133773333D01*
X191346666Y-133773333D01*
X191467619Y-133833809D01*
X191528095Y-133894285D01*
X191588571Y-134015238D01*
X191588571Y-134317619D01*
X191528095Y-134438571D01*
X191467619Y-134499047D01*
X191346666Y-134559523D01*
X191044285Y-134559523D01*
X190923333Y-134499047D01*
X190862857Y-134438571D01*
X192132857Y-134559523D02*
X192132857Y-133289523D01*
X192253809Y-134075714D02*
X192616666Y-134559523D01*
X192616666Y-133712857D02*
X192132857Y-134196666D01*
%TO.C,R22*%
X171676785Y-140924642D02*
X170769642Y-141559642D01*
X171676785Y-142013214D02*
X169771785Y-142013214D01*
X169771785Y-141287500D01*
X169862500Y-141106071D01*
X169953214Y-141015357D01*
X170134642Y-140924642D01*
X170406785Y-140924642D01*
X170588214Y-141015357D01*
X170678928Y-141106071D01*
X170769642Y-141287500D01*
X170769642Y-142013214D01*
X169953214Y-140198928D02*
X169862500Y-140108214D01*
X169771785Y-139926785D01*
X169771785Y-139473214D01*
X169862500Y-139291785D01*
X169953214Y-139201071D01*
X170134642Y-139110357D01*
X170316071Y-139110357D01*
X170588214Y-139201071D01*
X171676785Y-140289642D01*
X171676785Y-139110357D01*
X169953214Y-138384642D02*
X169862500Y-138293928D01*
X169771785Y-138112500D01*
X169771785Y-137658928D01*
X169862500Y-137477500D01*
X169953214Y-137386785D01*
X170134642Y-137296071D01*
X170316071Y-137296071D01*
X170588214Y-137386785D01*
X171676785Y-138475357D01*
X171676785Y-137296071D01*
X171389523Y-134650238D02*
X171389523Y-135375952D01*
X171389523Y-135013095D02*
X170119523Y-135013095D01*
X170300952Y-135134047D01*
X170421904Y-135255000D01*
X170482380Y-135375952D01*
X170119523Y-133864047D02*
X170119523Y-133743095D01*
X170180000Y-133622142D01*
X170240476Y-133561666D01*
X170361428Y-133501190D01*
X170603333Y-133440714D01*
X170905714Y-133440714D01*
X171147619Y-133501190D01*
X171268571Y-133561666D01*
X171329047Y-133622142D01*
X171389523Y-133743095D01*
X171389523Y-133864047D01*
X171329047Y-133985000D01*
X171268571Y-134045476D01*
X171147619Y-134105952D01*
X170905714Y-134166428D01*
X170603333Y-134166428D01*
X170361428Y-134105952D01*
X170240476Y-134045476D01*
X170180000Y-133985000D01*
X170119523Y-133864047D01*
X171389523Y-132896428D02*
X170119523Y-132896428D01*
X170905714Y-132775476D02*
X171389523Y-132412619D01*
X170542857Y-132412619D02*
X171026666Y-132896428D01*
X171389523Y-130235476D02*
X171389523Y-130961190D01*
X171389523Y-130598333D02*
X170119523Y-130598333D01*
X170300952Y-130719285D01*
X170421904Y-130840238D01*
X170482380Y-130961190D01*
X170059047Y-128784047D02*
X171691904Y-129872619D01*
X170240476Y-128421190D02*
X170180000Y-128360714D01*
X170119523Y-128239761D01*
X170119523Y-127937380D01*
X170180000Y-127816428D01*
X170240476Y-127755952D01*
X170361428Y-127695476D01*
X170482380Y-127695476D01*
X170663809Y-127755952D01*
X171389523Y-128481666D01*
X171389523Y-127695476D01*
X170119523Y-127272142D02*
X171389523Y-126969761D01*
X170482380Y-126727857D01*
X171389523Y-126485952D01*
X170119523Y-126183571D01*
%TO.C,R1*%
X99921785Y-121602500D02*
X99014642Y-122237500D01*
X99921785Y-122691071D02*
X98016785Y-122691071D01*
X98016785Y-121965357D01*
X98107500Y-121783928D01*
X98198214Y-121693214D01*
X98379642Y-121602500D01*
X98651785Y-121602500D01*
X98833214Y-121693214D01*
X98923928Y-121783928D01*
X99014642Y-121965357D01*
X99014642Y-122691071D01*
X99921785Y-119788214D02*
X99921785Y-120876785D01*
X99921785Y-120332500D02*
X98016785Y-120332500D01*
X98288928Y-120513928D01*
X98470357Y-120695357D01*
X98561071Y-120876785D01*
X99634523Y-117112142D02*
X99634523Y-117837857D01*
X99634523Y-117475000D02*
X98364523Y-117475000D01*
X98545952Y-117595952D01*
X98666904Y-117716904D01*
X98727380Y-117837857D01*
X99634523Y-116567857D02*
X98364523Y-116567857D01*
X99271666Y-116144523D01*
X98364523Y-115721190D01*
X99634523Y-115721190D01*
X99634523Y-113483571D02*
X99634523Y-114209285D01*
X99634523Y-113846428D02*
X98364523Y-113846428D01*
X98545952Y-113967380D01*
X98666904Y-114088333D01*
X98727380Y-114209285D01*
X98304047Y-112032142D02*
X99936904Y-113120714D01*
X98485476Y-111669285D02*
X98425000Y-111608809D01*
X98364523Y-111487857D01*
X98364523Y-111185476D01*
X98425000Y-111064523D01*
X98485476Y-111004047D01*
X98606428Y-110943571D01*
X98727380Y-110943571D01*
X98908809Y-111004047D01*
X99634523Y-111729761D01*
X99634523Y-110943571D01*
X98364523Y-110520238D02*
X99634523Y-110217857D01*
X98727380Y-109975952D01*
X99634523Y-109734047D01*
X98364523Y-109431666D01*
%TO.C,J1*%
X49530000Y-61186785D02*
X49530000Y-62547500D01*
X49439285Y-62819642D01*
X49257857Y-63001071D01*
X48985714Y-63091785D01*
X48804285Y-63091785D01*
X51435000Y-63091785D02*
X50346428Y-63091785D01*
X50890714Y-63091785D02*
X50890714Y-61186785D01*
X50709285Y-61458928D01*
X50527857Y-61640357D01*
X50346428Y-61731071D01*
%TO.C,U3*%
X196033571Y-76426785D02*
X196033571Y-77968928D01*
X196124285Y-78150357D01*
X196215000Y-78241071D01*
X196396428Y-78331785D01*
X196759285Y-78331785D01*
X196940714Y-78241071D01*
X197031428Y-78150357D01*
X197122142Y-77968928D01*
X197122142Y-76426785D01*
X197847857Y-76426785D02*
X199027142Y-76426785D01*
X198392142Y-77152500D01*
X198664285Y-77152500D01*
X198845714Y-77243214D01*
X198936428Y-77333928D01*
X199027142Y-77515357D01*
X199027142Y-77968928D01*
X198936428Y-78150357D01*
X198845714Y-78241071D01*
X198664285Y-78331785D01*
X198120000Y-78331785D01*
X197938571Y-78241071D01*
X197847857Y-78150357D01*
X180612142Y-77409523D02*
X180370238Y-77409523D01*
X180249285Y-77470000D01*
X180188809Y-77530476D01*
X180067857Y-77711904D01*
X180007380Y-77953809D01*
X180007380Y-78437619D01*
X180067857Y-78558571D01*
X180128333Y-78619047D01*
X180249285Y-78679523D01*
X180491190Y-78679523D01*
X180612142Y-78619047D01*
X180672619Y-78558571D01*
X180733095Y-78437619D01*
X180733095Y-78135238D01*
X180672619Y-78014285D01*
X180612142Y-77953809D01*
X180491190Y-77893333D01*
X180249285Y-77893333D01*
X180128333Y-77953809D01*
X180067857Y-78014285D01*
X180007380Y-78135238D01*
X181216904Y-78619047D02*
X181398333Y-78679523D01*
X181700714Y-78679523D01*
X181821666Y-78619047D01*
X181882142Y-78558571D01*
X181942619Y-78437619D01*
X181942619Y-78316666D01*
X181882142Y-78195714D01*
X181821666Y-78135238D01*
X181700714Y-78074761D01*
X181458809Y-78014285D01*
X181337857Y-77953809D01*
X181277380Y-77893333D01*
X181216904Y-77772380D01*
X181216904Y-77651428D01*
X181277380Y-77530476D01*
X181337857Y-77470000D01*
X181458809Y-77409523D01*
X181761190Y-77409523D01*
X181942619Y-77470000D01*
X182486904Y-78679523D02*
X182486904Y-77409523D01*
X183212619Y-78679523D01*
X183212619Y-77409523D01*
X183696428Y-77409523D02*
X184543095Y-77409523D01*
X183998809Y-78679523D01*
D12*
X189404761Y-111646666D02*
X189404761Y-110313333D01*
X191404761Y-111170476D01*
X202011904Y-106170476D02*
X201916666Y-106360952D01*
X201821428Y-106456190D01*
X201630952Y-106551428D01*
X201535714Y-106551428D01*
X201345238Y-106456190D01*
X201250000Y-106360952D01*
X201154761Y-106170476D01*
X201154761Y-105789523D01*
X201250000Y-105599047D01*
X201345238Y-105503809D01*
X201535714Y-105408571D01*
X201630952Y-105408571D01*
X201821428Y-105503809D01*
X201916666Y-105599047D01*
X202011904Y-105789523D01*
X202011904Y-106170476D01*
X202107142Y-106360952D01*
X202202380Y-106456190D01*
X202392857Y-106551428D01*
X202773809Y-106551428D01*
X202964285Y-106456190D01*
X203059523Y-106360952D01*
X203154761Y-106170476D01*
X203154761Y-105789523D01*
X203059523Y-105599047D01*
X202964285Y-105503809D01*
X202773809Y-105408571D01*
X202392857Y-105408571D01*
X202202380Y-105503809D01*
X202107142Y-105599047D01*
X202011904Y-105789523D01*
X208904761Y-93408571D02*
X208904761Y-94551428D01*
X208904761Y-93980000D02*
X206904761Y-93980000D01*
X207190476Y-94170476D01*
X207380952Y-94360952D01*
X207476190Y-94551428D01*
X177154761Y-105599047D02*
X177154761Y-105980000D01*
X177250000Y-106170476D01*
X177345238Y-106265714D01*
X177630952Y-106456190D01*
X178011904Y-106551428D01*
X178773809Y-106551428D01*
X178964285Y-106456190D01*
X179059523Y-106360952D01*
X179154761Y-106170476D01*
X179154761Y-105789523D01*
X179059523Y-105599047D01*
X178964285Y-105503809D01*
X178773809Y-105408571D01*
X178297619Y-105408571D01*
X178107142Y-105503809D01*
X178011904Y-105599047D01*
X177916666Y-105789523D01*
X177916666Y-106170476D01*
X178011904Y-106360952D01*
X178107142Y-106456190D01*
X178297619Y-106551428D01*
X202095238Y-82051428D02*
X202000000Y-81956190D01*
X201904761Y-81765714D01*
X201904761Y-81289523D01*
X202000000Y-81099047D01*
X202095238Y-81003809D01*
X202285714Y-80908571D01*
X202476190Y-80908571D01*
X202761904Y-81003809D01*
X203904761Y-82146666D01*
X203904761Y-80908571D01*
X172154761Y-93503809D02*
X172154761Y-94456190D01*
X173107142Y-94551428D01*
X173011904Y-94456190D01*
X172916666Y-94265714D01*
X172916666Y-93789523D01*
X173011904Y-93599047D01*
X173107142Y-93503809D01*
X173297619Y-93408571D01*
X173773809Y-93408571D01*
X173964285Y-93503809D01*
X174059523Y-93599047D01*
X174154761Y-93789523D01*
X174154761Y-94265714D01*
X174059523Y-94456190D01*
X173964285Y-94551428D01*
X177321428Y-80849047D02*
X178654761Y-80849047D01*
X176559523Y-81325238D02*
X177988095Y-81801428D01*
X177988095Y-80563333D01*
X189404761Y-77146666D02*
X189404761Y-75908571D01*
X190166666Y-76575238D01*
X190166666Y-76289523D01*
X190261904Y-76099047D01*
X190357142Y-76003809D01*
X190547619Y-75908571D01*
X191023809Y-75908571D01*
X191214285Y-76003809D01*
X191309523Y-76099047D01*
X191404761Y-76289523D01*
X191404761Y-76860952D01*
X191309523Y-77051428D01*
X191214285Y-77146666D01*
D10*
%TO.C,R6*%
X75156785Y-66992500D02*
X74249642Y-67627500D01*
X75156785Y-68081071D02*
X73251785Y-68081071D01*
X73251785Y-67355357D01*
X73342500Y-67173928D01*
X73433214Y-67083214D01*
X73614642Y-66992500D01*
X73886785Y-66992500D01*
X74068214Y-67083214D01*
X74158928Y-67173928D01*
X74249642Y-67355357D01*
X74249642Y-68081071D01*
X73251785Y-65359642D02*
X73251785Y-65722500D01*
X73342500Y-65903928D01*
X73433214Y-65994642D01*
X73705357Y-66176071D01*
X74068214Y-66266785D01*
X74793928Y-66266785D01*
X74975357Y-66176071D01*
X75066071Y-66085357D01*
X75156785Y-65903928D01*
X75156785Y-65541071D01*
X75066071Y-65359642D01*
X74975357Y-65268928D01*
X74793928Y-65178214D01*
X74340357Y-65178214D01*
X74158928Y-65268928D01*
X74068214Y-65359642D01*
X73977500Y-65541071D01*
X73977500Y-65903928D01*
X74068214Y-66085357D01*
X74158928Y-66176071D01*
X74340357Y-66266785D01*
X74869523Y-62260238D02*
X74869523Y-62985952D01*
X74869523Y-62623095D02*
X73599523Y-62623095D01*
X73780952Y-62744047D01*
X73901904Y-62865000D01*
X73962380Y-62985952D01*
X73599523Y-61474047D02*
X73599523Y-61353095D01*
X73660000Y-61232142D01*
X73720476Y-61171666D01*
X73841428Y-61111190D01*
X74083333Y-61050714D01*
X74385714Y-61050714D01*
X74627619Y-61111190D01*
X74748571Y-61171666D01*
X74809047Y-61232142D01*
X74869523Y-61353095D01*
X74869523Y-61474047D01*
X74809047Y-61595000D01*
X74748571Y-61655476D01*
X74627619Y-61715952D01*
X74385714Y-61776428D01*
X74083333Y-61776428D01*
X73841428Y-61715952D01*
X73720476Y-61655476D01*
X73660000Y-61595000D01*
X73599523Y-61474047D01*
X74869523Y-60506428D02*
X73599523Y-60506428D01*
X74385714Y-60385476D02*
X74869523Y-60022619D01*
X74022857Y-60022619D02*
X74506666Y-60506428D01*
X73599523Y-57905952D02*
X73599523Y-58510714D01*
X74204285Y-58571190D01*
X74143809Y-58510714D01*
X74083333Y-58389761D01*
X74083333Y-58087380D01*
X74143809Y-57966428D01*
X74204285Y-57905952D01*
X74325238Y-57845476D01*
X74627619Y-57845476D01*
X74748571Y-57905952D01*
X74809047Y-57966428D01*
X74869523Y-58087380D01*
X74869523Y-58389761D01*
X74809047Y-58510714D01*
X74748571Y-58571190D01*
X73599523Y-57422142D02*
X74869523Y-57119761D01*
X73962380Y-56877857D01*
X74869523Y-56635952D01*
X73599523Y-56333571D01*
%TO.C,C1*%
X58737500Y-50845357D02*
X58646785Y-50936071D01*
X58374642Y-51026785D01*
X58193214Y-51026785D01*
X57921071Y-50936071D01*
X57739642Y-50754642D01*
X57648928Y-50573214D01*
X57558214Y-50210357D01*
X57558214Y-49938214D01*
X57648928Y-49575357D01*
X57739642Y-49393928D01*
X57921071Y-49212500D01*
X58193214Y-49121785D01*
X58374642Y-49121785D01*
X58646785Y-49212500D01*
X58737500Y-49303214D01*
X60551785Y-51026785D02*
X59463214Y-51026785D01*
X60007500Y-51026785D02*
X60007500Y-49121785D01*
X59826071Y-49393928D01*
X59644642Y-49575357D01*
X59463214Y-49666071D01*
X64376904Y-49469523D02*
X63651190Y-49469523D01*
X64014047Y-49469523D02*
X64014047Y-48199523D01*
X63893095Y-48380952D01*
X63772142Y-48501904D01*
X63651190Y-48562380D01*
X65163095Y-48199523D02*
X65284047Y-48199523D01*
X65405000Y-48260000D01*
X65465476Y-48320476D01*
X65525952Y-48441428D01*
X65586428Y-48683333D01*
X65586428Y-48985714D01*
X65525952Y-49227619D01*
X65465476Y-49348571D01*
X65405000Y-49409047D01*
X65284047Y-49469523D01*
X65163095Y-49469523D01*
X65042142Y-49409047D01*
X64981666Y-49348571D01*
X64921190Y-49227619D01*
X64860714Y-48985714D01*
X64860714Y-48683333D01*
X64921190Y-48441428D01*
X64981666Y-48320476D01*
X65042142Y-48260000D01*
X65163095Y-48199523D01*
X66675000Y-48622857D02*
X66675000Y-49469523D01*
X66130714Y-48622857D02*
X66130714Y-49288095D01*
X66191190Y-49409047D01*
X66312142Y-49469523D01*
X66493571Y-49469523D01*
X66614523Y-49409047D01*
X66675000Y-49348571D01*
X67703095Y-48804285D02*
X67279761Y-48804285D01*
X67279761Y-49469523D02*
X67279761Y-48199523D01*
X67884523Y-48199523D01*
X69940714Y-48199523D02*
X69335952Y-48199523D01*
X69275476Y-48804285D01*
X69335952Y-48743809D01*
X69456904Y-48683333D01*
X69759285Y-48683333D01*
X69880238Y-48743809D01*
X69940714Y-48804285D01*
X70001190Y-48925238D01*
X70001190Y-49227619D01*
X69940714Y-49348571D01*
X69880238Y-49409047D01*
X69759285Y-49469523D01*
X69456904Y-49469523D01*
X69335952Y-49409047D01*
X69275476Y-49348571D01*
X70787380Y-48199523D02*
X70908333Y-48199523D01*
X71029285Y-48260000D01*
X71089761Y-48320476D01*
X71150238Y-48441428D01*
X71210714Y-48683333D01*
X71210714Y-48985714D01*
X71150238Y-49227619D01*
X71089761Y-49348571D01*
X71029285Y-49409047D01*
X70908333Y-49469523D01*
X70787380Y-49469523D01*
X70666428Y-49409047D01*
X70605952Y-49348571D01*
X70545476Y-49227619D01*
X70485000Y-48985714D01*
X70485000Y-48683333D01*
X70545476Y-48441428D01*
X70605952Y-48320476D01*
X70666428Y-48260000D01*
X70787380Y-48199523D01*
X71996904Y-48199523D02*
X72117857Y-48199523D01*
X72238809Y-48260000D01*
X72299285Y-48320476D01*
X72359761Y-48441428D01*
X72420238Y-48683333D01*
X72420238Y-48985714D01*
X72359761Y-49227619D01*
X72299285Y-49348571D01*
X72238809Y-49409047D01*
X72117857Y-49469523D01*
X71996904Y-49469523D01*
X71875952Y-49409047D01*
X71815476Y-49348571D01*
X71755000Y-49227619D01*
X71694523Y-48985714D01*
X71694523Y-48683333D01*
X71755000Y-48441428D01*
X71815476Y-48320476D01*
X71875952Y-48260000D01*
X71996904Y-48199523D01*
X72783095Y-48199523D02*
X73206428Y-49469523D01*
X73629761Y-48199523D01*
%TO.C,C3*%
X106090357Y-140017500D02*
X106181071Y-140108214D01*
X106271785Y-140380357D01*
X106271785Y-140561785D01*
X106181071Y-140833928D01*
X105999642Y-141015357D01*
X105818214Y-141106071D01*
X105455357Y-141196785D01*
X105183214Y-141196785D01*
X104820357Y-141106071D01*
X104638928Y-141015357D01*
X104457500Y-140833928D01*
X104366785Y-140561785D01*
X104366785Y-140380357D01*
X104457500Y-140108214D01*
X104548214Y-140017500D01*
X104366785Y-139382500D02*
X104366785Y-138203214D01*
X105092500Y-138838214D01*
X105092500Y-138566071D01*
X105183214Y-138384642D01*
X105273928Y-138293928D01*
X105455357Y-138203214D01*
X105908928Y-138203214D01*
X106090357Y-138293928D01*
X106181071Y-138384642D01*
X106271785Y-138566071D01*
X106271785Y-139110357D01*
X106181071Y-139291785D01*
X106090357Y-139382500D01*
X104714523Y-136010952D02*
X104714523Y-135890000D01*
X104775000Y-135769047D01*
X104835476Y-135708571D01*
X104956428Y-135648095D01*
X105198333Y-135587619D01*
X105500714Y-135587619D01*
X105742619Y-135648095D01*
X105863571Y-135708571D01*
X105924047Y-135769047D01*
X105984523Y-135890000D01*
X105984523Y-136010952D01*
X105924047Y-136131904D01*
X105863571Y-136192380D01*
X105742619Y-136252857D01*
X105500714Y-136313333D01*
X105198333Y-136313333D01*
X104956428Y-136252857D01*
X104835476Y-136192380D01*
X104775000Y-136131904D01*
X104714523Y-136010952D01*
X105863571Y-135043333D02*
X105924047Y-134982857D01*
X105984523Y-135043333D01*
X105924047Y-135103809D01*
X105863571Y-135043333D01*
X105984523Y-135043333D01*
X104714523Y-134196666D02*
X104714523Y-134075714D01*
X104775000Y-133954761D01*
X104835476Y-133894285D01*
X104956428Y-133833809D01*
X105198333Y-133773333D01*
X105500714Y-133773333D01*
X105742619Y-133833809D01*
X105863571Y-133894285D01*
X105924047Y-133954761D01*
X105984523Y-134075714D01*
X105984523Y-134196666D01*
X105924047Y-134317619D01*
X105863571Y-134378095D01*
X105742619Y-134438571D01*
X105500714Y-134499047D01*
X105198333Y-134499047D01*
X104956428Y-134438571D01*
X104835476Y-134378095D01*
X104775000Y-134317619D01*
X104714523Y-134196666D01*
X104835476Y-133289523D02*
X104775000Y-133229047D01*
X104714523Y-133108095D01*
X104714523Y-132805714D01*
X104775000Y-132684761D01*
X104835476Y-132624285D01*
X104956428Y-132563809D01*
X105077380Y-132563809D01*
X105258809Y-132624285D01*
X105984523Y-133350000D01*
X105984523Y-132563809D01*
X104714523Y-131414761D02*
X104714523Y-132019523D01*
X105319285Y-132080000D01*
X105258809Y-132019523D01*
X105198333Y-131898571D01*
X105198333Y-131596190D01*
X105258809Y-131475238D01*
X105319285Y-131414761D01*
X105440238Y-131354285D01*
X105742619Y-131354285D01*
X105863571Y-131414761D01*
X105924047Y-131475238D01*
X105984523Y-131596190D01*
X105984523Y-131898571D01*
X105924047Y-132019523D01*
X105863571Y-132080000D01*
X105137857Y-130265714D02*
X105984523Y-130265714D01*
X105137857Y-130810000D02*
X105803095Y-130810000D01*
X105924047Y-130749523D01*
X105984523Y-130628571D01*
X105984523Y-130447142D01*
X105924047Y-130326190D01*
X105863571Y-130265714D01*
X105319285Y-129237619D02*
X105319285Y-129660952D01*
X105984523Y-129660952D02*
X104714523Y-129660952D01*
X104714523Y-129056190D01*
%TO.C,C5*%
X109480357Y-93027500D02*
X109571071Y-93118214D01*
X109661785Y-93390357D01*
X109661785Y-93571785D01*
X109571071Y-93843928D01*
X109389642Y-94025357D01*
X109208214Y-94116071D01*
X108845357Y-94206785D01*
X108573214Y-94206785D01*
X108210357Y-94116071D01*
X108028928Y-94025357D01*
X107847500Y-93843928D01*
X107756785Y-93571785D01*
X107756785Y-93390357D01*
X107847500Y-93118214D01*
X107938214Y-93027500D01*
X107756785Y-91303928D02*
X107756785Y-92211071D01*
X108663928Y-92301785D01*
X108573214Y-92211071D01*
X108482500Y-92029642D01*
X108482500Y-91576071D01*
X108573214Y-91394642D01*
X108663928Y-91303928D01*
X108845357Y-91213214D01*
X109298928Y-91213214D01*
X109480357Y-91303928D01*
X109571071Y-91394642D01*
X109661785Y-91576071D01*
X109661785Y-92029642D01*
X109571071Y-92211071D01*
X109480357Y-92301785D01*
X119225476Y-97941190D02*
X119165000Y-97880714D01*
X119104523Y-97759761D01*
X119104523Y-97457380D01*
X119165000Y-97336428D01*
X119225476Y-97275952D01*
X119346428Y-97215476D01*
X119467380Y-97215476D01*
X119648809Y-97275952D01*
X120374523Y-98001666D01*
X120374523Y-97215476D01*
X120253571Y-96671190D02*
X120314047Y-96610714D01*
X120374523Y-96671190D01*
X120314047Y-96731666D01*
X120253571Y-96671190D01*
X120374523Y-96671190D01*
X119225476Y-96126904D02*
X119165000Y-96066428D01*
X119104523Y-95945476D01*
X119104523Y-95643095D01*
X119165000Y-95522142D01*
X119225476Y-95461666D01*
X119346428Y-95401190D01*
X119467380Y-95401190D01*
X119648809Y-95461666D01*
X120374523Y-96187380D01*
X120374523Y-95401190D01*
X119527857Y-94312619D02*
X120374523Y-94312619D01*
X119527857Y-94856904D02*
X120193095Y-94856904D01*
X120314047Y-94796428D01*
X120374523Y-94675476D01*
X120374523Y-94494047D01*
X120314047Y-94373095D01*
X120253571Y-94312619D01*
X119709285Y-93284523D02*
X119709285Y-93707857D01*
X120374523Y-93707857D02*
X119104523Y-93707857D01*
X119104523Y-93103095D01*
X119225476Y-91712142D02*
X119165000Y-91651666D01*
X119104523Y-91530714D01*
X119104523Y-91228333D01*
X119165000Y-91107380D01*
X119225476Y-91046904D01*
X119346428Y-90986428D01*
X119467380Y-90986428D01*
X119648809Y-91046904D01*
X120374523Y-91772619D01*
X120374523Y-90986428D01*
X119104523Y-89837380D02*
X119104523Y-90442142D01*
X119709285Y-90502619D01*
X119648809Y-90442142D01*
X119588333Y-90321190D01*
X119588333Y-90018809D01*
X119648809Y-89897857D01*
X119709285Y-89837380D01*
X119830238Y-89776904D01*
X120132619Y-89776904D01*
X120253571Y-89837380D01*
X120314047Y-89897857D01*
X120374523Y-90018809D01*
X120374523Y-90321190D01*
X120314047Y-90442142D01*
X120253571Y-90502619D01*
X119104523Y-88990714D02*
X119104523Y-88869761D01*
X119165000Y-88748809D01*
X119225476Y-88688333D01*
X119346428Y-88627857D01*
X119588333Y-88567380D01*
X119890714Y-88567380D01*
X120132619Y-88627857D01*
X120253571Y-88688333D01*
X120314047Y-88748809D01*
X120374523Y-88869761D01*
X120374523Y-88990714D01*
X120314047Y-89111666D01*
X120253571Y-89172142D01*
X120132619Y-89232619D01*
X119890714Y-89293095D01*
X119588333Y-89293095D01*
X119346428Y-89232619D01*
X119225476Y-89172142D01*
X119165000Y-89111666D01*
X119104523Y-88990714D01*
X119104523Y-88204523D02*
X120374523Y-87781190D01*
X119104523Y-87357857D01*
%TO.C,C8*%
X195625357Y-120332500D02*
X195716071Y-120423214D01*
X195806785Y-120695357D01*
X195806785Y-120876785D01*
X195716071Y-121148928D01*
X195534642Y-121330357D01*
X195353214Y-121421071D01*
X194990357Y-121511785D01*
X194718214Y-121511785D01*
X194355357Y-121421071D01*
X194173928Y-121330357D01*
X193992500Y-121148928D01*
X193901785Y-120876785D01*
X193901785Y-120695357D01*
X193992500Y-120423214D01*
X194083214Y-120332500D01*
X194718214Y-119243928D02*
X194627500Y-119425357D01*
X194536785Y-119516071D01*
X194355357Y-119606785D01*
X194264642Y-119606785D01*
X194083214Y-119516071D01*
X193992500Y-119425357D01*
X193901785Y-119243928D01*
X193901785Y-118881071D01*
X193992500Y-118699642D01*
X194083214Y-118608928D01*
X194264642Y-118518214D01*
X194355357Y-118518214D01*
X194536785Y-118608928D01*
X194627500Y-118699642D01*
X194718214Y-118881071D01*
X194718214Y-119243928D01*
X194808928Y-119425357D01*
X194899642Y-119516071D01*
X195081071Y-119606785D01*
X195443928Y-119606785D01*
X195625357Y-119516071D01*
X195716071Y-119425357D01*
X195806785Y-119243928D01*
X195806785Y-118881071D01*
X195716071Y-118699642D01*
X195625357Y-118608928D01*
X195443928Y-118518214D01*
X195081071Y-118518214D01*
X194899642Y-118608928D01*
X194808928Y-118699642D01*
X194718214Y-118881071D01*
X194370476Y-115721190D02*
X194310000Y-115660714D01*
X194249523Y-115539761D01*
X194249523Y-115237380D01*
X194310000Y-115116428D01*
X194370476Y-115055952D01*
X194491428Y-114995476D01*
X194612380Y-114995476D01*
X194793809Y-115055952D01*
X195519523Y-115781666D01*
X195519523Y-114995476D01*
X194370476Y-114511666D02*
X194310000Y-114451190D01*
X194249523Y-114330238D01*
X194249523Y-114027857D01*
X194310000Y-113906904D01*
X194370476Y-113846428D01*
X194491428Y-113785952D01*
X194612380Y-113785952D01*
X194793809Y-113846428D01*
X195519523Y-114572142D01*
X195519523Y-113785952D01*
X194249523Y-112999761D02*
X194249523Y-112878809D01*
X194310000Y-112757857D01*
X194370476Y-112697380D01*
X194491428Y-112636904D01*
X194733333Y-112576428D01*
X195035714Y-112576428D01*
X195277619Y-112636904D01*
X195398571Y-112697380D01*
X195459047Y-112757857D01*
X195519523Y-112878809D01*
X195519523Y-112999761D01*
X195459047Y-113120714D01*
X195398571Y-113181190D01*
X195277619Y-113241666D01*
X195035714Y-113302142D01*
X194733333Y-113302142D01*
X194491428Y-113241666D01*
X194370476Y-113181190D01*
X194310000Y-113120714D01*
X194249523Y-112999761D01*
X194672857Y-112032142D02*
X195942857Y-112032142D01*
X194733333Y-112032142D02*
X194672857Y-111911190D01*
X194672857Y-111669285D01*
X194733333Y-111548333D01*
X194793809Y-111487857D01*
X194914761Y-111427380D01*
X195277619Y-111427380D01*
X195398571Y-111487857D01*
X195459047Y-111548333D01*
X195519523Y-111669285D01*
X195519523Y-111911190D01*
X195459047Y-112032142D01*
X194854285Y-110459761D02*
X194854285Y-110883095D01*
X195519523Y-110883095D02*
X194249523Y-110883095D01*
X194249523Y-110278333D01*
%TO.C,R4*%
X87221785Y-138747500D02*
X86314642Y-139382500D01*
X87221785Y-139836071D02*
X85316785Y-139836071D01*
X85316785Y-139110357D01*
X85407500Y-138928928D01*
X85498214Y-138838214D01*
X85679642Y-138747500D01*
X85951785Y-138747500D01*
X86133214Y-138838214D01*
X86223928Y-138928928D01*
X86314642Y-139110357D01*
X86314642Y-139836071D01*
X85951785Y-137114642D02*
X87221785Y-137114642D01*
X85226071Y-137568214D02*
X86586785Y-138021785D01*
X86586785Y-136842500D01*
X85785476Y-134831666D02*
X85725000Y-134771190D01*
X85664523Y-134650238D01*
X85664523Y-134347857D01*
X85725000Y-134226904D01*
X85785476Y-134166428D01*
X85906428Y-134105952D01*
X86027380Y-134105952D01*
X86208809Y-134166428D01*
X86934523Y-134892142D01*
X86934523Y-134105952D01*
X85785476Y-133622142D02*
X85725000Y-133561666D01*
X85664523Y-133440714D01*
X85664523Y-133138333D01*
X85725000Y-133017380D01*
X85785476Y-132956904D01*
X85906428Y-132896428D01*
X86027380Y-132896428D01*
X86208809Y-132956904D01*
X86934523Y-133682619D01*
X86934523Y-132896428D01*
X85664523Y-132110238D02*
X85664523Y-131989285D01*
X85725000Y-131868333D01*
X85785476Y-131807857D01*
X85906428Y-131747380D01*
X86148333Y-131686904D01*
X86450714Y-131686904D01*
X86692619Y-131747380D01*
X86813571Y-131807857D01*
X86874047Y-131868333D01*
X86934523Y-131989285D01*
X86934523Y-132110238D01*
X86874047Y-132231190D01*
X86813571Y-132291666D01*
X86692619Y-132352142D01*
X86450714Y-132412619D01*
X86148333Y-132412619D01*
X85906428Y-132352142D01*
X85785476Y-132291666D01*
X85725000Y-132231190D01*
X85664523Y-132110238D01*
X86934523Y-129509761D02*
X86934523Y-130235476D01*
X86934523Y-129872619D02*
X85664523Y-129872619D01*
X85845952Y-129993571D01*
X85966904Y-130114523D01*
X86027380Y-130235476D01*
X85604047Y-128058333D02*
X87236904Y-129146904D01*
X85785476Y-127695476D02*
X85725000Y-127635000D01*
X85664523Y-127514047D01*
X85664523Y-127211666D01*
X85725000Y-127090714D01*
X85785476Y-127030238D01*
X85906428Y-126969761D01*
X86027380Y-126969761D01*
X86208809Y-127030238D01*
X86934523Y-127755952D01*
X86934523Y-126969761D01*
X85664523Y-126546428D02*
X86934523Y-126244047D01*
X86027380Y-126002142D01*
X86934523Y-125760238D01*
X85664523Y-125457857D01*
%TO.C,H1*%
X48078571Y-136331785D02*
X48078571Y-134426785D01*
X48078571Y-135333928D02*
X49167142Y-135333928D01*
X49167142Y-136331785D02*
X49167142Y-134426785D01*
X51072142Y-136331785D02*
X49983571Y-136331785D01*
X50527857Y-136331785D02*
X50527857Y-134426785D01*
X50346428Y-134698928D01*
X50165000Y-134880357D01*
X49983571Y-134971071D01*
X47987857Y-147044523D02*
X47987857Y-145774523D01*
X48411190Y-146681666D01*
X48834523Y-145774523D01*
X48834523Y-147044523D01*
X49257857Y-145774523D02*
X49983571Y-145774523D01*
X49620714Y-147044523D02*
X49620714Y-145774523D01*
X51072142Y-145835000D02*
X50951190Y-145774523D01*
X50769761Y-145774523D01*
X50588333Y-145835000D01*
X50467380Y-145955952D01*
X50406904Y-146076904D01*
X50346428Y-146318809D01*
X50346428Y-146500238D01*
X50406904Y-146742142D01*
X50467380Y-146863095D01*
X50588333Y-146984047D01*
X50769761Y-147044523D01*
X50890714Y-147044523D01*
X51072142Y-146984047D01*
X51132619Y-146923571D01*
X51132619Y-146500238D01*
X50890714Y-146500238D01*
%TO.C,R16*%
X186281785Y-65994642D02*
X185374642Y-66629642D01*
X186281785Y-67083214D02*
X184376785Y-67083214D01*
X184376785Y-66357500D01*
X184467500Y-66176071D01*
X184558214Y-66085357D01*
X184739642Y-65994642D01*
X185011785Y-65994642D01*
X185193214Y-66085357D01*
X185283928Y-66176071D01*
X185374642Y-66357500D01*
X185374642Y-67083214D01*
X186281785Y-64180357D02*
X186281785Y-65268928D01*
X186281785Y-64724642D02*
X184376785Y-64724642D01*
X184648928Y-64906071D01*
X184830357Y-65087500D01*
X184921071Y-65268928D01*
X184376785Y-62547500D02*
X184376785Y-62910357D01*
X184467500Y-63091785D01*
X184558214Y-63182500D01*
X184830357Y-63363928D01*
X185193214Y-63454642D01*
X185918928Y-63454642D01*
X186100357Y-63363928D01*
X186191071Y-63273214D01*
X186281785Y-63091785D01*
X186281785Y-62728928D01*
X186191071Y-62547500D01*
X186100357Y-62456785D01*
X185918928Y-62366071D01*
X185465357Y-62366071D01*
X185283928Y-62456785D01*
X185193214Y-62547500D01*
X185102500Y-62728928D01*
X185102500Y-63091785D01*
X185193214Y-63273214D01*
X185283928Y-63363928D01*
X185465357Y-63454642D01*
X185994523Y-57180238D02*
X185994523Y-57905952D01*
X185994523Y-57543095D02*
X184724523Y-57543095D01*
X184905952Y-57664047D01*
X185026904Y-57785000D01*
X185087380Y-57905952D01*
X184724523Y-56394047D02*
X184724523Y-56273095D01*
X184785000Y-56152142D01*
X184845476Y-56091666D01*
X184966428Y-56031190D01*
X185208333Y-55970714D01*
X185510714Y-55970714D01*
X185752619Y-56031190D01*
X185873571Y-56091666D01*
X185934047Y-56152142D01*
X185994523Y-56273095D01*
X185994523Y-56394047D01*
X185934047Y-56515000D01*
X185873571Y-56575476D01*
X185752619Y-56635952D01*
X185510714Y-56696428D01*
X185208333Y-56696428D01*
X184966428Y-56635952D01*
X184845476Y-56575476D01*
X184785000Y-56515000D01*
X184724523Y-56394047D01*
X185994523Y-55426428D02*
X184724523Y-55426428D01*
X185510714Y-55305476D02*
X185994523Y-54942619D01*
X185147857Y-54942619D02*
X185631666Y-55426428D01*
X184724523Y-52825952D02*
X184724523Y-53430714D01*
X185329285Y-53491190D01*
X185268809Y-53430714D01*
X185208333Y-53309761D01*
X185208333Y-53007380D01*
X185268809Y-52886428D01*
X185329285Y-52825952D01*
X185450238Y-52765476D01*
X185752619Y-52765476D01*
X185873571Y-52825952D01*
X185934047Y-52886428D01*
X185994523Y-53007380D01*
X185994523Y-53309761D01*
X185934047Y-53430714D01*
X185873571Y-53491190D01*
X184724523Y-52342142D02*
X185994523Y-52039761D01*
X185087380Y-51797857D01*
X185994523Y-51555952D01*
X184724523Y-51253571D01*
%TO.C,U2*%
X147138571Y-76426785D02*
X147138571Y-77968928D01*
X147229285Y-78150357D01*
X147320000Y-78241071D01*
X147501428Y-78331785D01*
X147864285Y-78331785D01*
X148045714Y-78241071D01*
X148136428Y-78150357D01*
X148227142Y-77968928D01*
X148227142Y-76426785D01*
X149043571Y-76608214D02*
X149134285Y-76517500D01*
X149315714Y-76426785D01*
X149769285Y-76426785D01*
X149950714Y-76517500D01*
X150041428Y-76608214D01*
X150132142Y-76789642D01*
X150132142Y-76971071D01*
X150041428Y-77243214D01*
X148952857Y-78331785D01*
X150132142Y-78331785D01*
X129812142Y-77409523D02*
X129570238Y-77409523D01*
X129449285Y-77470000D01*
X129388809Y-77530476D01*
X129267857Y-77711904D01*
X129207380Y-77953809D01*
X129207380Y-78437619D01*
X129267857Y-78558571D01*
X129328333Y-78619047D01*
X129449285Y-78679523D01*
X129691190Y-78679523D01*
X129812142Y-78619047D01*
X129872619Y-78558571D01*
X129933095Y-78437619D01*
X129933095Y-78135238D01*
X129872619Y-78014285D01*
X129812142Y-77953809D01*
X129691190Y-77893333D01*
X129449285Y-77893333D01*
X129328333Y-77953809D01*
X129267857Y-78014285D01*
X129207380Y-78135238D01*
X130416904Y-78619047D02*
X130598333Y-78679523D01*
X130900714Y-78679523D01*
X131021666Y-78619047D01*
X131082142Y-78558571D01*
X131142619Y-78437619D01*
X131142619Y-78316666D01*
X131082142Y-78195714D01*
X131021666Y-78135238D01*
X130900714Y-78074761D01*
X130658809Y-78014285D01*
X130537857Y-77953809D01*
X130477380Y-77893333D01*
X130416904Y-77772380D01*
X130416904Y-77651428D01*
X130477380Y-77530476D01*
X130537857Y-77470000D01*
X130658809Y-77409523D01*
X130961190Y-77409523D01*
X131142619Y-77470000D01*
X131686904Y-78679523D02*
X131686904Y-77409523D01*
X132412619Y-78679523D01*
X132412619Y-77409523D01*
X132896428Y-77409523D02*
X133743095Y-77409523D01*
X133198809Y-78679523D01*
D12*
X138604761Y-111646666D02*
X138604761Y-110313333D01*
X140604761Y-111170476D01*
X126354761Y-105599047D02*
X126354761Y-105980000D01*
X126450000Y-106170476D01*
X126545238Y-106265714D01*
X126830952Y-106456190D01*
X127211904Y-106551428D01*
X127973809Y-106551428D01*
X128164285Y-106456190D01*
X128259523Y-106360952D01*
X128354761Y-106170476D01*
X128354761Y-105789523D01*
X128259523Y-105599047D01*
X128164285Y-105503809D01*
X127973809Y-105408571D01*
X127497619Y-105408571D01*
X127307142Y-105503809D01*
X127211904Y-105599047D01*
X127116666Y-105789523D01*
X127116666Y-106170476D01*
X127211904Y-106360952D01*
X127307142Y-106456190D01*
X127497619Y-106551428D01*
X158104761Y-93408571D02*
X158104761Y-94551428D01*
X158104761Y-93980000D02*
X156104761Y-93980000D01*
X156390476Y-94170476D01*
X156580952Y-94360952D01*
X156676190Y-94551428D01*
X126521428Y-80849047D02*
X127854761Y-80849047D01*
X125759523Y-81325238D02*
X127188095Y-81801428D01*
X127188095Y-80563333D01*
X151211904Y-106170476D02*
X151116666Y-106360952D01*
X151021428Y-106456190D01*
X150830952Y-106551428D01*
X150735714Y-106551428D01*
X150545238Y-106456190D01*
X150450000Y-106360952D01*
X150354761Y-106170476D01*
X150354761Y-105789523D01*
X150450000Y-105599047D01*
X150545238Y-105503809D01*
X150735714Y-105408571D01*
X150830952Y-105408571D01*
X151021428Y-105503809D01*
X151116666Y-105599047D01*
X151211904Y-105789523D01*
X151211904Y-106170476D01*
X151307142Y-106360952D01*
X151402380Y-106456190D01*
X151592857Y-106551428D01*
X151973809Y-106551428D01*
X152164285Y-106456190D01*
X152259523Y-106360952D01*
X152354761Y-106170476D01*
X152354761Y-105789523D01*
X152259523Y-105599047D01*
X152164285Y-105503809D01*
X151973809Y-105408571D01*
X151592857Y-105408571D01*
X151402380Y-105503809D01*
X151307142Y-105599047D01*
X151211904Y-105789523D01*
X138604761Y-77146666D02*
X138604761Y-75908571D01*
X139366666Y-76575238D01*
X139366666Y-76289523D01*
X139461904Y-76099047D01*
X139557142Y-76003809D01*
X139747619Y-75908571D01*
X140223809Y-75908571D01*
X140414285Y-76003809D01*
X140509523Y-76099047D01*
X140604761Y-76289523D01*
X140604761Y-76860952D01*
X140509523Y-77051428D01*
X140414285Y-77146666D01*
X151295238Y-82051428D02*
X151200000Y-81956190D01*
X151104761Y-81765714D01*
X151104761Y-81289523D01*
X151200000Y-81099047D01*
X151295238Y-81003809D01*
X151485714Y-80908571D01*
X151676190Y-80908571D01*
X151961904Y-81003809D01*
X153104761Y-82146666D01*
X153104761Y-80908571D01*
X121354761Y-93503809D02*
X121354761Y-94456190D01*
X122307142Y-94551428D01*
X122211904Y-94456190D01*
X122116666Y-94265714D01*
X122116666Y-93789523D01*
X122211904Y-93599047D01*
X122307142Y-93503809D01*
X122497619Y-93408571D01*
X122973809Y-93408571D01*
X123164285Y-93503809D01*
X123259523Y-93599047D01*
X123354761Y-93789523D01*
X123354761Y-94265714D01*
X123259523Y-94456190D01*
X123164285Y-94551428D01*
D10*
%TO.C,R19*%
X126591785Y-123779642D02*
X125684642Y-124414642D01*
X126591785Y-124868214D02*
X124686785Y-124868214D01*
X124686785Y-124142500D01*
X124777500Y-123961071D01*
X124868214Y-123870357D01*
X125049642Y-123779642D01*
X125321785Y-123779642D01*
X125503214Y-123870357D01*
X125593928Y-123961071D01*
X125684642Y-124142500D01*
X125684642Y-124868214D01*
X126591785Y-121965357D02*
X126591785Y-123053928D01*
X126591785Y-122509642D02*
X124686785Y-122509642D01*
X124958928Y-122691071D01*
X125140357Y-122872500D01*
X125231071Y-123053928D01*
X126591785Y-121058214D02*
X126591785Y-120695357D01*
X126501071Y-120513928D01*
X126410357Y-120423214D01*
X126138214Y-120241785D01*
X125775357Y-120151071D01*
X125049642Y-120151071D01*
X124868214Y-120241785D01*
X124777500Y-120332500D01*
X124686785Y-120513928D01*
X124686785Y-120876785D01*
X124777500Y-121058214D01*
X124868214Y-121148928D01*
X125049642Y-121239642D01*
X125503214Y-121239642D01*
X125684642Y-121148928D01*
X125775357Y-121058214D01*
X125866071Y-120876785D01*
X125866071Y-120513928D01*
X125775357Y-120332500D01*
X125684642Y-120241785D01*
X125503214Y-120151071D01*
X126304523Y-117747142D02*
X126304523Y-118472857D01*
X126304523Y-118110000D02*
X125034523Y-118110000D01*
X125215952Y-118230952D01*
X125336904Y-118351904D01*
X125397380Y-118472857D01*
X126304523Y-117202857D02*
X125034523Y-117202857D01*
X125941666Y-116779523D01*
X125034523Y-116356190D01*
X126304523Y-116356190D01*
X126304523Y-114118571D02*
X126304523Y-114844285D01*
X126304523Y-114481428D02*
X125034523Y-114481428D01*
X125215952Y-114602380D01*
X125336904Y-114723333D01*
X125397380Y-114844285D01*
X124974047Y-112667142D02*
X126606904Y-113755714D01*
X125155476Y-112304285D02*
X125095000Y-112243809D01*
X125034523Y-112122857D01*
X125034523Y-111820476D01*
X125095000Y-111699523D01*
X125155476Y-111639047D01*
X125276428Y-111578571D01*
X125397380Y-111578571D01*
X125578809Y-111639047D01*
X126304523Y-112364761D01*
X126304523Y-111578571D01*
X125034523Y-111155238D02*
X126304523Y-110852857D01*
X125397380Y-110610952D01*
X126304523Y-110369047D01*
X125034523Y-110066666D01*
%TO.C,J2*%
X46990000Y-82776785D02*
X46990000Y-84137500D01*
X46899285Y-84409642D01*
X46717857Y-84591071D01*
X46445714Y-84681785D01*
X46264285Y-84681785D01*
X47806428Y-82958214D02*
X47897142Y-82867500D01*
X48078571Y-82776785D01*
X48532142Y-82776785D01*
X48713571Y-82867500D01*
X48804285Y-82958214D01*
X48895000Y-83139642D01*
X48895000Y-83321071D01*
X48804285Y-83593214D01*
X47715714Y-84681785D01*
X48895000Y-84681785D01*
%TO.C,R2*%
X69441785Y-121602500D02*
X68534642Y-122237500D01*
X69441785Y-122691071D02*
X67536785Y-122691071D01*
X67536785Y-121965357D01*
X67627500Y-121783928D01*
X67718214Y-121693214D01*
X67899642Y-121602500D01*
X68171785Y-121602500D01*
X68353214Y-121693214D01*
X68443928Y-121783928D01*
X68534642Y-121965357D01*
X68534642Y-122691071D01*
X67718214Y-120876785D02*
X67627500Y-120786071D01*
X67536785Y-120604642D01*
X67536785Y-120151071D01*
X67627500Y-119969642D01*
X67718214Y-119878928D01*
X67899642Y-119788214D01*
X68081071Y-119788214D01*
X68353214Y-119878928D01*
X69441785Y-120967500D01*
X69441785Y-119788214D01*
X69154523Y-116477142D02*
X69154523Y-117202857D01*
X69154523Y-116840000D02*
X67884523Y-116840000D01*
X68065952Y-116960952D01*
X68186904Y-117081904D01*
X68247380Y-117202857D01*
X69154523Y-115932857D02*
X67884523Y-115932857D01*
X68791666Y-115509523D01*
X67884523Y-115086190D01*
X69154523Y-115086190D01*
X69154523Y-112848571D02*
X69154523Y-113574285D01*
X69154523Y-113211428D02*
X67884523Y-113211428D01*
X68065952Y-113332380D01*
X68186904Y-113453333D01*
X68247380Y-113574285D01*
X67824047Y-111397142D02*
X69456904Y-112485714D01*
X68005476Y-111034285D02*
X67945000Y-110973809D01*
X67884523Y-110852857D01*
X67884523Y-110550476D01*
X67945000Y-110429523D01*
X68005476Y-110369047D01*
X68126428Y-110308571D01*
X68247380Y-110308571D01*
X68428809Y-110369047D01*
X69154523Y-111094761D01*
X69154523Y-110308571D01*
X67884523Y-109885238D02*
X69154523Y-109582857D01*
X68247380Y-109340952D01*
X69154523Y-109099047D01*
X67884523Y-108796666D01*
%TO.C,R11*%
X151991785Y-65994642D02*
X151084642Y-66629642D01*
X151991785Y-67083214D02*
X150086785Y-67083214D01*
X150086785Y-66357500D01*
X150177500Y-66176071D01*
X150268214Y-66085357D01*
X150449642Y-65994642D01*
X150721785Y-65994642D01*
X150903214Y-66085357D01*
X150993928Y-66176071D01*
X151084642Y-66357500D01*
X151084642Y-67083214D01*
X151991785Y-64180357D02*
X151991785Y-65268928D01*
X151991785Y-64724642D02*
X150086785Y-64724642D01*
X150358928Y-64906071D01*
X150540357Y-65087500D01*
X150631071Y-65268928D01*
X151991785Y-62366071D02*
X151991785Y-63454642D01*
X151991785Y-62910357D02*
X150086785Y-62910357D01*
X150358928Y-63091785D01*
X150540357Y-63273214D01*
X150631071Y-63454642D01*
X151704523Y-57180238D02*
X151704523Y-57905952D01*
X151704523Y-57543095D02*
X150434523Y-57543095D01*
X150615952Y-57664047D01*
X150736904Y-57785000D01*
X150797380Y-57905952D01*
X150434523Y-56394047D02*
X150434523Y-56273095D01*
X150495000Y-56152142D01*
X150555476Y-56091666D01*
X150676428Y-56031190D01*
X150918333Y-55970714D01*
X151220714Y-55970714D01*
X151462619Y-56031190D01*
X151583571Y-56091666D01*
X151644047Y-56152142D01*
X151704523Y-56273095D01*
X151704523Y-56394047D01*
X151644047Y-56515000D01*
X151583571Y-56575476D01*
X151462619Y-56635952D01*
X151220714Y-56696428D01*
X150918333Y-56696428D01*
X150676428Y-56635952D01*
X150555476Y-56575476D01*
X150495000Y-56515000D01*
X150434523Y-56394047D01*
X151704523Y-55426428D02*
X150434523Y-55426428D01*
X151220714Y-55305476D02*
X151704523Y-54942619D01*
X150857857Y-54942619D02*
X151341666Y-55426428D01*
X150434523Y-52825952D02*
X150434523Y-53430714D01*
X151039285Y-53491190D01*
X150978809Y-53430714D01*
X150918333Y-53309761D01*
X150918333Y-53007380D01*
X150978809Y-52886428D01*
X151039285Y-52825952D01*
X151160238Y-52765476D01*
X151462619Y-52765476D01*
X151583571Y-52825952D01*
X151644047Y-52886428D01*
X151704523Y-53007380D01*
X151704523Y-53309761D01*
X151644047Y-53430714D01*
X151583571Y-53491190D01*
X150434523Y-52342142D02*
X151704523Y-52039761D01*
X150797380Y-51797857D01*
X151704523Y-51555952D01*
X150434523Y-51253571D01*
%TO.C,J4*%
X217805000Y-66476785D02*
X217805000Y-67837500D01*
X217714285Y-68109642D01*
X217532857Y-68291071D01*
X217260714Y-68381785D01*
X217079285Y-68381785D01*
X219528571Y-67111785D02*
X219528571Y-68381785D01*
X219075000Y-66386071D02*
X218621428Y-67746785D01*
X219800714Y-67746785D01*
%TO.C,C9*%
X114345357Y-120332500D02*
X114436071Y-120423214D01*
X114526785Y-120695357D01*
X114526785Y-120876785D01*
X114436071Y-121148928D01*
X114254642Y-121330357D01*
X114073214Y-121421071D01*
X113710357Y-121511785D01*
X113438214Y-121511785D01*
X113075357Y-121421071D01*
X112893928Y-121330357D01*
X112712500Y-121148928D01*
X112621785Y-120876785D01*
X112621785Y-120695357D01*
X112712500Y-120423214D01*
X112803214Y-120332500D01*
X114526785Y-119425357D02*
X114526785Y-119062500D01*
X114436071Y-118881071D01*
X114345357Y-118790357D01*
X114073214Y-118608928D01*
X113710357Y-118518214D01*
X112984642Y-118518214D01*
X112803214Y-118608928D01*
X112712500Y-118699642D01*
X112621785Y-118881071D01*
X112621785Y-119243928D01*
X112712500Y-119425357D01*
X112803214Y-119516071D01*
X112984642Y-119606785D01*
X113438214Y-119606785D01*
X113619642Y-119516071D01*
X113710357Y-119425357D01*
X113801071Y-119243928D01*
X113801071Y-118881071D01*
X113710357Y-118699642D01*
X113619642Y-118608928D01*
X113438214Y-118518214D01*
X112969523Y-115751428D02*
X112969523Y-115630476D01*
X113030000Y-115509523D01*
X113090476Y-115449047D01*
X113211428Y-115388571D01*
X113453333Y-115328095D01*
X113755714Y-115328095D01*
X113997619Y-115388571D01*
X114118571Y-115449047D01*
X114179047Y-115509523D01*
X114239523Y-115630476D01*
X114239523Y-115751428D01*
X114179047Y-115872380D01*
X114118571Y-115932857D01*
X113997619Y-115993333D01*
X113755714Y-116053809D01*
X113453333Y-116053809D01*
X113211428Y-115993333D01*
X113090476Y-115932857D01*
X113030000Y-115872380D01*
X112969523Y-115751428D01*
X114118571Y-114783809D02*
X114179047Y-114723333D01*
X114239523Y-114783809D01*
X114179047Y-114844285D01*
X114118571Y-114783809D01*
X114239523Y-114783809D01*
X114239523Y-113513809D02*
X114239523Y-114239523D01*
X114239523Y-113876666D02*
X112969523Y-113876666D01*
X113150952Y-113997619D01*
X113271904Y-114118571D01*
X113332380Y-114239523D01*
X113392857Y-112425238D02*
X114239523Y-112425238D01*
X113392857Y-112969523D02*
X114058095Y-112969523D01*
X114179047Y-112909047D01*
X114239523Y-112788095D01*
X114239523Y-112606666D01*
X114179047Y-112485714D01*
X114118571Y-112425238D01*
X113574285Y-111397142D02*
X113574285Y-111820476D01*
X114239523Y-111820476D02*
X112969523Y-111820476D01*
X112969523Y-111215714D01*
%TO.C,R7*%
X156436785Y-120967500D02*
X155529642Y-121602500D01*
X156436785Y-122056071D02*
X154531785Y-122056071D01*
X154531785Y-121330357D01*
X154622500Y-121148928D01*
X154713214Y-121058214D01*
X154894642Y-120967500D01*
X155166785Y-120967500D01*
X155348214Y-121058214D01*
X155438928Y-121148928D01*
X155529642Y-121330357D01*
X155529642Y-122056071D01*
X154531785Y-120332500D02*
X154531785Y-119062500D01*
X156436785Y-119878928D01*
X156149523Y-117112142D02*
X156149523Y-117837857D01*
X156149523Y-117475000D02*
X154879523Y-117475000D01*
X155060952Y-117595952D01*
X155181904Y-117716904D01*
X155242380Y-117837857D01*
X156149523Y-116567857D02*
X154879523Y-116567857D01*
X155786666Y-116144523D01*
X154879523Y-115721190D01*
X156149523Y-115721190D01*
X156149523Y-113483571D02*
X156149523Y-114209285D01*
X156149523Y-113846428D02*
X154879523Y-113846428D01*
X155060952Y-113967380D01*
X155181904Y-114088333D01*
X155242380Y-114209285D01*
X154819047Y-112032142D02*
X156451904Y-113120714D01*
X155000476Y-111669285D02*
X154940000Y-111608809D01*
X154879523Y-111487857D01*
X154879523Y-111185476D01*
X154940000Y-111064523D01*
X155000476Y-111004047D01*
X155121428Y-110943571D01*
X155242380Y-110943571D01*
X155423809Y-111004047D01*
X156149523Y-111729761D01*
X156149523Y-110943571D01*
X154879523Y-110520238D02*
X156149523Y-110217857D01*
X155242380Y-109975952D01*
X156149523Y-109734047D01*
X154879523Y-109431666D01*
%TO.C,R12*%
X198981785Y-65994642D02*
X198074642Y-66629642D01*
X198981785Y-67083214D02*
X197076785Y-67083214D01*
X197076785Y-66357500D01*
X197167500Y-66176071D01*
X197258214Y-66085357D01*
X197439642Y-65994642D01*
X197711785Y-65994642D01*
X197893214Y-66085357D01*
X197983928Y-66176071D01*
X198074642Y-66357500D01*
X198074642Y-67083214D01*
X198981785Y-64180357D02*
X198981785Y-65268928D01*
X198981785Y-64724642D02*
X197076785Y-64724642D01*
X197348928Y-64906071D01*
X197530357Y-65087500D01*
X197621071Y-65268928D01*
X197258214Y-63454642D02*
X197167500Y-63363928D01*
X197076785Y-63182500D01*
X197076785Y-62728928D01*
X197167500Y-62547500D01*
X197258214Y-62456785D01*
X197439642Y-62366071D01*
X197621071Y-62366071D01*
X197893214Y-62456785D01*
X198981785Y-63545357D01*
X198981785Y-62366071D01*
X199329523Y-57180238D02*
X199329523Y-57905952D01*
X199329523Y-57543095D02*
X198059523Y-57543095D01*
X198240952Y-57664047D01*
X198361904Y-57785000D01*
X198422380Y-57905952D01*
X198059523Y-56394047D02*
X198059523Y-56273095D01*
X198120000Y-56152142D01*
X198180476Y-56091666D01*
X198301428Y-56031190D01*
X198543333Y-55970714D01*
X198845714Y-55970714D01*
X199087619Y-56031190D01*
X199208571Y-56091666D01*
X199269047Y-56152142D01*
X199329523Y-56273095D01*
X199329523Y-56394047D01*
X199269047Y-56515000D01*
X199208571Y-56575476D01*
X199087619Y-56635952D01*
X198845714Y-56696428D01*
X198543333Y-56696428D01*
X198301428Y-56635952D01*
X198180476Y-56575476D01*
X198120000Y-56515000D01*
X198059523Y-56394047D01*
X199329523Y-55426428D02*
X198059523Y-55426428D01*
X198845714Y-55305476D02*
X199329523Y-54942619D01*
X198482857Y-54942619D02*
X198966666Y-55426428D01*
X198059523Y-52825952D02*
X198059523Y-53430714D01*
X198664285Y-53491190D01*
X198603809Y-53430714D01*
X198543333Y-53309761D01*
X198543333Y-53007380D01*
X198603809Y-52886428D01*
X198664285Y-52825952D01*
X198785238Y-52765476D01*
X199087619Y-52765476D01*
X199208571Y-52825952D01*
X199269047Y-52886428D01*
X199329523Y-53007380D01*
X199329523Y-53309761D01*
X199269047Y-53430714D01*
X199208571Y-53491190D01*
X198059523Y-52342142D02*
X199329523Y-52039761D01*
X198422380Y-51797857D01*
X199329523Y-51555952D01*
X198059523Y-51253571D01*
%TO.C,R18*%
X218031785Y-123779642D02*
X217124642Y-124414642D01*
X218031785Y-124868214D02*
X216126785Y-124868214D01*
X216126785Y-124142500D01*
X216217500Y-123961071D01*
X216308214Y-123870357D01*
X216489642Y-123779642D01*
X216761785Y-123779642D01*
X216943214Y-123870357D01*
X217033928Y-123961071D01*
X217124642Y-124142500D01*
X217124642Y-124868214D01*
X218031785Y-121965357D02*
X218031785Y-123053928D01*
X218031785Y-122509642D02*
X216126785Y-122509642D01*
X216398928Y-122691071D01*
X216580357Y-122872500D01*
X216671071Y-123053928D01*
X216943214Y-120876785D02*
X216852500Y-121058214D01*
X216761785Y-121148928D01*
X216580357Y-121239642D01*
X216489642Y-121239642D01*
X216308214Y-121148928D01*
X216217500Y-121058214D01*
X216126785Y-120876785D01*
X216126785Y-120513928D01*
X216217500Y-120332500D01*
X216308214Y-120241785D01*
X216489642Y-120151071D01*
X216580357Y-120151071D01*
X216761785Y-120241785D01*
X216852500Y-120332500D01*
X216943214Y-120513928D01*
X216943214Y-120876785D01*
X217033928Y-121058214D01*
X217124642Y-121148928D01*
X217306071Y-121239642D01*
X217668928Y-121239642D01*
X217850357Y-121148928D01*
X217941071Y-121058214D01*
X218031785Y-120876785D01*
X218031785Y-120513928D01*
X217941071Y-120332500D01*
X217850357Y-120241785D01*
X217668928Y-120151071D01*
X217306071Y-120151071D01*
X217124642Y-120241785D01*
X217033928Y-120332500D01*
X216943214Y-120513928D01*
X217744523Y-117475000D02*
X217744523Y-118200714D01*
X217744523Y-117837857D02*
X216474523Y-117837857D01*
X216655952Y-117958809D01*
X216776904Y-118079761D01*
X216837380Y-118200714D01*
X216595476Y-116991190D02*
X216535000Y-116930714D01*
X216474523Y-116809761D01*
X216474523Y-116507380D01*
X216535000Y-116386428D01*
X216595476Y-116325952D01*
X216716428Y-116265476D01*
X216837380Y-116265476D01*
X217018809Y-116325952D01*
X217744523Y-117051666D01*
X217744523Y-116265476D01*
X216474523Y-115479285D02*
X216474523Y-115358333D01*
X216535000Y-115237380D01*
X216595476Y-115176904D01*
X216716428Y-115116428D01*
X216958333Y-115055952D01*
X217260714Y-115055952D01*
X217502619Y-115116428D01*
X217623571Y-115176904D01*
X217684047Y-115237380D01*
X217744523Y-115358333D01*
X217744523Y-115479285D01*
X217684047Y-115600238D01*
X217623571Y-115660714D01*
X217502619Y-115721190D01*
X217260714Y-115781666D01*
X216958333Y-115781666D01*
X216716428Y-115721190D01*
X216595476Y-115660714D01*
X216535000Y-115600238D01*
X216474523Y-115479285D01*
X217744523Y-114511666D02*
X216474523Y-114511666D01*
X217260714Y-114390714D02*
X217744523Y-114027857D01*
X216897857Y-114027857D02*
X217381666Y-114511666D01*
X216595476Y-112576428D02*
X216535000Y-112515952D01*
X216474523Y-112395000D01*
X216474523Y-112092619D01*
X216535000Y-111971666D01*
X216595476Y-111911190D01*
X216716428Y-111850714D01*
X216837380Y-111850714D01*
X217018809Y-111911190D01*
X217744523Y-112636904D01*
X217744523Y-111850714D01*
X216474523Y-111427380D02*
X217744523Y-111125000D01*
X216837380Y-110883095D01*
X217744523Y-110641190D01*
X216474523Y-110338809D01*
%TO.C,C4*%
X74340357Y-140017500D02*
X74431071Y-140108214D01*
X74521785Y-140380357D01*
X74521785Y-140561785D01*
X74431071Y-140833928D01*
X74249642Y-141015357D01*
X74068214Y-141106071D01*
X73705357Y-141196785D01*
X73433214Y-141196785D01*
X73070357Y-141106071D01*
X72888928Y-141015357D01*
X72707500Y-140833928D01*
X72616785Y-140561785D01*
X72616785Y-140380357D01*
X72707500Y-140108214D01*
X72798214Y-140017500D01*
X73251785Y-138384642D02*
X74521785Y-138384642D01*
X72526071Y-138838214D02*
X73886785Y-139291785D01*
X73886785Y-138112500D01*
X72964523Y-136010952D02*
X72964523Y-135890000D01*
X73025000Y-135769047D01*
X73085476Y-135708571D01*
X73206428Y-135648095D01*
X73448333Y-135587619D01*
X73750714Y-135587619D01*
X73992619Y-135648095D01*
X74113571Y-135708571D01*
X74174047Y-135769047D01*
X74234523Y-135890000D01*
X74234523Y-136010952D01*
X74174047Y-136131904D01*
X74113571Y-136192380D01*
X73992619Y-136252857D01*
X73750714Y-136313333D01*
X73448333Y-136313333D01*
X73206428Y-136252857D01*
X73085476Y-136192380D01*
X73025000Y-136131904D01*
X72964523Y-136010952D01*
X74113571Y-135043333D02*
X74174047Y-134982857D01*
X74234523Y-135043333D01*
X74174047Y-135103809D01*
X74113571Y-135043333D01*
X74234523Y-135043333D01*
X72964523Y-134196666D02*
X72964523Y-134075714D01*
X73025000Y-133954761D01*
X73085476Y-133894285D01*
X73206428Y-133833809D01*
X73448333Y-133773333D01*
X73750714Y-133773333D01*
X73992619Y-133833809D01*
X74113571Y-133894285D01*
X74174047Y-133954761D01*
X74234523Y-134075714D01*
X74234523Y-134196666D01*
X74174047Y-134317619D01*
X74113571Y-134378095D01*
X73992619Y-134438571D01*
X73750714Y-134499047D01*
X73448333Y-134499047D01*
X73206428Y-134438571D01*
X73085476Y-134378095D01*
X73025000Y-134317619D01*
X72964523Y-134196666D01*
X73085476Y-133289523D02*
X73025000Y-133229047D01*
X72964523Y-133108095D01*
X72964523Y-132805714D01*
X73025000Y-132684761D01*
X73085476Y-132624285D01*
X73206428Y-132563809D01*
X73327380Y-132563809D01*
X73508809Y-132624285D01*
X74234523Y-133350000D01*
X74234523Y-132563809D01*
X72964523Y-131414761D02*
X72964523Y-132019523D01*
X73569285Y-132080000D01*
X73508809Y-132019523D01*
X73448333Y-131898571D01*
X73448333Y-131596190D01*
X73508809Y-131475238D01*
X73569285Y-131414761D01*
X73690238Y-131354285D01*
X73992619Y-131354285D01*
X74113571Y-131414761D01*
X74174047Y-131475238D01*
X74234523Y-131596190D01*
X74234523Y-131898571D01*
X74174047Y-132019523D01*
X74113571Y-132080000D01*
X73387857Y-130265714D02*
X74234523Y-130265714D01*
X73387857Y-130810000D02*
X74053095Y-130810000D01*
X74174047Y-130749523D01*
X74234523Y-130628571D01*
X74234523Y-130447142D01*
X74174047Y-130326190D01*
X74113571Y-130265714D01*
X73569285Y-129237619D02*
X73569285Y-129660952D01*
X74234523Y-129660952D02*
X72964523Y-129660952D01*
X72964523Y-129056190D01*
%TO.C,R17*%
X165961785Y-123779642D02*
X165054642Y-124414642D01*
X165961785Y-124868214D02*
X164056785Y-124868214D01*
X164056785Y-124142500D01*
X164147500Y-123961071D01*
X164238214Y-123870357D01*
X164419642Y-123779642D01*
X164691785Y-123779642D01*
X164873214Y-123870357D01*
X164963928Y-123961071D01*
X165054642Y-124142500D01*
X165054642Y-124868214D01*
X165961785Y-121965357D02*
X165961785Y-123053928D01*
X165961785Y-122509642D02*
X164056785Y-122509642D01*
X164328928Y-122691071D01*
X164510357Y-122872500D01*
X164601071Y-123053928D01*
X164056785Y-121330357D02*
X164056785Y-120060357D01*
X165961785Y-120876785D01*
X165674523Y-117975000D02*
X165674523Y-118700714D01*
X165674523Y-118337857D02*
X164404523Y-118337857D01*
X164585952Y-118458809D01*
X164706904Y-118579761D01*
X164767380Y-118700714D01*
X164525476Y-117491190D02*
X164465000Y-117430714D01*
X164404523Y-117309761D01*
X164404523Y-117007380D01*
X164465000Y-116886428D01*
X164525476Y-116825952D01*
X164646428Y-116765476D01*
X164767380Y-116765476D01*
X164948809Y-116825952D01*
X165674523Y-117551666D01*
X165674523Y-116765476D01*
X164404523Y-115979285D02*
X164404523Y-115858333D01*
X164465000Y-115737380D01*
X164525476Y-115676904D01*
X164646428Y-115616428D01*
X164888333Y-115555952D01*
X165190714Y-115555952D01*
X165432619Y-115616428D01*
X165553571Y-115676904D01*
X165614047Y-115737380D01*
X165674523Y-115858333D01*
X165674523Y-115979285D01*
X165614047Y-116100238D01*
X165553571Y-116160714D01*
X165432619Y-116221190D01*
X165190714Y-116281666D01*
X164888333Y-116281666D01*
X164646428Y-116221190D01*
X164525476Y-116160714D01*
X164465000Y-116100238D01*
X164404523Y-115979285D01*
X165674523Y-115011666D02*
X164404523Y-115011666D01*
X165190714Y-114890714D02*
X165674523Y-114527857D01*
X164827857Y-114527857D02*
X165311666Y-115011666D01*
X164525476Y-113076428D02*
X164465000Y-113015952D01*
X164404523Y-112895000D01*
X164404523Y-112592619D01*
X164465000Y-112471666D01*
X164525476Y-112411190D01*
X164646428Y-112350714D01*
X164767380Y-112350714D01*
X164948809Y-112411190D01*
X165674523Y-113136904D01*
X165674523Y-112350714D01*
X164404523Y-111927380D02*
X165674523Y-111625000D01*
X164767380Y-111383095D01*
X165674523Y-111141190D01*
X164404523Y-110838809D01*
%TO.C,R9*%
X207871785Y-120332500D02*
X206964642Y-120967500D01*
X207871785Y-121421071D02*
X205966785Y-121421071D01*
X205966785Y-120695357D01*
X206057500Y-120513928D01*
X206148214Y-120423214D01*
X206329642Y-120332500D01*
X206601785Y-120332500D01*
X206783214Y-120423214D01*
X206873928Y-120513928D01*
X206964642Y-120695357D01*
X206964642Y-121421071D01*
X207871785Y-119425357D02*
X207871785Y-119062500D01*
X207781071Y-118881071D01*
X207690357Y-118790357D01*
X207418214Y-118608928D01*
X207055357Y-118518214D01*
X206329642Y-118518214D01*
X206148214Y-118608928D01*
X206057500Y-118699642D01*
X205966785Y-118881071D01*
X205966785Y-119243928D01*
X206057500Y-119425357D01*
X206148214Y-119516071D01*
X206329642Y-119606785D01*
X206783214Y-119606785D01*
X206964642Y-119516071D01*
X207055357Y-119425357D01*
X207146071Y-119243928D01*
X207146071Y-118881071D01*
X207055357Y-118699642D01*
X206964642Y-118608928D01*
X206783214Y-118518214D01*
X207584523Y-115207142D02*
X207584523Y-115932857D01*
X207584523Y-115570000D02*
X206314523Y-115570000D01*
X206495952Y-115690952D01*
X206616904Y-115811904D01*
X206677380Y-115932857D01*
X207584523Y-114662857D02*
X206314523Y-114662857D01*
X207221666Y-114239523D01*
X206314523Y-113816190D01*
X207584523Y-113816190D01*
X207584523Y-111578571D02*
X207584523Y-112304285D01*
X207584523Y-111941428D02*
X206314523Y-111941428D01*
X206495952Y-112062380D01*
X206616904Y-112183333D01*
X206677380Y-112304285D01*
X206254047Y-110127142D02*
X207886904Y-111215714D01*
X206435476Y-109764285D02*
X206375000Y-109703809D01*
X206314523Y-109582857D01*
X206314523Y-109280476D01*
X206375000Y-109159523D01*
X206435476Y-109099047D01*
X206556428Y-109038571D01*
X206677380Y-109038571D01*
X206858809Y-109099047D01*
X207584523Y-109824761D01*
X207584523Y-109038571D01*
X206314523Y-108615238D02*
X207584523Y-108312857D01*
X206677380Y-108070952D01*
X207584523Y-107829047D01*
X206314523Y-107526666D01*
%TO.C,R3*%
X92936785Y-140017500D02*
X92029642Y-140652500D01*
X92936785Y-141106071D02*
X91031785Y-141106071D01*
X91031785Y-140380357D01*
X91122500Y-140198928D01*
X91213214Y-140108214D01*
X91394642Y-140017500D01*
X91666785Y-140017500D01*
X91848214Y-140108214D01*
X91938928Y-140198928D01*
X92029642Y-140380357D01*
X92029642Y-141106071D01*
X91031785Y-139382500D02*
X91031785Y-138203214D01*
X91757500Y-138838214D01*
X91757500Y-138566071D01*
X91848214Y-138384642D01*
X91938928Y-138293928D01*
X92120357Y-138203214D01*
X92573928Y-138203214D01*
X92755357Y-138293928D01*
X92846071Y-138384642D01*
X92936785Y-138566071D01*
X92936785Y-139110357D01*
X92846071Y-139291785D01*
X92755357Y-139382500D01*
X91500476Y-136101666D02*
X91440000Y-136041190D01*
X91379523Y-135920238D01*
X91379523Y-135617857D01*
X91440000Y-135496904D01*
X91500476Y-135436428D01*
X91621428Y-135375952D01*
X91742380Y-135375952D01*
X91923809Y-135436428D01*
X92649523Y-136162142D01*
X92649523Y-135375952D01*
X91500476Y-134892142D02*
X91440000Y-134831666D01*
X91379523Y-134710714D01*
X91379523Y-134408333D01*
X91440000Y-134287380D01*
X91500476Y-134226904D01*
X91621428Y-134166428D01*
X91742380Y-134166428D01*
X91923809Y-134226904D01*
X92649523Y-134952619D01*
X92649523Y-134166428D01*
X91379523Y-133380238D02*
X91379523Y-133259285D01*
X91440000Y-133138333D01*
X91500476Y-133077857D01*
X91621428Y-133017380D01*
X91863333Y-132956904D01*
X92165714Y-132956904D01*
X92407619Y-133017380D01*
X92528571Y-133077857D01*
X92589047Y-133138333D01*
X92649523Y-133259285D01*
X92649523Y-133380238D01*
X92589047Y-133501190D01*
X92528571Y-133561666D01*
X92407619Y-133622142D01*
X92165714Y-133682619D01*
X91863333Y-133682619D01*
X91621428Y-133622142D01*
X91500476Y-133561666D01*
X91440000Y-133501190D01*
X91379523Y-133380238D01*
X92649523Y-130779761D02*
X92649523Y-131505476D01*
X92649523Y-131142619D02*
X91379523Y-131142619D01*
X91560952Y-131263571D01*
X91681904Y-131384523D01*
X91742380Y-131505476D01*
X91319047Y-129328333D02*
X92951904Y-130416904D01*
X91500476Y-128965476D02*
X91440000Y-128905000D01*
X91379523Y-128784047D01*
X91379523Y-128481666D01*
X91440000Y-128360714D01*
X91500476Y-128300238D01*
X91621428Y-128239761D01*
X91742380Y-128239761D01*
X91923809Y-128300238D01*
X92649523Y-129025952D01*
X92649523Y-128239761D01*
X91379523Y-127816428D02*
X92649523Y-127514047D01*
X91742380Y-127272142D01*
X92649523Y-127030238D01*
X91379523Y-126727857D01*
%TO.C,R21*%
X178661785Y-122509642D02*
X177754642Y-123144642D01*
X178661785Y-123598214D02*
X176756785Y-123598214D01*
X176756785Y-122872500D01*
X176847500Y-122691071D01*
X176938214Y-122600357D01*
X177119642Y-122509642D01*
X177391785Y-122509642D01*
X177573214Y-122600357D01*
X177663928Y-122691071D01*
X177754642Y-122872500D01*
X177754642Y-123598214D01*
X176938214Y-121783928D02*
X176847500Y-121693214D01*
X176756785Y-121511785D01*
X176756785Y-121058214D01*
X176847500Y-120876785D01*
X176938214Y-120786071D01*
X177119642Y-120695357D01*
X177301071Y-120695357D01*
X177573214Y-120786071D01*
X178661785Y-121874642D01*
X178661785Y-120695357D01*
X178661785Y-118881071D02*
X178661785Y-119969642D01*
X178661785Y-119425357D02*
X176756785Y-119425357D01*
X177028928Y-119606785D01*
X177210357Y-119788214D01*
X177301071Y-119969642D01*
X178374523Y-116477142D02*
X178374523Y-117202857D01*
X178374523Y-116840000D02*
X177104523Y-116840000D01*
X177285952Y-116960952D01*
X177406904Y-117081904D01*
X177467380Y-117202857D01*
X178374523Y-115932857D02*
X177104523Y-115932857D01*
X178011666Y-115509523D01*
X177104523Y-115086190D01*
X178374523Y-115086190D01*
X178374523Y-112848571D02*
X178374523Y-113574285D01*
X178374523Y-113211428D02*
X177104523Y-113211428D01*
X177285952Y-113332380D01*
X177406904Y-113453333D01*
X177467380Y-113574285D01*
X177044047Y-111397142D02*
X178676904Y-112485714D01*
X177225476Y-111034285D02*
X177165000Y-110973809D01*
X177104523Y-110852857D01*
X177104523Y-110550476D01*
X177165000Y-110429523D01*
X177225476Y-110369047D01*
X177346428Y-110308571D01*
X177467380Y-110308571D01*
X177648809Y-110369047D01*
X178374523Y-111094761D01*
X178374523Y-110308571D01*
X177104523Y-109885238D02*
X178374523Y-109582857D01*
X177467380Y-109340952D01*
X178374523Y-109099047D01*
X177104523Y-108796666D01*
%TO.C,J3*%
X46990000Y-98016785D02*
X46990000Y-99377500D01*
X46899285Y-99649642D01*
X46717857Y-99831071D01*
X46445714Y-99921785D01*
X46264285Y-99921785D01*
X47715714Y-98016785D02*
X48895000Y-98016785D01*
X48260000Y-98742500D01*
X48532142Y-98742500D01*
X48713571Y-98833214D01*
X48804285Y-98923928D01*
X48895000Y-99105357D01*
X48895000Y-99558928D01*
X48804285Y-99740357D01*
X48713571Y-99831071D01*
X48532142Y-99921785D01*
X47987857Y-99921785D01*
X47806428Y-99831071D01*
X47715714Y-99740357D01*
%TO.C,RV1*%
X132851071Y-134846785D02*
X132216071Y-133939642D01*
X131762500Y-134846785D02*
X131762500Y-132941785D01*
X132488214Y-132941785D01*
X132669642Y-133032500D01*
X132760357Y-133123214D01*
X132851071Y-133304642D01*
X132851071Y-133576785D01*
X132760357Y-133758214D01*
X132669642Y-133848928D01*
X132488214Y-133939642D01*
X131762500Y-133939642D01*
X133395357Y-132941785D02*
X134030357Y-134846785D01*
X134665357Y-132941785D01*
X136298214Y-134846785D02*
X135209642Y-134846785D01*
X135753928Y-134846785D02*
X135753928Y-132941785D01*
X135572500Y-133213928D01*
X135391071Y-133395357D01*
X135209642Y-133486071D01*
X140758333Y-133410476D02*
X140818809Y-133350000D01*
X140939761Y-133289523D01*
X141242142Y-133289523D01*
X141363095Y-133350000D01*
X141423571Y-133410476D01*
X141484047Y-133531428D01*
X141484047Y-133652380D01*
X141423571Y-133833809D01*
X140697857Y-134559523D01*
X141484047Y-134559523D01*
X142633095Y-133289523D02*
X142028333Y-133289523D01*
X141967857Y-133894285D01*
X142028333Y-133833809D01*
X142149285Y-133773333D01*
X142451666Y-133773333D01*
X142572619Y-133833809D01*
X142633095Y-133894285D01*
X142693571Y-134015238D01*
X142693571Y-134317619D01*
X142633095Y-134438571D01*
X142572619Y-134499047D01*
X142451666Y-134559523D01*
X142149285Y-134559523D01*
X142028333Y-134499047D01*
X141967857Y-134438571D01*
X143237857Y-134559523D02*
X143237857Y-133289523D01*
X143358809Y-134075714D02*
X143721666Y-134559523D01*
X143721666Y-133712857D02*
X143237857Y-134196666D01*
%TO.C,C7*%
X144825357Y-120332500D02*
X144916071Y-120423214D01*
X145006785Y-120695357D01*
X145006785Y-120876785D01*
X144916071Y-121148928D01*
X144734642Y-121330357D01*
X144553214Y-121421071D01*
X144190357Y-121511785D01*
X143918214Y-121511785D01*
X143555357Y-121421071D01*
X143373928Y-121330357D01*
X143192500Y-121148928D01*
X143101785Y-120876785D01*
X143101785Y-120695357D01*
X143192500Y-120423214D01*
X143283214Y-120332500D01*
X143101785Y-119697500D02*
X143101785Y-118427500D01*
X145006785Y-119243928D01*
X143570476Y-115721190D02*
X143510000Y-115660714D01*
X143449523Y-115539761D01*
X143449523Y-115237380D01*
X143510000Y-115116428D01*
X143570476Y-115055952D01*
X143691428Y-114995476D01*
X143812380Y-114995476D01*
X143993809Y-115055952D01*
X144719523Y-115781666D01*
X144719523Y-114995476D01*
X143570476Y-114511666D02*
X143510000Y-114451190D01*
X143449523Y-114330238D01*
X143449523Y-114027857D01*
X143510000Y-113906904D01*
X143570476Y-113846428D01*
X143691428Y-113785952D01*
X143812380Y-113785952D01*
X143993809Y-113846428D01*
X144719523Y-114572142D01*
X144719523Y-113785952D01*
X143449523Y-112999761D02*
X143449523Y-112878809D01*
X143510000Y-112757857D01*
X143570476Y-112697380D01*
X143691428Y-112636904D01*
X143933333Y-112576428D01*
X144235714Y-112576428D01*
X144477619Y-112636904D01*
X144598571Y-112697380D01*
X144659047Y-112757857D01*
X144719523Y-112878809D01*
X144719523Y-112999761D01*
X144659047Y-113120714D01*
X144598571Y-113181190D01*
X144477619Y-113241666D01*
X144235714Y-113302142D01*
X143933333Y-113302142D01*
X143691428Y-113241666D01*
X143570476Y-113181190D01*
X143510000Y-113120714D01*
X143449523Y-112999761D01*
X143872857Y-112032142D02*
X145142857Y-112032142D01*
X143933333Y-112032142D02*
X143872857Y-111911190D01*
X143872857Y-111669285D01*
X143933333Y-111548333D01*
X143993809Y-111487857D01*
X144114761Y-111427380D01*
X144477619Y-111427380D01*
X144598571Y-111487857D01*
X144659047Y-111548333D01*
X144719523Y-111669285D01*
X144719523Y-111911190D01*
X144659047Y-112032142D01*
X144054285Y-110459761D02*
X144054285Y-110883095D01*
X144719523Y-110883095D02*
X143449523Y-110883095D01*
X143449523Y-110278333D01*
%TO.C,C10*%
X169590357Y-123779642D02*
X169681071Y-123870357D01*
X169771785Y-124142500D01*
X169771785Y-124323928D01*
X169681071Y-124596071D01*
X169499642Y-124777500D01*
X169318214Y-124868214D01*
X168955357Y-124958928D01*
X168683214Y-124958928D01*
X168320357Y-124868214D01*
X168138928Y-124777500D01*
X167957500Y-124596071D01*
X167866785Y-124323928D01*
X167866785Y-124142500D01*
X167957500Y-123870357D01*
X168048214Y-123779642D01*
X169771785Y-121965357D02*
X169771785Y-123053928D01*
X169771785Y-122509642D02*
X167866785Y-122509642D01*
X168138928Y-122691071D01*
X168320357Y-122872500D01*
X168411071Y-123053928D01*
X167866785Y-120786071D02*
X167866785Y-120604642D01*
X167957500Y-120423214D01*
X168048214Y-120332500D01*
X168229642Y-120241785D01*
X168592500Y-120151071D01*
X169046071Y-120151071D01*
X169408928Y-120241785D01*
X169590357Y-120332500D01*
X169681071Y-120423214D01*
X169771785Y-120604642D01*
X169771785Y-120786071D01*
X169681071Y-120967500D01*
X169590357Y-121058214D01*
X169408928Y-121148928D01*
X169046071Y-121239642D01*
X168592500Y-121239642D01*
X168229642Y-121148928D01*
X168048214Y-121058214D01*
X167957500Y-120967500D01*
X167866785Y-120786071D01*
X168214523Y-113211428D02*
X168214523Y-113090476D01*
X168275000Y-112969523D01*
X168335476Y-112909047D01*
X168456428Y-112848571D01*
X168698333Y-112788095D01*
X169000714Y-112788095D01*
X169242619Y-112848571D01*
X169363571Y-112909047D01*
X169424047Y-112969523D01*
X169484523Y-113090476D01*
X169484523Y-113211428D01*
X169424047Y-113332380D01*
X169363571Y-113392857D01*
X169242619Y-113453333D01*
X169000714Y-113513809D01*
X168698333Y-113513809D01*
X168456428Y-113453333D01*
X168335476Y-113392857D01*
X168275000Y-113332380D01*
X168214523Y-113211428D01*
X169363571Y-112243809D02*
X169424047Y-112183333D01*
X169484523Y-112243809D01*
X169424047Y-112304285D01*
X169363571Y-112243809D01*
X169484523Y-112243809D01*
X169484523Y-110973809D02*
X169484523Y-111699523D01*
X169484523Y-111336666D02*
X168214523Y-111336666D01*
X168395952Y-111457619D01*
X168516904Y-111578571D01*
X168577380Y-111699523D01*
X168637857Y-109885238D02*
X169484523Y-109885238D01*
X168637857Y-110429523D02*
X169303095Y-110429523D01*
X169424047Y-110369047D01*
X169484523Y-110248095D01*
X169484523Y-110066666D01*
X169424047Y-109945714D01*
X169363571Y-109885238D01*
X168819285Y-108857142D02*
X168819285Y-109280476D01*
X169484523Y-109280476D02*
X168214523Y-109280476D01*
X168214523Y-108675714D01*
%TO.C,R20*%
X118971785Y-139654642D02*
X118064642Y-140289642D01*
X118971785Y-140743214D02*
X117066785Y-140743214D01*
X117066785Y-140017500D01*
X117157500Y-139836071D01*
X117248214Y-139745357D01*
X117429642Y-139654642D01*
X117701785Y-139654642D01*
X117883214Y-139745357D01*
X117973928Y-139836071D01*
X118064642Y-140017500D01*
X118064642Y-140743214D01*
X117248214Y-138928928D02*
X117157500Y-138838214D01*
X117066785Y-138656785D01*
X117066785Y-138203214D01*
X117157500Y-138021785D01*
X117248214Y-137931071D01*
X117429642Y-137840357D01*
X117611071Y-137840357D01*
X117883214Y-137931071D01*
X118971785Y-139019642D01*
X118971785Y-137840357D01*
X117066785Y-136661071D02*
X117066785Y-136479642D01*
X117157500Y-136298214D01*
X117248214Y-136207500D01*
X117429642Y-136116785D01*
X117792500Y-136026071D01*
X118246071Y-136026071D01*
X118608928Y-136116785D01*
X118790357Y-136207500D01*
X118881071Y-136298214D01*
X118971785Y-136479642D01*
X118971785Y-136661071D01*
X118881071Y-136842500D01*
X118790357Y-136933214D01*
X118608928Y-137023928D01*
X118246071Y-137114642D01*
X117792500Y-137114642D01*
X117429642Y-137023928D01*
X117248214Y-136933214D01*
X117157500Y-136842500D01*
X117066785Y-136661071D01*
X118684523Y-134015238D02*
X118684523Y-134740952D01*
X118684523Y-134378095D02*
X117414523Y-134378095D01*
X117595952Y-134499047D01*
X117716904Y-134620000D01*
X117777380Y-134740952D01*
X117414523Y-133229047D02*
X117414523Y-133108095D01*
X117475000Y-132987142D01*
X117535476Y-132926666D01*
X117656428Y-132866190D01*
X117898333Y-132805714D01*
X118200714Y-132805714D01*
X118442619Y-132866190D01*
X118563571Y-132926666D01*
X118624047Y-132987142D01*
X118684523Y-133108095D01*
X118684523Y-133229047D01*
X118624047Y-133350000D01*
X118563571Y-133410476D01*
X118442619Y-133470952D01*
X118200714Y-133531428D01*
X117898333Y-133531428D01*
X117656428Y-133470952D01*
X117535476Y-133410476D01*
X117475000Y-133350000D01*
X117414523Y-133229047D01*
X118684523Y-132261428D02*
X117414523Y-132261428D01*
X118200714Y-132140476D02*
X118684523Y-131777619D01*
X117837857Y-131777619D02*
X118321666Y-132261428D01*
X118684523Y-129600476D02*
X118684523Y-130326190D01*
X118684523Y-129963333D02*
X117414523Y-129963333D01*
X117595952Y-130084285D01*
X117716904Y-130205238D01*
X117777380Y-130326190D01*
X117354047Y-128149047D02*
X118986904Y-129237619D01*
X117535476Y-127786190D02*
X117475000Y-127725714D01*
X117414523Y-127604761D01*
X117414523Y-127302380D01*
X117475000Y-127181428D01*
X117535476Y-127120952D01*
X117656428Y-127060476D01*
X117777380Y-127060476D01*
X117958809Y-127120952D01*
X118684523Y-127846666D01*
X118684523Y-127060476D01*
X117414523Y-126637142D02*
X118684523Y-126334761D01*
X117777380Y-126092857D01*
X118684523Y-125850952D01*
X117414523Y-125548571D01*
%TO.C,U1*%
X93163571Y-75791785D02*
X93163571Y-77333928D01*
X93254285Y-77515357D01*
X93345000Y-77606071D01*
X93526428Y-77696785D01*
X93889285Y-77696785D01*
X94070714Y-77606071D01*
X94161428Y-77515357D01*
X94252142Y-77333928D01*
X94252142Y-75791785D01*
X96157142Y-77696785D02*
X95068571Y-77696785D01*
X95612857Y-77696785D02*
X95612857Y-75791785D01*
X95431428Y-76063928D01*
X95250000Y-76245357D01*
X95068571Y-76336071D01*
X80282142Y-76774523D02*
X80040238Y-76774523D01*
X79919285Y-76835000D01*
X79858809Y-76895476D01*
X79737857Y-77076904D01*
X79677380Y-77318809D01*
X79677380Y-77802619D01*
X79737857Y-77923571D01*
X79798333Y-77984047D01*
X79919285Y-78044523D01*
X80161190Y-78044523D01*
X80282142Y-77984047D01*
X80342619Y-77923571D01*
X80403095Y-77802619D01*
X80403095Y-77500238D01*
X80342619Y-77379285D01*
X80282142Y-77318809D01*
X80161190Y-77258333D01*
X79919285Y-77258333D01*
X79798333Y-77318809D01*
X79737857Y-77379285D01*
X79677380Y-77500238D01*
X80886904Y-77984047D02*
X81068333Y-78044523D01*
X81370714Y-78044523D01*
X81491666Y-77984047D01*
X81552142Y-77923571D01*
X81612619Y-77802619D01*
X81612619Y-77681666D01*
X81552142Y-77560714D01*
X81491666Y-77500238D01*
X81370714Y-77439761D01*
X81128809Y-77379285D01*
X81007857Y-77318809D01*
X80947380Y-77258333D01*
X80886904Y-77137380D01*
X80886904Y-77016428D01*
X80947380Y-76895476D01*
X81007857Y-76835000D01*
X81128809Y-76774523D01*
X81431190Y-76774523D01*
X81612619Y-76835000D01*
X82156904Y-78044523D02*
X82156904Y-76774523D01*
X82882619Y-78044523D01*
X82882619Y-76774523D01*
X83366428Y-76774523D02*
X84213095Y-76774523D01*
X83668809Y-78044523D01*
D12*
X87804761Y-111646666D02*
X87804761Y-110313333D01*
X89804761Y-111170476D01*
X100495238Y-82051428D02*
X100400000Y-81956190D01*
X100304761Y-81765714D01*
X100304761Y-81289523D01*
X100400000Y-81099047D01*
X100495238Y-81003809D01*
X100685714Y-80908571D01*
X100876190Y-80908571D01*
X101161904Y-81003809D01*
X102304761Y-82146666D01*
X102304761Y-80908571D01*
X107304761Y-93408571D02*
X107304761Y-94551428D01*
X107304761Y-93980000D02*
X105304761Y-93980000D01*
X105590476Y-94170476D01*
X105780952Y-94360952D01*
X105876190Y-94551428D01*
X70554761Y-93503809D02*
X70554761Y-94456190D01*
X71507142Y-94551428D01*
X71411904Y-94456190D01*
X71316666Y-94265714D01*
X71316666Y-93789523D01*
X71411904Y-93599047D01*
X71507142Y-93503809D01*
X71697619Y-93408571D01*
X72173809Y-93408571D01*
X72364285Y-93503809D01*
X72459523Y-93599047D01*
X72554761Y-93789523D01*
X72554761Y-94265714D01*
X72459523Y-94456190D01*
X72364285Y-94551428D01*
X87804761Y-77146666D02*
X87804761Y-75908571D01*
X88566666Y-76575238D01*
X88566666Y-76289523D01*
X88661904Y-76099047D01*
X88757142Y-76003809D01*
X88947619Y-75908571D01*
X89423809Y-75908571D01*
X89614285Y-76003809D01*
X89709523Y-76099047D01*
X89804761Y-76289523D01*
X89804761Y-76860952D01*
X89709523Y-77051428D01*
X89614285Y-77146666D01*
X75721428Y-80849047D02*
X77054761Y-80849047D01*
X74959523Y-81325238D02*
X76388095Y-81801428D01*
X76388095Y-80563333D01*
X100411904Y-106170476D02*
X100316666Y-106360952D01*
X100221428Y-106456190D01*
X100030952Y-106551428D01*
X99935714Y-106551428D01*
X99745238Y-106456190D01*
X99650000Y-106360952D01*
X99554761Y-106170476D01*
X99554761Y-105789523D01*
X99650000Y-105599047D01*
X99745238Y-105503809D01*
X99935714Y-105408571D01*
X100030952Y-105408571D01*
X100221428Y-105503809D01*
X100316666Y-105599047D01*
X100411904Y-105789523D01*
X100411904Y-106170476D01*
X100507142Y-106360952D01*
X100602380Y-106456190D01*
X100792857Y-106551428D01*
X101173809Y-106551428D01*
X101364285Y-106456190D01*
X101459523Y-106360952D01*
X101554761Y-106170476D01*
X101554761Y-105789523D01*
X101459523Y-105599047D01*
X101364285Y-105503809D01*
X101173809Y-105408571D01*
X100792857Y-105408571D01*
X100602380Y-105503809D01*
X100507142Y-105599047D01*
X100411904Y-105789523D01*
X75554761Y-105599047D02*
X75554761Y-105980000D01*
X75650000Y-106170476D01*
X75745238Y-106265714D01*
X76030952Y-106456190D01*
X76411904Y-106551428D01*
X77173809Y-106551428D01*
X77364285Y-106456190D01*
X77459523Y-106360952D01*
X77554761Y-106170476D01*
X77554761Y-105789523D01*
X77459523Y-105599047D01*
X77364285Y-105503809D01*
X77173809Y-105408571D01*
X76697619Y-105408571D01*
X76507142Y-105503809D01*
X76411904Y-105599047D01*
X76316666Y-105789523D01*
X76316666Y-106170476D01*
X76411904Y-106360952D01*
X76507142Y-106456190D01*
X76697619Y-106551428D01*
D10*
%TO.C,R10*%
X200251785Y-140289642D02*
X199344642Y-140924642D01*
X200251785Y-141378214D02*
X198346785Y-141378214D01*
X198346785Y-140652500D01*
X198437500Y-140471071D01*
X198528214Y-140380357D01*
X198709642Y-140289642D01*
X198981785Y-140289642D01*
X199163214Y-140380357D01*
X199253928Y-140471071D01*
X199344642Y-140652500D01*
X199344642Y-141378214D01*
X200251785Y-138475357D02*
X200251785Y-139563928D01*
X200251785Y-139019642D02*
X198346785Y-139019642D01*
X198618928Y-139201071D01*
X198800357Y-139382500D01*
X198891071Y-139563928D01*
X198346785Y-137296071D02*
X198346785Y-137114642D01*
X198437500Y-136933214D01*
X198528214Y-136842500D01*
X198709642Y-136751785D01*
X199072500Y-136661071D01*
X199526071Y-136661071D01*
X199888928Y-136751785D01*
X200070357Y-136842500D01*
X200161071Y-136933214D01*
X200251785Y-137114642D01*
X200251785Y-137296071D01*
X200161071Y-137477500D01*
X200070357Y-137568214D01*
X199888928Y-137658928D01*
X199526071Y-137749642D01*
X199072500Y-137749642D01*
X198709642Y-137658928D01*
X198528214Y-137568214D01*
X198437500Y-137477500D01*
X198346785Y-137296071D01*
X199964523Y-134015238D02*
X199964523Y-134740952D01*
X199964523Y-134378095D02*
X198694523Y-134378095D01*
X198875952Y-134499047D01*
X198996904Y-134620000D01*
X199057380Y-134740952D01*
X198694523Y-133229047D02*
X198694523Y-133108095D01*
X198755000Y-132987142D01*
X198815476Y-132926666D01*
X198936428Y-132866190D01*
X199178333Y-132805714D01*
X199480714Y-132805714D01*
X199722619Y-132866190D01*
X199843571Y-132926666D01*
X199904047Y-132987142D01*
X199964523Y-133108095D01*
X199964523Y-133229047D01*
X199904047Y-133350000D01*
X199843571Y-133410476D01*
X199722619Y-133470952D01*
X199480714Y-133531428D01*
X199178333Y-133531428D01*
X198936428Y-133470952D01*
X198815476Y-133410476D01*
X198755000Y-133350000D01*
X198694523Y-133229047D01*
X199964523Y-132261428D02*
X198694523Y-132261428D01*
X199480714Y-132140476D02*
X199964523Y-131777619D01*
X199117857Y-131777619D02*
X199601666Y-132261428D01*
X199964523Y-129600476D02*
X199964523Y-130326190D01*
X199964523Y-129963333D02*
X198694523Y-129963333D01*
X198875952Y-130084285D01*
X198996904Y-130205238D01*
X199057380Y-130326190D01*
X198634047Y-128149047D02*
X200266904Y-129237619D01*
X198815476Y-127786190D02*
X198755000Y-127725714D01*
X198694523Y-127604761D01*
X198694523Y-127302380D01*
X198755000Y-127181428D01*
X198815476Y-127120952D01*
X198936428Y-127060476D01*
X199057380Y-127060476D01*
X199238809Y-127120952D01*
X199964523Y-127846666D01*
X199964523Y-127060476D01*
X198694523Y-126637142D02*
X199964523Y-126334761D01*
X199057380Y-126092857D01*
X199964523Y-125850952D01*
X198694523Y-125548571D01*
%TO.C,R8*%
X149451785Y-138747500D02*
X148544642Y-139382500D01*
X149451785Y-139836071D02*
X147546785Y-139836071D01*
X147546785Y-139110357D01*
X147637500Y-138928928D01*
X147728214Y-138838214D01*
X147909642Y-138747500D01*
X148181785Y-138747500D01*
X148363214Y-138838214D01*
X148453928Y-138928928D01*
X148544642Y-139110357D01*
X148544642Y-139836071D01*
X148363214Y-137658928D02*
X148272500Y-137840357D01*
X148181785Y-137931071D01*
X148000357Y-138021785D01*
X147909642Y-138021785D01*
X147728214Y-137931071D01*
X147637500Y-137840357D01*
X147546785Y-137658928D01*
X147546785Y-137296071D01*
X147637500Y-137114642D01*
X147728214Y-137023928D01*
X147909642Y-136933214D01*
X148000357Y-136933214D01*
X148181785Y-137023928D01*
X148272500Y-137114642D01*
X148363214Y-137296071D01*
X148363214Y-137658928D01*
X148453928Y-137840357D01*
X148544642Y-137931071D01*
X148726071Y-138021785D01*
X149088928Y-138021785D01*
X149270357Y-137931071D01*
X149361071Y-137840357D01*
X149451785Y-137658928D01*
X149451785Y-137296071D01*
X149361071Y-137114642D01*
X149270357Y-137023928D01*
X149088928Y-136933214D01*
X148726071Y-136933214D01*
X148544642Y-137023928D01*
X148453928Y-137114642D01*
X148363214Y-137296071D01*
X149164523Y-134650238D02*
X149164523Y-135375952D01*
X149164523Y-135013095D02*
X147894523Y-135013095D01*
X148075952Y-135134047D01*
X148196904Y-135255000D01*
X148257380Y-135375952D01*
X147894523Y-133864047D02*
X147894523Y-133743095D01*
X147955000Y-133622142D01*
X148015476Y-133561666D01*
X148136428Y-133501190D01*
X148378333Y-133440714D01*
X148680714Y-133440714D01*
X148922619Y-133501190D01*
X149043571Y-133561666D01*
X149104047Y-133622142D01*
X149164523Y-133743095D01*
X149164523Y-133864047D01*
X149104047Y-133985000D01*
X149043571Y-134045476D01*
X148922619Y-134105952D01*
X148680714Y-134166428D01*
X148378333Y-134166428D01*
X148136428Y-134105952D01*
X148015476Y-134045476D01*
X147955000Y-133985000D01*
X147894523Y-133864047D01*
X149164523Y-132896428D02*
X147894523Y-132896428D01*
X148680714Y-132775476D02*
X149164523Y-132412619D01*
X148317857Y-132412619D02*
X148801666Y-132896428D01*
X149164523Y-130235476D02*
X149164523Y-130961190D01*
X149164523Y-130598333D02*
X147894523Y-130598333D01*
X148075952Y-130719285D01*
X148196904Y-130840238D01*
X148257380Y-130961190D01*
X147834047Y-128784047D02*
X149466904Y-129872619D01*
X148015476Y-128421190D02*
X147955000Y-128360714D01*
X147894523Y-128239761D01*
X147894523Y-127937380D01*
X147955000Y-127816428D01*
X148015476Y-127755952D01*
X148136428Y-127695476D01*
X148257380Y-127695476D01*
X148438809Y-127755952D01*
X149164523Y-128481666D01*
X149164523Y-127695476D01*
X147894523Y-127272142D02*
X149164523Y-126969761D01*
X148257380Y-126727857D01*
X149164523Y-126485952D01*
X147894523Y-126183571D01*
%TO.C,R13*%
X131036785Y-121874642D02*
X130129642Y-122509642D01*
X131036785Y-122963214D02*
X129131785Y-122963214D01*
X129131785Y-122237500D01*
X129222500Y-122056071D01*
X129313214Y-121965357D01*
X129494642Y-121874642D01*
X129766785Y-121874642D01*
X129948214Y-121965357D01*
X130038928Y-122056071D01*
X130129642Y-122237500D01*
X130129642Y-122963214D01*
X131036785Y-120060357D02*
X131036785Y-121148928D01*
X131036785Y-120604642D02*
X129131785Y-120604642D01*
X129403928Y-120786071D01*
X129585357Y-120967500D01*
X129676071Y-121148928D01*
X129131785Y-119425357D02*
X129131785Y-118246071D01*
X129857500Y-118881071D01*
X129857500Y-118608928D01*
X129948214Y-118427500D01*
X130038928Y-118336785D01*
X130220357Y-118246071D01*
X130673928Y-118246071D01*
X130855357Y-118336785D01*
X130946071Y-118427500D01*
X131036785Y-118608928D01*
X131036785Y-119153214D01*
X130946071Y-119334642D01*
X130855357Y-119425357D01*
X130749523Y-115358333D02*
X130749523Y-116084047D01*
X130749523Y-115721190D02*
X129479523Y-115721190D01*
X129660952Y-115842142D01*
X129781904Y-115963095D01*
X129842380Y-116084047D01*
X130628571Y-114814047D02*
X130689047Y-114753571D01*
X130749523Y-114814047D01*
X130689047Y-114874523D01*
X130628571Y-114814047D01*
X130749523Y-114814047D01*
X130023809Y-114027857D02*
X129963333Y-114148809D01*
X129902857Y-114209285D01*
X129781904Y-114269761D01*
X129721428Y-114269761D01*
X129600476Y-114209285D01*
X129540000Y-114148809D01*
X129479523Y-114027857D01*
X129479523Y-113785952D01*
X129540000Y-113665000D01*
X129600476Y-113604523D01*
X129721428Y-113544047D01*
X129781904Y-113544047D01*
X129902857Y-113604523D01*
X129963333Y-113665000D01*
X130023809Y-113785952D01*
X130023809Y-114027857D01*
X130084285Y-114148809D01*
X130144761Y-114209285D01*
X130265714Y-114269761D01*
X130507619Y-114269761D01*
X130628571Y-114209285D01*
X130689047Y-114148809D01*
X130749523Y-114027857D01*
X130749523Y-113785952D01*
X130689047Y-113665000D01*
X130628571Y-113604523D01*
X130507619Y-113544047D01*
X130265714Y-113544047D01*
X130144761Y-113604523D01*
X130084285Y-113665000D01*
X130023809Y-113785952D01*
X130749523Y-112999761D02*
X129479523Y-112999761D01*
X130265714Y-112878809D02*
X130749523Y-112515952D01*
X129902857Y-112515952D02*
X130386666Y-112999761D01*
%TO.C,C6*%
X160280357Y-91757500D02*
X160371071Y-91848214D01*
X160461785Y-92120357D01*
X160461785Y-92301785D01*
X160371071Y-92573928D01*
X160189642Y-92755357D01*
X160008214Y-92846071D01*
X159645357Y-92936785D01*
X159373214Y-92936785D01*
X159010357Y-92846071D01*
X158828928Y-92755357D01*
X158647500Y-92573928D01*
X158556785Y-92301785D01*
X158556785Y-92120357D01*
X158647500Y-91848214D01*
X158738214Y-91757500D01*
X158556785Y-90124642D02*
X158556785Y-90487500D01*
X158647500Y-90668928D01*
X158738214Y-90759642D01*
X159010357Y-90941071D01*
X159373214Y-91031785D01*
X160098928Y-91031785D01*
X160280357Y-90941071D01*
X160371071Y-90850357D01*
X160461785Y-90668928D01*
X160461785Y-90306071D01*
X160371071Y-90124642D01*
X160280357Y-90033928D01*
X160098928Y-89943214D01*
X159645357Y-89943214D01*
X159463928Y-90033928D01*
X159373214Y-90124642D01*
X159282500Y-90306071D01*
X159282500Y-90668928D01*
X159373214Y-90850357D01*
X159463928Y-90941071D01*
X159645357Y-91031785D01*
X170025476Y-96671190D02*
X169965000Y-96610714D01*
X169904523Y-96489761D01*
X169904523Y-96187380D01*
X169965000Y-96066428D01*
X170025476Y-96005952D01*
X170146428Y-95945476D01*
X170267380Y-95945476D01*
X170448809Y-96005952D01*
X171174523Y-96731666D01*
X171174523Y-95945476D01*
X171053571Y-95401190D02*
X171114047Y-95340714D01*
X171174523Y-95401190D01*
X171114047Y-95461666D01*
X171053571Y-95401190D01*
X171174523Y-95401190D01*
X170025476Y-94856904D02*
X169965000Y-94796428D01*
X169904523Y-94675476D01*
X169904523Y-94373095D01*
X169965000Y-94252142D01*
X170025476Y-94191666D01*
X170146428Y-94131190D01*
X170267380Y-94131190D01*
X170448809Y-94191666D01*
X171174523Y-94917380D01*
X171174523Y-94131190D01*
X170327857Y-93042619D02*
X171174523Y-93042619D01*
X170327857Y-93586904D02*
X170993095Y-93586904D01*
X171114047Y-93526428D01*
X171174523Y-93405476D01*
X171174523Y-93224047D01*
X171114047Y-93103095D01*
X171053571Y-93042619D01*
X170509285Y-92014523D02*
X170509285Y-92437857D01*
X171174523Y-92437857D02*
X169904523Y-92437857D01*
X169904523Y-91833095D01*
X170025476Y-90442142D02*
X169965000Y-90381666D01*
X169904523Y-90260714D01*
X169904523Y-89958333D01*
X169965000Y-89837380D01*
X170025476Y-89776904D01*
X170146428Y-89716428D01*
X170267380Y-89716428D01*
X170448809Y-89776904D01*
X171174523Y-90502619D01*
X171174523Y-89716428D01*
X169904523Y-88567380D02*
X169904523Y-89172142D01*
X170509285Y-89232619D01*
X170448809Y-89172142D01*
X170388333Y-89051190D01*
X170388333Y-88748809D01*
X170448809Y-88627857D01*
X170509285Y-88567380D01*
X170630238Y-88506904D01*
X170932619Y-88506904D01*
X171053571Y-88567380D01*
X171114047Y-88627857D01*
X171174523Y-88748809D01*
X171174523Y-89051190D01*
X171114047Y-89172142D01*
X171053571Y-89232619D01*
X169904523Y-87720714D02*
X169904523Y-87599761D01*
X169965000Y-87478809D01*
X170025476Y-87418333D01*
X170146428Y-87357857D01*
X170388333Y-87297380D01*
X170690714Y-87297380D01*
X170932619Y-87357857D01*
X171053571Y-87418333D01*
X171114047Y-87478809D01*
X171174523Y-87599761D01*
X171174523Y-87720714D01*
X171114047Y-87841666D01*
X171053571Y-87902142D01*
X170932619Y-87962619D01*
X170690714Y-88023095D01*
X170388333Y-88023095D01*
X170146428Y-87962619D01*
X170025476Y-87902142D01*
X169965000Y-87841666D01*
X169904523Y-87720714D01*
X169904523Y-86934523D02*
X171174523Y-86511190D01*
X169904523Y-86087857D01*
%TO.C,R14*%
X187551785Y-121874642D02*
X186644642Y-122509642D01*
X187551785Y-122963214D02*
X185646785Y-122963214D01*
X185646785Y-122237500D01*
X185737500Y-122056071D01*
X185828214Y-121965357D01*
X186009642Y-121874642D01*
X186281785Y-121874642D01*
X186463214Y-121965357D01*
X186553928Y-122056071D01*
X186644642Y-122237500D01*
X186644642Y-122963214D01*
X187551785Y-120060357D02*
X187551785Y-121148928D01*
X187551785Y-120604642D02*
X185646785Y-120604642D01*
X185918928Y-120786071D01*
X186100357Y-120967500D01*
X186191071Y-121148928D01*
X186281785Y-118427500D02*
X187551785Y-118427500D01*
X185556071Y-118881071D02*
X186916785Y-119334642D01*
X186916785Y-118155357D01*
X184544523Y-121708333D02*
X184544523Y-122434047D01*
X184544523Y-122071190D02*
X183274523Y-122071190D01*
X183455952Y-122192142D01*
X183576904Y-122313095D01*
X183637380Y-122434047D01*
X184423571Y-121164047D02*
X184484047Y-121103571D01*
X184544523Y-121164047D01*
X184484047Y-121224523D01*
X184423571Y-121164047D01*
X184544523Y-121164047D01*
X183818809Y-120377857D02*
X183758333Y-120498809D01*
X183697857Y-120559285D01*
X183576904Y-120619761D01*
X183516428Y-120619761D01*
X183395476Y-120559285D01*
X183335000Y-120498809D01*
X183274523Y-120377857D01*
X183274523Y-120135952D01*
X183335000Y-120015000D01*
X183395476Y-119954523D01*
X183516428Y-119894047D01*
X183576904Y-119894047D01*
X183697857Y-119954523D01*
X183758333Y-120015000D01*
X183818809Y-120135952D01*
X183818809Y-120377857D01*
X183879285Y-120498809D01*
X183939761Y-120559285D01*
X184060714Y-120619761D01*
X184302619Y-120619761D01*
X184423571Y-120559285D01*
X184484047Y-120498809D01*
X184544523Y-120377857D01*
X184544523Y-120135952D01*
X184484047Y-120015000D01*
X184423571Y-119954523D01*
X184302619Y-119894047D01*
X184060714Y-119894047D01*
X183939761Y-119954523D01*
X183879285Y-120015000D01*
X183818809Y-120135952D01*
X184544523Y-119349761D02*
X183274523Y-119349761D01*
X184060714Y-119228809D02*
X184544523Y-118865952D01*
X183697857Y-118865952D02*
X184181666Y-119349761D01*
%TO.C,R15*%
X138021785Y-66629642D02*
X137114642Y-67264642D01*
X138021785Y-67718214D02*
X136116785Y-67718214D01*
X136116785Y-66992500D01*
X136207500Y-66811071D01*
X136298214Y-66720357D01*
X136479642Y-66629642D01*
X136751785Y-66629642D01*
X136933214Y-66720357D01*
X137023928Y-66811071D01*
X137114642Y-66992500D01*
X137114642Y-67718214D01*
X138021785Y-64815357D02*
X138021785Y-65903928D01*
X138021785Y-65359642D02*
X136116785Y-65359642D01*
X136388928Y-65541071D01*
X136570357Y-65722500D01*
X136661071Y-65903928D01*
X136116785Y-63091785D02*
X136116785Y-63998928D01*
X137023928Y-64089642D01*
X136933214Y-63998928D01*
X136842500Y-63817500D01*
X136842500Y-63363928D01*
X136933214Y-63182500D01*
X137023928Y-63091785D01*
X137205357Y-63001071D01*
X137658928Y-63001071D01*
X137840357Y-63091785D01*
X137931071Y-63182500D01*
X138021785Y-63363928D01*
X138021785Y-63817500D01*
X137931071Y-63998928D01*
X137840357Y-64089642D01*
X137734523Y-59720238D02*
X137734523Y-60445952D01*
X137734523Y-60083095D02*
X136464523Y-60083095D01*
X136645952Y-60204047D01*
X136766904Y-60325000D01*
X136827380Y-60445952D01*
X136464523Y-58934047D02*
X136464523Y-58813095D01*
X136525000Y-58692142D01*
X136585476Y-58631666D01*
X136706428Y-58571190D01*
X136948333Y-58510714D01*
X137250714Y-58510714D01*
X137492619Y-58571190D01*
X137613571Y-58631666D01*
X137674047Y-58692142D01*
X137734523Y-58813095D01*
X137734523Y-58934047D01*
X137674047Y-59055000D01*
X137613571Y-59115476D01*
X137492619Y-59175952D01*
X137250714Y-59236428D01*
X136948333Y-59236428D01*
X136706428Y-59175952D01*
X136585476Y-59115476D01*
X136525000Y-59055000D01*
X136464523Y-58934047D01*
X137734523Y-57966428D02*
X136464523Y-57966428D01*
X137250714Y-57845476D02*
X137734523Y-57482619D01*
X136887857Y-57482619D02*
X137371666Y-57966428D01*
X136464523Y-55365952D02*
X136464523Y-55970714D01*
X137069285Y-56031190D01*
X137008809Y-55970714D01*
X136948333Y-55849761D01*
X136948333Y-55547380D01*
X137008809Y-55426428D01*
X137069285Y-55365952D01*
X137190238Y-55305476D01*
X137492619Y-55305476D01*
X137613571Y-55365952D01*
X137674047Y-55426428D01*
X137734523Y-55547380D01*
X137734523Y-55849761D01*
X137674047Y-55970714D01*
X137613571Y-56031190D01*
X136464523Y-54882142D02*
X137734523Y-54579761D01*
X136827380Y-54337857D01*
X137734523Y-54095952D01*
X136464523Y-53793571D01*
%TO.C,R5*%
X85316785Y-66992500D02*
X84409642Y-67627500D01*
X85316785Y-68081071D02*
X83411785Y-68081071D01*
X83411785Y-67355357D01*
X83502500Y-67173928D01*
X83593214Y-67083214D01*
X83774642Y-66992500D01*
X84046785Y-66992500D01*
X84228214Y-67083214D01*
X84318928Y-67173928D01*
X84409642Y-67355357D01*
X84409642Y-68081071D01*
X83411785Y-65268928D02*
X83411785Y-66176071D01*
X84318928Y-66266785D01*
X84228214Y-66176071D01*
X84137500Y-65994642D01*
X84137500Y-65541071D01*
X84228214Y-65359642D01*
X84318928Y-65268928D01*
X84500357Y-65178214D01*
X84953928Y-65178214D01*
X85135357Y-65268928D01*
X85226071Y-65359642D01*
X85316785Y-65541071D01*
X85316785Y-65994642D01*
X85226071Y-66176071D01*
X85135357Y-66266785D01*
X85029523Y-62260238D02*
X85029523Y-62985952D01*
X85029523Y-62623095D02*
X83759523Y-62623095D01*
X83940952Y-62744047D01*
X84061904Y-62865000D01*
X84122380Y-62985952D01*
X83759523Y-61474047D02*
X83759523Y-61353095D01*
X83820000Y-61232142D01*
X83880476Y-61171666D01*
X84001428Y-61111190D01*
X84243333Y-61050714D01*
X84545714Y-61050714D01*
X84787619Y-61111190D01*
X84908571Y-61171666D01*
X84969047Y-61232142D01*
X85029523Y-61353095D01*
X85029523Y-61474047D01*
X84969047Y-61595000D01*
X84908571Y-61655476D01*
X84787619Y-61715952D01*
X84545714Y-61776428D01*
X84243333Y-61776428D01*
X84001428Y-61715952D01*
X83880476Y-61655476D01*
X83820000Y-61595000D01*
X83759523Y-61474047D01*
X85029523Y-60506428D02*
X83759523Y-60506428D01*
X84545714Y-60385476D02*
X85029523Y-60022619D01*
X84182857Y-60022619D02*
X84666666Y-60506428D01*
X83759523Y-57905952D02*
X83759523Y-58510714D01*
X84364285Y-58571190D01*
X84303809Y-58510714D01*
X84243333Y-58389761D01*
X84243333Y-58087380D01*
X84303809Y-57966428D01*
X84364285Y-57905952D01*
X84485238Y-57845476D01*
X84787619Y-57845476D01*
X84908571Y-57905952D01*
X84969047Y-57966428D01*
X85029523Y-58087380D01*
X85029523Y-58389761D01*
X84969047Y-58510714D01*
X84908571Y-58571190D01*
X83759523Y-57422142D02*
X85029523Y-57119761D01*
X84122380Y-56877857D01*
X85029523Y-56635952D01*
X83759523Y-56333571D01*
D13*
%TO.C,RV2*%
X188394000Y-151250000D02*
X184985000Y-151250000D01*
X188394000Y-151250000D02*
X188394000Y-157700000D01*
X180320000Y-135830000D02*
X180320000Y-144900000D01*
X188394000Y-157700000D02*
X184985000Y-157700000D01*
X193060000Y-135830000D02*
X180320000Y-135830000D01*
X189985000Y-144900000D02*
X189985000Y-151250000D01*
X189985000Y-151250000D02*
X183395000Y-151250000D01*
X183395000Y-144900000D02*
X183395000Y-151250000D01*
X193060000Y-144900000D02*
X180320000Y-144900000D01*
X193060000Y-135830000D02*
X193060000Y-144900000D01*
X184985000Y-151250000D02*
X184985000Y-157700000D01*
X189985000Y-144900000D02*
X183395000Y-144900000D01*
%TO.C,R22*%
X173990000Y-138660000D02*
X173990000Y-137970000D01*
X175710000Y-128730000D02*
X172270000Y-128730000D01*
X172270000Y-137970000D02*
X175710000Y-137970000D01*
X175710000Y-137970000D02*
X175710000Y-128730000D01*
X173990000Y-128040000D02*
X173990000Y-128730000D01*
X172270000Y-128730000D02*
X172270000Y-137970000D01*
%TO.C,R1*%
X101150000Y-122730000D02*
X104590000Y-122730000D01*
X104590000Y-122730000D02*
X104590000Y-113490000D01*
X102870000Y-112800000D02*
X102870000Y-113490000D01*
X102870000Y-123420000D02*
X102870000Y-122730000D01*
X104590000Y-113490000D02*
X101150000Y-113490000D01*
X101150000Y-113490000D02*
X101150000Y-122730000D01*
%TO.C,J1*%
X45050000Y-66600000D02*
X46050000Y-66600000D01*
X55280000Y-64580000D02*
X55280000Y-72580000D01*
X54680000Y-71360000D02*
X55280000Y-71360000D01*
X55280000Y-65800000D02*
X54680000Y-65800000D01*
X46055000Y-70675000D02*
X45050000Y-70675000D01*
X47720000Y-70560000D02*
X46050000Y-70560000D01*
X45050000Y-70675000D02*
X45050000Y-66485000D01*
X46055000Y-72580000D02*
X46055000Y-70675000D01*
X46050000Y-66600000D02*
X46050000Y-70560000D01*
X54680000Y-67400000D02*
X55280000Y-67400000D01*
X52060000Y-64290000D02*
X48060000Y-64290000D01*
X55280000Y-69760000D02*
X54680000Y-69760000D01*
X45050000Y-66485000D02*
X46055000Y-66485000D01*
X46055000Y-64580000D02*
X55280000Y-64580000D01*
X46050000Y-66600000D02*
X47720000Y-66600000D01*
X55280000Y-72580000D02*
X46055000Y-72580000D01*
X46055000Y-66485000D02*
X46055000Y-64580000D01*
X54680000Y-65800000D02*
X54680000Y-67400000D01*
X54680000Y-69760000D02*
X54680000Y-71360000D01*
X47720000Y-66600000D02*
X47720000Y-70560000D01*
X46050000Y-70560000D02*
X45050000Y-70560000D01*
%TO.C,U3*%
X198750000Y-96480000D02*
X197250000Y-98980000D01*
X197250000Y-98980000D02*
X195000000Y-97730000D01*
X196250000Y-94980000D02*
X198750000Y-96480000D01*
X205620000Y-93980000D02*
G75*
G03*
X205620000Y-93980000I-15120000J0D01*
G01*
%TO.C,R6*%
X82495000Y-68310000D02*
X82495000Y-51070000D01*
X76255000Y-68310000D02*
X82495000Y-68310000D01*
X79375000Y-70950000D02*
X79375000Y-68310000D01*
X79375000Y-48430000D02*
X79375000Y-51070000D01*
X76255000Y-51070000D02*
X76255000Y-68310000D01*
X82495000Y-51070000D02*
X76255000Y-51070000D01*
%TO.C,C1*%
X63330000Y-59602041D02*
X58654000Y-59602041D01*
X71079000Y-58481041D02*
X58461000Y-58481041D01*
X63330000Y-60442041D02*
X58942000Y-60442041D01*
X68626000Y-63002041D02*
X60914000Y-63002041D01*
X63330000Y-59362041D02*
X58595000Y-59362041D01*
X71045000Y-58802041D02*
X58495000Y-58802041D01*
X69622000Y-62042041D02*
X59918000Y-62042041D01*
X69782000Y-61842041D02*
X66210000Y-61842041D01*
X63330000Y-60882041D02*
X59148000Y-60882041D01*
X70371000Y-60922041D02*
X66210000Y-60922041D01*
X66979000Y-63922041D02*
X62561000Y-63922041D01*
X63330000Y-60402041D02*
X58925000Y-60402041D01*
X69655000Y-62002041D02*
X59885000Y-62002041D01*
X68520000Y-63082041D02*
X61020000Y-63082041D01*
X71008000Y-59042041D02*
X66210000Y-59042041D01*
X63330000Y-60802041D02*
X59108000Y-60802041D01*
X70598000Y-60442041D02*
X66210000Y-60442041D01*
X70546000Y-60562041D02*
X66210000Y-60562041D01*
X63330000Y-59082041D02*
X58539000Y-59082041D01*
X63330000Y-60322041D02*
X58893000Y-60322041D01*
X63330000Y-61842041D02*
X59758000Y-61842041D01*
X67614000Y-63642041D02*
X61926000Y-63642041D01*
X63330000Y-61362041D02*
X59423000Y-61362041D01*
X68872000Y-62802041D02*
X60668000Y-62802041D01*
X63330000Y-60522041D02*
X58977000Y-60522041D01*
X70886000Y-59602041D02*
X66210000Y-59602041D01*
X69843000Y-61762041D02*
X66210000Y-61762041D01*
X68234000Y-63282041D02*
X61306000Y-63282041D01*
X70994000Y-59122041D02*
X66210000Y-59122041D01*
X68294000Y-63242041D02*
X61246000Y-63242041D01*
X71034000Y-58882041D02*
X58506000Y-58882041D01*
X63330000Y-61642041D02*
X59610000Y-61642041D01*
X70191000Y-61242041D02*
X66210000Y-61242041D01*
X63330000Y-60362041D02*
X58909000Y-60362041D01*
X63330000Y-60842041D02*
X59128000Y-60842041D01*
X63330000Y-59762041D02*
X58699000Y-59762041D01*
X70896000Y-59562041D02*
X66210000Y-59562041D01*
X66754000Y-64002041D02*
X62786000Y-64002041D01*
X71094000Y-58241041D02*
X58446000Y-58241041D01*
X70142000Y-61322041D02*
X66210000Y-61322041D01*
X69589000Y-62082041D02*
X59951000Y-62082041D01*
X70804000Y-59882041D02*
X66210000Y-59882041D01*
X69752000Y-61882041D02*
X66210000Y-61882041D01*
X68109000Y-63362041D02*
X61431000Y-63362041D01*
X66498000Y-64082041D02*
X63042000Y-64082041D01*
X71092000Y-58281041D02*
X58448000Y-58281041D01*
X71097000Y-58161041D02*
X58443000Y-58161041D01*
X70907000Y-59522041D02*
X66210000Y-59522041D01*
X70936000Y-59402041D02*
X66210000Y-59402041D01*
X63330000Y-61082041D02*
X59256000Y-61082041D01*
X63330000Y-60562041D02*
X58994000Y-60562041D01*
X63330000Y-59962041D02*
X58762000Y-59962041D01*
X70986000Y-59162041D02*
X66210000Y-59162041D01*
X63330000Y-61442041D02*
X59474000Y-61442041D01*
X69008000Y-62682041D02*
X60532000Y-62682041D01*
X63330000Y-60642041D02*
X59031000Y-60642041D01*
X71068000Y-58601041D02*
X58472000Y-58601041D01*
X69052000Y-62642041D02*
X60488000Y-62642041D01*
X70350000Y-60962041D02*
X66210000Y-60962041D01*
X63330000Y-60162041D02*
X58831000Y-60162041D01*
X70945000Y-59362041D02*
X66210000Y-59362041D01*
X63330000Y-59882041D02*
X58736000Y-59882041D01*
X67839000Y-63522041D02*
X61701000Y-63522041D01*
X70013000Y-61522041D02*
X66210000Y-61522041D01*
X68410000Y-63162041D02*
X61130000Y-63162041D01*
X70066000Y-61442041D02*
X66210000Y-61442041D01*
X70875000Y-59642041D02*
X66210000Y-59642041D01*
X70954000Y-59322041D02*
X66210000Y-59322041D01*
X70853000Y-59722041D02*
X66210000Y-59722041D01*
X70962000Y-59282041D02*
X66210000Y-59282041D01*
X67766000Y-63562041D02*
X61774000Y-63562041D01*
X68345000Y-51143959D02*
X68345000Y-52393959D01*
X63330000Y-59802041D02*
X58711000Y-59802041D01*
X69219000Y-62482041D02*
X60321000Y-62482041D01*
X71039000Y-58842041D02*
X58501000Y-58842041D01*
X71088000Y-58361041D02*
X58452000Y-58361041D01*
X63330000Y-61682041D02*
X59639000Y-61682041D01*
X69520000Y-62162041D02*
X60020000Y-62162041D01*
X70167000Y-61282041D02*
X66210000Y-61282041D01*
X70238000Y-61162041D02*
X66210000Y-61162041D01*
X70723000Y-60122041D02*
X66210000Y-60122041D01*
X63330000Y-61002041D02*
X59212000Y-61002041D01*
X63330000Y-59722041D02*
X58687000Y-59722041D01*
X63330000Y-60242041D02*
X58862000Y-60242041D01*
X69958000Y-61602041D02*
X66210000Y-61602041D01*
X70791000Y-59922041D02*
X66210000Y-59922041D01*
X71098000Y-58121041D02*
X58442000Y-58121041D01*
X63330000Y-61402041D02*
X59448000Y-61402041D01*
X63330000Y-60922041D02*
X59169000Y-60922041D01*
X63330000Y-61482041D02*
X59500000Y-61482041D01*
X67691000Y-63602041D02*
X61849000Y-63602041D01*
X67910000Y-63482041D02*
X61630000Y-63482041D01*
X63330000Y-61042041D02*
X59234000Y-61042041D01*
X71001000Y-59082041D02*
X66210000Y-59082041D01*
X69448000Y-62242041D02*
X60092000Y-62242041D01*
X71090000Y-58321041D02*
X58450000Y-58321041D01*
X63330000Y-61162041D02*
X59302000Y-61162041D01*
X67180000Y-63842041D02*
X62360000Y-63842041D01*
X66011000Y-64202041D02*
X63529000Y-64202041D01*
X70581000Y-60482041D02*
X66210000Y-60482041D01*
X68466000Y-63122041D02*
X61074000Y-63122041D01*
X63330000Y-61322041D02*
X59398000Y-61322041D01*
X63330000Y-59922041D02*
X58749000Y-59922041D01*
X69688000Y-61962041D02*
X59852000Y-61962041D01*
X67451000Y-63722041D02*
X62089000Y-63722041D01*
X71100000Y-58001041D02*
X58440000Y-58001041D01*
X71100000Y-57961041D02*
X58440000Y-57961041D01*
X63330000Y-60002041D02*
X58775000Y-60002041D01*
X71072000Y-58561041D02*
X58468000Y-58561041D01*
X68045000Y-63402041D02*
X61495000Y-63402041D01*
X65087000Y-64322041D02*
X64453000Y-64322041D01*
X71096000Y-58201041D02*
X58444000Y-58201041D01*
X63330000Y-60762041D02*
X59088000Y-60762041D01*
X70778000Y-59962041D02*
X66210000Y-59962041D01*
X63330000Y-61882041D02*
X59788000Y-61882041D01*
X63330000Y-60602041D02*
X59012000Y-60602041D01*
X70926000Y-59442041D02*
X66210000Y-59442041D01*
X63330000Y-59322041D02*
X58586000Y-59322041D01*
X63330000Y-60202041D02*
X58846000Y-60202041D01*
X68777000Y-62882041D02*
X60763000Y-62882041D01*
X66192000Y-64162041D02*
X63348000Y-64162041D01*
X71085000Y-58401041D02*
X58455000Y-58401041D01*
X63330000Y-61602041D02*
X59582000Y-61602041D01*
X68918000Y-62762041D02*
X60622000Y-62762041D01*
X63330000Y-60482041D02*
X58959000Y-60482041D01*
X70412000Y-60842041D02*
X66210000Y-60842041D01*
X70737000Y-60082041D02*
X66210000Y-60082041D01*
X63330000Y-61522041D02*
X59527000Y-61522041D01*
X66870000Y-63962041D02*
X62670000Y-63962041D01*
X67534000Y-63682041D02*
X62006000Y-63682041D01*
X68727000Y-62922041D02*
X60813000Y-62922041D01*
X63330000Y-60682041D02*
X59049000Y-60682041D01*
X69872000Y-61722041D02*
X66210000Y-61722041D01*
X70694000Y-60202041D02*
X66210000Y-60202041D01*
X67274000Y-63802041D02*
X62266000Y-63802041D01*
X68970000Y-51768959D02*
X67720000Y-51768959D01*
X63330000Y-59042041D02*
X58532000Y-59042041D01*
X69375000Y-62322041D02*
X60165000Y-62322041D01*
X63330000Y-59562041D02*
X58644000Y-59562041D01*
X70864000Y-59682041D02*
X66210000Y-59682041D01*
X71050000Y-58762041D02*
X58490000Y-58762041D01*
X70215000Y-61202041D02*
X66210000Y-61202041D01*
X63330000Y-59842041D02*
X58723000Y-59842041D01*
X63330000Y-59482041D02*
X58624000Y-59482041D01*
X70491000Y-60682041D02*
X66210000Y-60682041D01*
X68172000Y-63322041D02*
X61368000Y-63322041D01*
X63330000Y-59682041D02*
X58676000Y-59682041D01*
X69720000Y-61922041D02*
X59820000Y-61922041D01*
X70472000Y-60722041D02*
X66210000Y-60722041D01*
X63330000Y-59522041D02*
X58633000Y-59522041D01*
X70971000Y-59242041D02*
X66210000Y-59242041D01*
X70916000Y-59482041D02*
X66210000Y-59482041D01*
X71099000Y-58081041D02*
X58441000Y-58081041D01*
X63330000Y-61722041D02*
X59668000Y-61722041D01*
X68353000Y-63202041D02*
X61187000Y-63202041D01*
X70751000Y-60042041D02*
X66210000Y-60042041D01*
X70709000Y-60162041D02*
X66210000Y-60162041D01*
X70261000Y-61122041D02*
X66210000Y-61122041D01*
X63330000Y-59642041D02*
X58665000Y-59642041D01*
X63330000Y-60122041D02*
X58817000Y-60122041D01*
X70615000Y-60402041D02*
X66210000Y-60402041D01*
X69412000Y-62282041D02*
X60128000Y-62282041D01*
X70663000Y-60282041D02*
X66210000Y-60282041D01*
X63330000Y-61562041D02*
X59554000Y-61562041D01*
X63330000Y-61762041D02*
X59697000Y-61762041D01*
X69259000Y-62442041D02*
X60281000Y-62442041D01*
X71076000Y-58521041D02*
X58464000Y-58521041D01*
X63330000Y-60722041D02*
X59068000Y-60722041D01*
X63330000Y-59242041D02*
X58569000Y-59242041D01*
X69095000Y-62602041D02*
X60445000Y-62602041D01*
X71028000Y-58922041D02*
X58512000Y-58922041D01*
X63330000Y-60042041D02*
X58789000Y-60042041D01*
X70647000Y-60322041D02*
X66210000Y-60322041D01*
X70528000Y-60602041D02*
X66210000Y-60602041D01*
X68964000Y-62722041D02*
X60576000Y-62722041D01*
X70117000Y-61362041D02*
X66210000Y-61362041D01*
X63330000Y-61122041D02*
X59279000Y-61122041D01*
X63330000Y-60962041D02*
X59190000Y-60962041D01*
X65798000Y-64242041D02*
X63742000Y-64242041D01*
X70841000Y-59762041D02*
X66210000Y-59762041D01*
X70563000Y-60522041D02*
X66210000Y-60522041D01*
X69901000Y-61682041D02*
X66210000Y-61682041D01*
X63330000Y-59282041D02*
X58578000Y-59282041D01*
X63330000Y-61802041D02*
X59727000Y-61802041D01*
X69555000Y-62122041D02*
X59985000Y-62122041D01*
X67082000Y-63882041D02*
X62458000Y-63882041D01*
X66353000Y-64122041D02*
X63187000Y-64122041D01*
X63330000Y-60082041D02*
X58803000Y-60082041D01*
X70765000Y-60002041D02*
X66210000Y-60002041D01*
X70040000Y-61482041D02*
X66210000Y-61482041D01*
X71064000Y-58641041D02*
X58476000Y-58641041D01*
X70328000Y-61002041D02*
X66210000Y-61002041D01*
X71060000Y-58682041D02*
X58480000Y-58682041D01*
X66631000Y-64042041D02*
X62909000Y-64042041D01*
X65527000Y-64282041D02*
X64013000Y-64282041D01*
X63330000Y-61202041D02*
X59325000Y-61202041D01*
X70306000Y-61042041D02*
X66210000Y-61042041D01*
X69298000Y-62402041D02*
X60242000Y-62402041D01*
X63330000Y-59122041D02*
X58546000Y-59122041D01*
X69986000Y-61562041D02*
X66210000Y-61562041D01*
X70392000Y-60882041D02*
X66210000Y-60882041D01*
X63330000Y-59402041D02*
X58604000Y-59402041D01*
X70432000Y-60802041D02*
X66210000Y-60802041D01*
X71055000Y-58722041D02*
X58485000Y-58722041D01*
X71082000Y-58441041D02*
X58458000Y-58441041D01*
X70284000Y-61082041D02*
X66210000Y-61082041D01*
X70509000Y-60642041D02*
X66210000Y-60642041D01*
X63330000Y-60282041D02*
X58877000Y-60282041D01*
X69484000Y-62202041D02*
X60056000Y-62202041D01*
X70631000Y-60362041D02*
X66210000Y-60362041D01*
X69178000Y-62522041D02*
X60362000Y-62522041D01*
X70452000Y-60762041D02*
X66210000Y-60762041D01*
X70678000Y-60242041D02*
X66210000Y-60242041D01*
X70979000Y-59202041D02*
X66210000Y-59202041D01*
X67364000Y-63762041D02*
X62176000Y-63762041D01*
X69137000Y-62562041D02*
X60403000Y-62562041D01*
X69337000Y-62362041D02*
X60203000Y-62362041D01*
X70092000Y-61402041D02*
X66210000Y-61402041D01*
X63330000Y-61282041D02*
X59373000Y-61282041D01*
X68574000Y-63042041D02*
X60966000Y-63042041D01*
X70829000Y-59802041D02*
X66210000Y-59802041D01*
X69930000Y-61642041D02*
X66210000Y-61642041D01*
X63330000Y-59442041D02*
X58614000Y-59442041D01*
X63330000Y-61242041D02*
X59349000Y-61242041D01*
X71022000Y-58962041D02*
X58518000Y-58962041D01*
X71015000Y-59002041D02*
X58525000Y-59002041D01*
X67978000Y-63442041D02*
X61562000Y-63442041D01*
X69813000Y-61802041D02*
X66210000Y-61802041D01*
X63330000Y-59202041D02*
X58561000Y-59202041D01*
X71100000Y-58041041D02*
X58440000Y-58041041D01*
X68825000Y-62842041D02*
X60715000Y-62842041D01*
X68677000Y-62962041D02*
X60863000Y-62962041D01*
X63330000Y-59162041D02*
X58554000Y-59162041D01*
X70817000Y-59842041D02*
X66210000Y-59842041D01*
X71140000Y-57961041D02*
G75*
G03*
X71140000Y-57961041I-6370000J0D01*
G01*
%TO.C,C3*%
X103600000Y-132090000D02*
X103600000Y-139690000D01*
X99600000Y-132090000D02*
X101600000Y-132090000D01*
X101600000Y-132090000D02*
X103600000Y-132090000D01*
X99600000Y-139690000D02*
X99600000Y-132090000D01*
X103600000Y-139690000D02*
X99600000Y-139690000D01*
%TO.C,C5*%
X109930000Y-79340000D02*
X118670000Y-79340000D01*
X118670000Y-106080000D02*
X118670000Y-79340000D01*
X109930000Y-106080000D02*
X118670000Y-106080000D01*
X109930000Y-106080000D02*
X109930000Y-79340000D01*
%TO.C,C8*%
X199490000Y-112720000D02*
X199490000Y-120960000D01*
X199490000Y-112720000D02*
X196750000Y-112720000D01*
X199490000Y-120960000D02*
X196750000Y-120960000D01*
X196750000Y-112720000D02*
X196750000Y-120960000D01*
%TO.C,R4*%
X80830000Y-131270000D02*
X80830000Y-140510000D01*
X80830000Y-140510000D02*
X84270000Y-140510000D01*
X82550000Y-141200000D02*
X82550000Y-140510000D01*
X82550000Y-130580000D02*
X82550000Y-131270000D01*
X84270000Y-131270000D02*
X80830000Y-131270000D01*
X84270000Y-140510000D02*
X84270000Y-131270000D01*
%TO.C,R16*%
X187380000Y-68310000D02*
X193620000Y-68310000D01*
X190500000Y-70950000D02*
X190500000Y-68310000D01*
X190500000Y-48430000D02*
X190500000Y-51070000D01*
X187380000Y-51070000D02*
X187380000Y-68310000D01*
X193620000Y-51070000D02*
X187380000Y-51070000D01*
X193620000Y-68310000D02*
X193620000Y-51070000D01*
%TO.C,U2*%
X145450000Y-94980000D02*
X147950000Y-96480000D01*
X146450000Y-98980000D02*
X144200000Y-97730000D01*
X147950000Y-96480000D02*
X146450000Y-98980000D01*
X154820000Y-93980000D02*
G75*
G03*
X154820000Y-93980000I-15120000J0D01*
G01*
%TO.C,R19*%
X120200000Y-121460000D02*
X123640000Y-121460000D01*
X120200000Y-112220000D02*
X120200000Y-121460000D01*
X121920000Y-111530000D02*
X121920000Y-112220000D01*
X123640000Y-112220000D02*
X120200000Y-112220000D01*
X123640000Y-121460000D02*
X123640000Y-112220000D01*
X121920000Y-122150000D02*
X121920000Y-121460000D01*
%TO.C,J2*%
X50105000Y-95310000D02*
X52765000Y-95310000D01*
X50105000Y-87630000D02*
X50105000Y-95310000D01*
X50105000Y-86360000D02*
X50105000Y-85030000D01*
X50105000Y-87630000D02*
X52765000Y-87630000D01*
X50105000Y-85030000D02*
X51435000Y-85030000D01*
X52765000Y-87630000D02*
X52765000Y-95310000D01*
%TO.C,R2*%
X74110000Y-113490000D02*
X70670000Y-113490000D01*
X72390000Y-112800000D02*
X72390000Y-113490000D01*
X72390000Y-123420000D02*
X72390000Y-122730000D01*
X74110000Y-122730000D02*
X74110000Y-113490000D01*
X70670000Y-113490000D02*
X70670000Y-122730000D01*
X70670000Y-122730000D02*
X74110000Y-122730000D01*
%TO.C,R11*%
X149170000Y-68310000D02*
X149170000Y-51070000D01*
X146050000Y-48430000D02*
X146050000Y-51070000D01*
X149170000Y-51070000D02*
X142930000Y-51070000D01*
X146050000Y-70950000D02*
X146050000Y-68310000D01*
X142930000Y-68310000D02*
X149170000Y-68310000D01*
X142930000Y-51070000D02*
X142930000Y-68310000D01*
%TO.C,J4*%
X217110000Y-83880000D02*
X219770000Y-83880000D01*
X217110000Y-71120000D02*
X219770000Y-71120000D01*
X219770000Y-71120000D02*
X219770000Y-83880000D01*
X217110000Y-69850000D02*
X217110000Y-68520000D01*
X217110000Y-68520000D02*
X218440000Y-68520000D01*
X217110000Y-71120000D02*
X217110000Y-83880000D01*
%TO.C,C9*%
X118260000Y-114800000D02*
X118260000Y-118840000D01*
X116045000Y-118840000D02*
X115420000Y-118840000D01*
X115420000Y-114800000D02*
X115420000Y-118840000D01*
X118260000Y-114800000D02*
X117635000Y-114800000D01*
X116045000Y-114800000D02*
X115420000Y-114800000D01*
X118260000Y-118840000D02*
X117635000Y-118840000D01*
%TO.C,R7*%
X150680000Y-121460000D02*
X154120000Y-121460000D01*
X154120000Y-112220000D02*
X150680000Y-112220000D01*
X152400000Y-122150000D02*
X152400000Y-121460000D01*
X154120000Y-121460000D02*
X154120000Y-112220000D01*
X152400000Y-111530000D02*
X152400000Y-112220000D01*
X150680000Y-112220000D02*
X150680000Y-121460000D01*
%TO.C,R12*%
X206320000Y-51070000D02*
X200080000Y-51070000D01*
X200080000Y-68310000D02*
X206320000Y-68310000D01*
X200080000Y-51070000D02*
X200080000Y-68310000D01*
X203200000Y-48430000D02*
X203200000Y-51070000D01*
X203200000Y-70950000D02*
X203200000Y-68310000D01*
X206320000Y-68310000D02*
X206320000Y-51070000D01*
%TO.C,R18*%
X213360000Y-114070000D02*
X213360000Y-114760000D01*
X211640000Y-124000000D02*
X215080000Y-124000000D01*
X215080000Y-124000000D02*
X215080000Y-114760000D01*
X211640000Y-114760000D02*
X211640000Y-124000000D01*
X213360000Y-124690000D02*
X213360000Y-124000000D01*
X215080000Y-114760000D02*
X211640000Y-114760000D01*
%TO.C,C4*%
X79470000Y-132090000D02*
X79470000Y-139690000D01*
X75470000Y-139690000D02*
X75470000Y-132090000D01*
X79470000Y-139690000D02*
X75470000Y-139690000D01*
X77470000Y-132090000D02*
X79470000Y-132090000D01*
X75470000Y-132090000D02*
X77470000Y-132090000D01*
%TO.C,R17*%
X159570000Y-125270000D02*
X163010000Y-125270000D01*
X161290000Y-115340000D02*
X161290000Y-116030000D01*
X159570000Y-116030000D02*
X159570000Y-125270000D01*
X163010000Y-125270000D02*
X163010000Y-116030000D01*
X161290000Y-125960000D02*
X161290000Y-125270000D01*
X163010000Y-116030000D02*
X159570000Y-116030000D01*
%TO.C,R9*%
X203200000Y-122150000D02*
X203200000Y-121460000D01*
X201480000Y-112220000D02*
X201480000Y-121460000D01*
X201480000Y-121460000D02*
X204920000Y-121460000D01*
X204920000Y-112220000D02*
X201480000Y-112220000D01*
X204920000Y-121460000D02*
X204920000Y-112220000D01*
X203200000Y-111530000D02*
X203200000Y-112220000D01*
%TO.C,R3*%
X93530000Y-131270000D02*
X93530000Y-140510000D01*
X95250000Y-141200000D02*
X95250000Y-140510000D01*
X95250000Y-130580000D02*
X95250000Y-131270000D01*
X96970000Y-131270000D02*
X93530000Y-131270000D01*
X93530000Y-140510000D02*
X96970000Y-140510000D01*
X96970000Y-140510000D02*
X96970000Y-131270000D01*
%TO.C,R21*%
X175710000Y-121460000D02*
X175710000Y-112220000D01*
X172270000Y-121460000D02*
X175710000Y-121460000D01*
X175710000Y-112220000D02*
X172270000Y-112220000D01*
X173990000Y-122150000D02*
X173990000Y-121460000D01*
X172270000Y-112220000D02*
X172270000Y-121460000D01*
X173990000Y-111530000D02*
X173990000Y-112220000D01*
%TO.C,J3*%
X46920000Y-111110000D02*
X46320000Y-111110000D01*
X53880000Y-111910000D02*
X53880000Y-103990000D01*
X55550000Y-111910000D02*
X55550000Y-103990000D01*
X46920000Y-104790000D02*
X46920000Y-103190000D01*
X53880000Y-103990000D02*
X55550000Y-103990000D01*
X55545000Y-112025000D02*
X55545000Y-113930000D01*
X46920000Y-112710000D02*
X46920000Y-111110000D01*
X56550000Y-112025000D02*
X55545000Y-112025000D01*
X46920000Y-107150000D02*
X46320000Y-107150000D01*
X56550000Y-103875000D02*
X56550000Y-112025000D01*
X46920000Y-108750000D02*
X46920000Y-107150000D01*
X46320000Y-101970000D02*
X55545000Y-101970000D01*
X46320000Y-104790000D02*
X46920000Y-104790000D01*
X46320000Y-108750000D02*
X46920000Y-108750000D01*
X55545000Y-103875000D02*
X56550000Y-103875000D01*
X55545000Y-113930000D02*
X46320000Y-113930000D01*
X55550000Y-111910000D02*
X53880000Y-111910000D01*
X55550000Y-103990000D02*
X56550000Y-103990000D01*
X46320000Y-113930000D02*
X46320000Y-101970000D01*
X46920000Y-103190000D02*
X46320000Y-103190000D01*
X49540000Y-114220000D02*
X53540000Y-114220000D01*
X46320000Y-112710000D02*
X46920000Y-112710000D01*
X55545000Y-101970000D02*
X55545000Y-103875000D01*
X56550000Y-111910000D02*
X55550000Y-111910000D01*
%TO.C,RV1*%
X135455000Y-151250000D02*
X135455000Y-157700000D01*
X143530000Y-135830000D02*
X143530000Y-144900000D01*
X138864000Y-151250000D02*
X138864000Y-157700000D01*
X140455000Y-144900000D02*
X133865000Y-144900000D01*
X143530000Y-135830000D02*
X130790000Y-135830000D01*
X133865000Y-144900000D02*
X133865000Y-151250000D01*
X138864000Y-157700000D02*
X135455000Y-157700000D01*
X140455000Y-151250000D02*
X133865000Y-151250000D01*
X140455000Y-144900000D02*
X140455000Y-151250000D01*
X143530000Y-144900000D02*
X130790000Y-144900000D01*
X138864000Y-151250000D02*
X135455000Y-151250000D01*
X130790000Y-135830000D02*
X130790000Y-144900000D01*
%TO.C,C7*%
X148690000Y-112720000D02*
X148690000Y-120960000D01*
X145950000Y-112720000D02*
X145950000Y-120960000D01*
X148690000Y-120960000D02*
X145950000Y-120960000D01*
X148690000Y-112720000D02*
X145950000Y-112720000D01*
%TO.C,C10*%
X170330000Y-114800000D02*
X170330000Y-118840000D01*
X170330000Y-114800000D02*
X169705000Y-114800000D01*
X170330000Y-118840000D02*
X169705000Y-118840000D01*
X168115000Y-114800000D02*
X167490000Y-114800000D01*
X167490000Y-114800000D02*
X167490000Y-118840000D01*
X168115000Y-118840000D02*
X167490000Y-118840000D01*
%TO.C,R20*%
X120200000Y-139240000D02*
X123640000Y-139240000D01*
X121920000Y-129310000D02*
X121920000Y-130000000D01*
X123640000Y-139240000D02*
X123640000Y-130000000D01*
X123640000Y-130000000D02*
X120200000Y-130000000D01*
X121920000Y-139930000D02*
X121920000Y-139240000D01*
X120200000Y-130000000D02*
X120200000Y-139240000D01*
%TO.C,U1*%
X95650000Y-98980000D02*
X93400000Y-97730000D01*
X97150000Y-96480000D02*
X95650000Y-98980000D01*
X94650000Y-94980000D02*
X97150000Y-96480000D01*
X104020000Y-93980000D02*
G75*
G03*
X104020000Y-93980000I-15120000J0D01*
G01*
%TO.C,R10*%
X201480000Y-128730000D02*
X201480000Y-137970000D01*
X203200000Y-128040000D02*
X203200000Y-128730000D01*
X203200000Y-138660000D02*
X203200000Y-137970000D01*
X204920000Y-128730000D02*
X201480000Y-128730000D01*
X204920000Y-137970000D02*
X204920000Y-128730000D01*
X201480000Y-137970000D02*
X204920000Y-137970000D01*
%TO.C,R8*%
X150680000Y-139240000D02*
X154120000Y-139240000D01*
X150680000Y-130000000D02*
X150680000Y-139240000D01*
X152400000Y-129310000D02*
X152400000Y-130000000D01*
X152400000Y-139930000D02*
X152400000Y-139240000D01*
X154120000Y-130000000D02*
X150680000Y-130000000D01*
X154120000Y-139240000D02*
X154120000Y-130000000D01*
%TO.C,R13*%
X133350000Y-112800000D02*
X133350000Y-113490000D01*
X131630000Y-122730000D02*
X135070000Y-122730000D01*
X135070000Y-122730000D02*
X135070000Y-113490000D01*
X133350000Y-123420000D02*
X133350000Y-122730000D01*
X135070000Y-113490000D02*
X131630000Y-113490000D01*
X131630000Y-113490000D02*
X131630000Y-122730000D01*
%TO.C,C6*%
X160730000Y-104810000D02*
X169470000Y-104810000D01*
X160730000Y-104810000D02*
X160730000Y-78070000D01*
X169470000Y-104810000D02*
X169470000Y-78070000D01*
X160730000Y-78070000D02*
X169470000Y-78070000D01*
%TO.C,R14*%
X186690000Y-125960000D02*
X186690000Y-125270000D01*
X188410000Y-125270000D02*
X188410000Y-116030000D01*
X184970000Y-125270000D02*
X188410000Y-125270000D01*
X188410000Y-116030000D02*
X184970000Y-116030000D01*
X184970000Y-116030000D02*
X184970000Y-125270000D01*
X186690000Y-115340000D02*
X186690000Y-116030000D01*
%TO.C,R15*%
X128960000Y-68310000D02*
X135200000Y-68310000D01*
X135200000Y-51070000D02*
X128960000Y-51070000D01*
X135200000Y-68310000D02*
X135200000Y-51070000D01*
X132080000Y-48430000D02*
X132080000Y-51070000D01*
X128960000Y-51070000D02*
X128960000Y-68310000D01*
X132080000Y-70950000D02*
X132080000Y-68310000D01*
%TO.C,R5*%
X88900000Y-48430000D02*
X88900000Y-51070000D01*
X92020000Y-68310000D02*
X92020000Y-51070000D01*
X92020000Y-51070000D02*
X85780000Y-51070000D01*
X88900000Y-70950000D02*
X88900000Y-68310000D01*
X85780000Y-51070000D02*
X85780000Y-68310000D01*
X85780000Y-68310000D02*
X92020000Y-68310000D01*
%TD*%
M02*
